refinementinfo

progressstart 0
progressstop 100
progresstext "Mesh refinement"

reftype edgesplit

refine edges
3 3561
16 5276
15 5276
18 2662
19 5278
20 5278
25 28
14 3566
30 5280
35 324
21 3567
328 2667
331 332
336 337
39 342
42 343
28 5281
41 352
38 5285
380 381
43 382
391 392
394 5286
5 3573
2672 3573
2672 3574
2673 3575
2673 3576
4 3576
395 3577
47 3577
396 2674
395 2674
46 5292
49 399
402 3578
404 3579
403 5300
405 3581
51 3582
406 3582
407 408
408 409
409 410
413 414
65 3597
429 3597
66 5318
3598 5318
3598 5319
2682 5319
2682 5320
3599 5320
3599 5321
20 5321
19 5322
3600 5322
3600 5323
2683 5323
2683 5324
3601 5324
3601 5325
67 5325
68 2684
431 2685
433 2687
432 2687
433 3602
434 435
436 2688
435 2688
72 2690
71 2692
444 5338
77 5338
445 5339
444 5339
446 447
448 5340
448 449
450 451
76 5342
452 3609
452 3610
3611 5343
454 2694
456 5348
457 458
459 5351
460 5352
85 5352
85 86
462 2696
2698 5362
3615 5362
3615 5363
464 3616
88 3616
88 3617
465 3617
465 3618
466 3618
466 3619
467 3619
467 3620
469 470
470 471
99 473
473 5368
474 5368
476 3623
477 3623
477 478
104 105
106 2700
484 5373
484 5374
485 5375
487 5376
487 5377
488 5377
488 5378
489 5378
490 5379
112 113
115 2701
116 118
118 5381
128 129
498 3631
499 3631
502 3634
502 3635
503 3635
503 2703
516 3646
516 2708
517 2708
517 2709
145 2710
146 147
149 2712
151 152
519 5397
519 5398
520 5398
520 5399
521 5399
521 5400
522 5400
523 3648
524 5402
525 5402
525 5403
154 5403
532 5405
533 5405
533 5406
534 5406
534 3650
535 3650
535 3651
536 3651
536 5407
537 5408
177 5408
538 5409
176 538
177 178
539 3652
539 5410
540 5410
540 3653
541 3653
179 3654
542 3655
2714 3656
3 3656
179 3657
542 3657
556 3658
180 3658
17 5414
3659 5414
3659 5415
2716 5415
2716 5416
3660 5416
3660 5417
181 5417
184 185
558 5418
560 5419
559 5419
561 5420
560 5420
561 5421
563 5422
564 5423
564 5424
191 192
194 2718
195 5425
195 5426
197 3663
569 3665
571 3667
571 3668
205 3669
572 2719
207 2719
573 2720
572 2720
574 3671
573 3671
574 3672
576 3674
577 3675
206 2721
579 3676
209 3676
580 2723
579 2723
581 2724
580 2724
582 3677
583 3679
585 3680
584 3680
208 3681
585 3681
210 3683
220 2725
587 2726
588 2727
587 2727
588 3684
221 5442
222 2729
224 225
593 5443
227 5443
594 5444
593 5444
595 3690
597 5446
596 5446
598 5447
597 5447
599 5448
598 5448
599 5449
603 5451
603 604
605 3692
604 3692
606 5452
605 5452
607 5453
606 5453
611 5455
248 5455
612 5456
247 612
248 249
250 3694
614 3695
613 3695
615 5458
614 5458
615 3696
616 3697
2731 3698
2 3698
250 3699
616 3699
617 3700
251 3700
618 2732
617 2732
45 5461
253 620
253 254
624 3701
626 3702
625 5469
627 3704
255 3705
628 3705
629 2735
629 630
637 638
640 2736
640 3709
641 3710
644 3712
643 3712
270 3714
651 3718
652 3719
653 2739
269 3720
653 3720
270 5487
3721 5487
3721 5488
2740 5488
2740 5489
3722 5489
3722 5490
21 5490
271 2741
655 2742
657 2744
656 2744
657 3723
658 659
660 2745
659 2745
275 2747
662 2748
661 2748
663 3724
662 3724
667 3728
666 3728
274 2749
668 5503
280 5503
669 5504
668 5504
670 671
672 5505
672 673
674 675
279 5507
676 3730
676 3731
3732 5508
678 2751
680 5513
681 682
286 287
683 5515
288 5515
684 5516
288 289
686 2753
2755 5527
3736 5527
3736 5528
688 3737
689 3738
688 3738
690 3739
689 3739
180 3740
690 3740
692 693
693 694
699 700
701 3741
700 3741
704 5535
703 5535
300 704
334 2668
17 3567
5 3572
40 5283
159 5536
135 5537
43 5539
5540 2
2 3509
3 3748
5542 4
4 5543
5544 4
4 3755
4 5231
5 5544
3756 5
5 5547
7 1205
8 1314
3759 9
12 1168
3775 19
19 2787
5565 20
21 3779
21 3780
23 1300
24 1302
25 3781
25 1954
25 3782
25 5570
28 3783
28 3785
28 5200
28 3787
28 5570
28 5575
28 1754
948 29
29 949
2803 31
31 2804
31 5581
31 3793
31 3791
31 5582
31 5583
943 34
34 1660
34 1792
5861 35
35 1724
5865 38
38 3555
38 5587
38 5588
39 928
746 42
42 1953
42 3550
42 1680
46 5594
5597 47
47 5598
48 5597
5699 48
48 5599
48 5598
5603 49
49 5601
254 49
49 1349
49 5893
3804 50
50 5606
51 3805
51 3806
161 54
55 161
159 55
5396 60
60 5073
60 1734
60 3810
64 135
65 3849
65 3811
3812 66
66 3816
66 3813
66 3847
66 3814
66 3848
2705 67
3812 67
67 3818
67 3845
67 3817
68 130
68 1371
68 5679
69 130
71 2749
71 7070
71 3819
72 2747
74 2821
552 80
83 5627
83 5632
83 5631
5636 84
5635 84
286 84
84 5633
85 4280
3828 86
86 5640
86 5641
5644 87
87 5645
87 3830
87 3829
5644 88
5645 88
88 3832
89 3834
549 91
545 99
99 1473
100 1472
100 1580
5654 105
105 5626
185 105
105 184
105 2817
105 5656
105 5655
106 5654
106 5655
106 1592
106 2817
110 3835
110 3098
110 1974
2815 112
112 192
112 3886
112 1558
112 3890
113 2815
113 2820
113 3890
116 3837
116 3895
118 5426
118 1684
118 5666
118 5667
118 5668
119 1786
119 3842
119 3902
120 3663
130 5615
130 1654
130 3920
5330 131
131 2719
131 5065
131 3846
131 5125
131 5241
131 3923
132 3681
132 3493
132 3847
132 3524
132 3848
133 1396
145 3851
145 1734
145 3810
146 5685
146 3535
146 3854
146 1689
146 3853
147 3855
147 2857
147 5685
2813 151
151 1692
151 5687
152 2813
224 152
152 5689
152 3957
159 2836
2713 159
159 2817
159 1592
159 1788
159 1624
159 2837
164 1567
165 1344
175 3804
5603 175
175 5697
175 1633
5601 176
5603 176
176 5697
176 6354
177 5699
177 5597
177 5701
178 5703
178 3515
179 3860
179 3859
179 3547
7299 180
180 2839
181 3866
181 3867
181 3865
181 6952
282 182
182 281
5828 182
182 1229
2843 184
184 3869
184 5717
184 3870
184 5712
184 3531
185 5716
3873 185
3869 185
185 2848
185 5718
185 3876
185 5717
185 3879
2853 186
189 1218
189 1254
190 1209
190 2855
5722 191
191 2859
3894 191
191 3886
192 5725
5722 192
192 5728
192 3886
2862 195
2869 195
3896 195
195 3897
3899 196
196 2870
196 1260
196 3901
196 2865
196 3902
196 3903
7302 197
199 3904
199 1658
200 865
3904 200
200 2871
200 203
200 1222
200 1291
200 1377
200 1658
201 865
201 1377
2873 204
205 2878
3917 206
272 206
206 271
206 3918
3921 207
5132 207
207 7036
207 3923
207 5241
208 3925
3924 208
208 2885
3641 209
209 3928
209 2888
210 3935
210 3936
211 3939
211 3938
211 5244
220 3943
220 5143
221 2857
221 3948
222 2858
222 2904
222 1265
222 3557
224 5759
5760 224
224 3950
3954 224
224 1290
224 5764
224 5763
224 3957
5760 225
225 3954
225 5247
225 3957
227 859
3959 227
233 258
259 233
233 1283
234 1233
234 1289
237 887
237 1215
3975 240
246 3992
246 3514
247 3989
247 5789
247 3992
247 3991
247 3993
247 6581
3995 248
3996 248
248 6965
248 5271
248 3515
5791 249
3999 249
249 3995
249 6965
4002 250
250 4003
5795 250
2810 250
250 6924
4005 251
251 4006
251 2931
251 2937
252 5800
4762 253
253 5801
253 4011
253 1962
5807 254
254 4013
254 5806
254 3466
255 2922
255 2940
255 1046
255 4015
255 4014
255 3466
256 907
256 1227
600 258
2914 259
260 1251
269 3597
3708 269
2941 269
269 7032
269 1228
269 5816
269 1397
269 2814
3591 270
2722 270
3681 270
270 4021
270 5825
271 4024
271 3919
3669 273
280 3880
280 3881
5503 284
284 5827
284 4029
4031 285
285 1240
286 4034
286 3468
287 5835
4037 287
287 5245
287 3468
4041 288
288 5840
288 4966
288 4044
288 2949
288 3519
5840 289
289 4047
289 2949
289 4048
289 4049
289 3519
289 3540
4051 290
290 4052
290 950
290 4054
290 4057
291 4059
291 6936
291 2955
4042 292
4043 292
292 5204
293 4062
293 3494
294 875
912 294
294 1032
295 912
2930 296
296 1332
297 2924
3979 297
297 1237
297 1230
297 4065
300 4063
4064 300
913 301
301 1231
1835 313
1836 314
1837 314
6930 316
6931 317
946 319
319 943
319 900
319 1704
946 320
320 947
320 899
320 900
948 321
947 321
321 899
321 1699
324 1841
324 5861
324 5862
324 1717
324 1724
5866 325
325 1717
325 1766
326 5866
5867 326
326 5865
326 5870
326 5871
326 1776
326 1766
326 5588
326 5872
326 5873
2960 328
343 340
340 920
340 3550
340 1815
340 1790
340 1680
928 341
341 920
341 1790
341 1814
1840 342
342 928
342 786
342 1710
5021 379
937 380
380 5021
380 1807
381 937
381 1948
381 3200
395 4067
395 5877
395 5878
395 5879
4520 396
396 4068
396 5881
7117 397
397 4069
397 5884
397 5885
397 1959
398 5887
398 5888
399 5892
400 543
400 4070
400 4071
400 2964
400 5895
400 3209
401 4073
401 4074
4075 402
402 4078
402 4079
403 4080
403 4082
403 4083
404 4084
404 4085
404 4087
404 4086
404 3220
404 3219
405 4093
405 4091
405 4783
5908 406
406 5910
406 4096
406 3225
407 5914
4098 407
2968 407
407 4103
407 4100
407 1794
407 4799
5919 408
408 4104
5914 408
408 629
408 5916
408 4105
408 4106
408 4107
408 4799
5922 410
410 5925
411 4112
412 4114
412 4115
412 4116
412 4117
412 4118
412 4806
638 413
413 4121
413 4127
413 4125
413 4122
413 4807
413 5944
414 4125
415 4134
415 3209
415 5955
416 3709
416 4137
416 4138
416 4864
416 4140
417 4142
417 6690
417 4815
418 5962
418 4146
418 4147
418 4817
419 5967
420 3712
420 3013
420 5973
420 6272
420 4825
420 4151
421 4833
421 4155
421 5110
422 6702
422 4836
422 4840
422 4158
422 4159
422 4160
422 4837
423 4162
423 4163
423 4161
423 4164
423 4411
424 4165
424 4169
424 4166
424 4167
425 4170
425 4171
425 4851
425 4172
426 4857
427 3718
427 4177
427 4426
428 3719
428 4179
429 2739
429 4182
429 4435
429 4433
429 4864
429 4181
429 1696
430 5986
430 5985
430 7531
430 7532
431 5992
431 5989
431 5990
433 5997
433 4877
433 6000
434 4883
435 4882
435 6008
435 4402
436 4885
436 5071
436 4408
437 2748
437 6014
437 3022
438 4186
438 4187
438 4358
438 4892
439 6025
440 4897
442 4201
442 4205
442 4203
442 4202
442 4199
442 4903
443 3728
443 4207
443 6044
443 4209
443 4915
444 6046
444 3049
444 4211
445 4213
445 4214
445 6781
6053 446
446 4216
447 4221
6170 447
447 4223
447 6060
447 4927
447 6793
447 6786
447 4923
447 6058
448 4225
448 3358
448 4227
448 4228
448 4930
449 4230
449 4229
449 4234
449 4233
449 4930
449 4232
450 4235
450 4230
450 3371
450 6068
450 4239
450 4236
450 4237
450 6071
450 4933
450 4936
4240 451
451 3069
461 4286
462 4287
4292 462
462 6111
462 7085
462 6113
464 6116
464 3078
464 5084
464 4289
464 4290
465 4286
7156 465
465 4983
465 7057
466 4292
4287 466
466 4293
467 4294
467 4979
467 4298
467 4297
467 4295
468 1333
4279 469
469 4272
469 1333
469 1613
469 1334
469 4276
470 1613
470 1334
4279 471
4278 471
471 1334
471 1336
471 1503
471 4282
473 545
6122 473
473 4300
473 4063
474 4249
7497 474
474 4244
474 7496
474 4304
474 6128
474 4303
474 6131
4254 475
475 6135
7520 476
476 5002
6144 477
477 4997
477 4996
478 4996
478 883
478 4320
479 882
479 883
480 1472
480 882
480 1580
480 4324
4213 484
4210 484
484 4326
484 4327
484 4328
484 4329
484 4560
4216 485
485 6165
485 6166
485 4326
485 6393
485 6168
485 4331
486 4222
486 4334
486 4337
486 3061
487 4225
4221 487
487 6174
487 4340
487 3062
487 4342
488 4229
4226 488
488 4344
4230 489
489 4346
489 4348
490 4349
490 2855
490 4350
491 4353
491 6014
491 4352
491 4355
491 4354
491 4593
491 4591
492 4359
492 4358
492 4356
492 4586
493 3665
493 4583
493 4360
493 4364
493 4581
493 4582
494 4367
495 6410
495 6212
496 4376
496 6219
496 6409
497 4379
497 6044
497 4567
497 4377
498 4620
498 6459
498 4381
498 4382
498 4384
2685 499
499 4389
499 7135
500 2686
500 5995
500 7137
500 4610
501 4394
502 3672
502 6242
502 4602
502 6005
502 7598
503 2688
2720 503
503 4599
503 4405
503 4598
504 2720
504 5126
504 4597
504 4407
504 4408
504 5108
504 5124
505 3680
505 4413
505 4410
505 4409
505 4411
506 4169
506 4165
506 4415
506 4414
507 4171
507 4170
508 4421
508 4422
509 2724
509 4177
509 4426
510 2723
510 4429
510 4430
510 4179
510 4180
510 4431
511 3811
511 4433
511 4432
511 4435
512 4668
512 4672
513 4442
513 4443
513 4659
513 4666
514 4446
514 6262
514 4450
514 4444
514 4656
515 4652
515 6268
515 4457
515 4455
515 4451
515 4148
516 4650
516 4649
517 4465
517 4464
517 5145
517 5110
518 5144
518 4646
518 4642
519 4098
4099 519
519 6282
519 4704
519 1673
519 6283
519 1610
519 6284
519 4472
520 5914
520 4104
520 4476
520 4477
520 4479
520 6287
520 6533
520 6289
521 6291
521 6290
521 6292
521 6293
522 4112
522 4485
522 6297
523 4114
523 4490
524 4493
524 6308
5953 525
525 4128
525 6311
525 6309
526 557
529 1567
530 857
4072 531
531 4497
532 4729
532 4499
533 6562
533 6329
533 4500
533 6330
533 4725
534 4090
6332 534
534 4509
535 4094
6339 535
535 6340
535 6547
536 4517
5891 537
537 6351
538 5602
538 6355
2674 539
539 4067
539 7113
7115 540
540 4068
540 6360
7117 541
5092 542
542 4528
542 5083
542 4529
543 5296
3078 556
556 2840
556 6929
556 3079
600 557
2921 557
5828 557
557 1075
557 1229
557 1216
557 1233
6372 559
4536 559
6804 560
560 3087
560 4543
560 6384
6386 561
561 4549
4552 562
562 3093
6393 563
563 4558
563 4559
563 3093
6782 564
564 4561
564 4563
565 4567
565 6399
565 3345
565 5188
566 6403
666 566
566 4571
566 4572
566 6409
6410 567
6412 567
567 4576
567 3107
568 6757
568 3110
4582 569
4583 569
4581 569
569 6429
4586 570
570 4588
570 1250
570 4589
570 6749
3625 571
4593 571
571 4591
571 3324
571 4595
2704 572
5126 572
572 4597
5124 572
572 3119
3635 573
573 4599
573 4598
573 2745
573 3123
574 3635
4602 574
658 574
574 4604
575 657
4610 576
6451 576
576 4612
3631 577
577 3304
577 3133
6459 578
578 2741
578 654
578 4618
578 4620
579 2707
4622 579
4621 579
579 3137
579 5109
579 4436
580 2706
4624 580
5135 580
2739 580
580 4625
6468 581
3719 581
581 3296
581 4629
4630 582
3718 582
582 4423
582 4424
583 3638
583 4636
584 4637
5480 584
3636 585
4641 585
585 4640
4639 585
585 3151
5144 586
5141 586
586 4642
586 3153
586 4646
3155 587
587 4647
5145 587
587 3274
587 3157
587 4834
4649 588
588 4650
4652 589
589 4821
589 3268
589 4822
4656 590
590 4818
590 4658
590 3166
590 3264
6498 591
4659 591
591 4665
6503 592
592 4668
592 6505
592 4670
592 4672
6509 593
593 4676
593 4679
4680 594
594 4683
594 6311
595 4686
6522 596
596 4692
596 4695
6524 597
597 4699
597 3240
6531 598
6530 598
598 4701
598 3233
598 4709
598 6533
599 4704
6534 599
599 4706
4707 599
4708 599
599 4711
599 4709
600 1283
600 1073
600 1227
600 1216
600 1273
600 1289
600 1233
601 1076
6539 603
6540 603
3175 603
603 4715
603 4716
604 6539
604 3175
6548 604
604 3176
604 6544
604 6551
605 4721
6553 605
605 6556
6558 606
606 4725
6559 606
606 3179
606 4726
606 4727
606 4728
606 6562
4729 607
3182 607
3183 607
609 4735
612 994
612 4741
613 3186
614 4745
4746 614
3191 614
614 3198
4748 615
4750 615
615 3198
615 6357
616 4751
616 4752
6590 616
616 3200
5153 617
617 4756
617 4757
4760 618
6603 619
620 4762
4765 620
620 1962
4765 621
621 6609
621 4737
621 1004
621 5223
3209 622
622 4767
623 6617
623 4769
624 4771
624 4773
624 4774
3180 625
625 6624
3219 626
3220 626
626 4780
626 6629
626 4781
626 6977
627 4783
7378 627
627 4789
628 3225
628 3174
629 4794
629 4706
629 4707
4708 629
629 4797
629 4798
629 4107
629 4799
629 4100
4800 630
630 4701
630 4702
4706 630
630 4796
630 4107
631 4697
4701 631
631 5916
6646 632
4697 632
4698 632
4699 632
632 3241
632 3238
632 3237
4699 633
633 5925
636 4688
4807 637
637 6667
6669 637
637 4681
637 4122
638 4807
638 6677
638 6678
4681 638
638 4682
638 6670
638 6679
638 4808
638 6680
638 4125
6683 639
2678 640
6688 640
4862 640
640 3256
640 6505
640 4864
4815 641
641 6690
641 4816
3587 642
642 4817
6495 642
4820 643
643 6696
643 6489
643 3267
643 6697
4825 644
644 3272
644 4829
644 4830
4833 645
645 4834
645 3276
645 5147
646 4836
4837 646
6702 646
646 3277
646 4645
647 1247
647 4845
647 6479
649 4851
649 3679
649 5199
650 3291
4858 651
651 4860
651 4859
652 3140
652 6973
653 3597
653 4864
653 6725
4865 654
654 4866
654 4869
654 6461
654 4870
655 3674
655 6974
5176 656
4873 656
656 4875
4877 657
657 4608
657 4609
4883 658
658 4880
659 4882
4883 659
659 3671
659 3316
660 4885
660 2720
660 6744
660 3320
661 5182
3326 661
661 3374
661 3022
4892 662
5183 662
662 4893
662 4584
662 4894
3603 663
6750 663
663 6984
663 6983
6755 664
664 3335
664 4897
665 4900
665 6762
665 6415
4903 666
666 4572
666 4201
666 4908
666 4909
666 4203
667 6771
667 3346
667 4915
668 3348
4561 668
668 3880
6781 669
669 4558
6782 669
4562 669
669 4919
670 4920
670 4922
670 6058
6793 671
671 3356
671 3359
671 4920
671 4925
671 4927
3360 672
3358 672
4542 672
672 4549
672 4928
672 4929
672 4930
6801 673
673 3366
673 4930
4932 674
674 4933
6814 674
4536 674
674 3370
674 4936
6813 675
675 4938
675 4933
4532 675
675 4939
675 4940
675 4934
675 6071
4942 676
676 4943
676 4944
676 7013
4946 677
677 4948
677 4947
677 3382
677 6821
678 4951
678 6824
678 3388
678 6084
4952 679
679 4954
4955 680
680 4956
680 6829
680 4957
4958 681
681 3400
682 3400
682 3402
682 4959
682 4960
4962 683
683 4965
683 4966
683 4275
683 4284
4961 684
684 4969
684 3538
684 4275
4972 686
686 3408
686 4973
686 4974
686 3442
686 6959
686 5030
3411 687
687 983
688 4977
3411 688
689 3417
4983 690
690 4986
893 691
691 911
691 4988
692 4967
692 4988
693 4967
6876 694
694 4990
694 4989
696 2930
696 912
919 696
696 1230
696 1288
696 1332
696 3476
910 697
882 698
698 883
698 910
883 699
4996 699
4996 700
700 4997
700 3396
700 4998
700 5000
701 5002
3381 702
6898 703
703 3376
6899 703
703 5009
4063 704
6904 704
704 6907
704 5012
704 5014
704 5013
704 6130
766 3432
3404 767
3407 768
768 3410
3410 769
779 3360
3364 781
781 1020
6750 783
785 6974
3305 788
791 1009
793 985
798 969
817 935
822 3295
826 3241
832 1028
833 1028
849 937
851 6571
902 859
3959 860
2869 864
865 1380
2871 870
872 1047
877 3093
5451 887
5456 892
892 1612
896 2840
907 5465
3693 918
921 975
5198 921
921 3320
969 927
3432 927
3441 927
3433 928
928 929
928 1275
2957 929
933 969
5023 935
3443 935
2956 935
935 4850
936 5020
5021 936
5020 937
937 5021
937 1948
937 3187
937 4003
942 5028
6926 943
993 945
946 957
953 947
948 953
952 948
5859 949
3440 949
6931 950
3440 950
950 3441
950 4056
950 5525
950 4055
950 3735
950 5526
950 7289
950 2755
951 3440
5030 951
951 3442
5031 951
951 3432
951 3404
951 5520
951 6847
952 953
952 6936
952 983
954 994
954 1030
955 993
6953 956
956 977
956 997
956 6942
956 3198
997 957
1004 957
957 994
957 6927
6937 957
957 2932
957 5455
957 3998
6953 958
959 5028
6923 959
5020 959
959 5462
991 960
960 990
960 1006
961 991
975 962
962 3444
962 3443
6952 962
962 1213
962 1247
963 4860
963 7401
963 5199
987 965
966 987
990 966
966 1007
968 985
3433 968
6947 968
6958 969
969 3432
970 969
969 3442
6950 969
969 3409
969 3410
970 1009
971 982
980 972
1012 973
973 979
973 980
985 974
3448 974
974 979
3444 975
6952 975
975 5017
3447 975
975 3123
975 1235
977 6953
997 977
992 977
977 1003
977 3192
977 3203
977 3201
977 4757
978 989
6968 978
978 3444
978 3447
978 3452
6975 978
978 2890
979 6956
979 6983
979 6984
980 1019
1012 980
1044 981
981 1021
981 1011
6957 982
983 6936
996 983
6959 983
983 6950
983 5521
983 2954
983 2949
983 5524
983 4048
983 3734
984 6958
1009 984
984 1015
1001 985
985 986
985 3419
1008 987
6967 988
989 3296
989 3291
1007 990
1014 992
6977 993
993 1039
993 1028
993 3220
994 6937
1004 994
994 5456
999 995
995 996
996 6958
996 999
6927 997
997 3198
1015 998
6958 998
998 4942
998 4943
998 2949
1037 999
999 1015
999 4031
1000 3140
1000 3254
1000 3259
1001 3449
1016 1001
1013 1001
1001 6974
3452 1002
3453 1002
1002 3449
1002 3451
1002 1236
1002 1296
1003 1014
1003 1004
1029 1004
1004 1014
1046 1004
1004 4762
1004 5463
1004 3997
1004 4009
1004 5797
1004 5464
1014 1005
1005 1049
6977 1005
1005 3219
1006 1041
1025 1007
1042 1007
1009 1015
1009 1043
6997 1009
1009 3382
1009 6911
1011 1034
1021 1011
1011 3365
1018 1012
1012 1050
1012 6983
1016 1013
6938 1014
1015 1037
1045 1015
1015 4942
1016 3451
1036 1016
1016 1236
3452 1017
1017 1228
6956 1018
1036 1018
1018 6983
1018 1250
1019 1020
1019 5419
1019 3372
1050 1020
1020 3372
1020 4932
1021 1044
1034 1021
1021 1051
1021 5421
1022 6957
1023 1022
1044 1022
1052 1022
1033 1023
1024 6980
1024 3267
1041 1025
1048 1025
1025 1042
1025 1054
1025 3234
1025 4709
1026 1041
1057 1027
1058 1028
1028 1059
1028 1039
1032 1029
1031 1037
1046 1032
1032 1063
1037 1032
1032 1240
1051 1034
6986 1036
1047 1036
3453 1036
1037 4065
1057 1039
1039 3218
1041 1055
1041 4694
1041 4709
1041 5447
1054 1042
1047 1042
1043 7430
1044 1052
1044 1066
1049 1045
3454 1047
1047 5042
1054 1047
1047 1050
7010 1047
1055 1048
1049 6539
1049 6547
1050 1250
5041 1051
1051 1068
1051 1218
1051 3093
1052 4957
1052 5513
1054 7010
1054 4709
1056 1253
1057 5475
1058 1061
1058 5453
1060 1059
1059 1070
6977 1059
1062 5041
1062 1253
1063 1288
1066 5503
1187 1547
1207 7010
1209 3662
1210 5450
1213 1247
1213 5482
1213 5199
1213 5439
1228 3452
1228 3720
1230 1240
1236 3345
1236 3451
1238 6968
1238 5477
1239 5430
1239 5501
1240 3730
1240 7013
1243 2750
1247 5481
1247 3279
1247 3715
1248 5498
1248 5431
1250 3666
1251 5476
1255 2742
1260 3668
1268 3693
1280 3669
1287 3669
1288 3693
1296 3451
1320 3391
1334 6871
1336 5367
1337 5359
1337 5358
1337 3613
1340 5407
1352 5409
1371 2684
1382 5176
1382 1491
1397 1405
1397 1402
1397 3597
1401 1782
1422 4179
1422 4177
1446 3817
1449 3217
1449 3219
1452 3216
1460 3309
1465 5154
1465 5153
1466 4729
1477 4289
1494 1746
1497 3207
1503 6871
1503 5367
1565 5403
1572 1818
1586 5404
1610 5397
1673 5397
1708 5280
1746 2695
1746 5353
1746 6847
1768 3583
1768 5309
1771 3404
1786 3625
1794 2677
1812 6910
1823 5355
1823 2696
1826 2774
2762 1829
1831 1833
1833 1832
1936 2714
1936 3655
1946 3078
1947 3659
1947 5415
1947 5489
1959 5293
1959 2676
1968 3994
2659 5090
2662 5414
2782 2662
2662 7697
2665 6930
2665 2775
2667 2960
5090 2672
2672 5091
2673 5092
2673 4528
2673 5090
2673 5094
2674 4520
4067 2674
2674 7113
2674 5877
2674 5880
2674 7064
7115 2675
2675 7065
2675 7084
2676 3858
7118 2676
2676 7117
2676 5088
2677 2738
2678 4862
2678 4864
2679 5081
2679 5095
2679 5169
2679 4158
2679 5164
2680 7126
2680 4839
2680 5069
2681 4430
2681 4180
7130 2682
2682 5097
2682 5063
2682 5172
7130 2683
7129 2683
2683 5072
2683 5064
2684 5173
2685 3631
2685 7134
2685 6231
2686 7536
2686 5990
2686 6239
3633 2687
2687 7074
2687 4394
2687 5996
2687 7075
2688 5179
2688 4402
2688 4885
2688 5071
2689 4888
2689 5065
2690 2693
2691 5187
2691 4183
2691 4358
2691 5100
2691 5099
2692 5055
2692 3047
2692 5173
2819 2693
2693 2747
2693 5058
2695 7156
2695 3830
2695 7057
2696 4292
2696 7085
2696 7157
2696 7056
2696 7093
4287 2697
2697 4294
7158 2698
6116 2698
2698 5078
2698 5067
2698 5084
7160 2699
2699 7158
2699 5084
2699 4289
2701 5121
2701 5104
2701 3892
2701 5105
2702 4620
2702 4382
2702 3920
2702 5075
2703 5107
2703 4408
2703 5126
2703 5108
2703 4599
2703 5071
2704 5124
2704 5125
2704 5065
2706 4179
2706 5137
2706 4431
2706 5061
2707 4429
2707 4430
2707 5059
2707 4182
2707 4436
2707 4435
2707 5060
2708 4650
2708 5110
2708 7175
2709 7179
2709 3155
2709 5144
2709 5082
2710 5141
2710 5143
2710 5070
2710 4646
2710 3810
2714 5092
2714 3752
2714 5083
2715 3079
2715 5115
2715 5859
7197 2716
2853 2717
2717 2847
3881 2717
2848 2717
2717 2852
2717 5717
2718 5121
2718 7203
2718 7029
2719 3921
2719 5124
5123 2719
5496 2719
2719 5050
2719 3923
2719 5125
2720 5126
4599 2720
2720 5127
2720 3123
2720 5107
3917 2721
2721 5128
2721 4023
2721 5038
2721 5130
2721 4620
2721 5075
2721 3920
2722 3925
2722 3922
5131 2722
5821 2722
2722 5132
2722 7742
2722 3524
2723 4622
5134 2723
2723 5135
2723 6724
2723 3137
2723 4429
2723 5109
2724 5136
5137 2724
2724 4624
4627 2724
2724 3140
2724 3296
2725 7219
7220 2725
2725 5141
2725 5142
2725 3153
2725 5170
2725 5143
2726 5144
3155 2726
2726 3157
2726 5043
2727 5145
2729 2858
7228 2729
2899 2729
2729 5150
2730 5450
5152 2731
2731 5089
2731 3200
2731 3457
2731 7096
2732 5153
4760 2732
2732 5154
2732 6599
2733 6953
2733 7695
2735 2738
2735 5045
2736 4862
2736 3256
2736 2942
2737 5163
5164 2737
2737 4838
2737 3277
2737 5166
2737 5167
2737 5169
2738 4837
2738 3706
2738 7040
2738 5170
2738 3583
2738 4839
2739 6725
2739 7086
7250 2740
2740 7197
2740 5025
2741 5037
2741 5174
2742 3675
2743 3674
2743 4872
3673 2744
2745 5178
4885 2745
2745 5179
2745 3316
2745 3320
2745 7048
2746 3866
2746 3867
2746 5015
2750 2747
2747 5051
2748 5183
2748 5184
2748 5044
2749 4024
2749 5039
2749 5052
2854 2750
2751 5190
2751 3388
2751 6911
2751 5040
5191 2752
2752 6932
4972 2753
2753 5194
2753 4974
2753 3442
3411 2754
2754 3408
2754 6950
2754 6959
2755 7290
2755 6930
2755 5196
2755 5087
2763 2811
2772 4052
7678 2772
2781 3770
3770 2782
2782 5116
3660 2783
2783 3721
2783 5417
2783 5487
2801 5280
2804 5280
3694 2810
2811 5288
2811 3574
2811 5090
2812 3657
2814 4864
2814 3720
5342 2819
2835 3583
2839 3658
2840 6368
2840 3658
2842 5325
5450 2844
3661 2847
3661 2848
5507 2854
2855 3662
2863 5425
2867 5425
2877 3669
2878 6975
2881 3429
2885 3681
2888 3676
2888 3452
5442 2899
2900 5442
2901 5442
2923 3693
2925 3693
2930 3693
5791 2932
2937 3700
2940 3705
2942 3708
2942 3688
2942 5440
2943 5487
2944 5027
2944 5025
2944 3721
2944 5487
2948 5529
3737 2953
2955 3737
2960 2959
5198 2959
2959 3659
2959 3769
2962 2960
5198 2960
2960 3280
2960 3722
2960 5489
2964 5297
2975 5304
2977 5304
2982 3648
2992 3584
3004 3588
3013 3590
3018 5326
3022 5332
3023 5332
3031 5333
3038 5384
3047 5337
3049 5339
3052 5339
3061 5376
3062 5377
3068 5378
3078 3658
3078 3616
3079 5413
5418 3081
3086 5506
3087 5420
3091 5505
3093 5422
3098 5424
3098 5373
3098 7709
3099 5504
3108 5430
3110 5431
3119 5496
3119 3320
3119 3866
3140 5486
3146 5438
3166 3686
3705 3174
3178 5452
5452 3179
5469 3180
3181 5453
5453 3182
3183 5454
3187 6926
3695 3190
3192 3695
3192 3198
3198 5458
3198 3202
3198 4745
3200 3697
6596 3204
3204 6953
5460 3205
4761 3206
3207 6942
5465 3209
3209 3707
3209 3584
3209 5296
3212 5467
5467 3213
3213 5298
3216 5468
3701 3216
3216 3578
3216 5299
3218 5468
3224 7378
3224 3704
3224 5472
3233 5447
3237 5447
3240 5446
5473 3244
5474 3249
3251 3689
5475 3253
3254 5477
3264 3685
3268 3685
3272 3713
3276 3713
7394 3279
4848 3279
3288 5482
3288 3716
3291 4860
3291 3443
3291 5483
3291 5199
3291 7401
3291 5438
3291 5484
4858 3293
5486 3295
3295 5317
3296 3719
3296 5485
5492 3300
3300 5327
3302 3675
3304 3674
3304 5435
3309 4878
3323 5332
3335 5498
3339 5428
3339 4912
3345 5427
5504 3348
3348 5339
3349 5504
5505 3358
3358 5340
3359 5505
5506 3364
3370 5506
3371 5341
3374 5497
3376 5535
5533 3380
3380 3743
3381 5534
3382 5509
3382 3732
3383 3743
3383 5533
3386 5531
3388 6997
3389 5531
3390 5512
3391 5510
5510 3392
3397 5513
3402 5514
5520 3404
3404 5355
3406 3409
3408 5522
3409 4972
3409 3442
5521 3411
3431 5025
3432 3442
3432 6847
3440 6932
6929 3440
3441 6932
3442 5030
6959 3442
3442 6950
3442 7285
3444 3443
3447 3449
5033 3447
6975 3447
3451 3453
6975 3452
6968 3452
3457 3698
3469 5529
3476 3693
3479 3737
3484 3654
3486 3613
3489 5295
3490 3641
3493 3636
3509 3698
3511 3617
3521 3582
3522 3630
3537 5408
3541 3617
3547 3699
5090 3562
3566 5528
5414 3567
3567 5490
3573 5090
3573 3756
5091 3573
3573 5547
5090 3574
3795 3574
3574 3797
4528 3575
3575 5094
3576 3754
5092 3576
3576 3755
3576 7746
3576 7443
3577 5879
3578 4078
3578 4083
3579 4085
3579 7460
3579 7061
3579 7461
3579 4082
3580 7060
3580 7464
7466 3581
3581 4093
3581 4096
3582 3805
3582 4095
3584 4134
3584 5896
3586 4814
3587 4142
3587 4146
3587 4815
3587 7314
3588 7316
3589 7319
3589 4152
3589 7657
3590 4156
3590 4155
3590 5110
3590 7174
3591 7731
3591 3847
3591 4161
3592 4169
3592 4162
3593 4170
3593 4165
3593 4414
3593 4168
3594 4171
3595 4173
3595 4422
3596 4427
3596 4177
3596 4179
3596 5061
3597 4433
3597 4864
3597 3811
3598 3815
3598 4842
3598 5172
3599 7481
3599 5563
3599 3778
3599 5097
3599 7296
3600 5563
7481 3600
3812 3601
3601 7479
3601 7082
3602 4877
3602 6242
3602 4400
3602 7485
3603 6750
3603 4188
3603 7325
3603 7324
3603 7322
3604 7328
3605 4196
3606 5384
3606 7330
3606 4204
3606 4199
3607 4201
3607 4207
3607 4209
3607 4208
3607 4908
3608 4216
6164 3608
3608 4214
3608 4917
3833 3613
3614 7507
3614 6115
3614 4290
3614 5067
5645 3616
3616 7507
3616 3832
3616 4290
3617 5643
3617 7156
3617 7057
3617 7058
3618 4292
4286 3618
3618 4983
3618 4980
3619 4294
4287 3619
3619 4293
3833 3620
3620 3834
3620 4979
3620 4295
3621 4248
4249 3621
3621 4307
3621 7053
7520 3623
3623 7521
3623 7522
7150 3624
3624 4349
3624 7078
3625 7089
3625 4355
3625 4596
3625 4354
3625 3903
3625 4591
3626 4352
3626 4353
3626 4358
3626 4359
3626 5056
3627 4582
3627 4586
3627 4360
3627 7323
3628 4367
3628 7067
3628 4364
3629 4374
3629 4377
3629 4379
3630 7302
3632 5329
3632 4610
3632 5990
3633 5996
3634 5998
3634 6242
3635 6008
3635 7076
3635 6010
3635 7405
3636 3847
3636 4409
3636 4161
3637 4411
3637 4169
3637 4410
3637 4415
3638 4414
3638 4170
3639 4417
3639 4421
3639 4175
3640 4178
3640 4422
3640 4426
3641 3811
3643 4672
3643 4443
3643 4442
3643 4439
3643 7313
3644 4444
3644 4659
3644 4450
3645 4652
3645 4446
3645 4457
3646 4451
3646 7554
3646 4649
3648 4112
3648 4485
3648 4491
3649 4493
3649 4490
3650 4089
4090 3650
3650 7562
3651 7567
4094 3651
3651 7568
3651 7569
3651 7570
3651 6342
3651 6547
3651 6545
3651 6348
3652 4067
3653 7115
3653 7114
3654 7118
3858 3654
3654 3860
3655 5092
3655 5083
3655 4529
3655 3752
3657 3800
4528 3657
3657 4529
3658 7299
4053 3658
3658 6929
3770 3659
3659 3772
3864 3660
5118 3660
3660 6922
3661 5717
6369 3662
3662 6917
3662 7334
7279 3662
3662 4533
3662 7584
3663 7302
3666 4582
4586 3666
3666 7046
3667 4588
3667 4352
3668 4591
3668 5051
3668 4595
3668 3903
3669 5738
3669 3918
3671 4881
3671 4604
3671 7045
3672 4602
3672 7343
3723 3672
3672 4878
3672 7342
3673 6735
3673 4876
3673 4874
3674 4610
3674 6731
3674 7345
3675 4867
3676 3926
3676 7306
3677 4860
3677 6963
3677 4424
3678 7348
3678 4635
3679 6710
3679 4636
3679 4416
3680 4637
4639 3680
3680 4410
3681 4640
7304 3681
3681 5822
3681 5258
3681 7446
7303 3683
3928 3683
3683 7618
3683 3938
3683 7052
3683 5244
3684 4649
3685 4652
4656 3685
3685 7389
3685 4655
3685 4446
4659 3686
3686 7355
3686 4450
3687 4671
3687 4664
3688 4668
3688 4670
3688 6993
3690 4688
4689 3690
4787 3692
3975 3693
3694 4003
3694 4004
4746 3695
7366 3696
4751 3697
3697 5152
3697 7099
3698 5089
3698 7096
4002 3699
3699 4752
6590 3699
3797 3699
3699 5221
3700 4005
4006 3700
3700 4756
3700 4757
3700 4758
3700 4759
4771 3701
4777 3701
3702 4781
3703 7360
3703 4780
3704 4790
6548 3704
3704 4791
3706 7025
3707 5465
3707 4016
3709 4814
3710 4815
3710 4816
3711 7318
3712 6696
4825 3712
3712 7391
3712 7657
3713 5147
3713 6979
3713 4156
3714 4847
3715 7042
3716 7395
7396 3716
3717 7397
4858 3718
3718 7401
3718 4632
3718 4860
3719 6970
3719 6967
3720 4623
3720 6972
3720 7034
3721 5118
3722 7108
3723 4877
3723 7597
3723 6443
3723 4880
3723 6948
3723 6949
3724 4892
6750 3724
4584 3724
3724 6985
3724 4188
3727 7412
3727 5429
3727 4900
3727 4204
3728 4207
3728 4910
3728 4908
3728 4915
3729 4917
3730 4031
4942 3730
3730 4032
3730 7013
3731 4943
3731 4947
7421 3731
3731 7420
3732 7426
3734 6958
4053 3735
3735 5196
3735 4054
7107 3736
3736 3762
3736 7103
3736 7292
3737 5850
4047 3737
3737 4979
3737 7713
4977 3738
4983 3739
4980 3739
3739 4982
7300 3740
3740 3862
3861 3740
3740 4986
3741 4997
3741 7685
3741 7022
3742 6918
3742 6997
3743 7692
4948 3743
3755 7746
3762 5528
3764 5363
3764 5364
3769 3770
5116 3770
5415 3770
3770 5414
3770 7697
3771 5414
3772 5414
3778 5321
3792 5280
5288 3795
3796 5461
3797 5288
3805 5407
3812 5325
3817 5325
3817 5330
3818 5325
3820 5380
5358 3828
3829 5360
3830 5354
3831 5525
5358 3833
5359 3833
3835 5338
3835 5373
3840 5380
3846 5330
3858 5292
5519 3861
5417 3864
3865 5417
3865 7582
3865 5198
3866 5495
3866 5417
3867 5495
3880 5503
3896 5425
3917 6975
5443 3959
5450 3960
3965 5450
3968 5450
3972 5450
3994 5455
3994 3997
3996 5455
3997 5791
3999 5791
4003 6926
5797 4005
4029 5514
5517 4036
4038 5517
5515 4041
5530 4042
5529 4043
5519 4051
4052 5525
4054 5525
4057 5519
4059 5529
5530 4060
4061 5530
4068 5291
4070 5297
4071 5297
5404 4072
4073 5297
4074 5297
4076 5404
4080 5300
5405 4081
4082 5300
4083 5299
4084 5302
4087 5302
4091 5301
4096 5303
5397 4099
4112 5401
5304 4112
4114 5305
4117 5305
4119 5305
4122 5305
4128 5306
4133 5306
4143 5477
4161 5310
4162 5312
4164 5310
4165 5313
4165 5391
4167 5313
4169 5312
4169 5311
4171 5392
4175 5393
4175 5392
4177 5316
4179 5317
4180 5317
4194 5335
4196 5335
5339 4210
5373 4210
5338 4210
4211 5338
4213 5339
4213 5374
5375 4216
4221 5376
5340 4225
4225 5377
5377 4226
4227 5340
5378 4230
4234 5341
5368 4244
4248 5370
5369 4249
4254 5371
4275 5516
4278 5367
4286 5355
5353 4286
4287 5357
4288 5356
4289 5365
4290 5361
5355 4292
5356 4294
4299 5368
4304 5369
4305 5368
4307 5370
4309 5371
4310 5372
4326 5374
4327 5373
4334 5375
4337 5376
4342 5376
4346 5379
4350 5379
4365 5383
4367 5382
4375 5384
4376 5385
4383 5326
4386 5327
4389 5435
4394 5389
4409 5310
4411 5312
4411 5310
4414 5391
4417 5392
4421 5393
4426 5394
4471 5398
4475 5399
4476 5399
4477 5398
4479 5398
4482 5400
4485 5401
4488 5305
4497 5404
4499 5405
4500 5406
4502 5406
4506 5406
5410 4520
4521 5410
4534 5418
5419 4535
4539 5419
4541 5506
4545 5419
5420 4547
5505 4549
5423 4556
4556 5374
4559 5423
4560 5423
4560 5374
5424 4561
4561 5504
4563 5424
5429 4568
4571 5429
5430 4573
4576 5429
4577 5429
4595 5497
4602 7598
4612 5433
4632 5484
4635 5437
4638 5439
4670 6980
5475 4675
5443 4676
4678 5475
4679 5443
4680 5444
4687 5474
4688 5474
4692 5473
4695 5446
4697 5447
4703 5448
4704 5449
4704 5397
5448 4706
5449 4708
4709 5448
4715 5451
4717 5451
6547 4718
5452 4721
4723 5452
5453 4725
4725 5405
4728 5453
5453 4729
4729 5405
4732 5454
5463 4737
4741 5456
4744 6926
4745 5458
4745 5410
5458 4750
4750 5410
4760 6954
5463 4765
4767 5465
4768 5466
5468 4777
5471 4779
4780 5471
4782 5470
4782 5301
4790 5472
5472 4791
4806 5305
4808 5475
5487 4842
4842 5318
4843 7668
5482 4849
5484 4855
4857 5314
4860 5484
5491 4865
4866 5491
4872 5494
4874 5434
4876 5433
4887 5496
4888 5331
4897 5336
4898 5333
4922 5422
4925 5421
4927 5340
4935 5341
4939 5418
4942 7013
4944 5535
4948 5509
4952 5512
4954 5510
4955 5511
5513 4956
4957 5511
5513 4958
5516 4961
5517 4961
5516 4962
5515 4962
4963 5516
4965 5516
4966 5515
4969 5516
4970 5518
5518 4984
4989 5530
4990 5530
5005 5531
5005 5371
5535 5007
5009 5535
5010 5533
5014 5535
5025 5488
6967 5035
5040 5510
5041 7023
5063 5320
5063 5319
5064 5324
5064 5323
5065 5330
5067 5361
5069 5309
5072 5323
5077 5361
5078 5361
5084 5365
5084 5362
5090 7105
5097 5320
5416 5118
5488 5118
5119 5425
5148 5442
5153 6954
5160 5462
5172 5319
5173 5491
5502 5173
5173 5337
5173 5326
5176 7068
5188 5427
5519 5191
5196 5526
6952 5198
5204 5530
5276 5363
5322 5278
5278 5321
7108 5279
5280 5581
5290 7084
5291 7115
5291 5881
5293 7117
5293 5884
5294 5699
5294 5599
5294 5888
5295 5891
5296 5895
5300 7460
7463 5301
5301 7060
5302 7464
5303 5908
7466 5303
5946 5306
5306 6682
5306 5951
5309 7183
5318 7731
7130 5319
5319 7480
5320 7128
7481 5320
5320 7484
5563 5321
5322 5563
7481 5323
5324 7130
5324 7479
5324 7082
5324 7480
5325 7082
5326 5986
5327 7533
5329 7536
5329 5990
5330 5709
5332 6193
5382 5333
5333 6206
5335 6208
5341 6808
5353 7156
5353 7057
5643 5354
5354 5644
5354 7156
5355 7157
5355 7056
5357 6111
7507 5360
6115 5361
5361 6116
5362 7158
5559 5363
7160 5364
6116 5365
7158 5365
5368 6131
5368 6130
5369 7053
5374 6166
5375 6393
5375 6167
6067 5379
5379 6189
5380 5623
5383 7329
5383 6410
5384 6216
5384 6409
5384 6212
5384 7330
5387 5991
5388 5995
5389 7073
7120 5397
5914 5398
5399 6292
5399 6290
5399 6287
5399 6533
5399 6530
5400 5922
5400 6297
5402 6308
5403 5953
5403 6310
5406 6562
5406 6556
5699 5408
5408 5888
5408 6351
5409 5891
5409 6355
5410 6360
5411 7117
7118 5411
5414 7580
7197 5416
5417 5495
7269 5417
5417 6922
5418 6369
6372 5418
6814 5418
5418 6377
5418 6189
5419 6384
6386 5420
6795 5421
6796 5421
5422 6393
6789 5422
5423 6782
5424 7709
5428 6770
5429 6403
5429 7672
5429 6212
5429 6409
5430 6410
5430 6202
5498 5431
5431 6757
6451 5433
5434 7035
5436 6468
5437 7398
6509 5443
6684 5443
6678 5444
5446 6522
6524 5446
6649 5446
5446 6529
5446 6297
5447 6292
5447 6293
5448 6531
6534 5448
5448 6538
5448 6288
5448 6533
6540 5451
5451 7694
6559 5452
5452 6553
6628 5452
5452 6556
5452 6562
5455 5791
5459 6942
5460 6953
5589 5461
5464 6609
6617 5467
5468 6624
5472 6634
6678 5475
5477 6690
5478 7024
7394 5480
5481 7042
7395 5482
5482 6478
5486 6973
5487 7668
5488 7250
7197 5488
7198 5489
5489 7197
5490 7108
5495 5709
5496 6438
6771 5502
5504 6781
6808 5506
5508 6824
5508 7426
5510 6911
5510 6957
5511 6829
5514 5829
5518 6932
5520 6850
5521 6950
5522 6959
7290 5526
5527 6930
5530 6876
6898 5533
5533 7692
5533 6899
6904 5535
5535 6907
5535 6130
5876 6926
6539 6550
6539 6545
6546 6547
6599 6953
6847 6932
6854 6950
6922 6952
6926 6924
6938 6977
6941 6953
6950 6958
ratios
0.16
0.22
0.21
0.8
0.21
0.22
0.5
0.16
0.5
0.5
0.2
0.5
0.5
0.5
0.5
0.5
0.5
0.5
0.5
0.5
0.5
0.5
0.5
0.5
0.5
0.5
0.5
0.5
0.5
0.5
0.5
0.51
0.49
0.5
0.5
0.5
0.5
0.49
0.49
0.5
0.5
0.47
0.23
0.71
0.48
0.55
0.74
0.5
0.5
0.5
0.5
0.5
0.5
0.5
0.5
0.5
0.5
0.5
0.5
0.5
0.5
0.5
0.5
0.5
0.5
0.5
0.5
0.5
0.5
0.5
0.5
0.31
0.27
0.48
0.5
0.43
0.51
0.5
0.5
0.5
0.5
0.5
0.49
0.5
0.49
0.51
0.51
0.51
0.5
0.5
0.5
0.5
0.51
0.5
0.5
0.5
0.5
0.5
0.5
0.51
0.49
0.5
0.49
0.51
0.5
0.49
0.47
0.51
0.51
0.48
0.53
0.47
0.54
0.8
0.17
0.5
0.5
0.5
0.5
0.5
0.48
0.52
0.49
0.51
0.78
0.5
0.35
0.19
0.4
0.71
0.6
0.28
0.27
0.43
0.41
0.5
0.5
0.49
0.51
0.5
0.65
0.5
0.34
0.5
0.5
0.5
0.5
0.5
0.5
0.5
0.5
0.5
0.5
0.5
0.5
0.48
0.53
0.48
0.52
0.48
0.52
0.8
0.8
0.49
0.5
0.5
0.5
0.5
0.5
0.49
0.5
0.48
0.51
0.48
0.5
0.5
0.5
0.5
0.5
0.5
0.5
0.5
0.5
0.5
0.5
0.5
0.5
0.5
0.5
0.5
0.55
0.49
0.48
0.51
0.5
0.51
0.5
0.5
0.5
0.5
0.65
0.5
0.41
0.15
0.43
0.59
0.46
0.35
0.43
0.54
0.52
0.48
0.5
0.45
0.45
0.63
0.45
0.42
0.33
0.37
0.36
0.49
0.44
0.5600000000000001
0.52
0.43
0.43
0.49
0.52
0.46
0.54
0.25
0.5
0.49
0.5
0.51
0.5
0.41
0.5
0.38
0.5
0.5
0.5
0.5
0.5
0.5
0.5
0.5
0.5
0.5
0.5
0.5
0.51
0.6900000000000001
0.52
0.48
0.52
0.48
0.52
0.47
0.5
0.5
0.5
0.5
0.5
0.5
0.48
0.52
0.5
0.52
0.51
0.5
0.5
0.5
0.5
0.5
0.5
0.5
0.49
0.51
0.5
0.5
0.72
0.5
0.5
0.51
0.51
0.5
0.5
0.49
0.47
0.47
0.31
0.5700000000000001
0.37
0.68
0.63
0.41
0.53
0.62
0.53
0.2
0.37
0.5
0.5
0.5
0.5
0.5
0.5
0.5
0.5
0.5
0.5
0.5
0.5
0.5
0.5
0.5
0.5
0.34
0.63
0.47
0.38
0.49
0.45
0.62
0.28
0.52
0.5
0.55
0.49
0.5
0.5
0.51
0.5
0.5
0.51
0.5
0.51
0.49
0.49
0.49
0.33
0.5
0.5
0.5
0.5
0.49
0.5
0.5
0.5
0.5
0.51
0.49
0.51
0.5
0.5
0.49
0.51
0.53
0.54
0.47
0.53
0.49
0.52
0.49
0.5
0.18
0.17
0.5
0.8
0.8
0.5
0.78
0.19
0.19
0.84
0.19
0.8100000000000001
0.16
0.2
0.22
0.8
0.22
0.2
0.2
0.8200000000000001
0.2
0.8300000000000001
0.19
0.79
0.2
0.2
0.2
0.2
0.21
0.21
0.22
0.2
0.23
0.19
0.15
0.11
0.2
0.18
0.14
0.88
0.2
0.8
0.21
0.21
0.16
0.22
0.19
0.16
0.84
0.23
0.22
0.8200000000000001
0.21
0.78
0.16
0.15
0.19
0.14
0.8200000000000001
0.23
0.15
0.18
0.17
0.78
0.19
0.22
0.78
0.21
0.18
0.79
0.17
0.2
0.16
0.21
0.84
0.2
0.17
0.21
0.8
0.2
0.54
0.8
0.13
0.17
0.16
0.36
0.19
0.2
0.8
0.13
0.17
0.2
0.12
0.19
0.79
0.8
0.2
0.22
0.16
0.5
0.17
0.22
0.78
0.32
0.33
0.18
0.2
0.2
0.8
0.19
0.17
0.19
0.8
0.84
0.2
0.21
0.19
0.8200000000000001
0.2
0.23
0.8
0.22
0.18
0.16
0.78
0.8100000000000001
0.19
0.22
0.78
0.8200000000000001
0.16
0.21
0.18
0.85
0.12
0.26
0.7000000000000001
0.15
0.21
0.18
0.2
0.23
0.12
0.2
0.2
0.19
0.2
0.8100000000000001
0.8
0.17
0.1
0.14
0.19
0.18
0.14
0.19
0.22
0.19
0.15
0.22
0.2
0.22
0.17
0.22
0.22
0.72
0.22
0.18
0.23
0.78
0.71
0.22
0.18
0.22
0.22
0.19
0.75
0.15
0.17
0.2
0.2
0.2
0.2
0.16
0.17
0.21
0.17
0.19
0.14
0.15
0.21
0.2
0.21
0.85
0.19
0.16
0.15
0.26
0.2
0.17
0.09
0.8
0.16
0.1
0.19
0.13
0.23
0.2
0.21
0.15
0.84
0.22
0.15
0.8300000000000001
0.84
0.22
0.16
0.21
0.19
0.2
0.19
0.2
0.21
0.18
0.19
0.78
0.22
0.17
0.22
0.22
0.19
0.2
0.6900000000000001
0.87
0.11
0.89
0.22
0.2
0.18
0.21
0.19
0.21
0.8
0.74
0.2
0.19
0.22
0.22
0.17
0.8
0.23
0.2
0.23
0.23
0.8
0.22
0.8
0.16
0.15
0.68
0.2
0.2
0.8
0.8
0.8
0.23
0.8300000000000001
0.18
0.18
0.2
0.19
0.2
0.21
0.79
0.23
0.18
0.2
0.77
0.2
0.2
0.23
0.15
0.22
0.18
0.2
0.2
0.79
0.18
0.78
0.78
0.5
0.2
0.79
0.8
0.22
0.19
0.21
0.22
0.8200000000000001
0.2
0.7000000000000001
0.18
0.23
0.18
0.18
0.21
0.19
0.19
0.19
0.22
0.22
0.23
0.24
0.2
0.11
0.22
0.22
0.79
0.21
0.8
0.22
0.22
0.22
0.16
0.79
0.2
0.23
0.16
0.2
0.8300000000000001
0.12
0.2
0.2
0.2
0.2
0.16
0.17
0.88
0.18
0.23
0.16
0.2
0.18
0.19
0.16
0.17
0.79
0.8
0.15
0.6900000000000001
0.19
0.42
0.8
0.21
0.2
0.8100000000000001
0.2
0.77
0.8100000000000001
0.2
0.84
0.23
0.21
0.17
0.19
0.8300000000000001
0.23
0.21
0.22
0.8
0.23
0.2
0.16
0.2
0.2
0.12
0.21
0.23
0.22
0.21
0.22
0.12
0.8
0.21
0.32
0.78
0.7000000000000001
0.2
0.2
0.23
0.19
0.24
0.64
0.5600000000000001
0.5
0.18
0.23
0.23
0.22
0.07000000000000001
0.2
0.22
0.8300000000000001
0.23
0.19
0.78
0.2
0.19
0.18
0.22
0.79
0.2
0.18
0.8100000000000001
0.23
0.23
0.19
0.23
0.23
0.78
0.18
0.2
0.19
0.21
0.22
0.2
0.8200000000000001
0.17
0.35
0.23
0.19
0.18
0.14
0.18
0.85
0.8200000000000001
0.22
0.22
0.21
0.17
0.87
0.09
0.13
0.77
0.2
0.21
0.84
0.14
0.19
0.19
0.22
0.79
0.77
0.23
0.2
0.2
0.2
0.2
0.2
0.91
0.16
0.13
0.18
0.91
0.09
0.13
0.13
0.88
0.91
0.13
0.21
0.8
0.18
0.23
0.21
0.21
0.78
0.21
0.12
0.22
0.78
0.22
0.2
0.2
0.11
0.12
0.19
0.15
0.19
0.2
0.91
0.11
0.15
0.17
0.18
0.18
0.86
0.11
0.18
0.23
0.2
0.14
0.19
0.17
0.2
0.47
0.41
0.2
0.59
0.71
0.8
0.17
0.21
0.21
0.19
0.8300000000000001
0.19
0.22
0.8100000000000001
0.15
0.22
0.14
0.16
0.18
0.16
0.18
0.19
0.19
0.19
0.19
0.22
0.22
0.18
0.2
0.8200000000000001
0.17
0.15
0.21
0.15
0.19
0.22
0.22
0.17
0.16
0.15
0.09
0.17
0.16
0.21
0.78
0.19
0.19
0.2
0.2
0.77
0.8200000000000001
0.19
0.22
0.23
0.17
0.88
0.18
0.78
0.66
0.19
0.2
0.16
0.22
0.2
0.77
0.22
0.19
0.22
0.18
0.19
0.19
0.23
0.2
0.43
0.17
0.21
0.18
0.19
0.15
0.21
0.18
0.2
0.22
0.21
0.8
0.14
0.16
0.14
0.23
0.18
0.2
0.22
0.22
0.21
0.16
0.21
0.23
0.66
0.17
0.21
0.2
0.21
0.21
0.22
0.18
0.19
0.23
0.23
0.18
0.19
0.18
0.2
0.22
0.18
0.18
0.17
0.17
0.2
0.19
0.17
0.14
0.22
0.16
0.19
0.2
0.19
0.21
0.67
0.21
0.18
0.65
0.2
0.7000000000000001
0.19
0.15
0.18
0.21
0.15
0.15
0.18
0.17
0.22
0.19
0.2
0.22
0.22
0.14
0.2
0.22
0.23
0.2
0.17
0.19
0.2
0.21
0.2
0.71
0.23
0.19
0.16
0.21
0.22
0.18
0.22
0.22
0.18
0.21
0.17
0.16
0.17
0.21
0.61
0.17
0.21
0.22
0.19
0.23
0.22
0.23
0.21
0.2
0.21
0.79
0.21
0.23
0.8200000000000001
0.18
0.22
0.22
0.18
0.23
0.16
0.25
0.22
0.21
0.21
0.21
0.18
0.18
0.22
0.16
0.18
0.18
0.19
0.19
0.2
0.18
0.23
0.21
0.18
0.15
0.37
0.18
0.19
0.8200000000000001
0.22
0.17
0.16
0.84
0.18
0.2
0.19
0.2
0.23
0.18
0.19
0.17
0.21
0.8100000000000001
0.22
0.14
0.22
0.78
0.19
0.21
0.21
0.19
0.23
0.19
0.23
0.79
0.14
0.23
0.16
0.12
0.16
0.16
0.12
0.77
0.84
0.12
0.12
0.14
0.12
0.19
0.79
0.16
0.19
0.2
0.89
0.21
0.1
0.19
0.19
0.14
0.23
0.8200000000000001
0.23
0.77
0.16
0.8
0.18
0.21
0.22
0.2
0.16
0.21
0.21
0.2
0.22
0.18
0.21
0.79
0.79
0.21
0.19
0.19
0.23
0.2
0.79
0.18
0.19
0.2
0.22
0.2
0.19
0.2
0.22
0.2
0.19
0.21
0.8
0.22
0.17
0.22
0.19
0.23
0.79
0.19
0.8
0.19
0.18
0.19
0.2
0.19
0.2
0.22
0.2
0.19
0.18
0.22
0.18
0.19
0.21
0.17
0.21
0.68
0.18
0.16
0.22
0.23
0.19
0.21
0.23
0.19
0.2
0.22
0.22
0.16
0.17
0.2
0.19
0.22
0.22
0.16
0.23
0.18
0.77
0.23
0.19
0.23
0.22
0.16
0.21
0.21
0.53
0.22
0.19
0.21
0.75
0.78
0.45
0.2
0.22
0.19
0.67
0.21
0.19
0.14
0.21
0.21
0.18
0.63
0.22
0.2
0.16
0.23
0.15
0.17
0.17
0.2
0.16
0.17
0.18
0.15
0.62
0.15
0.22
0.59
0.2
0.2
0.15
0.16
0.22
0.23
0.16
0.13
0.19
0.23
0.21
0.18
0.21
0.2
0.2
0.17
0.22
0.18
0.17
0.2
0.19
0.21
0.22
0.16
0.19
0.17
0.18
0.2
0.16
0.15
0.23
0.2
0.22
0.21
0.21
0.19
0.8300000000000001
0.19
0.18
0.17
0.18
0.17
0.22
0.17
0.19
0.22
0.17
0.15
0.15
0.21
0.18
0.22
0.22
0.22
0.19
0.22
0.21
0.23
0.22
0.19
0.19
0.19
0.22
0.8300000000000001
0.22
0.22
0.22
0.85
0.2
0.23
0.8200000000000001
0.22
0.18
0.18
0.18
0.18
0.15
0.22
0.18
0.23
0.8
0.16
0.21
0.8
0.23
0.23
0.16
0.8100000000000001
0.2
0.18
0.21
0.67
0.21
0.13
0.8
0.18
0.22
0.8200000000000001
0.78
0.19
0.2
0.21
0.8100000000000001
0.8300000000000001
0.16
0.16
0.22
0.5
0.8300000000000001
0.87
0.14
0.11
0.21
0.17
0.79
0.79
0.8200000000000001
0.2
0.2
0.2
0.78
0.21
0.78
0.2
0.78
0.19
0.21
0.2
0.8
0.22
0.22
0.19
0.23
0.18
0.19
0.18
0.5
0.23
0.18
0.2
0.79
0.77
0.22
0.17
0.2
0.23
0.8300000000000001
0.8300000000000001
0.78
0.22
0.8100000000000001
0.22
0.17
0.18
0.22
0.8
0.8
0.17
0.18
0.21
0.64
0.78
0.19
0.8100000000000001
0.16
0.64
0.21
0.19
0.41
0.22
0.37
0.8
0.22
0.22
0.78
0.79
0.8100000000000001
0.18
0.55
0.21
0.2
0.77
0.77
0.78
0.22
0.21
0.41
0.77
0.8200000000000001
0.2
0.2
0.19
0.35
0.78
0.8100000000000001
0.23
0.2
0.78
0.22
0.2
0.22
0.78
0.22
0.18
0.22
0.36
0.19
0.23
0.28
0.76
0.8
0.2
0.78
0.2
0.79
0.8300000000000001
0.2
0.21
0.19
0.85
0.16
0.78
0.17
0.22
0.18
0.8100000000000001
0.17
0.8200000000000001
0.15
0.22
0.21
0.8100000000000001
0.16
0.18
0.19
0.23
0.77
0.8100000000000001
0.18
0.79
0.21
0.2
0.18
0.19
0.78
0.19
0.23
0.8300000000000001
0.18
0.22
0.23
0.78
0.21
0.2
0.79
0.23
0.18
0.84
0.77
0.23
0.19
0.19
0.19
0.19
0.8200000000000001
0.22
0.78
0.8100000000000001
0.17
0.19
0.2
0.15
0.12
0.22
0.23
0.2
0.2
0.2
0.31
0.8
0.78
0.18
0.19
0.5
0.2
0.8
0.2
0.2
0.23
0.18
0.78
0.2
0.79
0.18
0.79
0.19
0.21
0.17
0.22
0.17
0.8100000000000001
0.79
0.79
0.23
0.18
0.17
0.23
0.22
0.78
0.8200000000000001
0.2
0.78
0.65
0.23
0.22
0.18
0.18
0.77
0.2
0.8
0.15
0.22
0.77
0.8200000000000001
0.16
0.8
0.2
0.79
0.18
0.21
0.17
0.23
0.8100000000000001
0.21
0.23
0.19
0.22
0.2
0.21
0.8300000000000001
0.22
0.8
0.87
0.18
0.23
0.21
0.13
0.18
0.42
0.17
0.17
0.18
0.2
0.22
0.2
0.78
0.21
0.21
0.27
0.17
0.22
0.77
0.18
0.19
0.79
0.24
0.21
0.22
0.8100000000000001
0.19
0.77
0.79
0.8100000000000001
0.8200000000000001
0.16
0.19
0.17
0.8
0.2
0.2
0.85
0.21
0.8300000000000001
0.18
0.18
0.31
0.22
0.2
0.8
0.16
0.32
0.23
0.22
0.23
0.18
0.79
0.61
0.79
0.77
0.21
0.21
0.14
0.78
0.2
0.21
0.75
0.2
0.78
0.8200000000000001
0.21
0.22
0.17
0.22
0.79
0.2
0.16
0.19
0.78
0.23
0.19
0.17
0.22
0.79
0.78
0.17
0.22
0.18
0.2
0.23
0.16
0.22
0.18
0.19
0.78
0.21
0.17
0.2
0.22
0.59
0.17
0.22
0.78
0.2
0.17
0.15
0.22
0.23
0.13
0.77
0.85
0.2
0.8100000000000001
0.19
0.14
0.78
0.19
0.19
0.77
0.22
0.22
0.19
0.54
0.21
0.18
0.4
0.85
0.18
0.19
0.8100000000000001
0.8100000000000001
0.16
0.23
0.17
0.75
0.8
0.12
0.15
0.77
0.18
0.21
0.2
0.23
0.22
0.77
0.2
0.18
0.21
0.2
0.18
0.21
0.2
0.19
0.21
0.79
0.17
0.79
0.22
0.77
0.8300000000000001
0.22
0.21
0.2
0.22
0.8300000000000001
0.18
0.2
0.24
0.2
0.19
0.8200000000000001
0.78
0.8300000000000001
0.19
0.13
0.22
0.17
0.79
0.18
0.17
0.79
0.18
0.8
0.78
0.21
0.17
0.79
0.22
0.34
0.8200000000000001
0.2
0.23
0.39
0.21
0.8100000000000001
0.21
0.16
0.2
0.78
0.19
0.22
0.21
0.22
0.13
0.2
0.23
0.22
0.8
0.22
0.79
0.19
0.19
0.21
0.77
0.2
0.19
0.18
0.17
0.19
0.8100000000000001
0.22
0.22
0.19
0.21
0.77
0.21
0.21
0.21
0.78
0.18
0.19
0.21
0.17
0.13
0.1
0.78
0.17
0.23
0.87
0.16
0.79
0.23
0.84
0.22
0.21
0.21
0.21
0.2
0.78
0.2
0.18
0.23
0.14
0.86
0.19
0.14
0.2
0.2
0.8200000000000001
0.77
0.22
0.19
0.78
0.77
0.77
0.18
0.18
0.17
0.2
0.17
0.77
0.78
0.2
0.78
0.21
0.79
0.8200000000000001
0.22
0.17
0.18
0.22
0.18
0.8
0.2
0.2
0.8
0.2
0.8
0.2
0.8
0.2
0.8
0.2
0.8
0.8
0.8
0.8
0.8
0.8
0.8
0.8
0.8
0.8
0.8
0.2
0.2
0.2
0.2
0.8
0.8
0.16
0.2
0.2
0.8
0.79
0.09
0.25
0.54
0.8
0.2
0.2
0.2
0.2
0.8
0.8
0.8
0.8
0.26
0.5600000000000001
0.8
0.8
0.8
0.2
0.63
0.38
0.63
0.8
0.8
0.8
0.2
0.2
0.8
0.2
0.8
0.2
0.2
0.2
0.8
0.8
0.2
0.68
0.8300000000000001
0.39
0.8300000000000001
0.8300000000000001
0.7000000000000001
0.67
0.2
0.8
0.44
0.8
0.2
0.22
0.8
0.6900000000000001
0.38
0.8
0.8
0.8
0.8
0.8
0.22
0.67
0.45
0.8
0.8
0.71
0.5
0.58
0.2
0.8
0.2
0.8
0.7000000000000001
0.2
0.2
0.8
0.8
0.85
0.2
0.8
0.8
0.8
0.59
0.2
0.46
0.2
0.8
0.8
0.8
0.8
0.8
0.2
0.8
0.2
0.8
0.8
0.2
0.2
0.2
0.8
0.8
0.8
0.2
0.8
0.8
0.8
0.8
0.2
0.2
0.8
0.8
0.2
0.2
0.8
0.8
0.2
0.79
0.79
0.8
0.8
0.63
0.71
0.8
0.25
0.32
0.3
0.2
0.6900000000000001
0.48
0.2
0.2
0.2
0.8
0.2
0.8
0.8
0.8
0.8
0.8
0.38
0.22
0.8
0.8
0.2
0.33
0.8
0.73
0.52
0.6900000000000001
0.46
0.52
0.8300000000000001
0.2
0.8
0.8
0.2
0.8
0.23
0.8
0.2
0.2
0.2
0.8
0.8
0.48
0.2
0.2
0.8
0.8
0.8
0.2
0.58
0.8100000000000001
0.62
0.33
0.78
0.55
0.8
0.8
0.31
0.2
0.8
0.8
0.8
0.35
0.47
0.8
0.8
0.77
0.21
0.63
0.59
0.26
0.78
0.62
0.8
0.2
0.32
0.37
0.61
0.41
0.74
0.65
0.2
0.63
0.75
0.84
0.79
0.73
0.8
0.84
0.72
0.28
0.38
0.29
0.59
0.22
0.26
0.71
0.68
0.2
0.8
0.8
0.21
0.45
0.8
0.37
0.73
0.8
0.8
0.74
0.68
0.79
0.79
0.8
0.8
0.8
0.26
0.8
0.27
0.8
0.8
0.8
0.3
0.85
0.78
0.41
0.8
0.8
0.31
0.8
0.27
0.85
0.8
0.2
0.43
0.2
0.67
0.76
0.8
0.5
0.63
0.46
0.65
0.8
0.8
0.64
0.2
0.37
0.27
0.28
0.27
0.6900000000000001
0.72
0.25
0.58
0.59
0.38
0.2
0.2
0.2
0.8
0.35
0.8
0.2
0.72
0.8
0.88
0.31
0.59
0.8
0.78
0.72
0.36
0.8
0.29
0.24
0.65
0.2
0.8
0.8
0.8
0.73
0.68
0.8
0.8
0.8
0.8
0.87
0.55
0.68
0.8
0.88
0.26
0.85
0.33
0.26
0.2
0.27
0.8
0.8
0.85
0.8
0.37
0.79
0.87
0.72
0.87
0.61
0.8300000000000001
0.41
0.8200000000000001
0.49
0.61
0.44
0.22
0.85
0.86
0.84
0.8
0.8
0.8
0.8200000000000001
0.2
0.8200000000000001
0.87
0.8300000000000001
0.8300000000000001
0.8
0.8100000000000001
0.8200000000000001
0.87
0.86
0.8200000000000001
0.88
0.23
0.8
0.8
0.87
0.8300000000000001
0.8300000000000001
0.8300000000000001
0.88
0.89
0.8300000000000001
0.8
0.2
0.2
0.2
0.72
0.8
0.8
0.8
0.8
0.8
0.8
0.8
0.8
0.8
0.8
0.8
0.8
0.8
0.8
0.8
0.86
0.84
0.8
0.86
0.84
0.8100000000000001
0.87
0.85
0.85
0.8
0.79
0.8300000000000001
0.8
0.8300000000000001
0.79
0.8
0.85
0.85
0.8
0.23
0.2
0.8
0.88
0.88
0.8
0.8100000000000001
0.8100000000000001
0.87
0.85
0.84
0.8
0.8
0.8
0.8
0.8
0.8
0.8
0.8
0.84
0.2
0.17
0.22
0.14
0.21
0.17
0.84
0.23
0.21
0.23
0.17
0.8200000000000001
0.23
0.18
0.18
0.8200000000000001
0.19
0.19
0.5
0.2
0.14
0.19
0.21
0.23
0.18
0.17
0.22
0.23
0.19
0.15
0.23
0.79
0.16
0.22
0.23
0.78
0.8300000000000001
0.18
0.2
0.23
0.22
0.23
0.21
0.18
0.22
0.21
0.77
0.18
0.15
0.23
0.22
0.2
0.19
0.23
0.21
0.23
0.18
0.5
0.19
0.22
0.23
0.2
0.17
0.19
0.16
0.22
0.8200000000000001
0.5
0.15
0.21
0.17
0.17
0.17
0.2
0.19
0.17
0.2
0.8300000000000001
0.17
0.8
0.78
0.2
0.16
0.16
0.8200000000000001
0.22
0.18
0.19
0.19
0.22
0.22
0.15
0.21
0.22
0.21
0.19
0.18
0.21
0.22
0.21
0.19
0.16
0.19
0.21
0.22
0.15
0.23
0.23
0.22
0.21
0.19
0.22
0.17
0.22
0.19
0.2
0.18
0.2
0.2
0.23
0.16
0.22
0.2
0.19
0.23
0.16
0.21
0.19
0.22
0.21
0.14
0.22
0.21
0.15
0.8100000000000001
0.8
0.2
0.87
0.92
0.17
0.16
0.23
0.22
0.2
0.19
0.19
0.8200000000000001
0.23
0.19
0.24
0.2
0.23
0.8100000000000001
0.22
0.22
0.18
0.8
0.22
0.22
0.17
0.23
0.2
0.19
0.2
0.22
0.17
0.8100000000000001
0.8300000000000001
0.22
0.79
0.19
0.22
0.78
0.18
0.16
0.19
0.17
0.22
0.19
0.8100000000000001
0.21
0.78
0.23
0.21
0.22
0.78
0.18
0.23
0.21
0.21
0.2
0.21
0.85
0.23
0.18
0.23
0.19
0.77
0.8100000000000001
0.21
0.9
0.8100000000000001
0.2
0.2
0.19
0.23
0.2
0.79
0.17
0.37
0.2
0.17
0.5
0.19
0.2
0.21
0.18
0.2
0.8300000000000001
0.23
0.17
0.21
0.21
0.21
0.2
0.79
0.16
0.22
0.8
0.22
0.23
0.22
0.78
0.18
0.2
0.17
0.19
0.21
0.22
0.2
0.78
0.23
0.8
0.19
0.22
0.19
0.23
0.19
0.2
0.19
0.8100000000000001
0.22
0.18
0.23
0.22
0.41
0.2
0.2
0.8300000000000001
0.19
0.23
0.15
0.22
0.79
0.17
0.77
0.21
0.22
0.17
0.79
0.19
0.16
0.14
0.21
0.17
0.2
0.21
0.8
0.8
0.2
0.8
0.2
0.8
0.17
0.8
0.8300000000000001
0.8
0.84
0.79
0.19
0.8100000000000001
0.8100000000000001
0.49
0.86
0.26
0.8
0.19
0.84
0.78
0.77
0.84
0.84
0.13
0.2
0.2
0.17
0.78
0.86
0.8200000000000001
0.8100000000000001
0.2
0.2
0.8200000000000001
0.78
0.33
0.19
0.88
0.88
0.87
0.86
0.86
0.2
0.84
0.8100000000000001
0.8100000000000001
0.8
0.8
0.8
0.55
0.29
0.78
0.78
0.77
0.21
0.8100000000000001
0.44
0.6900000000000001
0.8300000000000001
0.68
0.8
0.74
0.2
0.8100000000000001
0.8100000000000001
0.8100000000000001
0.8300000000000001
0.85
0.85
0.88
0.85
0.8300000000000001
0.84
0.8100000000000001
0.85
0.86
0.89
0.84
0.78
0.8300000000000001
0.8100000000000001
0.79
0.84
0.8300000000000001
0.77
0.78
0.2
0.84
0.8
0.84
0.78
0.8200000000000001
0.8200000000000001
0.8
0.84
0.86
0.77
0.87
0.66
0.71
0.79
0.84
0.8100000000000001
0.18
0.85
0.18
0.17
0.8
0.23
0.79
0.2
0.15
0.8200000000000001
0.8
0.77
0.2
0.78
0.8
0.2
0.8
0.17
0.2
0.8
0.19
0.78
0.79
0.78
0.86
0.16
0.8200000000000001
0.8
0.2
0.77
0.78
0.84
0.8
0.85
0.85
0.8100000000000001
0.84
0.8300000000000001
0.19
0.15
0.78
0.15
0.85
0.77
0.78
0.8
0.8100000000000001
0.2
0.2
0.77
0.77
0.44
0.2
0.8100000000000001
0.32
0.5700000000000001
0.84
0.8100000000000001
0.2
0.14
0.8300000000000001
0.8100000000000001
0.8100000000000001
0.19
0.8
0.8100000000000001
0.79
0.78
0.8
0.78
0.8200000000000001
0.84
0.8
0.8200000000000001
0.21
0.8
0.87
0.19
0.8
0.8100000000000001
0.2
0.79
0.8200000000000001
0.8200000000000001
0.8
0.17
0.8200000000000001
0.78
0.8
0.8
0.85
0.85
0.78
0.34
0.8200000000000001
0.86
0.8100000000000001
0.14
0.86
0.8200000000000001
0.17
0.8
0.8
0.8
0.52
0.43
0.22
0.66
0.8
0.8
0.8
0.3
0.8
0.2
0.68
0.58
0.8
0.8
0.8
0.2
0.2
0.27
0.59
0.64
0.8100000000000001
0.8
0.84
0.79
0.8300000000000001
0.8200000000000001
0.8300000000000001
0.8
0.86
0.8100000000000001
0.77
0.78
0.8100000000000001
0.8
0.8
0.85
0.2
0.84
0.2
0.8
0.24
0.15
0.8300000000000001
0.22
0.76
0.8300000000000001
0.16
0.78
0.21
0.13
0.8300000000000001
0.16
0.8
0.21
0.18
0.17
0.19
0.23
0.2
0.16
0.22
0.15
0.18
0.22
0.78
0.17
0.19
0.16
0.17
0.2
0.15
0.22
0.18
0.21
0.23
0.19
0.21
0.2
0.23
0.23
0.22
0.18
0.18
0.21
0.8
0.2
0.17
0.17
0.17
0.16
0.19
0.15
0.16
0.19
0.17
0.12
0.17
0.22
0.2
0.19
0.18
0.2
0.2
0.16
0.2
0.23
0.21
0.22
0.22
0.16
0.21
0.21
0.77
0.8
0.2
0.21
0.19
0.15
0.15
0.22
0.2
0.22
0.19
0.23
0.22
0.2
0.17
0.5
0.21
0.22
0.17
0.19
0.17
0.21
0.16
0.2
0.22
0.8
0.2
0.22
0.8
0.21
0.18
0.13
0.16
0.8100000000000001
0.22
0.19
0.17
0.22
0.16
0.14
0.2
0.21
0.77
0.21
0.19
0.21
0.8
0.19
0.8300000000000001
0.23
0.22
0.19
0.2
0.8100000000000001
0.17
0.18
0.77
0.23
0.2
0.8200000000000001
0.19
0.19
0.2
0.19
0.13
0.17
0.22
0.19
0.21
0.19
0.22
0.18
0.21
0.19
0.2
0.16
0.22
0.21
0.2
0.22
0.17
0.19
0.16
0.21
0.23
0.21
0.18
0.19
0.18
0.22
0.16
0.18
0.18
0.22
0.17
0.16
0.14
0.23
0.15
0.21
0.16
0.2
0.17
0.16
0.19
0.22
0.17
0.15
0.22
0.22
0.2
0.22
0.18
0.19
0.23
0.17
0.2
0.19
0.18
0.18
0.22
0.19
0.22
0.19
0.22
0.23
0.23
0.19
0.19
0.18
0.8
0.22
0.2
0.8
0.19
0.22
0.23
0.2
0.23
0.25
0.2
0.22
0.19
0.14
0.21
0.8200000000000001
0.21
0.22
0.14
0.21
0.21
0.18
0.8100000000000001
0.21
0.22
0.86
0.16
0.78
0.18
0.8200000000000001
0.8
0.21
0.16
0.79
0.2
0.14
0.8300000000000001
0.22
0.2
0.2
0.18
0.8100000000000001
0.23
0.23
0.19
0.18
0.21
0.22
0.19
0.09
0.12
0.19
0.22
0.21
0.2
0.19
0.75
0.18
0.22
0.23
0.22
0.2
0.21
0.21
0.21
0.2
0.23
0.21
0.16
0.19
0.22
0.2
0.2
0.2
0.19
0.21
0.21
0.78
0.17
0.2
0.79
0.22
0.21
0.18
0.79
0.9
0.23
0.19
0.18
0.19
0.18
0.17
0.8200000000000001
0.23
0.15
0.16
0.8100000000000001
0.23
0.17
0.18
0.19
0.23
0.17
0.21
0.23
0.8100000000000001
0.84
0.88
0.19
0.22
0.77
0.8
0.8200000000000001
0.19
0.22
0.2
0.23
0.8300000000000001
0.18
0.77
0.86
0.2
0.18
0.79
0.16
0.22
0.21
0.18
0.78
0.78
0.22
0.23
0.18
0.22
0.89
0.18
0.21
0.5
0.18
0.21
0.23
0.21
0.23
0.22
0.78
0.17
0.21
0.17
0.19
0.2
0.23
0.23
0.21
0.77
0.22
0.77
0.23
0.15
0.21
0.21
0.2
0.16
0.17
0.21
0.2
0.19
0.18
0.17
0.19
0.2
0.19
0.22
0.21
0.79
0.77
0.2
0.22
0.23
0.5
0.2
0.22
0.17
0.19
0.2
0.2
0.22
0.23
0.8100000000000001
0.22
0.22
0.21
0.21
0.8
0.2
0.16
0.2
0.8
0.2
0.22
0.87
0.19
0.19
0.21
0.22
0.8
0.2
0.74
0.78
0.8
0.8200000000000001
0.19
0.77
0.2
0.84
0.22
0.18
0.23
0.19
0.19
0.14
0.22
0.89
0.8
0.8100000000000001
0.8200000000000001
0.84
0.64
0.63
0.31
0.78
0.8
0.8
0.8200000000000001
0.78
0.86
0.17
0.8300000000000001
0.84
0.86
0.8
0.84
0.88
0.8
0.89
0.22
0.84
0.8200000000000001
0.79
0.19
0.19
0.77
0.78
0.8300000000000001
0.86
0.8100000000000001
0.18
0.18
0.78
0.62
0.21
0.8100000000000001
0.8300000000000001
0.8
0.8200000000000001
0.8
0.2
0.17
0.05
0.84
0.86
0.84
0.8
0.55
0.8
0.71
0.8
0.2
0.29
0.8100000000000001
0.22
0.78
0.18
0.16
0.18
0.19
0.85
0.78
0.8200000000000001
0.84
0.11
0.79
0.8100000000000001
0.8100000000000001
0.8100000000000001
0.19
0.8200000000000001
0.8
0.8300000000000001
0.8
0.22
0.85
0.8100000000000001
0.79
0.8300000000000001
0.84
0.8100000000000001
0.17
0.8
0.2
0.8
0.8100000000000001
0.8300000000000001
0.8100000000000001
0.8200000000000001
0.8
0.77
0.8300000000000001
0.8300000000000001
0.8300000000000001
0.8100000000000001
0.8300000000000001
0.78
0.8300000000000001
0.8300000000000001
0.84
0.77
0.77
0.79
0.8
0.77
0.86
0.8300000000000001
0.22
0.2
0.23
0.78
0.78
0.77
0.23
0.8200000000000001
0.21
0.78
0.2
0.79
0.2
0.84
0.2
0.8
0.18
0.8200000000000001
0.79
0.85
0.84
0.16
0.8300000000000001
0.77
0.8100000000000001
0.87
0.16
0.17
0.87
0.8100000000000001
0.86
0.84
0.85
0.77
0.79
0.8100000000000001
0.77
0.8100000000000001
0.8
0.8100000000000001
0.8100000000000001
0.8
0.78
0.85
0.8
0.8200000000000001
0.85
0.77
0.79
0.88
0.8
0.8
0.8
0.84
0.8100000000000001
0.78
0.87
0.88
0.8300000000000001
0.85
0.85
0.84
0.78
0.89
0.78
0.8200000000000001
0.85
0.87
0.88
0.21
0.9
0.85
0.14
0.84
0.8300000000000001
0.8
0.19
0.21
0.16
0.8300000000000001
0.78
0.8200000000000001
0.8100000000000001
0.23
0.8
0.79
0.13
0.78
0.14
0.79
0.84
0.86
0.8
0.8300000000000001
0.85
0.79
0.78
0.23
0.17
0.19
0.89
0.78
0.8300000000000001
0.8200000000000001
0.8100000000000001
0.78
0.8
0.8
0.78
0.8200000000000001
0.8300000000000001
0.21
0.19
0.79
0.8100000000000001
0.79
0.2
0.17
0.85
0.19
0.8200000000000001
0.78
0.18
0.8300000000000001
0.77
0.22
0.8300000000000001
0.2
0.67
0.78
0.2
0.85
0.73
0.22
0.79
0.8300000000000001
0.22
0.22
0.8100000000000001
0.8
0.77
0.79
0.2
0.8100000000000001
0.78
0.2
0.8
0.8
0.23
0.16
0.79
0.79
0.23
0.8
0.8
0.8
0.78
0.77
0.78
0.78
0.8200000000000001
0.8100000000000001
0.84
0.8
0.8300000000000001
0.84
0.8
0.9
0.8
0.79
0.78
0.8
0.19
0.79
0.23
0.21
0.22
0.18
0.18
0.8100000000000001
0.77
0.77
0.78
0.8200000000000001
0.23
0.8200000000000001
0.79
0.79
0.8
0.15
0.8
0.85
0.8200000000000001
0.8
0.2
0.78
0.8
0.78
0.78
0.8
0.8
0.8200000000000001
0.84
0.8100000000000001
0.8200000000000001
0.84
0.8
0.8200000000000001
0.84
0.59
0.84
0.2
0.17
0.8100000000000001
0.8100000000000001
0.79
0.8200000000000001
0.77
0.79
0.22
0.79
0.78
0.2
0.8200000000000001
0.21
0.8
0.3
0.78
0.79
0.21
0.78
0.8
0.21
0.18
0.18
0.21
0.2
0.22
0.22
0.21
0.16
0.22
0.22
0.2
0.77
0.18
0.22
0.22
0.78
0.78
0.22
0.17
0.17
0.8
0.79
0.16
0.19
0.79
0.17
0.78
0.21
0.77
0.22
0.2
0.21
0.18
0.21
0.18
0.22
0.18
0.23
0.23
0.17
0.5
0.2
0.15
0.22
0.2
0.17
0.8300000000000001
0.2
0.2
0.19
0.17
0.18
0.79
0.8200000000000001
0.22
0.2
0.8200000000000001
0.8200000000000001
0.8
0.78
0.22
0.2
0.18
0.19
0.22
0.23
0.8100000000000001
0.23
0.12
0.15
0.22
0.22
0.21
0.19
0.12
0.23
0.21
0.21
0.8300000000000001
0.8200000000000001
0.21
0.22
0.21
0.18
0.22
0.19
0.23
0.22
0.17
0.23
0.17
0.15
0.8
0.15
0.2
0.2
0.22
0.23
0.17
0.79
0.2
0.8100000000000001
0.63
0.8300000000000001
0.21
0.21
0.8
0.8300000000000001
0.19
0.21
0.22
0.78
0.84
0.8
0.21
0.8200000000000001
0.2
0.8
0.19
0.18
0.2
0.17
0.19
0.21
0.22
0.5
0.2
0.8
0.23
0.23
0.15
0.78
0.8300000000000001
0.8
0.21
0.79
0.8200000000000001
0.2
0.23
0.21
0.23
0.15
0.8200000000000001
0.17
0.15
0.17
0.79
0.19
0.78
0.2
0.89
0.15
0.17
0.42
0.15
0.14
0.79
0.18
0.77
0.21
0.23
0.79
0.21
0.19
0.78
0.22
0.79
0.21
0.22
0.22
0.22
0.8200000000000001
0.86
0.18
0.19
0.21
0.21
0.79
0.23
0.77
0.2
0.16
0.15
0.13
0.2
0.23
0.17
0.26
0.16
0.14
0.79
0.17
0.22
0.78
0.22
0.22
0.8100000000000001
0.21
0.21
0.8
0.2
0.28
0.8
0.2
0.29
0.46
0.33
0.59
0.8
0.8
0.37

forceimprovementnum 1
maxthreads 4
