refinementinfo

progressstart 0
progressstop 100
progresstext "Mesh refinement"

reftype edgesplit

refine edges
2 2763
1 2763
3 227
4 227
5 2764
8 3364
7 3364
10 2765
11 228
12 228
12 1856
14 2766
16 3366
15 3366
17 18
233 234
20 239
247 248
253 3372
260 261
30 264
23 3374
24 3375
38 2776
7 2778
289 2778
293 2779
6 2779
297 2780
297 2781
298 2781
299 2783
300 2784
299 2784
43 3383
2786 3383
2786 3384
301 3384
2787 3386
302 3386
2788 3387
2788 3388
303 2789
304 3389
2790 3389
2790 3390
44 3390
305 3391
2791 3391
2792 3393
2792 3394
306 2793
8 2794
308 2794
48 313
316 317
318 3399
319 320
322 2796
66 67
67 68
68 69
70 324
73 2798
74 333
336 337
75 340
341 2799
342 343
347 348
348 349
353 354
354 355
362 2801
41 2801
367 368
368 369
369 2803
373 374
374 375
375 376
104 379
105 381
381 382
104 382
384 385
385 386
105 386
388 2804
109 2804
389 2805
388 2805
391 392
392 393
393 394
394 395
395 396
396 397
397 398
113 398
43 3408
115 3408
399 3409
116 3409
400 2806
399 2806
401 3410
2807 3410
2807 3411
400 3411
115 3412
2808 3412
2808 3413
401 3413
118 402
402 403
403 404
404 405
405 406
406 407
407 408
408 409
117 409
123 3414
411 2809
122 2810
128 2811
413 3416
412 3416
414 3417
416 417
128 417
420 421
421 422
422 423
473 2813
147 2814
149 482
152 2815
154 483
486 487
153 490
491 492
493 2818
498 499
499 500
504 505
505 506
513 2819
42 2819
518 519
519 520
520 2821
524 525
525 526
526 527
181 530
182 532
532 533
181 533
535 536
536 537
182 537
539 2822
186 2822
540 2823
539 2823
542 543
543 544
544 545
545 546
546 547
547 548
548 549
190 549
550 3426
193 3426
551 2824
550 2824
552 3427
2825 3427
2825 3428
551 3428
192 3429
2826 3429
2826 3430
552 3430
195 553
553 554
554 555
555 556
556 557
557 558
558 559
559 560
194 560
200 3431
562 2827
199 2828
205 2829
564 3433
563 3433
565 3434
567 568
205 568
571 572
572 573
573 574
1 2830
577 2830
210 582
585 586
587 3440
588 589
2 590
13 593
26 3445
26 1864
225 1246
226 1246
56 89
67 2837
225 1864
2 1872
1 2769
259 3373
2775 3378
2841 1
642 2
3 2844
3 1592
3 1582
3 1563
3 1621
4 1785
5 2846
693 5
5 2847
2848 6
7 3466
3470 7
3470 8
8 2854
820 10
10 3330
3684 11
11 1646
11 1159
2985 12
12 1882
12 1620
12 1558
12 1544
12 1691
12 1661
12 1608
12 1588
12 1645
13 1557
14 3284
3483 15
15 3484
15 3486
15 3327
3483 16
17 3489
17 1985
17 3321
17 1802
1858 18
3489 18
18 3281
18 3321
1858 19
20 3493
20 3494
20 3317
20 1983
20 1808
20 1839
23 3497
23 1782
3498 24
24 3499
24 1992
2865 26
26 4361
32 3504
37 3505
37 3730
37 3506
39 468
40 700
453 41
450 41
41 1309
4426 42
43 3512
45 1431
45 4389
152 46
47 467
47 468
47 1427
48 435
465 48
48 466
48 1414
49 1402
55 1716
58 56
2884 56
56 3525
56 3526
56 3530
56 3528
56 3301
57 1361
57 3531
66 3324
66 3592
3535 67
67 3536
67 2894
67 3537
67 3324
67 1847
67 4492
68 1791
68 2897
68 1797
118 70
71 409
391 74
74 1420
74 1779
75 113
77 1999
3551 78
78 2908
78 2906
78 1999
78 2907
79 3553
79 3554
79 3555
2910 86
87 436
89 3530
101 1310
442 104
449 104
104 1330
104 1333
104 1334
105 446
445 105
105 1339
3564 115
115 3565
115 3563
324 118
118 1657
118 1399
118 1394
122 2923
122 2009
123 2924
123 3338
429 128
430 128
128 2020
129 465
129 1412
129 1415
466 130
130 1415
130 1518
131 1426
611 133
133 4262
806 138
146 2935
146 2936
147 3594
147 2941
147 2942
147 2894
195 148
149 195
149 1111
560 150
150 194
193 151
194 151
151 1250
151 2899
152 2947
3520 152
152 191
542 153
191 153
153 3637
153 3993
3973 154
154 190
154 1265
155 190
155 2816
155 1259
156 2951
2952 156
2934 156
156 2939
2935 157
157 1270
3588 164
164 1280
164 1276
169 776
775 171
174 636
821 175
177 1002
177 1060
178 769
863 178
179 802
857 179
180 1092
180 1091
180 1057
181 798
181 775
800 181
854 181
181 1058
181 1083
182 797
182 776
851 182
182 3894
183 780
183 1133
805 185
186 2961
4311 186
2816 189
190 2816
483 190
2961 190
191 1994
193 796
193 1035
726 194
194 1250
195 2968
195 482
195 1256
2968 197
2968 199
4301 199
199 2009
3653 200
200 2970
202 795
4204 205
793 205
205 2971
206 1257
692 207
207 783
208 786
208 785
209 3666
209 3669
4258 210
210 2973
622 211
212 784
3230 213
213 2974
219 1299
225 1775
225 1436
225 1435
225 1555
225 1565
2976 226
226 3273
226 1463
226 1566
226 4374
226 1951
226 1458
2844 227
227 3459
227 2845
227 1785
227 1581
227 1592
227 2847
227 1591
3476 228
228 2985
228 1881
1882 228
1880 228
228 1645
228 1771
228 1997
228 3477
228 1557
228 1784
228 1556
228 1705
228 1558
228 1832
228 1765
228 3327
1856 229
2988 235
3704 265
265 1831
265 1823
265 3709
3710 266
266 3711
266 1800
266 1831
3714 267
267 3711
3715 267
267 3717
267 1776
267 3718
267 1800
3719 268
268 3714
3720 268
268 3723
268 3721
268 1776
268 1792
269 3719
3724 269
269 1792
269 1781
3728 282
282 2992
282 3732
282 3736
282 3731
282 3730
282 2994
283 2997
283 2992
283 3734
283 3737
283 3736
283 1810
284 2997
284 1793
284 3740
284 3741
284 3734
3010 287
3251 287
287 964
289 3745
289 3746
3750 290
290 3751
290 3752
467 291
291 3750
291 3752
291 1430
467 292
292 468
292 1430
3011 293
293 3758
293 3013
293 3014
294 698
294 3017
294 3018
295 698
295 3017
295 3019
295 3020
700 296
296 3020
297 3772
298 3776
298 1728
3021 299
299 3777
3779 299
299 3780
4426 300
300 3025
300 3029
300 1995
301 3787
301 3788
301 3030
301 3790
301 3789
302 3793
3909 302
302 3794
302 3034
303 3799
303 1447
303 3036
304 3037
304 3042
304 964
305 3044
4147 306
306 3051
306 836
306 3181
306 1014
306 4326
306 4325
467 307
3750 307
307 3053
307 3055
308 3744
3745 308
308 3751
308 3055
308 3056
309 3815
3816 309
309 3817
309 3818
309 3819
310 434
3821 310
310 3824
310 3825
310 3822
310 3823
311 429
430 311
311 1402
429 312
312 1402
312 1406
312 1665
313 427
313 429
313 1406
313 1409
313 1665
324 402
403 325
325 402
326 403
404 326
327 404
405 327
328 405
406 328
406 329
329 407
408 330
330 407
408 331
332 408
409 332
392 333
333 391
333 1420
333 1672
333 1779
334 392
393 334
334 1672
334 1411
335 393
394 335
335 1411
395 336
336 394
336 1411
337 395
337 1407
337 1411
338 396
338 1407
338 1829
397 339
339 1407
339 1642
339 1671
340 398
340 1642
340 1671
340 3973
3077 341
4463 341
341 3082
3084 342
3083 342
342 3087
342 3086
342 3085
436 343
343 3084
3090 343
343 3086
343 3091
343 3085
343 3092
346 1341
346 1541
347 3864
443 347
347 1341
347 1541
347 1343
3864 348
3866 348
348 3865
348 1344
348 3896
348 1343
348 1541
348 1698
3866 349
349 1344
349 1704
349 1698
350 1704
352 1750
3867 353
353 444
353 1750
354 3867
3868 354
3869 354
354 1337
354 1335
354 1750
354 1733
355 3869
446 355
355 1337
355 1338
355 1732
355 1733
446 356
356 1338
356 1744
362 375
362 454
362 1312
362 1728
362 1318
363 451
363 374
363 1320
363 1318
363 1319
451 364
364 1320
364 1742
365 1742
453 366
366 1313
453 367
367 1313
368 3870
3774 368
368 453
368 1313
368 3871
368 3872
368 3775
3870 369
369 3874
3771 369
369 3873
369 3875
369 1997
369 3871
369 3876
372 452
373 1319
373 1491
374 2802
374 1319
374 1318
374 1719
374 1710
2802 375
454 375
375 1318
375 1312
375 1719
376 454
376 1310
454 377
377 1310
449 379
459 379
379 854
379 1722
379 1330
380 459
446 381
3869 381
381 853
381 851
382 3867
382 853
382 1333
382 3881
384 1347
384 850
384 1652
385 3865
385 3866
385 850
385 3890
386 443
386 3864
3865 386
386 3894
386 2019
386 3893
386 3896
386 3895
386 3892
391 1443
392 1443
392 1672
392 1442
392 1420
393 1411
393 1672
393 1442
393 1445
394 1411
394 1445
395 1411
395 1450
395 1445
395 1407
396 1407
396 1450
396 1456
397 1456
397 1407
397 1642
398 1642
399 3797
3798 399
399 3102
399 4298
3909 400
3793 400
400 3183
3912 401
401 3107
401 3914
401 4149
402 4544
402 3917
402 2968
402 4156
402 691
403 691
403 3919
404 721
404 1413
404 1410
405 690
405 1413
405 1416
405 721
406 690
406 687
406 1418
407 1418
407 687
408 724
408 1425
409 1425
409 1741
3932 410
3067 410
410 3933
410 3113
410 3193
411 3068
411 3938
411 3118
465 415
415 427
415 1412
415 1624
427 416
416 1412
416 714
416 1409
416 1624
417 427
429 417
417 714
417 1624
417 1409
417 4571
417 1622
417 1403
417 4204
434 419
419 1426
420 434
3821 420
420 706
421 3816
421 3821
421 707
421 706
421 1602
421 1598
422 435
3816 422
422 3815
422 1518
422 1417
422 1602
422 707
422 1517
466 423
423 435
423 1415
423 1518
423 1417
3398 434
435 2795
2782 453
454 2801
467 3395
3961 472
472 3960
3139 472
3967 473
4487 473
3144 473
4176 473
473 3194
473 3145
474 603
559 474
474 560
474 4334
474 1063
474 4333
559 475
475 4334
475 1063
558 476
476 559
557 477
477 558
477 1088
477 4334
477 4167
477 1066
556 478
478 557
478 1088
555 479
479 556
479 1088
480 607
608 480
554 480
480 555
480 1088
480 4161
480 1090
480 4339
608 481
481 553
481 554
481 4157
481 1090
481 4339
553 482
482 1111
482 4157
482 1090
482 4339
3973 483
548 483
483 549
483 1265
548 484
484 4140
547 485
485 548
546 486
486 547
486 4134
486 1829
487 3980
3983 487
545 487
487 546
487 4132
487 4137
487 1829
544 488
488 545
543 489
489 544
489 3992
489 4126
489 4128
490 542
490 543
490 4128
490 3993
490 3992
491 3146
491 3147
491 3149
491 3086
3997 492
3146 492
492 3151
492 3152
3153 493
776 497
779 497
497 1087
498 779
4017 498
498 1087
498 4018
4016 499
499 4017
499 1112
499 4018
500 777
4016 500
500 4021
500 1131
500 1112
500 4022
500 4113
777 501
501 1131
775 503
792 503
598 504
504 792
4031 504
505 598
505 4030
505 4031
505 4032
505 4033
614 506
4036 506
4030 506
506 4037
797 506
506 4033
506 4038
506 4043
506 4039
506 4040
506 4032
507 614
797 507
507 4043
507 4039
511 1048
3160 513
3026 513
513 3162
513 3163
4052 514
3164 514
514 4046
514 4049
595 515
515 4052
516 595
636 516
517 4062
818 517
517 821
517 3168
517 4063
518 818
822 518
518 3168
519 4068
4069 519
519 822
519 4070
519 3170
519 3171
520 4073
4076 520
520 3172
520 4070
520 4077
523 857
858 523
523 1260
4087 524
859 524
524 858
524 1260
525 4089
525 4087
525 859
4095 525
525 4090
525 4096
4094 526
526 4093
4095 526
526 862
526 4096
526 4098
862 527
527 863
527 4101
528 863
798 530
530 854
530 1092
530 1058
531 1092
531 1057
797 532
532 4030
532 4037
532 851
853 532
533 792
4030 533
4031 533
533 853
854 533
533 1083
533 4545
534 1133
534 1137
777 535
535 1137
777 536
536 4016
536 4021
536 1137
536 1121
536 4113
537 779
4016 537
4017 537
851 537
537 4113
537 1121
537 4116
539 3153
3174 539
3175 539
539 3096
540 3146
540 3151
846 540
3177 540
540 3179
540 3178
541 3147
846 541
541 847
541 3180
837 542
543 837
838 543
544 838
544 3990
544 3988
545 3988
545 3985
842 546
546 4134
546 3981
842 547
547 843
547 3982
547 3979
547 4134
843 548
548 3974
548 3979
2961 549
549 3974
549 4143
549 1397
3051 550
550 3181
3183 551
4298 551
3050 551
551 3044
551 3186
551 3184
551 3265
552 4149
3037 552
553 2968
4156 553
553 1256
553 4159
553 4544
691 554
4156 554
721 555
690 556
556 721
557 690
687 557
558 687
558 4169
559 4169
561 4176
3144 561
561 3195
752 562
562 4518
3196 562
562 3198
562 4343
562 3118
562 4474
563 3202
563 3204
563 3125
564 4187
564 3212
564 3945
3214 565
565 3217
565 4196
566 1257
714 567
568 714
568 4204
568 787
568 4205
568 4206
568 2971
568 4207
568 4571
705 570
786 570
4214 570
705 571
571 706
571 4214
707 572
572 706
572 4220
572 4219
573 707
708 573
573 4223
573 4225
573 4226
574 708
577 3012
577 4240
577 2988
577 3222
578 3219
578 3220
578 3224
578 3223
579 4246
579 3228
579 3225
579 3227
579 3226
580 622
580 4250
4251 580
580 4255
580 4257
580 4253
581 622
631 581
4251 581
581 4255
581 4257
582 631
582 4258
582 4259
582 2973
584 4262
4266 585
585 3215
585 4268
585 4270
585 4271
585 3832
586 4266
4273 586
586 3210
586 4275
586 3215
586 4276
586 4277
586 4278
4280 587
587 618
587 3203
587 3210
618 588
588 619
3202 588
589 619
603 4334
4292 606
606 1089
606 1570
608 607
607 4334
3441 618
654 618
628 1992
649 1006
4280 654
661 3421
4509 685
687 750
687 1485
747 690
690 1495
747 691
748 691
691 1495
3380 697
697 3379
721 747
721 1495
749 724
724 730
724 1481
725 1482
726 730
728 752
730 4146
730 1035
730 4172
752 1500
3439 789
793 2829
794 3435
796 3426
824 1159
2770 826
2793 836
870 836
837 870
837 1439
870 838
839 1030
839 1439
887 841
841 885
3425 846
880 850
869 851
851 1085
853 854
853 869
853 4107
854 1330
854 1486
865 1002
872 1060
998 936
937 998
3374 938
942 1850
943 3437
946 1048
964 959
3255 964
964 3261
3010 964
964 3389
964 4408
964 2790
1015 976
976 1030
978 977
3252 978
3260 978
3261 978
978 2825
978 4510
978 3428
3265 979
989 3436
1046 991
1006 991
1048 995
1002 999
1002 1001
1050 1002
1003 1048
1037 1010
1011 1037
1029 1011
1012 1036
1013 1012
1036 1013
1013 1035
1013 1014
1014 1015
1014 3393
1014 3394
1014 2792
1015 3263
1015 4325
1030 1017
1018 1080
3245 1021
1025 3436
1035 1036
1063 1035
1035 3426
1036 1066
1036 4172
1037 1038
1038 4343
1041 1060
1049 1047
1082 1051
1060 1059
1059 1077
1059 4101
1062 4343
1063 1066
1066 4334
1066 4169
1073 1105
1077 1082
1078 1109
1080 4133
1083 1110
1118 1083
1085 1083
1085 1121
1102 1086
4334 1088
1089 1088
1111 1089
4334 1089
1089 4333
1089 4339
1110 1091
1105 1096
1099 1112
1117 1101
1105 3434
1127 1107
1107 3431
1122 1111
1115 1111
1117 1122
1121 1120
1120 1133
1123 3435
1125 3425
4343 1127
1127 3198
1149 1646
1159 3330
1159 1498
1159 1857
1159 1646
1164 4357
1175 1170
1176 1246
1182 1785
1184 1189
1194 1207
1195 1194
1194 1581
1195 1590
1205 1204
1204 1590
1205 1521
1205 2847
1205 1590
1215 1557
1243 1592
1246 1566
1246 1555
1246 1951
1246 1438
1246 1805
1246 1434
1246 1835
1246 1789
1259 2816
1270 2816
1270 4492
1280 3423
1285 1566
1285 1951
1285 3681
1289 1555
1293 1608
1293 1645
1295 1588
1295 1608
1297 1592
1301 1620
1309 2782
1312 2801
1318 2802
1330 4545
1362 3301
1366 2800
1414 2795
1427 3395
1434 1555
1434 1452
1438 3332
1447 2789
1482 4146
1549 1856
1555 3678
1555 1565
1555 1670
1555 3269
1556 3477
1557 1583
1558 3164
1558 3021
1558 1645
1565 1775
1565 3678
1577 1646
1577 1645
1588 1615
1590 1609
1590 1592
1592 3460
1601 1645
1608 3685
1609 2845
1609 1621
1621 1965
1646 3330
1646 3476
1646 1765
1691 3335
1728 2782
1728 2801
1751 1951
1775 1864
1781 3375
1786 1855
1795 1864
1812 4358
1820 1855
1839 3367
1858 1848
1860 1850
1850 2988
1851 1861
1855 4401
2985 1856
1856 1882
1857 3684
1857 3480
1857 3479
1864 2878
1864 2866
2919 1865
2976 1865
1865 2981
1974 2878
1977 3343
1983 3367
1984 2783
1990 3424
1990 2821
1992 3375
1995 2785
1997 3406
1997 2803
2009 2810
3382 2766
3470 2778
4416 2778
2778 3342
3011 2779
2779 2990
2779 4406
2780 3874
2780 3327
2781 3870
2782 3776
2782 3775
3777 2783
2783 3779
2783 4421
4414 2783
2784 3021
3025 2784
2784 3780
2785 4426
2785 3029
2787 4434
2787 3912
2787 3035
2787 4435
2787 3031
2789 3567
2789 3907
2789 4389
4441 2790
2790 4443
2790 4317
2790 3040
2791 4320
3050 2792
3051 2793
2793 4326
2793 4325
2794 3470
3744 2794
4416 2794
2794 2854
2794 3056
2794 4412
2795 3815
2795 3818
4463 2799
2799 4461
2799 3082
2800 3077
2800 3076
2800 3087
2800 3085
2800 3080
2801 4574
3874 2803
2803 3485
2806 3909
3798 2806
2806 4437
2806 3102
2806 4397
2806 4388
3794 2807
2807 4434
2807 4468
2807 3104
3786 2808
4429 2808
2808 4391
2808 4470
2808 3107
2808 4404
3067 2809
3858 2809
2809 4474
2809 3118
2809 4475
2809 3193
2809 4477
2809 4383
2886 2810
2810 2923
2810 4382
4481 2812
2812 2929
2812 4484
2812 3142
2813 4487
3139 2813
2813 3144
2813 4489
2813 3194
2813 3145
2813 4458
2935 2814
2814 3648
3645 2814
2814 2936
2814 2941
2814 2943
2814 3324
2815 2947
2815 2902
2956 2816
2816 2943
2816 2940
4493 2817
2817 4003
2817 3997
3151 2817
2817 3157
2817 3152
3153 2818
4505 2818
2818 2959
2818 3156
2818 4506
2819 4426
3026 2819
2819 4328
2819 3163
2819 4329
2820 3160
3164 2820
4073 2821
4502 2821
2821 4413
2821 3172
3175 2822
2822 3176
2822 4506
2823 3151
2823 3174
3177 2823
2823 3178
2823 3098
2823 3096
2824 4146
2824 4298
4147 2824
2824 3050
2824 3182
2824 3181
2824 3184
2824 3186
2825 3045
4511 2825
2825 4446
2825 4320
4513 2826
2826 3251
2826 4317
2826 4315
2827 3195
2827 3198
2827 4350
2827 4474
2828 4345
2829 3202
2829 3204
2841 2830
2830 3012
2830 2988
2858 3424
2863 3389
2863 3384
2879 3383
2921 3383
2921 3412
2922 3412
2924 3414
2935 4492
3423 2958
2967 3429
2968 4301
2970 3431
3014 3380
3030 3385
3031 3385
3032 3384
3034 3386
3035 3386
3036 3388
3389 3037
3037 3430
3392 3039
3039 3385
3040 3389
3040 3041
3042 3392
3044 3394
3391 3044
3044 3428
3427 3045
3046 3391
3393 3050
3394 3050
3426 3051
3053 3395
3054 3379
3055 3396
3068 3415
3102 3409
3102 4298
3104 3411
3107 3413
3116 3414
3119 3415
3125 3433
3146 3425
3425 3147
3179 3425
3180 3425
3181 3393
3181 3426
3428 3183
3183 4298
3183 3411
3184 3394
3188 3427
3188 3410
3190 3430
3190 3389
3191 3264
3192 3430
3199 3432
3441 3202
3203 3441
3203 3433
3434 3208
3210 3440
3434 3214
3219 3438
3222 3437
3223 3438
3225 3438
3226 3438
3227 3439
3228 3439
3246 3380
3264 4510
3265 3428
3266 3394
3284 3382
3320 3377
3321 3377
3327 3381
3366 3381
3406 3366
3367 3494
3374 3497
3704 3374
3375 3724
3498 3375
3375 3725
3377 3504
3745 3379
3379 3751
3379 3746
3485 3381
3381 3486
4414 3382
3408 3383
3562 3383
3384 3790
3384 3789
3787 3385
3912 3385
3385 3788
3385 4435
3386 3794
4434 3386
3909 3387
4441 3389
4514 3389
3389 4443
3389 4317
3390 3446
3390 4528
3390 4407
4511 3391
3391 4320
3393 4147
3396 3750
3751 3396
3816 3397
3397 3821
3397 3818
3397 3824
3397 3819
3397 3817
3397 3823
3485 3406
3408 3412
3409 4389
3410 3912
3410 4434
3794 3411
3411 3793
3411 4468
3412 3562
3412 4429
3412 4404
3412 4391
3786 3413
3414 3932
3414 3933
3961 3419
4179 3419
4481 3420
3421 3967
3424 4413
3428 4511
3442 3429
3430 4149
4513 3430
3431 4176
3432 4343
3434 4196
3437 4240
3665 3439
3439 4246
4280 3440
3440 4276
3440 4330
4528 3446
3917 4544
4330 4323
4333 4327
ratios
0.64
0.16
0.55
0.32
0.39
0.2
0.17
0.2
0.35
0.47
0.8
0.17
0.18
0.2
0.5
0.39
0.5
0.5
0.5
0.43
0.5
0.5
0.5
0.62
0.5
0.5
0.5
0.5
0.5
0.5
0.5
0.5
0.5
0.5
0.5
0.5
0.5
0.5
0.5
0.5
0.5
0.5
0.5
0.5
0.5
0.5
0.5
0.5
0.5
0.5
0.5
0.5
0.5
0.5
0.5
0.49
0.51
0.49
0.51
0.8
0.35
0.18
0.5
0.5
0.5
0.51
0.49
0.5
0.5
0.5
0.5
0.47
0.48
0.5
0.5
0.5
0.5
0.5
0.48
0.48
0.48
0.5
0.5
0.5
0.5
0.49
0.49
0.5
0.49
0.5
0.5
0.5
0.5
0.5
0.5
0.51
0.52
0.52
0.52
0.49
0.21
0.21
0.51
0.5
0.51
0.49
0.51
0.49
0.51
0.49
0.5
0.5
0.5
0.49
0.5
0.5
0.49
0.49
0.49
0.5
0.5
0.5
0.5
0.5
0.5
0.5
0.5
0.49
0.51
0.49
0.5
0.5
0.47
0.48
0.48
0.49
0.41
0.5
0.5
0.51
0.51
0.5
0.5
0.5
0.5
0.5
0.53
0.52
0.5
0.5
0.5
0.5
0.5
0.52
0.52
0.52
0.5
0.5
0.5
0.5
0.51
0.51
0.5
0.51
0.5
0.5
0.5
0.5
0.5
0.5
0.49
0.48
0.48
0.48
0.51
0.49
0.5
0.49
0.51
0.49
0.51
0.49
0.51
0.5
0.5
0.5
0.51
0.5
0.5
0.51
0.51
0.51
0.5
0.5
0.5
0.5
0.5
0.5
0.5
0.5
0.51
0.49
0.51
0.5
0.5
0.53
0.52
0.51
0.5
0.5
0.5
0.51
0.49
0.51
0.2
0.2
0.2
0.33
0.47
0.45
0.2
0.48
0.8
0.2
0.16
0.5
0.75
0.78
0.8
0.74
0.2
0.2
0.2
0.2
0.2
0.23
0.8
0.33
0.8100000000000001
0.16
0.79
0.8300000000000001
0.18
0.8
0.26
0.8
0.24
0.29
0.33
0.2
0.2
0.43
0.2
0.23
0.2
0.2
0.2
0.22
0.2
0.23
0.85
0.13
0.23
0.17
0.8200000000000001
0.16
0.2
0.18
0.12
0.2
0.84
0.2
0.18
0.2
0.19
0.15
0.16
0.16
0.14
0.19
0.23
0.2
0.77
0.22
0.2
0.8
0.2
0.21
0.16
0.18
0.19
0.18
0.2
0.84
0.85
0.17
0.73
0.22
0.14
0.18
0.18
0.21
0.18
0.18
0.21
0.8
0.15
0.17
0.22
0.16
0.8
0.8
0.2
0.21
0.22
0.16
0.13
0.16
0.18
0.16
0.21
0.8200000000000001
0.19
0.17
0.2
0.16
0.2
0.2
0.2
0.18
0.17
0.2
0.8100000000000001
0.8
0.19
0.23
0.2
0.16
0.77
0.16
0.17
0.16
0.21
0.2
0.22
0.19
0.84
0.18
0.8
0.22
0.85
0.8200000000000001
0.15
0.14
0.17
0.21
0.78
0.18
0.78
0.19
0.17
0.79
0.2
0.18
0.21
0.23
0.22
0.15
0.23
0.8100000000000001
0.78
0.21
0.2
0.22
0.19
0.78
0.2
0.22
0.22
0.8
0.23
0.8200000000000001
0.18
0.2
0.22
0.2
0.14
0.19
0.19
0.8
0.18
0.19
0.78
0.8200000000000001
0.5
0.22
0.23
0.17
0.84
0.5
0.5
0.8
0.16
0.21
0.8
0.5
0.21
0.5
0.14
0.2
0.15
0.8100000000000001
0.84
0.23
0.8200000000000001
0.21
0.8200000000000001
0.23
0.19
0.2
0.78
0.19
0.8200000000000001
0.2
0.2
0.19
0.8
0.2
0.79
0.19
0.2
0.15
0.16
0.16
0.85
0.79
0.17
0.14
0.2
0.23
0.8100000000000001
0.2
0.22
0.2
0.78
0.23
0.77
0.1
0.9
0.5
0.8
0.23
0.22
0.19
0.8
0.2
0.19
0.31
0.2
0.8
0.8
0.58
0.23
0.85
0.22
0.2
0.84
0.8300000000000001
0.19
0.2
0.78
0.18
0.2
0.19
0.21
0.22
0.8
0.2
0.79
0.21
0.8
0.2
0.5
0.31
0.2
0.2
0.2
0.2
0.8
0.68
0.2
0.2
0.38
0.2
0.2
0.3
0.72
0.62
0.2
0.2
0.2
0.63
0.38
0.34
0.7000000000000001
0.2
0.78
0.8
0.24
0.2
0.68
0.33
0.2
0.2
0.2
0.55
0.46
0.2
0.54
0.67
0.28
0.2
0.8100000000000001
0.14
0.12
0.2
0.84
0.23
0.15
0.14
0.8100000000000001
0.23
0.86
0.22
0.15
0.19
0.15
0.8100000000000001
0.19
0.85
0.22
0.21
0.15
0.21
0.19
0.77
0.21
0.23
0.8100000000000001
0.23
0.15
0.17
0.22
0.18
0.1
0.21
0.23
0.17
0.17
0.17
0.11
0.21
0.12
0.17
0.18
0.17
0.21
0.2
0.8
0.2
0.22
0.84
0.17
0.21
0.84
0.16
0.21
0.19
0.84
0.18
0.19
0.78
0.19
0.16
0.2
0.19
0.18
0.18
0.19
0.18
0.18
0.21
0.8
0.21
0.23
0.23
0.16
0.8200000000000001
0.21
0.77
0.23
0.79
0.19
0.19
0.21
0.18
0.18
0.16
0.23
0.22
0.2
0.8
0.21
0.16
0.22
0.16
0.2
0.19
0.22
0.18
0.19
0.86
0.19
0.21
0.12
0.18
0.15
0.17
0.79
0.79
0.2
0.22
0.16
0.8200000000000001
0.2
0.22
0.19
0.21
0.84
0.2
0.21
0.22
0.19
0.85
0.22
0.2
0.23
0.18
0.18
0.84
0.22
0.8200000000000001
0.22
0.17
0.13
0.17
0.18
0.17
0.13
0.13
0.8
0.2
0.8200000000000001
0.8100000000000001
0.2
0.8
0.19
0.8
0.19
0.2
0.8100000000000001
0.18
0.8
0.2
0.8100000000000001
0.2
0.77
0.2
0.2
0.14
0.21
0.21
0.78
0.14
0.19
0.21
0.77
0.19
0.77
0.21
0.19
0.2
0.16
0.19
0.2
0.16
0.22
0.8
0.16
0.16
0.2
0.2
0.15
0.21
0.21
0.8200000000000001
0.85
0.19
0.79
0.77
0.2
0.22
0.2
0.8
0.21
0.78
0.23
0.22
0.19
0.17
0.2
0.17
0.2
0.85
0.2
0.17
0.12
0.8
0.8300000000000001
0.15
0.16
0.14
0.12
0.17
0.14
0.8300000000000001
0.16
0.18
0.14
0.18
0.21
0.85
0.15
0.21
0.15
0.86
0.8100000000000001
0.13
0.11
0.21
0.13
0.19
0.8300000000000001
0.13
0.19
0.14
0.13
0.8300000000000001
0.19
0.14
0.5
0.19
0.16
0.16
0.2
0.19
0.5
0.18
0.2
0.1
0.8100000000000001
0.18
0.19
0.19
0.78
0.19
0.78
0.19
0.23
0.85
0.22
0.19
0.21
0.21
0.16
0.77
0.19
0.86
0.14
0.18
0.16
0.21
0.21
0.19
0.18
0.15
0.5
0.18
0.1
0.21
0.13
0.3
0.77
0.1
0.13
0.21
0.23
0.22
0.77
0.22
0.8200000000000001
0.8100000000000001
0.2
0.17
0.15
0.19
0.79
0.8100000000000001
0.19
0.17
0.22
0.19
0.17
0.23
0.15
0.19
0.15
0.21
0.17
0.19
0.18
0.22
0.14
0.79
0.22
0.22
0.19
0.17
0.21
0.21
0.17
0.17
0.15
0.14
0.23
0.2
0.14
0.14
0.17
0.21
0.17
0.19
0.14
0.17
0.16
0.17
0.14
0.2
0.13
0.16
0.19
0.2
0.2
0.8
0.19
0.33
0.79
0.78
0.2
0.77
0.2
0.2
0.2
0.64
0.22
0.21
0.2
0.2
0.21
0.22
0.2
0.22
0.23
0.19
0.21
0.17
0.21
0.2
0.21
0.22
0.22
0.21
0.22
0.23
0.23
0.16
0.8
0.8200000000000001
0.22
0.22
0.21
0.16
0.23
0.19
0.8
0.2
0.22
0.21
0.8
0.22
0.23
0.18
0.21
0.2
0.8100000000000001
0.23
0.21
0.18
0.8
0.13
0.16
0.23
0.8300000000000001
0.22
0.17
0.78
0.23
0.2
0.22
0.21
0.23
0.19
0.11
0.16
0.8
0.15
0.22
0.17
0.19
0.21
0.11
0.78
0.16
0.2
0.22
0.17
0.19
0.79
0.16
0.8100000000000001
0.79
0.8100000000000001
0.21
0.77
0.77
0.8300000000000001
0.8200000000000001
0.84
0.17
0.16
0.15
0.19
0.8
0.13
0.17
0.16
0.21
0.31
0.17
0.21
0.8100000000000001
0.2
0.8100000000000001
0.18
0.14
0.2
0.14
0.2
0.8100000000000001
0.18
0.2
0.8
0.18
0.21
0.8100000000000001
0.2
0.8
0.18
0.19
0.18
0.15
0.78
0.8100000000000001
0.8
0.21
0.17
0.15
0.21
0.18
0.21
0.18
0.29
0.8100000000000001
0.5
0.5
0.22
0.5
0.2
0.5
0.5
0.5
0.5
0.19
0.2
0.22
0.84
0.5
0.5
0.23
0.21
0.18
0.5
0.5
0.5
0.5
0.22
0.2
0.16
0.5
0.5
0.16
0.22
0.22
0.18
0.17
0.21
0.2
0.78
0.8200000000000001
0.17
0.2
0.8300000000000001
0.8
0.8
0.17
0.2
0.84
0.17
0.23
0.8200000000000001
0.16
0.17
0.23
0.15
0.8200000000000001
0.18
0.17
0.17
0.2
0.12
0.85
0.17
0.78
0.8300000000000001
0.8
0.17
0.84
0.2
0.14
0.16
0.2
0.23
0.79
0.77
0.86
0.14
0.86
0.23
0.22
0.22
0.21
0.21
0.2
0.21
0.86
0.22
0.21
0.21
0.8100000000000001
0.8200000000000001
0.21
0.19
0.79
0.8200000000000001
0.22
0.2
0.8200000000000001
0.21
0.18
0.8100000000000001
0.22
0.8
0.18
0.18
0.21
0.2
0.84
0.18
0.19
0.8100000000000001
0.16
0.22
0.14
0.15
0.23
0.8200000000000001
0.21
0.22
0.22
0.21
0.8100000000000001
0.18
0.77
0.8300000000000001
0.19
0.18
0.21
0.23
0.17
0.79
0.2
0.23
0.86
0.18
0.79
0.16
0.23
0.2
0.84
0.2
0.21
0.2
0.84
0.21
0.19
0.17
0.19
0.15
0.8
0.21
0.22
0.2
0.8
0.18
0.79
0.8100000000000001
0.2
0.59
0.23
0.8
0.2
0.19
0.79
0.19
0.79
0.17
0.17
0.19
0.19
0.21
0.16
0.8300000000000001
0.8
0.8300000000000001
0.21
0.19
0.19
0.2
0.8
0.8100000000000001
0.19
0.19
0.22
0.77
0.8200000000000001
0.21
0.22
0.2
0.78
0.17
0.2
0.79
0.21
0.79
0.21
0.22
0.2
0.19
0.18
0.8
0.22
0.17
0.8
0.22
0.2
0.22
0.21
0.79
0.21
0.21
0.77
0.21
0.21
0.21
0.8300000000000001
0.22
0.8200000000000001
0.42
0.8
0.17
0.22
0.23
0.18
0.18
0.8300000000000001
0.22
0.8
0.2
0.18
0.7000000000000001
0.78
0.78
0.8
0.8
0.22
0.21
0.78
0.21
0.21
0.21
0.19
0.8200000000000001
0.2
0.8
0.34
0.8
0.22
0.13
0.2
0.2
0.13
0.21
0.2
0.21
0.16
0.23
0.84
0.18
0.23
0.2
0.84
0.16
0.16
0.15
0.21
0.22
0.17
0.21
0.8
0.79
0.8
0.78
0.79
0.17
0.22
0.85
0.17
0.18
0.2
0.15
0.8200000000000001
0.21
0.2
0.18
0.18
0.21
0.2
0.16
0.21
0.16
0.17
0.18
0.21
0.21
0.19
0.18
0.22
0.21
0.21
0.19
0.8200000000000001
0.2
0.2
0.22
0.21
0.8200000000000001
0.8200000000000001
0.2
0.2
0.18
0.22
0.16
0.23
0.23
0.77
0.22
0.19
0.22
0.19
0.2
0.23
0.8
0.22
0.19
0.22
0.23
0.23
0.2
0.79
0.2
0.17
0.22
0.8
0.2
0.8200000000000001
0.2
0.75
0.8
0.2
0.2
0.25
0.76
0.2
0.8
0.74
0.8
0.2
0.8300000000000001
0.2
0.2
0.2
0.8
0.2
0.8
0.8
0.2
0.14
0.8100000000000001
0.2
0.2
0.8
0.2
0.2
0.2
0.2
0.8
0.8
0.8
0.8
0.2
0.19
0.8300000000000001
0.77
0.78
0.8
0.2
0.21
0.8
0.2
0.2
0.8
0.2
0.2
0.8
0.2
0.2
0.8
0.8
0.2
0.8
0.2
0.8
0.2
0.2
0.34
0.8
0.45
0.8
0.12
0.8
0.87
0.8
0.2
0.8
0.23
0.6900000000000001
0.8200000000000001
0.8
0.8200000000000001
0.2
0.8
0.2
0.79
0.8
0.8
0.8300000000000001
0.77
0.8300000000000001
0.2
0.87
0.2
0.2
0.2
0.2
0.2
0.8
0.73
0.2
0.8
0.2
0.8
0.2
0.23
0.8
0.8
0.2
0.8200000000000001
0.8200000000000001
0.8200000000000001
0.22
0.8
0.2
0.8
0.8
0.88
0.38
0.26
0.8100000000000001
0.73
0.8
0.2
0.8
0.8
0.68
0.77
0.2
0.8
0.8
0.8
0.37
0.71
0.8
0.8
0.2
0.8
0.8
0.2
0.72
0.8
0.8
0.76
0.37
0.8
0.2
0.2
0.8
0.8
0.8
0.27
0.8
0.22
0.86
0.67
0.87
0.8
0.8
0.29
0.2
0.8
0.84
0.87
0.2
0.8
0.8
0.74
0.2
0.8
0.44
0.8
0.2
0.8
0.8
0.5
0.2
0.8
0.2
0.8
0.2
0.8
0.2
0.66
0.39
0.8
0.8
0.2
0.2
0.2
0.41
0.2
0.43
0.2
0.2
0.84
0.79
0.8
0.77
0.8
0.8
0.8
0.8
0.8
0.8
0.8
0.8
0.8
0.8
0.8300000000000001
0.84
0.8
0.8
0.8
0.9
0.8300000000000001
0.8200000000000001
0.21
0.65
0.8
0.84
0.8
0.8
0.74
0.2
0.2
0.2
0.8
0.2
0.8
0.8
0.27
0.8
0.8
0.8
0.8
0.2
0.48
0.2
0.8
0.8
0.79
0.76
0.2
0.2
0.78
0.76
0.67
0.8
0.84
0.84
0.8
0.8
0.77
0.8
0.8
0.8
0.8
0.8100000000000001
0.28
0.2
0.61
0.72
0.2
0.77
0.2
0.2
0.2
0.2
0.2
0.2
0.73
0.8
0.2
0.54
0.8
0.84
0.85
0.8200000000000001
0.8200000000000001
0.8
0.79
0.84
0.84
0.77
0.17
0.79
0.8
0.21
0.78
0.18
0.22
0.18
0.17
0.16
0.23
0.16
0.79
0.23
0.2
0.8100000000000001
0.18
0.8100000000000001
0.23
0.21
0.19
0.19
0.19
0.2
0.16
0.13
0.17
0.19
0.18
0.78
0.22
0.16
0.23
0.23
0.8100000000000001
0.8100000000000001
0.15
0.17
0.17
0.84
0.8300000000000001
0.18
0.19
0.17
0.21
0.21
0.85
0.16
0.18
0.19
0.23
0.21
0.19
0.16
0.8
0.8100000000000001
0.18
0.21
0.8200000000000001
0.17
0.2
0.16
0.16
0.8
0.22
0.19
0.16
0.8200000000000001
0.8200000000000001
0.16
0.18
0.2
0.18
0.8200000000000001
0.87
0.21
0.21
0.21
0.22
0.21
0.18
0.8100000000000001
0.22
0.22
0.8200000000000001
0.23
0.23
0.2
0.18
0.77
0.18
0.22
0.17
0.16
0.23
0.8200000000000001
0.19
0.84
0.2
0.2
0.13
0.18
0.17
0.19
0.87
0.14
0.19
0.79
0.23
0.22
0.8300000000000001
0.15
0.21
0.8200000000000001
0.86
0.16
0.2
0.15
0.19
0.8200000000000001
0.19
0.19
0.23
0.19
0.8200000000000001
0.77
0.8
0.19
0.21
0.8100000000000001
0.17
0.22
0.21
0.2
0.8
0.22
0.16
0.19
0.29
0.23
0.8
0.17
0.2
0.2
0.23
0.22
0.22
0.8200000000000001
0.14
0.2
0.79
0.19
0.16
0.18
0.2
0.22
0.19
0.23
0.23
0.13
0.21
0.78
0.21
0.16
0.77
0.87
0.84
0.86
0.85
0.86
0.84
0.86
0.8
0.23
0.79
0.51
0.78
0.8
0.84
0.87
0.87
0.84
0.8
0.8
0.19
0.8300000000000001
0.19
0.78
0.77
0.2
0.78
0.8100000000000001
0.19
0.8300000000000001
0.22
0.8
0.19
0.19
0.17
0.8
0.87
0.78
0.84
0.8100000000000001
0.8
0.84
0.8
0.85
0.86
0.8
0.8100000000000001
0.19
0.79
0.8
0.88
0.78
0.18
0.8
0.8
0.88
0.8
0.8200000000000001
0.79
0.88
0.2
0.79
0.84
0.18
0.8300000000000001
0.86
0.14
0.78
0.16
0.84
0.79
0.79
0.8200000000000001
0.79
0.78
0.8100000000000001
0.88
0.8
0.8200000000000001
0.84
0.77
0.86
0.79
0.8300000000000001
0.8
0.18
0.15
0.23
0.8100000000000001
0.23
0.77
0.17
0.21
0.8
0.17
0.22
0.8100000000000001
0.23
0.8100000000000001
0.79
0.78
0.23
0.22
0.8200000000000001
0.8100000000000001
0.18
0.16
0.21
0.8100000000000001
0.8
0.78
0.87
0.22
0.16
0.41
0.2
0.18
0.8300000000000001
0.23
0.14
0.21
0.8
0.84
0.15
0.21
0.22
0.22
0.2
0.18
0.8200000000000001
0.79
0.16
0.23
0.22
0.8
0.22
0.19
0.2
0.18
0.18
0.16
0.8200000000000001
0.18
0.21
0.8
0.86
0.8200000000000001
0.22
0.19
0.18
0.39
0.18
0.79
0.2
0.2
0.23
0.2
0.78
0.21
0.79
0.23
0.13
0.8
0.8
0.2
0.2

forceimprovementnum 1
maxthreads 4
