refinementinfo

progressstart 0
progressstop 100
progresstext "Mesh refinement"

reftype edgesplit

refine edges
229 2468
3 230
230 231
4 231
4 1544
5 232
6 3185
233 3187
10 233
11 234
12 235
12 1546
13 236
2470 3188
16 3189
17 4435
10 19
5 21
21 22
237 238
239 4438
242 243
244 2475
264 2482
23 4445
24 4446
284 285
286 287
288 4448
302 303
304 4451
14 2488
2493 4472
316 4472
42 3205
320 3207
44 3207
321 2496
323 3211
324 3213
332 2501
332 2502
61 4483
62 4484
333 334
335 336
69 339
73 3219
83 84
84 85
354 4494
356 3220
355 3220
360 2507
37 2507
361 362
366 3222
99 4497
369 4498
374 4501
378 2509
101 2509
100 4508
103 104
383 384
385 386
392 393
393 394
397 2516
122 2517
397 2517
128 3237
134 135
138 2519
440 2520
440 2521
2523 4545
443 444
444 445
445 446
446 447
153 2524
154 2524
156 448
448 449
452 453
155 454
158 2525
455 2526
167 2526
456 2527
168 2529
463 4553
465 3249
464 3249
469 2530
38 2530
470 2531
469 2531
470 471
471 472
475 3251
183 4556
478 4557
183 4566
486 4566
487 2532
185 2532
184 4567
187 188
492 493
494 495
2537 3258
497 3258
199 4582
499 3261
202 3261
501 502
502 503
201 4588
504 4588
505 3263
506 2539
206 2540
506 2540
507 508
212 3265
512 3266
514 4594
517 518
216 3269
1 2542
521 3270
133 3270
522 2543
524 3274
525 3276
217 4602
26 3277
2 695
227 1061
228 1061
228 1554
51 4606
62 4607
3 1543
11 1545
227 1553
5 1565
10 1571
13 1572
257 2478
73 4612
298 4449
301 4450
2495 1
4385 1
1 3155
4616 2
742 2
2 3072
2 3140
3 4616
4961 3
3 1658
3 3140
3 4621
3 1536
3 3072
3285 4
4 4967
4 4227
4 982
4 3141
3285 5
6 3288
8 3295
8 2558
8 2559
3300 10
10 1452
11 3300
4970 11
11 1246
11 1417
11 1400
11 1034
11 1022
11 5799
11 1452
11 1676
11 4971
11 4972
4973 12
12 1299
12 1265
12 1411
12 1272
12 1271
12 4975
12 1410
12 4643
735 13
4646 14
14 3302
2487 14
4261 14
16 3543
16 3303
3306 16
16 4260
16 1656
3307 17
17 4650
17 4651
18 3310
18 4653
3314 20
20 1669
4437 21
4663 22
22 4664
22 4433
22 4666
23 236
23 1667
23 1007
24 1528
25 2574
25 2576
26 2581
4395 26
26 2582
3318 26
2583 26
26 2584
31 2756
549 36
36 4682
36 3323
427 37
3851 37
3324 37
37 2530
37 2589
38 3326
756 38
4191 38
38 3328
38 3329
41 3205
42 2597
43 3346
51 416
51 2599
51 4704
51 4705
51 1334
51 1150
51 3392
52 4706
52 4251
53 2599
54 1132
54 2601
61 2604
62 4545
62 4711
62 3358
62 4714
63 3363
63 3362
63 3115
66 2613
67 2674
67 2613
67 3369
2524 68
68 2615
69 3371
454 69
69 3932
69 2615
69 3372
4789 70
70 448
70 3404
71 2617
4739 72
72 2617
72 4734
72 3377
72 4736
72 4863
4737 73
73 3378
73 2608
73 2621
73 3380
73 2624
73 4349
73 6024
81 1131
82 3383
82 2526
82 4236
83 4882
83 3389
4751 84
84 3390
84 3387
84 3389
85 4750
85 4752
3695 92
92 413
93 1416
98 429
430 98
98 1210
3394 99
3746 100
100 422
100 3398
100 3734
101 2634
103 4776
103 3399
103 4778
103 1458
104 4776
113 3118
115 4922
4794 115
4796 116
4797 116
117 1171
2606 118
118 4720
118 3135
118 1681
2602 122
122 2540
122 3158
128 1168
128 1280
129 3417
129 3418
130 1187
131 412
131 1205
3423 133
3856 133
133 4820
134 4821
4827 134
134 711
3433 134
134 4822
134 3123
135 4827
135 3433
3434 135
135 4829
135 3435
138 2650
138 2652
138 2598
2653 139
139 4329
139 2657
139 2658
2660 140
140 4345
140 2657
2661 141
146 4840
146 1468
4840 147
4836 147
147 1512
149 3441
6129 149
149 3444
149 3445
150 4545
152 2716
152 3451
152 3122
2676 153
3452 153
153 3451
153 2716
153 2674
153 3165
154 3456
154 3138
154 2678
155 3930
155 3456
3902 156
156 3457
156 2617
3459 158
158 6027
158 3460
159 3464
164 2667
164 1095
164 1062
2690 167
4878 167
167 2689
4353 167
167 2692
167 4224
4877 168
6039 168
168 4879
168 6040
168 4875
168 2692
168 3389
168 4883
168 4882
168 4885
169 2649
173 3467
3432 173
173 3469
173 1087
173 3470
3467 174
4886 174
174 3469
5420 175
175 3471
175 3473
175 3474
175 3110
176 728
176 3475
176 3476
176 3473
177 722
750 177
177 3956
177 3479
178 3479
179 3483
180 863
182 653
4507 183
183 3485
776 183
183 4047
183 4769
184 2697
184 3492
4363 185
185 3494
185 2700
185 3139
187 5643
187 1458
5643 188
188 2694
188 3496
188 1458
2703 192
193 2685
2684 196
3502 197
3503 197
197 3505
197 3507
197 1069
198 2708
198 1080
199 4525
3510 199
4922 199
199 4923
200 1083
201 4531
4927 201
201 4426
201 3804
3514 202
202 2717
202 3519
4171 206
2663 206
206 2721
206 3158
212 3237
3527 212
212 3528
212 3529
3021 213
213 3149
563 214
214 3531
214 4138
214 3532
553 215
215 552
215 3533
216 3206
216 3534
3535 216
216 3347
538 217
602 217
2638 217
217 2732
2590 227
227 2592
227 4954
227 1303
227 4950
227 4952
227 2731
227 1221
227 1305
228 2639
228 1100
228 5832
228 1379
228 1286
228 1381
228 2732
228 5858
228 3154
1541 229
4616 230
230 1563
230 1562
230 1378
230 4623
230 1505
230 1285
230 1523
230 1453
231 3285
2556 231
231 1562
231 1513
231 4626
231 1397
231 1392
231 4629
231 1505
231 1453
231 4962
231 1391
231 1267
231 1377
1540 233
3544 233
3300 234
234 1570
234 1569
234 1466
234 1116
234 1301
234 1406
234 1485
234 1246
234 1400
234 1436
234 1404
234 1656
235 4973
235 1569
235 1466
235 1116
235 1301
235 4971
235 1406
235 1425
235 4639
235 1115
235 1464
235 1385
235 1404
236 1548
236 1667
236 1272
237 795
238 3544
243 2468
243 2553
806 244
5017 271
5014 271
271 5013
271 736
271 1479
272 5017
272 1479
272 1465
273 5019
274 5022
274 1493
274 1503
5026 275
275 5022
275 5024
275 1487
275 1503
276 5026
276 5027
276 1487
276 1524
5030 277
277 5027
277 1486
277 1524
277 5032
5034 278
278 1486
278 1461
5036 279
279 5034
279 1461
308 3565
308 3566
308 5057
309 548
309 3569
548 310
310 549
310 4682
310 3323
310 3571
310 3569
310 5067
312 3578
3577 312
312 3579
316 5085
316 3593
316 2779
316 5086
316 3089
317 3595
317 3596
5097 318
318 3598
318 5827
4286 319
319 3601
319 2788
319 3603
319 2789
319 3604
320 3605
321 4186
322 4152
322 3610
322 3611
323 2808
323 3613
324 3614
5114 324
324 3617
2820 331
331 2816
331 3869
331 2819
332 2521
332 2520
332 5136
332 3860
332 6008
333 5141
333 3618
333 3620
333 3619
333 3901
334 5144
334 447
334 3623
334 3622
334 3901
334 3620
335 446
335 3623
335 3625
335 3626
336 445
443 336
336 3625
336 3626
336 3631
336 5154
336 3629
336 3633
336 5383
337 3636
337 3638
337 3871
337 3631
337 3635
338 3870
5169 339
339 3932
339 3759
5174 340
452 340
340 3923
340 3645
341 3647
342 3910
5301 343
343 3773
343 3658
343 3772
344 3777
344 3659
344 3905
344 3660
5190 345
345 5191
345 3661
2828 346
346 3664
346 3665
346 3663
347 2526
347 3666
347 3938
347 3933
352 723
353 5213
353 723
353 3670
353 3671
354 5216
354 3676
354 5218
354 3677
355 5222
355 3682
355 3683
355 3969
355 3684
5227 356
356 3688
357 3690
3691 357
357 3692
357 3689
358 3695
3691 358
358 728
358 5236
360 2846
3696 360
4301 360
360 2530
360 3697
360 3991
360 3700
360 3699
361 3702
361 471
361 3703
3705 362
362 3703
427 364
364 1211
365 427
366 3710
3572 366
366 1419
366 1656
366 4260
366 2566
3712 369
369 5253
369 3717
370 3718
370 3720
371 3723
371 3724
371 3729
371 3728
372 3730
372 3723
372 3731
3730 373
373 430
373 3731
373 1210
2845 374
374 4036
374 3735
374 1688
375 2944
375 3739
376 3741
376 2948
376 2947
2838 377
377 3744
377 5280
377 2874
377 3745
3747 378
378 3748
378 3750
378 3749
4723 381
381 3759
382 3760
382 3761
382 3762
382 3763
383 493
383 2964
383 3765
384 3770
384 2967
384 3771
384 2964
3651 385
385 5184
385 2973
385 4066
385 3774
385 3773
386 494
386 2973
386 4067
386 3776
386 3775
386 3777
386 3773
5186 387
387 2977
387 3780
3586 388
388 5307
388 3258
388 3785
388 3783
388 3784
388 4071
389 3786
389 5311
389 3789
390 2992
390 5143
390 3790
391 3624
391 3793
391 3794
391 3792
391 5147
392 502
392 3796
392 3797
392 3626
393 3634
393 3799
393 3798
394 502
394 3801
394 2998
394 3802
394 3800
394 3798
395 4081
395 3805
395 3800
396 3807
396 3263
396 3808
396 4084
396 3809
396 3810
396 4083
397 4325
397 2539
397 3014
397 3812
3417 398
398 3814
398 508
398 3816
398 1338
3818 399
399 3817
399 3821
399 3820
399 3819
401 1205
401 553
5331 402
402 3824
402 3827
403 5333
404 3829
404 5338
405 5342
405 4116
405 3836
3837 406
406 3839
406 4121
407 3840
407 3841
407 4127
407 3842
407 3844
408 3845
408 3846
408 4131
3845 409
409 3849
409 3850
409 1187
409 563
3237 417
423 4501
4507 425
4455 427
427 3221
3428 439
439 3430
439 949
3860 440
440 5367
440 3861
440 3862
441 3864
441 2907
441 3866
441 4226
442 3871
3871 443
443 3879
443 3880
443 3638
443 3631
444 5377
3884 444
444 3879
444 3883
444 3631
445 3884
445 5381
445 3893
445 3883
445 5378
445 3625
445 5383
445 5380
3892 446
446 3893
446 3895
446 3623
446 3888
447 5388
447 3899
447 3900
447 4078
447 3901
448 3902
448 3903
448 4857
448 5390
448 3904
448 5392
449 3905
449 3904
449 3908
5395 450
450 3913
450 5397
3910 451
3925 452
452 3922
452 3926
453 3919
453 3923
3924 453
453 3925
453 3926
454 5409
454 3932
454 6347
455 3933
3934 455
3935 455
455 3937
455 3936
456 2505
456 3939
456 3940
456 3941
456 3942
456 4298
456 3664
457 5420
457 3945
3471 457
457 3946
458 3947
458 3946
5424 459
723 461
461 3958
461 3957
461 3956
462 723
462 3958
3959 462
462 3957
462 3956
3964 463
463 3967
3969 464
3970 464
3971 464
3979 465
465 3981
466 3986
728 467
467 761
467 3475
467 3476
467 3989
2508 469
4360 469
469 3991
469 3992
469 2933
469 3701
469 4362
2508 470
470 3993
3996 470
3994 470
470 3995
3998 470
4361 470
470 3703
470 5961
3996 471
3997 471
471 5460
471 3703
473 4003
474 752
474 4003
474 4007
474 4008
474 796
3544 475
752 475
2768 475
475 4010
475 796
475 1666
475 4978
476 863
476 5653
753 477
4013 478
4012 478
5471 478
478 4015
478 4016
478 5473
4017 479
479 4024
479 4023
480 4028
480 4029
480 4030
480 4022
481 4032
481 4033
481 4034
481 4028
482 5486
482 4034
4036 483
4037 483
2944 484
484 2946
485 2948
485 4042
485 4043
485 4044
486 4045
486 4046
486 4047
486 4048
486 5280
487 4053
5505 488
488 5732
488 4057
5509 489
489 5510
489 4060
489 2958
3454 490
490 4063
3921 492
492 3920
493 5519
2964 493
3915 493
493 3921
2973 494
4066 494
494 3911
494 2976
494 2975
495 2973
4067 495
495 4068
495 2975
2977 496
496 3906
497 4071
4372 497
497 2987
497 4073
498 4076
498 4075
2992 499
499 4078
500 3885
2999 501
501 4079
501 5549
3881 502
3882 502
502 3007
503 5546
2998 503
503 3872
3877 503
4081 504
504 4082
504 3873
504 3009
505 4083
505 2901
505 4085
505 4086
2517 506
506 4089
5633 506
506 3014
4382 506
4380 506
506 4092
4095 507
507 4093
507 3021
507 3149
508 4095
4097 508
508 4096
510 553
4101 510
510 4100
510 3533
510 4102
4100 511
511 4103
511 4104
513 5573
513 4112
513 5574
513 4113
4114 514
514 4116
514 5578
4121 515
515 4122
515 4124
516 4127
5588 516
516 4129
4131 517
517 4132
517 4134
517 4135
518 563
518 4134
518 4138
518 4137
4140 520
4386 520
520 4142
520 4141
520 4143
521 3605
4186 522
4148 522
522 4149
522 5743
522 3058
522 3057
523 4151
523 4152
523 5109
524 4155
524 3065
525 5615
541 2998
2999 541
5546 541
541 1164
541 1157
548 609
4590 555
555 4533
556 1376
558 866
4586 571
4082 575
587 1363
611 1022
622 621
621 861
680 622
624 861
625 1657
631 1273
2776 632
635 1219
636 2964
5519 636
2953 641
643 2702
643 668
643 4177
2956 643
644 2946
645 4036
645 947
5643 647
647 947
649 2950
4558 651
653 665
664 653
656 863
679 658
658 863
658 1422
5094 660
662 5653
662 863
680 861
691 888
4615 700
700 804
712 701
741 701
4550 702
702 949
702 963
3871 703
5424 711
711 949
711 963
711 3953
711 1260
712 934
714 5656
4554 715
720 4145
3963 724
739 4195
752 3250
753 863
758 4567
760 949
761 4555
4566 763
776 4566
4600 777
795 794
832 795
795 861
795 796
795 4006
795 4009
861 796
796 862
796 4193
796 3250
796 2768
882 797
798 5460
858 800
800 857
5667 804
2475 805
852 805
807 806
2475 806
806 3534
806 4139
850 808
3085 820
820 5676
861 832
840 875
841 2990
848 866
851 852
852 3534
853 4153
906 857
863 861
861 4006
863 862
862 4007
863 899
863 4898
864 3479
864 4046
866 911
866 4120
896 867
897 867
893 871
872 893
919 873
873 893
874 5629
877 876
908 876
882 4023
882 4028
884 4028
885 923
885 5659
888 900
888 912
888 5480
888 4022
888 4034
935 890
4210 890
936 893
893 919
896 4105
938 902
902 913
902 3051
902 3043
902 4124
903 939
5706 903
903 925
923 904
4195 904
914 905
5720 905
906 2946
907 4023
911 5585
911 4121
912 927
912 915
913 3048
913 3052
924 914
915 933
915 2944
915 2946
922 917
950 917
3098 917
917 2971
918 955
918 5732
930 921
932 922
923 941
933 923
923 5727
923 3983
923 6315
923 3986
939 924
924 934
925 940
925 5741
925 4146
925 4145
933 927
927 935
928 4022
938 929
5760 930
931 930
930 951
5734 930
931 3884
950 932
941 933
5727 933
933 935
933 947
949 934
963 934
942 935
947 935
935 4210
935 2701
937 944
5757 937
938 3052
939 949
940 962
940 3423
947 941
941 4053
948 942
956 942
942 965
942 1082
942 2958
943 950
944 954
944 5728
945 949
953 947
947 963
947 3953
947 3470
947 2698
947 2697
963 948
964 949
961 950
5746 950
950 3902
954 951
951 961
963 953
961 954
954 2721
5767 955
955 5768
3100 955
5766 955
5761 955
955 6059
955 2953
955 2955
955 5732
955 1069
959 3919
961 3444
962 964
964 963
963 965
965 964
966 965
982 1544
985 3141
985 4629
988 4629
990 1665
990 1544
1007 1548
1007 1546
1021 1400
5799 1022
1022 1026
1022 1034
1022 4637
1022 1545
1023 4972
1023 1400
5799 1025
1025 1400
5799 1034
1034 1116
1037 1041
1037 1100
1038 1041
1054 1047
1048 1115
1053 1301
1054 1115
1059 1291
1061 1557
1555 1061
1061 4950
1061 1379
1061 1286
1061 4957
1061 1100
1061 1273
1061 1654
1066 2523
1068 4862
1068 5760
1078 5773
1080 3255
1082 4572
1083 4579
1083 2536
1084 3243
1085 4221
1094 2665
1095 5773
1097 1221
1097 4950
1097 2731
1099 1379
1101 4957
1103 1221
1105 1379
1109 1301
1115 1271
1115 1117
1115 1301
1115 4971
1116 4637
1119 4621
1131 4488
1132 4482
1145 2500
1152 2992
1154 2992
1170 3003
1171 4531
1218 1273
1220 2973
1221 4951
1222 2973
1223 1305
1233 1301
1233 1406
1246 4260
1246 3300
1246 1400
1265 1546
1267 4962
1271 1546
1271 4639
1272 1385
1273 1553
1273 1654
1273 3181
1280 3237
1280 1326
1282 1532
1285 4962
1286 1379
1286 1380
1286 2639
1286 2637
1291 1363
1300 4639
1301 4971
1301 4972
1301 1436
1301 1385
1301 4639
1301 5794
1303 4951
1323 2956
1328 2610
1351 1376
1351 1378
1359 1379
1361 1425
1377 1378
1377 4965
1378 4965
1379 4957
1379 5824
1379 5823
1379 5811
1379 5822
1379 4950
1379 4953
1381 2732
1381 3154
1385 4975
1393 3226
1395 1400
1406 4975
1407 3140
1407 1658
1412 4455
1417 1545
1417 3300
1418 4009
1419 3221
1424 4639
1425 4975
1436 1656
1448 4483
1456 1553
1488 1545
1543 1564
1543 3072
1543 3140
1565 1544
1544 4626
1544 4227
1545 1571
1545 4970
1550 2476
1553 2583
1553 2590
1553 5886
1553 5820
1553 2579
1553 1657
2638 1554
2639 1554
1554 5821
1554 2732
1554 5831
1654 2592
1656 3222
1662 4437
1666 3251
1673 2492
1673 3203
1673 4468
1685 4522
1688 4501
4198 2478
2759 2479
2575 2479
2488 4261
4263 2488
3578 2488
2488 3146
2490 4472
2492 5911
2492 4275
2492 3559
2493 4279
5915 2493
2493 4200
2493 5918
2494 4283
2494 4284
2494 4199
2494 4206
2495 4286
2495 2558
2495 2559
2495 2788
2495 2789
5921 2496
2496 4186
2496 4187
2496 4242
2497 4287
2497 4288
2498 4392
2498 4291
5930 2499
5931 2499
2499 4188
2816 2500
2648 2500
2500 5849
2500 2819
2500 4347
2501 5940
2501 4343
2643 2502
2821 2502
2502 2662
2502 5945
2503 2674
2503 5881
2504 2627
2504 4235
2505 4296
2505 4297
2505 3663
2505 3664
2505 4298
2506 4237
2506 4257
2506 4252
2506 4236
2506 2690
2506 4352
2507 2846
2507 2934
2507 4686
2507 3697
2507 4299
2508 4301
2508 4362
2508 4304
2508 4305
2634 2509
4307 2509
2509 3747
2509 3748
2509 4309
2509 4308
2513 5859
2514 4164
2514 4319
2515 5987
2515 5988
2515 4379
2515 4376
2516 4323
2516 4322
2516 3014
2516 4169
2517 4325
2517 3158
2517 4089
2517 5892
4326 2518
2518 4327
2518 3048
2518 4241
2518 4250
2518 3844
2519 2653
4329 2519
2519 4330
2519 4230
2519 4251
2520 2900
2520 3862
6003 2521
2521 4341
2521 4342
2521 3861
2521 4225
2521 5369
2522 2907
2522 2657
2522 4346
2522 4345
2522 4226
6013 2523
6015 2523
3518 2523
2523 3446
2523 4231
2523 5826
2523 2604
2524 2676
2524 5828
2524 5829
2524 2674
2524 5881
2524 2678
4860 2525
4349 2525
6289 2525
2525 3459
2525 6025
2525 4351
2525 4232
2525 3380
2526 2690
3933 2526
2526 4352
4353 2526
2526 3935
2526 4224
2526 4354
2527 4355
2527 3940
2527 3942
2527 4298
2528 2919
2529 2649
2529 6040
6042 2529
2529 6043
2529 6044
2529 4875
2529 5825
2530 4190
2530 4191
2530 2933
2530 4208
2530 2934
2530 6338
4360 2531
2531 4362
2531 5961
4364 2532
2532 4363
2532 3139
2532 4774
2532 5883
2533 4365
2533 4221
2534 4369
2534 2958
4058 2535
2535 4061
2535 4217
4372 2536
2536 4205
2536 4213
3230 2537
2537 4164
2537 2990
4376 2538
2538 6071
6072 2538
2538 6074
2538 6078
2538 6077
2538 6076
2538 4379
3014 2539
2539 4169
2539 4380
2539 4381
2539 4219
2540 4089
2540 4171
2540 4929
2540 4382
2541 4212
4385 2542
2542 4140
2542 4386
2543 4186
2543 4387
4149 2543
2543 5743
2543 5741
2543 5742
6090 2544
2544 4388
2544 4390
2544 4391
2545 4392
3037 2545
2545 6098
2545 6099
4188 2546
2562 3251
2566 3222
2572 4435
2759 2574
5084 2580
2581 4673
2582 2583
2589 6338
2598 4705
2601 4482
4483 2605
2607 3281
2608 3378
2608 4740
2610 4612
2610 6311
2618 3219
2620 4740
2622 3219
2623 3281
2624 3219
2624 4740
2627 4488
2631 4606
2631 3392
2641 4376
4482 2643
2661 4543
2662 4482
2669 6311
2672 4545
2683 4349
2685 4569
4548 2688
2697 4560
4572 2703
2709 4376
2709 4198
2712 4198
2717 3261
2717 4078
2723 4589
2730 4951
2734 4385
3086 2759
2759 3089
3251 2768
2774 2776
4472 2776
2776 3087
2778 4075
2779 4472
4471 2783
2784 4471
2784 5913
2788 4385
2808 4477
2811 4477
2812 4477
2820 4481
2827 4490
4489 2828
2832 4489
4507 2838
4501 2845
2862 4503
2864 4505
2874 4507
2888 2988
2889 4377
2895 3014
2901 3264
2912 4573
2916 4568
2916 4549
4570 2917
2919 4221
2919 4548
2919 4057
2919 4871
4564 2924
2924 3253
4561 2926
2926 4562
3252 2926
2927 4564
2928 4560
4564 2944
2944 3253
2944 4505
2944 3224
2946 4564
2946 3253
2947 4504
2947 3224
3254 2948
2948 3225
5652 2953
2953 5765
2955 4571
2956 4058
2956 4570
2958 4061
2958 4570
2960 4574
4576 2967
2967 4517
2970 4576
2975 5531
4577 2977
2977 4518
2979 4577
2982 4577
2984 3502
2987 3256
2988 4317
2989 3085
2990 3257
2990 4200
2990 4581
2991 4078
2992 3234
2995 4586
3006 4587
3009 4588
3009 3513
3013 4589
3015 4089
3016 4089
3030 4592
3030 4535
3032 3097
3032 4592
3274 3037
3040 3268
3040 4594
3041 4594
4596 3043
3043 4539
3048 4595
3048 4538
3051 4597
3051 4131
3052 4597
3057 3273
3057 4212
3058 3273
3063 3275
3065 3274
3066 4104
3068 5683
3080 4188
3080 4153
3083 5084
3084 3085
5680 3084
3085 5671
3085 4196
3085 3257
3085 4161
3085 4374
3089 3203
3089 6238
3089 4276
3089 4467
3101 3197
3107 3251
3122 3215
3128 4566
3143 3248
3146 4456
3164 3204
3173 4548
3543 3187
3197 3566
3577 3199
3199 3579
3199 6143
3203 6131
6106 3204
3204 3559
3204 3337
3204 6242
3205 5641
3205 5097
3205 6339
3206 3603
3206 6333
3207 3607
3208 3605
3208 4187
3208 4242
3209 3609
4287 3209
3209 6160
3210 4288
3210 6156
3211 4392
3211 3613
3212 4292
3212 4291
3212 3610
3212 4152
3213 3343
3614 3213
3213 3617
3213 3348
3213 3616
3213 3346
3213 4160
3214 3619
3215 3870
3216 3646
3216 3914
3216 3650
3217 3910
3217 3772
3218 5301
3218 3659
3218 3658
3218 3773
3218 3657
3219 4738
3219 3466
3219 3380
3220 3979
3220 3682
3220 3685
3220 3683
3220 5860
3572 3221
3222 3306
3710 3222
3222 4260
3225 6170
3225 3744
3225 3745
3226 4723
3228 3783
3228 3784
3228 4071
3228 5859
3229 3789
3229 4318
6260 3230
3230 3586
3230 3785
3230 6183
3406 3231
3231 4405
3231 4376
3231 6117
3232 3787
3232 6184
3621 3234
3234 3794
3235 3810
3807 3236
3236 6169
3236 3808
3236 4084
3236 4323
3818 3237
3237 3821
3238 3829
6166 3239
3239 6211
3239 6277
3240 3839
3240 3836
3240 3834
3240 5877
3240 6163
3870 3242
3242 3451
3242 5735
5654 3243
3243 3899
3243 5830
3243 3619
3243 5142
3244 4068
3245 5395
3910 3245
3916 3245
3245 3913
3245 6194
3246 3914
3246 3922
3248 6289
3248 4350
3248 4232
3248 3464
3248 3466
3248 3380
3249 3969
3979 3249
3249 3981
3249 3682
3544 3251
4036 3252
3254 4042
3254 4044
3454 3255
3255 5722
3255 4063
4071 3256
3256 4372
3256 4073
3256 4205
3256 4213
3257 6146
3257 4075
3258 6226
3258 3785
4376 3259
3259 3509
3261 6282
3262 5730
3262 4078
3262 6201
4083 3263
3263 4085
6134 3263
3264 4086
3264 4219
3265 4096
5632 3265
3265 3527
3265 3529
3266 4113
6208 3267
3267 4120
3268 4118
3269 3534
3535 3269
3269 4141
3270 3423
3270 3426
3272 6090
3272 4391
3272 4151
3272 4390
3272 5109
4148 3273
3273 4388
3274 4392
3274 4155
3274 4202
3274 3613
3275 6098
3281 3356
3281 3357
3281 6113
4435 3307
3308 4435
3309 4435
4435 3310
3328 4457
3337 4470
3343 4478
3345 4478
3346 4478
3348 4478
3356 4484
3356 4607
3357 4710
3357 4607
3360 4483
3378 4740
3378 3379
3379 4612
3380 4612
3380 5845
3392 4705
3394 4497
4525 3406
3414 4532
4545 3441
3441 6015
3441 4484
3443 4545
3446 4545
4556 3484
3484 4497
3485 4556
3486 4566
3487 4556
3488 4556
3490 4567
3493 4508
3502 4578
4578 3503
4601 3509
3509 4582
3510 4198
3513 4588
3534 4600
3559 4469
3565 4453
3567 4453
4456 3578
3581 4528
4467 3593
3595 4474
3596 4471
3636 4486
3666 4490
3670 4493
3671 4493
3675 4494
3676 4493
3677 4493
3688 4495
3689 4495
3690 4495
3691 4496
3712 4498
3713 4497
3715 4498
4498 3718
3720 4499
3723 4500
4499 3724
3726 4500
3729 4499
3734 4501
3735 4501
3737 4505
3739 4502
4504 3741
3744 4506
3745 4506
4508 3746
3750 4508
3760 4515
3761 4515
3762 4516
3765 4516
3776 4518
3777 4518
3780 4518
4523 3786
3787 4528
3789 4523
3792 4529
3796 4529
3797 4529
3800 4530
3801 4530
3804 4531
3824 4533
3827 4533
3828 4533
3831 4535
3835 4534
3836 4537
3837 4539
3839 4536
3840 4540
3841 4538
3842 4540
3844 4538
4540 3846
3863 4544
3863 4481
3866 4544
4546 3871
3871 4486
3872 4587
3885 4586
3906 4577
3907 4577
4576 3915
4547 3934
3936 4547
3947 4550
3953 4551
3959 4552
3961 4552
3964 4553
3967 4552
4553 3970
3970 4494
3975 4553
3979 5656
3984 4562
3986 4195
3986 4554
4009 4260
4556 4012
4557 4013
4013 5714
4015 4557
4557 4017
4019 4558
4021 4557
4022 4558
4023 4557
4024 4558
4025 4557
4028 4559
4030 4558
4562 4036
4036 4503
4036 5492
4560 4037
4043 4563
4566 4045
4046 4566
4046 4565
4047 4566
4048 4565
4567 4050
4053 4567
4057 4568
4573 4058
4058 4059
4058 4210
4573 4059
4059 4210
4061 4210
4067 4577
4067 4518
4074 4585
4075 4580
4078 5728
4079 5729
4079 4586
4089 5558
4103 4590
4104 4590
4594 4114
4116 4534
4118 4594
4120 4591
4121 4593
4121 4536
4122 4596
4593 4123
4124 4596
4127 4597
4127 4540
4595 4129
4597 4131
4131 4540
4132 4597
4159 5667
4166 4374
4599 4188
4598 4188
4196 5683
4197 4376
4197 6071
4198 4583
4199 4474
4200 4471
4206 4473
4211 4210
4212 5705
4212 4596
4212 4595
4214 5751
4217 4572
4221 4569
4221 4568
4225 4544
4232 4349
4235 4488
4241 4538
4250 4539
4259 4526
4468 4270
4279 4471
4282 4472
4282 5636
4474 4283
4296 4490
4318 4524
4538 4326
4539 4327
4339 4544
4355 4547
4365 4569
4568 4365
4367 4571
4370 4572
4374 5683
4374 5680
4583 4376
4376 4379
4376 4526
4377 4584
4378 4583
4379 4527
4405 4525
4435 4651
4663 4437
4437 4666
5014 4445
4453 5057
6131 4467
6131 4468
4469 5911
4470 6104
6106 4470
4470 6242
5915 4471
4471 5918
4471 5079
5913 4472
5085 4472
5097 4475
4476 5114
5931 4476
4477 5930
4482 5945
4708 4483
4545 4483
4493 5216
4494 5222
4495 5227
4497 5256
4506 6170
4507 5280
4508 4773
5175 4516
5181 4517
5186 4518
4518 5187
4797 4522
4522 5859
4527 6071
4527 6184
4527 5987
4528 6184
5331 4533
4533 5333
4534 5342
4534 6166
6166 4535
4535 6277
4535 5338
5424 4550
4886 4551
4554 6315
4557 5473
4560 5736
4908 4567
4570 5510
5505 4571
4572 6324
4580 6146
6074 4583
4583 6076
4583 6075
4583 6077
6071 4584
4584 5674
4584 5675
4927 4588
4588 5629
6134 4589
5573 4592
6208 4592
6215 4593
4594 6214
4597 5588
4607 4713
4612 4740
4612 6113
4875 6039
4957 5816
4962 4965
4972 5799
5263 5475
5445 5656
5445 5661
5505 5652
5757 5758
5799 5797
ratios
0.8
0.4
0.48
0.33
0.51
0.2
0.23
0.8
0.2
0.33
0.34
0.68
0.28
0.8
0.21
0.5
0.2
0.2
0.8200000000000001
0.5
0.5
0.5
0.41
0.5
0.55
0.5
0.64
0.5
0.5
0.5
0.5
0.22
0.62
0.71
0.49
0.49
0.5
0.49
0.49
0.51
0.34
0.2
0.8
0.2
0.46
0.48
0.42
0.2
0.63
0.55
0.48
0.52
0.47
0.72
0.24
0.49
0.5
0.5
0.51
0.53
0.5
0.5
0.5
0.5
0.48
0.52
0.59
0.48
0.5
0.62
0.5
0.34
0.42
0.33
0.51
0.62
0.5600000000000001
0.53
0.52
0.45
0.37
0.58
0.49
0.32
0.42
0.51
0.53
0.52
0.5
0.5700000000000001
0.45
0.41
0.52
0.48
0.53
0.48
0.4
0.41
0.48
0.37
0.41
0.5
0.5
0.49
0.46
0.46
0.5
0.5
0.48
0.5
0.5600000000000001
0.47
0.41
0.5600000000000001
0.24
0.44
0.58
0.42
0.5600000000000001
0.42
0.58
0.5600000000000001
0.34
0.51
0.48
0.53
0.39
0.46
0.29
0.47
0.43
0.35
0.51
0.5
0.51
0.51
0.49
0.2
0.2
0.2
0.5
0.53
0.8
0.8
0.5700000000000001
0.67
0.74
0.78
0.2
0.2
0.2
0.5
0.72
0.43
0.5
0.79
0.77
0.22
0.36
0.8
0.37
0.33
0.6
0.8
0.24
0.29
0.2
0.2
0.33
0.43
0.2
0.27
0.31
0.41
0.53
0.2
0.18
0.17
0.18
0.58
0.2
0.65
0.8
0.3
0.31
0.2
0.2
0.42
0.21
0.2
0.39
0.2
0.22
0.28
0.2
0.23
0.48
0.58
0.2
0.5700000000000001
0.2
0.2
0.8
0.78
0.2
0.76
0.8100000000000001
0.2
0.16
0.8200000000000001
0.23
0.2
0.8
0.22
0.2
0.21
0.15
0.85
0.18
0.18
0.78
0.22
0.18
0.2
0.2
0.19
0.22
0.2
0.2
0.2
0.2
0.8
0.2
0.8
0.74
0.2
0.2
0.79
0.23
0.19
0.8
0.8
0.8
0.28
0.29
0.18
0.8
0.8
0.2
0.21
0.67
0.18
0.18
0.2
0.2
0.13
0.8
0.15
0.2
0.16
0.17
0.2
0.18
0.17
0.22
0.15
0.2
0.72
0.2
0.2
0.19
0.14
0.15
0.15
0.2
0.14
0.19
0.29
0.21
0.21
0.33
0.23
0.19
0.22
0.77
0.77
0.23
0.19
0.84
0.19
0.16
0.17
0.21
0.2
0.8
0.49
0.2
0.2
0.3
0.2
0.29
0.2
0.23
0.19
0.67
0.2
0.21
0.19
0.68
0.2
0.15
0.19
0.14
0.14
0.78
0.2
0.2
0.19
0.8300000000000001
0.2
0.8300000000000001
0.8
0.21
0.21
0.21
0.17
0.15
0.2
0.17
0.12
0.15
0.22
0.22
0.8
0.79
0.8
0.2
0.77
0.23
0.22
0.19
0.8
0.79
0.2
0.19
0.22
0.21
0.21
0.2
0.18
0.19
0.77
0.8
0.23
0.2
0.68
0.21
0.8300000000000001
0.22
0.16
0.22
0.17
0.79
0.22
0.19
0.19
0.18
0.19
0.8100000000000001
0.22
0.11
0.15
0.84
0.2
0.17
0.79
0.22
0.19
0.78
0.8200000000000001
0.23
0.24
0.87
0.2
0.2
0.8
0.2
0.22
0.23
0.79
0.79
0.18
0.17
0.17
0.21
0.2
0.23
0.22
0.2
0.19
0.8
0.21
0.23
0.79
0.2
0.17
0.22
0.37
0.34
0.2
0.8
0.8100000000000001
0.17
0.8
0.19
0.21
0.8
0.47
0.17
0.2
0.21
0.16
0.18
0.17
0.2
0.7000000000000001
0.23
0.2
0.8100000000000001
0.22
0.18
0.13
0.8
0.78
0.22
0.8
0.22
0.16
0.22
0.18
0.19
0.2
0.2
0.22
0.22
0.8
0.19
0.21
0.19
0.22
0.21
0.2
0.77
0.21
0.8
0.2
0.23
0.16
0.19
0.79
0.21
0.17
0.22
0.2
0.21
0.8
0.16
0.23
0.21
0.8100000000000001
0.21
0.8
0.79
0.78
0.21
0.19
0.12
0.22
0.21
0.2
0.8
0.8
0.2
0.2
0.35
0.76
0.2
0.2
0.78
0.18
0.21
0.71
0.8200000000000001
0.15
0.21
0.31
0.8
0.2
0.21
0.78
0.22
0.8200000000000001
0.18
0.21
0.17
0.79
0.22
0.22
0.3
0.22
0.8
0.22
0.8
0.8
0.71
0.25
0.33
0.65
0.2
0.2
0.2
0.2
0.2
0.2
0.2
0.64
0.2
0.23
0.2
0.38
0.2
0.68
0.2
0.66
0.2
0.31
0.2
0.2
0.23
0.6900000000000001
0.2
0.2
0.2
0.2
0.73
0.47
0.2
0.2
0.2
0.24
0.42
0.35
0.2
0.2
0.28
0.49
0.2
0.2
0.2
0.2
0.21
0.2
0.2
0.2
0.2
0.2
0.39
0.2
0.47
0.21
0.44
0.53
0.65
0.8
0.2
0.2
0.2
0.2
0.38
0.45
0.49
0.28
0.2
0.2
0.37
0.59
0.8
0.68
0.4
0.8
0.8
0.8
0.8
0.2
0.8
0.8
0.16
0.17
0.21
0.2
0.21
0.2
0.23
0.22
0.18
0.22
0.8200000000000001
0.22
0.19
0.2
0.22
0.18
0.22
0.2
0.16
0.84
0.22
0.15
0.16
0.18
0.79
0.15
0.16
0.8100000000000001
0.21
0.16
0.21
0.19
0.23
0.19
0.18
0.8100000000000001
0.21
0.23
0.19
0.17
0.18
0.22
0.19
0.78
0.18
0.19
0.12
0.22
0.18
0.22
0.2
0.22
0.79
0.16
0.2
0.77
0.23
0.17
0.23
0.18
0.22
0.22
0.21
0.2
0.21
0.17
0.18
0.23
0.15
0.77
0.17
0.8100000000000001
0.19
0.23
0.16
0.5700000000000001
0.45
0.21
0.2
0.73
0.23
0.14
0.17
0.19
0.19
0.23
0.51
0.19
0.17
0.18
0.16
0.58
0.17
0.19
0.21
0.65
0.39
0.17
0.22
0.22
0.23
0.17
0.17
0.2
0.18
0.22
0.2
0.23
0.18
0.22
0.78
0.21
0.17
0.8
0.4
0.22
0.21
0.16
0.22
0.78
0.16
0.2
0.18
0.18
0.19
0.2
0.22
0.78
0.17
0.16
0.8300000000000001
0.21
0.22
0.19
0.54
0.2
0.22
0.19
0.22
0.18
0.22
0.15
0.16
0.23
0.15
0.22
0.19
0.22
0.2
0.2
0.19
0.19
0.79
0.22
0.16
0.79
0.18
0.18
0.22
0.79
0.2
0.22
0.18
0.85
0.8100000000000001
0.75
0.22
0.21
0.17
0.17
0.2
0.7000000000000001
0.22
0.8
0.22
0.8200000000000001
0.15
0.18
0.17
0.8200000000000001
0.16
0.15
0.23
0.13
0.77
0.22
0.17
0.21
0.19
0.2
0.16
0.16
0.17
0.2
0.2
0.22
0.8
0.17
0.22
0.2
0.84
0.21
0.18
0.16
0.21
0.2
0.23
0.19
0.22
0.78
0.21
0.22
0.22
0.19
0.8
0.2
0.18
0.21
0.78
0.23
0.16
0.19
0.21
0.22
0.68
0.21
0.17
0.18
0.17
0.21
0.21
0.8
0.23
0.19
0.2
0.19
0.21
0.61
0.18
0.19
0.2
0.16
0.21
0.2
0.78
0.22
0.2
0.8200000000000001
0.22
0.66
0.2
0.16
0.21
0.23
0.15
0.18
0.21
0.18
0.17
0.16
0.23
0.18
0.22
0.18
0.18
0.78
0.2
0.21
0.15
0.23
0.23
0.22
0.73
0.22
0.17
0.23
0.21
0.22
0.22
0.18
0.21
0.23
0.71
0.19
0.23
0.14
0.19
0.18
0.19
0.5600000000000001
0.18
0.19
0.79
0.18
0.74
0.22
0.14
0.8
0.22
0.21
0.2
0.21
0.19
0.23
0.8
0.16
0.18
0.2
0.21
0.23
0.19
0.2
0.18
0.8
0.22
0.23
0.22
0.15
0.21
0.15
0.18
0.22
0.19
0.22
0.78
0.19
0.18
0.2
0.2
0.13
0.85
0.2
0.2
0.8200000000000001
0.8
0.25
0.2
0.8100000000000001
0.23
0.21
0.2
0.18
0.19
0.22
0.19
0.21
0.79
0.2
0.23
0.22
0.22
0.21
0.8100000000000001
0.19
0.2
0.22
0.19
0.23
0.18
0.26
0.2
0.18
0.22
0.5700000000000001
0.8
0.18
0.21
0.18
0.21
0.22
0.2
0.16
0.12
0.19
0.14
0.2
0.44
0.23
0.22
0.22
0.18
0.22
0.2
0.77
0.19
0.22
0.8
0.79
0.22
0.22
0.22
0.2
0.78
0.22
0.22
0.22
0.18
0.65
0.2
0.8
0.8100000000000001
0.22
0.23
0.38
0.17
0.2
0.18
0.18
0.2
0.2
0.2
0.13
0.78
0.23
0.22
0.23
0.78
0.78
0.22
0.22
0.19
0.22
0.22
0.78
0.22
0.19
0.78
0.2
0.8100000000000001
0.8
0.79
0.8
0.2
0.17
0.8100000000000001
0.19
0.2
0.2
0.19
0.63
0.84
0.22
0.2
0.19
0.23
0.38
0.7000000000000001
0.16
0.76
0.8
0.19
0.8
0.8
0.2
0.42
0.8
0.8100000000000001
0.41
0.2
0.22
0.18
0.22
0.21
0.18
0.29
0.8200000000000001
0.8200000000000001
0.8300000000000001
0.21
0.13
0.23
0.12
0.25
0.26
0.8
0.8
0.78
0.77
0.23
0.2
0.35
0.8100000000000001
0.22
0.19
0.22
0.15
0.22
0.25
0.2
0.21
0.22
0.22
0.21
0.22
0.77
0.77
0.77
0.21
0.21
0.21
0.21
0.22
0.17
0.21
0.21
0.22
0.22
0.19
0.78
0.2
0.19
0.79
0.19
0.18
0.21
0.78
0.22
0.8
0.2
0.35
0.8
0.8
0.22
0.8
0.8100000000000001
0.22
0.17
0.19
0.2
0.8200000000000001
0.19
0.25
0.79
0.22
0.23
0.79
0.17
0.17
0.18
0.19
0.8300000000000001
0.22
0.21
0.8
0.18
0.32
0.79
0.78
0.3
0.2
0.8
0.19
0.8
0.79
0.22
0.23
0.18
0.2
0.19
0.22
0.23
0.72
0.36
0.73
0.2
0.78
0.8200000000000001
0.18
0.8200000000000001
0.19
0.22
0.22
0.18
0.8
0.22
0.21
0.79
0.22
0.22
0.2
0.78
0.21
0.19
0.23
0.2
0.22
0.22
0.77
0.19
0.19
0.79
0.16
0.21
0.19
0.78
0.19
0.8
0.17
0.22
0.2
0.18
0.22
0.21
0.17
0.8
0.78
0.22
0.21
0.21
0.2
0.79
0.8
0.19
0.17
0.19
0.16
0.2
0.18
0.23
0.15
0.18
0.23
0.8
0.2
0.2
0.2
0.2
0.2
0.14
0.84
0.2
0.8
0.18
0.2
0.8
0.8
0.2
0.8
0.8
0.2
0.8
0.8
0.2
0.2
0.8
0.2
0.2
0.8
0.2
0.8
0.2
0.8
0.8
0.6
0.2
0.8
0.8
0.15
0.2
0.8
0.39
0.8
0.39
0.2
0.2
0.8
0.8
0.8
0.8
0.8
0.23
0.36
0.8
0.12
0.54
0.36
0.2
0.51
0.33
0.2
0.25
0.2
0.28
0.2
0.16
0.8
0.2
0.8
0.8200000000000001
0.77
0.9
0.8
0.8100000000000001
0.2
0.8
0.16
0.2
0.8
0.79
0.8
0.8
0.8
0.67
0.2
0.2
0.87
0.2
0.44
0.8
0.2
0.8
0.2
0.37
0.29
0.5700000000000001
0.6
0.8
0.8
0.2
0.2
0.8
0.2
0.8
0.8
0.8
0.7000000000000001
0.8
0.8
0.5700000000000001
0.2
0.77
0.2
0.8
0.27
0.76
0.8
0.8
0.54
0.8
0.65
0.8
0.2
0.8
0.2
0.73
0.8
0.8
0.2
0.8
0.8
0.8
0.24
0.8
0.2
0.2
0.8
0.8
0.8
0.2
0.2
0.2
0.8
0.8
0.61
0.2
0.72
0.71
0.78
0.8
0.2
0.8
0.77
0.71
0.2
0.2
0.8
0.8
0.8
0.8
0.55
0.8
0.8
0.8
0.8
0.58
0.8
0.8
0.45
0.32
0.8
0.8
0.8
0.8
0.8
0.44
0.45
0.62
0.66
0.8
0.8
0.8
0.2
0.8
0.39
0.8
0.8
0.8
0.2
0.76
0.8
0.2
0.21
0.23
0.74
0.2
0.8
0.43
0.43
0.24
0.36
0.71
0.26
0.41
0.2
0.2
0.75
0.8
0.8
0.2
0.8
0.79
0.48
0.8
0.35
0.8
0.74
0.53
0.51
0.76
0.8
0.71
0.77
0.76
0.8
0.44
0.62
0.68
0.33
0.72
0.7000000000000001
0.2
0.8
0.54
0.78
0.8
0.21
0.6900000000000001
0.44
0.62
0.5700000000000001
0.64
0.36
0.77
0.8
0.76
0.8
0.76
0.58
0.6900000000000001
0.65
0.8
0.8
0.49
0.72
0.38
0.39
0.7000000000000001
0.7000000000000001
0.8
0.8
0.8
0.8
0.8
0.8
0.8
0.8
0.73
0.2
0.2
0.27
0.79
0.8
0.8
0.2
0.8
0.34
0.2
0.8
0.8
0.8
0.45
0.8
0.8
0.8
0.8
0.2
0.8
0.2
0.2
0.35
0.23
0.2
0.49
0.63
0.8300000000000001
0.8
0.2
0.2
0.79
0.8300000000000001
0.8
0.8
0.8300000000000001
0.8
0.8
0.2
0.8
0.8
0.8
0.8
0.8
0.8
0.8
0.8
0.8
0.2
0.8
0.8
0.8
0.8
0.77
0.8300000000000001
0.8200000000000001
0.8
0.8
0.8
0.8
0.8
0.8
0.8
0.8
0.8
0.8
0.8
0.8
0.8
0.23
0.8
0.8
0.8
0.65
0.2
0.79
0.64
0.74
0.78
0.2
0.8
0.8
0.29
0.2
0.74
0.78
0.8
0.8
0.71
0.75
0.8
0.71
0.61
0.2
0.8
0.8
0.8
0.8
0.8
0.8
0.8
0.64
0.8
0.79
0.58
0.8
0.74
0.2
0.6900000000000001
0.51
0.76
0.8
0.8
0.8
0.8100000000000001
0.8
0.75
0.8
0.8
0.8
0.8
0.8
0.8
0.84
0.8
0.72
0.71
0.8
0.8
0.8
0.2
0.2
0.2
0.8
0.2
0.26
0.2
0.2
0.2
0.38
0.37
0.2
0.2
0.32
0.2
0.68
0.76
0.2
0.28
0.2
0.53
0.85
0.87
0.77
0.8300000000000001
0.8
0.8300000000000001
0.84
0.84
0.2
0.2
0.2
0.19
0.86
0.8100000000000001
0.16
0.67
0.21
0.15
0.18
0.23
0.77
0.18
0.21
0.15
0.21
0.2
0.22
0.23
0.17
0.18
0.17
0.18
0.77
0.21
0.19
0.18
0.21
0.16
0.2
0.18
0.77
0.78
0.22
0.8
0.87
0.22
0.16
0.17
0.18
0.2
0.8200000000000001
0.86
0.2
0.22
0.2
0.2
0.19
0.17
0.23
0.15
0.19
0.2
0.22
0.22
0.18
0.16
0.2
0.18
0.2
0.18
0.22
0.65
0.22
0.2
0.19
0.2
0.19
0.18
0.8300000000000001
0.8300000000000001
0.2
0.2
0.2
0.2
0.19
0.17
0.18
0.17
0.17
0.2
0.2
0.18
0.19
0.18
0.19
0.21
0.23
0.2
0.22
0.77
0.23
0.19
0.15
0.19
0.18
0.19
0.78
0.15
0.21
0.19
0.22
0.24
0.77
0.19
0.22
0.2
0.23
0.65
0.2
0.17
0.21
0.21
0.18
0.8
0.2
0.86
0.2
0.19
0.16
0.17
0.21
0.22
0.22
0.17
0.18
0.22
0.76
0.28
0.79
0.2
0.22
0.16
0.16
0.73
0.19
0.8200000000000001
0.21
0.8300000000000001
0.2
0.2
0.21
0.21
0.2
0.18
0.21
0.22
0.23
0.21
0.88
0.21
0.18
0.2
0.18
0.23
0.18
0.19
0.18
0.21
0.8
0.84
0.19
0.23
0.8100000000000001
0.21
0.22
0.23
0.17
0.2
0.19
0.18
0.21
0.8300000000000001
0.28
0.22
0.79
0.18
0.17
0.77
0.17
0.2
0.8
0.2
0.8
0.22
0.19
0.21
0.2
0.18
0.8
0.21
0.19
0.18
0.2
0.22
0.22
0.22
0.23
0.21
0.79
0.2
0.22
0.21
0.18
0.8
0.17
0.18
0.17
0.8
0.18
0.2
0.18
0.2
0.8
0.22
0.21
0.78
0.79
0.8
0.8200000000000001
0.2
0.2
0.8
0.8
0.8
0.8
0.79
0.2
0.8
0.8
0.8
0.8
0.8
0.91
0.8
0.87
0.8
0.8300000000000001
0.8
0.8200000000000001
0.77
0.26
0.8
0.17
0.78
0.8
0.8
0.88
0.8
0.8
0.18
0.84
0.19
0.8
0.8
0.75
0.8200000000000001
0.7000000000000001
0.84
0.8
0.8
0.8
0.8
0.17
0.8
0.15
0.2
0.8
0.78
0.13
0.85
0.71
0.8
0.8200000000000001
0.88
0.85
0.8200000000000001
0.86
0.17
0.84
0.22
0.16
0.84
0.85
0.78
0.8
0.8
0.8
0.8
0.8300000000000001
0.8
0.84
0.12
0.76
0.78
0.68
0.8
0.16
0.84
0.19
0.8100000000000001
0.19
0.87
0.86
0.23
0.77
0.79
0.79
0.79
0.79
0.78
0.78
0.21
0.8100000000000001
0.8
0.2
0.84
0.79
0.84
0.62
0.79
0.8
0.14
0.85
0.85
0.75
0.2
0.79
0.84
0.78
0.8
0.8300000000000001
0.2
0.8
0.8100000000000001
0.32
0.8100000000000001
0.8
0.8200000000000001
0.8100000000000001
0.8200000000000001
0.8200000000000001
0.71
0.8
0.8
0.8
0.8300000000000001
0.8100000000000001
0.22
0.84
0.2
0.87
0.87
0.86
0.18
0.8100000000000001
0.8200000000000001
0.8100000000000001
0.86
0.65
0.8
0.84
0.72
0.8100000000000001
0.79
0.8200000000000001
0.8
0.2
0.8
0.8
0.8
0.8
0.2
0.28
0.2
0.8
0.2
0.64
0.78
0.8
0.76
0.78
0.8100000000000001
0.8200000000000001
0.78
0.78
0.8
0.84
0.79
0.78
0.8
0.19
0.78
0.18
0.23
0.23
0.8200000000000001
0.18
0.21
0.23
0.22
0.21
0.77
0.23
0.8
0.17
0.22
0.19
0.18
0.12
0.79
0.22
0.16
0.2
0.2
0.23
0.18
0.18
0.21
0.2
0.21
0.85
0.17
0.17
0.17
0.17
0.19
0.21
0.21
0.21
0.17
0.14
0.21
0.18
0.22
0.2
0.2
0.16
0.2
0.22
0.17
0.17
0.21
0.2
0.15
0.2
0.21
0.8200000000000001
0.18
0.8300000000000001
0.23
0.23
0.21
0.19
0.22
0.16
0.21
0.23
0.19
0.21
0.2
0.78
0.18
0.2
0.2
0.8300000000000001
0.17
0.2
0.19
0.17
0.23
0.8100000000000001
0.22
0.19
0.78
0.22
0.19
0.22
0.18
0.8
0.21
0.21
0.78
0.22
0.23
0.22
0.18
0.16
0.15
0.22
0.77
0.21
0.21
0.78
0.2
0.22
0.21
0.22
0.15
0.23
0.8
0.8100000000000001
0.18
0.22
0.16
0.22
0.21
0.22
0.16
0.22
0.15
0.8
0.22
0.8
0.2
0.18
0.8200000000000001
0.77
0.21
0.22
0.78
0.13
0.21
0.77
0.21
0.17
0.18
0.17
0.18
0.2
0.21
0.19
0.8
0.19
0.2
0.2
0.22
0.21
0.8
0.22
0.77
0.23
0.2
0.22
0.77
0.18
0.21
0.22
0.78
0.22
0.15
0.22
0.8
0.21
0.23
0.2
0.2
0.18
0.2
0.2
0.23
0.8
0.18
0.2
0.15
0.18
0.21
0.22
0.2
0.2
0.2
0.2
0.79
0.8200000000000001
0.21
0.8
0.79
0.79
0.8300000000000001
0.8300000000000001
0.8300000000000001
0.79
0.8
0.8
0.8
0.8
0.45
0.2
0.8
0.8
0.2
0.8
0.8300000000000001
0.17
0.8200000000000001
0.2
0.8
0.78
0.85
0.8
0.19
0.8100000000000001
0.79
0.8200000000000001
0.84
0.8300000000000001
0.8300000000000001
0.8200000000000001
0.78
0.21
0.21
0.8100000000000001
0.48
0.68
0.8100000000000001
0.8200000000000001
0.79
0.84
0.19
0.85
0.12
0.8
0.78
0.8200000000000001
0.8100000000000001
0.85
0.84
0.8300000000000001
0.85
0.8100000000000001
0.78
0.8200000000000001
0.84
0.79
0.77
0.84
0.86
0.21
0.8100000000000001
0.8
0.16
0.78
0.84
0.79
0.8200000000000001
0.8200000000000001
0.8
0.23
0.79
0.8100000000000001
0.15
0.8200000000000001
0.84
0.8200000000000001
0.79
0.8300000000000001
0.8
0.78
0.8
0.15
0.8300000000000001
0.79
0.8200000000000001
0.8100000000000001
0.79
0.78
0.79
0.8300000000000001
0.84
0.8200000000000001
0.84
0.89
0.86
0.8200000000000001
0.8
0.78
0.78
0.85
0.85
0.8200000000000001
0.19
0.8100000000000001
0.8
0.78
0.23
0.79
0.8
0.78
0.78
0.78
0.21
0.21
0.77
0.78
0.86
0.78
0.8200000000000001
0.78
0.8
0.2
0.79
0.87
0.2
0.88
0.2
0.8
0.2
0.22
0.14
0.2
0.77
0.19
0.8100000000000001
0.8
0.8300000000000001
0.8100000000000001
0.78
0.85
0.78
0.78
0.23
0.79
0.78
0.2
0.79
0.17
0.7000000000000001
0.79
0.79
0.78
0.15
0.8100000000000001
0.8100000000000001
0.17
0.77
0.2
0.34
0.2
0.2
0.8100000000000001
0.8
0.8
0.8100000000000001
0.2
0.2
0.74
0.5700000000000001
0.79
0.8100000000000001
0.23
0.8
0.85
0.78
0.79
0.77
0.84
0.16
0.79
0.8100000000000001
0.79
0.19
0.2
0.78
0.8300000000000001
0.2
0.8
0.2
0.2
0.8
0.8
0.8
0.8
0.8
0.8200000000000001
0.78
0.8
0.2
0.79
0.79
0.8
0.78
0.8200000000000001
0.8200000000000001
0.77
0.8
0.8300000000000001
0.85
0.8100000000000001
0.85
0.15
0.77
0.72
0.2
0.15
0.77
0.8
0.23
0.23
0.79
0.79
0.8100000000000001
0.19
0.85
0.8100000000000001
0.2
0.22
0.2
0.2
0.8
0.85
0.78
0.8
0.8300000000000001
0.2
0.78
0.2
0.8
0.23
0.77
0.77
0.21
0.21
0.8200000000000001
0.23
0.77
0.21
0.18
0.73
0.8100000000000001
0.79
0.23
0.78
0.23
0.23
0.8
0.79
0.23
0.22
0.21
0.22
0.23
0.22
0.2
0.8
0.77
0.78
0.23
0.8
0.19
0.2
0.23
0.17
0.23
0.8
0.2
0.19
0.22
0.78
0.23
0.23
0.78
0.78
0.16
0.22
0.16
0.78
0.19
0.78
0.8
0.18
0.78
0.2
0.21
0.21
0.8
0.3
0.2
0.77
0.2
0.78
0.77
0.78
0.64
0.22
0.22
0.2
0.24
0.2
0.8
0.2
0.76
0.49
0.8
0.2
0.2
0.2
0.8
0.2

forceimprovementnum 1
maxthreads 4
