// Number 3D OBJECTS:
// ^^^^^^^^^^^^^^^^^^
5

// Obj3D_ID, MediaCode (0=Iso3D,1=LossyIso3D,2=PEC,3=Aniso3D,4=LossyAniso3D,5=SurfaceImp)
// ^^^^^^^^^^^^^^^^^^^^^^^^^^^^^^^^^^^^^^^^^^^^^^^^^^^^^^^^^^^^^^^^^^^^^^^^^^^^^^^^^^^^^^
0 0
>> Material name:
Vacuum

1 1
>> Material name:
Rogers RO4350B (lossy)

2 0
>> Material name:
air_0

3 5
>> Material name:
pcb(PCB1)/Copper

4 5
>> Material name:
pcb(PCB1)/Copper

// Number 2D OBJECTS:
// ^^^^^^^^^^^^^^^^^^
149

// Obj2D_ID, BCCode (0=Reg,1=PEC,2=PMC,3=RHO,4=OHM,5=PORT,6=OPEN,7=EXPANDEDOPEN,8=PERIODIC,9=TANGENTIAL,10=NORMAL):
// ^^^^^^^^^^^^^^^^^^^^^^^^^^^^^^^^^^^^^^^^^^^^^^^^^^^^^^^^^^^^^^^^^^^^^^^^^^^^^^^^^^^^^^^^^^^^^^^^^^^^^^^^^^^^^^^^
0 0

1 5
1

2 5
2

3 5
3

4 0

5 0

6 0

7 0

8 0

9 0

10 0

11 0

12 0

13 0

14 0

15 3
pcb(PCB1)/Copper

16 0

17 3
pcb(PCB1)/Copper

18 0

19 3
pcb(PCB1)/Copper

20 3
pcb(PCB1)/Copper

21 3
pcb(PCB1)/Copper

22 3
pcb(PCB1)/Copper

23 3
pcb(PCB1)/Copper

24 3
pcb(PCB1)/Copper

25 3
pcb(PCB1)/Copper

26 3
pcb(PCB1)/Copper

27 3
pcb(PCB1)/Copper

28 3
pcb(PCB1)/Copper

29 3
pcb(PCB1)/Copper

30 3
pcb(PCB1)/Copper

31 3
pcb(PCB1)/Copper

32 3
pcb(PCB1)/Copper

33 3
pcb(PCB1)/Copper

34 3
pcb(PCB1)/Copper

35 3
pcb(PCB1)/Copper

36 3
pcb(PCB1)/Copper

37 3
pcb(PCB1)/Copper

38 3
pcb(PCB1)/Copper

39 3
pcb(PCB1)/Copper

40 3
pcb(PCB1)/Copper

41 3
pcb(PCB1)/Copper

42 3
pcb(PCB1)/Copper

43 3
pcb(PCB1)/Copper

44 3
pcb(PCB1)/Copper

45 3
pcb(PCB1)/Copper

46 3
pcb(PCB1)/Copper

47 3
pcb(PCB1)/Copper

48 3
pcb(PCB1)/Copper

49 3
pcb(PCB1)/Copper

50 3
pcb(PCB1)/Copper

51 3
pcb(PCB1)/Copper

52 3
pcb(PCB1)/Copper

53 3
pcb(PCB1)/Copper

54 3
pcb(PCB1)/Copper

55 3
pcb(PCB1)/Copper

56 3
pcb(PCB1)/Copper

57 3
pcb(PCB1)/Copper

58 3
pcb(PCB1)/Copper

59 3
pcb(PCB1)/Copper

60 3
pcb(PCB1)/Copper

61 3
pcb(PCB1)/Copper

62 3
pcb(PCB1)/Copper

63 3
pcb(PCB1)/Copper

64 3
pcb(PCB1)/Copper

65 3
pcb(PCB1)/Copper

66 3
pcb(PCB1)/Copper

67 3
pcb(PCB1)/Copper

68 3
pcb(PCB1)/Copper

69 3
pcb(PCB1)/Copper

70 3
pcb(PCB1)/Copper

71 3
pcb(PCB1)/Copper

72 3
pcb(PCB1)/Copper

73 3
pcb(PCB1)/Copper

74 3
pcb(PCB1)/Copper

75 3
pcb(PCB1)/Copper

76 3
pcb(PCB1)/Copper

77 3
pcb(PCB1)/Copper

78 3
pcb(PCB1)/Copper

79 3
pcb(PCB1)/Copper

80 3
pcb(PCB1)/Copper

81 3
pcb(PCB1)/Copper

82 3
pcb(PCB1)/Copper

83 3
pcb(PCB1)/Copper

84 3
pcb(PCB1)/Copper

85 3
pcb(PCB1)/Copper

86 3
pcb(PCB1)/Copper

87 3
pcb(PCB1)/Copper

88 3
pcb(PCB1)/Copper

89 3
pcb(PCB1)/Copper

90 3
pcb(PCB1)/Copper

91 3
pcb(PCB1)/Copper

92 3
pcb(PCB1)/Copper

93 3
pcb(PCB1)/Copper

94 3
pcb(PCB1)/Copper

95 3
pcb(PCB1)/Copper

96 3
pcb(PCB1)/Copper

97 3
pcb(PCB1)/Copper

98 3
pcb(PCB1)/Copper

99 3
pcb(PCB1)/Copper

100 3
pcb(PCB1)/Copper

101 3
pcb(PCB1)/Copper

102 3
pcb(PCB1)/Copper

103 3
pcb(PCB1)/Copper

104 3
pcb(PCB1)/Copper

105 3
pcb(PCB1)/Copper

106 3
pcb(PCB1)/Copper

107 3
pcb(PCB1)/Copper

108 3
pcb(PCB1)/Copper

109 3
pcb(PCB1)/Copper

110 3
pcb(PCB1)/Copper

111 3
pcb(PCB1)/Copper

112 3
pcb(PCB1)/Copper

113 3
pcb(PCB1)/Copper

114 3
pcb(PCB1)/Copper

115 3
pcb(PCB1)/Copper

116 3
pcb(PCB1)/Copper

117 3
pcb(PCB1)/Copper

118 3
pcb(PCB1)/Copper

119 3
pcb(PCB1)/Copper

120 3
pcb(PCB1)/Copper

121 3
pcb(PCB1)/Copper

122 3
pcb(PCB1)/Copper

123 3
pcb(PCB1)/Copper

124 3
pcb(PCB1)/Copper

125 0

126 0

127 0

128 0

129 0

130 0

131 3
pcb(PCB1)/Copper

132 3
pcb(PCB1)/Copper

133 0

134 1

135 1

136 1

137 7

138 1

139 7

140 7

141 1

142 1

143 0

144 0

145 0

146 0

147 3
pcb(PCB1)/Copper

148 0

// Number 1D OBJECTS:
// ^^^^^^^^^^^^^^^^^^
3

// Obj1D_ID, BCCode (0=Reg,1=PEC,2=PMC,3=PORT,4=Lumped):
// ^^^^^^^^^^^^^^^^^^^^^^^^^^^^^^^^^^^^^^^^^^^^^^^^^^^^^
0 0
1 4
R:R1
2 4
R:R2

