refinementinfo

progressstart 0
progressstop 100
progresstext "Mesh refinement"

reftype edgesplit

refine edges
2409 2869
30 206
18 208
37 209
216 217
37 7658
44 7660
31 7661
293 294
43 301
304 305
314 315
322 323
327 3759
51 3771
334 3771
336 3774
337 3774
337 3775
338 3775
339 340
54 3776
342 343
344 5263
343 5263
344 5264
347 348
348 349
351 352
354 3781
2431 3783
2433 2894
2433 2895
2434 3786
2899 3791
359 360
360 361
361 362
362 363
375 2900
376 3795
377 3795
64 3796
2901 3797
2901 3798
66 5308
2902 5308
2902 3799
378 3799
2908 3805
68 3807
389 2915
70 2441
390 2916
2442 2916
2442 2917
71 2917
70 3818
2443 3818
2443 3819
393 7695
394 3822
2919 3822
2919 5340
393 5340
395 3823
2920 3823
2920 3824
394 3824
395 2921
81 396
396 397
397 398
398 399
403 404
404 405
407 408
408 409
90 410
411 412
93 5345
420 421
421 422
100 424
101 102
102 103
103 104
425 2922
428 3828
2445 3831
433 2927
112 3833
14 3846
2933 3847
2450 3847
2934 5375
114 5377
2451 7723
2451 7724
462 3849
2938 3849
2938 3850
2452 3850
2452 3851
2939 3851
2939 3852
464 465
465 466
466 467
470 5388
471 472
472 473
475 476
476 477
127 477
128 7731
130 479
480 481
481 482
484 485
132 486
486 7736
137 489
489 490
491 492
2944 7738
494 7739
2947 5396
499 5399
498 5399
142 7741
499 7741
500 3861
2454 3861
2454 3862
2455 3863
148 7744
2949 7746
147 7747
2951 3867
2456 3867
2456 3868
2952 3868
2953 3873
505 3873
507 5412
2954 5412
2957 3875
150 3876
149 3877
2459 3877
2459 3878
510 3878
512 7757
514 3879
513 3879
515 3880
514 3880
156 3884
520 7761
521 5423
520 5423
521 5424
524 7762
525 7763
528 7764
158 7765
529 7765
531 3889
2961 5438
530 5438
159 5442
2463 5442
534 7770
533 7770
534 7771
535 7772
537 7773
536 7773
537 7774
541 5447
542 5448
546 3894
545 3894
549 3896
548 3896
549 7777
2963 3897
2963 3898
167 5455
2964 5455
2964 3899
552 3899
553 3900
2965 3900
2965 3901
555 5458
2968 3902
2968 5460
556 3903
2464 3905
557 5466
2972 5469
556 5469
169 7781
2468 2974
2468 2975
171 2975
170 3911
2469 3911
2469 3912
2976 7788
2976 7789
563 7789
565 3915
2977 3915
2977 5479
564 5479
566 3916
2978 3916
2978 3917
565 3917
87 7792
94 7794
43 7659
103 7791
5480 7792
3921 3
5489 4
14 3813
14 3930
16 1059
16 1035
16 1031
16 1060
17 1031
17 1060
17 1054
19 3743
20 5496
20 7805
21 3937
5499 23
5500 23
5501 23
28 1061
29 1062
7811 30
30 1603
8085 30
30 1664
30 1391
31 7814
31 7815
31 1465
31 7816
34 1412
34 1454
8088 37
37 7818
37 1429
37 2865
37 7820
37 7821
38 830
834 39
45 5512
45 5513
46 5516
46 5514
46 5518
46 5517
46 5519
47 7827
47 3877
3034 48
48 3954
48 2838
48 1246
51 5521
51 5205
51 5522
3956 52
52 1702
53 1717
54 1360
5527 56
56 5591
56 5528
56 1426
7903 57
57 5530
5536 59
59 5967
59 5537
59 1725
60 3042
450 61
61 1425
448 62
62 1213
5538 63
63 1704
63 5860
64 5539
64 3722
67 3962
67 3734
67 5541
67 5542
67 3739
67 5540
5544 68
68 5545
68 5546
5548 69
69 6823
69 5550
7859 70
70 9662
70 3970
71 5553
5554 74
74 3043
75 3972
75 5558
75 3975
77 1217
78 7726
78 7874
78 7872
78 5566
78 7869
78 7871
78 6826
81 5946
81 1381
81 1361
82 1185
86 1379
5571 87
87 7888
87 7890
87 5572
87 7891
87 3982
87 5577
87 10297
89 1712
89 7896
89 3985
89 5966
90 7898
90 7843
90 5218
90 5587
90 5589
91 4418
92 5593
93 5594
93 5658
94 5596
9646 94
94 7910
94 7911
94 7913
94 7914
94 5599
94 5600
94 8461
95 5601
99 1211
8319 100
100 456
100 489
100 8320
103 2844
103 7930
103 7929
103 7923
103 7924
103 7919
103 7925
103 7926
103 1344
103 5662
103 2531
103 7928
104 7920
2944 104
104 3732
104 3740
104 7933
3998 106
106 2858
3999 107
107 5604
107 2841
110 2842
110 1383
111 5606
111 3729
111 4003
112 4004
112 5609
112 7947
112 7946
112 7233
112 7534
112 5610
112 4005
113 5611
113 5613
113 5614
114 5298
114 5617
116 4012
4013 116
116 5618
116 6623
117 3088
118 5625
120 3090
6077 120
120 6083
120 6080
609 121
121 610
5631 125
125 5633
126 5635
126 5221
126 5223
127 403
127 6104
127 5637
127 4026
127 5639
127 5640
128 5643
128 5644
5645 129
129 5648
417 130
8439 130
130 5650
130 4397
131 5655
5346 132
4420 132
132 4040
132 1095
135 606
608 136
137 9502
8471 137
6144 137
5661 137
8472 137
137 8474
139 3108
140 3110
140 3113
143 5664
2535 143
3116 143
143 2841
5665 146
146 4045
147 5666
5667 147
4047 147
147 5668
7563 148
148 4052
4055 149
7457 149
149 5675
149 4057
149 3601
3768 150
4058 150
150 4060
150 4061
150 2838
5681 154
154 5682
154 5683
6249 155
155 4071
158 3127
158 5689
158 8035
158 4398
159 5690
159 5646
159 5692
159 3129
8044 161
161 5694
161 8046
162 5693
163 6295
163 4081
163 4080
5698 164
164 4082
5701 167
167 5702
5703 167
167 3728
167 7853
5705 168
9660 168
168 5709
169 4086
169 5710
169 5711
169 5200
169 5216
8067 170
170 5712
170 8068
8069 170
170 4093
9603 171
5715 171
171 4096
171 8075
171 1110
171 1699
171 5199
174 4097
174 3152
201 2993
1489 203
1492 204
205 1375
205 7816
205 8084
8085 206
206 1664
206 1375
209 8088
209 8091
209 1472
209 1428
209 8093
209 7820
209 1454
293 830
1610 293
293 625
293 1424
1610 294
294 831
294 1371
294 1419
294 1424
1611 295
295 831
295 1419
295 1365
1611 296
296 832
296 1372
296 1365
297 833
832 297
297 623
297 1392
297 1372
298 833
298 1392
833 299
300 833
300 834
300 622
5732 326
326 3160
326 5733
327 3762
9672 327
327 4101
327 5735
327 4104
327 4103
327 9241
330 6205
331 4117
331 5744
331 5746
331 8542
331 5745
331 6207
332 5748
333 4121
4126 334
8126 334
334 5751
334 6228
334 5750
334 9925
334 4519
5752 335
335 6226
335 5754
336 4512
336 5759
336 5760
336 7486
336 5761
7253 337
337 8133
337 9933
337 3879
337 4508
337 6638
338 5763
338 4503
338 5764
4144 339
339 5767
339 6218
339 5768
339 5769
339 5766
340 4144
340 5682
340 5768
340 5770
341 1326
5771 342
342 5772
342 5773
343 5774
343 5777
343 5778
343 6238
343 5780
343 8159
344 5782
345 5784
345 5787
346 5789
346 5790
346 1717
346 5791
5793 347
8287 347
347 5795
347 2832
347 5796
5802 349
349 5803
5797 349
349 8171
349 4540
349 6254
5808 350
350 5810
351 8176
351 4548
351 6259
351 5814
351 5812
8176 352
352 8179
352 8180
352 7765
352 8297
352 8182
352 5815
352 5816
352 4548
352 6261
353 5817
353 5438
353 4169
353 4168
353 4171
353 4172
354 3206
7265 354
354 4173
354 5819
355 4174
355 2688
356 5824
356 5826
356 4175
356 4176
357 4177
5086 357
7258 358
358 5832
358 4179
358 4182
5834 359
359 5835
5839 359
359 6276
359 5837
360 8185
360 6276
361 8188
361 5840
363 5850
363 5851
363 8194
363 7773
363 5849
364 5855
364 5856
364 5857
365 446
365 448
365 1213
365 1720
365 4183
365 4184
365 671
366 4189
366 446
366 4183
366 4185
366 4186
4187 367
367 4188
367 4190
367 4191
367 4192
368 4193
368 4194
368 4197
368 4198
368 4199
368 4196
450 369
369 4201
369 4203
371 5860
371 1704
371 5863
371 6333
371 5698
371 6337
372 6333
372 6332
372 5863
372 5864
373 5868
373 3896
373 6331
373 5870
5871 374
374 5872
374 6329
5875 375
375 5876
375 5877
375 4591
375 4593
5878 376
376 3894
376 5879
376 5880
376 6320
5881 377
377 5883
377 5882
377 6317
377 4583
4223 378
5885 378
378 5886
378 4610
379 3900
382 5897
382 5469
382 5900
382 5899
382 5898
383 5901
385 4242
4243 385
385 5906
386 5908
386 5909
386 3263
386 3337
386 4247
386 4335
386 4248
386 5910
387 5913
387 4251
387 4639
387 4250
4252 388
388 4253
388 4254
389 4255
389 3491
389 5112
390 8224
5923 390
391 4262
391 3379
391 6366
391 6367
392 5933
5935 393
393 5937
393 6371
393 5938
394 4655
394 7298
394 4273
395 7299
395 5940
395 8244
466 396
396 8402
396 5946
396 8408
5949 397
397 8259
397 8403
397 8402
466 398
398 5950
398 6069
398 5958
465 399
399 5961
399 8260
399 5958
399 5962
400 8265
400 5962
400 5961
400 5963
403 6105
403 6104
403 5966
403 8271
477 404
404 5970
404 8273
404 6105
404 5968
405 5838
5839 405
476 405
406 5841
407 5846
407 5980
407 5978
407 5979
407 5977
408 5850
408 5853
473 408
408 6097
408 6095
408 5983
408 6094
408 5978
472 409
409 5984
409 5985
5986 410
410 5988
410 5987
410 5990
410 5222
411 5794
485 412
413 5807
414 5809
414 5808
414 5996
414 5993
414 5995
414 5994
415 5811
482 415
415 5813
415 5996
415 5997
415 4405
415 5995
481 416
416 5813
416 6000
416 5997
7839 417
417 5592
417 6001
417 8301
420 1211
420 8305
420 8306
8307 421
421 491
421 6155
421 8305
421 8306
422 8310
422 8316
422 8313
422 8312
422 6155
422 6149
423 8314
423 4164
423 489
423 8316
423 6149
4164 424
424 8319
424 8321
424 8320
424 1340
4279 425
425 8322
425 6002
425 6003
425 6167
425 5127
425 8492
426 6007
6008 427
427 6011
427 6009
427 6010
427 6172
4293 428
4294 428
428 6012
8330 428
428 6013
428 6014
429 6015
429 6017
429 6179
430 7741
430 8345
430 6023
430 6022
431 4308
431 4311
432 6026
9456 432
432 6027
433 6029
433 6031
433 3390
434 4319
434 6033
435 6037
435 4478
436 6039
436 4482
436 8366
436 6040
8368 437
437 6043
437 6044
437 4484
5283 443
443 2432
443 1162
446 5299
458 6053
459 6054
6055 460
4336 460
460 6057
6059 461
461 6060
461 6885
462 6063
463 610
464 6064
464 6067
464 6068
465 6069
465 8393
465 6070
465 6072
465 6068
466 6069
466 6073
6074 466
466 6070
466 6075
466 6076
6077 467
467 6082
467 6083
469 1100
470 6086
470 6088
470 6090
470 6091
470 3982
8630 471
471 4363
472 6094
6097 472
472 6095
472 4363
4364 472
472 6096
4370 473
4373 474
474 4374
475 4376
4377 475
475 6102
475 4379
475 8274
6105 476
476 6103
476 4379
476 4383
6104 477
6105 477
4079 477
477 6107
477 6108
477 6109
477 4383
6110 478
478 6111
478 6114
478 6113
478 5990
478 5989
479 4400
479 6116
6121 480
6118 480
8603 480
480 6120
4405 481
481 6121
482 4405
482 6125
6128 483
483 6129
483 6132
484 6134
6133 484
484 4415
484 8291
6136 485
485 6133
6137 485
485 4415
485 4417
485 8459
486 4420
6138 486
8463 486
8462 486
486 6140
486 1095
486 6142
606 488
8470 489
489 6145
489 6148
6149 490
490 6152
490 6154
8484 491
491 6155
6149 491
491 8485
8480 491
4429 491
491 6158
491 6152
6160 492
492 6163
492 6161
492 6158
493 6163
493 1722
494 4435
494 6165
494 6166
494 6002
495 9721
6172 496
6173 496
496 5160
496 10312
496 6010
8503 497
497 6176
497 4448
497 6177
497 6013
6179 498
498 4453
4454 498
498 6181
5355 499
6182 499
8510 499
2645 499
6184 499
499 6185
500 6188
500 6190
501 8520
502 3390
503 4477
503 4476
503 5014
503 6028
4478 504
504 8820
504 4479
505 4482
6196 505
6197 505
506 4484
506 6199
506 4487
506 6201
506 6202
506 6044
507 6203
6205 507
507 3401
507 9736
6206 508
6207 508
3770 510
6212 510
510 4497
6215 511
511 5682
512 6217
512 6214
6218 512
6215 512
512 6219
512 8143
513 3775
513 6220
513 8556
513 4499
4503 513
513 6221
513 6222
513 8138
514 3774
4508 514
514 6223
514 6602
514 8564
515 3774
4510 515
4512 515
7347 515
515 4515
515 5760
6226 516
6228 517
517 4519
519 6229
519 6230
520 6234
520 6235
520 4530
520 8968
521 6239
521 6240
10304 521
6241 521
6244 522
522 6245
522 5787
523 6249
523 8585
524 6133
525 6130
4540 525
10352 525
525 4542
526 6126
526 6129
6254 526
526 6255
527 6123
527 6257
527 4546
527 4547
528 6120
6122 528
4548 528
6259 528
528 4550
6115 529
529 6119
6261 529
529 4072
529 4398
529 4552
529 4403
530 6263
531 3781
531 6267
6268 531
6269 531
531 6270
531 6479
532 4560
532 6273
532 6274
6275 533
533 6276
533 6277
4563 534
6279 534
534 4565
6281 535
6282 535
535 6283
4566 536
6286 536
537 4569
538 4363
6294 539
6295 539
539 4080
539 4571
6297 540
540 6300
540 6301
540 6299
6304 541
541 6305
541 6306
10296 541
542 6310
542 6311
542 6312
6316 543
543 6315
545 3795
4583 545
545 6317
6318 545
7586 545
545 9948
6320 546
546 6322
546 6323
546 6324
5024 547
6329 548
6916 548
548 6330
548 4598
548 4599
548 6590
6331 549
549 4601
549 4605
549 8206
550 6333
6332 550
550 6335
550 6336
551 6333
5698 551
6337 551
8667 551
551 4082
551 6339
552 4610
4611 552
6340 552
552 8672
9297 553
6343 553
553 4617
553 6344
553 9298
9302 554
554 2707
554 4620
554 5891
6353 555
555 4622
555 6354
556 8679
557 5319
10630 557
557 6356
557 5901
4629 558
558 4630
559 4631
559 6359
559 4633
559 5187
559 5918
560 6360
560 6361
3379 562
562 4646
562 4645
562 6365
563 3505
564 6371
564 6373
4654 565
4655 565
6915 565
565 6377
565 6378
566 6379
566 9787
566 6380
600 2742
600 3579
604 5654
8468 606
607 1115
631 608
609 949
610 5630
610 949
610 958
612 3090
615 870
629 617
2720 617
617 1276
617 1350
626 618
620 1149
666 1205
6314 676
678 6287
683 1196
687 900
687 920
688 931
689 942
707 691
693 692
694 920
707 942
707 1196
7726 720
4670 742
750 752
754 4540
4548 756
756 951
757 897
4508 758
766 1247
2686 781
2775 807
814 2775
822 3557
2781 826
826 849
4687 826
835 6937
10393 837
838 840
839 4702
845 4710
6464 846
6469 848
4682 848
6474 849
853 6269
4722 856
856 3566
856 2562
863 4718
6496 868
6498 868
6499 868
868 4914
869 6505
869 885
4707 870
870 893
870 894
870 4666
9816 881
881 6513
881 2720
910 882
8952 884
884 4705
884 9819
884 3457
885 3390
6546 886
6544 889
7607 891
7413 891
891 8876
891 4964
891 2555
893 6556
893 4707
894 8859
894 3579
4709 894
932 898
920 900
4756 900
900 3445
901 4561
6585 903
903 4764
4731 903
905 8928
906 4537
906 4541
9834 909
909 4742
909 8860
909 9781
909 2736
910 6591
6567 913
917 4597
917 3515
918 8952
10639 918
919 4744
919 3596
927 920
920 6281
923 4516
923 7349
6586 925
944 925
927 8954
930 6600
932 931
931 6275
931 8754
932 953
933 6596
6571 933
933 6421
933 4508
6600 937
937 951
937 6609
940 8971
941 959
941 955
948 942
943 8965
947 955
947 4080
6609 951
951 4525
955 959
8965 955
955 3377
1066 1037
1072 1052
1058 1158
1072 1147
1092 8468
1096 8471
1107 5650
1115 8468
1129 1269
1129 1247
1130 1314
1134 1276
1136 2613
1137 1324
1137 1276
1140 1205
1140 1196
1145 1220
1145 1198
1145 1292
1146 1248
1147 1162
1147 1186
1149 1268
1149 1269
1149 1239
1149 1248
1149 2851
1151 2608
1151 1312
1151 3540
1152 1293
1158 1635
1162 1313
1169 6280
1170 1725
1171 1725
1196 1198
1207 1216
1209 4551
1209 4548
1213 1331
1217 7697
1240 1242
1247 1295
1268 1291
1268 1377
1272 1276
1277 2614
1283 2687
1283 1289
1289 1336
1289 1308
1292 1306
1304 1323
1306 1334
1313 1335
1313 1318
1323 2735
1341 6286
1350 3264
1360 3776
1367 7710
1379 5341
1386 7710
1386 7741
1590 2577
4694 1605
1659 2577
1659 3847
1659 2933
1725 3792
1725 5297
2418 2577
4813 2422
2422 6663
2422 6665
2422 6551
6667 2423
3645 2423
4817 2424
2424 6670
2424 6669
2424 9064
2424 9065
2426 3645
3877 2428
2428 3878
2428 6772
2428 4832
2428 4809
2428 6771
2429 4833
2429 6682
6997 2430
2430 5083
2430 4838
2430 4836
2431 3664
2432 6692
5442 2432
2432 2549
2432 2767
2432 4839
2433 4840
2433 7008
7440 2434
2434 7442
2434 4842
2434 4841
2434 4843
2434 3685
7436 2435
2435 4844
2435 3692
9967 2436
2436 6702
2436 9080
2436 9084
9086 2437
2437 6705
2437 6786
2437 6706
2438 4933
2438 6709
2438 6708
2438 6790
2439 4861
2439 4889
2440 3847
2440 3638
2440 4865
2440 3672
2440 4866
4867 2441
2441 4868
2441 6717
2441 6716
2441 4869
2442 6721
2442 6723
2442 6724
4872 2443
2443 6725
2443 6726
2443 7526
2443 6727
9100 2444
2444 4875
4877 2445
2445 9104
2445 3863
2445 9105
2445 6759
2445 4881
2445 4903
2445 4880
6728 2446
3867 2446
2446 4906
2446 6730
2446 7444
2447 4912
2447 6765
2447 6736
2447 6738
2448 6740
9115 2448
2448 6742
2450 4890
2450 6747
6749 2451
9129 2451
2451 4727
2451 8853
3785 2452
7392 2452
2452 6750
2452 10044
7549 2452
2452 6751
9261 2452
2452 7550
2452 6752
2453 6756
2454 6757
2454 6758
2454 4902
4903 2455
2455 6759
6760 2455
2456 4906
2456 6761
2456 6762
2456 6763
2456 6764
2457 6765
2457 6767
2457 6768
2458 9151
2458 6501
4916 2459
2459 4917
6831 2459
6771 2459
2459 6772
7458 2459
2459 4918
4919 2460
9868 2460
2461 4924
2461 6779
2462 3585
4928 2463
2463 8761
2464 3805
2464 6784
2464 9171
2464 6785
2464 10166
2464 9877
2464 9084
2465 6786
2465 6788
2465 6789
6790 2466
2466 4933
2466 6791
2467 4740
5189 2468
2468 9186
9606 2468
2468 9187
2468 9601
6795 2469
2469 6797
2469 6799
4941 2472
2477 3692
2503 7780
2503 2970
2503 10166
2503 3905
5054 2520
2521 3756
2521 7669
2525 5283
2525 7688
6772 2546
2555 4736
2568 3719
2573 6849
3645 2579
2583 5044
2606 4996
3337 2624
2628 2914
2628 10035
4336 2630
5399 2645
2645 5355
7746 2657
4482 2667
2669 7569
2674 3401
2674 9736
2675 3403
4924 2686
2687 4562
2688 5284
2703 3479
6356 2715
2715 10613
2718 7784
9594 2720
2736 9005
2775 2773
6937 2775
4693 2798
2799 3336
2799 6945
2799 5147
2801 5732
2825 7750
2833 7718
2836 3788
2836 5291
2837 3615
2838 3768
2842 7711
2843 5286
6959 2877
4973 2877
3645 2877
2877 5044
2877 6861
6962 2878
2878 4714
2878 4100
9347 2879
2879 6820
2879 6443
5057 2880
2880 6965
2882 3645
5066 2885
2885 5065
5412 2885
2885 3401
2885 9537
2885 6653
2886 4670
2886 6984
2886 9373
2887 6986
2887 5070
2887 7161
2888 7165
2888 5168
6989 2889
2889 6990
2889 5077
2889 5079
2889 6992
2890 6993
6994 2890
2890 4942
2890 6995
2890 5082
2890 5081
6996 2891
2891 6997
2891 5083
2891 4985
2891 5084
2892 6998
6999 2892
2892 5085
6046 2893
2894 5086
2894 9125
2894 7008
2895 7011
7012 2895
2895 4840
2895 4986
7255 2896
2896 7015
2896 4990
2896 4988
2896 4983
7266 2897
2897 4987
2898 7017
2898 3691
2898 4943
2899 7019
2899 9380
2899 3666
2899 5090
2899 4989
2900 5875
8651 2900
2900 4591
2900 9382
2900 5172
2900 8209
2900 7027
2900 7023
2900 7024
2901 7029
2901 7176
2901 6954
7498 2902
2902 5175
2907 7045
2907 7188
2907 7047
2909 7054
2909 6930
2909 6929
2910 9407
2910 7058
2910 9309
7061 2911
2911 3723
2911 7064
2911 7063
2911 6823
2912 3335
7073 2913
2913 4806
2913 3672
2913 4951
2914 5375
2914 3263
2914 5110
2914 7422
2915 5111
2915 3491
2915 4253
2915 5112
2916 8224
2916 9414
2916 7079
2917 9417
2917 9418
2917 9095
2918 7081
2919 5120
7084 2920
2920 7085
2920 7086
7087 2921
2921 7088
2921 9436
2921 9440
2921 7089
2921 5123
2921 9439
2921 8245
2921 9623
9441 2922
2922 5125
2922 4279
2922 8491
2922 6950
2922 5127
2922 7092
2922 6167
2923 7094
2923 7095
2924 5132
5133 2924
5396 2924
2925 5135
2925 4877
2925 4802
2926 7151
2926 6947
2926 7106
2926 7104
2926 5607
2927 7107
2927 7108
2927 6031
7110 2928
2928 7109
2928 7112
7541 2929
2929 7113
2929 3868
2929 7213
2929 4952
2930 7115
2930 7116
2930 7118
2930 5011
2931 9466
2931 6526
2931 7122
2931 9469
2932 7124
2932 7125
3333 2932
2932 5143
5145 2933
2933 6815
2933 6809
2933 6811
10475 2934
2934 5146
2934 5147
5148 2935
2935 7126
2935 6871
2935 7128
2935 7129
2937 6870
9792 2937
2937 4727
2937 9258
3784 2938
7391 2938
2938 5001
4996 2939
2939 6875
6876 2939
2939 6883
2939 6882
2940 5150
4941 2940
2940 7131
7132 2940
2940 7133
2941 5153
2941 4999
2942 6619
2942 6618
2942 3088
2942 5622
2944 3113
2944 6617
2944 6622
2944 7933
2944 7927
7136 2945
7135 2945
5156 2945
2946 7140
2946 7144
2946 10314
5161 2947
2947 10317
2947 4448
2947 10419
2947 4767
7148 2948
2949 5013
7151 2950
6830 2950
2950 6903
2950 6829
2951 7154
2951 6853
2951 9460
2952 4952
10081 2952
2952 6821
3841 2953
2953 5011
6907 2953
2953 7404
2954 7156
3401 2954
9537 2954
2954 4770
2954 7158
2955 5165
2955 4670
2955 5166
2955 7159
7160 2956
7161 2956
2956 7164
2956 7162
2956 7163
2957 3767
10094 2957
7165 2957
2957 7166
2957 7571
2957 5168
2958 6802
2958 7168
2958 4971
2959 4946
2959 6848
2959 6806
2960 7171
6890 2961
2961 9288
2961 6910
7176 2963
2963 7177
7588 2963
7589 2963
2963 7178
2963 3478
2963 6837
2963 6953
2964 5175
2964 7179
2964 4967
3800 2965
3479 2965
2965 9762
5177 2965
2966 7183
2966 7182
2966 6918
2966 6923
2967 7185
2967 6922
2967 4737
6925 2968
2968 7187
7188 2969
7190 2969
2969 6455
2969 4699
2969 4700
9587 2970
2970 9201
2970 9202
2971 6356
6929 2971
2971 7192
2971 6453
2971 7193
2971 6930
9309 2972
7195 2972
9594 2973
2974 9185
9597 2974
9188 2974
2974 10414
2974 8899
2974 9414
2974 9411
5714 2975
6833 2975
2975 4096
2975 7197
2975 6794
2975 7198
7199 2976
2976 7200
2977 7202
7203 2977
2977 7204
7206 2978
5022 2979
2979 7207
2979 4734
2992 7766
2993 7766
2993 3888
2995 3813
5464 3000
3000 3906
3000 3806
3000 5317
3006 3813
3012 3837
3012 5406
3012 5362
7666 3023
3040 5286
3072 3919
3089 7697
3099 3096
3097 3099
3098 3857
3099 3347
3099 5480
3099 10302
3099 5485
3101 3858
3101 5652
3104 7738
7738 3106
3107 7738
3858 3128
7736 3128
3147 7781
3152 3918
3159 7665
3160 7664
3160 3754
3174 3401
3206 5282
3217 5287
3247 4253
3262 3337
3263 5332
3264 4254
3276 7695
3278 9005
3322 5011
3333 3842
3335 3809
3336 5371
3844 3336
3336 6054
3337 7722
3337 5332
3342 4999
3344 9716
3344 5480
3344 9654
3369 6602
3379 3913
3379 3820
3384 4052
3386 4052
7746 3388
3390 7746
3390 5359
3401 6205
3401 5412
3401 4773
3401 5252
3401 5742
3403 5412
7753 3407
3407 7682
3417 7758
3433 4565
3435 7770
3438 4563
3445 8629
3445 7774
3464 8949
3478 3897
3479 9577
7185 3484
3487 4737
3490 6357
7784 3491
3491 4253
3503 7789
7786 3505
3507 7789
9623 3523
3525 7790
7723 3537
3537 6470
3537 9125
7768 3552
3557 6938
3562 3645
3562 6668
6937 3566
3566 9762
3566 9575
3566 6392
3568 7402
3568 3592
3569 4933
3569 6931
3570 4933
3572 6512
3572 3573
3578 4705
3579 7148
3579 4903
3585 10125
3585 6565
3585 7768
3585 5440
4708 3589
3592 5370
3592 3842
3596 9742
8860 3599
3601 3877
3615 3691
9062 3633
3635 4906
3638 3814
3638 9121
6411 3645
5241 3645
3660 5271
3660 7168
3664 5281
3666 5295
3666 3790
3672 3814
3681 7720
3685 3785
6887 3687
3691 5292
3691 5291
3692 3789
3692 5293
3694 3861
3705 5431
3886 3705
3720 3846
3722 3796
3722 7775
3723 5326
3725 7754
3729 3830
3729 5356
3734 3902
3736 5297
3738 3780
3739 5307
3743 5465
3747 3858
4099 3754
3754 4813
3754 6908
3754 7466
3755 5512
6818 3756
3756 7616
3756 5197
3756 9894
3757 4817
3757 6441
3758 6940
4101 3759
7467 3759
3759 4104
3759 7468
3759 6859
3766 7247
3767 4498
3767 5168
3767 9686
3954 3768
3768 5074
3768 4061
3768 9643
4829 3769
3949 3769
3769 4810
3769 6772
3769 4809
3769 3950
4121 3770
4126 3771
8025 3771
3771 5521
3771 5751
3771 7478
3771 7479
3771 6658
3771 7477
3771 7352
3771 5205
3772 7351
3772 4516
7252 3773
3774 6223
3774 7347
3774 5760
3774 7486
3775 9688
3775 4503
3775 6638
3775 6421
5525 3776
3776 5772
6045 3776
3777 7272
3777 5077
3777 5079
3777 4172
7271 3778
3778 7435
3779 7433
3779 7437
3779 4942
3779 5082
3780 5491
3780 5081
3781 7265
3781 6996
3781 4173
3781 4985
3784 7258
3784 4178
3784 4990
3784 4179
3784 4182
3785 7255
7441 3785
3785 4842
3785 4843
3786 7440
3786 7267
3786 4987
3786 4841
3786 7442
3787 7266
3788 3922
7434 3789
3789 4845
3790 7436
7487 3790
3790 4844
7259 3791
3793 7276
3793 10140
3794 7492
5881 3795
3795 7495
3795 7496
3795 5879
3796 8053
3796 7236
3796 6628
3796 5539
3797 4223
3797 7366
3797 7365
3798 7029
7217 3798
7219 3798
3798 7238
5885 3799
3799 7498
7281 3799
3799 4610
3799 5175
3799 7499
3799 7367
3799 7368
3803 7288
3803 9768
3804 7502
7503 3804
3804 7504
3804 5183
3804 7443
3805 9967
3805 7506
3805 9968
3805 9080
3805 9084
3805 9839
3805 9878
3805 9848
3806 9634
3807 5544
3807 7507
3807 6839
3807 7241
3807 7508
3807 7509
3808 7510
3808 4933
3808 6711
3809 7511
3809 7292
3809 7293
3810 7290
3811 4888
3811 4862
3811 4246
3811 4863
4853 3812
3812 4242
3812 7518
3812 7519
3812 7291
3812 6868
3813 4951
3813 3937
3813 7212
3814 4806
3814 4866
3815 4865
3815 7422
3815 7423
3816 7524
3816 6824
3816 4250
4872 3818
3818 7224
3818 7425
7283 3819
3819 4643
3819 7381
3819 6726
3819 6934
3819 7526
3820 6641
3821 7527
3821 4262
3821 7595
3821 6892
3821 7296
3821 6891
3822 4655
3822 7298
3822 5120
3822 7386
7084 3823
3823 7279
3823 9994
3823 5121
3823 7299
3824 7278
3824 4273
3824 5195
3824 7086
3824 7297
3825 5554
3825 7225
3825 7245
3827 7327
3827 7300
3827 7326
4294 3828
3828 7301
9100 3829
3829 9700
3829 4311
3829 4875
3829 9701
3830 4003
3831 4903
3831 4881
3831 6893
3832 7248
10283 3832
3832 7303
3833 7534
3833 7233
3833 7229
3833 7304
3835 7538
3835 4906
3835 6730
3835 7112
3835 7445
3836 6728
3836 7541
7540 3836
3836 9838
3836 4952
3836 7444
3836 10467
7113 3837
3837 7464
3837 7213
7542 3838
3838 4482
3838 7569
3838 6906
3838 7309
3839 7544
3839 7307
3839 7308
3839 4912
3839 6904
3840 7545
3840 7313
3840 6044
7547 3841
3841 7115
3841 7311
3841 5011
3841 6040
3841 7310
3841 7118
3842 7124
10504 3842
3842 7319
3843 7125
7315 3843
3843 5143
3843 6524
7448 3844
3844 6945
3845 7449
3845 6051
3930 3846
3846 5145
6815 3846
6812 3846
3846 6808
3846 6811
3846 6809
3847 4890
3848 7400
5001 3849
3849 10041
3849 6435
7391 3850
3850 7549
3850 10046
3850 7550
3851 4996
7392 3851
3851 9261
3851 6752
3851 6882
7552 3852
3852 6876
3852 6885
3853 7208
3853 7555
3854 7427
3854 7454
3854 5088
3855 6887
7557 3855
7453 3855
3855 4846
3856 7558
3856 6844
5650 3858
3858 5655
7326 3859
7560 3859
3859 6559
3859 10266
3860 7332
3861 6189
3861 6898
3862 7232
3862 4047
3862 7410
4903 3863
3863 6893
6894 3863
3863 6899
3865 7564
3865 10329
3867 4906
3867 6762
3867 6852
3867 6853
4952 3868
3868 10235
3868 6764
3868 7568
6819 3869
3869 6956
3869 5198
3869 5212
7569 3870
3870 4482
3870 7429
3871 6904
3872 6199
3872 6201
3872 7404
3873 5011
6197 3873
3873 7246
3874 7340
3875 10094
3875 7571
3875 7346
3876 8023
7572 3876
3876 9656
3876 4060
3876 4061
3877 4055
3877 6772
3877 5203
3878 4917
3878 4497
3878 4918
3878 6901
6220 3879
7330 3879
3879 4503
4508 3879
3879 6421
3879 6602
3879 9938
10107 3880
3880 6223
3880 7347
3880 7348
3881 7349
3881 6598
3881 7481
3882 4516
7350 3882
7352 3883
3884 6230
3884 7577
3885 7578
3885 6801
7580 3886
6802 3886
7395 3886
3886 4921
4919 3887
3887 5171
3887 9231
3887 6847
9346 3888
3888 10597
3888 6807
3889 6268
7581 3889
3889 6270
3889 10356
4927 3890
3890 9753
7582 3891
3891 6878
3891 7583
6316 3892
3892 6408
3892 8998
3893 7355
7236 3893
3893 6621
3893 4083
3894 6914
7586 3894
3894 7359
3894 9757
3894 9950
3894 9949
3895 7360
3895 7362
3895 7493
3896 10140
6916 3896
3896 6590
3896 9761
3896 8206
3897 7176
7365 3897
4611 3897
3897 7030
3899 4610
5175 3899
3899 7367
4967 3899
3899 7369
3900 4617
5177 3900
3901 5710
3901 10153
3901 6485
3903 6455
3903 6928
7321 3904
3904 4699
3904 7424
3905 6784
10164 3905
3905 10165
3906 6814
6958 3906
3907 9830
3908 6931
3908 4933
3909 6932
3910 7240
3910 6841
3910 6933
3910 7412
5712 3911
6797 3911
3911 5713
3911 7414
3911 7462
3911 9662
3912 9832
4012 3913
3913 6825
4013 3913
3913 4645
3913 6623
3913 7594
3914 6892
6891 3914
3914 4646
3914 7385
4655 3915
7386 3915
3915 6915
7598 3915
3915 7203
5193 3916
7389 3916
3916 7206
3917 4654
3918 4969
3918 4734
3918 8863
3918 7245
3919 3981
3919 3994
3922 5291
3922 5290
3932 5465
3957 5343
3962 5307
3978 5480
3982 9716
3982 7891
3984 7889
3993 5345
3994 5485
3994 7794
3994 7914
3995 7911
3995 7794
5347 3999
4001 7711
4003 5356
4005 7718
4017 9654
9653 4034
4034 7736
4034 5345
4034 7914
4045 7742
4047 5400
4051 6501
4052 7752
4054 5413
4057 5413
4065 7759
4072 4552
4073 5390
4079 7769
4079 5444
4083 7775
4086 7781
4093 7783
4099 7664
4100 5243
4103 5240
4103 5044
4117 7682
7686 4139
5264 4161
4168 5279
4171 5279
4172 5269
4174 5284
4175 5288
4177 5289
4179 10039
4183 5299
4185 5300
4185 8752
4186 5300
4187 5301
5300 4188
4189 5300
4190 5301
4191 5300
4192 5301
4193 5302
5301 4194
4195 5301
4196 5301
4197 5302
4199 5302
4202 5302
4203 5302
4230 9762
4242 5331
5327 4243
4246 5328
4247 5328
4250 5334
4251 5335
4252 5336
4253 5337
4254 5337
4277 7790
5352 4293
4308 5357
4319 5361
4332 5331
4334 6054
4335 5328
4336 5376
5445 4359
4359 7728
7774 4363
4364 7774
4369 7773
4372 7772
4373 7772
4374 7730
4376 7730
4376 7771
4398 7765
4399 7732
4403 7764
4409 7733
4410 7733
4413 7734
4417 7735
4418 7705
4430 7739
4431 6559
4432 7739
4435 5393
5395 4437
7740 4443
4446 7740
4448 5396
4448 7146
4454 5399
4459 5354
4459 5398
4464 7741
5402 4469
4469 5361
4474 5405
4476 7745
5410 4478
4478 5366
4479 7748
4482 5407
4910 4482
4482 10084
4482 5363
5411 4484
4484 7409
4484 5367
4490 7753
4492 5414
4496 6567
4499 7758
7758 4500
4500 7686
5420 4512
4512 5262
4514 6223
5422 4516
4516 5260
4518 7760
7760 4519
4520 7760
4520 6607
4526 4530
7761 4528
4529 6236
4529 8765
4530 7761
7762 4537
7763 4540
6427 4540
4540 8597
4540 4544
4540 6419
4541 7762
4542 7763
4543 7762
4544 7763
4546 5427
4547 5428
7764 4548
6420 4548
4549 7764
4550 6600
4550 5428
5443 4560
4561 5443
7771 4563
4564 7770
7773 4566
4571 5446
4580 6309
7776 4591
4591 8651
4595 5451
5453 4598
4599 5453
4599 8949
4599 6589
4601 7777
4606 7777
7778 4611
4620 5459
5458 4622
4624 6945
5472 4629
4630 5472
4631 5473
4631 5337
4633 5475
4635 5474
4639 5334
4642 7785
4643 5339
4650 7786
4651 7695
5416 4670
4675 7687
4675 7765
6471 4682
4682 6750
4683 6883
4685 7392
4687 4973
4690 6842
4694 6645
4695 4700
4696 4699
4699 10393
4699 6455
4699 5462
4700 7189
4701 7721
4705 4704
4705 6460
4707 4706
4752 4708
4714 5242
4718 6492
4756 4726
4727 7724
4729 7723
4730 6496
4732 4755
4736 5704
4737 5458
4737 6351
4740 5472
4743 7599
4745 7746
4755 7743
6495 4756
4759 5418
4759 9740
4767 5397
4769 4770
4770 5413
4777 7126
4792 7712
4802 7712
4809 7458
4813 7665
5244 4817
4833 5273
4834 5272
4838 5278
4839 5284
4844 5294
4845 5293
4845 5292
5330 4853
4861 5329
4861 5330
4862 5329
4863 5329
5338 4867
4877 7712
4888 5329
4888 5328
4889 5329
5384 4895
4912 5365
4918 6573
5433 4919
4921 5432
7767 4924
5440 4927
4928 5443
4933 7782
5382 4941
4942 5274
4943 5292
4943 5291
7725 4945
4946 5435
9631 4946
7756 4956
4970 7725
4971 5431
5240 4973
7671 4974
4975 7672
4986 5288
4987 7690
4991 6356
5386 4999
7789 5004
5013 7745
5014 5405
5015 7753
5024 7776
5037 7388
5044 5241
5044 5240
5046 7721
5054 7670
5057 7671
5058 7672
5065 5253
5073 7685
5074 7685
5077 5270
5079 5270
5081 5275
5082 5274
5083 5277
5085 5278
5086 5287
5117 7696
5125 5347
5353 5132
5352 5133
5136 5358
5375 5146
5147 6054
5147 5375
5148 5377
5150 5383
5153 7725
5153 9380
7739 5156
5160 5397
5397 5161
7753 5165
5166 7753
5171 5434
5173 7776
5179 5457
5183 5315
5187 5473
5188 7785
9185 5189
5197 7668
5198 5406
5200 7781
5205 7759
5206 5476
5212 5406
5213 7735
5218 7704
5240 9672
6959 5240
5240 6861
5240 9241
5242 6667
6962 5242
5243 5732
10430 5244
5245 6670
5252 10239
5252 5743
7827 5253
5253 6654
5253 7158
5253 5520
5254 5744
5254 5745
5255 6205
5255 7247
5256 5748
6986 5257
5257 6656
5257 9044
5259 5750
5259 7351
5261 5752
5261 5754
5262 5761
5262 5759
5263 5783
5263 5778
5263 6241
5264 5784
5264 5782
5264 5787
5265 5791
5265 5790
5266 8287
7903 5266
5266 5530
5802 5267
5267 5810
5808 5268
5268 5814
6989 5270
7272 5270
5271 6989
5271 7271
5271 6990
7435 5272
5272 7396
5272 6682
5273 7433
5273 7437
6994 5274
5275 6993
5491 5276
5277 6997
6999 5278
5817 5279
5279 6998
5282 5819
5284 6692
6046 5286
5286 5533
5824 5288
5288 7011
5288 5826
7266 5289
7017 5291
7434 5293
5294 7436
7019 5295
7270 5295
7487 5295
5832 5296
7259 5296
5297 5835
8268 5297
5297 5837
5297 5693
5298 7898
5298 5534
5298 5855
5298 10533
5303 5872
7020 5303
5303 7023
5303 6329
5304 5876
5305 6320
5305 7492
5305 5880
5306 5883
5306 7355
5306 6628
7217 5307
5307 5540
5308 5701
5308 9045
5308 9659
5308 10231
5314 7188
5314 7047
5315 7045
7503 5315
5315 7504
5315 7443
5316 7502
5317 9634
5317 7050
10190 5318
5319 5901
5319 6356
5319 6930
5319 7054
5320 7053
5320 6706
5320 6705
5320 6929
5321 10437
5897 5322
5322 7055
5322 5900
5322 7058
5322 5899
5322 7060
5323 6708
5323 7508
5323 7509
7061 5325
5326 7063
5326 6823
5327 7511
5327 7292
5327 5906
5327 7293
5328 5909
5328 5910
5331 5906
5331 7291
5908 5332
5548 5333
5333 7524
5333 5551
5333 5550
5333 6824
5913 5334
5923 5339
7283 5339
5339 6934
5340 9691
10263 5340
5340 6371
5340 9781
5340 9782
5341 5571
5341 6092
5341 9039
5341 6085
5341 5576
5343 5529
5986 5343
5343 5988
5345 5344
5345 5658
5345 5600
5346 8467
5346 10301
5347 7135
5347 5664
5347 9649
5348 7327
5348 10272
8322 5349
5349 6002
5349 7300
5349 10266
5350 6008
5350 6010
5350 6173
5350 6175
5350 7097
6005 5351
5351 7094
5351 9695
5351 9696
5352 6013
5352 6177
5353 6011
5353 6009
5353 7145
5353 9697
5355 8514
5355 6022
5357 6893
9650 5358
5360 10283
5361 7334
5361 6033
5361 7304
7464 5362
5363 6038
7542 5363
5363 6039
5363 7309
6733 5364
5364 6738
5364 7446
5364 6906
5364 6765
5364 7569
5366 6037
5366 6904
5367 8368
6042 5367
5367 6740
5367 6043
5367 6741
9466 5368
5368 6526
5369 5611
5369 10622
5369 7122
10504 5370
5370 6053
5370 6052
5370 7319
5371 6054
5371 6945
5372 7448
5372 7403
5372 6945
5373 9252
5374 7449
5374 6053
5374 6051
5375 10475
5375 6054
5375 9714
5376 7126
5376 6871
5376 7128
5377 5617
6059 5378
5379 6055
5379 6870
5380 6885
7208 5382
7132 5382
5382 7553
5382 7133
5383 7131
5383 7427
5383 7454
5383 10496
5384 6756
5384 7454
5385 7453
6887 5386
5386 7557
5387 10295
6063 5387
5387 7558
5387 6844
5388 6086
5388 6091
5388 9652
5631 5389
5389 6084
6087 5389
5389 5633
5389 8996
5389 6092
5390 5645
6110 5390
5390 5648
5390 6113
5391 5664
7135 5391
7560 5392
5392 10309
5392 7327
7326 5393
5393 6559
5393 6002
5393 10266
6173 5394
5395 7140
5395 9719
5395 9696
10315 5396
5396 8928
5396 6177
5397 6172
5397 6009
10325 5399
5399 6181
5400 5666
5400 7232
5400 5668
6893 5401
6188 5401
6894 5401
5401 6899
7334 5402
5402 8520
7336 5403
7564 5403
5403 10329
5405 7151
10332 5405
5405 6903
6956 5406
5407 6196
5407 9824
5408 6765
7569 5408
7429 5408
5408 6767
5409 9673
6904 5410
5410 8820
5411 6769
5411 6202
5412 9736
7156 5413
10623 5413
5413 7158
5414 6206
5414 7340
6207 5414
5414 5745
6203 5415
5415 6205
5416 9742
7160 5417
5417 7162
5417 9640
5417 6656
5418 6210
5418 8913
6226 5419
7349 5419
5419 6598
7349 5420
5420 7481
6228 5421
7350 5421
5423 10304
5423 6236
6241 5423
5423 8765
5423 6237
5423 5778
6239 5424
5424 6245
5424 8793
5424 6423
5424 5782
5424 5787
6244 5425
5690 5426
5427 6126
6122 5428
5428 6123
5428 6257
5429 6263
7578 5429
6801 5430
5430 7168
6802 5431
7168 5431
5431 6849
5432 7580
5432 7395
9868 5433
5433 9230
5433 9231
5434 6848
5434 6847
5435 10597
5435 6807
5435 6806
5436 7171
5436 10402
5437 6779
5437 6910
5437 9292
5438 9288
5439 6274
5440 9753
5440 6781
6267 5441
5441 7582
5441 6269
5441 7583
5441 6479
10225 5442
5442 5692
5442 6693
5443 6273
5693 5444
5444 6278
5444 6277
5444 5695
5445 5617
5446 6294
6297 5446
5446 6299
5447 6298
6305 5448
5448 10364
6310 5449
5449 6315
5449 8754
6317 5450
7355 5450
5451 7360
5452 6320
5452 6323
6329 5453
5701 5455
5455 7179
10382 5455
5455 5703
5455 10231
5456 6923
5456 7182
5457 7183
5457 6918
5458 6354
10502 5459
5459 6922
9304 5460
6353 5460
5460 7187
5460 6927
5461 7188
7190 5461
5461 6455
5463 6785
5463 7424
5464 9587
5464 6814
9633 5465
6958 5465
5465 9206
6356 5466
7192 5466
5466 6453
5466 10376
5467 6786
5467 6929
5467 6453
5467 10459
5467 6705
5468 6788
7195 5468
5468 6789
5469 9312
5470 6790
5470 6791
5470 9811
5470 9830
5471 6931
5473 9594
7371 5475
5475 6932
5476 5613
5476 5614
5476 5615
5476 6841
5476 7412
5476 7630
5477 6360
5477 7375
5477 6361
5477 6933
5477 7376
9781 5479
5479 7204
5480 7600
5512 7667
5512 9636
5513 7754
5516 7683
5518 7683
5528 7687
5533 7689
7697 5562
5564 7791
5567 7791
5571 7700
5574 7889
5574 7891
5574 7792
5575 7792
5581 7889
5587 7704
5607 7713
5608 7713
7718 5609
7726 5619
5620 7726
5620 7929
5621 7726
5622 7726
5626 7726
5665 7742
5671 7747
7457 5675
5689 7765
5695 7769
5711 7781
6448 5720
5746 7682
5763 7686
5807 7707
5810 6253
5815 7687
7702 5842
5843 7772
7691 5853
5856 7691
5864 7692
5866 7692
5867 7692
5870 7692
5898 7694
7695 5935
5972 7702
5977 7703
5994 7707
7710 6019
6031 7746
6035 7714
6050 7402
6054 9713
6054 7722
6054 6945
6100 7730
6114 7731
7765 6115
7732 6118
6118 7708
6120 7764
7763 6129
6130 7763
6131 7763
6132 7733
7735 6136
7737 6149
6152 7737
6165 7739
6166 7739
6167 7739
7741 6184
6214 7757
6217 7758
6219 7757
6229 7761
6233 7761
6236 10345
7763 6254
6255 7763
8790 6256
6269 6477
6269 10357
7770 6276
7772 6281
7771 6282
6283 7771
7774 6289
7777 6331
6331 7692
7777 6332
6332 7692
7185 6351
6351 6354
6356 6929
6356 9247
6362 6554
6367 7787
6379 7790
6406 7726
6409 8765
6409 8968
6419 10352
6423 8794
6431 6849
6437 6443
6441 7670
6441 9348
6443 7669
6456 7402
8829 6460
8850 6470
6488 6937
6498 8518
6501 7752
6501 8017
6505 6899
6508 8860
6513 6515
6515 7401
6519 7185
6523 9773
6524 7719
6529 7367
6551 7666
6559 10305
6572 6573
6586 8973
6589 8949
6591 8952
6602 8563
6604 7787
6614 6606
6607 8921
7602 6661
7666 6663
6665 7665
6742 7718
7720 6747
7724 6749
7743 6759
6759 7712
6760 7743
6792 7783
7669 6818
7668 6818
7750 6819
6820 7669
6821 7750
6825 7741
6829 7747
7747 6830
6854 7749
6879 7392
7787 6891
6907 7751
6908 7665
6923 7779
6940 7671
6947 7713
7668 6955
7682 6983
6984 7682
7110 7715
7716 7113
7116 7717
8741 7120
7743 7148
7747 7151
7154 7749
7756 7165
7165 7685
7182 7779
7788 7199
7213 7716
7775 7236
7267 7690
7744 7334
7346 7755
7385 7786
7400 7720
7404 7751
7408 7768
7466 7665
7545 7717
7744 7563
7748 7565
7572 7756
7572 7685
7616 7668
7670 9347
8179 7687
7697 9498
7898 7704
7709 8313
7709 8316
7713 7943
9115 7718
7722 9713
9129 7723
7724 9792
8413 7728
7951 7731
8462 7736
10194 7750
7752 9151
9346 7766
7766 9194
7767 10402
9587 7780
7780 10165
7780 9202
7783 8067
8069 7783
9594 7784
7784 9776
7785 8900
7785 9411
7790 9440
7791 7929
7791 7926
7792 9654
7792 7889
7794 7914
7794 7910
7794 7911
7891 10217
7911 7914
7925 7927
7925 7929
9331 8095
8171 10352
8699 9411
8700 9411
8718 9440
8765 8968
8789 8792
8936 8860
8925 8924
8951 8949
9203 10166
9256 9713
9297 9762
9713 9807
ratios
0.8
0.5
0.62
0.62
0.5
0.5
0.5
0.5
0.5
0.5
0.5
0.5
0.5
0.49
0.47
0.42
0.67
0.55
0.46
0.4
0.61
0.5
0.4
0.51
0.49
0.48
0.52
0.67
0.47
0.59
0.44
0.51
0.49
0.5
0.68
0.61
0.32
0.5600000000000001
0.53
0.46
0.41
0.63
0.54
0.5
0.5
0.5
0.5
0.5
0.5
0.24
0.53
0.61
0.23
0.5700000000000001
0.5
0.5
0.5
0.5
0.5
0.5
0.51
0.51
0.49
0.51
0.5
0.5
0.5
0.51
0.49
0.61
0.7000000000000001
0.5700000000000001
0.47
0.54
0.5600000000000001
0.51
0.54
0.49
0.36
0.6
0.52
0.8
0.26
0.5700000000000001
0.79
0.7000000000000001
0.58
0.55
0.63
0.62
0.58
0.5700000000000001
0.26
0.63
0.45
0.54
0.45
0.61
0.48
0.47
0.44
0.42
0.39
0.41
0.36
0.29
0.64
0.36
0.4
0.36
0.44
0.5
0.54
0.39
0.43
0.42
0.35
0.5
0.51
0.41
0.54
0.49
0.45
0.39
0.36
0.52
0.55
0.68
0.47
0.52
0.47
0.5600000000000001
0.5700000000000001
0.6
0.65
0.38
0.5
0.63
0.47
0.53
0.59
0.6900000000000001
0.5700000000000001
0.31
0.44
0.59
0.62
0.43
0.49
0.43
0.41
0.37
0.42
0.58
0.47
0.6900000000000001
0.52
0.4
0.5
0.39
0.48
0.51
0.52
0.54
0.45
0.38
0.36
0.64
0.35
0.6900000000000001
0.58
0.5600000000000001
0.68
0.36
0.43
0.53
0.48
0.5700000000000001
0.48
0.52
0.52
0.48
0.5600000000000001
0.4
0.47
0.58
0.54
0.5
0.5
0.5
0.5
0.5
0.5
0.59
0.51
0.41
0.45
0.49
0.47
0.52
0.66
0.38
0.59
0.66
0.53
0.5
0.5
0.5
0.5
0.5
0.5
0.6
0.46
0.46
0.49
0.51
0.49
0.5
0.5
0.5
0.49
0.51
0.68
0.68
0.5
0.8
0.6900000000000001
0.8100000000000001
0.78
0.2
0.19
0.27
0.22
0.2
0.31
0.2
0.26
0.26
0.22
0.16
0.22
0.2
0.8100000000000001
0.8100000000000001
0.79
0.2
0.21
0.8100000000000001
0.18
0.8
0.21
0.13
0.23
0.22
0.17
0.15
0.18
0.15
0.79
0.18
0.19
0.22
0.16
0.2
0.19
0.85
0.21
0.21
0.22
0.17
0.16
0.13
0.15
0.23
0.78
0.8100000000000001
0.18
0.22
0.22
0.2
0.22
0.22
0.8200000000000001
0.18
0.21
0.2
0.8200000000000001
0.19
0.21
0.2
0.8100000000000001
0.2
0.84
0.15
0.2
0.18
0.2
0.8
0.19
0.77
0.16
0.8100000000000001
0.21
0.18
0.18
0.2
0.22
0.21
0.22
0.23
0.2
0.18
0.8
0.16
0.18
0.79
0.22
0.23
0.49
0.42
0.23
0.19
0.8
0.23
0.19
0.2
0.19
0.18
0.2
0.21
0.2
0.19
0.19
0.17
0.19
0.19
0.21
0.14
0.21
0.19
0.8
0.2
0.66
0.2
0.54
0.2
0.2
0.2
0.19
0.2
0.23
0.23
0.22
0.21
0.2
0.2
0.22
0.22
0.23
0.21
0.23
0.2
0.8
0.65
0.55
0.2
0.41
0.2
0.2
0.2
0.15
0.21
0.84
0.15
0.76
0.15
0.2
0.2
0.72
0.16
0.15
0.2
0.8
0.15
0.2
0.2
0.16
0.15
0.16
0.59
0.2
0.22
0.22
0.8200000000000001
0.22
0.8
0.16
0.19
0.19
0.17
0.21
0.22
0.17
0.23
0.17
0.22
0.21
0.2
0.21
0.17
0.17
0.22
0.22
0.2
0.15
0.22
0.2
0.78
0.21
0.19
0.23
0.22
0.21
0.8100000000000001
0.23
0.19
0.79
0.2
0.79
0.23
0.21
0.21
0.19
0.37
0.14
0.19
0.21
0.18
0.16
0.21
0.22
0.78
0.22
0.75
0.63
0.21
0.2
0.18
0.48
0.8100000000000001
0.2
0.21
0.31
0.8100000000000001
0.22
0.7000000000000001
0.85
0.78
0.8
0.2
0.19
0.21
0.21
0.18
0.8
0.8300000000000001
0.19
0.78
0.2
0.22
0.77
0.8100000000000001
0.2
0.8100000000000001
0.16
0.8
0.59
0.19
0.2
0.21
0.72
0.8200000000000001
0.22
0.35
0.18
0.78
0.18
0.21
0.8100000000000001
0.21
0.2
0.19
0.21
0.2
0.21
0.23
0.2
0.21
0.8
0.18
0.2
0.23
0.18
0.21
0.18
0.78
0.2
0.8
0.22
0.8
0.23
0.23
0.78
0.78
0.22
0.27
0.22
0.21
0.23
0.23
0.8
0.2
0.23
0.78
0.19
0.52
0.77
0.2
0.17
0.16
0.21
0.23
0.21
0.21
0.8
0.2
0.2
0.21
0.15
0.14
0.8
0.21
0.21
0.21
0.19
0.22
0.13
0.22
0.16
0.15
0.19
0.8
0.14
0.19
0.8
0.13
0.16
0.23
0.19
0.9
0.13
0.23
0.18
0.9
0.08
0.22
0.18
0.12
0.92
0.11
0.18
0.22
0.12
0.18
0.88
0.12
0.15
0.14
0.77
0.2
0.2
0.45
0.77
0.15
0.2
0.22
0.16
0.2
0.21
0.17
0.17
0.18
0.23
0.21
0.21
0.22
0.22
0.79
0.26
0.21
0.22
0.16
0.55
0.2
0.78
0.23
0.21
0.18
0.21
0.2
0.22
0.22
0.8200000000000001
0.23
0.2
0.64
0.16
0.16
0.22
0.22
0.21
0.79
0.2
0.17
0.2
0.14
0.16
0.21
0.19
0.2
0.22
0.2
0.8100000000000001
0.19
0.18
0.16
0.21
0.22
0.19
0.18
0.22
0.18
0.21
0.2
0.18
0.2
0.23
0.18
0.8
0.79
0.22
0.14
0.19
0.8100000000000001
0.18
0.78
0.75
0.21
0.2
0.78
0.18
0.22
0.19
0.18
0.22
0.15
0.8
0.2
0.2
0.73
0.16
0.23
0.17
0.13
0.21
0.18
0.21
0.8
0.15
0.18
0.16
0.23
0.15
0.85
0.15
0.22
0.19
0.17
0.2
0.22
0.18
0.15
0.2
0.78
0.8100000000000001
0.2
0.14
0.13
0.8100000000000001
0.18
0.8200000000000001
0.21
0.18
0.74
0.4
0.8
0.2
0.22
0.2
0.65
0.78
0.22
0.21
0.2
0.17
0.21
0.21
0.17
0.8
0.19
0.11
0.18
0.18
0.21
0.2
0.14
0.23
0.78
0.14
0.21
0.2
0.22
0.19
0.19
0.17
0.2
0.22
0.19
0.77
0.2
0.21
0.18
0.2
0.15
0.2
0.22
0.2
0.2
0.22
0.15
0.18
0.18
0.59
0.2
0.23
0.78
0.21
0.22
0.8
0.22
0.19
0.18
0.19
0.79
0.46
0.22
0.21
0.22
0.78
0.18
0.18
0.23
0.15
0.78
0.8
0.21
0.19
0.8
0.2
0.79
0.2
0.2
0.2
0.21
0.19
0.8
0.2
0.22
0.19
0.2
0.21
0.14
0.23
0.16
0.22
0.19
0.17
0.17
0.17
0.85
0.2
0.19
0.2
0.23
0.21
0.23
0.78
0.19
0.22
0.22
0.22
0.2
0.8100000000000001
0.21
0.22
0.18
0.2
0.2
0.19
0.18
0.17
0.2
0.52
0.21
0.19
0.21
0.77
0.23
0.19
0.2
0.5600000000000001
0.23
0.19
0.17
0.46
0.17
0.23
0.18
0.21
0.18
0.22
0.17
0.19
0.22
0.2
0.22
0.22
0.5
0.19
0.23
0.21
0.18
0.19
0.77
0.4
0.21
0.23
0.2
0.21
0.17
0.19
0.19
0.23
0.48
0.22
0.22
0.2
0.23
0.22
0.47
0.18
0.17
0.8100000000000001
0.21
0.12
0.21
0.19
0.21
0.51
0.16
0.19
0.23
0.18
0.14
0.21
0.19
0.2
0.37
0.18
0.18
0.23
0.23
0.19
0.35
0.18
0.2
0.22
0.8
0.2
0.19
0.23
0.21
0.22
0.21
0.8200000000000001
0.55
0.24
0.2
0.2
0.18
0.18
0.2
0.21
0.19
0.2
0.14
0.21
0.6900000000000001
0.19
0.2
0.77
0.18
0.22
0.16
0.2
0.8200000000000001
0.23
0.21
0.18
0.17
0.19
0.21
0.2
0.78
0.23
0.21
0.22
0.2
0.8
0.8
0.16
0.22
0.22
0.21
0.22
0.21
0.21
0.64
0.23
0.16
0.18
0.18
0.2
0.23
0.8
0.16
0.23
0.23
0.19
0.15
0.19
0.22
0.21
0.19
0.21
0.23
0.2
0.77
0.19
0.21
0.23
0.14
0.8
0.2
0.78
0.23
0.21
0.79
0.8300000000000001
0.19
0.79
0.16
0.22
0.22
0.17
0.21
0.19
0.22
0.22
0.31
0.21
0.18
0.2
0.19
0.23
0.77
0.23
0.15
0.17
0.8100000000000001
0.2
0.23
0.21
0.21
0.22
0.22
0.21
0.22
0.86
0.21
0.21
0.8
0.21
0.2
0.8
0.22
0.8
0.77
0.21
0.23
0.77
0.21
0.21
0.23
0.8100000000000001
0.23
0.2
0.22
0.8200000000000001
0.79
0.8100000000000001
0.21
0.2
0.17
0.2
0.79
0.19
0.21
0.22
0.19
0.2
0.22
0.23
0.77
0.79
0.8
0.22
0.79
0.22
0.23
0.21
0.78
0.23
0.21
0.21
0.78
0.22
0.23
0.79
0.22
0.8
0.22
0.21
0.22
0.19
0.8100000000000001
0.84
0.8200000000000001
0.21
0.2
0.23
0.72
0.77
0.22
0.15
0.84
0.21
0.2
0.5
0.15
0.84
0.2
0.8300000000000001
0.8200000000000001
0.2
0.2
0.8
0.22
0.21
0.19
0.23
0.22
0.19
0.22
0.22
0.2
0.21
0.78
0.8
0.22
0.22
0.21
0.77
0.19
0.21
0.23
0.21
0.77
0.17
0.8200000000000001
0.21
0.54
0.79
0.78
0.8200000000000001
0.78
0.17
0.2
0.22
0.23
0.19
0.18
0.17
0.16
0.21
0.8100000000000001
0.19
0.18
0.19
0.77
0.8100000000000001
0.21
0.23
0.12
0.2
0.18
0.17
0.23
0.78
0.23
0.18
0.8200000000000001
0.78
0.68
0.79
0.21
0.78
0.18
0.21
0.2
0.84
0.78
0.22
0.23
0.51
0.21
0.22
0.19
0.79
0.17
0.2
0.22
0.37
0.85
0.27
0.18
0.22
0.5
0.86
0.8300000000000001
0.8300000000000001
0.19
0.17
0.78
0.78
0.18
0.19
0.21
0.23
0.16
0.19
0.13
0.18
0.18
0.79
0.84
0.78
0.22
0.17
0.18
0.22
0.22
0.21
0.8
0.8
0.2
0.2
0.22
0.78
0.19
0.19
0.23
0.2
0.21
0.22
0.79
0.8
0.8100000000000001
0.21
0.8
0.2
0.8100000000000001
0.54
0.19
0.19
0.17
0.2
0.2
0.2
0.86
0.79
0.19
0.17
0.17
0.2
0.22
0.78
0.22
0.21
0.76
0.79
0.17
0.8
0.79
0.2
0.8
0.78
0.2
0.17
0.77
0.8300000000000001
0.18
0.19
0.77
0.22
0.2
0.22
0.8100000000000001
0.19
0.19
0.78
0.2
0.15
0.2
0.79
0.2
0.35
0.86
0.22
0.8300000000000001
0.8
0.2
0.79
0.14
0.2
0.19
0.78
0.79
0.77
0.18
0.22
0.18
0.2
0.8200000000000001
0.18
0.18
0.22
0.19
0.79
0.23
0.2
0.19
0.79
0.8100000000000001
0.78
0.21
0.22
0.19
0.79
0.8
0.21
0.84
0.8200000000000001
0.17
0.18
0.13
0.8300000000000001
0.12
0.19
0.21
0.78
0.16
0.22
0.23
0.3
0.8300000000000001
0.2
0.18
0.8200000000000001
0.19
0.19
0.19
0.19
0.19
0.23
0.22
0.22
0.78
0.22
0.19
0.21
0.2
0.23
0.2
0.84
0.79
0.78
0.2
0.21
0.22
0.15
0.22
0.2
0.8
0.8
0.36
0.78
0.8
0.2
0.74
0.3
0.21
0.8
0.8
0.8
0.2
0.26
0.61
0.8
0.2
0.2
0.2
0.8
0.2
0.8
0.8
0.8
0.8
0.28
0.8
0.8
0.8
0.2
0.2
0.2
0.7000000000000001
0.8
0.2
0.75
0.2
0.2
0.2
0.2
0.26
0.8
0.8
0.8
0.2
0.2
0.8
0.37
0.5
0.8
0.79
0.34
0.8
0.41
0.2
0.8
0.8
0.54
0.2
0.8
0.77
0.76
0.8
0.36
0.8
0.6900000000000001
0.8
0.7000000000000001
0.73
0.2
0.8
0.27
0.32
0.2
0.28
0.42
0.6
0.6900000000000001
0.8
0.2
0.2
0.75
0.7000000000000001
0.2
0.8
0.2
0.6
0.2
0.2
0.32
0.8
0.2
0.5700000000000001
0.52
0.8
0.8
0.8
0.27
0.63
0.8
0.8
0.8
0.7000000000000001
0.2
0.2
0.8
0.2
0.8
0.2
0.64
0.2
0.74
0.37
0.2
0.47
0.43
0.8
0.74
0.8
0.22
0.2
0.33
0.8
0.59
0.8
0.8
0.38
0.39
0.67
0.8
0.8
0.5
0.55
0.29
0.73
0.36
0.66
0.55
0.75
0.76
0.8
0.74
0.5700000000000001
0.22
0.39
0.6
0.5
0.5
0.8
0.8
0.8
0.8
0.8
0.59
0.8
0.8
0.8
0.8
0.8
0.8
0.8
0.8
0.8
0.8
0.8
0.2
0.8
0.8
0.8
0.2
0.76
0.8
0.8
0.8
0.8
0.8
0.8
0.2
0.24
0.2
0.8
0.8
0.8
0.8
0.8
0.8
0.8
0.2
0.8200000000000001
0.34
0.8
0.8
0.8
0.8
0.8
0.8
0.8
0.8
0.2
0.8
0.8
0.8
0.8
0.8
0.8
0.8
0.67
0.8100000000000001
0.85
0.8100000000000001
0.8300000000000001
0.8200000000000001
0.8
0.2
0.2
0.78
0.78
0.76
0.8100000000000001
0.8
0.79
0.19
0.23
0.21
0.8
0.8
0.78
0.19
0.16
0.19
0.2
0.2
0.32
0.64
0.21
0.18
0.19
0.21
0.16
0.19
0.8
0.18
0.2
0.16
0.18
0.19
0.2
0.23
0.17
0.16
0.21
0.22
0.84
0.22
0.17
0.14
0.14
0.19
0.79
0.18
0.19
0.78
0.16
0.2
0.21
0.77
0.21
0.17
0.18
0.21
0.14
0.19
0.18
0.21
0.22
0.8
0.18
0.19
0.2
0.16
0.8200000000000001
0.18
0.2
0.21
0.17
0.21
0.16
0.21
0.77
0.19
0.19
0.22
0.2
0.79
0.16
0.78
0.18
0.63
0.22
0.23
0.18
0.18
0.16
0.79
0.31
0.22
0.21
0.18
0.2
0.21
0.19
0.2
0.21
0.8100000000000001
0.19
0.22
0.2
0.79
0.8
0.2
0.17
0.7000000000000001
0.8
0.16
0.5600000000000001
0.8
0.13
0.8
0.19
0.22
0.21
0.18
0.2
0.17
0.8300000000000001
0.22
0.8300000000000001
0.2
0.14
0.17
0.19
0.22
0.19
0.2
0.18
0.2
0.2
0.78
0.2
0.8
0.8100000000000001
0.2
0.74
0.19
0.79
0.78
0.21
0.21
0.2
0.8100000000000001
0.17
0.27
0.19
0.22
0.23
0.5700000000000001
0.22
0.19
0.17
0.23
0.2
0.8300000000000001
0.2
0.2
0.22
0.8
0.45
0.8
0.22
0.33
0.77
0.21
0.18
0.2
0.8
0.78
0.78
0.6900000000000001
0.78
0.2
0.79
0.79
0.8
0.8
0.2
0.8
0.23
0.8
0.2
0.8
0.8
0.2
0.85
0.8
0.2
0.17
0.84
0.13
0.2
0.8
0.8
0.8
0.8
0.2
0.8
0.8300000000000001
0.8
0.2
0.8
0.86
0.2
0.2
0.2
0.2
0.43
0.8
0.8
0.8
0.8
0.86
0.8300000000000001
0.86
0.86
0.8
0.78
0.8100000000000001
0.8100000000000001
0.8200000000000001
0.8100000000000001
0.8
0.18
0.19
0.77
0.19
0.21
0.79
0.17
0.17
0.85
0.18
0.2
0.85
0.2
0.2
0.18
0.21
0.18
0.19
0.18
0.21
0.22
0.14
0.19
0.22
0.23
0.8
0.19
0.2
0.19
0.23
0.19
0.8200000000000001
0.21
0.21
0.18
0.18
0.78
0.2
0.2
0.16
0.13
0.21
0.8200000000000001
0.21
0.8
0.22
0.8
0.22
0.21
0.8100000000000001
0.21
0.18
0.8
0.22
0.15
0.14
0.13
0.77
0.2
0.15
0.15
0.17
0.23
0.8
0.15
0.2
0.16
0.2
0.2
0.18
0.21
0.17
0.28
0.2
0.22
0.19
0.23
0.23
0.17
0.78
0.18
0.2
0.23
0.2
0.19
0.2
0.22
0.23
0.18
0.18
0.8300000000000001
0.19
0.16
0.18
0.22
0.21
0.8
0.17
0.15
0.17
0.77
0.18
0.17
0.22
0.2
0.2
0.2
0.2
0.23
0.19
0.18
0.22
0.22
0.51
0.18
0.2
0.77
0.23
0.22
0.77
0.2
0.22
0.21
0.15
0.16
0.22
0.4
0.23
0.79
0.17
0.17
0.7000000000000001
0.16
0.19
0.17
0.17
0.23
0.19
0.18
0.8200000000000001
0.2
0.18
0.22
0.19
0.23
0.21
0.2
0.17
0.22
0.17
0.19
0.22
0.79
0.2
0.23
0.77
0.21
0.71
0.21
0.23
0.22
0.18
0.21
0.23
0.23
0.19
0.23
0.19
0.2
0.18
0.8
0.19
0.8100000000000001
0.19
0.16
0.23
0.77
0.2
0.18
0.8100000000000001
0.21
0.17
0.2
0.15
0.23
0.8200000000000001
0.2
0.17
0.73
0.79
0.19
0.8100000000000001
0.21
0.8
0.2
0.2
0.21
0.8200000000000001
0.22
0.78
0.18
0.21
0.19
0.14
0.18
0.23
0.19
0.21
0.17
0.2
0.22
0.14
0.78
0.79
0.8
0.21
0.21
0.19
0.8100000000000001
0.19
0.21
0.17
0.2
0.78
0.21
0.78
0.8100000000000001
0.22
0.18
0.21
0.19
0.21
0.21
0.8
0.19
0.8
0.21
0.77
0.2
0.22
0.74
0.78
0.22
0.23
0.2
0.21
0.19
0.21
0.78
0.79
0.16
0.2
0.21
0.34
0.67
0.8
0.23
0.22
0.19
0.23
0.23
0.2
0.19
0.23
0.19
0.2
0.8200000000000001
0.23
0.19
0.77
0.23
0.6
0.8
0.19
0.19
0.19
0.21
0.18
0.19
0.21
0.8
0.8
0.38
0.78
0.23
0.22
0.19
0.2
0.23
0.18
0.21
0.8100000000000001
0.2
0.78
0.77
0.23
0.2
0.2
0.8
0.15
0.2
0.31
0.79
0.17
0.17
0.17
0.18
0.8300000000000001
0.8
0.78
0.39
0.77
0.8
0.2
0.21
0.17
0.22
0.8
0.8100000000000001
0.2
0.22
0.37
0.21
0.79
0.21
0.21
0.79
0.2
0.8100000000000001
0.84
0.15
0.2
0.86
0.8300000000000001
0.8300000000000001
0.84
0.22
0.78
0.77
0.77
0.84
0.78
0.8200000000000001
0.78
0.19
0.88
0.8
0.8300000000000001
0.2
0.8
0.85
0.2
0.8
0.8
0.8
0.89
0.78
0.86
0.18
0.84
0.17
0.12
0.84
0.8
0.84
0.8
0.8
0.8
0.85
0.8300000000000001
0.8
0.8
0.8200000000000001
0.8
0.87
0.2
0.8
0.8
0.79
0.79
0.21
0.52
0.8
0.79
0.8
0.8
0.8
0.8
0.8
0.78
0.79
0.8
0.8
0.14
0.8100000000000001
0.8100000000000001
0.46
0.8100000000000001
0.2
0.8300000000000001
0.2
0.8300000000000001
0.17
0.84
0.87
0.8
0.84
0.8
0.8
0.85
0.65
0.8100000000000001
0.8
0.2
0.8
0.8
0.19
0.2
0.85
0.21
0.8300000000000001
0.2
0.85
0.17
0.2
0.8
0.18
0.8
0.8
0.8
0.8
0.8
0.8
0.23
0.8
0.8
0.8
0.8
0.8
0.8
0.8
0.39
0.8
0.8
0.73
0.23
0.8
0.8
0.8
0.8300000000000001
0.8300000000000001
0.8
0.26
0.79
0.8
0.2
0.8
0.8200000000000001
0.8
0.8
0.16
0.87
0.8
0.8200000000000001
0.85
0.85
0.85
0.8300000000000001
0.8100000000000001
0.2
0.85
0.85
0.8100000000000001
0.8100000000000001
0.89
0.8
0.2
0.8300000000000001
0.8100000000000001
0.84
0.8100000000000001
0.77
0.78
0.78
0.79
0.79
0.78
0.8
0.78
0.79
0.85
0.21
0.17
0.17
0.21
0.78
0.21
0.19
0.23
0.22
0.22
0.22
0.85
0.78
0.22
0.22
0.18
0.15
0.18
0.23
0.2
0.8200000000000001
0.18
0.23
0.21
0.8200000000000001
0.87
0.14
0.21
0.19
0.16
0.78
0.78
0.29
0.21
0.21
0.2
0.2
0.18
0.22
0.2
0.19
0.18
0.2
0.77
0.17
0.18
0.19
0.23
0.23
0.21
0.16
0.17
0.78
0.2
0.78
0.19
0.2
0.19
0.23
0.8300000000000001
0.16
0.16
0.22
0.21
0.18
0.22
0.2
0.15
0.22
0.15
0.16
0.19
0.13
0.15
0.2
0.13
0.2
0.8100000000000001
0.17
0.2
0.16
0.18
0.2
0.14
0.22
0.23
0.19
0.8100000000000001
0.15
0.21
0.8100000000000001
0.18
0.8300000000000001
0.19
0.22
0.17
0.77
0.17
0.2
0.21
0.55
0.21
0.19
0.2
0.22
0.23
0.22
0.23
0.8
0.8300000000000001
0.16
0.8
0.22
0.8
0.19
0.18
0.2
0.16
0.14
0.2
0.21
0.22
0.8200000000000001
0.23
0.22
0.19
0.22
0.2
0.23
0.2
0.21
0.22
0.2
0.17
0.2
0.2
0.19
0.15
0.15
0.18
0.23
0.19
0.21
0.2
0.21
0.19
0.18
0.21
0.22
0.19
0.17
0.14
0.8300000000000001
0.19
0.2
0.21
0.21
0.2
0.17
0.2
0.23
0.17
0.16
0.19
0.22
0.2
0.19
0.19
0.17
0.77
0.19
0.2
0.8
0.22
0.19
0.19
0.19
0.22
0.16
0.22
0.19
0.19
0.21
0.19
0.2
0.21
0.2
0.21
0.21
0.78
0.21
0.23
0.21
0.18
0.2
0.19
0.18
0.22
0.2
0.19
0.2
0.22
0.22
0.19
0.18
0.8
0.17
0.79
0.19
0.2
0.16
0.18
0.17
0.18
0.18
0.23
0.21
0.78
0.21
0.2
0.19
0.15
0.2
0.2
0.22
0.21
0.23
0.17
0.21
0.23
0.8200000000000001
0.23
0.23
0.18
0.21
0.79
0.22
0.21
0.79
0.21
0.21
0.19
0.17
0.19
0.16
0.17
0.2
0.21
0.23
0.19
0.21
0.79
0.22
0.21
0.23
0.2
0.15
0.21
0.2
0.79
0.19
0.18
0.78
0.19
0.23
0.78
0.19
0.18
0.18
0.8100000000000001
0.19
0.8100000000000001
0.8300000000000001
0.18
0.23
0.16
0.22
0.22
0.8100000000000001
0.21
0.18
0.79
0.19
0.22
0.19
0.19
0.8
0.2
0.22
0.21
0.79
0.2
0.22
0.2
0.17
0.2
0.22
0.19
0.21
0.77
0.79
0.2
0.21
0.21
0.8300000000000001
0.18
0.8
0.77
0.19
0.23
0.2
0.33
0.2
0.23
0.19
0.19
0.8300000000000001
0.22
0.8100000000000001
0.18
0.22
0.21
0.2
0.17
0.19
0.19
0.79
0.15
0.22
0.18
0.79
0.19
0.15
0.17
0.8100000000000001
0.2
0.23
0.19
0.23
0.2
0.2
0.21
0.8100000000000001
0.2
0.21
0.23
0.22
0.21
0.37
0.79
0.22
0.22
0.19
0.2
0.2
0.22
0.18
0.21
0.19
0.18
0.78
0.8
0.2
0.8
0.16
0.18
0.22
0.79
0.16
0.17
0.18
0.23
0.16
0.2
0.19
0.78
0.8100000000000001
0.22
0.2
0.22
0.2
0.78
0.77
0.79
0.21
0.79
0.18
0.19
0.23
0.77
0.21
0.19
0.14
0.8300000000000001
0.19
0.18
0.8
0.15
0.8
0.18
0.22
0.8100000000000001
0.18
0.2
0.21
0.8100000000000001
0.21
0.19
0.23
0.8100000000000001
0.2
0.22
0.23
0.2
0.2
0.2
0.22
0.2
0.79
0.2
0.22
0.21
0.4
0.78
0.79
0.22
0.19
0.8200000000000001
0.16
0.79
0.18
0.17
0.79
0.22
0.23
0.2
0.21
0.19
0.8200000000000001
0.17
0.23
0.2
0.8200000000000001
0.21
0.2
0.84
0.2
0.23
0.2
0.2
0.21
0.19
0.17
0.19
0.8
0.79
0.16
0.2
0.23
0.23
0.15
0.79
0.18
0.78
0.18
0.2
0.22
0.22
0.79
0.23
0.19
0.79
0.78
0.23
0.8
0.2
0.84
0.8200000000000001
0.18
0.16
0.19
0.2
0.17
0.2
0.2
0.2
0.8100000000000001
0.8100000000000001
0.77
0.8300000000000001
0.78
0.8
0.8
0.8
0.8
0.85
0.8
0.8
0.8
0.8
0.8
0.2
0.85
0.8300000000000001
0.8100000000000001
0.8
0.2
0.8300000000000001
0.84
0.8
0.8
0.8100000000000001
0.8
0.72
0.8
0.8
0.85
0.28
0.79
0.8
0.8
0.8100000000000001
0.84
0.8100000000000001
0.85
0.79
0.84
0.72
0.8300000000000001
0.18
0.15
0.8200000000000001
0.84
0.77
0.8100000000000001
0.8200000000000001
0.8
0.8
0.8100000000000001
0.86
0.8
0.78
0.78
0.13
0.8100000000000001
0.79
0.8
0.78
0.8100000000000001
0.19
0.84
0.8100000000000001
0.8300000000000001
0.78
0.86
0.79
0.8
0.8100000000000001
0.2
0.8300000000000001
0.86
0.8300000000000001
0.8300000000000001
0.85
0.84
0.8100000000000001
0.87
0.21
0.8200000000000001
0.84
0.8200000000000001
0.8
0.77
0.8300000000000001
0.17
0.78
0.17
0.8200000000000001
0.84
0.85
0.84
0.8
0.79
0.8200000000000001
0.8
0.8200000000000001
0.8200000000000001
0.84
0.84
0.8200000000000001
0.78
0.8
0.86
0.8
0.8
0.8100000000000001
0.18
0.16
0.86
0.78
0.75
0.8200000000000001
0.77
0.78
0.85
0.16
0.84
0.85
0.8300000000000001
0.19
0.79
0.8200000000000001
0.8100000000000001
0.8
0.8
0.79
0.21
0.2
0.77
0.84
0.8300000000000001
0.2
0.8200000000000001
0.17
0.8200000000000001
0.17
0.8200000000000001
0.8
0.19
0.8
0.8300000000000001
0.18
0.86
0.2
0.8
0.19
0.8
0.8
0.8100000000000001
0.15
0.23
0.8
0.73
0.64
0.2
0.8
0.8
0.84
0.6900000000000001
0.8
0.79
0.21
0.8
0.8200000000000001
0.2
0.78
0.17
0.8100000000000001
0.2
0.87
0.19
0.8100000000000001
0.78
0.17
0.8
0.8200000000000001
0.21
0.8200000000000001
0.26
0.2
0.8300000000000001
0.8300000000000001
0.21
0.8100000000000001
0.17
0.8
0.18
0.8100000000000001
0.8100000000000001
0.77
0.8100000000000001
0.8200000000000001
0.8300000000000001
0.8200000000000001
0.78
0.79
0.77
0.21
0.77
0.78
0.8
0.8
0.8
0.8
0.8
0.8
0.63
0.8
0.8
0.21
0.71
0.8300000000000001
0.79
0.84
0.43
0.2
0.2
0.2
0.8100000000000001
0.35
0.39
0.8
0.85
0.2
0.66
0.8
0.79
0.77
0.78
0.8
0.85
0.85
0.8
0.84
0.8
0.8100000000000001
0.8
0.78
0.8
0.85
0.8100000000000001
0.8
0.79
0.22
0.84
0.87
0.8
0.84
0.8200000000000001
0.85
0.85
0.17
0.79
0.8
0.8100000000000001
0.86
0.18
0.78
0.78
0.78
0.78
0.16
0.8
0.2
0.21
0.79
0.21
0.2
0.8100000000000001
0.8
0.18
0.79
0.8300000000000001
0.8300000000000001
0.12
0.8100000000000001
0.2
0.15
0.85
0.8
0.19
0.16
0.84
0.8200000000000001
0.8
0.8
0.19
0.16
0.79
0.84
0.87
0.79
0.8
0.8200000000000001
0.62
0.84
0.84
0.85
0.8100000000000001
0.79
0.86
0.8200000000000001
0.8
0.8100000000000001
0.8200000000000001
0.8200000000000001
0.8200000000000001
0.79
0.78
0.87
0.8200000000000001
0.18
0.18
0.8300000000000001
0.2
0.68
0.8200000000000001
0.8100000000000001
0.79
0.8200000000000001
0.8
0.2
0.79
0.19
0.19
0.8100000000000001
0.8200000000000001
0.84
0.8100000000000001
0.78
0.8100000000000001
0.84
0.2
0.8100000000000001
0.85
0.79
0.8200000000000001
0.8100000000000001
0.8300000000000001
0.8
0.8100000000000001
0.23
0.8200000000000001
0.19
0.2
0.2
0.77
0.23
0.8
0.19
0.21
0.18
0.79
0.17
0.21
0.21
0.17
0.2
0.21
0.15
0.21
0.78
0.23
0.21
0.16
0.18
0.22
0.21
0.22
0.21
0.17
0.18
0.18
0.19
0.17
0.2
0.18
0.19
0.23
0.8200000000000001
0.19
0.79
0.19
0.78
0.22
0.8
0.8100000000000001
0.2
0.17
0.19
0.84
0.17
0.19
0.16
0.22
0.8200000000000001
0.19
0.78
0.2
0.8200000000000001
0.79
0.21
0.22
0.19
0.8
0.21
0.8
0.21
0.22
0.77
0.85
0.8100000000000001
0.21
0.77
0.87
0.8100000000000001
0.8
0.8300000000000001
0.19
0.8100000000000001
0.18
0.22
0.2
0.17
0.21
0.22
0.21
0.84
0.22
0.22
0.23
0.23
0.17
0.21
0.18
0.22
0.2
0.8
0.18
0.2
0.23
0.22
0.2
0.23
0.2
0.2
0.8200000000000001
0.23
0.19
0.22
0.2
0.17
0.79
0.21
0.19
0.2
0.19
0.16
0.18
0.21
0.22
0.22
0.8
0.19
0.2
0.18
0.2
0.21
0.19
0.18
0.23
0.8300000000000001
0.18
0.22
0.21
0.19
0.2
0.18
0.19
0.22
0.2
0.21
0.78
0.85
0.2
0.18
0.17
0.19
0.8
0.78
0.8
0.19
0.17
0.77
0.22
0.22
0.22
0.2
0.2
0.22
0.19
0.17
0.13
0.8100000000000001
0.21
0.2
0.23
0.21
0.23
0.22
0.19
0.17
0.22
0.22
0.23
0.77
0.21
0.19
0.21
0.23
0.23
0.18
0.22
0.16
0.78
0.22
0.22
0.21
0.22
0.22
0.23
0.21
0.23
0.2
0.37
0.18
0.23
0.78
0.21
0.23
0.19
0.19
0.78
0.16
0.79
0.19
0.17
0.84
0.2
0.18
0.19
0.21
0.21
0.22
0.21
0.23
0.8300000000000001
0.21
0.19
0.19
0.77
0.19
0.22
0.16
0.23
0.79
0.23
0.17
0.19
0.31
0.2
0.22
0.2
0.19
0.21
0.18
0.23
0.18
0.23
0.35
0.21
0.21
0.17
0.2
0.22
0.79
0.21
0.23
0.22
0.8
0.78
0.18
0.18
0.22
0.2
0.2
0.2
0.21
0.22
0.21
0.79
0.23
0.22
0.78
0.21
0.21
0.21
0.21
0.22
0.79
0.18
0.84
0.23
0.22
0.18
0.22
0.79
0.22
0.22
0.19
0.79
0.77
0.22
0.22
0.8
0.19
0.21
0.22
0.8100000000000001
0.21
0.2
0.21
0.79
0.2
0.22
0.23
0.2
0.78
0.22
0.22
0.23
0.2
0.78
0.8
0.8100000000000001
0.18
0.77
0.23
0.77
0.78
0.21
0.21
0.8
0.22
0.8100000000000001
0.23
0.16
0.19
0.8100000000000001
0.77
0.2
0.21
0.8100000000000001
0.19
0.22
0.18
0.21
0.79
0.77
0.22
0.18
0.2
0.77
0.2
0.77
0.22
0.15
0.78
0.2
0.2
0.23
0.2
0.2
0.78
0.78
0.16
0.79
0.2
0.78
0.78
0.22
0.33
0.8
0.2
0.41
0.16
0.8100000000000001
0.21
0.23
0.16
0.15
0.17
0.77
0.8
0.21
0.79
0.2
0.21
0.2
0.78
0.8
0.23
0.77
0.77
0.2
0.22
0.21
0.78
0.18
0.19
0.23
0.23
0.21
0.19
0.19
0.2
0.22
0.21
0.19
0.22
0.23
0.22
0.15
0.15
0.8
0.2
0.21
0.22
0.17
0.8
0.23
0.21
0.2
0.79
0.16
0.2
0.2
0.21
0.22
0.77
0.23
0.17
0.8
0.21
0.8
0.2
0.15
0.78
0.79
0.19
0.22
0.2
0.79
0.8
0.19
0.8200000000000001
0.2
0.19
0.2
0.22
0.22
0.19
0.29
0.79
0.18
0.77
0.78
0.2
0.2
0.22
0.77
0.21
0.23
0.23
0.2
0.2
0.77
0.84
0.23
0.8200000000000001
0.8300000000000001
0.2
0.22
0.17
0.21
0.26
0.2
0.19
0.23
0.8
0.2
0.2
0.17
0.2
0.23
0.2
0.23
0.21
0.78
0.2
0.19
0.18
0.23
0.19
0.19
0.23
0.23
0.23
0.21
0.17
0.19
0.78
0.2
0.2
0.79
0.8
0.78
0.79
0.84
0.79
0.79
0.18
0.8
0.8
0.8
0.8
0.8
0.8
0.8
0.8
0.8
0.79
0.8
0.19
0.17
0.86
0.8
0.8200000000000001
0.8100000000000001
0.8300000000000001
0.78
0.77
0.38
0.8300000000000001
0.8
0.8
0.8
0.8100000000000001
0.78
0.84
0.8
0.8200000000000001
0.23
0.86
0.22
0.79
0.8100000000000001
0.77
0.86
0.77
0.8
0.2
0.77
0.79
0.8
0.17
0.8100000000000001
0.8200000000000001
0.25
0.7000000000000001
0.79
0.35
0.77
0.79
0.21
0.2
0.78
0.78
0.22
0.78
0.85
0.8
0.22
0.18
0.8
0.78
0.78
0.8300000000000001
0.23
0.8100000000000001
0.78
0.78
0.8100000000000001
0.8300000000000001
0.52
0.28
0.8
0.8
0.2
0.2
0.2
0.2
0.23
0.8
0.23
0.19
0.8
0.2
0.78
0.73
0.3
0.51
0.2
0.2
0.8
0.78
0.8
0.8
0.6900000000000001
0.8
0.2
0.8
0.8
0.78
0.78
0.8300000000000001
0.79
0.8
0.8
0.2
0.8
0.8
0.72
0.8
0.8
0.23
0.22
0.8
0.8
0.77
0.8
0.79
0.71
0.25
0.8
0.71
0.8
0.76
0.88
0.78
0.6
0.2
0.19
0.77
0.8100000000000001
0.2
0.21
0.22
0.77
0.8300000000000001
0.8
0.22
0.22
0.21
0.8300000000000001
0.8100000000000001
0.87
0.8200000000000001
0.19
0.85
0.8
0.21
0.77
0.8300000000000001
0.8
0.78
0.79
0.18
0.22
0.8200000000000001
0.79
0.21
0.8200000000000001
0.8
0.22
0.21
0.79
0.2
0.78
0.78
0.22
0.79
0.19
0.8200000000000001
0.22
0.79
0.8100000000000001
0.78
0.8
0.85
0.8300000000000001
0.77
0.19
0.14
0.79
0.78
0.79
0.21
0.77
0.21
0.78
0.2
0.2
0.23
0.8100000000000001
0.34
0.8
0.18
0.78
0.84
0.8200000000000001
0.8300000000000001
0.2
0.77
0.17
0.22
0.8
0.21
0.13
0.19
0.78
0.79
0.21
0.2
0.22
0.19
0.35
0.2
0.2
0.22
0.24
0.47
0.36
0.2
0.36
0.2
0.21
0.34
0.2
0.2
0.34
0.2
0.26
0.2
0.28
0.23
0.8
0.8
0.8
0.8
0.2

forceimprovementnum 1
maxthreads 4
