%TF.GenerationSoftware,KiCad,Pcbnew,9.0.4*%
%TF.CreationDate,2025-10-22T15:58:22-07:00*%
%TF.ProjectId,test,74657374-2e6b-4696-9361-645f70636258,rev?*%
%TF.SameCoordinates,Original*%
%TF.FileFunction,Copper,L1,Top*%
%TF.FilePolarity,Positive*%
%FSLAX46Y46*%
G04 Gerber Fmt 4.6, Leading zero omitted, Abs format (unit mm)*
G04 Created by KiCad (PCBNEW 9.0.4) date 2025-10-22 15:58:22*
%MOMM*%
%LPD*%
G01*
G04 APERTURE LIST*
G04 Aperture macros list*
%AMRoundRect*
0 Rectangle with rounded corners*
0 $1 Rounding radius*
0 $2 $3 $4 $5 $6 $7 $8 $9 X,Y pos of 4 corners*
0 Add a 4 corners polygon primitive as box body*
4,1,4,$2,$3,$4,$5,$6,$7,$8,$9,$2,$3,0*
0 Add four circle primitives for the rounded corners*
1,1,$1+$1,$2,$3*
1,1,$1+$1,$4,$5*
1,1,$1+$1,$6,$7*
1,1,$1+$1,$8,$9*
0 Add four rect primitives between the rounded corners*
20,1,$1+$1,$2,$3,$4,$5,0*
20,1,$1+$1,$4,$5,$6,$7,0*
20,1,$1+$1,$6,$7,$8,$9,0*
20,1,$1+$1,$8,$9,$2,$3,0*%
G04 Aperture macros list end*
%TA.AperFunction,EtchedComponent*%
%ADD10C,0.540004*%
%TD*%
%TA.AperFunction,EtchedComponent*%
%ADD11C,1.066800*%
%TD*%
%TA.AperFunction,EtchedComponent*%
%ADD12C,0.076200*%
%TD*%
%TA.AperFunction,EtchedComponent*%
%ADD13C,0.367792*%
%TD*%
%TA.AperFunction,EtchedComponent*%
%ADD14C,0.774446*%
%TD*%
%TA.AperFunction,SMDPad,CuDef*%
%ADD15R,1.066800X1.066800*%
%TD*%
%TA.AperFunction,SMDPad,CuDef*%
%ADD16C,1.066800*%
%TD*%
%TA.AperFunction,SMDPad,CuDef*%
%ADD17RoundRect,0.135001X-0.185039X-0.135001X0.185039X-0.135001X0.185039X0.135001X-0.185039X0.135001X0*%
%TD*%
%TA.AperFunction,SMDPad,CuDef*%
%ADD18R,1.524000X1.066800*%
%TD*%
%TA.AperFunction,Conductor*%
%ADD19C,1.066800*%
%TD*%
G04 APERTURE END LIST*
D10*
%TO.C,WPD1*%
X193268600Y-76332080D02*
X194050602Y-76360020D01*
X193268600Y-77398880D02*
X194005200Y-77373480D01*
D11*
X196850000Y-75879960D02*
X196453760Y-76090780D01*
X196850000Y-77851000D02*
X196453760Y-77640180D01*
D12*
X195995290Y-75783440D02*
X196449950Y-75783440D01*
X196449950Y-76586080D01*
X195995290Y-76586080D01*
X195995290Y-75783440D01*
%TA.AperFunction,EtchedComponent*%
G36*
X195995290Y-75783440D02*
G01*
X196449950Y-75783440D01*
X196449950Y-76586080D01*
X195995290Y-76586080D01*
X195995290Y-75783440D01*
G37*
%TD.AperFunction*%
X195995290Y-77144880D02*
X196449950Y-77144880D01*
X196449950Y-77947520D01*
X195995290Y-77947520D01*
X195995290Y-77144880D01*
%TA.AperFunction,EtchedComponent*%
G36*
X195995290Y-77144880D02*
G01*
X196449950Y-77144880D01*
X196449950Y-77947520D01*
X195995290Y-77947520D01*
X195995290Y-77144880D01*
G37*
%TD.AperFunction*%
D13*
X191110720Y-76408280D02*
G75*
G02*
X193319402Y-76408280I1104341J0D01*
G01*
X193319400Y-77322680D02*
G75*
G02*
X191110722Y-77322680I-1104339J0D01*
G01*
D14*
X194026663Y-76238227D02*
G75*
G02*
X195946892Y-76238226I960115J-554322D01*
G01*
X195946893Y-77492733D02*
G75*
G02*
X194026667Y-77492732I-960113J554323D01*
G01*
%TD*%
D15*
%TO.P,WPD1,1,In*%
%TO.N,Net-(U1-port1)*%
X190762486Y-76865480D03*
D16*
%TO.P,WPD1,2,PD1*%
%TO.N,Net-(U2-port2)*%
X196850000Y-75879960D03*
%TO.P,WPD1,3,PD2*%
%TO.N,Net-(U3-port2)*%
X196850000Y-77851000D03*
D17*
%TO.P,WPD1,4,R1*%
%TO.N,unconnected-(WPD1-R1-Pad4)*%
X193319400Y-76355448D03*
%TO.P,WPD1,5,R1*%
%TO.N,unconnected-(WPD1-R1-Pad5)*%
X193319400Y-77375512D03*
%TO.P,WPD1,6,R2*%
%TO.N,unconnected-(WPD1-R2-Pad6)*%
X195946893Y-76355448D03*
%TO.P,WPD1,7,R2*%
%TO.N,unconnected-(WPD1-R2-Pad7)*%
X195946893Y-77375512D03*
%TD*%
D18*
%TO.P,U1,1,port1*%
%TO.N,Net-(U1-port1)*%
X180213000Y-76835000D03*
%TD*%
%TO.P,U2,1,port2*%
%TO.N,Net-(U2-port2)*%
X216924486Y-66172080D03*
%TD*%
%TO.P,U3,1,port2*%
%TO.N,Net-(U3-port2)*%
X216924486Y-87558880D03*
%TD*%
D19*
%TO.N,Net-(U3-port2)*%
X196850000Y-77851000D02*
X205359000Y-87563960D01*
X205359000Y-87563960D02*
X216924486Y-87558880D01*
%TO.N,Net-(U2-port2)*%
X205359000Y-66167000D02*
X216924486Y-66172080D01*
X196850000Y-75879960D02*
X205359000Y-66167000D01*
%TO.N,Net-(U1-port1)*%
X190762486Y-76865480D02*
X180213000Y-76835000D01*
%TD*%
M02*
