  0
SECTION
  2
HEADER
  9
$ANGBASE
  50
0.0
  9
$ANGDIR
  70
1
  9
$MEASUREMENT
  70
0
  0
ENDSEC
  0
SECTION
  2
TABLES
  0
TABLE
  2
LTYPE
  70
4
  0
LTYPE
  5
40F
  2
CONTINUOUS
  70
0
  3
Solid line
  72
65
  73
0
  40
0.0
  0
LTYPE
  5
410
  2
DASHDOT
 70
0
  3
Dash Dot ____ _ ____ _
 72
65
 73
4
 40
2.0
 49
1.25
 49
-0.25
 49
0.25
 49
-0.25
  0
LTYPE
  5
411
  2
DASHED
 70
0
  3
Dashed __ __ __ __ __
 72
65
 73
2
 40
0.75
 49
0.5
 49
-0.25
  0
LTYPE
  5
43B
  2
DOTTED
 70
0
  3
Dotted .  .  .  .
 72
65
 73
2
 40
0.2
 49
0.0
 49
-0.2
  0
ENDTAB
  0
TABLE
  2
STYLE
  70
4
  0
STYLE
  2
KICAD
  70
0
  40
0
  41
1
  42
1
  50
0
  71
0
  3
isocp.shx
  0
STYLE
  2
KICADB
  70
0
  40
0
  41
1
  42
1
  50
0
  71
0
  3
isocp.shx
  0
STYLE
  2
KICADI
  70
0
  40
0
  41
1
  42
1
  50
15
  71
0
  3
isocp.shx
  0
STYLE
  2
KICADBI
  70
0
  40
0
  41
1
  42
1
  50
15
  71
0
  3
isocp.shx
  0
ENDTAB
  0
TABLE
  2
LAYER
  70
1
  0
LAYER
  2
BLACK
  70
0
  62
7
  6
CONTINUOUS
  0
ENDTAB
  0
ENDSEC
  0
SECTION
  2
ENTITIES
0
LINE
8
BLACK
6
CONTINUOUS
10
7.1673629133858263
20
-2.7590499999999998
11
7.1875499999999999
21
-2.7590499999999998
0
LINE
8
BLACK
6
CONTINUOUS
10
7.1875499999999999
20
-2.7590499999999998
11
7.1875499999999999
21
-2.8009499999999998
0
LINE
8
BLACK
6
CONTINUOUS
10
7.1875499999999999
20
-2.8009499999999998
11
7.1673629133858263
21
-2.8009499999999998
0
LINE
8
BLACK
6
CONTINUOUS
10
7.1673629133858263
20
-2.8009499999999998
11
7.1665999999999999
21
-2.8010000000000002
0
LINE
8
BLACK
6
CONTINUOUS
10
7.1665999999999999
20
-2.8010000000000002
11
7.0952985039370073
21
-2.8010000000000002
0
LINE
8
BLACK
6
CONTINUOUS
10
7.0952985039370073
20
-2.8010000000000002
11
6.8524492519685039
21
-3.0438492519685041
0
LINE
8
BLACK
6
CONTINUOUS
10
6.8524492519685039
20
-3.0438492519685041
11
6.8503839763779526
21
-3.0456604330708661
0
LINE
8
BLACK
6
CONTINUOUS
10
6.8503839763779526
20
-3.0456604330708661
11
6.8501028346456687
21
-3.045822716535433
0
LINE
8
BLACK
6
CONTINUOUS
10
6.8501028346456687
20
-3.045822716535433
11
6.8498664173228345
21
-3.0460450787401574
0
LINE
8
BLACK
6
CONTINUOUS
10
6.8498664173228345
20
-3.0460450787401574
11
6.8477327165354325
21
-3.0471911023622047
0
LINE
8
BLACK
6
CONTINUOUS
10
6.8477327165354325
20
-3.0471911023622047
11
6.8456363385826773
21
-3.0484014566929134
0
LINE
8
BLACK
6
CONTINUOUS
10
6.8456363385826773
20
-3.0484014566929134
11
6.8453229921259844
21
-3.0484853937007874
0
LINE
8
BLACK
6
CONTINUOUS
10
6.8453229921259844
20
-3.0484853937007874
11
6.8450368897637794
21
-3.0486390944881889
0
LINE
8
BLACK
6
CONTINUOUS
10
6.8450368897637794
20
-3.0486390944881889
11
6.8424098425196851
21
-3.0494417716535431
0
LINE
8
BLACK
6
CONTINUOUS
10
6.8424098425196851
20
-3.0494417716535431
11
6.8101098425196849
21
-3.0570417716535432
0
LINE
8
BLACK
6
CONTINUOUS
10
6.8101098425196849
20
-3.0570417716535432
11
6.8074004724409445
21
-3.0574946850393698
0
LINE
8
BLACK
6
CONTINUOUS
10
6.8074004724409445
20
-3.0574946850393698
11
6.8065450393700786
21
-3.0574683858267715
0
LINE
8
BLACK
6
CONTINUOUS
10
6.8065450393700786
20
-3.0574683858267715
11
6.8061349606299215
21
-3.0575499606299212
0
LINE
8
BLACK
6
CONTINUOUS
10
6.8061349606299215
20
-3.0575499606299212
11
6.7988501181102361
21
-3.0575499606299212
0
LINE
8
BLACK
6
CONTINUOUS
10
6.7988501181102361
20
-3.0575499606299212
11
6.7988499999999998
21
-3.05755
0
LINE
8
BLACK
6
CONTINUOUS
10
6.7988499999999998
20
-3.05755
11
6.7988498425196848
21
-3.0575499606299212
0
LINE
8
BLACK
6
CONTINUOUS
10
6.7988498425196848
20
-3.0575499606299212
11
6.7915649999999994
21
-3.05755
0
LINE
8
BLACK
6
CONTINUOUS
10
6.7915649999999994
20
-3.05755
11
6.7895310236220467
21
-3.0571454330708661
0
LINE
8
BLACK
6
CONTINUOUS
10
6.7895310236220467
20
-3.0571454330708661
11
6.7878067322834648
21
-3.0559932677165356
0
LINE
8
BLACK
6
CONTINUOUS
10
6.7878067322834648
20
-3.0559932677165356
11
6.7866545669291334
21
-3.0542689763779527
0
LINE
8
BLACK
6
CONTINUOUS
10
6.7866545669291334
20
-3.0542689763779527
11
6.7862500393700786
21
-3.0522349606299213
0
LINE
8
BLACK
6
CONTINUOUS
10
6.7862500393700786
20
-3.0522349606299213
11
6.7862499999999999
21
-3.0496906299212596
0
LINE
8
BLACK
6
CONTINUOUS
10
6.7862499999999999
20
-3.0496906299212596
11
6.7852023228346452
21
-3.0476344094488188
0
LINE
8
BLACK
6
CONTINUOUS
10
6.7852023228346452
20
-3.0476344094488188
11
6.7844999999999995
21
-3.0432000000000001
0
LINE
8
BLACK
6
CONTINUOUS
10
6.7844999999999995
20
-3.0432000000000001
11
6.7844999999999995
21
-3.039102874015748
0
LINE
8
BLACK
6
CONTINUOUS
10
6.7844999999999995
20
-3.039102874015748
11
6.7844053149606296
21
-3.038700472440945
0
LINE
8
BLACK
6
CONTINUOUS
10
6.7844053149606296
20
-3.038700472440945
11
6.7844830708661412
21
-3.0361694881889765
0
LINE
8
BLACK
6
CONTINUOUS
10
6.7844830708661412
20
-3.0361694881889765
11
6.7830133858267718
21
-3.0226559055118107
0
LINE
8
BLACK
6
CONTINUOUS
10
6.7830133858267718
20
-3.0226559055118107
11
6.780057559055118
21
-3.0092275984251966
0
LINE
8
BLACK
6
CONTINUOUS
10
6.780057559055118
20
-3.0092275984251966
11
6.7756672440944881
21
-2.9961975590551182
0
LINE
8
BLACK
6
CONTINUOUS
10
6.7756672440944881
20
-2.9961975590551182
11
6.7698938582677162
21
-2.9837185826771653
0
LINE
8
BLACK
6
CONTINUOUS
10
6.7698938582677162
20
-2.9837185826771653
11
6.7628050787401577
21
-2.971936968503937
0
LINE
8
BLACK
6
CONTINUOUS
10
6.7628050787401577
20
-2.971936968503937
11
6.7544840944881885
21
-2.9609908661417323
0
LINE
8
BLACK
6
CONTINUOUS
10
6.7544840944881885
20
-2.9609908661417323
11
6.7450283464566931
21
-2.9510085826771655
0
LINE
8
BLACK
6
CONTINUOUS
10
6.7450283464566931
20
-2.9510085826771655
11
6.7345487795275591
21
-2.9421071653543307
0
LINE
8
BLACK
6
CONTINUOUS
10
6.7345487795275591
20
-2.9421071653543307
11
6.7231682283464567
21
-2.9343909448818897
0
LINE
8
BLACK
6
CONTINUOUS
10
6.7231682283464567
20
-2.9343909448818897
11
6.7110201181102358
21
-2.9279504330708659
0
LINE
8
BLACK
6
CONTINUOUS
10
6.7110201181102358
20
-2.9279504330708659
11
6.6982468897637792
21
-2.9228611023622046
0
LINE
8
BLACK
6
CONTINUOUS
10
6.6982468897637792
20
-2.9228611023622046
11
6.6849982677165354
21
-2.9191826377952754
0
LINE
8
BLACK
6
CONTINUOUS
10
6.6849982677165354
20
-2.9191826377952754
11
6.6714296062992124
21
-2.9169581889763778
0
LINE
8
BLACK
6
CONTINUOUS
10
6.6714296062992124
20
-2.9169581889763778
11
6.6577000000000002
21
-2.9162137795275589
0
LINE
8
BLACK
6
CONTINUOUS
10
6.6577000000000002
20
-2.9162137795275589
11
6.643970393700787
21
-2.9169581889763778
0
LINE
8
BLACK
6
CONTINUOUS
10
6.643970393700787
20
-2.9169581889763778
11
6.6304017322834641
21
-2.9191826377952754
0
LINE
8
BLACK
6
CONTINUOUS
10
6.6304017322834641
20
-2.9191826377952754
11
6.6171531102362202
21
-2.9228611023622046
0
LINE
8
BLACK
6
CONTINUOUS
10
6.6171531102362202
20
-2.9228611023622046
11
6.6043798818897637
21
-2.9279504330708659
0
LINE
8
BLACK
6
CONTINUOUS
10
6.6043798818897637
20
-2.9279504330708659
11
6.5922317716535428
21
-2.9343909448818897
0
LINE
8
BLACK
6
CONTINUOUS
10
6.5922317716535428
20
-2.9343909448818897
11
6.5808512204724412
21
-2.9421071653543307
0
LINE
8
BLACK
6
CONTINUOUS
10
6.5808512204724412
20
-2.9421071653543307
11
6.5703716535433072
21
-2.9510085826771655
0
LINE
8
BLACK
6
CONTINUOUS
10
6.5703716535433072
20
-2.9510085826771655
11
6.5609159055118109
21
-2.9609908661417323
0
LINE
8
BLACK
6
CONTINUOUS
10
6.5609159055118109
20
-2.9609908661417323
11
6.5525949212598427
21
-2.971936968503937
0
LINE
8
BLACK
6
CONTINUOUS
10
6.5525949212598427
20
-2.971936968503937
11
6.5455061417322833
21
-2.9837185826771653
0
LINE
8
BLACK
6
CONTINUOUS
10
6.5455061417322833
20
-2.9837185826771653
11
6.5397327559055114
21
-2.9961975590551182
0
LINE
8
BLACK
6
CONTINUOUS
10
6.5397327559055114
20
-2.9961975590551182
11
6.5353424409448815
21
-3.0092275984251966
0
LINE
8
BLACK
6
CONTINUOUS
10
6.5353424409448815
20
-3.0092275984251966
11
6.5323866141732285
21
-3.0226559055118107
0
LINE
8
BLACK
6
CONTINUOUS
10
6.5323866141732285
20
-3.0226559055118107
11
6.5308999999999999
21
-3.036325118110236
0
LINE
8
BLACK
6
CONTINUOUS
10
6.5308999999999999
20
-3.036325118110236
11
6.5308999999999999
21
-3.0432000000000001
0
LINE
8
BLACK
6
CONTINUOUS
10
6.5308999999999999
20
-3.0432000000000001
11
6.5307272440944883
21
-3.044290748031496
0
LINE
8
BLACK
6
CONTINUOUS
10
6.5307272440944883
20
-3.044290748031496
11
6.5307272440944883
21
-3.045073031496063
0
LINE
8
BLACK
6
CONTINUOUS
10
6.5307272440944883
20
-3.045073031496063
11
6.5304242519685038
21
-3.0462037401574804
0
LINE
8
BLACK
6
CONTINUOUS
10
6.5304242519685038
20
-3.0462037401574804
11
6.5301976771653543
21
-3.0476344094488188
0
LINE
8
BLACK
6
CONTINUOUS
10
6.5301976771653543
20
-3.0476344094488188
11
6.5298670472440943
21
-3.0482832677165352
0
LINE
8
BLACK
6
CONTINUOUS
10
6.5298670472440943
20
-3.0482832677165352
11
6.529757677165354
21
-3.0486914960629918
0
LINE
8
BLACK
6
CONTINUOUS
10
6.529757677165354
20
-3.0486914960629918
11
6.5289182677165352
21
-3.0501453149606297
0
LINE
8
BLACK
6
CONTINUOUS
10
6.5289182677165352
20
-3.0501453149606297
11
6.5281594094488185
21
-3.0516347244094488
0
LINE
8
BLACK
6
CONTINUOUS
10
6.5281594094488185
20
-3.0516347244094488
11
6.5279203543307087
21
-3.0518737401574803
0
LINE
8
BLACK
6
CONTINUOUS
10
6.5279203543307087
20
-3.0518737401574803
11
6.5278846062992129
21
-3.0519357086614174
0
LINE
8
BLACK
6
CONTINUOUS
10
6.5278846062992129
20
-3.0519357086614174
11
6.525235708661417
21
-3.0545846062992124
0
LINE
8
BLACK
6
CONTINUOUS
10
6.525235708661417
20
-3.0545846062992124
11
6.5251737401574799
21
-3.0546203543307087
0
LINE
8
BLACK
6
CONTINUOUS
10
6.5251737401574799
20
-3.0546203543307087
11
6.5249847244094488
21
-3.054809409448819
0
LINE
8
BLACK
6
CONTINUOUS
10
6.5249847244094488
20
-3.054809409448819
11
6.5238068503937008
21
-3.0554095275590551
0
LINE
8
BLACK
6
CONTINUOUS
10
6.5238068503937008
20
-3.0554095275590551
11
6.5219914960629923
21
-3.0564576771653544
0
LINE
8
BLACK
6
CONTINUOUS
10
6.5219914960629923
20
-3.0564576771653544
11
6.5214817716535434
21
-3.0565942519685039
0
LINE
8
BLACK
6
CONTINUOUS
10
6.5214817716535434
20
-3.0565942519685039
11
6.5209844094488192
21
-3.0568476771653543
0
LINE
8
BLACK
6
CONTINUOUS
10
6.5209844094488192
20
-3.0568476771653543
11
6.51988779527559
21
-3.0570213385826772
0
LINE
8
BLACK
6
CONTINUOUS
10
6.51988779527559
20
-3.0570213385826772
11
6.5183730314960631
21
-3.0574272440944883
0
LINE
8
BLACK
6
CONTINUOUS
10
6.5183730314960631
20
-3.0574272440944883
11
6.5165852755905513
21
-3.0575444094488189
0
LINE
8
BLACK
6
CONTINUOUS
10
6.5165852755905513
20
-3.0575444094488189
11
6.5165499999999996
21
-3.05755
0
LINE
8
BLACK
6
CONTINUOUS
10
6.5165499999999996
20
-3.05755
11
6.5165353543307081
21
-3.0575476771653545
0
LINE
8
BLACK
6
CONTINUOUS
10
6.5165353543307081
20
-3.0575476771653545
11
6.5164999999999997
21
-3.05755
0
LINE
8
BLACK
6
CONTINUOUS
10
6.5164999999999997
20
-3.05755
11
6.4935999999999998
21
-3.05755
0
LINE
8
BLACK
6
CONTINUOUS
10
6.4935999999999998
20
-3.05755
11
6.4935995275590548
21
-3.0575499606299212
0
LINE
8
BLACK
6
CONTINUOUS
10
6.4935995275590548
20
-3.0575499606299212
11
6.4823149999999998
21
-3.05755
0
LINE
8
BLACK
6
CONTINUOUS
10
6.4823149999999998
20
-3.05755
11
6.4802810236220472
21
-3.0571454330708661
0
LINE
8
BLACK
6
CONTINUOUS
10
6.4802810236220472
20
-3.0571454330708661
11
6.4785567322834643
21
-3.0559932677165356
0
LINE
8
BLACK
6
CONTINUOUS
10
6.4785567322834643
20
-3.0559932677165356
11
6.4774045669291338
21
-3.0542689763779527
0
LINE
8
BLACK
6
CONTINUOUS
10
6.4774045669291338
20
-3.0542689763779527
11
6.4770000393700782
21
-3.0522349606299213
0
LINE
8
BLACK
6
CONTINUOUS
10
6.4770000393700782
20
-3.0522349606299213
11
6.4769999999999994
21
-3.0416050000000001
0
LINE
8
BLACK
6
CONTINUOUS
10
6.4769999999999994
20
-3.0416050000000001
11
6.4774045669291338
21
-3.039571023622047
0
LINE
8
BLACK
6
CONTINUOUS
10
6.4774045669291338
20
-3.039571023622047
11
6.4785567322834643
21
-3.0378467322834646
0
LINE
8
BLACK
6
CONTINUOUS
10
6.4785567322834643
20
-3.0378467322834646
11
6.4802810236220472
21
-3.0366945669291336
0
LINE
8
BLACK
6
CONTINUOUS
10
6.4802810236220472
20
-3.0366945669291336
11
6.4810116141732284
21
-3.0365492519685038
0
LINE
8
BLACK
6
CONTINUOUS
10
6.4810116141732284
20
-3.0365492519685038
11
6.4811985433070864
21
-3.0362254330708662
0
LINE
8
BLACK
6
CONTINUOUS
10
6.4811985433070864
20
-3.0362254330708662
11
6.4802624015748034
21
-3.0270192913385827
0
LINE
8
BLACK
6
CONTINUOUS
10
6.4802624015748034
20
-3.0270192913385827
11
6.4773024803149601
21
-3.0126162204724407
0
LINE
8
BLACK
6
CONTINUOUS
10
6.4773024803149601
20
-3.0126162204724407
11
6.4729006299212593
21
-2.9985864566929132
0
LINE
8
BLACK
6
CONTINUOUS
10
6.4729006299212593
20
-2.9985864566929132
11
6.467101968503937
21
-2.9850740157480313
0
LINE
8
BLACK
6
CONTINUOUS
10
6.467101968503937
20
-2.9850740157480313
11
6.4599660629921258
21
-2.9722175590551179
0
LINE
8
BLACK
6
CONTINUOUS
10
6.4599660629921258
20
-2.9722175590551179
11
6.4515660629921259
21
-2.9601489763779525
0
LINE
8
BLACK
6
CONTINUOUS
10
6.4515660629921259
20
-2.9601489763779525
11
6.4419882283464567
21
-2.948992125984252
0
LINE
8
BLACK
6
CONTINUOUS
10
6.4419882283464567
20
-2.948992125984252
11
6.4313308267716538
21
-2.9388614960629922
0
LINE
8
BLACK
6
CONTINUOUS
10
6.4313308267716538
20
-2.9388614960629922
11
6.4197031889763778
21
-2.9298610236220473
0
LINE
8
BLACK
6
CONTINUOUS
10
6.4197031889763778
20
-2.9298610236220473
11
6.4072246456692916
21
-2.9220830708661416
0
LINE
8
BLACK
6
CONTINUOUS
10
6.4072246456692916
20
-2.9220830708661416
11
6.3940232283464562
21
-2.9156074803149608
0
LINE
8
BLACK
6
CONTINUOUS
10
6.3940232283464562
20
-2.9156074803149608
11
6.3802344488188973
21
-2.9105006692913387
0
LINE
8
BLACK
6
CONTINUOUS
10
6.3802344488188973
20
-2.9105006692913387
11
6.3659997637795271
21
-2.9068150393700787
0
LINE
8
BLACK
6
CONTINUOUS
10
6.3659997637795271
20
-2.9068150393700787
11
6.3514652362204727
21
-2.9045884645669289
0
LINE
8
BLACK
6
CONTINUOUS
10
6.3514652362204727
20
-2.9045884645669289
11
6.3367800000000001
21
-2.9038437007874016
0
LINE
8
BLACK
6
CONTINUOUS
10
6.3367800000000001
20
-2.9038437007874016
11
6.3220947637795275
21
-2.9045884645669289
0
LINE
8
BLACK
6
CONTINUOUS
10
6.3220947637795275
20
-2.9045884645669289
11
6.3075602362204721
21
-2.9068150393700787
0
LINE
8
BLACK
6
CONTINUOUS
10
6.3075602362204721
20
-2.9068150393700787
11
6.2933255511811019
21
-2.9105006692913387
0
LINE
8
BLACK
6
CONTINUOUS
10
6.2933255511811019
20
-2.9105006692913387
11
6.2795367716535431
21
-2.9156074803149608
0
LINE
8
BLACK
6
CONTINUOUS
10
6.2795367716535431
20
-2.9156074803149608
11
6.2663353543307085
21
-2.9220830708661416
0
LINE
8
BLACK
6
CONTINUOUS
10
6.2663353543307085
20
-2.9220830708661416
11
6.2538568110236223
21
-2.9298610236220473
0
LINE
8
BLACK
6
CONTINUOUS
10
6.2538568110236223
20
-2.9298610236220473
11
6.2422291732283464
21
-2.9388614960629922
0
LINE
8
BLACK
6
CONTINUOUS
10
6.2422291732283464
20
-2.9388614960629922
11
6.2315717716535435
21
-2.948992125984252
0
LINE
8
BLACK
6
CONTINUOUS
10
6.2315717716535435
20
-2.948992125984252
11
6.2219939370078743
21
-2.9601489763779525
0
LINE
8
BLACK
6
CONTINUOUS
10
6.2219939370078743
20
-2.9601489763779525
11
6.2135939370078734
21
-2.9722175590551179
0
LINE
8
BLACK
6
CONTINUOUS
10
6.2135939370078734
20
-2.9722175590551179
11
6.2064580314960631
21
-2.9850740157480313
0
LINE
8
BLACK
6
CONTINUOUS
10
6.2064580314960631
20
-2.9850740157480313
11
6.20065937007874
21
-2.9985864566929132
0
LINE
8
BLACK
6
CONTINUOUS
10
6.20065937007874
20
-2.9985864566929132
11
6.1962575196850391
21
-3.0126162204724407
0
LINE
8
BLACK
6
CONTINUOUS
10
6.1962575196850391
20
-3.0126162204724407
11
6.1932975984251968
21
-3.0270192913385827
0
LINE
8
BLACK
6
CONTINUOUS
10
6.1932975984251968
20
-3.0270192913385827
11
6.1918100000000003
21
-3.0416479527559055
0
LINE
8
BLACK
6
CONTINUOUS
10
6.1918100000000003
20
-3.0416479527559055
11
6.1918100000000003
21
-3.0459999999999998
0
LINE
8
BLACK
6
CONTINUOUS
10
6.1918100000000003
20
-3.0459999999999998
11
6.1920000000000002
21
-3.0459999999999998
0
LINE
8
BLACK
6
CONTINUOUS
10
6.1920000000000002
20
-3.0459999999999998
11
6.1920000000000002
21
-3.0880000000000001
0
LINE
8
BLACK
6
CONTINUOUS
10
6.1920000000000002
20
-3.0880000000000001
11
6.1918088188976377
21
-3.0880000000000001
0
LINE
8
BLACK
6
CONTINUOUS
10
6.1918088188976377
20
-3.0880000000000001
11
6.1918088188976377
21
-3.0923520866141732
0
LINE
8
BLACK
6
CONTINUOUS
10
6.1918088188976377
20
-3.0923520866141732
11
6.1932964173228342
21
-3.1069807874015747
0
LINE
8
BLACK
6
CONTINUOUS
10
6.1932964173228342
20
-3.1069807874015747
11
6.1962563385826774
21
-3.1213839370078738
0
LINE
8
BLACK
6
CONTINUOUS
10
6.1962563385826774
20
-3.1213839370078738
11
6.2006582283464562
21
-3.1354137401574804
0
LINE
8
BLACK
6
CONTINUOUS
10
6.2006582283464562
20
-3.1354137401574804
11
6.2064568897637793
21
-3.1489262598425194
0
LINE
8
BLACK
6
CONTINUOUS
10
6.2064568897637793
20
-3.1489262598425194
11
6.2135928346456692
21
-3.1617827559055116
0
LINE
8
BLACK
6
CONTINUOUS
10
6.2135928346456692
20
-3.1617827559055116
11
6.221992874015748
21
-3.1738514173228345
0
LINE
8
BLACK
6
CONTINUOUS
10
6.221992874015748
20
-3.1738514173228345
11
6.2315707480314959
21
-3.1850083070866142
0
LINE
8
BLACK
6
CONTINUOUS
10
6.2315707480314959
20
-3.1850083070866142
11
6.2422281889763775
21
-3.1951389763779527
0
LINE
8
BLACK
6
CONTINUOUS
10
6.2422281889763775
20
-3.1951389763779527
11
6.253855905511811
21
-3.2041394488188977
0
LINE
8
BLACK
6
CONTINUOUS
10
6.253855905511811
20
-3.2041394488188977
11
6.266334488188976
21
-3.2119174409448816
0
LINE
8
BLACK
6
CONTINUOUS
10
6.266334488188976
20
-3.2119174409448816
11
6.2795359448818893
21
-3.2183930708661417
0
LINE
8
BLACK
6
CONTINUOUS
10
6.2795359448818893
20
-3.2183930708661417
11
6.2933248031496065
21
-3.2234998818897638
0
LINE
8
BLACK
6
CONTINUOUS
10
6.2933248031496065
20
-3.2234998818897638
11
6.3075595275590546
21
-3.2271855118110238
0
LINE
8
BLACK
6
CONTINUOUS
10
6.3075595275590546
20
-3.2271855118110238
11
6.3220941338582675
21
-3.2294121259842519
0
LINE
8
BLACK
6
CONTINUOUS
10
6.3220941338582675
20
-3.2294121259842519
11
6.3367794094488188
21
-3.2301568897637796
0
LINE
8
BLACK
6
CONTINUOUS
10
6.3367794094488188
20
-3.2301568897637796
11
6.3514646850393701
21
-3.2294121259842519
0
LINE
8
BLACK
6
CONTINUOUS
10
6.3514646850393701
20
-3.2294121259842519
11
6.3659992913385821
21
-3.2271855118110238
0
LINE
8
BLACK
6
CONTINUOUS
10
6.3659992913385821
20
-3.2271855118110238
11
6.3802340157480311
21
-3.2234998818897638
0
LINE
8
BLACK
6
CONTINUOUS
10
6.3802340157480311
20
-3.2234998818897638
11
6.3940228740157483
21
-3.2183930708661417
0
LINE
8
BLACK
6
CONTINUOUS
10
6.3940228740157483
20
-3.2183930708661417
11
6.4072243307086616
21
-3.2119174409448816
0
LINE
8
BLACK
6
CONTINUOUS
10
6.4072243307086616
20
-3.2119174409448816
11
6.4197029133858265
21
-3.2041394488188977
0
LINE
8
BLACK
6
CONTINUOUS
10
6.4197029133858265
20
-3.2041394488188977
11
6.43133062992126
21
-3.1951389763779527
0
LINE
8
BLACK
6
CONTINUOUS
10
6.43133062992126
20
-3.1951389763779527
11
6.4419880708661417
21
-3.1850083070866142
0
LINE
8
BLACK
6
CONTINUOUS
10
6.4419880708661417
20
-3.1850083070866142
11
6.4515659448818896
21
-3.1738514173228345
0
LINE
8
BLACK
6
CONTINUOUS
10
6.4515659448818896
20
-3.1738514173228345
11
6.4599659842519683
21
-3.1617827559055116
0
LINE
8
BLACK
6
CONTINUOUS
10
6.4599659842519683
20
-3.1617827559055116
11
6.4671019291338583
21
-3.1489262598425194
0
LINE
8
BLACK
6
CONTINUOUS
10
6.4671019291338583
20
-3.1489262598425194
11
6.4729005905511814
21
-3.1354137401574804
0
LINE
8
BLACK
6
CONTINUOUS
10
6.4729005905511814
20
-3.1354137401574804
11
6.4773024803149601
21
-3.1213839370078738
0
LINE
8
BLACK
6
CONTINUOUS
10
6.4773024803149601
20
-3.1213839370078738
11
6.4802624015748034
21
-3.1069807874015747
0
LINE
8
BLACK
6
CONTINUOUS
10
6.4802624015748034
20
-3.1069807874015747
11
6.4811985826771652
21
-3.0977745669291337
0
LINE
8
BLACK
6
CONTINUOUS
10
6.4811985826771652
20
-3.0977745669291337
11
6.4810116141732284
21
-3.0974507480314961
0
LINE
8
BLACK
6
CONTINUOUS
10
6.4810116141732284
20
-3.0974507480314961
11
6.4802810236220472
21
-3.0973054330708663
0
LINE
8
BLACK
6
CONTINUOUS
10
6.4802810236220472
20
-3.0973054330708663
11
6.4785567322834643
21
-3.0961532677165353
0
LINE
8
BLACK
6
CONTINUOUS
10
6.4785567322834643
20
-3.0961532677165353
11
6.4774045669291338
21
-3.0944289763779529
0
LINE
8
BLACK
6
CONTINUOUS
10
6.4774045669291338
20
-3.0944289763779529
11
6.4770000393700782
21
-3.092394960629921
0
LINE
8
BLACK
6
CONTINUOUS
10
6.4770000393700782
20
-3.092394960629921
11
6.4769999999999994
21
-3.0817649999999999
0
LINE
8
BLACK
6
CONTINUOUS
10
6.4769999999999994
20
-3.0817649999999999
11
6.4774045669291338
21
-3.0797310236220472
0
LINE
8
BLACK
6
CONTINUOUS
10
6.4774045669291338
20
-3.0797310236220472
11
6.4785567322834643
21
-3.0780067322834643
0
LINE
8
BLACK
6
CONTINUOUS
10
6.4785567322834643
20
-3.0780067322834643
11
6.4802810236220472
21
-3.0768545669291338
0
LINE
8
BLACK
6
CONTINUOUS
10
6.4802810236220472
20
-3.0768545669291338
11
6.4823150393700786
21
-3.0764500393700787
0
LINE
8
BLACK
6
CONTINUOUS
10
6.4823150393700786
20
-3.0764500393700787
11
6.4935998425196848
21
-3.0764499999999999
0
LINE
8
BLACK
6
CONTINUOUS
10
6.4935998425196848
20
-3.0764499999999999
11
6.4935999999999998
21
-3.0764499999999999
0
LINE
8
BLACK
6
CONTINUOUS
10
6.4935999999999998
20
-3.0764499999999999
11
6.5165499999999996
21
-3.0764499999999999
0
LINE
8
BLACK
6
CONTINUOUS
10
6.5165499999999996
20
-3.0764499999999999
11
6.5184230314960629
21
-3.0765727559055116
0
LINE
8
BLACK
6
CONTINUOUS
10
6.5184230314960629
20
-3.0765727559055116
11
6.5200100787401576
21
-3.076997992125984
0
LINE
8
BLACK
6
CONTINUOUS
10
6.5200100787401576
20
-3.076997992125984
11
6.5209844094488192
21
-3.0771523228346456
0
LINE
8
BLACK
6
CONTINUOUS
10
6.5209844094488192
20
-3.0771523228346456
11
6.5214262992125986
21
-3.0773774803149605
0
LINE
8
BLACK
6
CONTINUOUS
10
6.5214262992125986
20
-3.0773774803149605
11
6.5220414960629922
21
-3.0775423228346455
0
LINE
8
BLACK
6
CONTINUOUS
10
6.5220414960629922
20
-3.0775423228346455
11
6.524232440944882
21
-3.0788072834645668
0
LINE
8
BLACK
6
CONTINUOUS
10
6.524232440944882
20
-3.0788072834645668
11
6.5249847244094488
21
-3.0791905905511809
0
LINE
8
BLACK
6
CONTINUOUS
10
6.5249847244094488
20
-3.0791905905511809
11
6.5251054330708662
21
-3.0793112992125984
0
LINE
8
BLACK
6
CONTINUOUS
10
6.5251054330708662
20
-3.0793112992125984
11
6.5252857086614169
21
-3.0794153937007875
0
LINE
8
BLACK
6
CONTINUOUS
10
6.5252857086614169
20
-3.0794153937007875
11
6.5279346062992127
21
-3.0820642913385825
0
LINE
8
BLACK
6
CONTINUOUS
10
6.5279346062992127
20
-3.0820642913385825
11
6.5280386614173223
21
-3.0822445275590549
0
LINE
8
BLACK
6
CONTINUOUS
10
6.5280386614173223
20
-3.0822445275590549
11
6.5281594094488185
21
-3.0823652755905511
0
LINE
8
BLACK
6
CONTINUOUS
10
6.5281594094488185
20
-3.0823652755905511
11
6.5285426771653539
21
-3.0831175196850391
0
LINE
8
BLACK
6
CONTINUOUS
10
6.5285426771653539
20
-3.0831175196850391
11
6.5298076771653539
21
-3.0853085039370076
0
LINE
8
BLACK
6
CONTINUOUS
10
6.5298076771653539
20
-3.0853085039370076
11
6.5299724803149601
21
-3.0859236614173229
0
LINE
8
BLACK
6
CONTINUOUS
10
6.5299724803149601
20
-3.0859236614173229
11
6.5301976771653543
21
-3.0863655905511811
0
LINE
8
BLACK
6
CONTINUOUS
10
6.5301976771653543
20
-3.0863655905511811
11
6.5303519685039371
21
-3.0873398818897635
0
LINE
8
BLACK
6
CONTINUOUS
10
6.5303519685039371
20
-3.0873398818897635
11
6.5307772440944882
21
-3.0889269685039369
0
LINE
8
BLACK
6
CONTINUOUS
10
6.5307772440944882
20
-3.0889269685039369
11
6.5307772440944882
21
-3.0900249212598423
0
LINE
8
BLACK
6
CONTINUOUS
10
6.5307772440944882
20
-3.0900249212598423
11
6.5308999999999999
21
-3.0907999999999998
0
LINE
8
BLACK
6
CONTINUOUS
10
6.5308999999999999
20
-3.0907999999999998
11
6.5308999999999999
21
-3.0976748818897639
0
LINE
8
BLACK
6
CONTINUOUS
10
6.5308999999999999
20
-3.0976748818897639
11
6.5323866141732285
21
-3.1113440944881887
0
LINE
8
BLACK
6
CONTINUOUS
10
6.5323866141732285
20
-3.1113440944881887
11
6.5353424409448815
21
-3.1247724015748033
0
LINE
8
BLACK
6
CONTINUOUS
10
6.5353424409448815
20
-3.1247724015748033
11
6.5397327559055114
21
-3.1378024409448817
0
LINE
8
BLACK
6
CONTINUOUS
10
6.5397327559055114
20
-3.1378024409448817
11
6.5455061417322833
21
-3.1502814173228346
0
LINE
8
BLACK
6
CONTINUOUS
10
6.5455061417322833
20
-3.1502814173228346
11
6.5525949212598427
21
-3.1620630314960629
0
LINE
8
BLACK
6
CONTINUOUS
10
6.5525949212598427
20
-3.1620630314960629
11
6.5609159055118109
21
-3.1730091338582675
0
LINE
8
BLACK
6
CONTINUOUS
10
6.5609159055118109
20
-3.1730091338582675
11
6.5703716535433072
21
-3.1829914173228344
0
LINE
8
BLACK
6
CONTINUOUS
10
6.5703716535433072
20
-3.1829914173228344
11
6.5808512204724412
21
-3.1918928346456692
0
LINE
8
BLACK
6
CONTINUOUS
10
6.5808512204724412
20
-3.1918928346456692
11
6.5922317716535428
21
-3.1996090551181102
0
LINE
8
BLACK
6
CONTINUOUS
10
6.5922317716535428
20
-3.1996090551181102
11
6.6043798818897637
21
-3.2060495669291336
0
LINE
8
BLACK
6
CONTINUOUS
10
6.6043798818897637
20
-3.2060495669291336
11
6.6171531102362202
21
-3.2111388976377953
0
LINE
8
BLACK
6
CONTINUOUS
10
6.6171531102362202
20
-3.2111388976377953
11
6.6304017322834641
21
-3.2148173622047245
0
LINE
8
BLACK
6
CONTINUOUS
10
6.6304017322834641
20
-3.2148173622047245
11
6.643970393700787
21
-3.2170418110236221
0
LINE
8
BLACK
6
CONTINUOUS
10
6.643970393700787
20
-3.2170418110236221
11
6.6577000000000002
21
-3.217786220472441
0
LINE
8
BLACK
6
CONTINUOUS
10
6.6577000000000002
20
-3.217786220472441
11
6.6714296062992124
21
-3.2170418110236221
0
LINE
8
BLACK
6
CONTINUOUS
10
6.6714296062992124
20
-3.2170418110236221
11
6.6849982677165354
21
-3.2148173622047245
0
LINE
8
BLACK
6
CONTINUOUS
10
6.6849982677165354
20
-3.2148173622047245
11
6.6982468897637792
21
-3.2111388976377953
0
LINE
8
BLACK
6
CONTINUOUS
10
6.6982468897637792
20
-3.2111388976377953
11
6.7110201181102358
21
-3.2060495669291336
0
LINE
8
BLACK
6
CONTINUOUS
10
6.7110201181102358
20
-3.2060495669291336
11
6.7231682283464567
21
-3.1996090551181102
0
LINE
8
BLACK
6
CONTINUOUS
10
6.7231682283464567
20
-3.1996090551181102
11
6.7345487795275591
21
-3.1918928346456692
0
LINE
8
BLACK
6
CONTINUOUS
10
6.7345487795275591
20
-3.1918928346456692
11
6.7450283464566931
21
-3.1829914173228344
0
LINE
8
BLACK
6
CONTINUOUS
10
6.7450283464566931
20
-3.1829914173228344
11
6.7544840944881885
21
-3.1730091338582675
0
LINE
8
BLACK
6
CONTINUOUS
10
6.7544840944881885
20
-3.1730091338582675
11
6.7628050787401577
21
-3.1620630314960629
0
LINE
8
BLACK
6
CONTINUOUS
10
6.7628050787401577
20
-3.1620630314960629
11
6.7698938582677162
21
-3.1502814173228346
0
LINE
8
BLACK
6
CONTINUOUS
10
6.7698938582677162
20
-3.1502814173228346
11
6.7756672440944881
21
-3.1378024409448817
0
LINE
8
BLACK
6
CONTINUOUS
10
6.7756672440944881
20
-3.1378024409448817
11
6.780057559055118
21
-3.1247724015748033
0
LINE
8
BLACK
6
CONTINUOUS
10
6.780057559055118
20
-3.1247724015748033
11
6.7830133858267718
21
-3.1113440944881887
0
LINE
8
BLACK
6
CONTINUOUS
10
6.7830133858267718
20
-3.1113440944881887
11
6.7844830708661412
21
-3.0978304724409447
0
LINE
8
BLACK
6
CONTINUOUS
10
6.7844830708661412
20
-3.0978304724409447
11
6.7844053149606296
21
-3.0952995275590549
0
LINE
8
BLACK
6
CONTINUOUS
10
6.7844053149606296
20
-3.0952995275590549
11
6.7844999999999995
21
-3.0948970866141732
0
LINE
8
BLACK
6
CONTINUOUS
10
6.7844999999999995
20
-3.0948970866141732
11
6.7844999999999995
21
-3.0907999999999998
0
LINE
8
BLACK
6
CONTINUOUS
10
6.7844999999999995
20
-3.0907999999999998
11
6.7852023228346452
21
-3.0863655905511811
0
LINE
8
BLACK
6
CONTINUOUS
10
6.7852023228346452
20
-3.0863655905511811
11
6.7862499999999999
21
-3.0843093700787403
0
LINE
8
BLACK
6
CONTINUOUS
10
6.7862499999999999
20
-3.0843093700787403
11
6.7862499999999999
21
-3.0817649999999999
0
LINE
8
BLACK
6
CONTINUOUS
10
6.7862499999999999
20
-3.0817649999999999
11
6.7866545669291334
21
-3.0797310236220472
0
LINE
8
BLACK
6
CONTINUOUS
10
6.7866545669291334
20
-3.0797310236220472
11
6.7878067322834648
21
-3.0780067322834643
0
LINE
8
BLACK
6
CONTINUOUS
10
6.7878067322834648
20
-3.0780067322834643
11
6.7895310236220467
21
-3.0768545669291338
0
LINE
8
BLACK
6
CONTINUOUS
10
6.7895310236220467
20
-3.0768545669291338
11
6.7915650393700782
21
-3.0764500393700787
0
LINE
8
BLACK
6
CONTINUOUS
10
6.7915650393700782
20
-3.0764500393700787
11
6.7988498425196848
21
-3.0764499999999999
0
LINE
8
BLACK
6
CONTINUOUS
10
6.7988498425196848
20
-3.0764499999999999
11
6.7988499999999998
21
-3.0764499999999999
0
LINE
8
BLACK
6
CONTINUOUS
10
6.7988499999999998
20
-3.0764499999999999
11
6.7988501181102361
21
-3.0764499999999999
0
LINE
8
BLACK
6
CONTINUOUS
10
6.7988501181102361
20
-3.0764499999999999
11
6.8061350000000003
21
-3.0764499999999999
0
LINE
8
BLACK
6
CONTINUOUS
10
6.8061350000000003
20
-3.0764499999999999
11
6.8065451968503936
21
-3.0765315748031496
0
LINE
8
BLACK
6
CONTINUOUS
10
6.8065451968503936
20
-3.0765315748031496
11
6.8074004724409445
21
-3.0765053149606301
0
LINE
8
BLACK
6
CONTINUOUS
10
6.8074004724409445
20
-3.0765053149606301
11
6.8101098425196849
21
-3.0769582283464567
0
LINE
8
BLACK
6
CONTINUOUS
10
6.8101098425196849
20
-3.0769582283464567
11
6.8424098425196851
21
-3.0845582283464568
0
LINE
8
BLACK
6
CONTINUOUS
10
6.8424098425196851
20
-3.0845582283464568
11
6.8450368897637794
21
-3.085360905511811
0
LINE
8
BLACK
6
CONTINUOUS
10
6.8450368897637794
20
-3.085360905511811
11
6.8453229921259844
21
-3.0855145669291337
0
LINE
8
BLACK
6
CONTINUOUS
10
6.8453229921259844
20
-3.0855145669291337
11
6.8456363385826773
21
-3.0855985433070865
0
LINE
8
BLACK
6
CONTINUOUS
10
6.8456363385826773
20
-3.0855985433070865
11
6.8477327165354325
21
-3.0868088582677164
0
LINE
8
BLACK
6
CONTINUOUS
10
6.8477327165354325
20
-3.0868088582677164
11
6.8498664173228345
21
-3.0879549212598425
0
LINE
8
BLACK
6
CONTINUOUS
10
6.8498664173228345
20
-3.0879549212598425
11
6.8501028346456687
21
-3.0881772440944881
0
LINE
8
BLACK
6
CONTINUOUS
10
6.8501028346456687
20
-3.0881772440944881
11
6.8503839763779526
21
-3.0883395669291338
0
LINE
8
BLACK
6
CONTINUOUS
10
6.8503839763779526
20
-3.0883395669291338
11
6.8524492519685039
21
-3.0901507480314958
0
LINE
8
BLACK
6
CONTINUOUS
10
6.8524492519685039
20
-3.0901507480314958
11
7.0952985039370073
21
-3.3329999999999997
0
LINE
8
BLACK
6
CONTINUOUS
10
7.0952985039370073
20
-3.3329999999999997
11
7.1665999999999999
21
-3.3329999999999997
0
LINE
8
BLACK
6
CONTINUOUS
10
7.1665999999999999
20
-3.3329999999999997
11
7.1673629133858263
21
-3.3330500000000001
0
LINE
8
BLACK
6
CONTINUOUS
10
7.1673629133858263
20
-3.3330500000000001
11
7.1875499999999999
21
-3.3330500000000001
0
LINE
8
BLACK
6
CONTINUOUS
10
7.1875499999999999
20
-3.3330500000000001
11
7.1875499999999999
21
-3.3749500000000001
0
LINE
8
BLACK
6
CONTINUOUS
10
7.1875499999999999
20
-3.3749500000000001
11
7.1673629133858263
21
-3.3749500000000001
0
LINE
8
BLACK
6
CONTINUOUS
10
7.1673629133858263
20
-3.3749500000000001
11
7.1665999999999999
21
-3.375
0
LINE
8
BLACK
6
CONTINUOUS
10
7.1665999999999999
20
-3.375
11
7.0865999999999998
21
-3.375
0
LINE
8
BLACK
6
CONTINUOUS
10
7.0865999999999998
20
-3.375
11
7.0838589370078742
21
-3.3748203543307085
0
LINE
8
BLACK
6
CONTINUOUS
10
7.0838589370078742
20
-3.3748203543307085
11
7.0785636614173226
21
-3.3734014566929131
0
LINE
8
BLACK
6
CONTINUOUS
10
7.0785636614173226
20
-3.3734014566929131
11
7.0738160236220473
21
-3.3706604330708663
0
LINE
8
BLACK
6
CONTINUOUS
10
7.0738160236220473
20
-3.3706604330708663
11
7.0717507480314961
21
-3.3688492519685038
0
LINE
8
BLACK
6
CONTINUOUS
10
7.0717507480314961
20
-3.3688492519685038
11
6.8269749606299213
21
-3.124073464566929
0
LINE
8
BLACK
6
CONTINUOUS
10
6.8269749606299213
20
-3.124073464566929
11
6.8103564960629921
21
-3.1201632283464567
0
LINE
8
BLACK
6
CONTINUOUS
10
6.8103564960629921
20
-3.1201632283464567
11
6.8102121259842514
21
-3.1211365354330707
0
LINE
8
BLACK
6
CONTINUOUS
10
6.8102121259842514
20
-3.1211365354330707
11
6.8065042125984254
21
-3.1359392519685039
0
LINE
8
BLACK
6
CONTINUOUS
10
6.8065042125984254
20
-3.1359392519685039
11
6.8013632677165354
21
-3.1503072834645667
0
LINE
8
BLACK
6
CONTINUOUS
10
6.8013632677165354
20
-3.1503072834645667
11
6.7948387401574806
21
-3.1641022047244092
0
LINE
8
BLACK
6
CONTINUOUS
10
6.7948387401574806
20
-3.1641022047244092
11
6.7869935433070863
21
-3.1771911811023621
0
LINE
8
BLACK
6
CONTINUOUS
10
6.7869935433070863
20
-3.1771911811023621
11
6.7779031102362204
21
-3.189448149606299
0
LINE
8
BLACK
6
CONTINUOUS
10
6.7779031102362204
20
-3.189448149606299
11
6.7676551181102358
21
-3.2007551181102363
0
LINE
8
BLACK
6
CONTINUOUS
10
6.7676551181102358
20
-3.2007551181102363
11
6.7563481496062989
21
-3.2110031102362204
0
LINE
8
BLACK
6
CONTINUOUS
10
6.7563481496062989
20
-3.2110031102362204
11
6.7440911811023616
21
-3.2200935433070867
0
LINE
8
BLACK
6
CONTINUOUS
10
6.7440911811023616
20
-3.2200935433070867
11
6.7310022047244091
21
-3.2279387401574802
0
LINE
8
BLACK
6
CONTINUOUS
10
6.7310022047244091
20
-3.2279387401574802
11
6.7172072834645666
21
-3.2344632677165355
0
LINE
8
BLACK
6
CONTINUOUS
10
6.7172072834645666
20
-3.2344632677165355
11
6.7028392519685038
21
-3.239604212598425
0
LINE
8
BLACK
6
CONTINUOUS
10
6.7028392519685038
20
-3.239604212598425
11
6.6880365354330706
21
-3.2433121259842519
0
LINE
8
BLACK
6
CONTINUOUS
10
6.6880365354330706
20
-3.2433121259842519
11
6.6729416535433073
21
-3.245551220472441
0
LINE
8
BLACK
6
CONTINUOUS
10
6.6729416535433073
20
-3.245551220472441
11
6.6577000000000002
21
-3.2462999999999997
0
LINE
8
BLACK
6
CONTINUOUS
10
6.6577000000000002
20
-3.2462999999999997
11
6.6424583464566931
21
-3.245551220472441
0
LINE
8
BLACK
6
CONTINUOUS
10
6.6424583464566931
20
-3.245551220472441
11
6.6273634645669288
21
-3.2433121259842519
0
LINE
8
BLACK
6
CONTINUOUS
10
6.6273634645669288
20
-3.2433121259842519
11
6.6125607480314956
21
-3.239604212598425
0
LINE
8
BLACK
6
CONTINUOUS
10
6.6125607480314956
20
-3.239604212598425
11
6.5981927165354328
21
-3.2344632677165355
0
LINE
8
BLACK
6
CONTINUOUS
10
6.5981927165354328
20
-3.2344632677165355
11
6.5843977952755903
21
-3.2279387401574802
0
LINE
8
BLACK
6
CONTINUOUS
10
6.5843977952755903
20
-3.2279387401574802
11
6.5713088188976378
21
-3.2200935433070867
0
LINE
8
BLACK
6
CONTINUOUS
10
6.5713088188976378
20
-3.2200935433070867
11
6.5590518503937005
21
-3.2110031102362204
0
LINE
8
BLACK
6
CONTINUOUS
10
6.5590518503937005
20
-3.2110031102362204
11
6.5477448818897637
21
-3.2007551181102363
0
LINE
8
BLACK
6
CONTINUOUS
10
6.5477448818897637
20
-3.2007551181102363
11
6.5374968897637791
21
-3.189448149606299
0
LINE
8
BLACK
6
CONTINUOUS
10
6.5374968897637791
20
-3.189448149606299
11
6.5284064566929132
21
-3.1771911811023621
0
LINE
8
BLACK
6
CONTINUOUS
10
6.5284064566929132
20
-3.1771911811023621
11
6.5205612598425198
21
-3.1641022047244092
0
LINE
8
BLACK
6
CONTINUOUS
10
6.5205612598425198
20
-3.1641022047244092
11
6.514036732283464
21
-3.1503072834645667
0
LINE
8
BLACK
6
CONTINUOUS
10
6.514036732283464
20
-3.1503072834645667
11
6.5088957874015749
21
-3.1359392519685039
0
LINE
8
BLACK
6
CONTINUOUS
10
6.5088957874015749
20
-3.1359392519685039
11
6.5051878740157481
21
-3.1211365354330707
0
LINE
8
BLACK
6
CONTINUOUS
10
6.5051878740157481
20
-3.1211365354330707
11
6.5029487795275589
21
-3.1060416535433069
0
LINE
8
BLACK
6
CONTINUOUS
10
6.5029487795275589
20
-3.1060416535433069
11
6.5029049606299214
21
-3.1051500000000001
0
LINE
8
BLACK
6
CONTINUOUS
10
6.5029049606299214
20
-3.1051500000000001
11
6.496021220472441
21
-3.1051500000000001
0
LINE
8
BLACK
6
CONTINUOUS
10
6.496021220472441
20
-3.1051500000000001
11
6.4945464566929134
21
-3.1154071259842517
0
LINE
8
BLACK
6
CONTINUOUS
10
6.4945464566929134
20
-3.1154071259842517
11
6.4909416929133856
21
-3.1302661417322835
0
LINE
8
BLACK
6
CONTINUOUS
10
6.4909416929133856
20
-3.1302661417322835
11
6.4859408267716532
21
-3.1447152362204722
0
LINE
8
BLACK
6
CONTINUOUS
10
6.4859408267716532
20
-3.1447152362204722
11
6.4795891338582674
21
-3.1586235433070864
0
LINE
8
BLACK
6
CONTINUOUS
10
6.4795891338582674
20
-3.1586235433070864
11
6.4719440944881885
21
-3.1718650787401574
0
LINE
8
BLACK
6
CONTINUOUS
10
6.4719440944881885
20
-3.1718650787401574
11
6.4630750393700787
21
-3.1843199606299213
0
LINE
8
BLACK
6
CONTINUOUS
10
6.4630750393700787
20
-3.1843199606299213
11
6.4530621653543303
21
-3.1958753937007875
0
LINE
8
BLACK
6
CONTINUOUS
10
6.4530621653543303
20
-3.1958753937007875
11
6.4419962598425196
21
-3.2064267322834645
0
LINE
8
BLACK
6
CONTINUOUS
10
6.4419962598425196
20
-3.2064267322834645
11
6.4299774803149603
21
-3.2158783858267714
0
LINE
8
BLACK
6
CONTINUOUS
10
6.4299774803149603
20
-3.2158783858267714
11
6.4171147244094486
21
-3.2241448031496063
0
LINE
8
BLACK
6
CONTINUOUS
10
6.4171147244094486
20
-3.2241448031496063
11
6.4035243700787401
21
-3.2311511023622046
0
LINE
8
BLACK
6
CONTINUOUS
10
6.4035243700787401
20
-3.2311511023622046
11
6.3893296062992126
21
-3.2368338582677163
0
LINE
8
BLACK
6
CONTINUOUS
10
6.3893296062992126
20
-3.2368338582677163
11
6.3746589370078741
21
-3.2411415354330706
0
LINE
8
BLACK
6
CONTINUOUS
10
6.3746589370078741
20
-3.2411415354330706
11
6.3596452362204721
21
-3.2440351968503935
0
LINE
8
BLACK
6
CONTINUOUS
10
6.3596452362204721
20
-3.2440351968503935
11
6.3444244094488189
21
-3.2454886220472439
0
LINE
8
BLACK
6
CONTINUOUS
10
6.3444244094488189
20
-3.2454886220472439
11
6.3291344094488187
21
-3.2454886220472439
0
LINE
8
BLACK
6
CONTINUOUS
10
6.3291344094488187
20
-3.2454886220472439
11
6.3139135826771655
21
-3.2440351968503935
0
LINE
8
BLACK
6
CONTINUOUS
10
6.3139135826771655
20
-3.2440351968503935
11
6.2988998818897635
21
-3.2411415354330706
0
LINE
8
BLACK
6
CONTINUOUS
10
6.2988998818897635
20
-3.2411415354330706
11
6.2842292125984249
21
-3.2368338582677163
0
LINE
8
BLACK
6
CONTINUOUS
10
6.2842292125984249
20
-3.2368338582677163
11
6.2700344488188975
21
-3.2311511023622046
0
LINE
8
BLACK
6
CONTINUOUS
10
6.2700344488188975
20
-3.2311511023622046
11
6.2564441338582677
21
-3.2241448031496063
0
LINE
8
BLACK
6
CONTINUOUS
10
6.2564441338582677
20
-3.2241448031496063
11
6.2435813385826773
21
-3.2158783858267714
0
LINE
8
BLACK
6
CONTINUOUS
10
6.2435813385826773
20
-3.2158783858267714
11
6.231562559055118
21
-3.2064267322834645
0
LINE
8
BLACK
6
CONTINUOUS
10
6.231562559055118
20
-3.2064267322834645
11
6.2204966535433073
21
-3.1958753937007875
0
LINE
8
BLACK
6
CONTINUOUS
10
6.2204966535433073
20
-3.1958753937007875
11
6.2104837795275589
21
-3.1843199606299213
0
LINE
8
BLACK
6
CONTINUOUS
10
6.2104837795275589
20
-3.1843199606299213
11
6.2016147244094491
21
-3.1718650787401574
0
LINE
8
BLACK
6
CONTINUOUS
10
6.2016147244094491
20
-3.1718650787401574
11
6.1939696850393702
21
-3.1586235433070864
0
LINE
8
BLACK
6
CONTINUOUS
10
6.1939696850393702
20
-3.1586235433070864
11
6.1876179921259844
21
-3.1447152362204722
0
LINE
8
BLACK
6
CONTINUOUS
10
6.1876179921259844
20
-3.1447152362204722
11
6.1826171259842519
21
-3.1302661417322835
0
LINE
8
BLACK
6
CONTINUOUS
10
6.1826171259842519
20
-3.1302661417322835
11
6.1790123622047242
21
-3.1154071259842517
0
LINE
8
BLACK
6
CONTINUOUS
10
6.1790123622047242
20
-3.1154071259842517
11
6.1768363385826772
21
-3.1002727165354331
0
LINE
8
BLACK
6
CONTINUOUS
10
6.1768363385826772
20
-3.1002727165354331
11
6.1762517322834647
21
-3.0880000000000001
0
LINE
8
BLACK
6
CONTINUOUS
10
6.1762517322834647
20
-3.0880000000000001
11
6.1499999999999995
21
-3.0880000000000001
0
LINE
8
BLACK
6
CONTINUOUS
10
6.1499999999999995
20
-3.0880000000000001
11
5.8839999999999995
21
-3.0880000000000001
0
LINE
8
BLACK
6
CONTINUOUS
10
5.8839999999999995
20
-3.0880000000000001
11
5.883237086614173
21
-3.0879499999999998
0
LINE
8
BLACK
6
CONTINUOUS
10
5.883237086614173
20
-3.0879499999999998
11
5.8630499999999994
21
-3.0879499999999998
0
LINE
8
BLACK
6
CONTINUOUS
10
5.8630499999999994
20
-3.0879499999999998
11
5.8630499999999994
21
-3.0460500000000001
0
LINE
8
BLACK
6
CONTINUOUS
10
5.8630499999999994
20
-3.0460500000000001
11
5.883237086614173
21
-3.0460500000000001
0
LINE
8
BLACK
6
CONTINUOUS
10
5.883237086614173
20
-3.0460500000000001
11
5.8839999999999995
21
-3.0459999999999998
0
LINE
8
BLACK
6
CONTINUOUS
10
5.8839999999999995
20
-3.0459999999999998
11
6.1640025984251965
21
-3.0459999999999998
0
LINE
8
BLACK
6
CONTINUOUS
10
6.1640025984251965
20
-3.0459999999999998
11
6.1762529133858264
21
-3.0459999999999998
0
LINE
8
BLACK
6
CONTINUOUS
10
6.1762529133858264
20
-3.0459999999999998
11
6.1768375196850389
21
-3.0337273622047243
0
LINE
8
BLACK
6
CONTINUOUS
10
6.1768375196850389
20
-3.0337273622047243
11
6.179013503937008
21
-3.018592992125984
0
LINE
8
BLACK
6
CONTINUOUS
10
6.179013503937008
20
-3.018592992125984
11
6.1826182677165349
21
-3.0037340157480314
0
LINE
8
BLACK
6
CONTINUOUS
10
6.1826182677165349
20
-3.0037340157480314
11
6.1876191338582673
21
-2.9892849999999997
0
LINE
8
BLACK
6
CONTINUOUS
10
6.1876191338582673
20
-2.9892849999999997
11
6.1939708267716531
21
-2.9753767322834643
0
LINE
8
BLACK
6
CONTINUOUS
10
6.1939708267716531
20
-2.9753767322834643
11
6.2016157874015745
21
-2.9621352362204725
0
LINE
8
BLACK
6
CONTINUOUS
10
6.2016157874015745
20
-2.9621352362204725
11
6.2104848425196852
21
-2.9496803937007874
0
LINE
8
BLACK
6
CONTINUOUS
10
6.2104848425196852
20
-2.9496803937007874
11
6.2204976377952752
21
-2.9381249999999999
0
LINE
8
BLACK
6
CONTINUOUS
10
6.2204976377952752
20
-2.9381249999999999
11
6.2315635433070868
21
-2.9275737007874016
0
LINE
8
BLACK
6
CONTINUOUS
10
6.2315635433070868
20
-2.9275737007874016
11
6.2435822440944877
21
-2.918122086614173
0
LINE
8
BLACK
6
CONTINUOUS
10
6.2435822440944877
20
-2.918122086614173
11
6.2564450000000003
21
-2.9098557086614174
0
LINE
8
BLACK
6
CONTINUOUS
10
6.2564450000000003
20
-2.9098557086614174
11
6.2700352755905513
21
-2.9028494094488186
0
LINE
8
BLACK
6
CONTINUOUS
10
6.2700352755905513
20
-2.9028494094488186
11
6.28423
21
-2.8971667322834644
0
LINE
8
BLACK
6
CONTINUOUS
10
6.28423
20
-2.8971667322834644
11
6.2989006299212598
21
-2.8928590157480314
0
LINE
8
BLACK
6
CONTINUOUS
10
6.2989006299212598
20
-2.8928590157480314
11
6.3139142913385822
21
-2.8899653937007872
0
LINE
8
BLACK
6
CONTINUOUS
10
6.3139142913385822
20
-2.8899653937007872
11
6.329135
21
-2.8885119685039369
0
LINE
8
BLACK
6
CONTINUOUS
10
6.329135
20
-2.8885119685039369
11
6.3444250000000002
21
-2.8885119685039369
0
LINE
8
BLACK
6
CONTINUOUS
10
6.3444250000000002
20
-2.8885119685039369
11
6.3596457086614171
21
-2.8899653937007872
0
LINE
8
BLACK
6
CONTINUOUS
10
6.3596457086614171
20
-2.8899653937007872
11
6.3746593700787404
21
-2.8928590157480314
0
LINE
8
BLACK
6
CONTINUOUS
10
6.3746593700787404
20
-2.8928590157480314
11
6.3893300000000002
21
-2.8971667322834644
0
LINE
8
BLACK
6
CONTINUOUS
10
6.3893300000000002
20
-2.8971667322834644
11
6.4035247244094489
21
-2.9028494094488186
0
LINE
8
BLACK
6
CONTINUOUS
10
6.4035247244094489
20
-2.9028494094488186
11
6.4171149999999999
21
-2.9098557086614174
0
LINE
8
BLACK
6
CONTINUOUS
10
6.4171149999999999
20
-2.9098557086614174
11
6.4299777559055116
21
-2.918122086614173
0
LINE
8
BLACK
6
CONTINUOUS
10
6.4299777559055116
20
-2.918122086614173
11
6.4419964566929133
21
-2.9275737007874016
0
LINE
8
BLACK
6
CONTINUOUS
10
6.4419964566929133
20
-2.9275737007874016
11
6.4530623622047241
21
-2.9381249999999999
0
LINE
8
BLACK
6
CONTINUOUS
10
6.4530623622047241
20
-2.9381249999999999
11
6.4630751574803149
21
-2.9496803937007874
0
LINE
8
BLACK
6
CONTINUOUS
10
6.4630751574803149
20
-2.9496803937007874
11
6.4719442125984248
21
-2.9621352362204725
0
LINE
8
BLACK
6
CONTINUOUS
10
6.4719442125984248
20
-2.9621352362204725
11
6.4795891732283462
21
-2.9753767322834643
0
LINE
8
BLACK
6
CONTINUOUS
10
6.4795891732283462
20
-2.9753767322834643
11
6.4859408661417319
21
-2.9892849999999997
0
LINE
8
BLACK
6
CONTINUOUS
10
6.4859408661417319
20
-2.9892849999999997
11
6.4909417322834644
21
-3.0037340157480314
0
LINE
8
BLACK
6
CONTINUOUS
10
6.4909417322834644
20
-3.0037340157480314
11
6.4945464960629922
21
-3.018592992125984
0
LINE
8
BLACK
6
CONTINUOUS
10
6.4945464960629922
20
-3.018592992125984
11
6.496021220472441
21
-3.0288499999999998
0
LINE
8
BLACK
6
CONTINUOUS
10
6.496021220472441
20
-3.0288499999999998
11
6.5029049606299214
21
-3.0288499999999998
0
LINE
8
BLACK
6
CONTINUOUS
10
6.5029049606299214
20
-3.0288499999999998
11
6.5029487795275589
21
-3.027958346456693
0
LINE
8
BLACK
6
CONTINUOUS
10
6.5029487795275589
20
-3.027958346456693
11
6.5051878740157481
21
-3.0128634645669292
0
LINE
8
BLACK
6
CONTINUOUS
10
6.5051878740157481
20
-3.0128634645669292
11
6.5088957874015749
21
-2.998060748031496
0
LINE
8
BLACK
6
CONTINUOUS
10
6.5088957874015749
20
-2.998060748031496
11
6.514036732283464
21
-2.9836927165354332
0
LINE
8
BLACK
6
CONTINUOUS
10
6.514036732283464
20
-2.9836927165354332
11
6.5205612598425198
21
-2.9698977952755903
0
LINE
8
BLACK
6
CONTINUOUS
10
6.5205612598425198
20
-2.9698977952755903
11
6.5284064566929132
21
-2.9568088188976378
0
LINE
8
BLACK
6
CONTINUOUS
10
6.5284064566929132
20
-2.9568088188976378
11
6.5374968897637791
21
-2.9445518503937009
0
LINE
8
BLACK
6
CONTINUOUS
10
6.5374968897637791
20
-2.9445518503937009
11
6.5477448818897637
21
-2.9332448818897636
0
LINE
8
BLACK
6
CONTINUOUS
10
6.5477448818897637
20
-2.9332448818897636
11
6.5590518503937005
21
-2.9229968897637795
0
LINE
8
BLACK
6
CONTINUOUS
10
6.5590518503937005
20
-2.9229968897637795
11
6.5713088188976378
21
-2.9139064566929131
0
LINE
8
BLACK
6
CONTINUOUS
10
6.5713088188976378
20
-2.9139064566929131
11
6.5843977952755903
21
-2.9060612598425197
0
LINE
8
BLACK
6
CONTINUOUS
10
6.5843977952755903
20
-2.9060612598425197
11
6.5981927165354328
21
-2.8995367322834644
0
LINE
8
BLACK
6
CONTINUOUS
10
6.5981927165354328
20
-2.8995367322834644
11
6.6125607480314956
21
-2.8943957874015749
0
LINE
8
BLACK
6
CONTINUOUS
10
6.6125607480314956
20
-2.8943957874015749
11
6.6273634645669288
21
-2.890687874015748
0
LINE
8
BLACK
6
CONTINUOUS
10
6.6273634645669288
20
-2.890687874015748
11
6.6424583464566931
21
-2.8884487795275589
0
LINE
8
BLACK
6
CONTINUOUS
10
6.6424583464566931
20
-2.8884487795275589
11
6.6577000000000002
21
-2.8877000000000002
0
LINE
8
BLACK
6
CONTINUOUS
10
6.6577000000000002
20
-2.8877000000000002
11
6.6729416535433073
21
-2.8884487795275589
0
LINE
8
BLACK
6
CONTINUOUS
10
6.6729416535433073
20
-2.8884487795275589
11
6.6880365354330706
21
-2.890687874015748
0
LINE
8
BLACK
6
CONTINUOUS
10
6.6880365354330706
20
-2.890687874015748
11
6.7028392519685038
21
-2.8943957874015749
0
LINE
8
BLACK
6
CONTINUOUS
10
6.7028392519685038
20
-2.8943957874015749
11
6.7172072834645666
21
-2.8995367322834644
0
LINE
8
BLACK
6
CONTINUOUS
10
6.7172072834645666
20
-2.8995367322834644
11
6.7310022047244091
21
-2.9060612598425197
0
LINE
8
BLACK
6
CONTINUOUS
10
6.7310022047244091
20
-2.9060612598425197
11
6.7440911811023616
21
-2.9139064566929131
0
LINE
8
BLACK
6
CONTINUOUS
10
6.7440911811023616
20
-2.9139064566929131
11
6.7563481496062989
21
-2.9229968897637795
0
LINE
8
BLACK
6
CONTINUOUS
10
6.7563481496062989
20
-2.9229968897637795
11
6.7676551181102358
21
-2.9332448818897636
0
LINE
8
BLACK
6
CONTINUOUS
10
6.7676551181102358
20
-2.9332448818897636
11
6.7779031102362204
21
-2.9445518503937009
0
LINE
8
BLACK
6
CONTINUOUS
10
6.7779031102362204
20
-2.9445518503937009
11
6.7869935433070863
21
-2.9568088188976378
0
LINE
8
BLACK
6
CONTINUOUS
10
6.7869935433070863
20
-2.9568088188976378
11
6.7948387401574806
21
-2.9698977952755903
0
LINE
8
BLACK
6
CONTINUOUS
10
6.7948387401574806
20
-2.9698977952755903
11
6.8013632677165354
21
-2.9836927165354332
0
LINE
8
BLACK
6
CONTINUOUS
10
6.8013632677165354
20
-2.9836927165354332
11
6.8065042125984254
21
-2.998060748031496
0
LINE
8
BLACK
6
CONTINUOUS
10
6.8065042125984254
20
-2.998060748031496
11
6.8102121259842514
21
-3.0128634645669292
0
LINE
8
BLACK
6
CONTINUOUS
10
6.8102121259842514
20
-3.0128634645669292
11
6.8103564960629921
21
-3.0138367322834645
0
LINE
8
BLACK
6
CONTINUOUS
10
6.8103564960629921
20
-3.0138367322834645
11
6.8269749606299213
21
-3.0099264960629921
0
LINE
8
BLACK
6
CONTINUOUS
10
6.8269749606299213
20
-3.0099264960629921
11
7.0717507480314961
21
-2.7651507480314961
0
LINE
8
BLACK
6
CONTINUOUS
10
7.0717507480314961
20
-2.7651507480314961
11
7.0738160236220473
21
-2.7633395669291336
0
LINE
8
BLACK
6
CONTINUOUS
10
7.0738160236220473
20
-2.7633395669291336
11
7.0785636614173226
21
-2.7605985433070868
0
LINE
8
BLACK
6
CONTINUOUS
10
7.0785636614173226
20
-2.7605985433070868
11
7.0838589370078742
21
-2.7591796456692914
0
LINE
8
BLACK
6
CONTINUOUS
10
7.0838589370078742
20
-2.7591796456692914
11
7.0865999999999998
21
-2.7589999999999999
0
LINE
8
BLACK
6
CONTINUOUS
10
7.0865999999999998
20
-2.7589999999999999
11
7.1665999999999999
21
-2.7589999999999999
0
LINE
8
BLACK
6
CONTINUOUS
10
7.1665999999999999
20
-2.7589999999999999
11
7.1673629133858263
21
-2.7590499999999998
  0
ENDSEC
  0
EOF
