%TF.GenerationSoftware,KiCad,Pcbnew,9.0.4*%
%TF.CreationDate,2025-09-20T16:24:51-07:00*%
%TF.ProjectId,Wilkinson PD,57696c6b-696e-4736-9f6e-2050442e6b69,rev?*%
%TF.SameCoordinates,Original*%
%TF.FileFunction,Legend,Top*%
%TF.FilePolarity,Positive*%
%FSLAX46Y46*%
G04 Gerber Fmt 4.6, Leading zero omitted, Abs format (unit mm)*
G04 Created by KiCad (PCBNEW 9.0.4) date 2025-09-20 16:24:51*
%MOMM*%
%LPD*%
G01*
G04 APERTURE LIST*
%ADD10C,0.100000*%
%ADD11C,0.150000*%
%ADD12C,0.120000*%
G04 APERTURE END LIST*
D10*
X145323655Y-76531559D02*
X145323655Y-77341082D01*
X145323655Y-77341082D02*
X145371274Y-77436320D01*
X145371274Y-77436320D02*
X145418893Y-77483940D01*
X145418893Y-77483940D02*
X145514131Y-77531559D01*
X145514131Y-77531559D02*
X145704607Y-77531559D01*
X145704607Y-77531559D02*
X145799845Y-77483940D01*
X145799845Y-77483940D02*
X145847464Y-77436320D01*
X145847464Y-77436320D02*
X145895083Y-77341082D01*
X145895083Y-77341082D02*
X145895083Y-76531559D01*
X146895083Y-77531559D02*
X146323655Y-77531559D01*
X146609369Y-77531559D02*
X146609369Y-76531559D01*
X146609369Y-76531559D02*
X146514131Y-76674416D01*
X146514131Y-76674416D02*
X146418893Y-76769654D01*
X146418893Y-76769654D02*
X146323655Y-76817273D01*
X179179315Y-72870659D02*
X179179315Y-73680182D01*
X179179315Y-73680182D02*
X179226934Y-73775420D01*
X179226934Y-73775420D02*
X179274553Y-73823040D01*
X179274553Y-73823040D02*
X179369791Y-73870659D01*
X179369791Y-73870659D02*
X179560267Y-73870659D01*
X179560267Y-73870659D02*
X179655505Y-73823040D01*
X179655505Y-73823040D02*
X179703124Y-73775420D01*
X179703124Y-73775420D02*
X179750743Y-73680182D01*
X179750743Y-73680182D02*
X179750743Y-72870659D01*
X180179315Y-72965897D02*
X180226934Y-72918278D01*
X180226934Y-72918278D02*
X180322172Y-72870659D01*
X180322172Y-72870659D02*
X180560267Y-72870659D01*
X180560267Y-72870659D02*
X180655505Y-72918278D01*
X180655505Y-72918278D02*
X180703124Y-72965897D01*
X180703124Y-72965897D02*
X180750743Y-73061135D01*
X180750743Y-73061135D02*
X180750743Y-73156373D01*
X180750743Y-73156373D02*
X180703124Y-73299230D01*
X180703124Y-73299230D02*
X180131696Y-73870659D01*
X180131696Y-73870659D02*
X180750743Y-73870659D01*
X179179315Y-82192459D02*
X179179315Y-83001982D01*
X179179315Y-83001982D02*
X179226934Y-83097220D01*
X179226934Y-83097220D02*
X179274553Y-83144840D01*
X179274553Y-83144840D02*
X179369791Y-83192459D01*
X179369791Y-83192459D02*
X179560267Y-83192459D01*
X179560267Y-83192459D02*
X179655505Y-83144840D01*
X179655505Y-83144840D02*
X179703124Y-83097220D01*
X179703124Y-83097220D02*
X179750743Y-83001982D01*
X179750743Y-83001982D02*
X179750743Y-82192459D01*
X180131696Y-82192459D02*
X180750743Y-82192459D01*
X180750743Y-82192459D02*
X180417410Y-82573411D01*
X180417410Y-82573411D02*
X180560267Y-82573411D01*
X180560267Y-82573411D02*
X180655505Y-82621030D01*
X180655505Y-82621030D02*
X180703124Y-82668649D01*
X180703124Y-82668649D02*
X180750743Y-82763887D01*
X180750743Y-82763887D02*
X180750743Y-83001982D01*
X180750743Y-83001982D02*
X180703124Y-83097220D01*
X180703124Y-83097220D02*
X180655505Y-83144840D01*
X180655505Y-83144840D02*
X180560267Y-83192459D01*
X180560267Y-83192459D02*
X180274553Y-83192459D01*
X180274553Y-83192459D02*
X180179315Y-83144840D01*
X180179315Y-83144840D02*
X180131696Y-83097220D01*
X157058598Y-77031559D02*
X157296693Y-78031559D01*
X157296693Y-78031559D02*
X157487169Y-77317273D01*
X157487169Y-77317273D02*
X157677645Y-78031559D01*
X157677645Y-78031559D02*
X157915741Y-77031559D01*
X158296693Y-78031559D02*
X158296693Y-77031559D01*
X158296693Y-77031559D02*
X158677645Y-77031559D01*
X158677645Y-77031559D02*
X158772883Y-77079178D01*
X158772883Y-77079178D02*
X158820502Y-77126797D01*
X158820502Y-77126797D02*
X158868121Y-77222035D01*
X158868121Y-77222035D02*
X158868121Y-77364892D01*
X158868121Y-77364892D02*
X158820502Y-77460130D01*
X158820502Y-77460130D02*
X158772883Y-77507749D01*
X158772883Y-77507749D02*
X158677645Y-77555368D01*
X158677645Y-77555368D02*
X158296693Y-77555368D01*
X159296693Y-78031559D02*
X159296693Y-77031559D01*
X159296693Y-77031559D02*
X159534788Y-77031559D01*
X159534788Y-77031559D02*
X159677645Y-77079178D01*
X159677645Y-77079178D02*
X159772883Y-77174416D01*
X159772883Y-77174416D02*
X159820502Y-77269654D01*
X159820502Y-77269654D02*
X159868121Y-77460130D01*
X159868121Y-77460130D02*
X159868121Y-77602987D01*
X159868121Y-77602987D02*
X159820502Y-77793463D01*
X159820502Y-77793463D02*
X159772883Y-77888701D01*
X159772883Y-77888701D02*
X159677645Y-77983940D01*
X159677645Y-77983940D02*
X159534788Y-78031559D01*
X159534788Y-78031559D02*
X159296693Y-78031559D01*
X160820502Y-78031559D02*
X160249074Y-78031559D01*
X160534788Y-78031559D02*
X160534788Y-77031559D01*
X160534788Y-77031559D02*
X160439550Y-77174416D01*
X160439550Y-77174416D02*
X160344312Y-77269654D01*
X160344312Y-77269654D02*
X160249074Y-77317273D01*
D11*
X172074059Y-77858186D02*
X171597868Y-78191519D01*
X172074059Y-78429614D02*
X171074059Y-78429614D01*
X171074059Y-78429614D02*
X171074059Y-78048662D01*
X171074059Y-78048662D02*
X171121678Y-77953424D01*
X171121678Y-77953424D02*
X171169297Y-77905805D01*
X171169297Y-77905805D02*
X171264535Y-77858186D01*
X171264535Y-77858186D02*
X171407392Y-77858186D01*
X171407392Y-77858186D02*
X171502630Y-77905805D01*
X171502630Y-77905805D02*
X171550249Y-77953424D01*
X171550249Y-77953424D02*
X171597868Y-78048662D01*
X171597868Y-78048662D02*
X171597868Y-78429614D01*
X171169297Y-77477233D02*
X171121678Y-77429614D01*
X171121678Y-77429614D02*
X171074059Y-77334376D01*
X171074059Y-77334376D02*
X171074059Y-77096281D01*
X171074059Y-77096281D02*
X171121678Y-77001043D01*
X171121678Y-77001043D02*
X171169297Y-76953424D01*
X171169297Y-76953424D02*
X171264535Y-76905805D01*
X171264535Y-76905805D02*
X171359773Y-76905805D01*
X171359773Y-76905805D02*
X171502630Y-76953424D01*
X171502630Y-76953424D02*
X172074059Y-77524852D01*
X172074059Y-77524852D02*
X172074059Y-76905805D01*
X164118779Y-77793606D02*
X163642588Y-78126939D01*
X164118779Y-78365034D02*
X163118779Y-78365034D01*
X163118779Y-78365034D02*
X163118779Y-77984082D01*
X163118779Y-77984082D02*
X163166398Y-77888844D01*
X163166398Y-77888844D02*
X163214017Y-77841225D01*
X163214017Y-77841225D02*
X163309255Y-77793606D01*
X163309255Y-77793606D02*
X163452112Y-77793606D01*
X163452112Y-77793606D02*
X163547350Y-77841225D01*
X163547350Y-77841225D02*
X163594969Y-77888844D01*
X163594969Y-77888844D02*
X163642588Y-77984082D01*
X163642588Y-77984082D02*
X163642588Y-78365034D01*
X164118779Y-76841225D02*
X164118779Y-77412653D01*
X164118779Y-77126939D02*
X163118779Y-77126939D01*
X163118779Y-77126939D02*
X163261636Y-77222177D01*
X163261636Y-77222177D02*
X163356874Y-77317415D01*
X163356874Y-77317415D02*
X163404493Y-77412653D01*
D12*
%TO.C,R2*%
X170069240Y-77537879D02*
X170069240Y-77845161D01*
X170829240Y-77537879D02*
X170829240Y-77845161D01*
%TO.C,R1*%
X162113960Y-77473299D02*
X162113960Y-77780581D01*
X162873960Y-77473299D02*
X162873960Y-77780581D01*
%TD*%
M02*
