  0
SECTION
  2
HEADER
  9
$ANGBASE
  50
0.0
  9
$ANGDIR
  70
1
  9
$MEASUREMENT
  70
0
  0
ENDSEC
  0
SECTION
  2
TABLES
  0
TABLE
  2
LTYPE
  70
4
  0
LTYPE
  5
40F
  2
CONTINUOUS
  70
0
  3
Solid line
  72
65
  73
0
  40
0.0
  0
LTYPE
  5
410
  2
DASHDOT
 70
0
  3
Dash Dot ____ _ ____ _
 72
65
 73
4
 40
2.0
 49
1.25
 49
-0.25
 49
0.25
 49
-0.25
  0
LTYPE
  5
411
  2
DASHED
 70
0
  3
Dashed __ __ __ __ __
 72
65
 73
2
 40
0.75
 49
0.5
 49
-0.25
  0
LTYPE
  5
43B
  2
DOTTED
 70
0
  3
Dotted .  .  .  .
 72
65
 73
2
 40
0.2
 49
0.0
 49
-0.2
  0
ENDTAB
  0
TABLE
  2
STYLE
  70
4
  0
STYLE
  2
KICAD
  70
0
  40
0
  41
1
  42
1
  50
0
  71
0
  3
isocp.shx
  0
STYLE
  2
KICADB
  70
0
  40
0
  41
1
  42
1
  50
0
  71
0
  3
isocp.shx
  0
STYLE
  2
KICADI
  70
0
  40
0
  41
1
  42
1
  50
15
  71
0
  3
isocp.shx
  0
STYLE
  2
KICADBI
  70
0
  40
0
  41
1
  42
1
  50
15
  71
0
  3
isocp.shx
  0
ENDTAB
  0
TABLE
  2
LAYER
  70
1
  0
LAYER
  2
BLACK
  70
0
  62
7
  6
CONTINUOUS
  0
ENDTAB
  0
ENDSEC
  0
SECTION
  2
ENTITIES
0
LINE
8
BLACK
6
CONTINUOUS
10
7.1021442125984251
20
-3.216200118110236
11
7.104275708661417
21
-3.2176242913385824
0
LINE
8
BLACK
6
CONTINUOUS
10
7.104275708661417
20
-3.2176242913385824
11
7.1056998818897634
21
-3.2197557874015748
0
LINE
8
BLACK
6
CONTINUOUS
10
7.1056998818897634
20
-3.2197557874015748
11
7.1061999999999994
21
-3.22227
0
LINE
8
BLACK
6
CONTINUOUS
10
7.1061999999999994
20
-3.22227
11
7.1061999999999994
21
-3.2529300000000001
0
LINE
8
BLACK
6
CONTINUOUS
10
7.1061999999999994
20
-3.2529300000000001
11
7.1056998818897634
21
-3.2554442125984253
0
LINE
8
BLACK
6
CONTINUOUS
10
7.1056998818897634
20
-3.2554442125984253
11
7.104275708661417
21
-3.2575757086614172
0
LINE
8
BLACK
6
CONTINUOUS
10
7.104275708661417
20
-3.2575757086614172
11
7.1021442125984251
21
-3.2589998818897636
0
LINE
8
BLACK
6
CONTINUOUS
10
7.1021442125984251
20
-3.2589998818897636
11
7.0996299999999994
21
-3.2595000000000001
0
LINE
8
BLACK
6
CONTINUOUS
10
7.0996299999999994
20
-3.2595000000000001
11
7.0689700000000002
21
-3.2595000000000001
0
LINE
8
BLACK
6
CONTINUOUS
10
7.0689700000000002
20
-3.2595000000000001
11
7.0664557874015745
21
-3.2589998818897636
0
LINE
8
BLACK
6
CONTINUOUS
10
7.0664557874015745
20
-3.2589998818897636
11
7.0643242913385826
21
-3.2575757086614172
0
LINE
8
BLACK
6
CONTINUOUS
10
7.0643242913385826
20
-3.2575757086614172
11
7.0629001181102362
21
-3.2554442125984253
0
LINE
8
BLACK
6
CONTINUOUS
10
7.0629001181102362
20
-3.2554442125984253
11
7.0624000000000002
21
-3.2529300000000001
0
LINE
8
BLACK
6
CONTINUOUS
10
7.0624000000000002
20
-3.2529300000000001
11
7.0624000000000002
21
-3.22227
0
LINE
8
BLACK
6
CONTINUOUS
10
7.0624000000000002
20
-3.22227
11
7.0629001181102362
21
-3.2197557874015748
0
LINE
8
BLACK
6
CONTINUOUS
10
7.0629001181102362
20
-3.2197557874015748
11
7.0643242913385826
21
-3.2176242913385824
0
LINE
8
BLACK
6
CONTINUOUS
10
7.0643242913385826
20
-3.2176242913385824
11
7.0664557874015745
21
-3.216200118110236
0
LINE
8
BLACK
6
CONTINUOUS
10
7.0664557874015745
20
-3.216200118110236
11
7.0689700000000002
21
-3.2157
0
LINE
8
BLACK
6
CONTINUOUS
10
7.0689700000000002
20
-3.2157
11
7.0996299999999994
21
-3.2157
0
LINE
8
BLACK
6
CONTINUOUS
10
7.0996299999999994
20
-3.2157
11
7.1021442125984251
21
-3.216200118110236
0
LINE
8
BLACK
6
CONTINUOUS
10
6.7199189763779525
20
-3.0639545669291337
11
6.7216432677165354
21
-3.0651067322834646
0
LINE
8
BLACK
6
CONTINUOUS
10
6.7216432677165354
20
-3.0651067322834646
11
6.7227954330708659
21
-3.0668310236220471
0
LINE
8
BLACK
6
CONTINUOUS
10
6.7227954330708659
20
-3.0668310236220471
11
6.7231999606299215
21
-3.0688650393700785
0
LINE
8
BLACK
6
CONTINUOUS
10
6.7231999606299215
20
-3.0688650393700785
11
6.7231999606299215
21
-3.0755936614173227
0
LINE
8
BLACK
6
CONTINUOUS
10
6.7231999606299215
20
-3.0755936614173227
11
6.7260681102362208
21
-3.0727255511811022
0
LINE
8
BLACK
6
CONTINUOUS
10
6.7260681102362208
20
-3.0727255511811022
11
6.7310192519685037
21
-3.0698670472440943
0
LINE
8
BLACK
6
CONTINUOUS
10
6.7310192519685037
20
-3.0698670472440943
11
6.7365414960629924
21
-3.0683873622047244
0
LINE
8
BLACK
6
CONTINUOUS
10
6.7365414960629924
20
-3.0683873622047244
11
6.7422585039370073
21
-3.0683873622047244
0
LINE
8
BLACK
6
CONTINUOUS
10
6.7422585039370073
20
-3.0683873622047244
11
6.747780748031496
21
-3.0698670472440943
0
LINE
8
BLACK
6
CONTINUOUS
10
6.747780748031496
20
-3.0698670472440943
11
6.7527318897637798
21
-3.0727255511811022
0
LINE
8
BLACK
6
CONTINUOUS
10
6.7527318897637798
20
-3.0727255511811022
11
6.7567744488188977
21
-3.0767681102362205
0
LINE
8
BLACK
6
CONTINUOUS
10
6.7567744488188977
20
-3.0767681102362205
11
6.7596329527559051
21
-3.0817192519685039
0
LINE
8
BLACK
6
CONTINUOUS
10
6.7596329527559051
20
-3.0817192519685039
11
6.761112637795275
21
-3.0872414960629921
0
LINE
8
BLACK
6
CONTINUOUS
10
6.761112637795275
20
-3.0872414960629921
11
6.761112637795275
21
-3.092958503937008
0
LINE
8
BLACK
6
CONTINUOUS
10
6.761112637795275
20
-3.092958503937008
11
6.7596329527559051
21
-3.0984807480314962
0
LINE
8
BLACK
6
CONTINUOUS
10
6.7596329527559051
20
-3.0984807480314962
11
6.7567744488188977
21
-3.1034318897637796
0
LINE
8
BLACK
6
CONTINUOUS
10
6.7567744488188977
20
-3.1034318897637796
11
6.7527318897637798
21
-3.1074744488188975
0
LINE
8
BLACK
6
CONTINUOUS
10
6.7527318897637798
20
-3.1074744488188975
11
6.747780748031496
21
-3.1103329527559054
0
LINE
8
BLACK
6
CONTINUOUS
10
6.747780748031496
20
-3.1103329527559054
11
6.7422585039370073
21
-3.1118126377952757
0
LINE
8
BLACK
6
CONTINUOUS
10
6.7422585039370073
20
-3.1118126377952757
11
6.7365414960629924
21
-3.1118126377952757
0
LINE
8
BLACK
6
CONTINUOUS
10
6.7365414960629924
20
-3.1118126377952757
11
6.7310192519685037
21
-3.1103329527559054
0
LINE
8
BLACK
6
CONTINUOUS
10
6.7310192519685037
20
-3.1103329527559054
11
6.7260681102362208
21
-3.1074744488188975
0
LINE
8
BLACK
6
CONTINUOUS
10
6.7260681102362208
20
-3.1074744488188975
11
6.722025551181102
21
-3.1034318897637796
0
LINE
8
BLACK
6
CONTINUOUS
10
6.722025551181102
20
-3.1034318897637796
11
6.7191670472440945
21
-3.0984807480314962
0
LINE
8
BLACK
6
CONTINUOUS
10
6.7191670472440945
20
-3.0984807480314962
11
6.7176873622047246
21
-3.092958503937008
0
LINE
8
BLACK
6
CONTINUOUS
10
6.7176873622047246
20
-3.092958503937008
11
6.7176873622047246
21
-3.0894299212598426
0
LINE
8
BLACK
6
CONTINUOUS
10
6.7176873622047246
20
-3.0894299212598426
11
6.7033165354330704
21
-3.0894299212598426
0
LINE
8
BLACK
6
CONTINUOUS
10
6.7033165354330704
20
-3.0894299212598426
11
6.7012825984251965
21
-3.0890253543307087
0
LINE
8
BLACK
6
CONTINUOUS
10
6.7012825984251965
20
-3.0890253543307087
11
6.6995583070866136
21
-3.0878731889763777
0
LINE
8
BLACK
6
CONTINUOUS
10
6.6995583070866136
20
-3.0878731889763777
11
6.6984061417322831
21
-3.0861488976377953
0
LINE
8
BLACK
6
CONTINUOUS
10
6.6984061417322831
20
-3.0861488976377953
11
6.6980015748031496
21
-3.0841149606299214
0
LINE
8
BLACK
6
CONTINUOUS
10
6.6980015748031496
20
-3.0841149606299214
11
6.6980015748031496
21
-3.0795026771653542
0
LINE
8
BLACK
6
CONTINUOUS
10
6.6980015748031496
20
-3.0795026771653542
11
6.6980000393700783
21
-3.0794949606299213
0
LINE
8
BLACK
6
CONTINUOUS
10
6.6980000393700783
20
-3.0794949606299213
11
6.6979999999999995
21
-3.0688649999999997
0
LINE
8
BLACK
6
CONTINUOUS
10
6.6979999999999995
20
-3.0688649999999997
11
6.6984045669291339
21
-3.0668310236220471
0
LINE
8
BLACK
6
CONTINUOUS
10
6.6984045669291339
20
-3.0668310236220471
11
6.6995567322834644
21
-3.0651067322834646
0
LINE
8
BLACK
6
CONTINUOUS
10
6.6995567322834644
20
-3.0651067322834646
11
6.7012810236220473
21
-3.0639545669291337
0
LINE
8
BLACK
6
CONTINUOUS
10
6.7012810236220473
20
-3.0639545669291337
11
6.7033150393700787
21
-3.0635500393700785
0
LINE
8
BLACK
6
CONTINUOUS
10
6.7033150393700787
20
-3.0635500393700785
11
6.7178849999999999
21
-3.0635499999999998
0
LINE
8
BLACK
6
CONTINUOUS
10
6.7178849999999999
20
-3.0635499999999998
11
6.7199189763779525
21
-3.0639545669291337
0
LINE
8
BLACK
6
CONTINUOUS
10
6.4067189763779524
20
-3.0639545669291337
11
6.4084432677165353
21
-3.0651067322834646
0
LINE
8
BLACK
6
CONTINUOUS
10
6.4084432677165353
20
-3.0651067322834646
11
6.4095954330708658
21
-3.0668310236220471
0
LINE
8
BLACK
6
CONTINUOUS
10
6.4095954330708658
20
-3.0668310236220471
11
6.4099999606299214
21
-3.0688650393700785
0
LINE
8
BLACK
6
CONTINUOUS
10
6.4099999606299214
20
-3.0688650393700785
11
6.4100000000000001
21
-3.0794950000000001
0
LINE
8
BLACK
6
CONTINUOUS
10
6.4100000000000001
20
-3.0794950000000001
11
6.40999842519685
21
-3.0795029133858267
0
LINE
8
BLACK
6
CONTINUOUS
10
6.40999842519685
20
-3.0795029133858267
11
6.40999842519685
21
-3.0815724409448819
0
LINE
8
BLACK
6
CONTINUOUS
10
6.40999842519685
20
-3.0815724409448819
11
6.4095938582677165
21
-3.0836063779527558
0
LINE
8
BLACK
6
CONTINUOUS
10
6.4095938582677165
20
-3.0836063779527558
11
6.4084416929133861
21
-3.0853306692913387
0
LINE
8
BLACK
6
CONTINUOUS
10
6.4084416929133861
20
-3.0853306692913387
11
6.4067174015748032
21
-3.0864828346456692
0
LINE
8
BLACK
6
CONTINUOUS
10
6.4067174015748032
20
-3.0864828346456692
11
6.4046834645669293
21
-3.0868874015748031
0
LINE
8
BLACK
6
CONTINUOUS
10
6.4046834645669293
20
-3.0868874015748031
11
6.3901165354330711
21
-3.0868874015748031
0
LINE
8
BLACK
6
CONTINUOUS
10
6.3901165354330711
20
-3.0868874015748031
11
6.3880825984251963
21
-3.0864828346456692
0
LINE
8
BLACK
6
CONTINUOUS
10
6.3880825984251963
20
-3.0864828346456692
11
6.3863583070866143
21
-3.0853306692913387
0
LINE
8
BLACK
6
CONTINUOUS
10
6.3863583070866143
20
-3.0853306692913387
11
6.385206141732283
21
-3.0836063779527558
0
LINE
8
BLACK
6
CONTINUOUS
10
6.385206141732283
20
-3.0836063779527558
11
6.3848015748031495
21
-3.0815724409448819
0
LINE
8
BLACK
6
CONTINUOUS
10
6.3848015748031495
20
-3.0815724409448819
11
6.3848015748031495
21
-3.0795026771653542
0
LINE
8
BLACK
6
CONTINUOUS
10
6.3848015748031495
20
-3.0795026771653542
11
6.384800039370079
21
-3.0794949606299213
0
LINE
8
BLACK
6
CONTINUOUS
10
6.384800039370079
20
-3.0794949606299213
11
6.3848000000000003
21
-3.0688649999999997
0
LINE
8
BLACK
6
CONTINUOUS
10
6.3848000000000003
20
-3.0688649999999997
11
6.3852045669291337
21
-3.0668310236220471
0
LINE
8
BLACK
6
CONTINUOUS
10
6.3852045669291337
20
-3.0668310236220471
11
6.3863567322834642
21
-3.0651067322834646
0
LINE
8
BLACK
6
CONTINUOUS
10
6.3863567322834642
20
-3.0651067322834646
11
6.3880810236220471
21
-3.0639545669291337
0
LINE
8
BLACK
6
CONTINUOUS
10
6.3880810236220471
20
-3.0639545669291337
11
6.3901150393700785
21
-3.0635500393700785
0
LINE
8
BLACK
6
CONTINUOUS
10
6.3901150393700785
20
-3.0635500393700785
11
6.4046849999999997
21
-3.0635499999999998
0
LINE
8
BLACK
6
CONTINUOUS
10
6.4046849999999997
20
-3.0635499999999998
11
6.4067189763779524
21
-3.0639545669291337
0
LINE
8
BLACK
6
CONTINUOUS
10
5.7692442125984247
20
-3.032700118110236
11
5.7713757086614175
21
-3.0341242913385824
0
LINE
8
BLACK
6
CONTINUOUS
10
5.7713757086614175
20
-3.0341242913385824
11
5.7727998818897639
21
-3.0362557874015748
0
LINE
8
BLACK
6
CONTINUOUS
10
5.7727998818897639
20
-3.0362557874015748
11
5.7732999999999999
21
-3.03877
0
LINE
8
BLACK
6
CONTINUOUS
10
5.7732999999999999
20
-3.03877
11
5.7732999999999999
21
-3.0694300000000001
0
LINE
8
BLACK
6
CONTINUOUS
10
5.7732999999999999
20
-3.0694300000000001
11
5.7727998818897639
21
-3.0719442125984253
0
LINE
8
BLACK
6
CONTINUOUS
10
5.7727998818897639
20
-3.0719442125984253
11
5.7713757086614175
21
-3.0740757086614172
0
LINE
8
BLACK
6
CONTINUOUS
10
5.7713757086614175
20
-3.0740757086614172
11
5.7692442125984247
21
-3.0754998818897636
0
LINE
8
BLACK
6
CONTINUOUS
10
5.7692442125984247
20
-3.0754998818897636
11
5.7667299999999999
21
-3.0760000000000001
0
LINE
8
BLACK
6
CONTINUOUS
10
5.7667299999999999
20
-3.0760000000000001
11
5.7360699999999998
21
-3.0760000000000001
0
LINE
8
BLACK
6
CONTINUOUS
10
5.7360699999999998
20
-3.0760000000000001
11
5.733555787401575
21
-3.0754998818897636
0
LINE
8
BLACK
6
CONTINUOUS
10
5.733555787401575
20
-3.0754998818897636
11
5.7314242913385822
21
-3.0740757086614172
0
LINE
8
BLACK
6
CONTINUOUS
10
5.7314242913385822
20
-3.0740757086614172
11
5.7300001181102358
21
-3.0719442125984253
0
LINE
8
BLACK
6
CONTINUOUS
10
5.7300001181102358
20
-3.0719442125984253
11
5.7294999999999998
21
-3.0694300000000001
0
LINE
8
BLACK
6
CONTINUOUS
10
5.7294999999999998
20
-3.0694300000000001
11
5.7294999999999998
21
-3.03877
0
LINE
8
BLACK
6
CONTINUOUS
10
5.7294999999999998
20
-3.03877
11
5.7300001181102358
21
-3.0362557874015748
0
LINE
8
BLACK
6
CONTINUOUS
10
5.7300001181102358
20
-3.0362557874015748
11
5.7314242913385822
21
-3.0341242913385824
0
LINE
8
BLACK
6
CONTINUOUS
10
5.7314242913385822
20
-3.0341242913385824
11
5.733555787401575
21
-3.032700118110236
0
LINE
8
BLACK
6
CONTINUOUS
10
5.733555787401575
20
-3.032700118110236
11
5.7360699999999998
21
-3.0322
0
LINE
8
BLACK
6
CONTINUOUS
10
5.7360699999999998
20
-3.0322
11
5.7667299999999999
21
-3.0322
0
LINE
8
BLACK
6
CONTINUOUS
10
5.7667299999999999
20
-3.0322
11
5.7692442125984247
21
-3.032700118110236
0
LINE
8
BLACK
6
CONTINUOUS
10
6.0897999999999994
20
-3.0760000000000001
11
6.0460000000000003
21
-3.0760000000000001
0
LINE
8
BLACK
6
CONTINUOUS
10
6.0460000000000003
20
-3.0760000000000001
11
6.0460000000000003
21
-3.0322
0
LINE
8
BLACK
6
CONTINUOUS
10
6.0460000000000003
20
-3.0322
11
6.0897999999999994
21
-3.0322
0
LINE
8
BLACK
6
CONTINUOUS
10
6.0897999999999994
20
-3.0322
11
6.0897999999999994
21
-3.0760000000000001
0
LINE
8
BLACK
6
CONTINUOUS
10
6.747780748031496
20
-2.9978670472440943
11
6.7527318897637798
21
-3.0007255511811022
0
LINE
8
BLACK
6
CONTINUOUS
10
6.7527318897637798
20
-3.0007255511811022
11
6.7567744488188977
21
-3.0047681102362205
0
LINE
8
BLACK
6
CONTINUOUS
10
6.7567744488188977
20
-3.0047681102362205
11
6.7596329527559051
21
-3.0097192519685039
0
LINE
8
BLACK
6
CONTINUOUS
10
6.7596329527559051
20
-3.0097192519685039
11
6.761112637795275
21
-3.0152414960629921
0
LINE
8
BLACK
6
CONTINUOUS
10
6.761112637795275
20
-3.0152414960629921
11
6.761112637795275
21
-3.0209585039370079
0
LINE
8
BLACK
6
CONTINUOUS
10
6.761112637795275
20
-3.0209585039370079
11
6.7596329527559051
21
-3.0264807480314961
0
LINE
8
BLACK
6
CONTINUOUS
10
6.7596329527559051
20
-3.0264807480314961
11
6.7567744488188977
21
-3.0314318897637795
0
LINE
8
BLACK
6
CONTINUOUS
10
6.7567744488188977
20
-3.0314318897637795
11
6.7527318897637798
21
-3.0354744488188974
0
LINE
8
BLACK
6
CONTINUOUS
10
6.7527318897637798
20
-3.0354744488188974
11
6.747780748031496
21
-3.0383329527559053
0
LINE
8
BLACK
6
CONTINUOUS
10
6.747780748031496
20
-3.0383329527559053
11
6.7422585039370073
21
-3.0398126377952757
0
LINE
8
BLACK
6
CONTINUOUS
10
6.7422585039370073
20
-3.0398126377952757
11
6.7365414960629924
21
-3.0398126377952757
0
LINE
8
BLACK
6
CONTINUOUS
10
6.7365414960629924
20
-3.0398126377952757
11
6.7310192519685037
21
-3.0383329527559053
0
LINE
8
BLACK
6
CONTINUOUS
10
6.7310192519685037
20
-3.0383329527559053
11
6.7260681102362208
21
-3.0354744488188974
0
LINE
8
BLACK
6
CONTINUOUS
10
6.7260681102362208
20
-3.0354744488188974
11
6.7231999606299215
21
-3.0326062992125982
0
LINE
8
BLACK
6
CONTINUOUS
10
6.7231999606299215
20
-3.0326062992125982
11
6.7232000000000003
21
-3.0393349999999999
0
LINE
8
BLACK
6
CONTINUOUS
10
6.7232000000000003
20
-3.0393349999999999
11
6.7231984251968502
21
-3.0393429133858265
0
LINE
8
BLACK
6
CONTINUOUS
10
6.7231984251968502
20
-3.0393429133858265
11
6.7231984251968502
21
-3.0439574803149605
0
LINE
8
BLACK
6
CONTINUOUS
10
6.7231984251968502
20
-3.0439574803149605
11
6.7227938582677167
21
-3.0459914173228344
0
LINE
8
BLACK
6
CONTINUOUS
10
6.7227938582677167
20
-3.0459914173228344
11
6.7216416929133853
21
-3.0477157086614173
0
LINE
8
BLACK
6
CONTINUOUS
10
6.7216416929133853
20
-3.0477157086614173
11
6.7199174015748033
21
-3.0488678740157478
0
LINE
8
BLACK
6
CONTINUOUS
10
6.7199174015748033
20
-3.0488678740157478
11
6.7178834645669294
21
-3.0492724409448817
0
LINE
8
BLACK
6
CONTINUOUS
10
6.7178834645669294
20
-3.0492724409448817
11
6.7033165354330704
21
-3.0492724409448817
0
LINE
8
BLACK
6
CONTINUOUS
10
6.7033165354330704
20
-3.0492724409448817
11
6.7012825984251965
21
-3.0488678740157478
0
LINE
8
BLACK
6
CONTINUOUS
10
6.7012825984251965
20
-3.0488678740157478
11
6.6995583070866136
21
-3.0477157086614173
0
LINE
8
BLACK
6
CONTINUOUS
10
6.6995583070866136
20
-3.0477157086614173
11
6.6984061417322831
21
-3.0459914173228344
0
LINE
8
BLACK
6
CONTINUOUS
10
6.6984061417322831
20
-3.0459914173228344
11
6.6980015748031496
21
-3.0439574803149605
0
LINE
8
BLACK
6
CONTINUOUS
10
6.6980015748031496
20
-3.0439574803149605
11
6.6980015748031496
21
-3.0393426771653544
0
LINE
8
BLACK
6
CONTINUOUS
10
6.6980015748031496
20
-3.0393426771653544
11
6.6980000393700783
21
-3.0393349606299211
0
LINE
8
BLACK
6
CONTINUOUS
10
6.6980000393700783
20
-3.0393349606299211
11
6.6979999999999995
21
-3.028705
0
LINE
8
BLACK
6
CONTINUOUS
10
6.6979999999999995
20
-3.028705
11
6.6984045669291339
21
-3.0266710236220473
0
LINE
8
BLACK
6
CONTINUOUS
10
6.6984045669291339
20
-3.0266710236220473
11
6.6995567322834644
21
-3.0249467322834644
0
LINE
8
BLACK
6
CONTINUOUS
10
6.6995567322834644
20
-3.0249467322834644
11
6.7012810236220473
21
-3.023794566929134
0
LINE
8
BLACK
6
CONTINUOUS
10
6.7012810236220473
20
-3.023794566929134
11
6.7033150393700787
21
-3.0233900393700788
0
LINE
8
BLACK
6
CONTINUOUS
10
6.7033150393700787
20
-3.0233900393700788
11
6.7178849999999999
21
-3.02339
0
LINE
8
BLACK
6
CONTINUOUS
10
6.7178849999999999
20
-3.02339
11
6.7183644094488191
21
-3.0234853543307088
0
LINE
8
BLACK
6
CONTINUOUS
10
6.7183644094488191
20
-3.0234853543307088
11
6.7176873622047246
21
-3.0209585039370079
0
LINE
8
BLACK
6
CONTINUOUS
10
6.7176873622047246
20
-3.0209585039370079
11
6.7176873622047246
21
-3.0152414960629921
0
LINE
8
BLACK
6
CONTINUOUS
10
6.7176873622047246
20
-3.0152414960629921
11
6.7191670472440945
21
-3.0097192519685039
0
LINE
8
BLACK
6
CONTINUOUS
10
6.7191670472440945
20
-3.0097192519685039
11
6.722025551181102
21
-3.0047681102362205
0
LINE
8
BLACK
6
CONTINUOUS
10
6.722025551181102
20
-3.0047681102362205
11
6.7260681102362208
21
-3.0007255511811022
0
LINE
8
BLACK
6
CONTINUOUS
10
6.7260681102362208
20
-3.0007255511811022
11
6.7310192519685037
21
-2.9978670472440943
0
LINE
8
BLACK
6
CONTINUOUS
10
6.7310192519685037
20
-2.9978670472440943
11
6.7365414960629924
21
-2.9963873622047243
0
LINE
8
BLACK
6
CONTINUOUS
10
6.7365414960629924
20
-2.9963873622047243
11
6.7422585039370073
21
-2.9963873622047243
0
LINE
8
BLACK
6
CONTINUOUS
10
6.7422585039370073
20
-2.9963873622047243
11
6.747780748031496
21
-2.9978670472440943
0
LINE
8
BLACK
6
CONTINUOUS
10
6.4067189763779524
20
-3.023794566929134
11
6.4084432677165353
21
-3.0249467322834644
0
LINE
8
BLACK
6
CONTINUOUS
10
6.4084432677165353
20
-3.0249467322834644
11
6.4095954330708658
21
-3.0266710236220473
0
LINE
8
BLACK
6
CONTINUOUS
10
6.4095954330708658
20
-3.0266710236220473
11
6.4099999606299214
21
-3.0287050393700787
0
LINE
8
BLACK
6
CONTINUOUS
10
6.4099999606299214
20
-3.0287050393700787
11
6.4100000000000001
21
-3.0393349999999999
0
LINE
8
BLACK
6
CONTINUOUS
10
6.4100000000000001
20
-3.0393349999999999
11
6.40999842519685
21
-3.0393429133858265
0
LINE
8
BLACK
6
CONTINUOUS
10
6.40999842519685
20
-3.0393429133858265
11
6.40999842519685
21
-3.041414960629921
0
LINE
8
BLACK
6
CONTINUOUS
10
6.40999842519685
20
-3.041414960629921
11
6.4095938582677165
21
-3.0434488976377954
0
LINE
8
BLACK
6
CONTINUOUS
10
6.4095938582677165
20
-3.0434488976377954
11
6.4084416929133861
21
-3.0451731889763778
0
LINE
8
BLACK
6
CONTINUOUS
10
6.4084416929133861
20
-3.0451731889763778
11
6.4067174015748032
21
-3.0463253543307087
0
LINE
8
BLACK
6
CONTINUOUS
10
6.4067174015748032
20
-3.0463253543307087
11
6.4046834645669293
21
-3.0467299212598427
0
LINE
8
BLACK
6
CONTINUOUS
10
6.4046834645669293
20
-3.0467299212598427
11
6.3901165354330711
21
-3.0467299212598427
0
LINE
8
BLACK
6
CONTINUOUS
10
6.3901165354330711
20
-3.0467299212598427
11
6.3880825984251963
21
-3.0463253543307087
0
LINE
8
BLACK
6
CONTINUOUS
10
6.3880825984251963
20
-3.0463253543307087
11
6.3863583070866143
21
-3.0451731889763778
0
LINE
8
BLACK
6
CONTINUOUS
10
6.3863583070866143
20
-3.0451731889763778
11
6.385206141732283
21
-3.0434488976377954
0
LINE
8
BLACK
6
CONTINUOUS
10
6.385206141732283
20
-3.0434488976377954
11
6.3848015748031495
21
-3.041414960629921
0
LINE
8
BLACK
6
CONTINUOUS
10
6.3848015748031495
20
-3.041414960629921
11
6.3848015748031495
21
-3.0393426771653544
0
LINE
8
BLACK
6
CONTINUOUS
10
6.3848015748031495
20
-3.0393426771653544
11
6.384800039370079
21
-3.0393349606299211
0
LINE
8
BLACK
6
CONTINUOUS
10
6.384800039370079
20
-3.0393349606299211
11
6.3848000000000003
21
-3.028705
0
LINE
8
BLACK
6
CONTINUOUS
10
6.3848000000000003
20
-3.028705
11
6.3852045669291337
21
-3.0266710236220473
0
LINE
8
BLACK
6
CONTINUOUS
10
6.3852045669291337
20
-3.0266710236220473
11
6.3863567322834642
21
-3.0249467322834644
0
LINE
8
BLACK
6
CONTINUOUS
10
6.3863567322834642
20
-3.0249467322834644
11
6.3880810236220471
21
-3.023794566929134
0
LINE
8
BLACK
6
CONTINUOUS
10
6.3880810236220471
20
-3.023794566929134
11
6.3901150393700785
21
-3.0233900393700788
0
LINE
8
BLACK
6
CONTINUOUS
10
6.3901150393700785
20
-3.0233900393700788
11
6.4046849999999997
21
-3.02339
0
LINE
8
BLACK
6
CONTINUOUS
10
6.4046849999999997
20
-3.02339
11
6.4067189763779524
21
-3.023794566929134
0
LINE
8
BLACK
6
CONTINUOUS
10
7.1021442125984251
20
-2.849200118110236
11
7.104275708661417
21
-2.8506242913385824
0
LINE
8
BLACK
6
CONTINUOUS
10
7.104275708661417
20
-2.8506242913385824
11
7.1056998818897634
21
-2.8527557874015748
0
LINE
8
BLACK
6
CONTINUOUS
10
7.1056998818897634
20
-2.8527557874015748
11
7.1061999999999994
21
-2.85527
0
LINE
8
BLACK
6
CONTINUOUS
10
7.1061999999999994
20
-2.85527
11
7.1061999999999994
21
-2.8859300000000001
0
LINE
8
BLACK
6
CONTINUOUS
10
7.1061999999999994
20
-2.8859300000000001
11
7.1056998818897634
21
-2.8884442125984253
0
LINE
8
BLACK
6
CONTINUOUS
10
7.1056998818897634
20
-2.8884442125984253
11
7.104275708661417
21
-2.8905757086614172
0
LINE
8
BLACK
6
CONTINUOUS
10
7.104275708661417
20
-2.8905757086614172
11
7.1021442125984251
21
-2.8919998818897636
0
LINE
8
BLACK
6
CONTINUOUS
10
7.1021442125984251
20
-2.8919998818897636
11
7.0996299999999994
21
-2.8925000000000001
0
LINE
8
BLACK
6
CONTINUOUS
10
7.0996299999999994
20
-2.8925000000000001
11
7.0689700000000002
21
-2.8925000000000001
0
LINE
8
BLACK
6
CONTINUOUS
10
7.0689700000000002
20
-2.8925000000000001
11
7.0664557874015745
21
-2.8919998818897636
0
LINE
8
BLACK
6
CONTINUOUS
10
7.0664557874015745
20
-2.8919998818897636
11
7.0643242913385826
21
-2.8905757086614172
0
LINE
8
BLACK
6
CONTINUOUS
10
7.0643242913385826
20
-2.8905757086614172
11
7.0629001181102362
21
-2.8884442125984253
0
LINE
8
BLACK
6
CONTINUOUS
10
7.0629001181102362
20
-2.8884442125984253
11
7.0624000000000002
21
-2.8859300000000001
0
LINE
8
BLACK
6
CONTINUOUS
10
7.0624000000000002
20
-2.8859300000000001
11
7.0624000000000002
21
-2.85527
0
LINE
8
BLACK
6
CONTINUOUS
10
7.0624000000000002
20
-2.85527
11
7.0629001181102362
21
-2.8527557874015748
0
LINE
8
BLACK
6
CONTINUOUS
10
7.0629001181102362
20
-2.8527557874015748
11
7.0643242913385826
21
-2.8506242913385824
0
LINE
8
BLACK
6
CONTINUOUS
10
7.0643242913385826
20
-2.8506242913385824
11
7.0664557874015745
21
-2.849200118110236
0
LINE
8
BLACK
6
CONTINUOUS
10
7.0664557874015745
20
-2.849200118110236
11
7.0689700000000002
21
-2.8487
0
LINE
8
BLACK
6
CONTINUOUS
10
7.0689700000000002
20
-2.8487
11
7.0996299999999994
21
-2.8487
0
LINE
8
BLACK
6
CONTINUOUS
10
7.0996299999999994
20
-2.8487
11
7.1021442125984251
21
-2.849200118110236
  0
ENDSEC
  0
EOF
