refinementinfo

progressstart 0
progressstop 100
progresstext "Mesh refinement"

reftype edgesplit

refine edges
2 2977
2599 3606
3 203
4 203
2600 3607
5 2978
10 2979
11 204
12 204
13 2980
17 5113
21 5117
17 5118
211 5120
2606 5120
25 212
214 2608
215 2608
27 5121
219 220
2611 3615
2611 3616
224 5126
2983 5126
33 3627
2989 5143
2616 5143
2618 3631
229 230
231 3633
230 3633
7 2992
2619 2993
232 2993
233 2994
2620 2994
6 2995
235 3634
234 3634
235 236
38 2621
238 2997
15 2999
2622 2999
2622 3000
2623 3001
2623 3002
14 3002
243 3004
39 2624
2626 3642
41 3646
247 248
248 249
249 250
250 251
251 252
42 252
269 270
270 271
8 3010
53 2632
278 2632
278 3012
54 3012
54 3659
288 289
289 3663
290 5205
66 67
74 5206
74 5207
75 76
81 5228
315 316
341 342
342 343
343 344
349 3677
350 3677
351 3678
351 3017
352 3017
106 5246
110 359
113 360
364 365
402 403
405 406
114 407
117 408
408 409
410 411
121 5261
416 3022
415 3022
416 3691
418 3692
417 3692
423 424
424 425
425 426
433 5264
39 2637
126 3025
435 3025
440 441
137 3706
448 449
145 5280
477 478
166 5302
482 483
483 484
491 3711
494 3027
169 3027
170 2639
494 2639
170 2640
1 3028
2642 3029
497 3029
501 502
502 503
507 508
509 3717
511 3030
514 3721
175 3722
515 3722
181 520
520 521
521 522
522 5326
524 5327
524 525
2644 3729
528 3730
527 3733
25 3738
537 2647
539 540
548 549
552 5346
31 3743
188 5349
187 5350
24 5351
575 576
578 5352
580 581
581 5354
189 5355
189 592
593 5357
2658 3749
28 1806
202 1807
74 5362
11 1799
201 1806
190 1807
202 1808
5 1816
538 2647
2648 5364
548 3741
186 3752
536 5343
579 5352
594 5357
81 5362
550 5364
552 5365
184 5367
577 5368
1 3755
1 3756
864 2
3050 3
3 3053
3 1691
3 1476
3 1668
3054 4
4 1491
4 1474
4 1499
4 1947
4 1477
4 1719
4 1654
5 3059
5635 5
613 5
5 665
612 5
5 1755
5 3056
5 1973
5 1947
3759 6
6 3760
4958 6
6 3579
6 3761
6 5002
5376 7
7 3759
7 3763
7 3764
3028 8
3769 9
711 10
10 713
10 1955
11 1478
11 5639
11 1711
11 1449
11 5640
11 1422
11 1632
3069 12
3072 12
12 1306
12 1657
819 13
13 2959
14 3076
14 3078
14 3590
5392 15
15 5393
15 5394
15 3595
3986 18
18 5404
18 5646
18 5406
18 5405
18 5407
18 3783
21 1793
21 2924
24 5411
24 3788
24 5074
24 3790
24 5416
24 5417
24 5413
24 1732
25 3792
25 1952
25 2921
25 1774
26 3793
26 1699
26 5426
26 3796
2689 28
28 2690
2691 28
28 2692
31 2693
31 2695
31 5672
31 3798
31 1921
3620 33
3800 33
3801 33
3802 33
3095 33
33 2706
34 3803
34 6742
35 3804
35 4808
35 3807
3810 38
39 2634
6872 39
39 4801
39 3814
40 5083
41 3727
41 3972
41 3818
41 3819
41 6790
42 4204
42 1700
42 3243
42 6430
3831 48
48 3722
48 5455
48 3833
48 5094
48 2944
48 6986
49 5458
49 5459
49 5460
49 3834
49 3584
50 1366
50 1626
53 2640
53 4938
53 4845
3714 54
54 3837
56 380
56 1342
56 1345
56 1653
57 5302
57 5468
57 3841
57 1715
65 3824
3826 65
65 1323
65 1629
65 2718
65 2722
65 1324
65 1683
66 1628
66 1323
66 2729
68 1322
73 3843
5473 74
3821 74
74 5299
74 6318
74 5475
74 5478
74 5477
75 5480
75 3849
3857 81
3856 81
81 3860
81 5496
81 1958
81 6276
86 1627
5500 87
89 1312
90 5500
90 3106
137 90
90 1312
90 1311
90 1629
90 2718
90 2722
90 1324
90 3132
91 1701
91 5092
91 3902
101 5510
3025 101
101 3862
101 3863
101 4869
103 1370
105 398
397 105
105 1356
109 3861
109 3868
109 3869
400 110
110 386
407 113
113 1716
113 4334
114 3112
114 3870
114 3114
117 359
117 937
118 1289
119 5256
119 3115
120 3115
120 1289
120 2936
940 121
3881 121
121 3883
121 5528
121 5529
123 744
123 933
123 1277
123 1262
124 749
124 3884
124 929
124 1263
126 3887
4771 126
126 3125
127 1275
842 128
128 843
3892 129
4759 129
129 3893
129 3896
129 3897
131 6533
131 1283
133 1292
136 3898
3905 137
5544 137
137 3907
139 5546
5547 139
139 1290
139 1282
834 142
142 5551
142 958
142 959
142 1265
142 1270
958 143
3872 143
143 1265
145 5227
145 3912
145 3914
3913 146
146 5523
146 5560
146 3916
148 182
149 3922
5574 149
149 3924
149 3926
150 5085
152 957
3968 152
3909 153
153 957
153 1267
153 1291
156 1280
156 4539
156 2727
3934 158
158 3940
159 3943
159 3589
163 1149
166 3945
5587 166
3946 166
166 3949
166 3948
166 6686
167 848
167 5591
168 1276
3951 169
169 2735
169 5597
6879 170
4935 170
170 3954
170 3160
171 943
172 626
172 1274
5603 174
3958 174
174 3959
174 3584
174 5090
175 3961
175 3158
175 7169
175 3962
176 3964
176 3156
176 3963
177 3140
178 3967
178 1268
181 4514
181 4669
182 3172
182 3173
182 3174
3177 183
187 3975
187 5616
187 3976
187 6488
187 5617
187 3977
2747 190
190 6789
190 2751
190 2958
201 2699
201 6731
201 3980
201 5626
201 3981
201 1938
201 1932
201 1705
201 2915
202 6789
202 6781
202 3983
202 3984
202 1511
202 5633
202 1776
203 1491
203 1654
203 1476
203 3478
203 3758
204 1824
3072 204
204 1823
204 1711
204 1657
204 1306
204 1713
204 6733
205 3986
205 3987
205 5646
205 3992
205 5647
205 3988
205 5643
205 5645
205 3989
209 3994
209 1773
3994 210
210 3999
210 1773
210 5417
210 5653
210 4000
213 1792
4875 213
213 3793
213 3183
7459 214
4001 219
219 5655
219 4003
220 4001
5658 220
220 5655
220 5660
220 5661
220 5664
220 4013
220 5662
220 4009
220 1740
220 4008
220 7489
4015 221
4014 221
221 5668
221 5669
221 5670
221 5672
221 5671
221 4021
221 4017
221 7489
4023 222
222 4024
222 4025
222 4026
223 4030
223 4031
224 4071
5678 224
224 4033
224 5680
224 5681
224 4035
3192 225
225 5684
4036 225
225 6920
225 4037
226 2792
226 2795
226 5688
227 723
227 5692
227 2798
229 4041
229 4056
5704 230
230 4044
230 4045
230 3214
230 4055
230 4056
230 4041
231 4048
4049 232
232 3202
232 5026
232 5027
232 4052
232 4051
3202 233
5030 233
233 3206
234 4054
234 3213
3214 235
235 4055
4056 235
3216 235
235 3217
4056 236
3219 236
3216 236
236 4057
237 3219
237 2817
238 5728
239 5734
239 5735
5738 240
240 5739
5745 241
241 4065
241 4066
242 4067
3234 243
243 3235
243 4793
5918 247
247 4079
247 4678
248 5920
248 4080
248 4079
248 4081
249 4080
249 4083
249 5923
250 4083
250 4085
250 4089
250 4086
250 5772
251 4087
251 4089
251 640
252 3243
5786 253
253 4093
5792 254
254 3416
254 3417
254 4096
5796 255
5795 255
255 4656
255 4103
255 4655
5800 256
256 4109
256 4654
257 4644
257 5807
258 4640
258 4115
258 4116
259 5813
259 4633
259 4121
259 4638
260 4125
260 4124
260 4123
5819 261
261 4127
261 4130
4132 262
262 4133
262 4134
262 3401
263 3717
263 4612
263 4611
263 4138
263 4139
5828 264
264 4606
5833 265
508 265
265 641
5836 266
266 641
266 1366
275 5862
275 3029
275 3396
275 4146
275 4923
5865 276
276 4148
276 4149
277 4151
278 3389
287 1342
287 1729
287 1653
288 4561
288 1729
288 4174
5905 289
289 4561
289 4552
289 5906
290 5914
382 291
291 1603
291 1483
5792 292
292 1335
293 1335
293 1485
293 1484
293 840
293 1330
293 4102
4097 294
294 4105
294 4100
294 4108
294 1330
294 1327
295 1322
295 1327
5963 315
4227 315
315 5964
315 1308
315 5965
316 5964
316 5970
316 5973
317 4232
317 4230
317 829
317 5976
317 5979
317 5980
318 387
318 4233
318 1580
318 5979
318 830
387 319
319 1627
319 1580
325 822
6002 326
326 822
326 4234
6008 327
327 441
327 4429
327 4237
327 4234
328 4243
328 4245
328 4425
329 4246
329 4248
329 4247
330 4251
330 4252
331 4254
331 4255
331 6736
331 4256
6022 332
332 4258
392 340
340 1370
340 1411
340 1364
341 392
4257 341
341 1361
341 1364
341 1631
342 4257
394 342
342 1361
342 1359
342 1631
343 394
343 401
343 1359
343 1397
344 401
398 346
346 1396
346 1390
347 1396
6052 348
348 4272
349 6057
349 4275
6062 350
350 4282
350 4281
351 4372
351 4285
351 4284
352 4287
352 6070
352 4286
355 4295
355 6082
355 4347
355 4292
356 410
356 4344
356 4297
356 4300
356 4348
357 4344
357 4301
357 4300
6102 359
359 400
409 359
359 6103
359 6104
359 4305
359 6106
360 4207
360 1486
361 405
361 1516
361 6108
362 5221
362 1515
362 1516
362 4213
363 4217
363 1515
363 6749
363 1488
363 4219
364 6109
364 6749
364 6755
365 403
365 6743
365 4224
365 6110
365 4225
3615 366
366 2611
3616 366
2621 393
393 5156
402 4312
4315 402
402 3272
4315 403
4313 403
403 3272
4319 404
404 3274
404 6524
405 4326
406 4329
4325 406
406 3278
406 3276
5519 407
407 4332
407 4333
407 3278
407 4334
407 3114
937 408
408 1281
408 4338
4339 409
409 6142
409 4342
410 4344
6149 410
410 4346
410 4351
411 4344
4348 411
411 6148
411 4351
411 4352
411 4354
6151 412
412 4360
413 4362
413 3289
4364 414
414 3291
414 4365
415 4368
415 4370
4371 416
3301 416
416 4372
4373 416
416 4374
416 4376
416 4377
4379 417
4378 417
417 4380
417 4382
417 4384
417 4385
4386 418
4387 418
418 4389
418 6654
418 4390
4391 419
4392 419
419 4395
422 1269
745 423
423 744
6183 423
424 745
424 6183
424 6185
424 6186
424 6192
6187 425
425 6182
425 6191
425 6193
425 6192
6194 426
426 748
426 6191
748 427
427 749
427 929
3325 430
430 3323
431 3326
431 3325
431 4400
4403 432
432 2824
432 4404
432 3329
433 5243
6207 433
6209 433
433 3333
433 6212
434 6213
3336 434
434 6214
435 4410
435 4411
435 4412
4414 436
4416 436
436 4417
436 4418
437 4419
437 4805
438 4423
438 4424
438 6610
4426 439
439 4425
439 6228
439 4428
4433 440
440 4429
440 4431
440 3351
440 6232
441 4433
441 822
441 4435
441 4436
441 3351
822 442
4435 442
442 4437
442 1275
443 1287
444 842
444 4440
4440 445
445 4443
445 4444
446 4449
447 4450
447 4452
447 4453
447 4454
448 6251
448 1282
448 6687
448 6253
448 6690
448 5964
448 1308
4357 449
449 6534
449 5964
449 5970
451 829
452 830
453 6272
955 475
476 840
476 4520
476 4521
4525 477
477 840
477 3352
4519 477
478 4525
478 4526
3354 478
478 4532
479 4526
479 3355
479 4531
479 4532
480 4529
4534 480
480 4535
4536 480
480 4531
480 4538
480 4539
480 4831
480 2961
6324 481
481 4544
481 4546
481 4547
481 6329
482 4552
4554 482
6333 482
482 4560
4556 483
483 4552
483 4560
483 4561
484 6339
484 1729
485 848
485 5591
4562 487
487 3363
487 1276
4562 488
488 3363
489 4565
489 4566
489 4563
489 4569
490 4574
490 4575
490 4576
491 3662
491 4579
491 3377
4582 492
492 4584
4585 492
492 4586
492 4588
492 6625
4589 493
3389 494
3390 494
494 4593
495 6367
495 3392
496 4596
496 6374
497 3396
497 4599
497 3397
499 1037
500 622
622 501
501 623
501 949
501 6378
501 6384
501 5857
623 502
502 624
949 502
502 6381
502 6382
502 6384
502 5857
624 503
503 625
503 6386
503 6381
503 6387
503 6388
626 504
504 625
504 1274
504 6387
641 506
507 641
507 4605
4606 508
4608 508
508 4610
508 4609
508 4605
4611 509
509 4612
509 4613
509 4610
510 4619
510 4620
510 4621
511 3009
3404 511
511 4624
511 4626
512 4632
4633 513
4634 513
3362 513
513 4635
513 4636
513 4638
4640 514
514 4641
514 4642
514 4643
3651 515
515 4644
515 4647
515 6677
516 4653
516 4652
516 4654
517 4656
517 4657
517 4658
517 4659
3416 518
3417 518
518 4665
518 4664
518 4666
4667 519
519 4668
5610 520
520 3421
520 4508
520 4509
520 4669
520 7488
520 3171
521 640
521 4504
521 4505
4508 521
521 4670
522 4499
522 4500
4504 522
523 4499
523 3433
4488 524
524 4492
524 3438
4678 525
525 3438
4684 526
526 6446
526 4685
526 4077
4686 527
4687 527
527 6449
527 4688
527 4689
527 4692
527 4691
4693 528
528 4694
528 4695
528 4696
4699 529
529 4698
529 6459
6465 530
530 6460
530 4703
530 6467
530 6463
531 6465
6466 531
531 4707
531 4708
531 1769
531 1753
531 6467
531 6468
4707 532
532 1756
532 6472
532 1769
532 6473
532 1788
6475 533
533 6476
6474 533
533 4712
533 4718
533 6479
533 4720
533 6472
6481 581
587 4724
587 3976
587 6488
587 4725
587 6487
587 1777
588 4724
588 1777
588 4728
589 6492
589 1285
589 4731
589 6494
589 1745
589 6496
589 4735
589 4728
6492 590
590 4730
590 4731
590 6506
590 6498
590 4735
591 6506
591 4742
2873 593
593 2705
593 1723
603 4687
603 1385
605 4683
605 4077
3201 614
621 1083
659 623
4640 634
3417 638
638 1154
638 1549
651 640
650 642
651 642
642 5326
642 1471
643 650
649 4750
649 1298
649 1471
650 1298
4671 651
676 1037
3417 681
714 713
713 7492
713 1799
716 1064
3456 722
723 6753
3458 724
4323 727
781 728
5254 728
731 4351
4347 732
3285 733
735 1062
4387 739
5263 740
740 5244
767 1696
821 1077
5273 825
3131 828
829 5278
829 5230
830 1158
836 1158
836 1164
837 1158
6535 840
840 841
4525 841
841 1158
845 4555
3373 854
855 5304
860 982
863 1050
3345 870
889 1287
938 3727
5260 940
940 3690
953 5320
960 5261
4778 964
2605 964
964 2843
4779 965
965 6549
6551 965
6552 965
6550 965
965 6547
965 5161
965 3526
6556 973
982 975
975 1003
4783 975
975 7459
1002 975
975 3467
1002 976
1003 982
1006 982
982 6558
6556 982
982 2802
1041 993
4788 995
995 4790
6575 996
6576 996
1002 1003
1002 1019
1006 1003
1003 1018
1018 1006
1006 3392
1007 1048
6615 1007
1008 1050
1053 1011
1011 1028
1011 4070
1017 1070
1037 1018
1018 1019
1083 1018
1018 3392
6626 1020
1022 6590
1022 1056
1023 4798
1053 1028
1029 1079
1031 1048
1031 1081
1033 2904
3474 1033
1045 1037
1061 1037
1062 1040
1040 1041
1040 3348
1041 6565
1041 1062
1048 4814
1092 1050
1067 1053
1053 1077
1053 6585
1054 1104
1056 1075
1057 1074
1080 1059
1059 1287
1061 1083
1079 1062
1062 1117
1129 1062
6668 1062
1062 4428
1104 1067
6650 1070
1070 1093
1070 1102
1074 1101
1100 1074
1074 4671
1075 1084
3476 1076
4797 1076
1077 1099
1077 1127
1077 6608
1079 1092
1129 1079
4803 1084
1085 1276
4809 1089
1115 1092
1092 1129
1092 1275
1114 1093
1093 1116
1093 6651
1093 2735
1094 4811
4817 1096
1098 4814
1124 1101
4809 1102
4814 1102
6650 1102
1104 1110
1120 1104
1107 1110
4809 1108
1135 1109
1109 4813
1110 1122
1110 6199
1111 1140
1112 1269
1115 1129
1115 3289
6660 1117
1127 1118
1118 1131
6679 1119
1136 1119
1120 1122
1120 1263
1123 1135
1139 1123
1124 1139
1127 1269
1128 4759
1144 1132
1133 4818
1135 1134
1134 3961
1135 1140
1135 1141
1137 4818
1137 3895
1138 1147
1154 1139
1139 3417
4831 1141
1141 3964
1141 4539
1141 3961
1142 3416
4806 1143
1143 1149
6687 1143
1143 1283
1152 1144
1144 4351
1146 1154
1149 1292
1154 1151
1152 6145
1154 1155
1154 3416
1154 5325
1155 4828
1155 4525
4831 1158
1160 6147
1164 1161
1164 1273
1164 1267
1165 3478
1165 1654
1165 1305
1174 3983
1178 1499
1179 5641
1179 5385
1179 5639
1181 1491
1181 1668
1181 3757
1181 3985
1188 1491
1189 1666
1189 1514
1192 1654
1192 1499
1192 1719
1192 1491
1192 3758
4721 1224
1224 1887
4721 1225
1225 1705
1268 3725
1270 1281
1289 5256
1296 1887
1296 1932
1296 5624
1301 1491
1305 3985
1327 4526
1330 4526
1335 3416
1335 3417
1352 3401
1359 6187
1385 1386
1385 1471
1387 1510
1388 4680
1396 5244
1402 6182
1414 1516
1414 1515
1417 4344
1422 1955
1437 4552
1445 4565
1449 5637
1449 1955
1449 1657
1468 1666
1469 1924
1471 4080
1474 1947
1477 3063
1477 1796
1477 1491
1477 1555
1480 5228
1484 4526
1484 4525
1488 3683
1499 1945
1503 3981
1510 6722
1510 1511
1510 2710
1510 1808
1510 1696
1510 3984
1510 3980
1510 5625
1510 5626
1510 5632
1511 5631
1511 3984
1511 6770
1515 4323
1515 4324
1515 3682
1516 1681
1526 3264
1549 3417
1561 3301
1566 3373
1601 1614
1601 1798
1605 1797
1657 6717
1687 1696
1696 1938
1696 3980
1703 1799
1705 5627
1710 1805
1710 1806
1710 1723
1727 1796
1743 3738
1749 1808
1772 1807
1776 1807
1776 1808
1776 5634
1778 5342
1789 1808
1792 3182
1793 1803
3054 1796
1796 3059
1796 2913
1796 1973
1796 3056
1797 3050
3069 1798
1798 3072
1798 3070
1799 5637
1799 6785
1799 5638
1804 2657
1804 2923
1806 2699
1806 4858
5361 1806
1806 1932
1806 1938
1806 5628
1806 2915
1807 1924
1807 1944
1807 6781
1809 1808
1808 2749
6789 1808
4858 1808
1808 3984
1808 1887
1808 3980
1808 5626
1887 1906
1887 3984
1887 3980
1887 6731
1887 5361
1894 3478
1894 5636
1906 6781
1907 6731
1918 2615
1918 5140
1922 2710
1923 4680
1927 3464
1932 2954
1932 2760
1938 3981
1938 6752
1950 2669
1954 5196
1954 2631
1956 3616
1958 6748
1958 5496
1958 5362
1958 5494
1958 6274
1958 3910
2603 4872
2603 4857
2603 4856
2610 4877
2611 4855
2612 4881
2614 4887
2614 6816
2614 4890
2615 4892
2615 6820
6830 2617
2618 3268
2618 4774
2618 4808
2618 6834
2618 6522
2619 4896
2619 4865
2619 4898
2619 4899
2620 4900
2620 4901
2620 4903
3810 2621
2622 6842
2622 3526
2622 6775
2622 6844
2622 6843
2622 6776
2623 3526
3528 2623
2623 4868
2623 4867
2623 4906
2624 4793
2624 4801
2629 6860
2629 4861
6863 2630
2630 4850
2632 4306
2632 4307
2632 4852
2632 4844
3809 2634
4310 2634
2634 4842
2634 4841
2634 4851
4926 2636
2636 4927
2636 3466
2636 4930
4759 2638
2638 4829
3542 2639
2639 4935
3390 2639
2639 4938
2640 7474
2641 4785
5056 2642
2642 4941
4940 2642
2642 4942
2643 4684
2643 6889
2644 4683
2644 6949
2644 6594
2644 4745
2646 4949
2646 3555
2656 4955
5153 2665
2665 5152
2666 2979
2667 2666
2677 6597
5014 2703
3749 2704
2704 2705
2705 3094
2705 3800
2706 3627
2709 3561
5361 2710
2729 5301
2733 3027
2735 3714
2735 5310
2738 5337
5336 2738
3735 2738
2741 3734
3451 2742
2776 2792
3192 2787
2788 2904
2788 3624
2788 5136
2788 5137
2789 5138
2789 3625
2790 3034
2790 5340
2790 3737
2791 2904
2791 5145
2792 3630
4756 2792
5149 2792
2792 4894
2793 7011
5143 2794
2795 5149
2795 3630
2796 2798
2798 5693
2798 5146
2798 3440
2798 6829
2798 3629
2798 5147
5709 2800
2802 5155
2809 5154
2824 5264
2835 4683
2835 4854
2841 5264
2843 5266
2843 4408
2851 5313
2852 4785
2854 3397
2854 5058
2855 5314
2855 5193
2856 5331
2856 4684
2856 3476
2856 3729
4945 2857
2857 2900
2857 3546
2898 2871
3451 2871
2871 5338
2872 6955
2873 2874
2873 7010
2875 2988
2875 5141
2875 3626
2875 6955
2897 6575
2897 2900
2898 6956
2900 4945
2904 6970
2904 6920
6602 2909
2918 5315
2929 5251
2929 5256
2935 3012
2948 5153
2965 5362
6988 2983
2984 5143
2984 4971
2984 6919
2984 3456
6997 2985
2986 3188
2986 4976
2986 4973
2986 7004
4975 2987
2987 6921
2987 3512
2987 6922
2988 5014
2988 4965
2989 6572
2989 6570
5019 2990
2990 4790
2990 6569
2990 4998
2990 5001
2991 5021
2991 4846
2992 3763
2992 5023
2992 5024
2992 3764
2993 5026
2993 3202
2993 4981
2993 5027
2993 5028
3202 2994
4981 2994
5030 2994
2994 5031
2994 7028
2994 5032
2994 4969
4958 2995
5033 2995
2995 3579
2995 3597
2995 5002
3203 2996
2996 4784
2997 4268
5728 2997
2997 4062
5034 2998
2998 7039
2998 7040
5394 2999
7045 2999
2999 7043
2999 3595
2999 7046
4924 3000
3000 6842
4261 3000
3000 6844
3000 3526
3000 6777
3000 7048
3000 7049
3000 6776
3001 3526
4985 3001
3001 7052
3001 6847
3001 4781
3001 4993
3002 3078
3002 3590
3002 6978
3003 5039
3003 4989
3004 3235
3009 4130
3009 4840
3009 4134
3009 4749
7088 3010
7086 3010
7090 3011
3011 7092
3011 7091
3011 4861
3011 4863
3011 4146
3011 3396
3011 4994
3011 5043
3011 7093
3012 4308
3012 4309
3013 4769
3013 4839
3013 4252
6022 3014
3014 4849
3014 4869
3014 3863
7107 3017
3017 4284
3017 4286
7118 3020
3020 3289
3020 4827
3291 3021
3301 3022
3022 5050
3022 4370
3022 4376
3022 4800
3023 4751
3023 3337
3023 4792
3024 3578
3024 3598
3024 4960
3887 3025
4966 3025
3025 4771
3025 4777
3025 4412
3025 4816
3025 7467
3025 4869
3026 4768
3026 5053
5054 3026
3026 4805
3027 3951
3027 4967
3027 4593
3755 3028
3028 3756
3028 4957
3028 5078
3028 6983
3029 3396
3029 4994
5056 3029
3029 5057
3029 3397
3029 4942
3029 5058
3404 3030
5059 3030
3030 4624
3030 4815
3031 3518
7140 3031
3031 3546
3033 7146
3033 6957
5068 3034
3194 3034
3034 7151
3566 3036
3077 4867
3096 5129
3096 3627
3096 3620
3115 5256
3689 3115
3125 3700
3164 5320
3174 3726
5334 3175
3175 3734
6557 3183
3188 5134
3188 3623
3190 5010
5145 3191
3191 5126
5136 3193
3194 5339
3194 3736
3195 5137
3195 5136
3195 3624
5155 3201
3201 5150
3203 5155
3209 5154
5154 3211
3213 3634
3214 3634
3214 3633
3217 3634
3221 4985
3222 5158
3223 5161
5163 3225
3227 5162
5164 3228
3228 5157
5162 3230
5165 3234
3236 3730
3268 3631
3274 3687
3285 3289
5257 3287
3288 5257
3289 5257
3289 4818
5258 3291
3292 5273
3295 4800
3302 6611
3326 3694
3333 3696
5266 3336
3337 3695
3346 5269
3362 3720
3363 5304
5306 3369
3371 5306
3373 5308
3374 5318
3377 3711
3377 3402
3383 4610
3383 6650
3384 5307
3951 3386
3391 5313
3391 5195
3392 5313
3392 5311
3395 5312
3396 3483
5318 3401
3401 5189
3403 5319
3403 5188
3404 6661
3410 5321
5325 3416
3416 4092
3416 5182
3417 5324
3417 5183
3418 5325
3419 5324
3422 5610
3433 5327
3727 3436
3440 5328
5329 3441
3728 3441
5330 3441
3446 5145
3448 5341
3448 3468
3448 5340
3448 3737
3448 7150
3470 3451
3451 7144
4756 3456
5143 3456
3456 5128
3457 5128
6829 3458
5315 3464
3464 5192
3466 6547
3468 5136
4797 3476
3498 4867
3499 5127
3500 5127
3503 3621
3503 5130
3506 5010
5140 3507
3507 5131
3508 4975
3513 5131
3731 3518
3520 5330
3524 5153
3537 5128
3546 3731
3552 5337
3552 3735
3555 5337
3557 3736
3557 5338
3561 4955
3578 3697
3586 3700
3588 3685
3589 3709
3598 3697
4024 3615
3615 4025
3615 4855
5933 3616
3616 6742
3616 3803
3616 4855
3617 4031
4023 3618
3618 7304
3618 4026
3618 4879
3618 4881
3619 4030
3619 4971
3815 3620
3620 7473
3620 3800
3620 5006
4886 3621
4907 3622
3622 5008
3622 4889
7309 3623
3623 4976
3623 4035
4975 3624
7285 3625
3625 6972
7310 3626
3627 3800
3627 5014
3801 3627
5015 3627
7268 3630
3631 4808
3633 4044
3633 4048
3647 4079
5786 3648
4097 3649
3649 7339
3649 4106
3649 4655
3649 6516
7343 3650
3650 6513
3650 4654
3650 6751
3830 3651
3651 7345
3651 4644
3651 3833
3652 4115
3652 6735
3653 7350
3653 4116
3653 4121
3653 4633
3653 4640
3654 4125
3654 3834
3654 4124
3655 4123
3656 7356
3656 4612
3656 4133
7359 3657
3657 7360
3657 6766
3657 4149
3658 4148
7376 3663
3663 4551
3663 4182
3663 4180
7380 3666
3666 4243
3666 4237
3666 4245
3666 4425
3667 4247
3668 4251
3668 4255
3669 3862
3669 4254
3669 6736
3676 6052
3676 7396
3676 4272
3676 4275
3676 6757
3677 7400
3677 4277
3678 7403
7404 3678
3678 4281
3678 7405
3678 4285
3682 4217
3682 4213
3683 6749
3683 4219
3684 3854
3684 4225
3685 7199
3685 3806
3686 4317
3687 4320
3687 6524
3687 7202
3688 4333
3689 7118
3689 4827
4364 3690
3690 4365
3690 6673
3691 4371
4373 3691
3692 4379
3692 4387
3692 4384
3692 4390
3692 6655
3693 4386
4391 3693
3693 4394
3693 4395
3694 4404
3695 6213
3695 7222
4751 3696
3696 4792
3697 6800
3698 4927
3698 4930
3699 6908
3700 3887
3700 6545
3700 3889
3700 7225
3700 7467
3701 4414
3701 4417
4426 3702
3704 7421
3704 4449
3704 6667
4452 3705
3705 4934
3705 4829
3705 4453
3706 3898
3706 5544
3706 3901
3706 6914
3706 7161
3709 6913
3709 3943
3709 7163
3709 7164
3712 7246
3712 7257
3951 3714
3714 4589
3714 5105
3714 7471
3716 4596
3716 4785
3717 4612
3717 4615
3717 4621
3717 6659
3718 4628
3718 4632
3718 4631
3718 4626
3719 3958
3719 3959
3719 6643
3720 4633
4640 3720
3720 4636
3720 4643
4641 3721
3961 3722
3722 4644
3722 3962
3722 5094
4655 3724
3724 7433
3724 6516
3724 4659
3724 4653
3724 7266
3725 3967
4667 3725
3725 4668
3726 4679
3727 6889
3728 4687
4683 3729
4693 3730
3730 4695
3733 4686
3733 4689
3733 4688
3733 4692
3734 5063
4955 3734
3734 7439
3734 6508
3734 5066
3737 7444
7174 3737
4699 3738
3738 6459
3739 4717
3739 4720
3794 5342
5014 3800
5129 3815
5206 3821
3839 5205
3843 5206
3843 5474
3845 5207
3847 5362
3848 5206
3849 5477
3849 5207
5227 3856
5228 3857
3860 5227
3869 5251
3880 5261
3895 4829
3895 4806
3896 5276
5301 3934
3936 5301
3946 5302
3948 5302
3948 4812
3950 5302
3980 7456
3980 3984
3980 3981
3980 6720
3982 3984
3983 5631
3983 3984
3984 6722
3984 6723
3987 5114
3989 5114
5125 4023
4026 5125
4031 5122
4035 5135
5136 4036
4037 5136
4048 5151
4049 5150
4051 5150
4052 5150
4062 5157
4065 5161
4066 5161
4067 5164
4071 5126
4077 5331
4080 5327
4093 5182
4096 5183
4102 5183
4103 5183
4106 5184
4109 5184
5190 4132
4133 5190
4134 5189
4138 5191
5193 4145
4148 5194
4151 5195
4151 5196
4181 5204
4182 5204
4220 5222
5252 4228
4230 5229
4231 5230
5230 4232
5230 4233
4242 5235
4246 5236
4247 5236
4247 4426
4248 5237
4251 5239
4252 5238
4258 5240
5160 4261
4281 5245
4287 5246
4292 5252
4299 5253
4300 4348
4301 5253
4341 6145
5255 4347
4347 5252
4348 5255
4349 5277
4352 5255
4355 5256
5256 4356
4362 5259
4368 5261
4378 5262
4385 5262
5263 4392
5267 4410
4411 5267
4419 5270
4423 5272
4426 5271
4428 5271
4443 5273
5275 4445
4448 5273
4449 5275
4450 5274
4454 5274
4457 6274
5302 4541
4545 5302
4547 5302
4563 5304
5305 4565
5305 4566
4567 5305
4574 5305
4575 5306
4576 5305
5307 4582
5307 4586
4589 5310
4599 5314
4599 6558
5316 4606
4606 5191
4607 5316
4610 5316
5316 4613
4619 5318
4621 6617
4621 5317
4621 4809
4626 5319
4634 5320
4635 5320
4638 5187
4645 5321
4645 5186
4653 5323
4655 4821
4657 5324
4660 5324
5324 4664
5326 4671
4673 5326
5327 4675
4675 4750
5331 4683
4683 4684
4684 5331
4684 5328
4684 4796
4685 5331
4686 4687
4686 5333
4687 5329
4687 4744
4687 6593
5341 4694
4743 4791
4747 6618
4759 4760
4759 5276
5269 4768
4769 5237
4780 5163
4781 5161
6556 4782
4793 5165
4796 6949
4797 6931
4805 5270
6652 4811
4814 6397
4815 5318
4831 4828
4829 5276
4830 4831
4831 6685
4831 4833
4836 6731
4846 5151
4850 5193
4851 5240
4857 5114
5361 4858
4872 5113
4879 5124
4881 5124
5131 4886
4886 5130
4887 5131
4887 5132
4889 5132
4890 5131
4892 5139
4898 5152
4901 5153
5132 4907
5133 4907
4912 5128
4923 5193
4926 5265
4940 5315
4949 5338
4950 5338
5335 4955
5141 4965
4973 5134
5137 4975
4976 5134
5161 4985
4989 5162
4996 5333
5001 5145
5005 5129
5006 5129
5007 5133
5008 5133
5014 5142
5015 5142
5144 5019
5020 5150
5021 5150
5153 5033
5034 5158
5039 5162
5270 5053
5269 5054
5063 5334
5066 5335
5124 7304
5126 6988
5129 6997
5130 6997
5132 6816
5135 5678
7309 5135
5136 6920
5137 6921
5137 6922
7285 5139
5139 6972
5140 6820
5140 6954
5140 6975
5141 7310
7011 5143
6925 5143
5143 6574
5144 6574
5684 5145
5146 5692
6830 5147
5156 5728
5158 5738
5158 7039
5159 5735
5159 5734
5159 7040
5739 5160
5160 7048
5161 5745
5792 5182
5795 5183
5800 5184
5185 6513
5185 6751
5187 5813
5819 5188
5828 5191
6860 5192
5862 5193
5193 6863
5194 5865
5205 5468
5205 6329
5228 6280
5228 6275
5228 5492
5229 5973
5238 7096
7404 5245
6148 5255
5256 6151
7118 5257
6209 5264
5264 6584
5264 6038
5265 6908
5266 6944
5266 6214
5271 6228
5274 7421
6259 5277
5277 6534
5277 5970
5302 5587
6324 5302
5302 5589
5302 5468
5302 6329
7246 5307
6367 5313
7433 5323
5325 6423
5328 6446
6449 5329
7140 5332
5335 7439
5335 7146
7310 5336
5336 6957
5339 7151
5339 6963
7444 5340
5361 6731
5362 5475
5362 5479
5362 5477
5362 5496
5362 5474
5362 6274
6318 5581
6525 5690
5690 6519
5693 6612
5693 6633
6255 6690
6274 6276
6274 7453
7459 6558
6561 7150
6566 7011
6568 6971
6638 6648
6685 6687
ratios
0.2
0.8
0.43
0.44
0.8
0.24
0.2
0.5
0.47
0.2
0.47
0.5
0.54
0.5
0.5
0.5
0.5
0.5
0.5
0.48
0.4
0.42
0.65
0.51
0.39
0.68
0.6900000000000001
0.58
0.5
0.5
0.5
0.5
0.5
0.5
0.5
0.5
0.5
0.5
0.5
0.5
0.5
0.5
0.5
0.5
0.49
0.51
0.5
0.5
0.5
0.5
0.45
0.14
0.5
0.5
0.5
0.5
0.5
0.5
0.49
0.51
0.3
0.5
0.5
0.5
0.4
0.21
0.63
0.36
0.43
0.18
0.2
0.2
0.16
0.2
0.65
0.49
0.51
0.52
0.5
0.49
0.5
0.51
0.5
0.5
0.2
0.24
0.39
0.47
0.44
0.52
0.29
0.55
0.51
0.5
0.49
0.5
0.5
0.5
0.51
0.52
0.51
0.49
0.4
0.52
0.38
0.62
0.58
0.23
0.58
0.17
0.37
0.54
0.58
0.36
0.5600000000000001
0.5
0.51
0.5
0.5
0.42
0.52
0.62
0.55
0.51
0.49
0.51
0.55
0.44
0.61
0.55
0.61
0.5
0.5
0.5
0.5
0.5
0.5
0.35
0.53
0.52
0.5
0.5
0.8
0.5
0.52
0.5
0.5
0.5
0.5
0.48
0.5
0.5
0.5
0.5
0.5
0.5
0.8
0.31
0.74
0.64
0.8
0.74
0.24
0.51
0.2
0.5
0.5
0.5
0.5
0.5
0.5
0.5
0.77
0.5
0.46
0.5
0.5
0.2
0.2
0.8
0.8
0.5700000000000001
0.35
0.2
0.2
0.28
0.2
0.2
0.2
0.73
0.5
0.2
0.2
0.5600000000000001
0.8
0.8
0.2
0.8
0.2
0.64
0.37
0.39
0.84
0.23
0.8
0.18
0.19
0.2
0.8100000000000001
0.2
0.17
0.18
0.4
0.84
0.8
0.2
0.2
0.2
0.22
0.2
0.47
0.4
0.2
0.2
0.39
0.8
0.2
0.21
0.8
0.2
0.21
0.2
0.21
0.85
0.18
0.22
0.17
0.77
0.15
0.13
0.14
0.22
0.2
0.1
0.37
0.22
0.22
0.17
0.16
0.11
0.18
0.16
0.18
0.06
0.19
0.22
0.23
0.22
0.21
0.2
0.15
0.19
0.8
0.2
0.79
0.29
0.22
0.22
0.18
0.17
0.08
0.73
0.8200000000000001
0.79
0.8200000000000001
0.8100000000000001
0.2
0.2
0.2
0.22
0.21
0.23
0.78
0.29
0.59
0.22
0.23
0.24
0.14
0.23
0.15
0.18
0.15
0.23
0.21
0.2
0.48
0.84
0.66
0.2
0.14
0.22
0.19
0.18
0.19
0.18
0.21
0.13
0.2
0.2
0.23
0.61
0.18
0.22
0.78
0.2
0.19
0.21
0.19
0.2
0.64
0.21
0.18
0.19
0.17
0.87
0.15
0.09
0.16
0.22
0.14
0.13
0.13
0.11
0.21
0.2
0.21
0.78
0.8
0.2
0.2
0.26
0.2
0.2
0.2
0.22
0.8
0.8
0.2
0.44
0.78
0.2
0.16
0.77
0.17
0.15
0.14
0.2
0.17
0.13
0.12
0.17
0.15
0.19
0.22
0.13
0.17
0.19
0.21
0.44
0.19
0.2
0.15
0.21
0.2
0.8200000000000001
0.21
0.16
0.19
0.22
0.8
0.22
0.6
0.21
0.41
0.19
0.22
0.2
0.2
0.2
0.22
0.35
0.25
0.19
0.18
0.19
0.8100000000000001
0.79
0.21
0.2
0.21
0.22
0.2
0.16
0.16
0.22
0.16
0.17
0.2
0.18
0.8100000000000001
0.23
0.2
0.79
0.19
0.8
0.84
0.2
0.17
0.22
0.49
0.38
0.39
0.21
0.8
0.79
0.18
0.23
0.8
0.21
0.22
0.87
0.19
0.13
0.13
0.23
0.14
0.87
0.8200000000000001
0.23
0.17
0.17
0.12
0.84
0.23
0.23
0.16
0.87
0.18
0.78
0.16
0.2
0.2
0.15
0.79
0.8300000000000001
0.15
0.11
0.11
0.19
0.18
0.22
0.8300000000000001
0.2
0.23
0.22
0.2
0.21
0.78
0.78
0.22
0.29
0.22
0.21
0.23
0.2
0.8300000000000001
0.18
0.19
0.84
0.8
0.2
0.2
0.19
0.18
0.22
0.77
0.77
0.19
0.21
0.2
0.17
0.2
0.2
0.21
0.19
0.2
0.18
0.22
0.19
0.18
0.21
0.22
0.14
0.21
0.22
0.79
0.21
0.19
0.09
0.15
0.19
0.13
0.8
0.2
0.2
0.27
0.55
0.2
0.24
0.5
0.2
0.23
0.2
0.2
0.45
0.2
0.2
0.2
0.3
0.2
0.2
0.2
0.2
0.2
0.2
0.2
0.3
0.2
0.8
0.2
0.2
0.23
0.2
0.68
0.2
0.23
0.22
0.13
0.14
0.12
0.08
0.13
0.19
0.2
0.22
0.21
0.78
0.22
0.21
0.16
0.14
0.1
0.52
0.2
0.2
0.79
0.2
0.8
0.2
0.1
0.2
0.78
0.2
0.15
0.21
0.17
0.15
0.21
0.12
0.07000000000000001
0.11
0.19
0.78
0.78
0.13
0.18
0.2
0.18
0.19
0.14
0.08
0.19
0.8200000000000001
0.19
0.18
0.21
0.19
0.22
0.16
0.79
0.16
0.22
0.22
0.19
0.8
0.21
0.86
0.21
0.17
0.23
0.22
0.2
0.2
0.2
0.2
0.2
0.21
0.8
0.17
0.16
0.23
0.16
0.21
0.2
0.21
0.84
0.22
0.18
0.18
0.18
0.18
0.8100000000000001
0.79
0.19
0.22
0.2
0.8
0.14
0.8
0.8300000000000001
0.23
0.8200000000000001
0.8100000000000001
0.8300000000000001
0.22
0.19
0.17
0.23
0.2
0.22
0.8100000000000001
0.18
0.85
0.23
0.18
0.2
0.8200000000000001
0.22
0.23
0.78
0.2
0.2
0.17
0.18
0.17
0.19
0.18
0.23
0.17
0.2
0.17
0.19
0.2
0.74
0.16
0.2
0.19
0.2
0.78
0.16
0.8200000000000001
0.16
0.15
0.2
0.8100000000000001
0.8100000000000001
0.17
0.16
0.22
0.78
0.17
0.22
0.22
0.23
0.2
0.19
0.19
0.21
0.2
0.19
0.22
0.18
0.17
0.18
0.8
0.16
0.19
0.85
0.17
0.18
0.2
0.76
0.21
0.16
0.18
0.14
0.79
0.19
0.8100000000000001
0.25
0.23
0.8
0.23
0.2
0.21
0.67
0.21
0.21
0.19
0.78
0.16
0.19
0.17
0.23
0.21
0.22
0.2
0.21
0.22
0.17
0.79
0.21
0.2
0.23
0.22
0.78
0.23
0.22
0.84
0.2
0.2
0.2
0.2
0.22
0.13
0.12
0.84
0.21
0.2
0.15
0.2
0.19
0.22
0.19
0.8100000000000001
0.8300000000000001
0.19
0.2
0.18
0.19
0.22
0.22
0.18
0.18
0.21
0.17
0.22
0.22
0.21
0.2
0.13
0.23
0.23
0.79
0.17
0.14
0.22
0.78
0.22
0.18
0.79
0.74
0.2
0.19
0.18
0.18
0.23
0.21
0.15
0.17
0.16
0.2
0.2
0.17
0.19
0.23
0.12
0.78
0.21
0.8
0.21
0.15
0.17
0.2
0.87
0.11
0.17
0.16
0.13
0.87
0.11
0.16
0.16
0.2
0.23
0.16
0.2
0.23
0.8
0.19
0.16
0.19
0.78
0.2
0.21
0.15
0.78
0.17
0.15
0.2
0.15
0.17
0.23
0.23
0.17
0.17
0.22
0.21
0.2
0.75
0.21
0.13
0.18
0.17
0.19
0.21
0.19
0.8200000000000001
0.18
0.29
0.2
0.2
0.19
0.23
0.15
0.15
0.7000000000000001
0.13
0.22
0.21
0.2
0.2
0.14
0.18
0.11
0.23
0.11
0.19
0.18
0.22
0.21
0.7000000000000001
0.2
0.2
0.22
0.17
0.2
0.8300000000000001
0.17
0.2
0.8
0.16
0.78
0.22
0.79
0.77
0.22
0.8
0.22
0.16
0.21
0.21
0.78
0.21
0.18
0.8
0.21
0.23
0.22
0.2
0.39
0.8200000000000001
0.22
0.2
0.8300000000000001
0.23
0.16
0.2
0.8
0.22
0.21
0.29
0.8200000000000001
0.2
0.21
0.18
0.18
0.78
0.19
0.21
0.18
0.8
0.21
0.22
0.16
0.21
0.8100000000000001
0.8200000000000001
0.16
0.79
0.17
0.18
0.22
0.78
0.79
0.18
0.17
0.2
0.21
0.8
0.8
0.16
0.14
0.2
0.8100000000000001
0.77
0.22
0.2
0.79
0.22
0.79
0.21
0.21
0.2
0.2
0.2
0.8300000000000001
0.24
0.21
0.2
0.2
0.78
0.22
0.21
0.78
0.22
0.17
0.8100000000000001
0.17
0.19
0.19
0.2
0.8300000000000001
0.16
0.17
0.17
0.2
0.85
0.73
0.19
0.22
0.22
0.84
0.22
0.17
0.19
0.22
0.8
0.8100000000000001
0.22
0.22
0.17
0.19
0.22
0.19
0.14
0.8
0.18
0.21
0.19
0.78
0.17
0.18
0.18
0.22
0.22
0.19
0.21
0.22
0.18
0.8100000000000001
0.79
0.15
0.2
0.2
0.21
0.21
0.79
0.18
0.22
0.23
0.21
0.23
0.17
0.2
0.17
0.3
0.2
0.17
0.22
0.17
0.2
0.8200000000000001
0.16
0.19
0.2
0.19
0.23
0.23
0.8100000000000001
0.19
0.15
0.18
0.8
0.18
0.21
0.8
0.2
0.22
0.8100000000000001
0.19
0.21
0.21
0.18
0.2
0.22
0.8
0.19
0.8100000000000001
0.19
0.13
0.18
0.2
0.18
0.79
0.17
0.21
0.17
0.21
0.21
0.8
0.8
0.2
0.8200000000000001
0.25
0.2
0.21
0.2
0.21
0.21
0.23
0.8100000000000001
0.2
0.2
0.8100000000000001
0.19
0.2
0.2
0.19
0.21
0.17
0.23
0.19
0.28
0.15
0.16
0.8
0.17
0.8300000000000001
0.21
0.22
0.16
0.79
0.8200000000000001
0.8
0.21
0.2
0.19
0.21
0.23
0.16
0.17
0.16
0.2
0.22
0.78
0.15
0.18
0.22
0.22
0.23
0.85
0.15
0.8200000000000001
0.2
0.16
0.22
0.23
0.85
0.23
0.21
0.2
0.22
0.18
0.8200000000000001
0.23
0.22
0.22
0.8
0.2
0.2
0.84
0.84
0.2
0.19
0.26
0.86
0.18
0.18
0.19
0.23
0.19
0.19
0.33
0.8
0.17
0.22
0.2
0.8100000000000001
0.8100000000000001
0.8
0.19
0.22
0.18
0.8100000000000001
0.22
0.2
0.22
0.6900000000000001
0.21
0.18
0.35
0.23
0.18
0.21
0.18
0.2
0.21
0.19
0.8300000000000001
0.8
0.21
0.22
0.21
0.77
0.22
0.59
0.21
0.19
0.23
0.21
0.5600000000000001
0.25
0.18
0.18
0.22
0.8100000000000001
0.22
0.19
0.2
0.79
0.22
0.22
0.78
0.21
0.21
0.8100000000000001
0.21
0.78
0.23
0.2
0.23
0.7000000000000001
0.8
0.21
0.23
0.21
0.2
0.21
0.79
0.18
0.2
0.23
0.8
0.22
0.23
0.78
0.22
0.23
0.17
0.21
0.22
0.79
0.19
0.19
0.22
0.15
0.17
0.19
0.8100000000000001
0.09
0.15
0.22
0.23
0.14
0.78
0.22
0.8200000000000001
0.22
0.2
0.14
0.15
0.15
0.8
0.22
0.09
0.15
0.1
0.15
0.18
0.22
0.18
0.14
0.23
0.2
0.2
0.22
0.1
0.17
0.16
0.14
0.77
0.17
0.2
0.2
0.23
0.16
0.2
0.13
0.29
0.8
0.2
0.8
0.2
0.8
0.8
0.2
0.2
0.8
0.2
0.2
0.8
0.2
0.8
0.8
0.8
0.84
0.2
0.2
0.8
0.2
0.8
0.2
0.2
0.8
0.2
0.8
0.8
0.8
0.2
0.2
0.2
0.2
0.2
0.8
0.2
0.8
0.2
0.2
0.79
0.2
0.14
0.8200000000000001
0.2
0.8
0.12
0.2
0.8
0.8
0.23
0.2
0.28
0.2
0.8
0.2
0.2
0.67
0.8
0.2
0.85
0.8
0.2
0.2
0.8
0.8
0.19
0.8100000000000001
0.85
0.86
0.31
0.8
0.8
0.8
0.32
0.8
0.8
0.78
0.26
0.8
0.68
0.2
0.39
0.55
0.8
0.67
0.8
0.6900000000000001
0.2
0.5700000000000001
0.66
0.54
0.8
0.73
0.2
0.8
0.71
0.2
0.2
0.8
0.8
0.59
0.5
0.41
0.8
0.8
0.2
0.8
0.45
0.2
0.8
0.48
0.33
0.35
0.34
0.8
0.2
0.8
0.8
0.5600000000000001
0.2
0.8
0.8
0.8
0.8
0.2
0.8
0.8
0.49
0.31
0.5700000000000001
0.52
0.6900000000000001
0.75
0.23
0.33
0.78
0.73
0.8
0.8
0.8
0.8
0.8
0.8
0.52
0.32
0.7000000000000001
0.8
0.73
0.28
0.33
0.68
0.77
0.2
0.31
0.8
0.64
0.59
0.73
0.26
0.3
0.48
0.54
0.6900000000000001
0.8
0.8
0.2
0.8
0.28
0.71
0.8
0.31
0.2
0.5700000000000001
0.2
0.2
0.5700000000000001
0.2
0.74
0.54
0.62
0.29
0.59
0.8
0.2
0.22
0.8
0.2
0.8
0.32
0.7000000000000001
0.62
0.8
0.8
0.2
0.8
0.2
0.2
0.2
0.8
0.8
0.2
0.35
0.8
0.8
0.2
0.58
0.79
0.8
0.65
0.8
0.6900000000000001
0.8
0.29
0.2
0.8
0.37
0.8
0.72
0.8
0.8
0.7000000000000001
0.75
0.21
0.8
0.24
0.8
0.78
0.8
0.2
0.8
0.3
0.71
0.8
0.6
0.8
0.45
0.8
0.22
0.58
0.71
0.8
0.8
0.6900000000000001
0.8
0.8
0.8
0.8
0.8
0.8
0.8
0.8
0.8
0.8
0.8
0.8
0.8
0.8
0.8
0.8
0.8
0.2
0.8
0.2
0.8
0.8200000000000001
0.36
0.78
0.8
0.8
0.8
0.8
0.8
0.8
0.8
0.8
0.8
0.8
0.8
0.8
0.8
0.8
0.8
0.8100000000000001
0.8
0.8
0.8
0.8
0.8
0.8
0.8
0.74
0.64
0.25
0.2
0.8
0.8
0.8
0.64
0.8
0.2
0.2
0.89
0.8
0.8
0.8
0.8
0.8
0.2
0.22
0.8
0.71
0.2
0.51
0.55
0.34
0.8
0.7000000000000001
0.8
0.79
0.8
0.8
0.8
0.89
0.2
0.8
0.8
0.8
0.8
0.2
0.8
0.8
0.2
0.23
0.8
0.8
0.8
0.8
0.8
0.7000000000000001
0.2
0.8
0.8200000000000001
0.8
0.8
0.8
0.8
0.72
0.78
0.8
0.24
0.77
0.64
0.55
0.2
0.36
0.63
0.2
0.6900000000000001
0.2
0.24
0.35
0.2
0.2
0.2
0.2
0.3
0.2
0.8
0.2
0.2
0.2
0.23
0.2
0.2
0.2
0.8
0.2
0.8
0.8
0.3
0.2
0.33
0.61
0.2
0.8
0.8
0.71
0.8
0.8
0.8
0.8
0.8
0.78
0.78
0.8
0.8
0.8
0.8
0.2
0.22
0.2
0.39
0.84
0.84
0.85
0.2
0.2
0.48
0.2
0.22
0.2
0.2
0.22
0.17
0.18
0.21
0.23
0.21
0.21
0.18
0.22
0.18
0.8
0.16
0.17
0.2
0.23
0.19
0.16
0.14
0.18
0.22
0.2
0.19
0.2
0.8
0.16
0.22
0.2
0.21
0.17
0.23
0.16
0.85
0.22
0.35
0.21
0.23
0.22
0.21
0.19
0.8
0.2
0.23
0.13
0.23
0.13
0.79
0.86
0.22
0.14
0.21
0.8
0.23
0.14
0.19
0.84
0.18
0.8
0.2
0.8
0.22
0.73
0.21
0.77
0.16
0.8
0.22
0.21
0.23
0.2
0.18
0.2
0.21
0.22
0.19
0.8
0.17
0.8
0.2
0.75
0.8
0.2
0.2
0.76
0.63
0.6900000000000001
0.8300000000000001
0.2
0.61
0.89
0.8
0.8200000000000001
0.8200000000000001
0.8
0.2
0.2
0.8100000000000001
0.2
0.8
0.2
0.2
0.8200000000000001
0.8200000000000001
0.8200000000000001
0.8200000000000001
0.8200000000000001
0.8
0.8
0.8
0.2
0.86
0.77
0.8
0.23
0.8
0.8
0.18
0.78
0.78
0.8
0.6900000000000001
0.79
0.2
0.75
0.79
0.8
0.2
0.86
0.85
0.84
0.8
0.8
0.87
0.87
0.75
0.87
0.8
0.8
0.8
0.87
0.8300000000000001
0.8100000000000001
0.52
0.23
0.8100000000000001
0.2
0.8
0.8
0.53
0.68
0.86
0.8
0.2
0.8
0.8100000000000001
0.8100000000000001
0.8100000000000001
0.73
0.8
0.8
0.2
0.72
0.79
0.8
0.8
0.86
0.8
0.79
0.87
0.86
0.8
0.8
0.75
0.17
0.23
0.2
0.77
0.14
0.19
0.16
0.18
0.79
0.18
0.18
0.23
0.21
0.21
0.21
0.18
0.79
0.17
0.13
0.15
0.23
0.22
0.19
0.17
0.19
0.21
0.18
0.18
0.22
0.2
0.18
0.18
0.8100000000000001
0.8300000000000001
0.79
0.19
0.22
0.21
0.2
0.78
0.8
0.18
0.18
0.2
0.77
0.17
0.16
0.77
0.17
0.85
0.21
0.21
0.78
0.86
0.17
0.17
0.22
0.88
0.16
0.87
0.21
0.22
0.16
0.2
0.19
0.23
0.16
0.8200000000000001
0.23
0.54
0.21
0.18
0.2
0.21
0.21
0.21
0.21
0.22
0.19
0.15
0.18
0.16
0.8200000000000001
0.8200000000000001
0.78
0.19
0.22
0.19
0.13
0.21
0.21
0.23
0.16
0.17
0.21
0.17
0.15
0.14
0.2
0.78
0.15
0.2
0.18
0.79
0.17
0.17
0.78
0.18
0.2
0.79
0.8200000000000001
0.21
0.21
0.2
0.2
0.22
0.2
0.18
0.19
0.19
0.16
0.8200000000000001
0.8200000000000001
0.19
0.22
0.22
0.17
0.8
0.19
0.22
0.2
0.78
0.19
0.19
0.2
0.21
0.8
0.2
0.22
0.5600000000000001
0.2
0.16
0.17
0.77
0.19
0.16
0.22
0.18
0.8
0.87
0.17
0.18
0.22
0.8100000000000001
0.2
0.22
0.21
0.84
0.8
0.23
0.8
0.8
0.77
0.8100000000000001
0.77
0.85
0.19
0.8100000000000001
0.84
0.77
0.18
0.8200000000000001
0.8
0.86
0.86
0.8
0.17
0.8
0.16
0.8200000000000001
0.8200000000000001
0.8100000000000001
0.8100000000000001
0.8100000000000001
0.15
0.8200000000000001
0.77
0.8
0.16
0.8
0.8
0.77
0.77
0.8
0.9
0.79
0.17
0.8200000000000001
0.17
0.77
0.17
0.18
0.78
0.84
0.78
0.34
0.12
0.9
0.8200000000000001
0.27
0.21
0.85
0.8
0.8
0.8100000000000001
0.8100000000000001
0.16
0.8
0.86
0.8
0.8100000000000001
0.15
0.85
0.85
0.85
0.74
0.2
0.8
0.6900000000000001
0.84
0.2
0.8300000000000001
0.78
0.8100000000000001
0.8100000000000001
0.84
0.2
0.17
0.8
0.8300000000000001
0.8100000000000001
0.2
0.8200000000000001
0.16
0.2
0.85
0.86
0.87
0.86
0.8300000000000001
0.8
0.78
0.2
0.8200000000000001
0.22
0.22
0.22
0.86
0.79
0.2
0.79
0.79
0.61
0.8
0.8
0.8
0.2
0.8
0.88
0.2
0.16
0.79
0.2
0.8
0.65
0.8
0.87
0.85
0.8200000000000001
0.8200000000000001
0.8
0.17
0.8
0.8
0.79
0.22
0.8
0.85
0.88
0.8
0.79
0.79
0.8100000000000001
0.79
0.79
0.8
0.8100000000000001
0.78
0.8
0.78
0.8100000000000001
0.8100000000000001
0.18
0.21
0.84
0.2
0.15
0.21
0.22
0.8200000000000001
0.19
0.21
0.18
0.23
0.19
0.17
0.84
0.8
0.22
0.22
0.8100000000000001
0.8300000000000001
0.21
0.17
0.79
0.19
0.19
0.79
0.8300000000000001
0.22
0.85
0.18
0.21
0.79
0.77
0.79
0.21
0.17
0.21
0.18
0.77
0.8200000000000001
0.23
0.17
0.21
0.19
0.78
0.22
0.22
0.22
0.78
0.21
0.22
0.17
0.19
0.18
0.22
0.19
0.19
0.2
0.2
0.18
0.13
0.17
0.18
0.17
0.21
0.17
0.79
0.18
0.17
0.19
0.16
0.8200000000000001
0.22
0.19
0.16
0.78
0.18
0.19
0.23
0.21
0.16
0.2
0.19
0.19
0.17
0.23
0.22
0.19
0.2
0.15
0.17
0.21
0.17
0.21
0.77
0.15
0.22
0.15
0.18
0.14
0.21
0.21
0.17
0.17
0.22
0.23
0.21
0.23
0.16
0.22
0.22
0.22
0.2
0.8
0.22
0.2
0.19
0.79
0.22
0.2
0.24
0.2
0.22
0.2
0.8100000000000001
0.16
0.22
0.17
0.22
0.19
0.78
0.18
0.2
0.23
0.19
0.23
0.19
0.2
0.2
0.22
0.8
0.2
0.22
0.8
0.21
0.23
0.17
0.77
0.22
0.18
0.17
0.21
0.21
0.19
0.16
0.17
0.19
0.23
0.22
0.23
0.19
0.22
0.71
0.21
0.23
0.71
0.21
0.21
0.18
0.4
0.19
0.23
0.18
0.2
0.19
0.22
0.23
0.19
0.23
0.19
0.8100000000000001
0.22
0.22
0.78
0.8
0.21
0.2
0.33
0.77
0.21
0.2
0.21
0.22
0.22
0.18
0.77
0.22
0.22
0.23
0.2
0.8100000000000001
0.79
0.2
0.18
0.21
0.23
0.23
0.2
0.85
0.19
0.14
0.18
0.21
0.79
0.8
0.23
0.23
0.15
0.84
0.65
0.16
0.18
0.85
0.79
0.8
0.77
0.8
0.85
0.8
0.78
0.13
0.15
0.8300000000000001
0.79
0.8100000000000001
0.6
0.2
0.8300000000000001
0.17
0.86
0.78
0.79
0.2
0.85
0.2
0.46
0.22
0.2
0.8
0.8
0.8
0.2
0.2
0.78
0.8
0.18
0.79
0.78
0.8100000000000001
0.14
0.8300000000000001
0.79
0.84
0.8200000000000001
0.8200000000000001
0.8300000000000001
0.77
0.8200000000000001
0.8
0.84
0.77
0.85
0.84
0.8100000000000001
0.88
0.8300000000000001
0.8300000000000001
0.8300000000000001
0.15
0.8300000000000001
0.8200000000000001
0.8200000000000001
0.16
0.84
0.8300000000000001
0.8300000000000001
0.8300000000000001
0.8100000000000001
0.8
0.17
0.8200000000000001
0.84
0.18
0.21
0.87
0.85
0.84
0.8
0.8300000000000001
0.8
0.8
0.79
0.13
0.85
0.77
0.8
0.84
0.8
0.8
0.6900000000000001
0.23
0.79
0.73
0.79
0.8200000000000001
0.8
0.21
0.79
0.84
0.79
0.79
0.23
0.17
0.8100000000000001
0.8300000000000001
0.78
0.8
0.8100000000000001
0.8200000000000001
0.17
0.85
0.77
0.79
0.8
0.8
0.2
0.85
0.8300000000000001
0.8100000000000001
0.2
0.2
0.8300000000000001
0.8300000000000001
0.77
0.8100000000000001
0.2
0.21
0.79
0.8300000000000001
0.2
0.16
0.8100000000000001
0.84
0.8100000000000001
0.18
0.77
0.2
0.8100000000000001
0.2
0.78
0.8100000000000001
0.8100000000000001
0.78
0.78
0.77
0.77
0.2
0.79
0.8
0.21
0.21
0.8300000000000001
0.23
0.2
0.2
0.58
0.77
0.78
0.2
0.8
0.38
0.8200000000000001
0.8
0.2
0.8
0.18
0.2
0.2
0.2
0.84
0.22
0.85
0.8300000000000001
0.79
0.8
0.77
0.8
0.8
0.8100000000000001
0.2
0.8
0.8200000000000001
0.48
0.79
0.59
0.42
0.21
0.8
0.8100000000000001
0.8
0.79
0.78
0.2
0.8
0.8200000000000001
0.77
0.19
0.8100000000000001
0.79
0.79
0.8300000000000001
0.8200000000000001
0.78
0.8200000000000001
0.8100000000000001
0.17
0.17
0.8300000000000001
0.8100000000000001
0.8
0.8
0.78
0.8
0.15
0.21
0.84
0.21
0.8100000000000001
0.18
0.79
0.79
0.77
0.86
0.78
0.84
0.79
0.79
0.77
0.21
0.85
0.78
0.2
0.85
0.79
0.2
0.22
0.8
0.8200000000000001
0.19
0.2
0.23
0.23
0.21
0.21
0.79
0.21
0.18
0.23
0.8300000000000001
0.22
0.18
0.19
0.21
0.15
0.64
0.8
0.21
0.33
0.79
0.2
0.8
0.23
0.19
0.21
0.22
0.2
0.21
0.8200000000000001
0.2
0.15
0.8200000000000001
0.78
0.79
0.23
0.22
0.21
0.8
0.79
0.79
0.79
0.2
0.22
0.21
0.2
0.21
0.18
0.16
0.21
0.23
0.77
0.79
0.23
0.78
0.8
0.2
0.18
0.23
0.2
0.22
0.21
0.21
0.8200000000000001
0.16
0.21
0.22
0.79
0.54
0.21
0.21
0.8100000000000001
0.8
0.8
0.23
0.23
0.79
0.8100000000000001
0.19
0.22
0.8
0.21
0.23
0.13
0.79
0.21
0.2
0.39
0.2
0.2
0.24
0.23
0.2
0.8
0.2
0.2
0.2
0.23
0.2
0.2
0.48
0.8
0.8
0.8
0.8
0.74

forceimprovementnum 1
maxthreads 4
