// Number of object-id's
8

// List object-id's with types (0=solid, 1=background, 2=sheet, 3=wire, 4=portwire, 5=portelement, 6=coil, 7=lumpedelement, 8=lumpedwire, 9=current path, 10=voltage path):
WPD1:dielectric
0
air_0:brick
1
WPD1:ground
0
WPD1:trace
0
Resistors:R1
7
Resistors:R2
7
Resistors:R3
7
Resistors:R4
7

// Number of 0D groups with object-id
0

// 0D Groupd-id, object-id

// Number of 1D groups with object-id
4

// 1D Groupd-id, object-id
1 5
2 6
3 7
4 8

// Number of 2D groups with object-id
193

// 2D Groupd-id, object-id from, object-id to
4 2 -1 -1 -1 -1 -1
5 2 -1 -1 -1 -1 -1
6 2 -1 -1 -1 -1 -1
7 2 -1 -1 -1 -1 -1
8 2 -1 -1 -1 -1 -1
9 2 -1 -1 -1 -1 -1
10 2 1 -1 -1 -1 -1
11 1 -1 -1 -1 -1 -1
12 2 -1 -1 -1 -1 -1
13 2 1 -1 -1 -1 -1
14 1 -1 -1 -1 -1 -1
15 2 -1 -1 -1 -1 -1
16 2 1 -1 -1 -1 -1
17 1 -1 -1 -1 -1 -1
18 2 -1 -1 -1 -1 -1
19 3 2 -1 -1 -1 -1
20 3 2 -1 -1 -1 -1
21 4 -1 -1 -1 -1 -1
22 2 -1 -1 -1 -1 -1
23 4 -1 -1 -1 -1 -1
24 2 -1 -1 -1 -1 -1
25 4 2 -1 -1 -1 -1
26 4 2 -1 -1 -1 -1
27 4 -1 -1 -1 -1 -1
28 2 -1 -1 -1 -1 -1
29 4 2 -1 -1 -1 -1
30 4 2 -1 -1 -1 -1
31 4 2 -1 -1 -1 -1
32 4 2 -1 -1 -1 -1
33 4 2 -1 -1 -1 -1
34 4 2 -1 -1 -1 -1
35 4 2 -1 -1 -1 -1
36 4 2 -1 -1 -1 -1
37 4 2 -1 -1 -1 -1
38 4 2 -1 -1 -1 -1
39 4 2 -1 -1 -1 -1
40 4 2 -1 -1 -1 -1
41 4 2 -1 -1 -1 -1
42 4 2 -1 -1 -1 -1
43 4 2 -1 -1 -1 -1
44 4 2 -1 -1 -1 -1
45 4 2 -1 -1 -1 -1
46 4 2 -1 -1 -1 -1
47 4 2 -1 -1 -1 -1
48 4 2 -1 -1 -1 -1
49 4 2 -1 -1 -1 -1
50 4 2 -1 -1 -1 -1
51 4 2 -1 -1 -1 -1
52 4 2 -1 -1 -1 -1
53 4 2 -1 -1 -1 -1
54 4 2 -1 -1 -1 -1
55 4 2 -1 -1 -1 -1
56 4 2 -1 -1 -1 -1
57 4 2 -1 -1 -1 -1
58 4 2 -1 -1 -1 -1
59 4 2 -1 -1 -1 -1
60 4 2 -1 -1 -1 -1
61 4 2 -1 -1 -1 -1
62 4 2 -1 -1 -1 -1
63 4 2 -1 -1 -1 -1
64 4 2 -1 -1 -1 -1
65 4 2 -1 -1 -1 -1
66 4 2 -1 -1 -1 -1
67 4 2 -1 -1 -1 -1
68 4 2 -1 -1 -1 -1
69 4 2 -1 -1 -1 -1
70 4 2 -1 -1 -1 -1
71 4 2 -1 -1 -1 -1
72 4 2 -1 -1 -1 -1
73 4 2 -1 -1 -1 -1
74 4 2 -1 -1 -1 -1
75 4 2 -1 -1 -1 -1
76 4 2 -1 -1 -1 -1
77 4 2 -1 -1 -1 -1
78 4 2 -1 -1 -1 -1
79 4 2 -1 -1 -1 -1
80 4 2 -1 -1 -1 -1
81 4 2 -1 -1 -1 -1
82 4 2 -1 -1 -1 -1
83 4 2 -1 -1 -1 -1
84 4 2 -1 -1 -1 -1
85 4 2 -1 -1 -1 -1
86 4 2 -1 -1 -1 -1
87 4 2 -1 -1 -1 -1
88 4 2 -1 -1 -1 -1
89 4 2 -1 -1 -1 -1
90 4 2 -1 -1 -1 -1
91 4 2 -1 -1 -1 -1
92 4 2 -1 -1 -1 -1
93 4 2 -1 -1 -1 -1
94 4 2 -1 -1 -1 -1
95 4 2 -1 -1 -1 -1
96 4 2 -1 -1 -1 -1
97 4 2 -1 -1 -1 -1
98 4 2 -1 -1 -1 -1
99 4 2 -1 -1 -1 -1
100 4 2 -1 -1 -1 -1
101 4 2 -1 -1 -1 -1
102 4 2 -1 -1 -1 -1
103 4 2 -1 -1 -1 -1
104 4 2 -1 -1 -1 -1
105 4 2 -1 -1 -1 -1
106 4 2 -1 -1 -1 -1
107 4 2 -1 -1 -1 -1
108 4 2 -1 -1 -1 -1
109 4 2 -1 -1 -1 -1
110 4 2 -1 -1 -1 -1
111 4 2 -1 -1 -1 -1
112 4 2 -1 -1 -1 -1
113 4 2 -1 -1 -1 -1
114 4 2 -1 -1 -1 -1
115 4 2 -1 -1 -1 -1
116 4 2 -1 -1 -1 -1
117 4 2 -1 -1 -1 -1
118 4 2 -1 -1 -1 -1
119 4 2 -1 -1 -1 -1
120 4 2 -1 -1 -1 -1
121 4 2 -1 -1 -1 -1
122 4 2 -1 -1 -1 -1
123 4 2 -1 -1 -1 -1
124 4 2 -1 -1 -1 -1
125 4 2 -1 -1 -1 -1
126 4 2 -1 -1 -1 -1
127 4 2 -1 -1 -1 -1
128 4 2 -1 -1 -1 -1
129 4 2 -1 -1 -1 -1
130 4 2 -1 -1 -1 -1
131 4 2 -1 -1 -1 -1
132 4 2 -1 -1 -1 -1
133 4 2 -1 -1 -1 -1
134 4 2 -1 -1 -1 -1
135 4 2 -1 -1 -1 -1
136 4 2 -1 -1 -1 -1
137 4 2 -1 -1 -1 -1
138 4 2 -1 -1 -1 -1
139 4 2 -1 -1 -1 -1
140 4 2 -1 -1 -1 -1
141 4 2 -1 -1 -1 -1
142 4 2 -1 -1 -1 -1
143 4 2 -1 -1 -1 -1
144 4 2 -1 -1 -1 -1
145 4 2 -1 -1 -1 -1
146 4 2 -1 -1 -1 -1
147 4 2 -1 -1 -1 -1
148 4 2 -1 -1 -1 -1
149 4 2 -1 -1 -1 -1
150 4 2 -1 -1 -1 -1
151 4 2 -1 -1 -1 -1
152 4 2 -1 -1 -1 -1
153 4 2 -1 -1 -1 -1
154 4 2 -1 -1 -1 -1
155 4 2 -1 -1 -1 -1
156 4 2 -1 -1 -1 -1
157 4 2 -1 -1 -1 -1
158 4 2 -1 -1 -1 -1
159 4 2 -1 -1 -1 -1
160 4 2 -1 -1 -1 -1
161 4 2 -1 -1 -1 -1
162 4 2 -1 -1 -1 -1
163 4 2 -1 -1 -1 -1
164 4 2 -1 -1 -1 -1
165 4 2 -1 -1 -1 -1
166 4 2 -1 -1 -1 -1
167 4 2 -1 -1 -1 -1
168 4 2 -1 -1 -1 -1
169 4 2 -1 -1 -1 -1
170 4 2 -1 -1 -1 -1
171 4 2 -1 -1 -1 -1
172 4 2 -1 -1 -1 -1
173 4 2 -1 -1 -1 -1
174 4 2 -1 -1 -1 -1
175 4 2 -1 -1 -1 -1
176 4 2 -1 -1 -1 -1
177 4 2 -1 -1 -1 -1
178 2 1 -1 -1 -1 -1
179 2 1 -1 -1 -1 -1
180 2 1 -1 -1 -1 -1
181 2 1 -1 -1 -1 -1
182 4 1 -1 -1 -1 -1
183 3 1 -1 -1 -1 -1
184 2 1 -1 -1 -1 -1
185 3 -1 -1 -1 -1 -1
186 2 -1 -1 -1 -1 -1
187 2 -1 -1 -1 -1 -1
188 3 -1 -1 -1 -1 -1
189 2 -1 -1 -1 -1 -1
190 3 -1 -1 -1 -1 -1
191 2 -1 -1 -1 -1 -1
192 1 -1 -1 -1 -1 -1
193 2 -1 -1 -1 -1 -1
194 2 -1 -1 -1 -1 -1
195 2 -1 -1 -1 -1 -1
196 1 -1 -1 -1 -1 -1

// Number of 3D groups with object-id
4

// 3D Groupd-id, object-id
1 1
2 2
3 3
4 4

