refinementinfo

progressstart 0
progressstop 100
progresstext "Mesh refinement"

reftype edgesplit

refine edges
1 2542
7 3293
9 2544
17 2546
21 2547
14 3299
6 3300
361 362
393 394
399 2556
400 2558
47 401
16 3316
402 3317
50 405
50 51
62 408
63 414
417 418
418 419
419 420
420 421
421 422
88 424
424 425
426 427
427 428
428 429
429 430
432 433
438 3327
113 445
445 446
446 447
447 448
448 449
450 3332
450 451
114 451
124 452
453 454
454 455
456 457
457 458
125 458
153 154
154 471
471 472
156 3339
475 3340
474 3340
476 2569
475 2569
155 2570
476 2570
156 157
157 477
477 478
158 478
162 479
479 480
480 481
481 482
482 483
483 484
484 485
487 488
488 489
489 490
490 491
491 492
173 3344
493 494
501 2572
502 3348
45 3348
503 3349
502 3349
507 3353
19 3356
2573 3356
2573 3357
177 3357
510 511
513 3361
513 3362
516 2574
516 517
521 522
181 2575
524 525
525 526
526 527
528 529
187 2576
193 3371
530 531
531 532
534 535
536 537
537 538
192 3372
195 196
196 539
541 2577
41 2577
541 2578
543 3373
542 3373
198 3374
544 545
550 3379
212 551
551 552
552 3383
553 554
554 555
555 556
556 557
211 557
213 3384
213 214
222 558
558 559
559 560
561 562
562 563
221 564
226 227
240 241
248 249
579 580
249 580
251 3391
582 3392
581 3392
583 2584
582 2584
250 2585
583 2585
251 252
253 584
584 585
252 585
257 586
586 587
587 588
588 589
589 590
590 591
591 592
594 595
595 596
596 597
597 598
598 599
268 3396
600 601
606 2587
607 3400
46 3400
608 3401
607 3401
612 3405
17 3408
2588 3408
2588 3409
272 3409
615 616
618 3413
618 3414
621 2589
621 622
626 627
276 2590
629 630
630 631
631 632
633 634
282 2591
288 3423
635 636
636 637
638 639
639 640
640 641
287 3424
290 291
291 643
644 2592
42 2592
644 2593
646 3425
645 3425
293 3426
294 647
9 3427
650 3429
297 651
297 298
303 304
309 654
308 660
317 318
661 662
662 663
663 664
664 665
665 666
668 669
669 670
670 671
671 672
672 673
674 675
332 675
680 681
9 3299
17 3301
2602 1
3441 1
1 361
6 361
2608 6
6 3164
3446 7
7 3448
7 3450
8 2602
8 3452
9 354
9 3455
2618 14
14 354
3454 14
14 3455
14 3255
15 3457
15 2618
15 3210
16 2544
16 3459
17 368
3466 19
19 2639
19 2636
3467 20
3466 20
20 3274
2550 21
21 2642
4571 21
3470 41
41 3471
41 3472
41 2657
42 2654
42 830
42 3257
43 3523
2790 44
44 3480
44 3481
3482 44
44 2792
44 3485
44 3486
45 4247
46 2797
46 2967
47 2658
47 2659
47 2806
47 2657
47 3473
3539 48
48 3493
197 49
49 1174
49 3540
49 3161
195 50
50 196
51 195
52 195
57 3495
57 60
57 1170
57 1730
57 1522
57 2717
57 2663
63 1202
182 88
183 88
89 181
180 89
99 1759
99 1325
100 3531
100 3263
100 3532
3344 113
173 113
113 3242
113 1337
3347 114
114 172
114 1702
3333 116
116 171
170 116
116 1252
116 1443
116 3179
116 2688
116 1621
139 162
164 139
3341 140
140 161
145 240
159 150
151 159
152 159
158 152
157 153
153 1189
153 1195
154 1195
154 1580
155 1760
155 3523
156 1195
156 1335
468 157
157 1189
157 1195
157 1335
158 470
158 1175
159 1172
459 162
3518 166
176 1357
177 4295
177 2673
3503 187
3501 188
3502 188
188 1722
192 3498
192 1722
195 1165
196 405
196 1165
196 1393
196 1166
3319 197
197 1174
197 1332
3494 198
198 1181
198 3540
3541 199
199 2676
3548 200
200 1101
200 2678
200 3263
200 3235
201 1082
211 269
212 2686
266 212
212 2687
3333 213
3761 213
213 2689
213 3570
213 2688
213 3573
213 2767
213 3575
213 1052
213 3179
2688 214
214 2764
3578 215
215 3579
215 3581
3582 216
3578 216
216 3579
216 3584
3585 218
218 717
218 3578
218 1114
218 1121
218 1107
218 1609
219 3585
219 1121
219 1107
219 1609
221 3585
221 2691
3654 222
222 1115
3591 226
226 3595
226 3596
226 3597
226 2698
226 3220
226 3258
3591 227
227 3600
227 3595
227 3602
695 232
232 1089
232 1104
232 2712
232 1495
3612 233
2705 233
695 235
3653 235
236 689
3614 236
2716 240
240 3620
240 2719
3615 241
241 3623
2722 241
241 3624
241 3620
241 3278
3627 244
244 3628
244 1119
244 1663
3629 245
245 3627
3628 245
245 938
245 1119
245 1709
3632 246
246 938
247 3630
3632 247
247 938
247 900
687 248
2916 249
249 2723
249 890
250 3130
250 2792
251 2728
252 4173
2728 252
782 253
253 3631
253 913
3649 254
3626 254
3632 254
254 913
254 3650
254 1398
3612 257
257 940
257 1103
257 2951
261 3589
3586 262
3407 268
271 1082
272 3668
272 2673
333 275
3434 275
276 333
276 668
276 1090
276 3669
332 277
277 1060
278 332
279 329
3755 282
282 1060
287 1069
3687 288
290 3689
3691 290
290 3690
290 1072
3694 291
291 3695
291 3690
291 937
291 1072
291 3205
291 4700
3698 292
292 897
2735 293
293 2736
293 2739
293 3237
2654 294
294 3477
294 3478
294 2741
294 2660
3065 295
295 892
295 872
295 2739
295 4530
296 2737
296 3698
296 892
296 3203
3690 297
297 938
3709 298
298 3706
298 1080
298 938
298 1709
299 3627
299 3629
299 3689
299 3691
299 1080
299 938
300 3627
3691 300
300 1080
300 938
300 1111
303 3710
303 3711
3712 303
303 3722
303 3714
304 3719
3710 304
304 3718
304 2747
304 3722
308 690
308 2744
308 949
309 1105
314 2708
314 3729
3730 314
314 2752
314 3731
314 3733
315 2708
3736 315
3737 315
315 3730
315 3733
2758 317
317 1684
318 3748
3749 318
2758 318
318 3750
318 3751
318 2761
318 2762
318 2665
322 3675
328 3583
328 3582
3672 328
328 3673
328 1133
328 1756
329 3673
329 1133
329 1050
329 1056
330 2688
2690 330
2689 331
342 1099
342 2777
354 830
830 355
824 360
2782 367
368 2782
397 3788
2790 398
3791 398
398 3641
398 2792
3794 399
4580 399
399 3795
399 3797
399 2793
400 3800
400 2785
400 2784
400 2793
401 2658
402 3806
402 2805
402 2806
403 2809
403 2807
4047 404
404 2809
404 2811
404 2813
405 539
406 540
539 406
540 407
408 1180
408 1526
408 1177
408 4025
409 3812
3814 409
409 1190
409 1180
3814 410
410 1190
410 1180
410 1187
410 1194
411 3818
411 1197
411 1194
412 3820
412 1197
412 1727
412 1200
413 3823
413 3822
413 1200
413 1731
414 1202
414 1200
414 4036
414 1731
414 4429
415 1219
415 1722
415 1214
416 1219
416 1231
417 1226
417 1219
417 1223
417 1231
417 4459
417 4009
418 1226
418 1231
418 4456
418 1232
418 1240
419 1242
419 1232
419 1240
420 1242
420 1244
420 1240
421 1247
421 1244
421 1480
421 4018
422 1247
422 1480
422 4021
422 1241
423 1251
423 1241
516 424
2574 424
424 3842
424 3844
424 3843
424 3982
425 516
425 517
425 3842
425 3844
425 3855
425 3848
425 2850
425 3851
425 3849
426 3365
3366 426
426 518
426 3854
426 2859
426 3989
426 2858
426 3855
427 3366
519 427
427 3367
427 3859
427 3861
427 2869
427 3860
427 2865
427 3854
427 3994
427 2864
520 428
428 3368
428 3866
428 3998
428 2869
428 3859
522 429
521 429
429 3867
429 3872
430 522
430 2575
430 1641
430 4005
430 3075
430 3872
430 4004
431 1312
431 1428
431 1359
432 4511
432 1326
432 1312
432 4516
433 1331
433 1326
433 2815
433 4511
434 1339
434 1331
435 1369
435 1339
436 1303
437 1370
437 4500
445 3344
445 493
445 3874
445 3873
445 1337
445 3940
495 446
446 494
446 3873
446 3879
446 4100
446 3949
446 3877
495 447
447 496
447 3880
448 496
448 497
448 3345
448 2896
3345 449
449 498
449 499
449 3346
449 3889
449 3890
449 3887
501 450
500 450
450 3896
450 3964
450 3895
451 501
3347 451
451 2572
451 4557
451 3901
451 4083
451 4071
451 3968
452 1250
452 1238
453 2822
453 2820
453 1250
488 454
454 2822
454 1246
454 4121
454 1234
455 4121
455 1246
455 1234
455 2832
455 1452
455 3937
456 2828
456 2833
456 2834
456 2832
456 1452
457 4106
457 2833
457 1452
457 1237
457 2836
457 1229
458 4106
458 1237
458 2839
458 1229
458 1228
479 459
460 479
460 480
481 461
461 480
462 481
482 462
463 482
464 482
483 464
484 465
465 483
485 466
466 484
467 485
3341 467
477 468
469 477
478 469
470 478
471 3340
471 1195
471 1631
471 1580
472 3922
473 3928
474 1753
474 1198
474 1329
474 1195
475 1198
475 1199
475 1753
475 3922
476 1694
476 1199
477 1189
477 1494
478 1494
478 1175
480 1203
481 1203
481 1461
481 1306
482 1461
482 1318
482 1306
483 1196
483 1461
483 1327
483 1318
484 1196
484 1334
484 1327
484 1487
485 1334
485 1487
3905 486
486 2818
486 2819
3904 487
487 3932
487 2934
487 2821
487 4197
487 2820
488 2936
488 2824
488 3933
3910 489
489 2935
489 2826
489 3937
489 2832
490 3913
490 2828
490 2834
490 2832
491 3915
491 2836
491 2835
491 2828
491 4213
492 2947
492 2840
492 2839
492 2835
493 3940
493 3943
494 3946
494 3947
494 3948
494 3949
494 2952
495 3946
495 3878
495 1619
495 3954
495 3880
496 3881
496 3886
497 2965
497 4523
497 2962
497 3886
498 3892
499 3961
499 3962
499 4237
500 3964
500 1613
500 3965
500 3899
501 3899
501 3968
502 1356
502 1368
503 1324
503 1356
504 1347
504 1324
504 1350
505 2975
505 1343
505 1347
505 1311
506 1343
506 1336
507 1336
507 1669
508 1320
509 1312
509 1428
509 3974
510 1326
510 2989
510 4275
511 1331
511 1326
511 1288
512 1339
512 1331
513 2998
513 1369
513 1303
513 1339
514 3001
514 1303
515 4292
515 1370
516 3983
516 2846
517 3986
517 2843
517 2851
517 2850
518 4310
518 2859
519 2865
520 3995
520 2869
520 3996
521 4000
521 4001
521 3999
521 3867
522 4000
522 4001
522 3868
522 4003
522 4004
3828 523
523 4006
3830 524
524 3028
524 3027
3830 525
3831 525
525 3833
525 4338
525 4009
3833 526
3832 526
526 3835
526 3039
526 4015
3835 527
3834 527
527 3837
527 3043
527 4016
3837 528
3836 528
3839 528
528 4351
528 3043
528 4018
3839 529
529 4352
529 4021
529 1251
529 4018
3811 530
530 4358
530 1177
530 1643
3813 531
3815 532
532 1607
533 1596
533 1607
533 1194
534 1596
534 1728
534 1194
3819 535
535 1728
536 1673
536 4033
536 4379
537 1673
537 1606
538 3497
538 3825
538 4037
538 1513
538 4036
538 4038
538 4039
538 1606
539 1166
3319 540
540 1174
540 1332
3805 541
541 2803
542 4042
542 3808
542 3054
542 4044
542 4043
3810 543
543 4049
543 1181
543 2813
4050 544
4051 544
544 4052
544 1082
544 4266
544 4265
545 4050
4053 545
545 4052
546 2876
546 1074
546 2984
547 4057
547 1074
4061 548
548 2879
548 2973
549 2970
550 4068
550 4069
550 4244
550 4541
550 1073
550 4245
550 3265
4079 551
551 4071
551 2884
551 4075
551 3902
552 4079
605 552
552 2884
552 2886
552 3902
552 4083
553 4085
4086 553
4084 553
553 604
553 3398
553 2889
553 4088
553 3895
554 4085
4091 554
604 554
603 554
554 3397
554 2895
554 3887
554 4094
555 602
555 2899
555 2894
4100 556
4099 556
556 601
556 2955
556 916
556 2902
557 4100
3396 557
557 1051
557 2904
558 4105
558 4106
558 4107
4111 559
559 4106
559 2949
560 4111
4117 560
560 4115
560 2940
560 926
560 2944
561 4117
4121 561
561 2940
561 926
562 4120
4121 562
562 925
562 4124
562 2937
4126 563
563 4120
563 925
564 4126
3585 564
4128 564
4194 564
564 925
564 2928
564 1107
689 565
566 689
566 691
4132 566
567 691
691 568
691 569
569 694
4136 569
569 928
569 931
694 570
570 931
570 927
570 928
570 4177
694 571
571 4141
571 927
571 931
572 694
572 4144
572 940
572 959
572 927
572 931
695 573
573 694
573 3653
573 4145
573 959
573 940
687 574
574 711
3645 574
574 4527
574 896
711 575
4148 575
575 896
710 576
576 711
577 710
578 2912
578 853
580 2916
580 2919
580 4684
581 2917
3638 581
581 2919
2920 582
582 4159
4160 582
582 2922
582 1754
4155 583
4156 583
583 853
584 782
4173 584
584 4149
584 4150
584 896
4173 585
585 896
585 3234
585 1342
586 777
2950 586
4144 586
586 940
587 777
779 587
587 4142
587 927
587 940
588 779
588 4139
588 4140
588 927
588 4177
589 783
4178 589
589 4138
589 4139
589 901
589 928
781 590
590 4134
590 4135
590 4137
590 901
591 781
591 4132
591 4133
591 929
591 4181
4187 592
592 4183
592 4131
593 4193
593 2927
593 2928
593 1079
593 4240
4197 594
594 2930
4198 594
2909 594
594 4127
594 2933
594 2932
594 2937
594 2934
595 2930
2936 595
595 2935
595 2908
595 4122
595 2937
595 4202
2935 596
596 4204
2908 596
596 4118
596 2826
596 4207
4208 597
4214 597
4204 597
597 4116
597 2907
597 2944
4213 598
598 2905
598 4112
598 2948
598 2944
599 2947
2905 599
599 2840
2952 600
600 2955
600 3943
601 2952
601 4224
601 2959
601 905
601 3946
601 4226
4237 604
4523 604
604 904
604 2890
605 2929
775 605
605 2931
605 3383
605 4082
605 4544
605 924
605 2886
605 1721
605 1680
605 1613
605 3966
606 4238
606 4082
606 3970
4242 607
607 4243
608 4249
2969 608
608 4066
2971 609
2972 609
609 2973
609 4062
4252 610
610 4058
611 1074
4261 612
2979 612
4264 613
613 4263
613 4222
613 4052
613 2983
613 4265
613 4055
614 1075
614 3114
615 4275
615 2989
615 1075
615 3109
616 2991
616 2992
616 4622
616 4514
2998 618
618 3102
3001 619
4292 620
620 4290
620 1063
620 4295
4298 621
621 675
621 1060
621 4495
621 3983
621 3978
621 4304
621 4303
622 674
622 3009
622 3986
622 3984
3012 623
4310 623
623 673
623 1078
3015 624
3014 624
624 672
624 1078
624 3087
624 4314
625 671
4321 626
670 626
626 3022
626 4000
626 4324
626 4003
626 4323
4326 627
627 4270
669 627
627 3973
627 4003
3026 628
3028 629
3027 629
629 3030
4338 630
630 3034
630 4340
630 3030
630 3035
630 3036
631 3039
631 3040
3034 631
631 4342
632 3044
3040 632
632 4346
4348 633
633 3006
3043 633
3044 633
633 3047
662 633
633 3048
633 4350
633 4354
633 4351
3047 634
634 2763
634 4353
634 4354
635 4358
635 914
635 1643
4358 636
636 4363
4359 636
636 4364
636 914
636 4365
636 4361
741 637
637 4367
637 4368
4363 637
637 4370
637 4369
637 911
637 1607
4368 638
638 4375
638 4374
638 911
4378 639
639 4380
4375 639
639 4381
639 917
4383 640
4380 640
640 4385
640 4384
640 918
640 1673
640 1606
640 4037
641 4388
4385 641
641 918
641 4037
641 1513
642 4393
642 897
643 4392
4397 643
643 4398
643 897
643 937
4609 644
3051 644
644 3137
644 1875
645 4404
645 871
646 876
4412 647
647 3477
647 3064
647 4413
647 3136
648 872
648 3069
649 870
650 3052
650 870
684 651
688 651
3695 651
651 899
652 684
652 4394
653 892
653 899
4429 654
654 4385
654 4389
4429 655
655 4430
655 4384
4385 655
656 4430
656 917
657 4368
657 4374
657 4441
657 947
657 1727
4439 658
4368 658
658 4369
4370 658
658 955
658 947
659 4363
659 4369
659 955
659 947
659 4365
690 660
660 4359
660 949
660 955
660 4360
660 4361
660 3196
4445 661
661 3754
661 4444
661 921
661 4354
662 4445
4446 662
662 4349
662 921
663 4446
4447 663
663 921
664 4447
4455 664
664 4451
664 4453
4456 665
665 4455
4339 665
665 4453
665 919
665 3035
666 4456
4459 666
666 4335
666 4461
666 919
666 3030
4459 667
667 4332
667 4461
667 4463
667 1096
667 4460
3075 668
668 2590
668 1641
669 3075
2590 669
669 3077
669 3872
669 3870
4466 670
4467 670
670 3079
670 3023
670 3866
670 4479
670 3869
671 4466
4473 671
4472 671
671 3420
671 3419
671 3861
671 3859
672 4473
672 3419
3418 672
672 1078
672 3085
672 3861
672 3854
672 3862
4485 673
3417 673
673 1078
673 3009
673 3092
673 3854
673 3855
673 3848
673 3850
673 4487
673 4486
674 3009
674 4308
674 3094
674 3842
4492 675
675 4493
675 4489
4494 675
2589 675
675 1060
675 3842
675 3843
675 3169
4501 676
4500 676
676 4502
676 1063
4504 677
4503 677
677 4289
678 3102
679 3106
679 2991
679 2995
4511 680
680 4277
680 3109
681 4511
4516 681
681 3109
681 1075
682 1077
682 3114
686 711
686 4527
694 692
692 931
694 693
694 695
697 935
699 2904
704 706
706 935
709 953
716 710
710 1510
712 716
712 1510
3430 714
714 892
717 957
736 871
775 3398
777 1300
823 839
2782 823
823 4605
824 3390
853 825
825 875
825 3309
4527 826
827 4527
870 828
872 828
4530 828
870 829
870 830
830 3304
830 2554
831 871
839 2785
839 2782
839 3409
842 3315
842 2558
854 851
852 865
875 853
853 854
853 3388
853 3387
853 2584
877 854
854 4533
855 901
883 861
861 3401
861 3379
865 3414
918 867
911 869
3136 870
870 871
872 870
870 3428
871 876
871 3425
892 872
872 2594
873 899
873 892
874 891
890 874
4527 874
875 877
875 890
876 892
876 898
876 3426
877 929
889 877
883 3377
884 905
4544 886
890 4527
891 900
899 891
892 3430
905 895
895 916
895 1082
929 896
898 897
897 1072
930 900
900 938
927 902
925 903
923 904
904 942
904 3398
904 3397
906 3420
910 918
916 912
938 913
913 3393
937 914
925 933
927 959
931 956
932 933
932 953
932 957
932 1114
933 942
942 935
951 935
938 949
942 960
4544 942
953 945
946 3421
946 3422
957 953
956 959
1060 2591
1063 3416
1063 3415
1063 3436
1073 3400
1074 2580
1074 3404
1075 3439
1077 3440
1078 3418
1079 3399
1079 2586
1082 3376
1082 3407
1087 3434
1090 3434
1100 2596
1101 3315
1101 3375
1105 3424
1177 3371
1181 3374
1181 2560
1195 3339
1198 3340
1199 2570
1199 2569
1201 3307
1204 3307
1223 3370
1251 2576
1294 1303
1302 2575
1303 3322
1303 3323
1303 4284
1303 3362
1303 3363
1311 3351
1312 3321
1312 3359
1320 3354
1320 3355
1324 3350
1326 3359
1331 2563
1331 3360
1335 3339
1336 3353
1336 3354
1337 3355
1339 2564
1339 3361
1339 4284
1343 3352
1347 3351
1356 3349
1356 4068
1357 3355
1358 3872
1359 3320
1365 3330
1365 3354
1368 3348
1369 3322
1370 3363
1370 3323
1370 3324
1370 3364
1393 3371
1428 3358
1428 3320
1487 3341
1513 3372
1615 3332
1618 3345
1643 3371
1658 3332
1669 3354
1721 3398
1722 3369
1738 3337
1738 2568
1753 3340
1754 2584
1872 3408
1875 2592
2542 3389
3460 2553
3803 2553
2553 3210
2553 4572
2553 4564
2554 4569
4412 2554
2554 4413
2554 3255
2555 4577
2555 3464
2555 4561
2556 3530
2556 4580
2556 4581
2556 4560
2556 2793
2556 4582
4584 2557
2557 2788
2557 4586
2558 3662
2558 4588
2559 2809
2560 4048
3539 2560
2560 2813
2560 2811
2568 3787
2568 4590
2568 3216
2568 3217
2570 3336
3905 2571
2571 4557
2573 4605
2573 4562
2573 2635
2573 4624
2573 2672
2574 3845
2577 2657
2577 2803
2578 3808
3809 2578
2578 4552
2578 4044
2578 4595
2579 2984
2579 2876
2582 2716
2582 2719
2582 3620
2583 3164
2584 4155
2584 4160
2725 2585
2585 3131
2585 3130
2586 3201
2587 3201
4604 2588
2588 4605
4522 2588
2588 3313
2588 3801
2588 2785
2588 2635
2590 4464
2591 3755
2592 2653
2654 2592
2592 4609
2592 3052
2592 3137
2592 2655
3056 2593
2593 4542
2596 2747
2596 2748
2596 3722
2596 2749
2599 3102
2599 3103
2600 2991
3390 2604
2629 3408
2635 3356
2636 3356
2636 4701
2643 3313
2643 3311
3429 2654
2657 3317
2660 3429
2672 3357
2673 3416
2673 3357
2676 3375
2678 3375
2685 3434
2688 3432
2733 3432
2736 3426
2737 3426
2739 3426
2741 3429
3426 2742
2767 3432
2768 3432
2777 3440
2778 3427
2784 3313
2785 3313
2785 3409
2788 3313
3309 2790
2792 3309
2792 3390
2797 3315
3400 2797
2802 3313
2805 3318
2806 3317
2807 3318
2813 3373
2818 3342
2819 3342
2820 3342
2821 3342
2839 3343
2851 3365
2857 3366
2858 3365
2859 3366
2863 3367
2864 3366
2865 3367
2869 3367
2880 3379
2881 3378
3379 2882
2886 3383
2889 3383
2889 3398
2890 3398
2910 3394
2914 3388
2917 3392
2919 3392
3392 2920
2927 3394
2928 3394
2931 3394
2932 3394
3397 2962
2965 3345
2967 3400
2967 3315
3401 2969
3403 2971
2971 3351
3402 2972
2973 3403
3404 2975
2975 3352
2978 3403
2979 3405
2983 3406
3412 2990
2991 3412
2996 3413
3413 2998
2998 3361
3414 3001
3001 3362
3002 3415
3004 3416
3007 3417
3009 3417
3418 3012
3418 3014
3419 3015
3017 3420
3022 3420
3422 3027
3027 3370
3054 3425
3054 3373
3061 3425
3068 3425
3082 3419
3084 3420
3087 3419
3438 3099
3099 3322
3102 3413
3439 3111
3111 3321
3112 3439
3114 3439
3150 3413
3164 3389
3164 3308
3198 3310
3200 3356
3200 3408
3210 3302
3215 3416
3216 3338
3217 3306
3217 3337
3235 3375
3240 3376
3246 3440
3255 3305
3263 3324
3274 3310
3290 3400
3293 3306
3460 3302
3303 3471
3303 3803
3303 4564
3304 3477
3304 4412
3304 4413
4569 3305
3454 3305
4412 3305
3449 3306
3306 3450
3306 4553
3306 3788
3307 3523
3307 3788
3308 3791
3481 3309
3309 3641
3464 3310
3311 3794
4577 3311
3311 3795
3311 3797
3311 4561
3312 3530
3312 4560
3800 3313
4584 3313
3314 4571
3315 3662
3316 4572
3318 3806
3318 4595
3324 3532
3324 4500
3346 3332
3332 3889
3332 3896
3336 3523
3336 3928
3336 3485
3787 3338
3340 3919
3344 3407
3345 4523
3345 3886
3345 3960
3345 3892
3347 4078
3356 4561
3356 4562
3356 4604
3356 4579
3356 4701
3364 4295
3364 3532
3366 3854
3367 4314
3368 3864
3368 3999
3370 3828
3370 4006
3496 3371
3371 3495
3811 3371
3498 3372
3372 3497
3372 4036
4042 3373
3373 4043
3373 4049
3548 3375
4059 3377
3377 4057
4064 3378
4068 3379
3379 4244
3379 4069
3380 4068
3383 4080
4084 3383
3398 3383
3383 4544
3383 3897
3383 3895
3387 3480
3482 3387
3387 4537
3638 3391
3391 3637
3392 4165
3393 3613
4131 3393
4197 3394
3394 3931
3394 3932
3407 3396
3396 4266
4523 3397
3398 4237
3398 4544
3398 3962
4242 3400
3400 4247
4249 3402
3403 4063
4264 3406
3406 4055
3407 3660
3408 4604
4605 3409
3411 4278
3415 4287
3661 3416
3416 4290
3416 3663
3416 4295
3417 4310
3418 3992
3419 4477
3419 4314
3421 3684
3422 4457
3687 3423
3724 3423
3424 3683
3424 3727
4404 3425
4617 3425
4412 3427
4613 3428
3428 4542
3702 3429
4609 3429
3430 3697
3432 3763
3773 3434
3434 3786
3436 3547
4500 3436
3436 3664
3437 4501
4503 3437
3437 4502
3438 4504
4508 3438
4519 3439
3784 3440
4106 4670
4544 4539
ratios
0.16
0.2
0.17
0.23
0.19
0.22
0.22
0.5
0.5
0.5
0.5
0.5
0.5
0.49
0.5
0.5
0.5
0.51
0.5
0.51
0.51
0.51
0.5
0.5
0.5
0.5
0.49
0.49
0.49
0.48
0.47
0.49
0.47
0.45
0.48
0.51
0.47
0.52
0.5
0.5
0.5
0.5
0.5
0.49
0.5
0.5
0.5
0.49
0.5
0.49
0.51
0.49
0.51
0.5
0.51
0.5
0.5
0.5
0.5
0.5
0.49
0.49
0.5
0.51
0.51
0.51
0.53
0.53
0.53
0.52
0.51
0.5
0.5
0.44
0.5
0.5
0.5
0.5
0.5
0.5
0.5
0.5
0.5
0.5
0.5
0.5
0.5
0.5
0.5
0.5
0.5
0.5
0.5
0.5
0.5
0.5
0.5
0.41
0.5
0.61
0.5
0.5
0.5
0.5
0.5
0.5
0.49
0.5
0.49
0.5
0.77
0.53
0.5
0.52
0.52
0.51
0.48
0.45
0.47
0.51
0.23
0.75
0.5
0.49
0.5
0.5
0.5
0.5
0.55
0.55
0.5
0.49
0.5
0.5
0.51
0.49
0.51
0.49
0.5
0.49
0.5
0.5
0.5
0.5
0.5
0.51
0.51
0.5
0.49
0.49
0.49
0.47
0.47
0.47
0.48
0.49
0.5
0.5
0.55
0.5
0.5
0.5
0.5
0.5
0.5
0.5
0.5
0.5
0.5
0.5
0.5
0.5
0.5
0.5
0.5
0.5
0.5
0.5
0.5
0.5
0.5
0.5
0.5700000000000001
0.5
0.43
0.5
0.5
0.5
0.5
0.5
0.5
0.51
0.5
0.51
0.5
0.5
0.5
0.51
0.5
0.5
0.48
0.49
0.5
0.43
0.5
0.51
0.51
0.51
0.5
0.72
0.49
0.49
0.49
0.5
0.5
0.5
0.48
0.22
0.17
0.8
0.78
0.18
0.16
0.78
0.2
0.85
0.19
0.22
0.18
0.18
0.16
0.21
0.8200000000000001
0.16
0.8100000000000001
0.19
0.21
0.2
0.2
0.22
0.21
0.18
0.19
0.8
0.16
0.19
0.78
0.8100000000000001
0.21
0.8100000000000001
0.15
0.8
0.77
0.22
0.21
0.15
0.21
0.22
0.22
0.23
0.78
0.21
0.22
0.79
0.2
0.2
0.22
0.2
0.19
0.22
0.2
0.13
0.2
0.16
0.15
0.8100000000000001
0.21
0.5
0.18
0.19
0.21
0.2
0.88
0.88
0.88
0.06
0.1
0.1
0.13
0.11
0.22
0.2
0.17
0.5
0.78
0.5
0.78
0.17
0.23
0.18
0.22
0.16
0.5
0.5
0.2
0.19
0.5
0.5
0.2
0.78
0.1
0.9
0.14
0.13
0.19
0.2
0.18
0.8200000000000001
0.2
0.17
0.8200000000000001
0.86
0.15
0.85
0.85
0.18
0.5
0.11
0.17
0.17
0.17
0.21
0.14
0.19
0.22
0.8300000000000001
0.17
0.2
0.2
0.17
0.21
0.22
0.8200000000000001
0.8200000000000001
0.18
0.19
0.22
0.8200000000000001
0.8200000000000001
0.8300000000000001
0.2
0.19
0.22
0.19
0.14
0.19
0.18
0.09
0.8200000000000001
0.15
0.21
0.77
0.16
0.22
0.77
0.19
0.8
0.17
0.19
0.18
0.22
0.19
0.21
0.17
0.79
0.18
0.78
0.84
0.22
0.23
0.2
0.16
0.16
0.21
0.18
0.19
0.8
0.18
0.88
0.2
0.17
0.8200000000000001
0.88
0.2
0.2
0.85
0.12
0.14
0.18
0.19
0.16
0.22
0.15
0.19
0.16
0.22
0.23
0.22
0.8
0.21
0.8
0.19
0.19
0.2
0.15
0.17
0.2
0.8
0.2
0.19
0.19
0.88
0.14
0.14
0.22
0.23
0.88
0.88
0.78
0.8
0.19
0.8
0.91
0.13
0.16
0.8
0.19
0.84
0.21
0.19
0.2
0.8
0.2
0.18
0.17
0.8300000000000001
0.2
0.8
0.12
0.18
0.22
0.78
0.19
0.22
0.78
0.19
0.18
0.85
0.8200000000000001
0.23
0.23
0.23
0.21
0.22
0.19
0.8100000000000001
0.8200000000000001
0.18
0.19
0.8200000000000001
0.79
0.88
0.11
0.2
0.18
0.79
0.19
0.22
0.18
0.23
0.8300000000000001
0.8
0.22
0.77
0.21
0.22
0.07000000000000001
0.5
0.2
0.23
0.23
0.5
0.23
0.78
0.88
0.79
0.2
0.2
0.8100000000000001
0.12
0.8300000000000001
0.17
0.2
0.87
0.23
0.17
0.14
0.2
0.21
0.8
0.8
0.19
0.84
0.18
0.16
0.23
0.78
0.22
0.16
0.21
0.21
0.85
0.22
0.21
0.16
0.11
0.22
0.19
0.17
0.22
0.79
0.22
0.8200000000000001
0.21
0.22
0.16
0.16
0.23
0.21
0.22
0.16
0.18
0.13
0.23
0.84
0.18
0.13
0.21
0.21
0.16
0.79
0.17
0.22
0.22
0.79
0.16
0.2
0.17
0.12
0.17
0.2
0.23
0.15
0.22
0.8200000000000001
0.19
0.21
0.18
0.15
0.77
0.8100000000000001
0.18
0.18
0.79
0.22
0.18
0.78
0.79
0.18
0.18
0.22
0.12
0.14
0.19
0.17
0.23
0.89
0.1
0.17
0.22
0.1
0.17
0.22
0.1
0.17
0.88
0.84
0.18
0.18
0.71
0.2
0.2
0.2
0.8
0.22
0.78
0.8
0.22
0.2
0.77
0.8100000000000001
0.18
0.18
0.21
0.23
0.17
0.18
0.2
0.2
0.22
0.2
0.2
0.22
0.16
0.78
0.22
0.17
0.17
0.8100000000000001
0.8
0.19
0.19
0.19
0.19
0.12
0.19
0.23
0.78
0.14
0.18
0.78
0.14
0.19
0.13
0.16
0.2
0.14
0.16
0.21
0.14
0.22
0.18
0.23
0.2
0.17
0.18
0.18
0.19
0.19
0.18
0.23
0.18
0.16
0.22
0.17
0.12
0.15
0.18
0.13
0.12
0.21
0.22
0.14
0.1
0.23
0.14
0.12
0.13
0.14
0.13
0.13
0.15
0.12
0.15
0.14
0.14
0.17
0.14
0.14
0.18
0.21
0.22
0.23
0.5
0.19
0.2
0.22
0.22
0.21
0.8300000000000001
0.5
0.19
0.21
0.18
0.22
0.19
0.19
0.18
0.8200000000000001
0.18
0.5
0.2
0.22
0.18
0.22
0.21
0.8200000000000001
0.5
0.8200000000000001
0.19
0.22
0.21
0.22
0.2
0.19
0.19
0.19
0.5
0.8200000000000001
0.22
0.23
0.2
0.21
0.8
0.5
0.22
0.5
0.5
0.8100000000000001
0.2
0.22
0.21
0.22
0.19
0.15
0.16
0.11
0.19
0.12
0.15
0.21
0.17
0.12
0.18
0.22
0.16
0.19
0.11
0.16
0.12
0.12
0.23
0.8
0.79
0.2
0.21
0.22
0.16
0.17
0.78
0.21
0.18
0.23
0.19
0.2
0.22
0.8
0.23
0.8
0.78
0.8
0.18
0.18
0.5
0.78
0.8
0.22
0.16
0.22
0.19
0.22
0.21
0.15
0.21
0.79
0.19
0.79
0.17
0.22
0.21
0.21
0.16
0.19
0.2
0.19
0.18
0.18
0.5
0.19
0.16
0.22
0.11
0.22
0.16
0.1
0.21
0.1
0.19
0.2
0.14
0.18
0.22
0.1
0.2
0.15
0.1
0.15
0.22
0.11
0.22
0.15
0.18
0.12
0.17
0.18
0.8300000000000001
0.8200000000000001
0.17
0.8200000000000001
0.8200000000000001
0.17
0.8200000000000001
0.8300000000000001
0.18
0.18
0.8300000000000001
0.18
0.8200000000000001
0.8200000000000001
0.18
0.18
0.8200000000000001
0.18
0.8200000000000001
0.5
0.19
0.15
0.16
0.21
0.21
0.17
0.13
0.11
0.17
0.13
0.14
0.17
0.16
0.15
0.16
0.17
0.15
0.15
0.23
0.21
0.2
0.12
0.15
0.12
0.13
0.16
0.17
0.12
0.12
0.13
0.17
0.15
0.12
0.19
0.15
0.21
0.79
0.14
0.18
0.78
0.21
0.22
0.17
0.22
0.17
0.21
0.21
0.21
0.8
0.21
0.19
0.22
0.17
0.23
0.2
0.19
0.17
0.23
0.19
0.15
0.19
0.21
0.22
0.23
0.21
0.15
0.18
0.22
0.19
0.2
0.15
0.21
0.21
0.19
0.13
0.17
0.19
0.14
0.16
0.19
0.22
0.22
0.18
0.21
0.18
0.19
0.23
0.21
0.16
0.14
0.17
0.21
0.22
0.22
0.16
0.13
0.14
0.16
0.14
0.14
0.11
0.22
0.15
0.14
0.08
0.15
0.16
0.18
0.12
0.16
0.14
0.19
0.22
0.13
0.14
0.18
0.15
0.13
0.07000000000000001
0.17
0.15
0.22
0.09
0.14
0.17
0.2
0.13
0.21
0.12
0.23
0.17
0.21
0.22
0.22
0.2
0.21
0.23
0.21
0.21
0.16
0.21
0.19
0.23
0.19
0.14
0.2
0.21
0.14
0.18
0.2
0.79
0.23
0.8
0.21
0.19
0.8200000000000001
0.78
0.2
0.2
0.21
0.8200000000000001
0.77
0.22
0.19
0.19
0.79
0.78
0.22
0.16
0.17
0.8200000000000001
0.78
0.8100000000000001
0.17
0.14
0.19
0.78
0.23
0.22
0.16
0.19
0.78
0.18
0.15
0.14
0.77
0.77
0.21
0.21
0.23
0.18
0.22
0.16
0.18
0.77
0.16
0.18
0.21
0.23
0.18
0.16
0.15
0.2
0.19
0.2
0.17
0.22
0.22
0.17
0.15
0.8
0.16
0.19
0.78
0.19
0.21
0.22
0.17
0.19
0.21
0.78
0.2
0.18
0.19
0.8300000000000001
0.77
0.18
0.21
0.13
0.21
0.16
0.8300000000000001
0.17
0.21
0.18
0.18
0.23
0.18
0.77
0.21
0.2
0.18
0.16
0.2
0.2
0.1
0.22
0.21
0.2
0.8200000000000001
0.19
0.21
0.23
0.21
0.2
0.22
0.2
0.22
0.5600000000000001
0.22
0.23
0.78
0.84
0.5
0.5
0.19
0.22
0.17
0.2
0.84
0.17
0.5
0.5
0.19
0.2
0.2
0.5
0.21
0.23
0.79
0.79
0.5
0.2
0.17
0.16
0.2
0.5
0.31
0.16
0.2
0.15
0.19
0.8100000000000001
0.14
0.2
0.18
0.8200000000000001
0.19
0.21
0.13
0.18
0.19
0.85
0.2
0.13
0.17
0.85
0.16
0.17
0.16
0.77
0.17
0.18
0.22
0.8200000000000001
0.79
0.78
0.18
0.19
0.18
0.8200000000000001
0.16
0.15
0.77
0.16
0.85
0.87
0.19
0.79
0.18
0.15
0.79
0.15
0.18
0.2
0.2
0.79
0.19
0.17
0.15
0.18
0.22
0.15
0.15
0.18
0.14
0.8100000000000001
0.2
0.22
0.22
0.17
0.14
0.8
0.15
0.77
0.26
0.15
0.86
0.78
0.15
0.8100000000000001
0.2
0.19
0.16
0.2
0.19
0.19
0.74
0.18
0.79
0.22
0.8100000000000001
0.22
0.79
0.16
0.2
0.78
0.77
0.16
0.16
0.8200000000000001
0.22
0.21
0.21
0.79
0.21
0.21
0.18
0.17
0.86
0.77
0.19
0.17
0.8200000000000001
0.22
0.16
0.26
0.17
0.21
0.23
0.16
0.21
0.14
0.8300000000000001
0.23
0.22
0.19
0.14
0.8
0.22
0.16
0.18
0.18
0.2
0.23
0.18
0.16
0.22
0.8100000000000001
0.22
0.19
0.21
0.22
0.21
0.22
0.19
0.8
0.2
0.78
0.8200000000000001
0.2
0.2
0.19
0.23
0.19
0.22
0.8100000000000001
0.19
0.19
0.23
0.23
0.22
0.8100000000000001
0.21
0.8100000000000001
0.23
0.17
0.2
0.77
0.79
0.8
0.21
0.18
0.21
0.8100000000000001
0.18
0.21
0.17
0.18
0.2
0.78
0.2
0.8100000000000001
0.23
0.2
0.2
0.17
0.19
0.12
0.17
0.21
0.8100000000000001
0.78
0.16
0.18
0.08
0.8
0.13
0.5
0.2
0.17
0.17
0.12
0.15
0.11
0.13
0.21
0.22
0.21
0.22
0.8200000000000001
0.23
0.23
0.79
0.17
0.8100000000000001
0.8
0.21
0.22
0.77
0.2
0.14
0.79
0.8
0.77
0.17
0.16
0.13
0.19
0.21
0.16
0.23
0.15
0.17
0.13
0.21
0.17
0.21
0.16
0.18
0.19
0.8
0.19
0.8200000000000001
0.8
0.15
0.17
0.22
0.8
0.5
0.22
0.2
0.21
0.22
0.2
0.22
0.5
0.19
0.2
0.23
0.84
0.79
0.5
0.22
0.85
0.8300000000000001
0.5
0.21
0.19
0.21
0.5
0.8
0.5
0.21
0.17
0.22
0.18
0.21
0.78
0.21
0.5
0.22
0.16
0.8300000000000001
0.78
0.8100000000000001
0.19
0.8
0.19
0.21
0.16
0.17
0.21
0.19
0.18
0.8200000000000001
0.21
0.19
0.84
0.23
0.87
0.18
0.86
0.8100000000000001
0.16
0.5
0.14
0.22
0.16
0.17
0.8300000000000001
0.22
0.21
0.2
0.18
0.18
0.13
0.8100000000000001
0.22
0.78
0.17
0.19
0.2
0.22
0.88
0.2
0.22
0.8
0.22
0.22
0.18
0.21
0.79
0.18
0.2
0.18
0.79
0.17
0.8200000000000001
0.19
0.14
0.8300000000000001
0.8300000000000001
0.21
0.21
0.19
0.18
0.16
0.21
0.2
0.79
0.19
0.19
0.18
0.18
0.18
0.22
0.8300000000000001
0.2
0.16
0.2
0.8100000000000001
0.8
0.22
0.21
0.18
0.23
0.2
0.79
0.22
0.2
0.18
0.23
0.21
0.23
0.2
0.17
0.21
0.79
0.86
0.8100000000000001
0.22
0.22
0.2
0.2
0.22
0.8200000000000001
0.23
0.18
0.8100000000000001
0.19
0.21
0.78
0.19
0.16
0.21
0.23
0.23
0.18
0.18
0.8300000000000001
0.79
0.21
0.79
0.18
0.17
0.21
0.22
0.2
0.19
0.17
0.88
0.18
0.21
0.19
0.15
0.16
0.22
0.8100000000000001
0.2
0.21
0.16
0.22
0.2
0.84
0.15
0.17
0.17
0.8100000000000001
0.16
0.19
0.8200000000000001
0.2
0.22
0.84
0.2
0.78
0.21
0.16
0.18
0.16
0.85
0.22
0.23
0.14
0.17
0.85
0.22
0.22
0.22
0.2
0.2
0.79
0.5
0.22
0.21
0.18
0.23
0.22
0.68
0.78
0.79
0.22
0.2
0.23
0.7000000000000001
0.22
0.2
0.8
0.79
0.8200000000000001
0.8300000000000001
0.18
0.2
0.18
0.8200000000000001
0.18
0.2
0.19
0.22
0.18
0.23
0.78
0.18
0.2
0.22
0.2
0.19
0.2
0.2
0.21
0.23
0.23
0.22
0.21
0.2
0.19
0.78
0.19
0.21
0.8
0.18
0.18
0.19
0.2
0.6900000000000001
0.79
0.8100000000000001
0.18
0.2
0.8
0.8100000000000001
0.21
0.22
0.2
0.22
0.13
0.8200000000000001
0.19
0.22
0.16
0.8200000000000001
0.23
0.23
0.21
0.21
0.8
0.8
0.2
0.8
0.27
0.61
0.8
0.8
0.2
0.8
0.8
0.8
0.2
0.2
0.2
0.2
0.8
0.29
0.8
0.8
0.2
0.8
0.2
0.8
0.84
0.29
0.36
0.86
0.2
0.8
0.2
0.2
0.2
0.2
0.61
0.78
0.78
0.8
0.59
0.52
0.77
0.77
0.77
0.2
0.8
0.8
0.53
0.79
0.78
0.85
0.6
0.2
0.8
0.8
0.87
0.85
0.8300000000000001
0.2
0.2
0.38
0.7000000000000001
0.41
0.78
0.37
0.77
0.23
0.79
0.8
0.8
0.2
0.5600000000000001
0.71
0.76
0.8
0.78
0.2
0.8100000000000001
0.41
0.8
0.87
0.8
0.2
0.34
0.8
0.2
0.78
0.28
0.8
0.8
0.63
0.8
0.73
0.75
0.59
0.2
0.2
0.8
0.2
0.85
0.84
0.85
0.71
0.25
0.36
0.8300000000000001
0.3
0.4
0.4
0.2
0.8
0.75
0.37
0.8
0.2
0.8
0.8
0.39
0.8
0.2
0.2
0.84
0.84
0.8
0.8
0.79
0.8300000000000001
0.85
0.8
0.8200000000000001
0.8100000000000001
0.86
0.78
0.78
0.78
0.79
0.79
0.8
0.79
0.87
0.92
0.88
0.84
0.8300000000000001
0.86
0.85
0.8200000000000001
0.88
0.8200000000000001
0.87
0.85
0.85
0.87
0.86
0.89
0.8200000000000001
0.8
0.8300000000000001
0.88
0.88
0.8
0.87
0.86
0.8
0.85
0.86
0.84
0.84
0.86
0.87
0.8100000000000001
0.84
0.78
0.8200000000000001
0.84
0.79
0.85
0.8300000000000001
0.8
0.85
0.86
0.84
0.8
0.8300000000000001
0.8
0.88
0.8
0.92
0.86
0.89
0.88
0.88
0.88
0.88
0.88
0.8100000000000001
0.84
0.79
0.8200000000000001
0.89
0.84
0.86
0.86
0.88
0.88
0.8
0.87
0.87
0.84
0.8100000000000001
0.8300000000000001
0.79
0.84
0.77
0.78
0.22
0.19
0.18
0.2
0.77
0.2
0.21
0.21
0.19
0.2
0.18
0.19
0.2
0.23
0.21
0.23
0.8100000000000001
0.23
0.22
0.23
0.21
0.22
0.2
0.8
0.19
0.17
0.22
0.21
0.21
0.18
0.5
0.77
0.2
0.23
0.16
0.19
0.15
0.15
0.22
0.16
0.19
0.2
0.8100000000000001
0.22
0.19
0.22
0.18
0.2
0.09
0.16
0.13
0.22
0.22
0.22
0.8200000000000001
0.23
0.22
0.8
0.8
0.8
0.22
0.78
0.5
0.22
0.18
0.18
0.23
0.2
0.22
0.79
0.21
0.22
0.22
0.21
0.8200000000000001
0.2
0.08
0.15
0.12
0.2
0.22
0.18
0.21
0.12
0.88
0.8100000000000001
0.8100000000000001
0.8
0.85
0.84
0.23
0.84
0.78
0.85
0.9
0.78
0.8100000000000001
0.8100000000000001
0.84
0.8300000000000001
0.86
0.78
0.84
0.78
0.8100000000000001
0.17
0.86
0.85
0.8200000000000001
0.78
0.8200000000000001
0.8300000000000001
0.68
0.77
0.22
0.8
0.79
0.8100000000000001
0.14
0.8
0.8
0.79
0.84
0.8200000000000001
0.86
0.8100000000000001
0.84
0.8300000000000001
0.79
0.77
0.84
0.8200000000000001
0.77
0.86
0.87
0.79
0.84
0.88
0.84
0.1
0.79
0.8200000000000001
0.89
0.84
0.84
0.77
0.8100000000000001
0.78
0.18
0.77
0.8
0.86
0.8200000000000001
0.18
0.78
0.78
0.78
0.2
0.19
0.77
0.2
0.79
0.16
0.8100000000000001
0.77
0.8100000000000001
0.8300000000000001
0.23
0.78
0.78
0.18
0.8
0.18
0.8100000000000001
0.77
0.8300000000000001
0.86
0.79
0.16
0.18
0.13
0.88
0.79
0.18
0.8300000000000001
0.85
0.8300000000000001
0.79
0.86
0.84
0.79
0.8200000000000001
0.17
0.8
0.8100000000000001
0.15
0.8200000000000001
0.8
0.79
0.84
0.78
0.8
0.79
0.77
0.78
0.78
0.84
0.79
0.86
0.8200000000000001
0.78
0.84
0.8100000000000001
0.79
0.79
0.79
0.8300000000000001
0.8
0.77
0.22
0.22
0.18
0.21
0.23
0.2
0.8
0.8100000000000001
0.77
0.77
0.22
0.16
0.22
0.23
0.22
0.2
0.78
0.22
0.8100000000000001
0.23
0.79
0.18
0.18
0.2
0.18
0.23
0.77
0.8100000000000001
0.2
0.23
0.2
0.21
0.21
0.16
0.22
0.22
0.22
0.2
0.19
0.21
0.23
0.78
0.18
0.78
0.21
0.2
0.21
0.18
0.15
0.16
0.16
0.2
0.21
0.8
0.23
0.18
0.1
0.21
0.13
0.19
0.22
0.23
0.79
0.21
0.79
0.8200000000000001
0.17
0.17
0.78
0.21
0.2
0.8
0.79
0.21
0.77
0.87
0.21
0.19
0.15
0.22
0.8200000000000001
0.5
0.12
0.21
0.21
0.22
0.78
0.17
0.77
0.23
0.23
0.2
0.8200000000000001
0.78
0.23
0.17
0.22
0.2
0.8
0.21
0.17
0.21
0.8200000000000001
0.21
0.77
0.22
0.8
0.18
0.15
0.2
0.78
0.21
0.22
0.91
0.14
0.21
0.2
0.22
0.22
0.14
0.2
0.19
0.17
0.8200000000000001
0.85
0.22
0.17
0.8200000000000001
0.8300000000000001
0.79
0.8300000000000001
0.2
0.78
0.77
0.2
0.2
0.85
0.13
0.22
0.8200000000000001
0.22
0.21
0.8100000000000001
0.19
0.2
0.78
0.77
0.79
0.8
0.2

forceimprovementnum 1
maxthreads 4
