refinementinfo

progressstart 0
progressstop 100
progresstext "Mesh refinement"

reftype edgesplit

refine edges
8 2389
9 10
18 19
11 2391
17 2394
8 2395
263 264
273 274
18 2408
360 2408
361 2410
17 2410
37 2412
362 2412
362 2413
363 2413
363 2414
39 2414
364 2415
38 2415
365 2416
364 2416
40 2417
365 2417
368 369
374 375
375 376
376 377
46 380
50 51
65 385
69 391
391 392
90 401
404 405
405 406
406 407
35 410
410 411
99 419
419 420
420 421
100 424
424 425
425 426
426 427
99 427
101 428
100 428
430 2431
429 2431
430 2432
114 431
432 433
113 436
37 115
438 2434
437 2434
115 2435
438 2435
441 442
442 443
117 444
123 2437
122 2439
130 447
132 448
448 449
449 450
131 451
455 456
132 456
36 488
488 489
142 497
497 498
498 499
143 502
502 503
503 504
504 505
142 505
144 506
143 506
508 2443
507 2443
508 2444
157 509
510 511
156 514
516 2446
515 2446
158 2447
516 2447
519 520
520 521
160 522
166 2449
165 2451
173 525
175 526
526 527
527 528
174 529
533 534
175 534
539 540
545 546
546 547
547 548
184 551
188 2457
201 561
567 568
205 568
224 573
576 577
577 578
578 579
227 2468
24 2469
38 2470
62 73
20 2394
1 2395
2477 1
2471 1
1 248
2472 1
1 1674
2475 8
2472 8
8 1674
9 2479
2478 10
10 2479
10 2406
10 3070
11 242
14 11
2489 11
11 19
2484 17
2393 17
17 832
2489 18
18 2429
18 3096
19 2489
19 1337
19 3096
245 20
20 2482
2484 20
761 34
34 1094
34 878
35 1273
35 2743
35 1270
754 36
2791 36
751 36
36 911
36 1093
37 2497
37 2561
2501 38
2581 38
263 38
264 38
2502 38
40 204
41 486
41 2708
41 1275
42 465
42 1262
46 128
46 130
61 2539
61 1402
2522 62
62 2525
62 2524
62 2523
62 2539
62 2528
62 1402
62 1213
62 2527
63 1424
2436 65
66 444
66 1228
66 1325
431 69
69 1324
69 2728
70 1311
70 1319
72 1432
72 1225
72 1424
72 2523
73 2523
73 2526
73 2625
73 1220
73 2538
74 2539
74 3088
74 1530
81 1197
82 2547
84 2547
84 2549
84 1364
84 1384
84 2548
84 1222
84 2611
84 1214
84 2514
84 1216
101 90
474 94
95 1273
474 99
478 99
99 1434
100 1244
401 101
101 1231
113 1311
113 1225
114 1324
114 1315
114 2533
114 2555
115 2412
2497 115
115 2557
115 2560
117 2529
117 1228
117 1325
117 1335
118 1207
2520 122
123 2564
2516 123
123 1157
123 1359
123 1345
127 2513
127 1157
128 2513
128 1229
128 1157
380 130
463 131
469 131
131 1246
132 466
465 132
132 1261
136 912
137 747
137 748
137 887
137 912
137 893
138 916
138 1093
141 918
142 680
748 142
753 142
2801 142
142 930
142 929
675 143
143 743
750 143
143 966
143 943
674 144
144 2568
144 973
144 1122
146 674
2568 146
146 1091
146 1122
147 2568
2570 147
147 1091
147 1122
151 961
151 1126
152 948
2463 155
2572 156
206 156
156 562
156 2463
207 156
156 1130
156 1095
2577 157
2417 157
204 157
205 157
157 2506
2582 158
263 158
158 262
203 159
159 2509
159 902
2445 160
614 160
203 160
160 202
200 161
161 2461
201 161
161 1102
161 1096
162 2461
165 2448
2868 165
610 165
166 963
2595 170
170 2591
170 976
170 1099
171 2595
171 976
2898 173
2595 173
173 976
174 972
174 1705
599 175
175 736
742 175
741 175
175 882
179 760
179 761
179 2931
179 914
180 741
180 883
181 883
183 971
2595 184
224 184
223 184
184 1099
184 976
184 3033
184 978
2591 185
2607 185
185 223
185 1100
2611 188
189 2612
189 2613
189 2614
189 2649
2621 198
2620 199
199 1096
199 2640
199 2642
199 2523
199 1710
199 2526
2448 201
201 1101
202 522
202 2586
202 2585
203 2585
203 1689
2510 204
204 1124
204 2635
509 205
206 974
2639 208
208 2625
208 2640
208 1120
208 2523
208 1710
216 1197
217 3031
224 2568
2567 224
551 224
224 1112
224 1122
743 226
226 975
2419 354
354 366
354 1341
354 2693
354 1401
355 1341
355 1401
626 357
357 2659
357 2472
357 827
357 1674
358 626
358 2659
760 358
358 827
760 359
359 761
359 1094
360 416
360 1460
361 2669
2670 361
361 2806
361 832
361 911
362 438
2435 362
362 2675
362 2763
362 2767
437 363
363 2678
363 2762
363 2679
364 2683
3007 365
365 867
465 367
367 464
367 1262
367 1264
367 1261
368 2694
368 464
368 1264
2694 369
369 2698
369 2697
369 2701
369 2700
372 468
372 1243
372 1247
373 467
468 373
373 1247
374 467
2711 374
2713 374
374 1247
374 1250
374 1383
375 2712
375 2713
375 1253
375 1250
375 1383
376 2714
376 801
376 1290
376 1255
376 2780
376 1253
2714 377
377 2716
377 1259
377 2777
377 801
377 1294
377 1255
378 1259
447 380
385 1322
385 1218
386 439
386 1218
386 1223
386 1318
387 440
387 1223
387 1224
387 1318
441 388
388 1224
388 1226
388 789
388 1318
389 442
389 1226
389 789
389 1321
390 443
390 1228
390 1226
390 1325
390 1321
432 391
391 1324
391 1306
391 2728
433 392
392 432
392 1307
392 1306
392 2728
392 1323
434 393
393 1308
393 1307
393 788
393 1323
393 2728
435 394
394 1416
394 1309
394 1323
436 395
395 1310
395 1416
395 1309
396 788
396 1310
396 1311
396 1416
396 1319
396 2638
397 2755
397 2731
397 2982
397 2732
397 2947
397 2735
397 2646
398 2738
398 2737
398 2740
398 2981
398 2739
401 428
404 426
404 427
404 1254
404 1252
404 1438
404 1293
426 405
405 425
405 1251
405 1252
425 406
406 424
406 1251
406 1244
406 1404
407 424
407 1244
407 1387
407 1404
408 1242
408 1244
408 1387
410 2741
2742 410
410 2744
410 2745
410 2667
2742 411
411 2748
411 771
411 2744
411 2745
411 1263
411 2750
411 2749
411 2752
478 412
412 771
412 1263
478 413
413 474
413 1263
414 1273
415 1337
415 1460
415 1442
415 1273
2408 416
416 1460
416 1337
416 3096
478 419
2747 419
419 1428
419 680
419 1265
419 1434
420 1428
420 1265
420 1414
420 1267
420 2752
421 1267
421 1414
421 1270
424 1244
424 3063
425 1251
425 1244
425 1407
426 1254
426 1252
426 1427
426 1251
426 1407
427 1427
427 1254
428 1231
428 1386
428 1174
428 1236
428 3063
428 675
2730 429
429 2755
429 2830
429 2753
429 2756
2729 430
2736 430
430 2759
430 2834
430 2757
430 2758
431 1324
431 1306
431 2840
431 1315
432 1306
432 1307
433 1307
434 1309
435 1309
435 1310
436 1310
436 1311
437 2414
437 2761
437 2762
437 1315
438 2413
438 2763
438 2764
439 1218
440 1218
440 1223
440 1188
441 1188
441 1223
442 1226
442 1192
443 1228
443 1226
443 1192
444 1228
444 614
445 2720
445 654
2517 446
446 2772
446 2775
446 2771
447 469
447 1182
447 1246
447 1232
448 3076
448 597
448 599
449 2715
449 2781
449 597
449 2780
449 2779
450 2713
450 2781
450 2785
450 2786
451 468
451 467
451 1246
452 1274
453 461
453 1271
453 1274
461 454
454 2704
454 2705
454 1271
454 1268
2698 455
455 2704
455 1271
455 1373
455 598
455 1268
455 1266
456 464
456 2694
456 1261
456 598
456 3076
456 599
456 1373
456 1258
456 1266
2421 461
2440 467
488 2791
2792 488
488 889
488 2794
488 2667
488 3048
489 2796
2792 489
489 2797
771 489
489 2799
2796 490
490 2801
753 490
490 771
490 888
753 491
491 888
491 912
754 492
492 916
492 1093
492 875
754 493
493 2670
493 875
493 2806
494 2486
494 2669
2670 494
494 875
494 2806
679 497
680 497
497 2796
497 2801
497 930
497 910
497 929
497 2802
498 679
498 2792
2796 498
498 2797
498 938
498 919
498 910
2792 499
499 2791
499 938
500 938
501 918
502 675
502 676
2811 502
502 750
502 966
502 3063
503 676
681 504
505 681
680 505
506 674
675 506
506 2828
506 973
2830 507
507 3025
507 3012
2835 508
508 3026
508 2838
508 2759
2840 509
568 509
509 2842
2846 510
567 510
510 568
566 510
565 511
511 566
564 512
512 565
563 513
513 564
2857 514
514 562
514 563
514 2858
514 2859
2688 515
515 3020
516 2683
517 561
2873 518
559 518
518 560
518 2970
558 519
519 559
557 520
520 558
556 521
521 557
521 2886
521 2961
614 522
2889 522
522 556
654 523
2892 523
523 3027
523 3028
524 946
525 2898
525 762
2595 525
746 525
525 976
525 972
525 2900
597 526
526 599
2901 526
526 742
526 931
526 3076
527 597
527 2907
2901 527
527 931
527 944
527 2781
527 2785
528 2911
528 944
528 2785
529 605
530 759
530 896
759 531
531 737
531 896
531 914
737 532
532 2913
2915 532
532 914
598 533
2914 533
533 2915
2916 533
533 892
533 881
534 598
599 534
740 534
534 2916
534 892
534 882
534 3076
537 2659
537 826
537 1674
538 740
741 538
538 882
2916 539
539 740
539 882
539 2696
2916 540
540 2926
540 2927
2915 541
541 2929
543 965
544 744
544 965
744 545
2910 545
545 965
545 954
545 2936
546 2906
2910 546
2911 546
2942 546
546 2938
546 954
546 2940
546 936
546 2941
547 2901
2906 547
2907 547
547 2942
801 547
547 936
548 742
2901 548
2902 548
801 548
548 936
742 549
549 883
573 551
551 572
551 977
551 1543
572 552
552 977
553 977
553 971
2948 554
554 2947
554 2951
554 3029
554 2952
2948 555
555 2953
555 3028
555 3032
555 963
555 2954
555 1196
556 2955
556 2888
789 557
557 2887
558 789
2968 558
558 2883
558 2880
559 2874
559 2967
560 2968
560 2874
561 2448
561 2975
788 562
562 974
563 962
563 974
563 947
563 2858
564 947
564 962
565 947
566 788
3014 566
566 947
566 2728
2977 567
3014 567
567 923
567 947
567 924
567 2728
568 2977
568 924
568 3068
568 2728
569 2953
2948 569
569 968
569 3030
569 3032
569 2979
569 2982
2947 570
570 968
2828 572
572 977
572 979
573 2567
2828 573
573 973
573 1122
573 979
573 977
573 1112
747 575
575 752
575 893
752 576
576 2821
576 2824
576 893
577 2815
577 2820
2821 577
2988 577
578 2812
2815 578
2816 578
2995 578
578 2996
578 937
579 750
579 2811
2812 579
579 937
580 743
580 750
638 599
599 1183
609 2450
610 2439
618 614
654 2449
654 2437
2417 669
670 2502
671 2442
2443 673
675 723
675 967
675 1690
679 708
679 949
708 680
2416 705
705 2413
2835 734
2456 737
2411 754
760 2453
787 2462
809 2454
936 822
826 2453
832 2410
859 919
867 865
903 867
902 867
867 1123
867 2416
867 2446
3020 869
881 2455
3020 902
902 2445
910 919
910 930
911 2411
914 2456
919 917
919 932
930 919
949 919
960 927
952 943
946 969
946 2451
946 1102
946 2450
947 951
947 958
948 2442
961 3026
961 2444
963 2449
963 2460
968 2465
969 2448
976 977
978 977
1095 2463
1096 2461
1102 2448
1113 2461
1125 2463
1126 2444
1155 2430
1190 2868
1196 2428
1197 2426
1270 2409
1273 2409
1315 2433
1316 2413
1316 2434
1337 2391
1337 3065
1337 2429
1341 2406
1356 2440
1359 2437
1364 2457
1401 2419
1460 2409
1460 2408
1663 2412
1674 2454
1674 2407
1710 2526
2394 2410
2441 2394
2406 2419
2472 2407
2429 2408
2408 3096
2486 2410
2410 2669
2411 2670
2412 2435
2412 2561
2434 2413
2413 2678
2413 2675
2413 2763
2433 2414
2415 2501
2581 2415
2415 2683
2415 2447
2415 2657
2415 2656
2683 2416
2416 2687
2417 3007
2419 3070
2698 2420
2426 2756
2427 2731
2427 2737
2427 2732
2427 2981
2428 2740
2428 2739
2428 2738
2429 3096
2544 2430
2730 2430
2430 2753
2430 2756
2431 2730
2729 2431
2431 2759
2431 2757
2431 2755
2432 2551
2432 2736
2432 2738
2432 2758
2432 2834
2433 2762
2434 2763
2434 2761
2434 2762
2434 2678
2435 2674
2435 2560
2435 2764
2564 2437
2722 2438
2438 2727
2438 2772
2517 2439
2439 2775
2440 2785
2486 2441
2644 2442
2442 3025
2442 3012
2835 2443
2443 3026
2444 2571
2464 2444
2444 2978
2509 2445
2688 2445
2445 2689
2687 2446
2446 2688
2446 2683
2446 3020
2447 2683
2447 2656
2447 2655
2447 2685
2448 2629
2449 3027
2450 2896
2450 2949
2450 3028
2451 2617
2451 2896
2659 2453
2454 2472
2454 2659
2915 2455
2455 2926
2929 2455
2455 2927
2456 2929
2592 2457
2591 2457
2457 2612
2457 2611
2457 2616
2457 2613
2457 2614
2457 2550
2947 2458
2459 2948
2459 3028
2459 2954
2648 2460
2460 2953
2460 3032
2460 2979
2461 2589
2461 2621
2620 2461
2461 2539
2461 2526
2462 2510
2463 2623
2953 2464
2464 2979
2464 2981
2464 2739
2948 2465
2465 2947
2947 2466
2466 3034
2526 2539
2667 3048
2728 3068
ratios
0.22
0.5
0.5
0.8
0.22
0.17
0.5
0.5
0.5
0.5
0.5
0.5
0.5
0.5
0.5
0.5
0.5
0.5
0.5
0.5
0.5
0.5
0.5
0.5
0.5
0.47
0.48
0.48
0.5
0.58
0.51
0.47
0.5
0.5
0.5
0.5
0.5
0.5
0.49
0.51
0.51
0.51
0.5
0.5
0.5
0.5
0.5
0.5
0.5
0.54
0.48
0.47
0.5
0.52
0.5
0.5
0.5
0.5
0.5
0.5
0.51
0.51
0.5
0.5
0.5
0.5
0.5
0.5
0.5
0.5
0.5
0.5
0.5
0.51
0.49
0.49
0.49
0.5
0.5
0.5
0.5
0.5
0.5
0.5
0.46
0.52
0.52
0.5
0.48
0.5
0.5
0.5
0.5
0.5
0.49
0.49
0.5
0.5
0.5
0.5
0.5
0.5
0.5
0.5
0.5
0.5
0.5
0.53
0.52
0.52
0.5
0.44
0.49
0.5
0.53
0.5
0.5
0.5
0.5
0.8
0.8
0.21
0.48
0.18
0.21
0.78
0.78
0.21
0.8100000000000001
0.14
0.8
0.8100000000000001
0.21
0.11
0.87
0.11
0.5
0.16
0.2
0.8
0.8
0.8
0.8
0.8
0.22
0.88
0.5
0.18
0.2
0.2
0.21
0.8100000000000001
0.12
0.85
0.8200000000000001
0.2
0.17
0.22
0.22
0.21
0.8200000000000001
0.8100000000000001
0.8200000000000001
0.22
0.16
0.21
0.19
0.72
0.8100000000000001
0.85
0.85
0.88
0.8200000000000001
0.22
0.22
0.2
0.18
0.21
0.91
0.87
0.15
0.23
0.79
0.17
0.19
0.19
0.15
0.16
0.23
0.14
0.23
0.16
0.22
0.78
0.15
0.13
0.2
0.22
0.2
0.19
0.17
0.16
0.17
0.12
0.23
0.23
0.8
0.23
0.21
0.22
0.11
0.17
0.18
0.2
0.21
0.11
0.12
0.16
0.17
0.11
0.08
0.22
0.21
0.19
0.14
0.14
0.79
0.21
0.78
0.77
0.2
0.23
0.86
0.19
0.15
0.17
0.13
0.13
0.23
0.21
0.5
0.8200000000000001
0.17
0.23
0.17
0.19
0.11
0.2
0.2
0.8100000000000001
0.22
0.78
0.23
0.18
0.15
0.16
0.17
0.16
0.16
0.17
0.87
0.79
0.8
0.2
0.2
0.78
0.21
0.17
0.23
0.2
0.13
0.19
0.18
0.19
0.21
0.22
0.21
0.8200000000000001
0.8100000000000001
0.8
0.23
0.17
0.8300000000000001
0.21
0.8
0.16
0.2
0.79
0.23
0.18
0.22
0.18
0.8
0.2
0.18
0.2
0.84
0.2
0.18
0.19
0.19
0.19
0.11
0.8
0.8
0.21
0.89
0.8100000000000001
0.2
0.19
0.8100000000000001
0.85
0.5
0.78
0.2
0.8300000000000001
0.8300000000000001
0.18
0.18
0.2
0.17
0.85
0.86
0.5
0.22
0.8100000000000001
0.9
0.5
0.18
0.23
0.9
0.8100000000000001
0.86
0.8
0.15
0.8200000000000001
0.12
0.15
0.2
0.18
0.15
0.78
0.78
0.17
0.17
0.17
0.8
0.18
0.78
0.78
0.2
0.2
0.2
0.2
0.17
0.21
0.17
0.19
0.22
0.8300000000000001
0.5
0.8200000000000001
0.15
0.1
0.22
0.14
0.87
0.78
0.11
0.18
0.79
0.23
0.16
0.19
0.14
0.79
0.79
0.23
0.19
0.15
0.21
0.23
0.8
0.5
0.22
0.5
0.2
0.18
0.15
0.2
0.8100000000000001
0.18
0.18
0.16
0.21
0.77
0.21
0.14
0.16
0.19
0.22
0.21
0.2
0.2
0.8200000000000001
0.41
0.18
0.16
0.79
0.19
0.5
0.5
0.18
0.15
0.11
0.18
0.11
0.77
0.17
0.19
0.17
0.21
0.23
0.17
0.8200000000000001
0.17
0.8200000000000001
0.18
0.2
0.5
0.18
0.23
0.79
0.17
0.22
0.22
0.5
0.5
0.19
0.12
0.15
0.5
0.19
0.15
0.23
0.22
0.8100000000000001
0.22
0.8200000000000001
0.19
0.21
0.16
0.11
0.22
0.19
0.16
0.78
0.17
0.14
0.21
0.16
0.22
0.2
0.2
0.22
0.78
0.2
0.22
0.8200000000000001
0.77
0.2
0.16
0.16
0.17
0.23
0.15
0.16
0.16
0.2
0.23
0.09
0.16
0.15
0.15
0.8
0.15
0.18
0.14
0.23
0.12
0.16
0.18
0.13
0.22
0.15
0.78
0.15
0.23
0.17
0.79
0.23
0.21
0.18
0.22
0.21
0.2
0.22
0.17
0.78
0.2
0.22
0.13
0.77
0.16
0.2
0.13
0.13
0.21
0.2
0.16
0.19
0.22
0.77
0.18
0.16
0.19
0.16
0.22
0.23
0.19
0.22
0.16
0.16
0.22
0.16
0.18
0.16
0.2
0.16
0.17
0.18
0.21
0.16
0.19
0.16
0.16
0.22
0.15
0.18
0.22
0.23
0.18
0.17
0.23
0.21
0.17
0.2
0.22
0.19
0.86
0.5
0.5
0.13
0.18
0.11
0.13
0.5
0.5
0.15
0.18
0.5
0.5
0.15
0.16
0.16
0.5
0.16
0.18
0.16
0.22
0.16
0.18
0.2
0.8
0.22
0.23
0.22
0.8
0.16
0.19
0.22
0.23
0.21
0.19
0.18
0.22
0.79
0.19
0.21
0.79
0.21
0.21
0.21
0.2
0.14
0.1
0.21
0.5
0.14
0.2
0.21
0.77
0.8
0.13
0.23
0.16
0.2
0.13
0.16
0.12
0.18
0.17
0.18
0.12
0.12
0.23
0.8
0.15
0.23
0.16
0.19
0.13
0.21
0.15
0.16
0.21
0.19
0.19
0.18
0.2
0.21
0.8
0.22
0.79
0.18
0.2
0.19
0.19
0.8
0.78
0.21
0.22
0.14
0.22
0.12
0.15
0.23
0.14
0.15
0.21
0.21
0.21
0.21
0.19
0.19
0.15
0.5
0.22
0.21
0.14
0.5
0.2
0.17
0.14
0.14
0.19
0.16
0.16
0.19
0.15
0.17
0.18
0.15
0.16
0.19
0.22
0.13
0.17
0.8100000000000001
0.21
0.21
0.23
0.2
0.17
0.2
0.17
0.8
0.18
0.15
0.18
0.21
0.18
0.2
0.22
0.2
0.21
0.22
0.23
0.21
0.21
0.17
0.2
0.23
0.21
0.2
0.77
0.18
0.18
0.21
0.14
0.77
0.18
0.21
0.14
0.21
0.14
0.18
0.21
0.19
0.2
0.21
0.8
0.17
0.14
0.14
0.18
0.17
0.21
0.23
0.79
0.15
0.22
0.18
0.8
0.2
0.79
0.19
0.8300000000000001
0.23
0.8
0.2
0.78
0.17
0.17
0.78
0.17
0.17
0.77
0.19
0.21
0.19
0.77
0.19
0.19
0.19
0.22
0.18
0.8100000000000001
0.19
0.19
0.77
0.79
0.2
0.2
0.23
0.17
0.17
0.14
0.23
0.2
0.8
0.21
0.23
0.12
0.17
0.8
0.19
0.23
0.23
0.22
0.17
0.22
0.78
0.2
0.16
0.8
0.22
0.78
0.22
0.77
0.21
0.87
0.21
0.18
0.77
0.2
0.16
0.8100000000000001
0.2
0.2
0.23
0.8100000000000001
0.8
0.19
0.79
0.8
0.16
0.84
0.8200000000000001
0.2
0.8100000000000001
0.2
0.8
0.19
0.8
0.2
0.18
0.22
0.23
0.8
0.21
0.22
0.5
0.77
0.8300000000000001
0.5
0.18
0.8200000000000001
0.5
0.8200000000000001
0.5
0.8100000000000001
0.5
0.18
0.17
0.8
0.8100000000000001
0.5
0.8200000000000001
0.77
0.2
0.15
0.2
0.22
0.14
0.78
0.87
0.17
0.17
0.23
0.8100000000000001
0.17
0.8
0.22
0.22
0.8
0.19
0.21
0.8
0.22
0.23
0.22
0.23
0.23
0.23
0.23
0.15
0.21
0.17
0.79
0.2
0.17
0.14
0.8
0.17
0.79
0.14
0.8
0.8300000000000001
0.21
0.79
0.22
0.13
0.2
0.8300000000000001
0.8
0.21
0.22
0.13
0.8
0.21
0.16
0.14
0.19
0.79
0.14
0.8300000000000001
0.19
0.14
0.22
0.8300000000000001
0.17
0.23
0.8200000000000001
0.21
0.18
0.15
0.18
0.85
0.8300000000000001
0.18
0.19
0.2
0.17
0.8300000000000001
0.8200000000000001
0.79
0.19
0.19
0.19
0.19
0.2
0.2
0.8300000000000001
0.8
0.21
0.8100000000000001
0.19
0.18
0.8
0.8300000000000001
0.8100000000000001
0.19
0.8200000000000001
0.19
0.5
0.5
0.22
0.21
0.5
0.22
0.22
0.22
0.85
0.14
0.17
0.19
0.19
0.85
0.16
0.17
0.14
0.18
0.22
0.22
0.22
0.22
0.8300000000000001
0.18
0.17
0.8
0.22
0.21
0.21
0.23
0.2
0.21
0.5
0.16
0.79
0.21
0.15
0.21
0.16
0.19
0.17
0.15
0.18
0.2
0.88
0.17
0.17
0.79
0.88
0.15
0.15
0.15
0.19
0.23
0.16
0.77
0.19
0.16
0.86
0.2
0.19
0.11
0.16
0.23
0.8100000000000001
0.2
0.79
0.16
0.17
0.18
0.79
0.11
0.16
0.17
0.16
0.18
0.77
0.18
0.18
0.8200000000000001
0.18
0.18
0.18
0.17
0.18
0.8200000000000001
0.78
0.19
0.8300000000000001
0.8200000000000001
0.79
0.2
0.19
0.22
0.2
0.8100000000000001
0.19
0.21
0.22
0.8
0.2
0.88
0.78
0.8
0.8300000000000001
0.84
0.15
0.8
0.86
0.2
0.2
0.2
0.66
0.2
0.2
0.8
0.13
0.8200000000000001
0.2
0.19
0.18
0.8
0.85
0.86
0.2
0.84
0.78
0.8
0.2
0.78
0.73
0.63
0.78
0.89
0.2
0.85
0.33
0.8300000000000001
0.31
0.43
0.78
0.86
0.2
0.2
0.37
0.8
0.2
0.8
0.39
0.8
0.77
0.8
0.2
0.2
0.8100000000000001
0.74
0.8
0.85
0.8300000000000001
0.8
0.86
0.68
0.62
0.89
0.77
0.8100000000000001
0.8100000000000001
0.78
0.8200000000000001
0.78
0.8
0.86
0.8100000000000001
0.79
0.78
0.86
0.91
0.9
0.8
0.8
0.8
0.8200000000000001
0.85
0.8200000000000001
0.8200000000000001
0.87
0.8200000000000001
0.8200000000000001
0.86
0.86
0.79
0.8
0.78
0.18
0.5
0.8100000000000001
0.5
0.18
0.8100000000000001
0.23
0.21
0.5
0.19
0.5
0.19
0.19
0.12
0.5
0.21
0.8100000000000001
0.22
0.5
0.21
0.14
0.78
0.22
0.19
0.16
0.8300000000000001
0.19
0.18
0.17
0.23
0.21
0.2
0.19
0.21
0.21
0.8100000000000001
0.8100000000000001
0.19
0.2
0.19
0.79
0.22
0.14
0.17
0.22
0.21
0.15
0.22
0.21
0.21
0.2
0.22
0.21
0.13
0.15
0.23
0.17
0.79
0.77
0.14
0.21
0.8
0.21
0.22
0.78
0.78
0.2
0.16
0.8
0.2
0.2
0.5
0.15
0.8
0.8
0.16
0.77
0.2
0.22
0.21
0.22
0.19
0.18
0.18
0.23
0.19
0.21
0.17
0.15
0.19
0.22
0.79
0.19
0.21
0.8200000000000001
0.17
0.79
0.23
0.21
0.91
0.89
0.23
0.21
0.15
0.16
0.19
0.16
0.86
0.16
0.17
0.21
0.78
0.16
0.13
0.16
0.15
0.21
0.79
0.18
0.8
0.19
0.18
0.8300000000000001
0.17
0.21
0.2
0.86
0.18
0.8100000000000001
0.19
0.2
0.8
0.8

forceimprovementnum 1
maxthreads 4
