ISO-10303-21;
HEADER;
FILE_DESCRIPTION ((), '1');
FILE_NAME ('C:\Users\81364\Desktop\mirror2.stp', '2019-07-29T17:22:59', ('Unknown'), ('Unknown'), 'HarmonyWare STEP v1.1.9', 'HarmonyWare Translators', '');
FILE_SCHEMA (('CONFIG_CONTROL_DESIGN'));
ENDSEC;

DATA;
#10 = CARTESIAN_POINT ('', (0., 0., 580.));
#20 = CARTESIAN_POINT ('', (0., 0., 595.));
#30 = B_SPLINE_CURVE_WITH_KNOTS ('', 1, (#10, #20), .UNSPECIFIED., .F., .U., (2, 2), (0., 1.), .UNSPECIFIED.);
#40 = CARTESIAN_POINT ('', (0., 77.3757692605835, 580.));
#50 = CARTESIAN_POINT ('', (0., 78.1027123773778, 595.));
#60 = B_SPLINE_CURVE_WITH_KNOTS ('', 1, (#40, #50), .UNSPECIFIED., .F., .U., (2, 2), (0., 1.), .UNSPECIFIED.);
#70 = CARTESIAN_POINT ('', (0., -77.3757692605835, 580.));
#80 = CARTESIAN_POINT ('', (0., -78.1027123773778, 595.));
#90 = B_SPLINE_CURVE_WITH_KNOTS ('', 1, (#70, #80), .UNSPECIFIED., .F., .U., (2, 2), (0., 1.), .UNSPECIFIED.);
#100 = CARTESIAN_POINT ('', (39.9004700527397, 0., 579.4312960948));
#110 = CARTESIAN_POINT ('', (40.6985255506601, 0., 595.));
#120 = B_SPLINE_CURVE_WITH_KNOTS ('', 1, (#100, #110), .UNSPECIFIED., .F., .U., (2, 2), (0., 1.), .UNSPECIFIED.);
#130 = CARTESIAN_POINT ('', (-39.9004700527397, 0., 579.4312960948));
#140 = CARTESIAN_POINT ('', (-40.6985255506601, 0., 595.));
#150 = B_SPLINE_CURVE_WITH_KNOTS ('', 1, (#130, #140), .UNSPECIFIED., .F., .U., (2, 2), (0., 1.), .UNSPECIFIED.);
#160 = CARTESIAN_POINT ('', (-150., 250., 595.));
#170 = VERTEX_POINT ('', #160);
#180 = CARTESIAN_POINT ('', (150., 250., 595.));
#190 = VERTEX_POINT ('', #180);
#200 = CARTESIAN_POINT ('', (-150., 250., 595.));
#210 = CARTESIAN_POINT ('', (150., 250., 595.));
#220 = B_SPLINE_CURVE_WITH_KNOTS ('', 1, (#200, #210), .UNSPECIFIED., .F., .U., (2, 2), (0., 1.), .UNSPECIFIED.);
#230 = EDGE_CURVE ('', #170, #190, #220, .T.);
#240 = ORIENTED_EDGE ('', *, *, #230, .T.);
#250 = CARTESIAN_POINT ('', (150., 250., 571.941090707506));
#260 = VERTEX_POINT ('', #250);
#270 = CARTESIAN_POINT ('', (150., 250., 571.941090707506));
#280 = CARTESIAN_POINT ('', (150., 250., 595.));
#290 = B_SPLINE_CURVE_WITH_KNOTS ('', 1, (#270, #280), .UNSPECIFIED., .F., .U., (2, 2), (0., 1.), .UNSPECIFIED.);
#300 = EDGE_CURVE ('', #260, #190, #290, .T.);
#310 = ORIENTED_EDGE ('', *, *, #300, .F.);
#320 = CARTESIAN_POINT ('', (-150., 250., 571.941090707505));
#330 = VERTEX_POINT ('', #320);
#340 = CARTESIAN_POINT ('', (150.000000000008, 250., 571.941090707505));
#350 = CARTESIAN_POINT ('', (75.2164867299527, 250., 580.));
#360 = CARTESIAN_POINT ('', (8.57252759403147E-14, 250., 580.));
#370 = CARTESIAN_POINT ('', (-75.2164867299519, 250., 580.));
#380 = CARTESIAN_POINT ('', (-150.000000000006, 250., 571.941090707505));
#390 = (
   BOUNDED_CURVE ()
   B_SPLINE_CURVE (2, (#340, #350, #360, #370, #380), .UNSPECIFIED., .F., .U.)
   B_SPLINE_CURVE_WITH_KNOTS ((3, 2, 3), (0.462836965792308, 0.5, 0.537163034207691), .UNSPECIFIED.)
   CURVE ()
   GEOMETRIC_REPRESENTATION_ITEM ()
   RATIONAL_B_SPLINE_CURVE ((0.959696894929166, 0.978230398580069, 1., 0.97823039858007, 0.959696894929166))
   REPRESENTATION_ITEM ('')
);
#400 = EDGE_CURVE ('', #260, #330, #390, .T.);
#410 = ORIENTED_EDGE ('', *, *, #400, .T.);
#420 = CARTESIAN_POINT ('', (-150., 250., 571.941090707505));
#430 = CARTESIAN_POINT ('', (-150., 250., 595.));
#440 = B_SPLINE_CURVE_WITH_KNOTS ('', 1, (#420, #430), .UNSPECIFIED., .F., .U., (2, 2), (0., 1.), .UNSPECIFIED.);
#450 = EDGE_CURVE ('', #330, #170, #440, .T.);
#460 = ORIENTED_EDGE ('', *, *, #450, .T.);
#470 = EDGE_LOOP ('', (#240, #310, #410, #460));
#480 = FACE_OUTER_BOUND ('', #470, .T.);
#490 = CARTESIAN_POINT ('', (-150., 250., 571.941090707505));
#500 = CARTESIAN_POINT ('', (150., 250., 571.941090707505));
#510 = CARTESIAN_POINT ('', (-150., 250., 595.));
#520 = CARTESIAN_POINT ('', (150., 250., 595.));
#530 = B_SPLINE_SURFACE_WITH_KNOTS ('', 1, 1, ((#490, #500), (#510, #520)), .UNSPECIFIED., .F., .F., .U., (2, 2), (2, 2), (0.0459613557007293, 0.954038644299273), (0., 1.), .UNSPECIFIED.);
#540 = ADVANCED_FACE ('', (#480), #530, .T.);
#550 = CARTESIAN_POINT ('', (150., -250., 595.));
#560 = VERTEX_POINT ('', #550);
#570 = CARTESIAN_POINT ('', (150., 250., 595.));
#580 = CARTESIAN_POINT ('', (150., -250., 595.));
#590 = B_SPLINE_CURVE_WITH_KNOTS ('', 1, (#570, #580), .UNSPECIFIED., .F., .U., (2, 2), (0., 1.), .UNSPECIFIED.);
#600 = EDGE_CURVE ('', #190, #560, #590, .T.);
#610 = ORIENTED_EDGE ('', *, *, #600, .T.);
#620 = CARTESIAN_POINT ('', (150., -250., 571.941090707505));
#630 = VERTEX_POINT ('', #620);
#640 = CARTESIAN_POINT ('', (150., -250., 571.941090707505));
#650 = CARTESIAN_POINT ('', (150., -250., 595.));
#660 = B_SPLINE_CURVE_WITH_KNOTS ('', 1, (#640, #650), .UNSPECIFIED., .F., .U., (2, 2), (0., 1.), .UNSPECIFIED.);
#670 = EDGE_CURVE ('', #630, #560, #660, .T.);
#680 = ORIENTED_EDGE ('', *, *, #670, .F.);
#690 = CARTESIAN_POINT ('', (150., -250., 571.941090707506));
#700 = CARTESIAN_POINT ('', (150., 250., 571.941090707506));
#710 = B_SPLINE_CURVE_WITH_KNOTS ('', 1, (#690, #700), .UNSPECIFIED., .F., .U., (2, 2), (0., 1.), .UNSPECIFIED.);
#720 = EDGE_CURVE ('', #630, #260, #710, .T.);
#730 = ORIENTED_EDGE ('', *, *, #720, .T.);
#740 = ORIENTED_EDGE ('', *, *, #300, .T.);
#750 = EDGE_LOOP ('', (#610, #680, #730, #740));
#760 = FACE_OUTER_BOUND ('', #750, .T.);
#770 = CARTESIAN_POINT ('', (150., 250., 571.941090707505));
#780 = CARTESIAN_POINT ('', (150., -250., 571.941090707505));
#790 = CARTESIAN_POINT ('', (150., 250., 595.));
#800 = CARTESIAN_POINT ('', (150., -250., 595.));
#810 = B_SPLINE_SURFACE_WITH_KNOTS ('', 1, 1, ((#770, #780), (#790, #800)), .UNSPECIFIED., .F., .F., .U., (2, 2), (2, 2), (0.0459613557007294, 0.954038644299273), (0., 1.), .UNSPECIFIED.);
#820 = ADVANCED_FACE ('', (#760), #810, .T.);
#830 = CARTESIAN_POINT ('', (-150., -250., 595.));
#840 = VERTEX_POINT ('', #830);
#850 = CARTESIAN_POINT ('', (150., -250., 595.));
#860 = CARTESIAN_POINT ('', (-150., -250., 595.));
#870 = B_SPLINE_CURVE_WITH_KNOTS ('', 1, (#850, #860), .UNSPECIFIED., .F., .U., (2, 2), (0., 1.), .UNSPECIFIED.);
#880 = EDGE_CURVE ('', #560, #840, #870, .T.);
#890 = ORIENTED_EDGE ('', *, *, #880, .T.);
#900 = CARTESIAN_POINT ('', (-150., -250., 571.941090707505));
#910 = VERTEX_POINT ('', #900);
#920 = CARTESIAN_POINT ('', (-150., -250., 571.941090707505));
#930 = CARTESIAN_POINT ('', (-150., -250., 595.));
#940 = B_SPLINE_CURVE_WITH_KNOTS ('', 1, (#920, #930), .UNSPECIFIED., .F., .U., (2, 2), (0., 1.), .UNSPECIFIED.);
#950 = EDGE_CURVE ('', #910, #840, #940, .T.);
#960 = ORIENTED_EDGE ('', *, *, #950, .F.);
#970 = CARTESIAN_POINT ('', (150.000000000008, -250., 571.941090707505));
#980 = CARTESIAN_POINT ('', (75.2164867299527, -250., 580.));
#990 = CARTESIAN_POINT ('', (8.57252759403147E-14, -250., 580.));
#1000 = CARTESIAN_POINT ('', (-75.2164867299519, -250., 580.));
#1010 = CARTESIAN_POINT ('', (-150.000000000006, -250., 571.941090707505));
#1020 = (
   BOUNDED_CURVE ()
   B_SPLINE_CURVE (2, (#970, #980, #990, #1000, #1010), .UNSPECIFIED., .F., .U.)
   B_SPLINE_CURVE_WITH_KNOTS ((3, 2, 3), (0.462836965792308, 0.5, 0.537163034207691), .UNSPECIFIED.)
   CURVE ()
   GEOMETRIC_REPRESENTATION_ITEM ()
   RATIONAL_B_SPLINE_CURVE ((0.959696894929166, 0.978230398580069, 1., 0.97823039858007, 0.959696894929166))
   REPRESENTATION_ITEM ('')
);
#1030 = EDGE_CURVE ('', #630, #910, #1020, .T.);
#1040 = ORIENTED_EDGE ('', *, *, #1030, .F.);
#1050 = ORIENTED_EDGE ('', *, *, #670, .T.);
#1060 = EDGE_LOOP ('', (#890, #960, #1040, #1050));
#1070 = FACE_OUTER_BOUND ('', #1060, .T.);
#1080 = CARTESIAN_POINT ('', (150., -250., 571.941090707505));
#1090 = CARTESIAN_POINT ('', (-150., -250., 571.941090707505));
#1100 = CARTESIAN_POINT ('', (150., -250., 595.));
#1110 = CARTESIAN_POINT ('', (-150., -250., 595.));
#1120 = B_SPLINE_SURFACE_WITH_KNOTS ('', 1, 1, ((#1080, #1090), (#1100, #1110)), .UNSPECIFIED., .F., .F., .U., (2, 2), (2, 2), (0.0459613557007294, 0.954038644299273), (0., 1.), .UNSPECIFIED.);
#1130 = ADVANCED_FACE ('', (#1070), #1120, .T.);
#1140 = CARTESIAN_POINT ('', (-150., -250., 595.));
#1150 = CARTESIAN_POINT ('', (-150., 250., 595.));
#1160 = B_SPLINE_CURVE_WITH_KNOTS ('', 1, (#1140, #1150), .UNSPECIFIED., .F., .U., (2, 2), (0., 1.), .UNSPECIFIED.);
#1170 = EDGE_CURVE ('', #840, #170, #1160, .T.);
#1180 = ORIENTED_EDGE ('', *, *, #1170, .T.);
#1190 = ORIENTED_EDGE ('', *, *, #450, .F.);
#1200 = CARTESIAN_POINT ('', (-150., -250., 571.941090707505));
#1210 = CARTESIAN_POINT ('', (-150., 250., 571.941090707505));
#1220 = B_SPLINE_CURVE_WITH_KNOTS ('', 1, (#1200, #1210), .UNSPECIFIED., .F., .U., (2, 2), (0., 1.), .UNSPECIFIED.);
#1230 = EDGE_CURVE ('', #910, #330, #1220, .T.);
#1240 = ORIENTED_EDGE ('', *, *, #1230, .F.);
#1250 = ORIENTED_EDGE ('', *, *, #950, .T.);
#1260 = EDGE_LOOP ('', (#1180, #1190, #1240, #1250));
#1270 = FACE_OUTER_BOUND ('', #1260, .T.);
#1280 = CARTESIAN_POINT ('', (-150., -250., 571.941090707505));
#1290 = CARTESIAN_POINT ('', (-150., 250., 571.941090707505));
#1300 = CARTESIAN_POINT ('', (-150., -250., 595.));
#1310 = CARTESIAN_POINT ('', (-150., 250., 595.));
#1320 = B_SPLINE_SURFACE_WITH_KNOTS ('', 1, 1, ((#1280, #1290), (#1300, #1310)), .UNSPECIFIED., .F., .F., .U., (2, 2), (2, 2), (0.0459613557007293, 0.954038644299273), (0., 1.), .UNSPECIFIED.);
#1330 = ADVANCED_FACE ('', (#1270), #1320, .T.);
#1340 = ORIENTED_EDGE ('', *, *, #1030, .F.);
#1350 = ORIENTED_EDGE ('', *, *, #720, .T.);
#1360 = ORIENTED_EDGE ('', *, *, #400, .T.);
#1370 = ORIENTED_EDGE ('', *, *, #1230, .F.);
#1380 = EDGE_LOOP ('', (#1340, #1350, #1360, #1370));
#1390 = FACE_OUTER_BOUND ('', #1380, .F.);
#1400 = CARTESIAN_POINT ('', (150.000000000008, -250., 571.941090707505));
#1410 = CARTESIAN_POINT ('', (75.2164867299527, -250., 580.));
#1420 = CARTESIAN_POINT ('', (8.57252759403147E-14, -250., 580.));
#1430 = CARTESIAN_POINT ('', (-75.2164867299519, -250., 580.));
#1440 = CARTESIAN_POINT ('', (-150.000000000006, -250., 571.941090707505));
#1450 = CARTESIAN_POINT ('', (150.000000000008, 250., 571.941090707505));
#1460 = CARTESIAN_POINT ('', (75.2164867299527, 250., 580.));
#1470 = CARTESIAN_POINT ('', (8.57252759403147E-14, 250., 580.));
#1480 = CARTESIAN_POINT ('', (-75.2164867299519, 250., 580.));
#1490 = CARTESIAN_POINT ('', (-150.000000000006, 250., 571.941090707505));
#1500 = (
   BOUNDED_SURFACE ()
   B_SPLINE_SURFACE (1, 2, ((#1400, #1410, #1420, #1430, #1440), (#1450, #1460, #1470, #1480, #1490)), .UNSPECIFIED., .F., .F., .U.)
   B_SPLINE_SURFACE_WITH_KNOTS ((2, 2), (3, 2, 3), (0.00116438399396448, 0.998835616006036), (0.462836965792308, 0.5, 0.537163034207691), .UNSPECIFIED.)
   SURFACE ()
   GEOMETRIC_REPRESENTATION_ITEM ()
   RATIONAL_B_SPLINE_SURFACE (((0.959696894929166, 0.978230398580069, 1., 0.97823039858007, 0.959696894929166), (0.959696894929166, 0.978230398580069, 1., 0.97823039858007, 0.959696894929166)))
   REPRESENTATION_ITEM ('')
);
#1510 = ADVANCED_FACE ('', (#1390), #1500, .F.);
#1520 = ORIENTED_EDGE ('', *, *, #880, .F.);
#1530 = ORIENTED_EDGE ('', *, *, #600, .F.);
#1540 = ORIENTED_EDGE ('', *, *, #230, .F.);
#1550 = ORIENTED_EDGE ('', *, *, #1170, .F.);
#1560 = EDGE_LOOP ('', (#1520, #1530, #1540, #1550));
#1570 = FACE_OUTER_BOUND ('', #1560, .T.);
#1580 = CARTESIAN_POINT ('', (-150., -250., 595.));
#1590 = CARTESIAN_POINT ('', (-150., 250., 595.));
#1600 = CARTESIAN_POINT ('', (150., -250., 595.));
#1610 = CARTESIAN_POINT ('', (150., 250., 595.));
#1620 = B_SPLINE_SURFACE_WITH_KNOTS ('', 1, 1, ((#1580, #1590), (#1600, #1610)), .UNSPECIFIED., .F., .F., .U., (2, 2), (2, 2), (0.00193763179334581, 0.998062368206654), (0.00116438399396446, 0.998835616006035), .UNSPECIFIED.);
#1630 = ADVANCED_FACE ('', (#1570), #1620, .T.);
#1640 = CLOSED_SHELL ('', (#540, #820, #1130, #1330, #1510, #1630));
#1650 = MANIFOLD_SOLID_BREP ('', #1640);
#1660 = (
   LENGTH_UNIT ()
   NAMED_UNIT (*)
   SI_UNIT (.MILLI., .METRE.)
);
#1670 = (
   NAMED_UNIT (*)
   SI_UNIT ($, .STERADIAN.)
   SOLID_ANGLE_UNIT ()
);
#1680 = (
   NAMED_UNIT (*)
   SI_UNIT ($, .RADIAN.)
   PLANE_ANGLE_UNIT ()
);
#1690 = UNCERTAINTY_MEASURE_WITH_UNIT (LENGTH_MEASURE(1.E-5), #1660, 'DISTANCE_ACCURACY_VALUE', '');
#1700 = (
   GEOMETRIC_REPRESENTATION_CONTEXT (3)
   GLOBAL_UNCERTAINTY_ASSIGNED_CONTEXT ((#1690))
   GLOBAL_UNIT_ASSIGNED_CONTEXT ((#1660, #1670, #1680))
   REPRESENTATION_CONTEXT ('', '3D')
);
#1710 = ADVANCED_BREP_SHAPE_REPRESENTATION ('', (#1650), #1700);
#1720 = APPLICATION_CONTEXT ('configuration controlled 3D designs of mechanical parts and assemblies');
#1730 = APPLICATION_PROTOCOL_DEFINITION ('International Standard', 'config_control_design', 1997, #1720);
#1740 = MECHANICAL_CONTEXT ('', #1720, 'mechanical');
#1750 = PRODUCT ('product-name', '', '', (#1740));
#1760 = PERSON_AND_ORGANIZATION_ROLE ('design_owner');
#1770 = PERSON ('', '', $, $, $, $);
#1780 = ORGANIZATION ($, '', '');
#1790 = PERSON_AND_ORGANIZATION (#1770, #1780);
#1800 = CC_DESIGN_PERSON_AND_ORGANIZATION_ASSIGNMENT (#1790, #1760, (#1750));
#1810 = PRODUCT_RELATED_PRODUCT_CATEGORY ('detail', $, (#1750));
#1820 = PRODUCT_DEFINITION_FORMATION_WITH_SPECIFIED_SOURCE ('', '', #1750, .NOT_KNOWN.);
#1830 = APPROVAL_STATUS ('approved');
#1840 = APPROVAL (#1830, '');
#1850 = CALENDAR_DATE (2019, 29, 7);
#1860 = COORDINATED_UNIVERSAL_TIME_OFFSET (0, $, .AHEAD.);
#1870 = LOCAL_TIME (17, 22, 59., #1860);
#1880 = DATE_AND_TIME (#1850, #1870);
#1890 = APPROVAL_DATE_TIME (#1880, #1840);
#1900 = APPROVAL_ROLE ('');
#1910 = PERSON ('', '', $, $, $, $);
#1920 = ORGANIZATION ($, '', '');
#1930 = PERSON_AND_ORGANIZATION (#1910, #1920);
#1940 = APPROVAL_PERSON_ORGANIZATION (#1930, #1840, #1900);
#1950 = CC_DESIGN_APPROVAL (#1840, (#1820));
#1960 = PERSON_AND_ORGANIZATION_ROLE ('creator');
#1970 = PERSON ('', '', $, $, $, $);
#1980 = ORGANIZATION ($, '', '');
#1990 = PERSON_AND_ORGANIZATION (#1970, #1980);
#2000 = CC_DESIGN_PERSON_AND_ORGANIZATION_ASSIGNMENT (#1990, #1960, (#1820));
#2010 = PERSON_AND_ORGANIZATION_ROLE ('part_supplier');
#2020 = PERSON ('', '', $, $, $, $);
#2030 = ORGANIZATION ($, '', '');
#2040 = PERSON_AND_ORGANIZATION (#2020, #2030);
#2050 = CC_DESIGN_PERSON_AND_ORGANIZATION_ASSIGNMENT (#2040, #2010, (#1820));
#2060 = SECURITY_CLASSIFICATION_LEVEL ('unclassified');
#2070 = SECURITY_CLASSIFICATION ('', '', #2060);
#2080 = APPROVAL_STATUS ('approved');
#2090 = APPROVAL (#2080, '');
#2100 = CALENDAR_DATE (2019, 29, 7);
#2110 = COORDINATED_UNIVERSAL_TIME_OFFSET (0, $, .AHEAD.);
#2120 = LOCAL_TIME (17, 22, 59., #2110);
#2130 = DATE_AND_TIME (#2100, #2120);
#2140 = APPROVAL_DATE_TIME (#2130, #2090);
#2150 = APPROVAL_ROLE ('');
#2160 = PERSON ('', '', $, $, $, $);
#2170 = ORGANIZATION ($, '', '');
#2180 = PERSON_AND_ORGANIZATION (#2160, #2170);
#2190 = APPROVAL_PERSON_ORGANIZATION (#2180, #2090, #2150);
#2200 = CC_DESIGN_APPROVAL (#2090, (#2070));
#2210 = DATE_TIME_ROLE ('classification_date');
#2220 = CALENDAR_DATE (2019, 29, 7);
#2230 = COORDINATED_UNIVERSAL_TIME_OFFSET (0, $, .AHEAD.);
#2240 = LOCAL_TIME (17, 22, 59., #2230);
#2250 = DATE_AND_TIME (#2220, #2240);
#2260 = CC_DESIGN_DATE_AND_TIME_ASSIGNMENT (#2250, #2210, (#2070));
#2270 = PERSON_AND_ORGANIZATION_ROLE ('classification_officer');
#2280 = PERSON ('', '', $, $, $, $);
#2290 = ORGANIZATION ($, '', '');
#2300 = PERSON_AND_ORGANIZATION (#2280, #2290);
#2310 = CC_DESIGN_PERSON_AND_ORGANIZATION_ASSIGNMENT (#2300, #2270, (#2070));
#2320 = CC_DESIGN_SECURITY_CLASSIFICATION (#2070, (#1820));
#2330 = DESIGN_CONTEXT ('', #1720, 'design');
#2340 = PRODUCT_DEFINITION ('', '', #1820, #2330);
#2350 = APPROVAL_STATUS ('approved');
#2360 = APPROVAL (#2350, '');
#2370 = CALENDAR_DATE (2019, 29, 7);
#2380 = COORDINATED_UNIVERSAL_TIME_OFFSET (0, $, .AHEAD.);
#2390 = LOCAL_TIME (17, 22, 59., #2380);
#2400 = DATE_AND_TIME (#2370, #2390);
#2410 = APPROVAL_DATE_TIME (#2400, #2360);
#2420 = APPROVAL_ROLE ('');
#2430 = PERSON ('', '', $, $, $, $);
#2440 = ORGANIZATION ($, '', '');
#2450 = PERSON_AND_ORGANIZATION (#2430, #2440);
#2460 = APPROVAL_PERSON_ORGANIZATION (#2450, #2360, #2420);
#2470 = CC_DESIGN_APPROVAL (#2360, (#2340));
#2480 = DATE_TIME_ROLE ('creation_date');
#2490 = CALENDAR_DATE (2019, 29, 7);
#2500 = COORDINATED_UNIVERSAL_TIME_OFFSET (0, $, .AHEAD.);
#2510 = LOCAL_TIME (17, 22, 59., #2500);
#2520 = DATE_AND_TIME (#2490, #2510);
#2530 = CC_DESIGN_DATE_AND_TIME_ASSIGNMENT (#2520, #2480, (#2340));
#2540 = PERSON_AND_ORGANIZATION_ROLE ('creator');
#2550 = PERSON ('', '', $, $, $, $);
#2560 = ORGANIZATION ($, '', '');
#2570 = PERSON_AND_ORGANIZATION (#2550, #2560);
#2580 = CC_DESIGN_PERSON_AND_ORGANIZATION_ASSIGNMENT (#2570, #2540, (#2340));
#2590 = PRODUCT_DEFINITION_SHAPE ('', '', #2340);
#2600 = SHAPE_DEFINITION_REPRESENTATION (#2590, #1710);
#2610 = GEOMETRIC_CURVE_SET ('', (#30, #60, #90, #120, #150));
#2620 = (
   LENGTH_UNIT ()
   NAMED_UNIT (*)
   SI_UNIT (.MILLI., .METRE.)
);
#2630 = (
   NAMED_UNIT (*)
   SI_UNIT ($, .STERADIAN.)
   SOLID_ANGLE_UNIT ()
);
#2640 = (
   NAMED_UNIT (*)
   SI_UNIT ($, .RADIAN.)
   PLANE_ANGLE_UNIT ()
);
#2650 = UNCERTAINTY_MEASURE_WITH_UNIT (LENGTH_MEASURE(1.E-5), #2620, 'DISTANCE_ACCURACY_VALUE', '');
#2660 = (
   GEOMETRIC_REPRESENTATION_CONTEXT (3)
   GLOBAL_UNCERTAINTY_ASSIGNED_CONTEXT ((#2650))
   GLOBAL_UNIT_ASSIGNED_CONTEXT ((#2620, #2630, #2640))
   REPRESENTATION_CONTEXT ('', '3D')
);
#2670 = GEOMETRICALLY_BOUNDED_WIREFRAME_SHAPE_REPRESENTATION ('', (#2610), #2660);
#2680 = APPLICATION_CONTEXT ('configuration controlled 3D designs of mechanical parts and assemblies');
#2690 = APPLICATION_PROTOCOL_DEFINITION ('International Standard', 'config_control_design', 1997, #2680);
#2700 = MECHANICAL_CONTEXT ('', #2680, 'mechanical');
#2710 = PRODUCT ('product-name', '', '', (#2700));
#2720 = PERSON_AND_ORGANIZATION_ROLE ('design_owner');
#2730 = PERSON ('', '', $, $, $, $);
#2740 = ORGANIZATION ($, '', '');
#2750 = PERSON_AND_ORGANIZATION (#2730, #2740);
#2760 = CC_DESIGN_PERSON_AND_ORGANIZATION_ASSIGNMENT (#2750, #2720, (#2710));
#2770 = PRODUCT_RELATED_PRODUCT_CATEGORY ('detail', $, (#2710));
#2780 = PRODUCT_DEFINITION_FORMATION_WITH_SPECIFIED_SOURCE ('', '', #2710, .NOT_KNOWN.);
#2790 = APPROVAL_STATUS ('approved');
#2800 = APPROVAL (#2790, '');
#2810 = CALENDAR_DATE (2019, 29, 7);
#2820 = COORDINATED_UNIVERSAL_TIME_OFFSET (0, $, .AHEAD.);
#2830 = LOCAL_TIME (17, 22, 59., #2820);
#2840 = DATE_AND_TIME (#2810, #2830);
#2850 = APPROVAL_DATE_TIME (#2840, #2800);
#2860 = APPROVAL_ROLE ('');
#2870 = PERSON ('', '', $, $, $, $);
#2880 = ORGANIZATION ($, '', '');
#2890 = PERSON_AND_ORGANIZATION (#2870, #2880);
#2900 = APPROVAL_PERSON_ORGANIZATION (#2890, #2800, #2860);
#2910 = CC_DESIGN_APPROVAL (#2800, (#2780));
#2920 = PERSON_AND_ORGANIZATION_ROLE ('creator');
#2930 = PERSON ('', '', $, $, $, $);
#2940 = ORGANIZATION ($, '', '');
#2950 = PERSON_AND_ORGANIZATION (#2930, #2940);
#2960 = CC_DESIGN_PERSON_AND_ORGANIZATION_ASSIGNMENT (#2950, #2920, (#2780));
#2970 = PERSON_AND_ORGANIZATION_ROLE ('part_supplier');
#2980 = PERSON ('', '', $, $, $, $);
#2990 = ORGANIZATION ($, '', '');
#3000 = PERSON_AND_ORGANIZATION (#2980, #2990);
#3010 = CC_DESIGN_PERSON_AND_ORGANIZATION_ASSIGNMENT (#3000, #2970, (#2780));
#3020 = SECURITY_CLASSIFICATION_LEVEL ('unclassified');
#3030 = SECURITY_CLASSIFICATION ('', '', #3020);
#3040 = APPROVAL_STATUS ('approved');
#3050 = APPROVAL (#3040, '');
#3060 = CALENDAR_DATE (2019, 29, 7);
#3070 = COORDINATED_UNIVERSAL_TIME_OFFSET (0, $, .AHEAD.);
#3080 = LOCAL_TIME (17, 22, 59., #3070);
#3090 = DATE_AND_TIME (#3060, #3080);
#3100 = APPROVAL_DATE_TIME (#3090, #3050);
#3110 = APPROVAL_ROLE ('');
#3120 = PERSON ('', '', $, $, $, $);
#3130 = ORGANIZATION ($, '', '');
#3140 = PERSON_AND_ORGANIZATION (#3120, #3130);
#3150 = APPROVAL_PERSON_ORGANIZATION (#3140, #3050, #3110);
#3160 = CC_DESIGN_APPROVAL (#3050, (#3030));
#3170 = DATE_TIME_ROLE ('classification_date');
#3180 = CALENDAR_DATE (2019, 29, 7);
#3190 = COORDINATED_UNIVERSAL_TIME_OFFSET (0, $, .AHEAD.);
#3200 = LOCAL_TIME (17, 22, 59., #3190);
#3210 = DATE_AND_TIME (#3180, #3200);
#3220 = CC_DESIGN_DATE_AND_TIME_ASSIGNMENT (#3210, #3170, (#3030));
#3230 = PERSON_AND_ORGANIZATION_ROLE ('classification_officer');
#3240 = PERSON ('', '', $, $, $, $);
#3250 = ORGANIZATION ($, '', '');
#3260 = PERSON_AND_ORGANIZATION (#3240, #3250);
#3270 = CC_DESIGN_PERSON_AND_ORGANIZATION_ASSIGNMENT (#3260, #3230, (#3030));
#3280 = CC_DESIGN_SECURITY_CLASSIFICATION (#3030, (#2780));
#3290 = DESIGN_CONTEXT ('', #2680, 'design');
#3300 = PRODUCT_DEFINITION ('', '', #2780, #3290);
#3310 = APPROVAL_STATUS ('approved');
#3320 = APPROVAL (#3310, '');
#3330 = CALENDAR_DATE (2019, 29, 7);
#3340 = COORDINATED_UNIVERSAL_TIME_OFFSET (0, $, .AHEAD.);
#3350 = LOCAL_TIME (17, 22, 59., #3340);
#3360 = DATE_AND_TIME (#3330, #3350);
#3370 = APPROVAL_DATE_TIME (#3360, #3320);
#3380 = APPROVAL_ROLE ('');
#3390 = PERSON ('', '', $, $, $, $);
#3400 = ORGANIZATION ($, '', '');
#3410 = PERSON_AND_ORGANIZATION (#3390, #3400);
#3420 = APPROVAL_PERSON_ORGANIZATION (#3410, #3320, #3380);
#3430 = CC_DESIGN_APPROVAL (#3320, (#3300));
#3440 = DATE_TIME_ROLE ('creation_date');
#3450 = CALENDAR_DATE (2019, 29, 7);
#3460 = COORDINATED_UNIVERSAL_TIME_OFFSET (0, $, .AHEAD.);
#3470 = LOCAL_TIME (17, 22, 59., #3460);
#3480 = DATE_AND_TIME (#3450, #3470);
#3490 = CC_DESIGN_DATE_AND_TIME_ASSIGNMENT (#3480, #3440, (#3300));
#3500 = PERSON_AND_ORGANIZATION_ROLE ('creator');
#3510 = PERSON ('', '', $, $, $, $);
#3520 = ORGANIZATION ($, '', '');
#3530 = PERSON_AND_ORGANIZATION (#3510, #3520);
#3540 = CC_DESIGN_PERSON_AND_ORGANIZATION_ASSIGNMENT (#3530, #3500, (#3300));
#3550 = PRODUCT_DEFINITION_SHAPE ('', '', #3300);
#3560 = SHAPE_DEFINITION_REPRESENTATION (#3550, #2670);
ENDSEC;
END-ISO-10303-21;
