ISO-10303-21;
HEADER;
FILE_DESCRIPTION ((), '1');
FILE_NAME ('D:\MIRmaterial\MIRoptical\illumination\endmode\nonthing is final\zoom2_recheck.stp', '2019-08-06T10:06:20', ('Unknown'), ('Unknown'), 'HarmonyWare STEP v1.1.9', 'HarmonyWare Translators', '');
FILE_SCHEMA (('CONFIG_CONTROL_DESIGN'));
ENDSEC;

DATA;
#10 = CARTESIAN_POINT ('', (0., 0., 440.));
#20 = CARTESIAN_POINT ('', (0., 0., 480.));
#30 = B_SPLINE_CURVE_WITH_KNOTS ('', 1, (#10, #20), .UNSPECIFIED., .F., .U., (2, 2), (0., 1.), .UNSPECIFIED.);
#40 = CARTESIAN_POINT ('', (0., 66.5557030661002, 442.464296872054));
#50 = CARTESIAN_POINT ('', (0., 69.2823861703194, 477.3293436451));
#60 = B_SPLINE_CURVE_WITH_KNOTS ('', 1, (#40, #50), .UNSPECIFIED., .F., .U., (2, 2), (0., 1.), .UNSPECIFIED.);
#70 = CARTESIAN_POINT ('', (0., -66.5557030661002, 442.464296872054));
#80 = CARTESIAN_POINT ('', (0., -69.2823861703194, 477.3293436451));
#90 = B_SPLINE_CURVE_WITH_KNOTS ('', 1, (#70, #80), .UNSPECIFIED., .F., .U., (2, 2), (0., 1.), .UNSPECIFIED.);
#100 = CARTESIAN_POINT ('', (31.7793371755469, 0., 440.));
#110 = CARTESIAN_POINT ('', (33.3903831906121, 0., 480.));
#120 = B_SPLINE_CURVE_WITH_KNOTS ('', 1, (#100, #110), .UNSPECIFIED., .F., .U., (2, 2), (0., 1.), .UNSPECIFIED.);
#130 = CARTESIAN_POINT ('', (-31.7793371755469, 0., 440.));
#140 = CARTESIAN_POINT ('', (-33.3903831906121, 0., 480.));
#150 = B_SPLINE_CURVE_WITH_KNOTS ('', 1, (#130, #140), .UNSPECIFIED., .F., .U., (2, 2), (0., 1.), .UNSPECIFIED.);
#160 = CARTESIAN_POINT ('', (-90., 100., 474.427190999916));
#170 = VERTEX_POINT ('', #160);
#180 = CARTESIAN_POINT ('', (90., 100., 474.427190999916));
#190 = VERTEX_POINT ('', #180);
#200 = CARTESIAN_POINT ('', (-90., 100., 474.427190999916));
#210 = CARTESIAN_POINT ('', (90., 100., 474.427190999916));
#220 = B_SPLINE_CURVE_WITH_KNOTS ('', 1, (#200, #210), .UNSPECIFIED., .F., .U., (2, 2), (0., 1.), .UNSPECIFIED.);
#230 = EDGE_CURVE ('', #170, #190, #220, .T.);
#240 = ORIENTED_EDGE ('', *, *, #230, .T.);
#250 = CARTESIAN_POINT ('', (90., 100., 445.572809000084));
#260 = VERTEX_POINT ('', #250);
#270 = CARTESIAN_POINT ('', (90., 100., 445.572809000084));
#280 = CARTESIAN_POINT ('', (90., 100., 474.427190999916));
#290 = B_SPLINE_CURVE_WITH_KNOTS ('', 1, (#270, #280), .UNSPECIFIED., .F., .U., (2, 2), (0., 1.), .UNSPECIFIED.);
#300 = EDGE_CURVE ('', #260, #190, #290, .T.);
#310 = ORIENTED_EDGE ('', *, *, #300, .F.);
#320 = CARTESIAN_POINT ('', (-90., 100., 445.572809000084));
#330 = VERTEX_POINT ('', #320);
#340 = CARTESIAN_POINT ('', (90., 100., 445.572809000084));
#350 = CARTESIAN_POINT ('', (30., 100., 445.572809000084));
#360 = CARTESIAN_POINT ('', (-30., 100., 445.572809000084));
#370 = CARTESIAN_POINT ('', (-90., 100., 445.572809000084));
#380 = B_SPLINE_CURVE_WITH_KNOTS ('', 3, (#340, #350, #360, #370), .UNSPECIFIED., .F., .U., (4, 4), (0., 180.), .UNSPECIFIED.);
#390 = EDGE_CURVE ('', #260, #330, #380, .T.);
#400 = ORIENTED_EDGE ('', *, *, #390, .T.);
#410 = CARTESIAN_POINT ('', (-90., 100., 445.572809000084));
#420 = CARTESIAN_POINT ('', (-90., 100., 474.427190999916));
#430 = B_SPLINE_CURVE_WITH_KNOTS ('', 1, (#410, #420), .UNSPECIFIED., .F., .U., (2, 2), (0., 1.), .UNSPECIFIED.);
#440 = EDGE_CURVE ('', #330, #170, #430, .T.);
#450 = ORIENTED_EDGE ('', *, *, #440, .T.);
#460 = EDGE_LOOP ('', (#240, #310, #400, #450));
#470 = FACE_OUTER_BOUND ('', #460, .T.);
#480 = CARTESIAN_POINT ('', (-90., 100., 445.572809000084));
#490 = CARTESIAN_POINT ('', (90., 100., 445.572809000084));
#500 = CARTESIAN_POINT ('', (-90., 100., 474.427190999916));
#510 = CARTESIAN_POINT ('', (90., 100., 474.427190999916));
#520 = B_SPLINE_SURFACE_WITH_KNOTS ('', 1, 1, ((#480, #490), (#500, #510)), .UNSPECIFIED., .F., .F., .U., (2, 2), (2, 2), (0.491807797204808, 0.508192202795192), (0., 1.), .UNSPECIFIED.);
#530 = ADVANCED_FACE ('', (#470), #520, .T.);
#540 = CARTESIAN_POINT ('', (90., -100., 474.427190999916));
#550 = VERTEX_POINT ('', #540);
#560 = CARTESIAN_POINT ('', (90., 100., 474.427190999916));
#570 = CARTESIAN_POINT ('', (90., 50.1552810007571, 480.));
#580 = CARTESIAN_POINT ('', (90., 5.51091059616309E-14, 480.));
#590 = CARTESIAN_POINT ('', (90., -50.1552810007572, 480.));
#600 = CARTESIAN_POINT ('', (90., -100., 474.427190999916));
#610 = (
   BOUNDED_CURVE ()
   B_SPLINE_CURVE (2, (#560, #570, #580, #590, #600), .UNSPECIFIED., .F., .U.)
   B_SPLINE_CURVE_WITH_KNOTS ((3, 2, 3), (0.461483381499488, 0.5, 0.538516618500512), .UNSPECIFIED.)
   CURVE ()
   GEOMETRIC_REPRESENTATION_ITEM ()
   RATIONAL_B_SPLINE_CURVE ((0.95835110130091, 0.977437487259151, 1., 0.977437487259151, 0.95835110130091))
   REPRESENTATION_ITEM ('')
);
#620 = EDGE_CURVE ('', #190, #550, #610, .T.);
#630 = ORIENTED_EDGE ('', *, *, #620, .T.);
#640 = CARTESIAN_POINT ('', (90., -100., 445.572809000084));
#650 = VERTEX_POINT ('', #640);
#660 = CARTESIAN_POINT ('', (90., -100., 445.572809000084));
#670 = CARTESIAN_POINT ('', (90., -100., 474.427190999916));
#680 = B_SPLINE_CURVE_WITH_KNOTS ('', 1, (#660, #670), .UNSPECIFIED., .F., .U., (2, 2), (0., 1.), .UNSPECIFIED.);
#690 = EDGE_CURVE ('', #650, #550, #680, .T.);
#700 = ORIENTED_EDGE ('', *, *, #690, .F.);
#710 = CARTESIAN_POINT ('', (90., -100., 445.572809000084));
#720 = CARTESIAN_POINT ('', (90., -97.0044569423271, 445.23789710476));
#730 = CARTESIAN_POINT ('', (90., -94.0120616299179, 444.918541297899));
#740 = CARTESIAN_POINT ('', (90., -91.0133064922331, 444.613726908129));
#750 = CARTESIAN_POINT ('', (90., -88.0147446138377, 444.308932162581));
#760 = CARTESIAN_POINT ('', (90., -85.019033898891, 444.019616203527));
#770 = CARTESIAN_POINT ('', (90., -82.0175625618704, 443.744947332842));
#780 = CARTESIAN_POINT ('', (90., -79.0162845141393, 443.470296150333));
#790 = CARTESIAN_POINT ('', (90., -76.0175607765196, 443.211054061894));
#800 = CARTESIAN_POINT ('', (90., -73.0136761330738, 442.966554080878));
#810 = CARTESIAN_POINT ('', (90., -70.0099848220674, 442.722069836078));
#820 = CARTESIAN_POINT ('', (90., -67.0085507299685, 442.492932583199));
#830 = CARTESIAN_POINT ('', (90., -64.0025558971042, 442.278621821538));
#840 = CARTESIAN_POINT ('', (90., -60.9967544529106, 442.064324847416));
#850 = CARTESIAN_POINT ('', (90., -57.9929129322066, 441.865320336002));
#860 = CARTESIAN_POINT ('', (90., -54.9851112203516, 441.681216079678));
#870 = CARTESIAN_POINT ('', (90., -51.977502966418, 441.497123664703));
#880 = CARTESIAN_POINT ('', (90., -48.9715571699906, 441.328276740737));
#890 = CARTESIAN_POINT ('', (90., -45.9622520522992, 441.174393229543));
#900 = CARTESIAN_POINT ('', (90., -42.9531404747423, 441.020519615196));
#910 = CARTESIAN_POINT ('', (90., -39.9453937517902, 440.881852064152));
#920 = CARTESIAN_POINT ('', (90., -36.9348888334305, 440.758200489511));
#930 = CARTESIAN_POINT ('', (90., -33.924577550331, 440.634556868123));
#940 = CARTESIAN_POINT ('', (90., -30.9153334156605, 440.526087414668));
#950 = CARTESIAN_POINT ('', (90., -27.9039324030891, 440.432675917781));
#960 = CARTESIAN_POINT ('', (90., -24.8927251337704, 440.33927043067));
#970 = CARTESIAN_POINT ('', (90., -21.8822872370738, 440.261014738675));
#980 = CARTESIAN_POINT ('', (90., -18.8702939072984, 440.197848408967));
#990 = CARTESIAN_POINT ('', (90., -15.858494441596, 440.134686144899));
#1000 = CARTESIAN_POINT ('', (90., -12.8471665367195, 440.086656817741));
#1010 = CARTESIAN_POINT ('', (90., -9.83488470655422, 440.053737691628));
#1020 = CARTESIAN_POINT ('', (90., -6.82279687407617, 440.020820685581));
#1030 = CARTESIAN_POINT ('', (90., -3.81088278827919, 440.00302726675));
#1040 = CARTESIAN_POINT ('', (90., -0.798616283595212, 440.000354326719));
#1050 = CARTESIAN_POINT ('', (90., -0.533929315229001, 440.000119456268));
#1060 = CARTESIAN_POINT ('', (90., -0.269242448053389, 440.00000135125));
#1070 = CARTESIAN_POINT ('', (90., -0.00455537548423266, 440.000000011529));
#1080 = CARTESIAN_POINT ('', (90., 4.52522850337787, 439.999977083899));
#1090 = CARTESIAN_POINT ('', (90., 9.05552344512742, 440.034158183143));
#1100 = CARTESIAN_POINT ('', (90., 13.584791272427, 440.102531703703));
#1110 = CARTESIAN_POINT ('', (90., 18.1134077279235, 440.170895391199));
#1120 = CARTESIAN_POINT ('', (90., 22.6435476514676, 440.273495560817));
#1130 = CARTESIAN_POINT ('', (90., 27.1706156648688, 440.41022813485));
#1140 = CARTESIAN_POINT ('', (90., 31.6970238037662, 440.546940778469));
#1150 = CARTESIAN_POINT ('', (90., 36.2259670356982, 440.717960607844));
#1160 = CARTESIAN_POINT ('', (90., 40.7497950996533, 440.922998737407));
#1170 = CARTESIAN_POINT ('', (90., 45.2729642248614, 441.128007001209));
#1180 = CARTESIAN_POINT ('', (90., 49.7996790327515, 441.367431563067));
#1190 = CARTESIAN_POINT ('', (90., 54.3192374405026, 441.64070637418));
#1200 = CARTESIAN_POINT ('', (90., 58.8381377446318, 441.913941393099));
#1210 = CARTESIAN_POINT ('', (90., 63.361593029459, 442.221740268732));
#1220 = CARTESIAN_POINT ('', (90., 67.8758531975925, 442.563167374606));
#1230 = CARTESIAN_POINT ('', (90., 70.8841290436674, 442.790692346039));
#1240 = CARTESIAN_POINT ('', (90., 73.8947999803977, 443.033634952215));
#1250 = CARTESIAN_POINT ('', (90., 76.9006346967498, 443.291411670861));
#1260 = CARTESIAN_POINT ('', (90., 79.9062750454521, 443.549171720774));
#1270 = CARTESIAN_POINT ('', (90., 82.9146084684269, 443.822412678895));
#1280 = CARTESIAN_POINT ('', (90., 85.9175036975091, 444.110395998263));
#1290 = CARTESIAN_POINT ('', (90., 88.9202046582694, 444.398360686933));
#1300 = CARTESIAN_POINT ('', (90., 91.9258963213194, 444.701877181548));
#1310 = CARTESIAN_POINT ('', (90., 94.9255485027266, 445.020033608876));
#1320 = CARTESIAN_POINT ('', (90., 96.6170390614185, 445.199440606911));
#1330 = CARTESIAN_POINT ('', (90., 98.3095541734702, 445.383811411064));
#1340 = CARTESIAN_POINT ('', (90., 100., 445.572809000084));
#1350 = B_SPLINE_CURVE_WITH_KNOTS ('', 3, (#710, #720, #730, #740, #750, #760, #770, #780, #790, #800, #810, #820, #830, #840, #850, #860, #870, #880, #890, #900, #910, #920, #930, #940, #950, #960, #970, #980, #990, #1000, #1010, #1020, #1030, #1040, #1050, #1060, #1070, #1080, #1090, #1100, #1110, #1120, #1130, #1140, #1150, #1160, #1170, #1180, #1190, #1200, #1210, #1220, #1230, #1240, #1250, #1260, #1270, #1280, #1290, #1300, #1310, #1320, #1330, #1340), .UNSPECIFIED., .F., .U., (4, 3, 3, 3, 3, 3, 3, 3, 3, 3, 3, 3, 3, 3, 3, 3, 3, 3, 3, 3, 3, 4), (0., 9.04262117375355, 18.0846595821723, 27.1261156997795, 36.1669899019755, 45.2072824655657, 54.2469935692146, 63.2861232938292, 72.3246716228697, 81.362638442591, 90.4000235422129, 99.4368266140213, 100.230887831739, 113.820239468499, 127.407636767204, 140.993053539656, 154.576491466454, 168.15795147663, 177.208554805045, 186.258572890204, 195.308005496453, 200.410940399995), .UNSPECIFIED.);
#1360 = EDGE_CURVE ('', #650, #260, #1350, .T.);
#1370 = ORIENTED_EDGE ('', *, *, #1360, .T.);
#1380 = ORIENTED_EDGE ('', *, *, #300, .T.);
#1390 = EDGE_LOOP ('', (#630, #700, #1370, #1380));
#1400 = FACE_OUTER_BOUND ('', #1390, .T.);
#1410 = CARTESIAN_POINT ('', (90., 100., 439.999977083899));
#1420 = CARTESIAN_POINT ('', (90., -100., 439.999977083899));
#1430 = CARTESIAN_POINT ('', (90., 100., 480.));
#1440 = CARTESIAN_POINT ('', (90., -100., 480.));
#1450 = B_SPLINE_SURFACE_WITH_KNOTS ('', 1, 1, ((#1410, #1420), (#1430, #1440)), .UNSPECIFIED., .F., .F., .U., (2, 2), (2, 2), (0.488643371835991, 0.511356615151543), (0., 1.), .UNSPECIFIED.);
#1460 = ADVANCED_FACE ('', (#1400), #1450, .T.);
#1470 = CARTESIAN_POINT ('', (-90., -100., 474.427190999916));
#1480 = VERTEX_POINT ('', #1470);
#1490 = CARTESIAN_POINT ('', (-90., -100., 474.427190999916));
#1500 = CARTESIAN_POINT ('', (90., -100., 474.427190999916));
#1510 = B_SPLINE_CURVE_WITH_KNOTS ('', 1, (#1490, #1500), .UNSPECIFIED., .F., .U., (2, 2), (0., 1.), .UNSPECIFIED.);
#1520 = EDGE_CURVE ('', #1480, #550, #1510, .T.);
#1530 = ORIENTED_EDGE ('', *, *, #1520, .F.);
#1540 = CARTESIAN_POINT ('', (-90., -100., 445.572809000084));
#1550 = VERTEX_POINT ('', #1540);
#1560 = CARTESIAN_POINT ('', (-90., -100., 445.572809000084));
#1570 = CARTESIAN_POINT ('', (-90., -100., 474.427190999916));
#1580 = B_SPLINE_CURVE_WITH_KNOTS ('', 1, (#1560, #1570), .UNSPECIFIED., .F., .U., (2, 2), (0., 1.), .UNSPECIFIED.);
#1590 = EDGE_CURVE ('', #1550, #1480, #1580, .T.);
#1600 = ORIENTED_EDGE ('', *, *, #1590, .F.);
#1610 = CARTESIAN_POINT ('', (-90., -100., 445.572809000084));
#1620 = CARTESIAN_POINT ('', (-30., -100., 445.572809000084));
#1630 = CARTESIAN_POINT ('', (30., -100., 445.572809000084));
#1640 = CARTESIAN_POINT ('', (90., -100., 445.572809000084));
#1650 = B_SPLINE_CURVE_WITH_KNOTS ('', 3, (#1610, #1620, #1630, #1640), .UNSPECIFIED., .F., .U., (4, 4), (0., 180.), .UNSPECIFIED.);
#1660 = EDGE_CURVE ('', #1550, #650, #1650, .T.);
#1670 = ORIENTED_EDGE ('', *, *, #1660, .T.);
#1680 = ORIENTED_EDGE ('', *, *, #690, .T.);
#1690 = EDGE_LOOP ('', (#1530, #1600, #1670, #1680));
#1700 = FACE_OUTER_BOUND ('', #1690, .T.);
#1710 = CARTESIAN_POINT ('', (90., -100., 445.572809000084));
#1720 = CARTESIAN_POINT ('', (-90., -100., 445.572809000084));
#1730 = CARTESIAN_POINT ('', (90., -100., 474.427190999916));
#1740 = CARTESIAN_POINT ('', (-90., -100., 474.427190999916));
#1750 = B_SPLINE_SURFACE_WITH_KNOTS ('', 1, 1, ((#1710, #1720), (#1730, #1740)), .UNSPECIFIED., .F., .F., .U., (2, 2), (2, 2), (0.491807797204808, 0.508192202795192), (0., 1.), .UNSPECIFIED.);
#1760 = ADVANCED_FACE ('', (#1700), #1750, .T.);
#1770 = CARTESIAN_POINT ('', (-90., 100., 474.427190999916));
#1780 = CARTESIAN_POINT ('', (-90., 50.1552810007571, 480.));
#1790 = CARTESIAN_POINT ('', (-90., 5.51091059616309E-14, 480.));
#1800 = CARTESIAN_POINT ('', (-90., -50.1552810007572, 480.));
#1810 = CARTESIAN_POINT ('', (-90., -100., 474.427190999916));
#1820 = (
   BOUNDED_CURVE ()
   B_SPLINE_CURVE (2, (#1770, #1780, #1790, #1800, #1810), .UNSPECIFIED., .F., .U.)
   B_SPLINE_CURVE_WITH_KNOTS ((3, 2, 3), (0.461483381499488, 0.5, 0.538516618500512), .UNSPECIFIED.)
   CURVE ()
   GEOMETRIC_REPRESENTATION_ITEM ()
   RATIONAL_B_SPLINE_CURVE ((0.95835110130091, 0.977437487259151, 1., 0.977437487259151, 0.95835110130091))
   REPRESENTATION_ITEM ('')
);
#1830 = EDGE_CURVE ('', #170, #1480, #1820, .T.);
#1840 = ORIENTED_EDGE ('', *, *, #1830, .F.);
#1850 = ORIENTED_EDGE ('', *, *, #440, .F.);
#1860 = CARTESIAN_POINT ('', (-90., 100., 445.572809000084));
#1870 = CARTESIAN_POINT ('', (-90., 97.0044569423271, 445.23789710476));
#1880 = CARTESIAN_POINT ('', (-90., 94.0120616299179, 444.918541297899));
#1890 = CARTESIAN_POINT ('', (-90., 91.0133064922331, 444.613726908129));
#1900 = CARTESIAN_POINT ('', (-90., 88.0147446138377, 444.308932162581));
#1910 = CARTESIAN_POINT ('', (-90., 85.0190338988909, 444.019616203527));
#1920 = CARTESIAN_POINT ('', (-90., 82.0175625618703, 443.744947332842));
#1930 = CARTESIAN_POINT ('', (-90., 79.0162845141393, 443.470296150333));
#1940 = CARTESIAN_POINT ('', (-90., 76.0175607765196, 443.211054061894));
#1950 = CARTESIAN_POINT ('', (-90., 73.0136761330738, 442.966554080878));
#1960 = CARTESIAN_POINT ('', (-90., 70.0099848220674, 442.722069836078));
#1970 = CARTESIAN_POINT ('', (-90., 67.0085507299685, 442.492932583199));
#1980 = CARTESIAN_POINT ('', (-90., 64.0025558971042, 442.278621821538));
#1990 = CARTESIAN_POINT ('', (-90., 60.9967544529106, 442.064324847416));
#2000 = CARTESIAN_POINT ('', (-90., 57.9929129322065, 441.865320336002));
#2010 = CARTESIAN_POINT ('', (-90., 54.9851112203516, 441.681216079678));
#2020 = CARTESIAN_POINT ('', (-90., 51.9775029664179, 441.497123664703));
#2030 = CARTESIAN_POINT ('', (-90., 48.9715571699907, 441.328276740737));
#2040 = CARTESIAN_POINT ('', (-90., 45.9622520522992, 441.174393229543));
#2050 = CARTESIAN_POINT ('', (-90., 42.9531404747424, 441.020519615196));
#2060 = CARTESIAN_POINT ('', (-90., 39.9453937517903, 440.881852064152));
#2070 = CARTESIAN_POINT ('', (-90., 36.9348888334307, 440.758200489511));
#2080 = CARTESIAN_POINT ('', (-90., 33.9245775503311, 440.634556868123));
#2090 = CARTESIAN_POINT ('', (-90., 30.9153334156605, 440.526087414668));
#2100 = CARTESIAN_POINT ('', (-90., 27.9039324030891, 440.432675917781));
#2110 = CARTESIAN_POINT ('', (-90., 24.8927251337704, 440.33927043067));
#2120 = CARTESIAN_POINT ('', (-90., 21.8822872370739, 440.261014738675));
#2130 = CARTESIAN_POINT ('', (-90., 18.8702939072985, 440.197848408967));
#2140 = CARTESIAN_POINT ('', (-90., 15.8584944415961, 440.134686144899));
#2150 = CARTESIAN_POINT ('', (-90., 12.8471665367196, 440.086656817741));
#2160 = CARTESIAN_POINT ('', (-90., 9.83488470655435, 440.053737691628));
#2170 = CARTESIAN_POINT ('', (-90., 6.82279687407631, 440.020820685581));
#2180 = CARTESIAN_POINT ('', (-90., 3.81088278827932, 440.00302726675));
#2190 = CARTESIAN_POINT ('', (-90., 0.798616283595356, 440.000354326719));
#2200 = CARTESIAN_POINT ('', (-90., 0.533929315229173, 440.000119456268));
#2210 = CARTESIAN_POINT ('', (-90., 0.269242448053546, 440.00000135125));
#2220 = CARTESIAN_POINT ('', (-90., 0.00455537548441834, 440.000000011529));
#2230 = CARTESIAN_POINT ('', (-90., -4.52522850337768, 439.999977083899));
#2240 = CARTESIAN_POINT ('', (-90., -9.05552344512722, 440.034158183143));
#2250 = CARTESIAN_POINT ('', (-90., -13.5847912724268, 440.102531703703));
#2260 = CARTESIAN_POINT ('', (-90., -18.1134077279233, 440.170895391199));
#2270 = CARTESIAN_POINT ('', (-90., -22.6435476514675, 440.273495560817));
#2280 = CARTESIAN_POINT ('', (-90., -27.1706156648687, 440.41022813485));
#2290 = CARTESIAN_POINT ('', (-90., -31.6970238037662, 440.546940778469));
#2300 = CARTESIAN_POINT ('', (-90., -36.2259670356981, 440.717960607844));
#2310 = CARTESIAN_POINT ('', (-90., -40.7497950996532, 440.922998737407));
#2320 = CARTESIAN_POINT ('', (-90., -45.2729642248613, 441.128007001209));
#2330 = CARTESIAN_POINT ('', (-90., -49.7996790327514, 441.367431563067));
#2340 = CARTESIAN_POINT ('', (-90., -54.3192374405025, 441.64070637418));
#2350 = CARTESIAN_POINT ('', (-90., -58.8381377446317, 441.913941393099));
#2360 = CARTESIAN_POINT ('', (-90., -63.3615930294588, 442.221740268732));
#2370 = CARTESIAN_POINT ('', (-90., -67.8758531975923, 442.563167374606));
#2380 = CARTESIAN_POINT ('', (-90., -70.8841290436672, 442.790692346039));
#2390 = CARTESIAN_POINT ('', (-90., -73.8947999803975, 443.033634952215));
#2400 = CARTESIAN_POINT ('', (-90., -76.9006346967496, 443.291411670861));
#2410 = CARTESIAN_POINT ('', (-90., -79.9062750454519, 443.549171720774));
#2420 = CARTESIAN_POINT ('', (-90., -82.9146084684267, 443.822412678895));
#2430 = CARTESIAN_POINT ('', (-90., -85.9175036975089, 444.110395998263));
#2440 = CARTESIAN_POINT ('', (-90., -88.9202046582692, 444.398360686933));
#2450 = CARTESIAN_POINT ('', (-90., -91.9258963213192, 444.701877181548));
#2460 = CARTESIAN_POINT ('', (-90., -94.9255485027264, 445.020033608876));
#2470 = CARTESIAN_POINT ('', (-90., -96.6170390614184, 445.199440606911));
#2480 = CARTESIAN_POINT ('', (-90., -98.3095541734701, 445.383811411064));
#2490 = CARTESIAN_POINT ('', (-90., -100., 445.572809000084));
#2500 = B_SPLINE_CURVE_WITH_KNOTS ('', 3, (#1860, #1870, #1880, #1890, #1900, #1910, #1920, #1930, #1940, #1950, #1960, #1970, #1980, #1990, #2000, #2010, #2020, #2030, #2040, #2050, #2060, #2070, #2080, #2090, #2100, #2110, #2120, #2130, #2140, #2150, #2160, #2170, #2180, #2190, #2200, #2210, #2220, #2230, #2240, #2250, #2260, #2270, #2280, #2290, #2300, #2310, #2320, #2330, #2340, #2350, #2360, #2370, #2380, #2390, #2400, #2410, #2420, #2430, #2440, #2450, #2460, #2470, #2480, #2490), .UNSPECIFIED., .F., .U., (4, 3, 3, 3, 3, 3, 3, 3, 3, 3, 3, 3, 3, 3, 3, 3, 3, 3, 3, 3, 3, 4), (0., 9.04262117375362, 18.0846595821723, 27.1261156997794, 36.1669899019755, 45.2072824655657, 54.2469935692146, 63.2861232938291, 72.3246716228696, 81.3626384425909, 90.4000235422128, 99.4368266140211, 100.230887831739, 113.820239468499, 127.407636767204, 140.993053539656, 154.576491466454, 168.157951476629, 177.208554805045, 186.258572890204, 195.308005496453, 200.410940399995), .UNSPECIFIED.);
#2510 = EDGE_CURVE ('', #330, #1550, #2500, .T.);
#2520 = ORIENTED_EDGE ('', *, *, #2510, .T.);
#2530 = ORIENTED_EDGE ('', *, *, #1590, .T.);
#2540 = EDGE_LOOP ('', (#1840, #1850, #2520, #2530));
#2550 = FACE_OUTER_BOUND ('', #2540, .T.);
#2560 = CARTESIAN_POINT ('', (-90., -100., 439.999977083899));
#2570 = CARTESIAN_POINT ('', (-90., 100., 439.999977083899));
#2580 = CARTESIAN_POINT ('', (-90., -100., 480.));
#2590 = CARTESIAN_POINT ('', (-90., 100., 480.));
#2600 = B_SPLINE_SURFACE_WITH_KNOTS ('', 1, 1, ((#2560, #2570), (#2580, #2590)), .UNSPECIFIED., .F., .F., .U., (2, 2), (2, 2), (0.488643371835991, 0.511356615151543), (0., 1.), .UNSPECIFIED.);
#2610 = ADVANCED_FACE ('', (#2550), #2600, .T.);
#2620 = ORIENTED_EDGE ('', *, *, #1660, .T.);
#2630 = ORIENTED_EDGE ('', *, *, #1360, .T.);
#2640 = ORIENTED_EDGE ('', *, *, #390, .T.);
#2650 = ORIENTED_EDGE ('', *, *, #2510, .T.);
#2660 = EDGE_LOOP ('', (#2620, #2630, #2640, #2650));
#2670 = FACE_OUTER_BOUND ('', #2660, .F.);
#2680 = CARTESIAN_POINT ('', (-90., -99.9999999999997, 445.572809000084));
#2690 = CARTESIAN_POINT ('', (-90., -50.155281000757, 440.));
#2700 = CARTESIAN_POINT ('', (-90., -5.51091059616309E-14, 440.));
#2710 = CARTESIAN_POINT ('', (-90., 50.1552810007571, 440.));
#2720 = CARTESIAN_POINT ('', (-90., 100., 445.572809000084));
#2730 = CARTESIAN_POINT ('', (90., -99.9999999999997, 445.572809000084));
#2740 = CARTESIAN_POINT ('', (90., -50.155281000757, 440.));
#2750 = CARTESIAN_POINT ('', (90., -5.51091059616309E-14, 440.));
#2760 = CARTESIAN_POINT ('', (90., 50.1552810007571, 440.));
#2770 = CARTESIAN_POINT ('', (90., 100., 445.572809000084));
#2780 = (
   BOUNDED_SURFACE ()
   B_SPLINE_SURFACE (1, 2, ((#2680, #2690, #2700, #2710, #2720), (#2730, #2740, #2750, #2760, #2770)), .UNSPECIFIED., .F., .F., .U.)
   B_SPLINE_SURFACE_WITH_KNOTS ((2, 2), (3, 2, 3), (0.00150672036483559, 0.998493279635164), (0.461483381499488, 0.5, 0.538516618500512), .UNSPECIFIED.)
   SURFACE ()
   GEOMETRIC_REPRESENTATION_ITEM ()
   RATIONAL_B_SPLINE_SURFACE (((0.958351101300911, 0.977437487259151, 1., 0.977437487259151, 0.95835110130091), (0.958351101300911, 0.977437487259151, 1., 0.977437487259151, 0.95835110130091)))
   REPRESENTATION_ITEM ('')
);
#2790 = ADVANCED_FACE ('', (#2670), #2780, .F.);
#2800 = ORIENTED_EDGE ('', *, *, #1520, .F.);
#2810 = ORIENTED_EDGE ('', *, *, #1830, .F.);
#2820 = ORIENTED_EDGE ('', *, *, #230, .T.);
#2830 = ORIENTED_EDGE ('', *, *, #620, .T.);
#2840 = EDGE_LOOP ('', (#2800, #2810, #2820, #2830));
#2850 = FACE_OUTER_BOUND ('', #2840, .F.);
#2860 = CARTESIAN_POINT ('', (-90., 100., 474.427190999916));
#2870 = CARTESIAN_POINT ('', (-90., 50.1552810007571, 480.));
#2880 = CARTESIAN_POINT ('', (-90., 5.51091059616309E-14, 480.));
#2890 = CARTESIAN_POINT ('', (-90., -50.1552810007572, 480.));
#2900 = CARTESIAN_POINT ('', (-90., -100., 474.427190999916));
#2910 = CARTESIAN_POINT ('', (90., 100., 474.427190999916));
#2920 = CARTESIAN_POINT ('', (90., 50.1552810007571, 480.));
#2930 = CARTESIAN_POINT ('', (90., 5.51091059616309E-14, 480.));
#2940 = CARTESIAN_POINT ('', (90., -50.1552810007572, 480.));
#2950 = CARTESIAN_POINT ('', (90., -100., 474.427190999916));
#2960 = (
   BOUNDED_SURFACE ()
   B_SPLINE_SURFACE (1, 2, ((#2860, #2870, #2880, #2890, #2900), (#2910, #2920, #2930, #2940, #2950)), .UNSPECIFIED., .F., .F., .U.)
   B_SPLINE_SURFACE_WITH_KNOTS ((2, 2), (3, 2, 3), (0.00150672036483559, 0.998493279635164), (0.461483381499488, 0.5, 0.538516618500512), .UNSPECIFIED.)
   SURFACE ()
   GEOMETRIC_REPRESENTATION_ITEM ()
   RATIONAL_B_SPLINE_SURFACE (((0.95835110130091, 0.977437487259151, 1., 0.977437487259151, 0.95835110130091), (0.95835110130091, 0.977437487259151, 1., 0.977437487259151, 0.95835110130091)))
   REPRESENTATION_ITEM ('')
);
#2970 = ADVANCED_FACE ('', (#2850), #2960, .F.);
#2980 = CLOSED_SHELL ('', (#530, #1460, #1760, #2610, #2790, #2970));
#2990 = MANIFOLD_SOLID_BREP ('', #2980);
#3000 = (
   LENGTH_UNIT ()
   NAMED_UNIT (*)
   SI_UNIT (.MILLI., .METRE.)
);
#3010 = (
   NAMED_UNIT (*)
   SI_UNIT ($, .STERADIAN.)
   SOLID_ANGLE_UNIT ()
);
#3020 = (
   NAMED_UNIT (*)
   SI_UNIT ($, .RADIAN.)
   PLANE_ANGLE_UNIT ()
);
#3030 = UNCERTAINTY_MEASURE_WITH_UNIT (LENGTH_MEASURE(1.E-5), #3000, 'DISTANCE_ACCURACY_VALUE', '');
#3040 = (
   GEOMETRIC_REPRESENTATION_CONTEXT (3)
   GLOBAL_UNCERTAINTY_ASSIGNED_CONTEXT ((#3030))
   GLOBAL_UNIT_ASSIGNED_CONTEXT ((#3000, #3010, #3020))
   REPRESENTATION_CONTEXT ('', '3D')
);
#3050 = ADVANCED_BREP_SHAPE_REPRESENTATION ('', (#2990), #3040);
#3060 = APPLICATION_CONTEXT ('configuration controlled 3D designs of mechanical parts and assemblies');
#3070 = APPLICATION_PROTOCOL_DEFINITION ('International Standard', 'config_control_design', 1997, #3060);
#3080 = MECHANICAL_CONTEXT ('', #3060, 'mechanical');
#3090 = PRODUCT ('product-name', '', '', (#3080));
#3100 = PERSON_AND_ORGANIZATION_ROLE ('design_owner');
#3110 = PERSON ('', '', $, $, $, $);
#3120 = ORGANIZATION ($, '', '');
#3130 = PERSON_AND_ORGANIZATION (#3110, #3120);
#3140 = CC_DESIGN_PERSON_AND_ORGANIZATION_ASSIGNMENT (#3130, #3100, (#3090));
#3150 = PRODUCT_RELATED_PRODUCT_CATEGORY ('detail', $, (#3090));
#3160 = PRODUCT_DEFINITION_FORMATION_WITH_SPECIFIED_SOURCE ('', '', #3090, .NOT_KNOWN.);
#3170 = APPROVAL_STATUS ('approved');
#3180 = APPROVAL (#3170, '');
#3190 = CALENDAR_DATE (2019, 6, 8);
#3200 = COORDINATED_UNIVERSAL_TIME_OFFSET (0, $, .AHEAD.);
#3210 = LOCAL_TIME (10, 6, 20., #3200);
#3220 = DATE_AND_TIME (#3190, #3210);
#3230 = APPROVAL_DATE_TIME (#3220, #3180);
#3240 = APPROVAL_ROLE ('');
#3250 = PERSON ('', '', $, $, $, $);
#3260 = ORGANIZATION ($, '', '');
#3270 = PERSON_AND_ORGANIZATION (#3250, #3260);
#3280 = APPROVAL_PERSON_ORGANIZATION (#3270, #3180, #3240);
#3290 = CC_DESIGN_APPROVAL (#3180, (#3160));
#3300 = PERSON_AND_ORGANIZATION_ROLE ('creator');
#3310 = PERSON ('', '', $, $, $, $);
#3320 = ORGANIZATION ($, '', '');
#3330 = PERSON_AND_ORGANIZATION (#3310, #3320);
#3340 = CC_DESIGN_PERSON_AND_ORGANIZATION_ASSIGNMENT (#3330, #3300, (#3160));
#3350 = PERSON_AND_ORGANIZATION_ROLE ('part_supplier');
#3360 = PERSON ('', '', $, $, $, $);
#3370 = ORGANIZATION ($, '', '');
#3380 = PERSON_AND_ORGANIZATION (#3360, #3370);
#3390 = CC_DESIGN_PERSON_AND_ORGANIZATION_ASSIGNMENT (#3380, #3350, (#3160));
#3400 = SECURITY_CLASSIFICATION_LEVEL ('unclassified');
#3410 = SECURITY_CLASSIFICATION ('', '', #3400);
#3420 = APPROVAL_STATUS ('approved');
#3430 = APPROVAL (#3420, '');
#3440 = CALENDAR_DATE (2019, 6, 8);
#3450 = COORDINATED_UNIVERSAL_TIME_OFFSET (0, $, .AHEAD.);
#3460 = LOCAL_TIME (10, 6, 20., #3450);
#3470 = DATE_AND_TIME (#3440, #3460);
#3480 = APPROVAL_DATE_TIME (#3470, #3430);
#3490 = APPROVAL_ROLE ('');
#3500 = PERSON ('', '', $, $, $, $);
#3510 = ORGANIZATION ($, '', '');
#3520 = PERSON_AND_ORGANIZATION (#3500, #3510);
#3530 = APPROVAL_PERSON_ORGANIZATION (#3520, #3430, #3490);
#3540 = CC_DESIGN_APPROVAL (#3430, (#3410));
#3550 = DATE_TIME_ROLE ('classification_date');
#3560 = CALENDAR_DATE (2019, 6, 8);
#3570 = COORDINATED_UNIVERSAL_TIME_OFFSET (0, $, .AHEAD.);
#3580 = LOCAL_TIME (10, 6, 20., #3570);
#3590 = DATE_AND_TIME (#3560, #3580);
#3600 = CC_DESIGN_DATE_AND_TIME_ASSIGNMENT (#3590, #3550, (#3410));
#3610 = PERSON_AND_ORGANIZATION_ROLE ('classification_officer');
#3620 = PERSON ('', '', $, $, $, $);
#3630 = ORGANIZATION ($, '', '');
#3640 = PERSON_AND_ORGANIZATION (#3620, #3630);
#3650 = CC_DESIGN_PERSON_AND_ORGANIZATION_ASSIGNMENT (#3640, #3610, (#3410));
#3660 = CC_DESIGN_SECURITY_CLASSIFICATION (#3410, (#3160));
#3670 = DESIGN_CONTEXT ('', #3060, 'design');
#3680 = PRODUCT_DEFINITION ('', '', #3160, #3670);
#3690 = APPROVAL_STATUS ('approved');
#3700 = APPROVAL (#3690, '');
#3710 = CALENDAR_DATE (2019, 6, 8);
#3720 = COORDINATED_UNIVERSAL_TIME_OFFSET (0, $, .AHEAD.);
#3730 = LOCAL_TIME (10, 6, 20., #3720);
#3740 = DATE_AND_TIME (#3710, #3730);
#3750 = APPROVAL_DATE_TIME (#3740, #3700);
#3760 = APPROVAL_ROLE ('');
#3770 = PERSON ('', '', $, $, $, $);
#3780 = ORGANIZATION ($, '', '');
#3790 = PERSON_AND_ORGANIZATION (#3770, #3780);
#3800 = APPROVAL_PERSON_ORGANIZATION (#3790, #3700, #3760);
#3810 = CC_DESIGN_APPROVAL (#3700, (#3680));
#3820 = DATE_TIME_ROLE ('creation_date');
#3830 = CALENDAR_DATE (2019, 6, 8);
#3840 = COORDINATED_UNIVERSAL_TIME_OFFSET (0, $, .AHEAD.);
#3850 = LOCAL_TIME (10, 6, 20., #3840);
#3860 = DATE_AND_TIME (#3830, #3850);
#3870 = CC_DESIGN_DATE_AND_TIME_ASSIGNMENT (#3860, #3820, (#3680));
#3880 = PERSON_AND_ORGANIZATION_ROLE ('creator');
#3890 = PERSON ('', '', $, $, $, $);
#3900 = ORGANIZATION ($, '', '');
#3910 = PERSON_AND_ORGANIZATION (#3890, #3900);
#3920 = CC_DESIGN_PERSON_AND_ORGANIZATION_ASSIGNMENT (#3910, #3880, (#3680));
#3930 = PRODUCT_DEFINITION_SHAPE ('', '', #3680);
#3940 = SHAPE_DEFINITION_REPRESENTATION (#3930, #3050);
#3950 = GEOMETRIC_CURVE_SET ('', (#30, #60, #90, #120, #150));
#3960 = (
   LENGTH_UNIT ()
   NAMED_UNIT (*)
   SI_UNIT (.MILLI., .METRE.)
);
#3970 = (
   NAMED_UNIT (*)
   SI_UNIT ($, .STERADIAN.)
   SOLID_ANGLE_UNIT ()
);
#3980 = (
   NAMED_UNIT (*)
   SI_UNIT ($, .RADIAN.)
   PLANE_ANGLE_UNIT ()
);
#3990 = UNCERTAINTY_MEASURE_WITH_UNIT (LENGTH_MEASURE(1.E-5), #3960, 'DISTANCE_ACCURACY_VALUE', '');
#4000 = (
   GEOMETRIC_REPRESENTATION_CONTEXT (3)
   GLOBAL_UNCERTAINTY_ASSIGNED_CONTEXT ((#3990))
   GLOBAL_UNIT_ASSIGNED_CONTEXT ((#3960, #3970, #3980))
   REPRESENTATION_CONTEXT ('', '3D')
);
#4010 = GEOMETRICALLY_BOUNDED_WIREFRAME_SHAPE_REPRESENTATION ('', (#3950), #4000);
#4020 = APPLICATION_CONTEXT ('configuration controlled 3D designs of mechanical parts and assemblies');
#4030 = APPLICATION_PROTOCOL_DEFINITION ('International Standard', 'config_control_design', 1997, #4020);
#4040 = MECHANICAL_CONTEXT ('', #4020, 'mechanical');
#4050 = PRODUCT ('product-name', '', '', (#4040));
#4060 = PERSON_AND_ORGANIZATION_ROLE ('design_owner');
#4070 = PERSON ('', '', $, $, $, $);
#4080 = ORGANIZATION ($, '', '');
#4090 = PERSON_AND_ORGANIZATION (#4070, #4080);
#4100 = CC_DESIGN_PERSON_AND_ORGANIZATION_ASSIGNMENT (#4090, #4060, (#4050));
#4110 = PRODUCT_RELATED_PRODUCT_CATEGORY ('detail', $, (#4050));
#4120 = PRODUCT_DEFINITION_FORMATION_WITH_SPECIFIED_SOURCE ('', '', #4050, .NOT_KNOWN.);
#4130 = APPROVAL_STATUS ('approved');
#4140 = APPROVAL (#4130, '');
#4150 = CALENDAR_DATE (2019, 6, 8);
#4160 = COORDINATED_UNIVERSAL_TIME_OFFSET (0, $, .AHEAD.);
#4170 = LOCAL_TIME (10, 6, 20., #4160);
#4180 = DATE_AND_TIME (#4150, #4170);
#4190 = APPROVAL_DATE_TIME (#4180, #4140);
#4200 = APPROVAL_ROLE ('');
#4210 = PERSON ('', '', $, $, $, $);
#4220 = ORGANIZATION ($, '', '');
#4230 = PERSON_AND_ORGANIZATION (#4210, #4220);
#4240 = APPROVAL_PERSON_ORGANIZATION (#4230, #4140, #4200);
#4250 = CC_DESIGN_APPROVAL (#4140, (#4120));
#4260 = PERSON_AND_ORGANIZATION_ROLE ('creator');
#4270 = PERSON ('', '', $, $, $, $);
#4280 = ORGANIZATION ($, '', '');
#4290 = PERSON_AND_ORGANIZATION (#4270, #4280);
#4300 = CC_DESIGN_PERSON_AND_ORGANIZATION_ASSIGNMENT (#4290, #4260, (#4120));
#4310 = PERSON_AND_ORGANIZATION_ROLE ('part_supplier');
#4320 = PERSON ('', '', $, $, $, $);
#4330 = ORGANIZATION ($, '', '');
#4340 = PERSON_AND_ORGANIZATION (#4320, #4330);
#4350 = CC_DESIGN_PERSON_AND_ORGANIZATION_ASSIGNMENT (#4340, #4310, (#4120));
#4360 = SECURITY_CLASSIFICATION_LEVEL ('unclassified');
#4370 = SECURITY_CLASSIFICATION ('', '', #4360);
#4380 = APPROVAL_STATUS ('approved');
#4390 = APPROVAL (#4380, '');
#4400 = CALENDAR_DATE (2019, 6, 8);
#4410 = COORDINATED_UNIVERSAL_TIME_OFFSET (0, $, .AHEAD.);
#4420 = LOCAL_TIME (10, 6, 20., #4410);
#4430 = DATE_AND_TIME (#4400, #4420);
#4440 = APPROVAL_DATE_TIME (#4430, #4390);
#4450 = APPROVAL_ROLE ('');
#4460 = PERSON ('', '', $, $, $, $);
#4470 = ORGANIZATION ($, '', '');
#4480 = PERSON_AND_ORGANIZATION (#4460, #4470);
#4490 = APPROVAL_PERSON_ORGANIZATION (#4480, #4390, #4450);
#4500 = CC_DESIGN_APPROVAL (#4390, (#4370));
#4510 = DATE_TIME_ROLE ('classification_date');
#4520 = CALENDAR_DATE (2019, 6, 8);
#4530 = COORDINATED_UNIVERSAL_TIME_OFFSET (0, $, .AHEAD.);
#4540 = LOCAL_TIME (10, 6, 20., #4530);
#4550 = DATE_AND_TIME (#4520, #4540);
#4560 = CC_DESIGN_DATE_AND_TIME_ASSIGNMENT (#4550, #4510, (#4370));
#4570 = PERSON_AND_ORGANIZATION_ROLE ('classification_officer');
#4580 = PERSON ('', '', $, $, $, $);
#4590 = ORGANIZATION ($, '', '');
#4600 = PERSON_AND_ORGANIZATION (#4580, #4590);
#4610 = CC_DESIGN_PERSON_AND_ORGANIZATION_ASSIGNMENT (#4600, #4570, (#4370));
#4620 = CC_DESIGN_SECURITY_CLASSIFICATION (#4370, (#4120));
#4630 = DESIGN_CONTEXT ('', #4020, 'design');
#4640 = PRODUCT_DEFINITION ('', '', #4120, #4630);
#4650 = APPROVAL_STATUS ('approved');
#4660 = APPROVAL (#4650, '');
#4670 = CALENDAR_DATE (2019, 6, 8);
#4680 = COORDINATED_UNIVERSAL_TIME_OFFSET (0, $, .AHEAD.);
#4690 = LOCAL_TIME (10, 6, 20., #4680);
#4700 = DATE_AND_TIME (#4670, #4690);
#4710 = APPROVAL_DATE_TIME (#4700, #4660);
#4720 = APPROVAL_ROLE ('');
#4730 = PERSON ('', '', $, $, $, $);
#4740 = ORGANIZATION ($, '', '');
#4750 = PERSON_AND_ORGANIZATION (#4730, #4740);
#4760 = APPROVAL_PERSON_ORGANIZATION (#4750, #4660, #4720);
#4770 = CC_DESIGN_APPROVAL (#4660, (#4640));
#4780 = DATE_TIME_ROLE ('creation_date');
#4790 = CALENDAR_DATE (2019, 6, 8);
#4800 = COORDINATED_UNIVERSAL_TIME_OFFSET (0, $, .AHEAD.);
#4810 = LOCAL_TIME (10, 6, 20., #4800);
#4820 = DATE_AND_TIME (#4790, #4810);
#4830 = CC_DESIGN_DATE_AND_TIME_ASSIGNMENT (#4820, #4780, (#4640));
#4840 = PERSON_AND_ORGANIZATION_ROLE ('creator');
#4850 = PERSON ('', '', $, $, $, $);
#4860 = ORGANIZATION ($, '', '');
#4870 = PERSON_AND_ORGANIZATION (#4850, #4860);
#4880 = CC_DESIGN_PERSON_AND_ORGANIZATION_ASSIGNMENT (#4870, #4840, (#4640));
#4890 = PRODUCT_DEFINITION_SHAPE ('', '', #4640);
#4900 = SHAPE_DEFINITION_REPRESENTATION (#4890, #4010);
ENDSEC;
END-ISO-10303-21;
