// Number of object-id's
6

// List object-id's with types (0=solid, 1=background, 2=sheet, 3=wire, 4=portwire, 5=portelement, 6=coil, 7=lumpedelement, 8=lumpedwire, 9=current path, 10=voltage path):
WPD5:sub
0
air_0:brick
1
WPD5:trace
0
WPD5:ground
0
Folder1:R1
7
Folder1:R2
7

// Number of 0D groups with object-id
0

// 0D Groupd-id, object-id

// Number of 1D groups with object-id
2

// 1D Groupd-id, object-id
1 5
2 6

// Number of 2D groups with object-id
129

// 2D Groupd-id, object-id from, object-id to
4 2 -1 -1 -1 -1 -1
5 2 -1 -1 -1 -1 -1
6 2 -1 -1 -1 -1 -1
7 2 -1 -1 -1 -1 -1
8 2 1 -1 -1 -1 -1
9 1 -1 -1 -1 -1 -1
10 2 -1 -1 -1 -1 -1
11 2 1 -1 -1 -1 -1
12 1 -1 -1 -1 -1 -1
13 2 -1 -1 -1 -1 -1
14 2 1 -1 -1 -1 -1
15 4 2 -1 -1 -1 -1
16 4 2 -1 -1 -1 -1
17 3 2 -1 -1 -1 -1
18 3 -1 -1 -1 -1 -1
19 2 -1 -1 -1 -1 -1
20 3 -1 -1 -1 -1 -1
21 2 -1 -1 -1 -1 -1
22 3 2 -1 -1 -1 -1
23 3 2 -1 -1 -1 -1
24 3 2 -1 -1 -1 -1
25 3 2 -1 -1 -1 -1
26 3 2 -1 -1 -1 -1
27 3 2 -1 -1 -1 -1
28 3 2 -1 -1 -1 -1
29 3 2 -1 -1 -1 -1
30 3 2 -1 -1 -1 -1
31 3 2 -1 -1 -1 -1
32 3 2 -1 -1 -1 -1
33 3 2 -1 -1 -1 -1
34 3 2 -1 -1 -1 -1
35 3 2 -1 -1 -1 -1
36 3 2 -1 -1 -1 -1
37 3 2 -1 -1 -1 -1
38 3 2 -1 -1 -1 -1
39 3 2 -1 -1 -1 -1
40 3 2 -1 -1 -1 -1
41 3 2 -1 -1 -1 -1
42 3 2 -1 -1 -1 -1
43 3 2 -1 -1 -1 -1
44 3 2 -1 -1 -1 -1
45 3 2 -1 -1 -1 -1
46 3 2 -1 -1 -1 -1
47 3 2 -1 -1 -1 -1
48 3 2 -1 -1 -1 -1
49 3 2 -1 -1 -1 -1
50 3 2 -1 -1 -1 -1
51 3 2 -1 -1 -1 -1
52 3 2 -1 -1 -1 -1
53 3 2 -1 -1 -1 -1
54 3 2 -1 -1 -1 -1
55 3 2 -1 -1 -1 -1
56 3 2 -1 -1 -1 -1
57 3 2 -1 -1 -1 -1
58 3 2 -1 -1 -1 -1
59 3 2 -1 -1 -1 -1
60 3 2 -1 -1 -1 -1
61 3 2 -1 -1 -1 -1
62 3 2 -1 -1 -1 -1
63 3 2 -1 -1 -1 -1
64 3 2 -1 -1 -1 -1
65 3 2 -1 -1 -1 -1
66 3 2 -1 -1 -1 -1
67 3 2 -1 -1 -1 -1
68 3 2 -1 -1 -1 -1
69 3 2 -1 -1 -1 -1
70 3 2 -1 -1 -1 -1
71 3 2 -1 -1 -1 -1
72 3 2 -1 -1 -1 -1
73 3 2 -1 -1 -1 -1
74 3 2 -1 -1 -1 -1
75 3 2 -1 -1 -1 -1
76 3 2 -1 -1 -1 -1
77 3 2 -1 -1 -1 -1
78 3 2 -1 -1 -1 -1
79 3 2 -1 -1 -1 -1
80 3 2 -1 -1 -1 -1
81 3 2 -1 -1 -1 -1
82 3 2 -1 -1 -1 -1
83 3 2 -1 -1 -1 -1
84 3 2 -1 -1 -1 -1
85 3 2 -1 -1 -1 -1
86 3 2 -1 -1 -1 -1
87 3 2 -1 -1 -1 -1
88 3 2 -1 -1 -1 -1
89 3 2 -1 -1 -1 -1
90 3 2 -1 -1 -1 -1
91 3 2 -1 -1 -1 -1
92 3 2 -1 -1 -1 -1
93 3 2 -1 -1 -1 -1
94 3 2 -1 -1 -1 -1
95 3 2 -1 -1 -1 -1
96 3 2 -1 -1 -1 -1
97 3 2 -1 -1 -1 -1
98 3 2 -1 -1 -1 -1
99 3 2 -1 -1 -1 -1
100 3 2 -1 -1 -1 -1
101 3 2 -1 -1 -1 -1
102 3 2 -1 -1 -1 -1
103 3 2 -1 -1 -1 -1
104 3 2 -1 -1 -1 -1
105 3 2 -1 -1 -1 -1
106 3 2 -1 -1 -1 -1
107 3 2 -1 -1 -1 -1
108 2 1 -1 -1 -1 -1
109 2 1 -1 -1 -1 -1
110 3 1 -1 -1 -1 -1
111 2 1 -1 -1 -1 -1
112 4 1 -1 -1 -1 -1
113 2 1 -1 -1 -1 -1
114 2 1 -1 -1 -1 -1
115 4 -1 -1 -1 -1 -1
116 2 -1 -1 -1 -1 -1
117 2 -1 -1 -1 -1 -1
118 4 -1 -1 -1 -1 -1
119 2 -1 -1 -1 -1 -1
120 4 -1 -1 -1 -1 -1
121 2 -1 -1 -1 -1 -1
122 1 -1 -1 -1 -1 -1
123 2 -1 -1 -1 -1 -1
124 2 -1 -1 -1 -1 -1
125 2 -1 -1 -1 -1 -1
126 1 -1 -1 -1 -1 -1
127 1 -1 -1 -1 -1 -1
128 2 -1 -1 -1 -1 -1
129 2 -1 -1 -1 -1 -1
130 2 -1 -1 -1 -1 -1
131 3 -1 -1 -1 -1 -1
132 2 -1 -1 -1 -1 -1

// Number of 3D groups with object-id
4

// 3D Groupd-id, object-id
1 1
2 2
3 3
4 4

