refinementinfo

progressstart 0
progressstop 100
progresstext "Mesh refinement"

reftype edgesplit

refine edges
2 3391
2 1821
221 4735
4 221
2701 4736
5 4737
2702 3393
11 222
12 222
12 1822
2703 4740
18 2704
17 4743
19 223
10 229
5 232
20 4747
3397 4747
247 2708
23 4750
27 251
258 4754
278 2712
279 3399
280 4761
33 4763
2722 3408
2724 4787
6 4793
15 3413
299 2729
299 300
300 301
14 3414
303 2731
303 304
304 305
42 3415
2733 3416
3418 4807
3418 4808
45 3420
309 310
50 3425
334 335
67 68
68 69
79 3436
346 347
86 352
354 355
89 4847
380 2748
380 2749
382 383
385 386
124 125
410 411
411 412
415 416
132 462
132 133
142 4876
465 466
468 469
469 470
470 3454
146 2756
147 2756
471 472
474 475
148 477
151 2757
152 2757
479 2758
480 2759
161 481
485 486
487 488
500 2760
500 2761
502 503
505 506
2763 4894
507 4894
512 4896
177 3456
176 3458
524 4901
523 4901
177 3459
526 2764
181 2764
526 3460
180 529
530 531
531 532
534 3464
535 4905
535 536
2766 3465
3467 4911
3467 4912
190 3469
540 541
544 3473
195 3474
200 2770
199 3476
549 3476
557 558
560 2773
204 2773
562 3478
565 566
570 3482
208 3483
210 2778
35 2782
24 1830
219 1203
220 1831
79 4946
5 1820
3 1821
208 1831
10 1842
2716 3492
23 2717
2713 3399
90 4954
287 3492
252 4751
3398 4754
101 4945
219 4947
278 4951
1 3493
3495 1
1 4956
1 3302
2 3496
1080 2
1007 2
2 808
2 3342
2 1805
4959 3
3 6366
3 1498
3 1920
3 4960
3 4961
3 1470
3 3499
3 6831
3 3500
2788 4
4 1524
4 1665
4 1697
4 1690
4 1527
4 1642
4 5285
4 1497
4 1526
4 1710
4 1721
5 2789
6390 5
5 618
5 2790
5 3332
5 3374
3501 6
6 4970
6 3294
7 4972
7 4973
7 4975
3512 9
2812 10
10 3397
4747 10
10 625
10 1530
10 1792
10 2804
11 6377
11 1659
11 2804
11 4989
11 1666
11 1513
11 1528
11 6379
3513 12
3515 12
12 6292
12 4995
12 6294
12 3251
12 1542
12 4993
12 1300
12 1544
13 721
14 3519
14 2810
15 4997
15 4727
17 3527
5007 19
19 4697
19 5008
21 1819
3535 21
22 3538
23 1756
5021 24
24 5022
6393 24
24 1761
24 3319
26 5024
26 5025
29 5026
29 5029
32 5030
32 1925
32 3389
32 5031
32 5347
33 1791
6621 35
3552 35
35 3553
35 3555
37 1212
448 38
38 3859
38 449
453 38
38 3564
39 746
3566 39
39 3567
39 3568
39 3569
40 423
424 40
40 1453
41 672
3574 42
42 5042
42 3575
3576 43
43 3578
44 3580
45 3469
45 1563
45 5047
45 1937
46 2859
46 1312
46 1303
3583 54
3476 54
54 1945
54 2869
57 5058
57 1416
57 1669
58 423
58 1452
58 1461
5062 59
5063 59
3479 59
59 6350
59 3589
60 5066
60 3590
60 3591
67 5147
68 3595
3596 68
132 68
68 5072
68 5073
68 5149
68 6848
68 5074
68 5765
69 5082
69 3597
69 5083
78 3609
3611 79
3612 79
79 4876
79 3613
79 5088
79 3618
79 3614
80 3621
80 2878
80 3619
80 3622
82 1551
82 1308
82 1310
84 3576
84 3362
3559 85
3560 85
2756 85
85 2883
85 2881
477 86
89 3630
89 3632
90 5105
90 6551
90 5107
90 5108
90 3636
90 3633
90 2892
90 5109
90 6557
98 2901
5118 99
99 101
417 99
99 1362
99 1939
99 1373
100 1362
100 1336
433 101
101 3598
101 5119
101 1361
101 1362
101 5120
101 3599
102 433
435 102
102 1352
102 1355
102 1361
102 1364
437 103
103 1377
103 1391
104 441
104 1414
109 443
109 1688
5124 116
116 3639
117 3640
118 1384
120 1376
121 1955
121 3643
125 5098
184 125
125 3313
125 1794
125 1334
125 5141
125 1940
126 1370
127 993
128 591
129 583
5145 129
129 770
129 993
130 770
3645 131
3690 131
131 1223
131 1213
5148 132
5150 132
132 3648
132 5152
133 3648
133 4104
133 1938
134 3651
134 3652
141 5157
142 2905
3657 144
144 3732
145 3662
145 3663
145 1222
146 2745
147 3669
147 2850
3562 147
147 6550
148 3673
148 3675
149 3677
150 2920
150 3303
151 5106
6552 151
151 3681
151 3684
151 3630
3685 152
152 3686
152 3367
153 5185
153 2924
153 3338
2924 154
4181 160
160 3689
160 5195
160 4185
160 1939
4181 161
162 3645
3690 162
743 162
779 162
162 1221
162 1355
163 781
163 3691
163 3692
597 166
166 600
166 4216
167 749
774 167
167 870
612 168
168 6098
168 1205
744 169
1010 170
170 3698
740 171
171 1050
172 740
1050 172
172 3700
173 1032
173 1048
173 3700
173 3701
174 776
1041 174
174 1218
174 4268
175 3702
4299 175
175 4301
5218 176
176 3705
176 6209
177 3440
3443 177
3706 177
177 3707
177 6223
177 4051
177 5222
1046 178
179 991
180 409
180 3709
181 3711
181 2930
4660 181
181 3157
181 3712
181 1955
184 3716
2923 184
184 1214
185 3716
3678 185
185 5231
185 3718
185 3194
3670 186
5235 187
3725 187
5236 187
187 2936
189 3728
3656 190
190 3731
190 1937
3733 191
191 2903
191 3730
191 1231
191 1207
195 3425
195 3735
3736 195
2943 195
195 3737
195 6259
195 3908
199 3739
3735 199
3740 199
199 3741
199 1215
200 2737
6042 200
200 3744
200 3746
200 5057
201 693
201 4374
663 202
681 202
202 3750
202 3751
675 203
203 676
3754 204
3755 204
204 6178
204 4506
205 3758
205 3759
602 206
206 757
4457 207
207 1216
3762 208
2837 208
208 6396
208 3372
1202 213
216 1182
219 2845
4531 219
219 5270
219 1783
219 5264
219 1603
219 5266
219 5273
219 1761
219 5268
219 1408
219 6374
219 1534
220 6395
220 4532
220 3767
220 1773
220 1807
220 3325
220 1798
220 5280
221 1839
3497 221
1838 221
221 1782
221 1497
221 5284
221 1498
221 3500
221 3499
221 6382
221 6831
221 4966
222 3513
222 1845
3515 222
222 1844
222 1659
222 1789
222 4987
222 1542
222 4991
222 1764
222 1530
222 1531
222 1544
222 4988
223 3769
223 5008
223 5009
223 6877
223 5293
820 224
3397 229
229 238
229 239
230 236
238 230
230 237
236 231
231 234
231 235
232 234
233 232
232 5296
233 3771
233 3772
233 1771
234 3775
234 1771
234 1738
235 3777
3779 235
235 3775
235 3778
3779 236
236 5305
236 5306
236 1745
237 3785
237 3788
237 1745
237 5316
237 5313
237 1739
238 3788
238 5316
239 5321
239 5322
241 809
2947 242
243 1819
1827 244
244 2948
248 3796
248 1746
248 5325
248 4708
248 6887
249 3800
249 3799
249 5330
249 3801
249 4721
249 6887
250 5334
250 5339
250 5335
250 5025
250 3800
250 4721
250 1733
1172 272
5341 274
274 5345
274 5346
278 1134
284 1925
284 3817
284 4709
284 5347
284 3816
284 5348
284 1749
285 3817
285 1742
285 5357
285 5361
285 3823
285 3822
285 5358
285 1749
286 5361
286 5362
286 5360
286 3826
291 3844
291 3847
2993 292
292 3851
293 3853
293 5379
293 3856
293 3855
293 5380
294 3858
295 5386
295 3862
295 3861
295 4545
296 3863
296 3864
296 3006
296 3865
4592 297
3009 297
297 4593
5394 298
5395 298
298 5396
298 6370
299 5399
299 5400
5399 300
300 428
300 5404
300 1453
300 1695
428 301
301 424
301 1453
301 1695
302 3871
302 5407
302 3872
302 4493
303 3873
303 5413
303 6676
304 5408
3873 304
305 672
305 3881
306 3840
3887 308
308 3200
309 3893
310 540
310 3898
310 3897
310 3896
310 5440
311 3900
311 3901
5552 312
312 3903
312 3904
312 3902
312 5554
313 5556
313 3905
313 3906
313 4351
316 3917
3918 316
316 3043
316 3044
317 3230
317 3051
317 3052
3925 318
318 3926
318 3057
318 3053
423 323
323 1452
323 1439
5472 324
324 1439
325 5474
325 5477
5479 326
326 558
326 5481
5479 327
327 5486
327 681
327 5488
329 3869
329 2773
329 5491
329 4408
329 4620
329 3929
3930 330
330 3868
331 3931
3932 331
3936 332
332 3938
332 3937
332 4417
422 333
333 1395
334 5464
334 422
334 1672
334 1399
334 1395
5464 335
335 425
335 1672
335 1399
335 1405
335 1947
346 3974
346 3976
346 6781
347 470
347 3981
347 5542
347 5539
347 3974
347 3977
347 3979
348 469
348 4136
348 3981
348 3985
348 3984
348 3982
348 3897
349 3988
349 3900
465 350
350 3990
350 5554
350 3903
351 3903
351 3660
351 4115
351 5556
352 3998
352 4177
352 3999
352 4000
353 5747
353 4002
353 4165
353 4003
353 3998
353 4000
353 4172
354 5564
474 354
354 4003
354 4165
354 4006
354 4014
354 4007
354 4160
354 4008
354 4005
5565 355
355 4160
355 5568
355 4014
356 4094
356 4018
357 4022
472 358
358 4023
5583 359
359 3084
360 3091
360 5588
360 4182
361 4181
361 1939
361 5593
361 5595
361 3091
361 4188
365 5600
365 486
366 5605
366 5604
366 5606
367 5610
367 488
367 5612
368 437
368 5616
368 1377
368 4210
368 1391
368 5617
377 1536
5644 380
380 5645
380 5647
381 5651
446 382
382 5653
382 5654
382 5655
383 443
446 383
383 1688
383 5658
383 5655
383 5654
385 506
5661 386
399 4303
399 4053
399 4050
399 4051
400 4055
400 4056
400 4054
401 1046
401 1043
401 1384
401 4058
402 4059
402 4061
402 4058
402 1043
403 4901
403 4069
403 4063
404 4068
404 4070
404 4067
404 4316
406 5731
406 3460
406 4319
406 4072
406 4542
407 4076
408 4078
408 4080
409 5741
5740 409
409 4081
409 4078
3626 410
410 531
410 4082
410 4084
410 4083
411 532
411 4085
411 5972
411 4082
412 3174
412 3175
412 4087
412 4088
412 4086
412 4008
4009 414
414 5752
414 4092
415 4019
4015 415
415 5574
415 3186
415 4097
415 4096
4019 416
416 535
416 3186
416 4098
416 4096
416 4023
3431 425
449 4855
583 461
461 3644
461 770
462 5766
462 3690
5150 462
462 1223
462 5769
462 4105
463 4108
463 3106
464 4111
4112 464
464 3112
464 4113
4115 465
3660 465
465 4118
465 3664
466 4115
4119 466
466 4118
467 4127
467 4130
4136 468
4131 468
468 5548
469 4136
5789 469
469 4139
469 4138
469 5790
469 4141
469 3981
539 470
470 5999
470 5539
470 5793
470 5800
471 4152
471 4147
472 4151
472 4152
4154 473
5810 473
473 4158
474 4160
474 3181
474 4164
474 4159
4165 475
475 4160
4166 475
475 4169
475 4170
475 3181
476 4165
4177 476
476 4172
4173 476
476 4169
476 3173
476 5975
476 3999
477 4177
477 3674
477 4180
477 3173
478 4181
4182 478
4183 478
478 4187
478 4186
478 4185
478 4188
479 2747
4182 479
479 4189
479 3121
479 4190
479 4192
2746 480
480 4193
4651 480
5826 480
480 3126
480 4525
480 5830
480 5831
779 481
481 1221
481 6264
481 998
481 3689
481 6263
481 1355
484 4198
485 4196
485 5837
485 4197
485 4199
485 4198
485 5838
4201 486
5840 486
486 4204
4196 486
486 4197
486 4206
4208 487
487 751
487 5845
487 5848
488 4208
4210 488
751 488
488 4212
488 5848
593 489
489 926
595 490
490 597
490 4216
491 595
491 4221
491 4222
492 4220
492 4226
492 4225
492 5630
493 5859
493 4231
493 5638
494 4229
749 495
495 870
772 496
496 1205
496 6098
497 772
774 497
497 869
498 774
498 869
499 868
500 4239
500 4240
500 3136
4243 501
501 3138
501 4244
502 4246
503 3144
4249 504
504 3698
504 4250
504 4256
504 4251
4253 505
505 4255
505 4256
4253 506
506 4259
506 4260
507 4263
509 1048
509 3700
510 1041
510 4267
510 4268
512 5684
5919 513
513 4283
514 4286
514 4279
514 4287
515 4290
1032 515
515 4291
515 5699
517 4297
517 4298
518 4299
518 4301
518 4297
519 5936
4303 519
519 3152
519 4304
4307 520
520 3151
1043 521
521 1046
521 4312
522 1043
522 4312
523 4313
523 4314
6812 524
524 5953
524 4316
524 4317
524 4314
525 1030
525 991
2752 526
4659 526
4318 526
526 4319
526 4320
4321 527
527 4322
527 6702
528 3113
528 4325
529 4329
529 4330
3672 530
4178 530
4179 530
3171 530
530 4332
530 4333
4179 531
3174 531
531 5972
4174 532
3174 532
532 3175
532 3177
532 4335
533 4162
4167 533
4163 534
4337 534
535 4149
535 4150
535 4156
3186 535
535 5986
535 3189
536 4149
536 3186
536 4338
536 5990
536 5985
537 3195
537 2991
537 2995
537 4503
3200 539
539 4139
4143 539
3205 540
4344 540
540 3207
541 3205
541 4126
4132 541
4133 541
541 4345
541 4346
541 3207
542 4121
4348 543
543 4116
543 4349
3424 544
544 4351
544 3661
544 4117
544 4353
545 4355
545 4358
4361 546
3102 546
546 6019
546 4362
546 3225
546 6227
546 4363
547 4364
547 4365
548 6029
548 4367
548 4368
4370 549
769 549
549 4371
4373 550
550 4374
551 4377
551 4378
552 6043
552 4377
554 676
554 4385
554 4387
554 4386
4385 555
555 4398
555 4391
555 4386
4392 556
4394 556
556 4397
556 4398
558 681
558 4406
558 3750
558 4407
4408 560
560 4497
560 5491
4411 561
561 6159
561 6109
561 4413
562 3429
562 4415
563 4417
563 764
563 4418
564 602
606 564
757 564
4420 564
564 4421
565 606
565 4423
4420 565
565 4421
566 606
566 4425
566 4426
4427 566
4423 566
566 4429
591 568
568 4431
4432 568
568 6081
4433 569
569 4436
569 4437
569 3943
4438 570
4439 570
4440 570
570 4443
570 4445
570 3952
4446 571
571 4448
571 4451
571 4450
571 6213
573 4457
573 6099
575 1819
578 845
578 869
583 993
583 997
4160 587
591 6254
592 927
592 6175
593 926
593 906
4888 594
595 1521
4439 596
597 871
598 632
633 598
4446 598
4938 598
598 905
619 600
600 843
649 601
601 875
629 602
602 1501
603 894
604 3477
605 625
605 3754
606 629
606 626
606 1501
608 1816
608 2801
609 844
609 843
613 844
613 1523
617 844
617 869
617 870
617 1451
617 1523
634 906
637 869
4182 640
4882 641
4465 660
3198 660
660 4663
660 1287
663 936
671 877
675 887
675 893
4928 678
678 4824
678 1290
685 943
3200 687
688 1271
3229 689
6604 689
689 3051
4361 692
692 3225
702 697
702 880
706 731
749 870
749 3695
750 926
3459 753
762 4927
764 3479
3476 769
770 993
772 869
774 869
858 800
2947 810
845 812
815 843
820 6109
4744 821
821 6145
821 2810
821 3871
822 6146
5295 822
837 894
838 875
874 840
841 872
841 906
872 842
842 871
871 843
843 870
844 869
870 844
869 845
6143 847
896 847
848 3569
848 5391
856 858
856 880
857 3196
862 858
890 868
895 868
870 869
869 6098
871 870
872 871
934 871
871 4220
906 873
894 875
877 876
876 3752
876 4506
877 887
880 4503
880 3196
886 942
903 887
887 892
904 887
887 4398
890 915
946 890
894 4421
895 1218
932 897
897 948
952 899
900 6124
900 3196
903 916
906 926
906 5863
3274 911
911 4172
912 952
912 4115
912 3664
3275 914
914 3271
914 966
915 4271
936 916
916 930
3277 917
917 967
919 1048
919 1050
938 923
958 923
926 925
926 927
6207 928
928 4455
928 6088
929 1216
929 4421
935 933
958 933
936 949
936 3751
952 939
939 3281
967 939
939 4136
940 966
3280 942
961 943
944 4516
945 959
945 972
947 3279
948 1066
948 1048
950 4439
951 958
3277 952
952 4505
952 4347
952 3216
953 4361
953 6221
957 972
957 3707
957 4316
958 1093
958 4283
958 5919
977 960
960 982
960 4436
3280 962
4516 962
963 978
963 985
6258 963
963 3103
963 4363
963 4355
963 4356
966 3276
974 966
966 3186
966 4660
969 4198
973 970
976 970
971 3751
973 991
6237 974
974 1224
984 975
992 976
976 983
982 977
6254 977
977 993
977 4434
977 4436
977 4937
978 6237
978 4472
978 3225
978 4360
6256 983
992 983
983 990
987 984
984 5950
986 3281
987 989
987 4314
987 5844
987 4885
987 4208
991 988
988 1030
991 989
6241 990
991 1030
991 1068
991 3710
993 995
6255 993
993 1213
993 4431
6246 995
6256 995
995 1213
1007 1818
1010 1480
1016 3319
2993 1017
6266 1017
3854 1017
1017 6769
1017 1576
2988 1018
2993 1018
1018 2982
1021 3171
1022 3174
1024 3183
4903 1029
1029 4869
1066 1032
4897 1033
1036 3152
4901 1038
1038 4529
1038 1403
1043 1059
1043 1455
5914 1045
1059 1046
1052 6184
1117 1920
1123 1192
1125 1920
4761 1131
1132 5273
1133 4951
1146 1196
1153 1193
1156 6294
1156 6292
1157 6292
1157 1804
1157 4994
4757 1172
2845 1203
1203 1834
1832 1203
4531 1203
1203 4532
1203 1734
1203 1534
1203 1797
1203 1811
1203 2846
1203 1752
1203 1594
1208 6551
1208 2906
1208 4642
1212 4784
1216 6186
1239 1408
1241 1594
1253 6292
1256 5284
1259 1544
1262 5273
1262 1408
1262 1603
1274 1588
1277 1296
1283 3200
1287 1535
1288 3325
1289 1542
1296 1372
1308 3437
1341 5121
1341 5120
1371 1535
1372 2732
1372 6124
1372 4804
1394 3174
1401 5265
1406 3183
1408 1623
1408 5271
1408 5265
1419 3186
1429 4824
1470 3342
1470 6352
1470 3500
1476 3500
1486 4855
1488 3563
1490 1524
1490 3563
1498 4735
1507 2804
1513 3364
1524 1665
1524 1820
1524 4966
1524 5286
1525 1526
1526 1624
1526 1747
1526 4965
1526 1820
1527 1747
1527 1642
1527 1820
1528 1642
1530 1823
1532 1542
1534 1535
1534 1576
1535 1567
1537 3499
1539 3499
1540 3767
1542 6291
1542 3251
1542 1544
1542 1618
1542 1644
1543 1544
1544 1644
1544 1546
1545 5284
1546 6376
1562 1954
1567 6375
1567 1594
1567 4543
1576 6373
1582 5277
1582 6375
1593 4965
1594 5276
1594 4944
1594 1622
1594 1914
1594 4543
1595 1945
1597 3499
1597 4965
1597 5286
1597 5285
1597 4967
1597 5284
1598 1666
1603 5264
1603 5265
1603 4543
1614 4987
1625 5286
1625 5283
1634 3950
1642 4967
1643 5286
1643 5283
1644 6292
1644 1659
1658 4851
1659 2803
1659 2804
1665 1820
1665 4966
1665 1710
1666 4990
1666 6377
1667 4825
1697 1820
1700 4856
1741 1820
1747 1820
1747 4746
1761 1830
1761 4947
1773 5276
1791 1831
1798 1831
1805 1821
1807 4944
1807 1831
2798 1816
1818 3391
1819 1827
1819 2791
2788 1820
1820 2789
1820 5282
1820 2790
1820 3288
1820 3249
3496 1821
1821 3497
1821 4735
1821 4557
1821 1920
1821 3500
1821 3282
1821 3537
3513 1822
1822 3515
1822 4991
1822 3251
1823 2803
2812 1823
1823 6391
1823 2804
1823 4988
1824 4747
1826 4749
1826 3538
1827 4950
2837 1828
1828 5032
4750 1829
1829 2820
1830 6373
1830 6374
1830 3792
1830 5274
1831 2840
1831 3372
1920 4759
1920 6352
1922 3872
1926 4776
1926 2721
1930 4746
1935 6451
1936 4798
1936 2728
1936 3413
1947 3431
1955 2752
2709 3796
4567 2715
2817 2717
3408 2719
6428 2721
2721 4582
2721 6431
2721 6433
2721 4570
2722 2993
2722 6670
2722 6438
2722 4586
2722 2982
2723 6316
4587 2724
4033 2724
2724 6444
2724 6445
4588 2725
4032 2725
2725 6448
2725 4545
2726 4591
2726 3294
2726 4561
4592 2727
2727 3863
2727 3006
2727 6166
2729 6351
2729 6371
2729 6461
3521 2730
4597 2730
2730 2810
2730 4494
4467 2731
3871 2731
2731 6464
2731 4493
2731 4599
6468 2732
2732 6339
2733 4466
2733 4600
4569 2734
2734 6649
2734 4547
2734 4602
4100 2737
2737 6885
2738 4613
4614 2738
2738 3051
2738 3044
2738 3042
2738 4551
2739 4616
4617 2739
2739 3053
2739 3049
5063 2740
2740 4619
2740 3929
2740 4460
2740 4408
2740 3754
2740 6401
2741 4620
6492 2742
2742 4462
2742 6493
2742 4621
3560 2745
3576 2745
2745 6879
2745 4539
2746 4651
2746 6507
2746 3084
2746 6336
2747 6511
2747 4650
2747 6510
2747 6345
5764 2748
2748 5647
2748 6398
2748 6357
2748 6359
2748 5645
2748 6356
2749 6354
2749 6353
2749 5651
2751 4894
2752 6527
2752 4549
2752 4072
2752 3643
2752 4542
2752 4540
4629 2753
4631 2753
2753 4633
2753 6320
2753 4634
2753 4110
4635 2754
2754 4521
2754 3112
2754 4527
2754 4636
2755 6542
6541 2755
2755 4535
2755 3614
2755 5088
2756 3669
2850 2756
2756 3668
2756 4534
2756 6550
2756 6387
6551 2757
2757 6552
2757 3686
6553 2757
2757 6554
2757 6555
2757 3681
2757 4644
2757 6557
2758 3121
2758 4525
2759 4651
2759 3127
2759 3126
4479 2760
2760 3136
2760 4241
2760 4653
2760 3569
2760 4508
2760 5648
2761 3138
2761 4240
2761 4244
2761 4507
2762 4528
2762 4490
2763 4656
4655 2763
6572 2763
2763 4657
2763 3302
4659 2764
2764 4660
2764 3157
2995 2765
2765 4661
4465 2766
2766 3198
2766 6580
2766 6736
2766 4504
2766 4663
6649 2767
2767 6583
2767 4665
2767 6586
2768 4667
2768 4358
2768 4520
2768 4355
2769 4472
2769 6594
2769 4524
2769 4362
3744 2770
4480 2770
2770 4365
4470 2771
2771 4518
6604 2772
2772 6225
2773 3754
4408 2773
2773 4460
2773 4506
2773 4497
4673 2775
2775 4674
2775 4675
4793 2792
2801 4932
2810 3414
2825 4577
4759 2829
2837 2933
2845 4947
6393 2845
2849 3553
2856 3418
2856 4664
2856 4807
2857 3418
2857 4807
2869 6853
2869 3427
2871 4831
2871 3428
2874 3449
2878 3618
2878 4839
2888 3618
2888 4954
2889 5109
2890 3486
2892 4847
2893 5109
2901 3439
2905 4876
2906 4946
4876 2909
2920 5174
2921 4642
4776 2934
2936 3297
2943 3474
2943 4917
2944 3480
2947 6163
2947 3294
2947 4792
2947 5389
2947 3006
2975 4912
2982 3408
2983 2993
2986 3854
2987 4913
3468 2987
4914 2987
2993 2988
2989 5376
2989 4775
2989 3406
2991 4910
3850 2993
2993 4779
3408 2993
4907 2995
3002 4792
3002 4787
3006 4795
4794 3007
3007 4789
3009 4797
3010 4800
3010 4798
3011 4800
3015 4412
3023 3197
3025 3197
3027 3198
3042 4819
3044 4819
3051 4818
3053 4820
3057 4820
3091 4850
3097 4872
3102 4920
3103 4873
3104 4875
3105 4873
3106 4875
3106 4363
3112 4874
3113 4903
3118 4883
3127 3455
3139 4890
4894 3148
3148 3282
3151 4899
3151 3457
3152 4899
3152 3457
3156 4319
3158 4319
3177 3266
3177 3463
3183 4905
3183 4871
3184 3274
3184 5981
3185 3274
3185 4904
3189 3276
3189 4905
6124 3195
3195 4907
4914 3197
3197 3468
3197 4477
3197 3419
3197 4810
4465 3198
3465 3198
3198 4909
3198 4663
3198 3256
3198 6733
3198 4466
3470 3200
3200 3421
3205 3277
3471 3210
3210 3422
4348 3215
3216 4916
3216 6008
3217 4347
3219 4118
4919 3222
3223 4667
3225 4920
3225 4360
3226 4921
3226 4817
3229 4922
3229 4818
4925 3230
3230 4821
3233 4924
3233 4820
3234 4924
4933 3241
3241 4829
3242 4933
3246 3478
4502 3256
3256 4504
3256 4909
3265 3266
3265 3269
3266 6206
3276 4337
3278 4520
3279 6243
3280 6225
3280 4470
3281 4513
4523 3281
3281 5246
3282 6352
3294 4736
3294 4793
3295 4932
3299 4759
3302 4893
3303 4882
3306 4828
3320 3462
3325 6872
3337 3414
3339 4777
3349 4463
3349 6872
3359 4759
3366 3420
3372 6872
3397 3791
3397 5322
3405 3842
3406 6651
3407 4576
6620 3407
3407 6621
3407 4582
3407 3557
3407 6631
3408 6765
3409 4586
3409 6739
3852 3410
3410 6170
3859 3411
3411 3564
3411 3862
3866 3412
3413 4727
3414 3520
3521 3414
3415 4807
6773 3416
3416 3885
3416 4600
3417 6677
3417 6680
3572 3418
3418 4547
3418 3575
3418 4601
3419 4602
3887 3421
3421 6335
3422 3898
3422 3896
3422 3901
3422 3900
3423 3902
3424 5093
3424 3580
3424 3905
3427 6853
3428 3935
3429 6685
3429 3938
3936 3430
3430 5758
3430 4417
3430 3937
3430 6350
3612 3436
3436 3609
3436 3614
3436 3613
3437 6334
5763 3440
3440 4050
3441 4028
3441 4054
3441 4055
3441 4053
3441 6348
3442 4056
3443 4068
3443 4067
3443 4070
3444 4319
3444 6349
6693 3445
3445 4076
3445 4080
3626 3446
3446 4084
3447 4004
3447 4087
3447 4007
5566 3448
3448 4337
3448 6803
3449 3651
4629 3449
3449 3652
4112 3450
6660 3450
3450 4113
5157 3451
3451 4637
6542 3451
3451 4535
3453 3660
3453 4352
3453 3663
3454 3659
3454 6245
3455 3687
3456 3707
4303 3456
3456 3708
3456 4304
3456 4051
4307 3457
3458 6845
3459 6812
3707 3459
3459 4316
3459 4317
3459 4067
3460 4319
3460 4320
3460 6243
4321 3461
3461 4325
3461 6705
3672 3462
3462 4333
4167 3463
3464 4162
4163 3464
3464 4337
6580 3465
4465 3466
3466 4503
3466 4504
3466 4663
3467 3723
3467 3724
6652 3467
3467 6653
3467 6665
3468 4474
3468 6136
3469 4143
3469 6808
3470 4344
3470 4139
3470 5790
3471 4126
3471 4346
3472 4121
3472 4349
5241 3473
3473 3661
3665 3473
3473 6720
3473 3728
3474 3735
3474 6122
3474 6259
3474 6260
3474 3908
3739 3476
3476 3741
3476 4371
3476 6853
3758 3477
3759 3477
3477 4416
3478 4415
3478 4419
3754 3479
3479 4417
3479 3756
3479 4418
3479 6178
3479 6179
3479 4725
3480 4425
3480 4427
3480 3760
3481 4433
4439 3481
3481 4436
3481 4443
3481 4445
3481 4437
3482 4438
4446 3482
4448 3482
3482 4450
3482 6213
3482 3950
3723 3483
3486 6829
3486 3634
4893 3495
3500 6352
3507 4786
4932 3512
3526 4828
4743 3527
3537 6366
3544 4759
3545 4759
3557 4778
3563 4855
3564 4791
4889 3565
3568 4796
3569 4889
3569 4796
4807 3572
4808 3572
3575 4807
3578 4804
3591 4831
3598 4945
3598 5120
3598 5119
3614 5088
3615 4946
3618 4732
3618 5091
3618 5088
3618 4946
3630 4847
3634 4954
3635 4848
3636 5109
3647 5121
3677 4879
6551 3686
3686 4848
4898 3704
3705 4898
4316 3707
4303 3707
3707 4304
4906 3715
3718 4906
4940 3723
3723 4911
4664 3723
3724 4911
3735 6246
3746 4927
4417 3754
3754 4496
4935 3758
3759 4935
3772 4746
3792 4947
3808 4759
3830 4809
3834 4806
3837 3850
3838 3850
3840 4806
4803 3840
3844 4781
4775 3844
3847 4781
3851 4779
3851 4783
4782 3852
3853 4785
4782 3853
3854 6769
3854 4501
3855 4782
3855 6769
3855 4501
3858 4787
3859 4790
4791 3859
3861 4790
3862 4790
3863 4795
3864 4792
3865 4795
4797 3866
3868 4829
4801 3871
3871 6146
3872 4800
3885 4805
3886 4810
3888 4811
3898 4841
3903 4812
3904 4812
3906 4812
3908 4471
3916 4918
3918 4819
4820 3926
4826 3930
4830 3932
3938 4832
3988 4842
4013 4843
4022 4844
4025 4867
4028 4865
4789 4032
4787 4033
4050 4865
4053 4865
4069 4867
4076 4868
4078 4869
4081 4869
4092 4871
4108 4873
4874 4111
4116 4916
4916 4117
4128 4878
4878 4131
4134 4511
4136 4513
4136 4511
4915 4143
4880 4148
4151 4880
4881 4154
4156 4905
4157 4880
4159 4881
4162 4904
4883 4182
4182 4850
4183 4883
4186 4883
4188 4850
4190 4883
4885 4201
4201 6236
4208 4431
4219 4886
4220 4886
4222 4886
4225 4887
4226 4886
4229 4888
4231 4888
4232 4888
4246 4890
4263 4891
4276 4895
4279 4897
4288 4897
4298 4898
4303 4529
4313 4900
4314 5954
4314 4901
4314 5950
4317 5954
4319 6701
4319 5956
4902 4322
4329 4903
4330 4903
4340 4914
4350 5241
4355 4919
4355 6588
4355 6258
4356 4917
4358 4919
4920 4361
4918 4361
4362 4920
4363 4918
4364 4923
4365 4921
4367 4922
4368 4922
4924 4370
4377 4926
4378 4926
4383 4927
4384 4927
4389 4928
4929 4392
4394 4929
4396 4929
4398 4928
4408 6105
4410 6106
4410 6144
4410 6159
4933 4411
4413 4933
4416 4934
4419 4936
4439 6207
4449 4450
4455 4939
4923 4470
4475 6733
4477 4664
4481 5992
4482 6137
4490 4891
4493 4801
4494 4800
4502 4501
4503 4910
4503 4504
4516 6022
4518 4923
4520 4918
4525 4884
4528 4891
4531 4947
4545 4789
4547 4808
4762 4567
4809 4569
4569 4808
4777 4576
4582 4777
4584 4777
4585 4914
4586 4780
4786 4587
4591 4793
4794 4592
4593 4794
4800 4597
4599 4801
4601 4808
4602 4809
4819 4613
4818 4614
4821 4616
4820 4617
4620 4827
4873 4631
4635 4875
4638 4876
4640 4876
4645 6557
4645 4954
4650 4849
4893 4655
4894 4656
4667 4918
4932 4673
4674 4933
4675 4933
4735 5284
4759 5026
5341 4759
4759 5345
4759 5346
4759 5029
6651 4775
6428 4776
6651 4776
4776 6433
4777 6428
6620 4778
4778 6621
6765 4779
4780 6438
4781 6739
4782 6170
6266 4783
4784 6316
4785 5379
4785 5380
4786 6445
4786 4975
4786 6444
4788 6448
5386 4789
4790 5386
4793 6451
4794 6166
4798 5394
5395 4799
4799 6460
4799 5396
4799 6461
4800 5407
4801 6464
4804 6468
4804 6339
6773 4805
4805 5428
4806 6677
6415 4808
4810 5431
4810 5430
4812 5445
4812 5556
5472 4824
4824 5474
4825 5477
4827 5491
4828 6612
4829 6493
5066 4831
4832 6685
4847 6552
4847 6557
4848 6551
4848 5110
4848 5107
4848 5111
5605 4851
4851 5610
4851 5612
4851 5606
5764 4855
4855 6357
4856 5653
4865 6348
4868 6349
4869 5741
5566 4870
4870 6803
4876 6541
4879 5175
5810 4880
4885 5845
4887 5859
4956 4893
4894 5899
6572 4894
5919 4896
4898 5218
5936 4899
4901 5953
4901 5950
4902 6243
6124 4907
4909 6733
6652 4912
4912 6665
4913 6583
4918 6019
4918 6221
4922 6029
6604 4925
4927 6043
4932 6612
4939 6099
4944 6312
4945 5072
4945 5119
4946 6638
4946 5088
4946 5086
4947 6373
4954 6557
4954 6551
4954 6552
4954 5109
4954 6829
4994 6289
4995 6291
5109 6557
5241 6818
5241 6720
5246 6654
5264 5265
5269 5272
5276 6327
5277 6327
5283 5286
5284 5286
5285 5286
5765 6263
5919 5913
5954 6222
5992 6733
5995 6734
6124 6181
6246 6249
6256 6257
6551 6557
ratios
0.2
0.37
0.46
0.55
0.8
0.2
0.8
0.43
0.33
0.74
0.8
0.8
0.5
0.5
0.2
0.2
0.5
0.5
0.8
0.47
0.5
0.5
0.49
0.5
0.52
0.47
0.53
0.58
0.24
0.5
0.5
0.5
0.5
0.5
0.5
0.5
0.5
0.15
0.49
0.5
0.5
0.36
0.39
0.51
0.39
0.76
0.2
0.2
0.51
0.41
0.64
0.71
0.5
0.5
0.5
0.5600000000000001
0.77
0.6
0.4
0.47
0.39
0.22
0.33
0.46
0.45
0.61
0.45
0.46
0.51
0.49
0.42
0.48
0.5
0.52
0.44
0.45
0.28
0.48
0.41
0.5
0.5
0.5
0.45
0.73
0.61
0.45
0.48
0.44
0.6
0.64
0.38
0.5
0.5700000000000001
0.67
0.49
0.54
0.42
0.55
0.61
0.54
0.51
0.5
0.5
0.48
0.54
0.49
0.48
0.43
0.46
0.64
0.45
0.67
0.61
0.37
0.35
0.44
0.2
0.8
0.2
0.42
0.58
0.7000000000000001
0.77
0.25
0.65
0.3
0.2
0.49
0.51
0.51
0.68
0.5
0.5
0.5
0.8
0.8
0.52
0.23
0.79
0.23
0.2
0.38
0.8
0.8
0.2
0.2
0.2
0.32
0.2
0.2
0.2
0.2
0.2
0.2
0.2
0.33
0.44
0.3
0.63
0.45
0.32
0.2
0.23
0.2
0.28
0.2
0.2
0.2
0.21
0.38
0.8
0.2
0.4
0.25
0.21
0.79
0.21
0.2
0.2
0.22
0.2
0.79
0.51
0.79
0.21
0.2
0.2
0.2
0.36
0.24
0.28
0.53
0.23
0.2
0.2
0.2
0.22
0.43
0.8
0.2
0.2
0.2
0.38
0.2
0.44
0.2
0.2
0.2
0.19
0.2
0.22
0.21
0.18
0.85
0.22
0.16
0.24
0.8200000000000001
0.2
0.2
0.8
0.2
0.58
0.2
0.2
0.21
0.19
0.21
0.22
0.16
0.22
0.14
0.22
0.19
0.2
0.68
0.8100000000000001
0.17
0.17
0.22
0.8
0.2
0.2
0.8
0.22
0.2
0.8100000000000001
0.18
0.19
0.19
0.18
0.8200000000000001
0.17
0.18
0.8100000000000001
0.23
0.21
0.77
0.2
0.21
0.55
0.22
0.22
0.22
0.18
0.18
0.17
0.86
0.32
0.18
0.21
0.18
0.17
0.2
0.2
0.2
0.19
0.8
0.78
0.8
0.18
0.18
0.2
0.18
0.16
0.19
0.2
0.86
0.72
0.23
0.21
0.21
0.2
0.22
0.17
0.18
0.19
0.22
0.23
0.8
0.8
0.2
0.2
0.77
0.49
0.2
0.16
0.17
0.16
0.19
0.17
0.2
0.2
0.2
0.21
0.8200000000000001
0.8200000000000001
0.2
0.16
0.2
0.52
0.23
0.22
0.2
0.26
0.2
0.2
0.2
0.2
0.2
0.38
0.76
0.23
0.77
0.8
0.8200000000000001
0.18
0.23
0.14
0.22
0.21
0.8
0.24
0.8
0.2
0.22
0.8
0.21
0.19
0.8100000000000001
0.18
0.19
0.2
0.22
0.8300000000000001
0.17
0.19
0.15
0.21
0.18
0.2
0.8
0.19
0.16
0.2
0.19
0.2
0.22
0.2
0.78
0.23
0.17
0.22
0.22
0.21
0.19
0.2
0.22
0.13
0.87
0.15
0.3
0.17
0.86
0.8200000000000001
0.23
0.2
0.79
0.79
0.16
0.22
0.2
0.22
0.21
0.2
0.2
0.2
0.21
0.79
0.23
0.16
0.2
0.18
0.2
0.21
0.2
0.8100000000000001
0.23
0.2
0.19
0.22
0.13
0.21
0.2
0.36
0.16
0.19
0.22
0.8200000000000001
0.17
0.18
0.16
0.2
0.21
0.8
0.8
0.22
0.16
0.19
0.21
0.8
0.22
0.8100000000000001
0.8300000000000001
0.8100000000000001
0.21
0.19
0.18
0.23
0.19
0.8300000000000001
0.2
0.23
0.2
0.78
0.28
0.8200000000000001
0.22
0.21
0.8200000000000001
0.8200000000000001
0.2
0.8
0.17
0.2
0.8300000000000001
0.21
0.21
0.17
0.21
0.21
0.2
0.8300000000000001
0.15
0.21
0.19
0.78
0.19
0.79
0.22
0.12
0.3
0.76
0.8100000000000001
0.19
0.27
0.37
0.22
0.8
0.27
0.33
0.17
0.2
0.19
0.78
0.18
0.22
0.18
0.18
0.8100000000000001
0.17
0.18
0.8300000000000001
0.22
0.17
0.19
0.8
0.77
0.79
0.78
0.2
0.2
0.78
0.2
0.18
0.84
0.19
0.22
0.12
0.16
0.4
0.21
0.8
0.8
0.17
0.2
0.2
0.2
0.8100000000000001
0.78
0.2
0.22
0.32
0.86
0.21
0.23
0.21
0.21
0.19
0.8100000000000001
0.8300000000000001
0.2
0.21
0.8100000000000001
0.21
0.8
0.8200000000000001
0.15
0.21
0.2
0.22
0.8
0.21
0.78
0.2
0.8
0.66
0.35
0.2
0.5
0.25
0.72
0.8
0.2
0.22
0.4
0.2
0.2
0.2
0.38
0.2
0.2
0.74
0.5
0.66
0.2
0.2
0.2
0.2
0.23
0.2
0.73
0.2
0.8
0.8
0.2
0.2
0.2
0.2
0.59
0.23
0.41
0.49
0.35
0.73
0.2
0.8
0.2
0.34
0.2
0.21
0.33
0.21
0.2
0.2
0.2
0.24
0.24
0.19
0.16
0.12
0.19
0.14
0.2
0.21
0.79
0.79
0.79
0.21
0.79
0.21
0.79
0.79
0.79
0.21
0.8
0.19
0.22
0.22
0.23
0.22
0.13
0.16
0.79
0.23
0.2
0.79
0.19
0.22
0.15
0.18
0.19
0.15
0.16
0.19
0.1
0.19
0.16
0.19
0.18
0.4
0.2
0.8
0.2
0.8
0.19
0.1
0.17
0.21
0.2
0.17
0.14
0.17
0.11
0.16
0.2
0.22
0.22
0.22
0.19
0.17
0.16
0.1
0.8
0.8100000000000001
0.2
0.21
0.2
0.22
0.17
0.17
0.19
0.16
0.17
0.14
0.17
0.11
0.21
0.17
0.2
0.21
0.19
0.14
0.17
0.22
0.16
0.1
0.2
0.21
0.77
0.21
0.2
0.25
0.21
0.2
0.23
0.19
0.23
0.22
0.18
0.16
0.17
0.18
0.2
0.15
0.8300000000000001
0.8200000000000001
0.19
0.79
0.8
0.16
0.21
0.21
0.17
0.79
0.15
0.22
0.17
0.14
0.85
0.18
0.17
0.14
0.23
0.23
0.21
0.21
0.21
0.19
0.16
0.28
0.8
0.18
0.19
0.23
0.8100000000000001
0.19
0.21
0.79
0.16
0.19
0.2
0.22
0.19
0.16
0.78
0.2
0.17
0.18
0.23
0.2
0.19
0.2
0.21
0.19
0.8100000000000001
0.14
0.19
0.22
0.16
0.11
0.78
0.22
0.14
0.16
0.8
0.2
0.18
0.8
0.18
0.22
0.21
0.8
0.62
0.17
0.8
0.22
0.19
0.23
0.18
0.8
0.23
0.2
0.19
0.22
0.8200000000000001
0.16
0.21
0.77
0.79
0.21
0.17
0.22
0.8200000000000001
0.21
0.2
0.18
0.17
0.2
0.21
0.87
0.22
0.17
0.2
0.12
0.22
0.15
0.16
0.18
0.71
0.18
0.21
0.59
0.2
0.15
0.18
0.77
0.19
0.18
0.22
0.16
0.16
0.15
0.21
0.17
0.24
0.17
0.22
0.2
0.21
0.22
0.21
0.21
0.22
0.21
0.23
0.16
0.13
0.23
0.2
0.16
0.23
0.17
0.21
0.22
0.28
0.15
0.2
0.21
0.2
0.18
0.19
0.21
0.13
0.8100000000000001
0.2
0.2
0.21
0.17
0.17
0.21
0.25
0.16
0.8100000000000001
0.16
0.2
0.22
0.19
0.19
0.21
0.22
0.21
0.2
0.17
0.2
0.59
0.17
0.18
0.21
0.19
0.63
0.2
0.17
0.21
0.17
0.22
0.19
0.21
0.2
0.79
0.21
0.18
0.21
0.85
0.23
0.19
0.2
0.18
0.85
0.2
0.19
0.2
0.19
0.73
0.8
0.21
0.16
0.2
0.59
0.23
0.16
0.13
0.18
0.21
0.2
0.21
0.18
0.17
0.21
0.21
0.8
0.21
0.17
0.15
0.18
0.2
0.19
0.21
0.8
0.23
0.21
0.19
0.18
0.18
0.18
0.2
0.8200000000000001
0.16
0.18
0.8100000000000001
0.78
0.23
0.2
0.2
0.64
0.2
0.23
0.22
0.22
0.19
0.22
0.2
0.17
0.19
0.77
0.23
0.21
0.21
0.78
0.22
0.23
0.18
0.19
0.78
0.7000000000000001
0.23
0.16
0.19
0.14
0.22
0.8
0.85
0.2
0.16
0.21
0.18
0.79
0.23
0.23
0.19
0.19
0.18
0.19
0.79
0.23
0.2
0.8
0.79
0.22
0.31
0.28
0.8300000000000001
0.22
0.22
0.19
0.8
0.8200000000000001
0.21
0.18
0.78
0.2
0.2
0.2
0.18
0.16
0.67
0.18
0.2
0.44
0.2
0.19
0.2
0.22
0.2
0.84
0.8
0.2
0.21
0.2
0.17
0.2
0.78
0.2
0.8
0.19
0.17
0.28
0.21
0.8
0.22
0.77
0.19
0.17
0.2
0.23
0.22
0.23
0.21
0.17
0.2
0.8200000000000001
0.8100000000000001
0.17
0.19
0.19
0.16
0.32
0.8100000000000001
0.16
0.18
0.23
0.23
0.62
0.17
0.7000000000000001
0.8
0.22
0.22
0.23
0.23
0.8100000000000001
0.21
0.17
0.2
0.23
0.17
0.19
0.17
0.18
0.16
0.19
0.21
0.17
0.23
0.78
0.8
0.2
0.8200000000000001
0.19
0.2
0.79
0.21
0.2
0.21
0.21
0.8100000000000001
0.79
0.21
0.21
0.8
0.2
0.8200000000000001
0.17
0.23
0.18
0.18
0.23
0.16
0.17
0.19
0.18
0.21
0.2
0.18
0.19
0.8
0.22
0.8
0.21
0.22
0.2
0.78
0.13
0.22
0.22
0.2
0.17
0.21
0.17
0.87
0.22
0.23
0.23
0.19
0.79
0.2
0.19
0.17
0.22
0.8100000000000001
0.21
0.17
0.8100000000000001
0.18
0.17
0.21
0.18
0.2
0.17
0.2
0.21
0.19
0.8300000000000001
0.16
0.13
0.22
0.15
0.23
0.78
0.16
0.23
0.18
0.16
0.22
0.19
0.18
0.22
0.8200000000000001
0.2
0.22
0.77
0.21
0.77
0.2
0.17
0.23
0.17
0.2
0.2
0.8200000000000001
0.23
0.21
0.19
0.2
0.2
0.2
0.75
0.8100000000000001
0.8300000000000001
0.22
0.23
0.8200000000000001
0.2
0.18
0.18
0.23
0.22
0.22
0.79
0.79
0.8
0.77
0.22
0.21
0.79
0.79
0.21
0.79
0.8
0.17
0.19
0.21
0.21
0.8300000000000001
0.79
0.79
0.2
0.19
0.19
0.79
0.22
0.21
0.22
0.21
0.2
0.21
0.35
0.23
0.15
0.18
0.21
0.8300000000000001
0.21
0.8100000000000001
0.78
0.79
0.22
0.21
0.2
0.8
0.79
0.23
0.22
0.2
0.21
0.77
0.19
0.2
0.7000000000000001
0.18
0.2
0.19
0.2
0.19
0.21
0.8200000000000001
0.8
0.18
0.22
0.14
0.14
0.22
0.19
0.22
0.21
0.16
0.23
0.8300000000000001
0.8300000000000001
0.23
0.8300000000000001
0.19
0.23
0.2
0.2
0.23
0.21
0.2
0.22
0.2
0.8
0.23
0.19
0.2
0.77
0.78
0.17
0.23
0.17
0.22
0.2
0.17
0.8
0.2
0.21
0.8300000000000001
0.14
0.17
0.2
0.35
0.17
0.23
0.2
0.19
0.21
0.78
0.79
0.78
0.2
0.22
0.22
0.78
0.2
0.22
0.22
0.18
0.8100000000000001
0.78
0.22
0.74
0.19
0.8300000000000001
0.21
0.8300000000000001
0.29
0.17
0.21
0.78
0.8200000000000001
0.79
0.22
0.21
0.16
0.8200000000000001
0.2
0.19
0.2
0.22
0.22
0.19
0.8
0.2
0.41
0.34
0.2
0.2
0.25
0.2
0.2
0.5600000000000001
0.21
0.14
0.2
0.2
0.2
0.2
0.8
0.2
0.15
0.21
0.8
0.2
0.8
0.2
0.8
0.2
0.77
0.8
0.2
0.8
0.2
0.2
0.2
0.8
0.8
0.22
0.2
0.2
0.2
0.2
0.4
0.47
0.2
0.2
0.8
0.8
0.2
0.2
0.2
0.2
0.8
0.2
0.2
0.62
0.2
0.2
0.13
0.86
0.2
0.8
0.2
0.2
0.2
0.2
0.8
0.2
0.8
0.8
0.8
0.2
0.8
0.8
0.8
0.19
0.86
0.8200000000000001
0.17
0.79
0.8
0.8
0.8
0.2
0.2
0.8
0.8
0.8
0.26
0.71
0.74
0.8
0.2
0.64
0.8
0.2
0.8
0.8
0.2
0.8
0.23
0.8
0.8
0.2
0.2
0.8
0.25
0.8
0.8
0.2
0.8
0.8
0.2
0.6900000000000001
0.8
0.43
0.5600000000000001
0.79
0.6
0.75
0.77
0.2
0.5700000000000001
0.2
0.8
0.8
0.21
0.8
0.8
0.8
0.8
0.2
0.6
0.8
0.46
0.6900000000000001
0.8
0.8
0.2
0.8
0.33
0.8
0.7000000000000001
0.8
0.8
0.8
0.55
0.8
0.63
0.8
0.8
0.2
0.8
0.8
0.8
0.47
0.2
0.2
0.8
0.8
0.8
0.2
0.2
0.2
0.2
0.72
0.8
0.8
0.8
0.8
0.8
0.72
0.2
0.8
0.49
0.47
0.74
0.8
0.37
0.2
0.63
0.6900000000000001
0.2
0.27
0.8
0.22
0.74
0.78
0.8
0.73
0.21
0.8
0.71
0.8
0.8
0.2
0.8
0.8
0.2
0.8
0.8
0.2
0.75
0.8
0.2
0.2
0.71
0.58
0.44
0.79
0.8
0.8
0.72
0.6900000000000001
0.38
0.8
0.8
0.8
0.2
0.2
0.8
0.8
0.53
0.76
0.2
0.29
0.7000000000000001
0.61
0.5600000000000001
0.64
0.8
0.72
0.8
0.31
0.8
0.8
0.8
0.41
0.49
0.51
0.43
0.8
0.62
0.2
0.7000000000000001
0.8
0.8
0.71
0.2
0.8
0.2
0.58
0.58
0.2
0.73
0.2
0.8
0.64
0.45
0.32
0.31
0.8
0.8
0.2
0.8
0.2
0.2
0.2
0.8
0.2
0.2
0.2
0.8
0.8
0.8
0.8
0.15
0.84
0.8
0.16
0.8
0.2
0.2
0.2
0.2
0.2
0.2
0.8
0.2
0.8
0.63
0.8
0.2
0.8
0.8
0.5
0.62
0.8
0.8
0.8
0.8
0.8
0.2
0.35
0.2
0.8
0.8
0.2
0.2
0.42
0.2
0.2
0.5700000000000001
0.2
0.2
0.8
0.8
0.8
0.78
0.2
0.8
0.8
0.8
0.8
0.8
0.8
0.8
0.8
0.2
0.8
0.8
0.8
0.8
0.8
0.8
0.8
0.8
0.8
0.8
0.8200000000000001
0.8
0.8200000000000001
0.8
0.8
0.8
0.2
0.8
0.8
0.8
0.9
0.8
0.8
0.8
0.8
0.8
0.8
0.62
0.8
0.8
0.8
0.8
0.33
0.59
0.28
0.39
0.8
0.2
0.8
0.78
0.8
0.79
0.23
0.8
0.63
0.8
0.28
0.53
0.2
0.2
0.8
0.8
0.8
0.2
0.71
0.39
0.2
0.2
0.8
0.2
0.2
0.8
0.8
0.8
0.8
0.58
0.8
0.8
0.8
0.8
0.8
0.6900000000000001
0.8
0.2
0.2
0.79
0.8
0.8
0.8
0.8
0.8
0.8
0.8
0.8
0.8
0.8
0.8
0.8
0.8
0.8
0.8
0.79
0.8
0.8
0.8
0.8
0.9
0.8
0.74
0.75
0.44
0.2
0.8
0.74
0.89
0.8
0.88
0.8
0.67
0.8100000000000001
0.8
0.8
0.78
0.8
0.8
0.8
0.8
0.8
0.8
0.2
0.8
0.34
0.51
0.65
0.2
0.67
0.2
0.2
0.5
0.2
0.2
0.2
0.2
0.29
0.2
0.39
0.68
0.2
0.2
0.2
0.33
0.61
0.2
0.27
0.2
0.22
0.2
0.2
0.2
0.8
0.2
0.8
0.2
0.2
0.2
0.2
0.2
0.22
0.33
0.92
0.8
0.8
0.8300000000000001
0.8300000000000001
0.8100000000000001
0.8
0.8
0.8
0.8
0.78
0.78
0.19
0.8100000000000001
0.2
0.29
0.8100000000000001
0.2
0.22
0.21
0.19
0.2
0.17
0.22
0.2
0.19
0.22
0.8300000000000001
0.85
0.18
0.21
0.86
0.8300000000000001
0.2
0.16
0.17
0.22
0.18
0.8300000000000001
0.17
0.2
0.21
0.15
0.19
0.21
0.8
0.79
0.25
0.22
0.8200000000000001
0.77
0.21
0.21
0.19
0.78
0.2
0.17
0.2
0.84
0.21
0.17
0.23
0.8100000000000001
0.8
0.18
0.8
0.16
0.19
0.13
0.14
0.21
0.77
0.16
0.18
0.78
0.16
0.22
0.19
0.2
0.2
0.23
0.19
0.8100000000000001
0.13
0.2
0.14
0.8200000000000001
0.8
0.8
0.14
0.2
0.21
0.16
0.21
0.2
0.21
0.16
0.15
0.79
0.18
0.22
0.22
0.18
0.21
0.16
0.18
0.19
0.21
0.8
0.23
0.2
0.22
0.21
0.2
0.17
0.78
0.8200000000000001
0.19
0.19
0.21
0.23
0.84
0.16
0.23
0.15
0.23
0.21
0.84
0.17
0.2
0.8
0.21
0.8
0.18
0.2
0.23
0.21
0.79
0.2
0.17
0.84
0.17
0.18
0.16
0.16
0.8
0.18
0.22
0.2
0.2
0.22
0.78
0.17
0.21
0.22
0.21
0.17
0.19
0.22
0.21
0.23
0.19
0.21
0.22
0.22
0.8100000000000001
0.78
0.19
0.2
0.8
0.23
0.18
0.8
0.17
0.8
0.34
0.22
0.19
0.19
0.17
0.8300000000000001
0.22
0.16
0.21
0.19
0.2
0.2
0.23
0.2
0.22
0.22
0.22
0.79
0.8200000000000001
0.22
0.8
0.18
0.8100000000000001
0.14
0.2
0.8
0.19
0.21
0.2
0.78
0.16
0.2
0.17
0.87
0.8
0.8
0.14
0.21
0.74
0.2
0.8
0.8300000000000001
0.8
0.8300000000000001
0.85
0.85
0.8
0.79
0.8300000000000001
0.8300000000000001
0.77
0.8
0.8300000000000001
0.8
0.8
0.8
0.8
0.8200000000000001
0.8
0.78
0.79
0.8
0.17
0.8
0.8
0.13
0.2
0.79
0.8
0.8100000000000001
0.2
0.7000000000000001
0.8
0.79
0.67
0.88
0.8
0.8
0.8
0.79
0.21
0.21
0.5700000000000001
0.78
0.79
0.79
0.85
0.22
0.77
0.23
0.18
0.85
0.8200000000000001
0.8
0.15
0.8300000000000001
0.8200000000000001
0.86
0.8100000000000001
0.87
0.8
0.8
0.8
0.8
0.87
0.8100000000000001
0.84
0.84
0.86
0.8
0.77
0.8
0.86
0.85
0.8200000000000001
0.8200000000000001
0.8
0.77
0.8200000000000001
0.85
0.8
0.86
0.2
0.2
0.79
0.79
0.8
0.8
0.8
0.72
0.2
0.8100000000000001
0.87
0.86
0.29
0.8
0.2
0.85
0.2
0.78
0.21
0.77
0.19
0.8
0.2
0.77
0.77
0.62
0.22
0.78
0.47
0.41
0.64
0.2
0.18
0.8
0.2
0.2
0.77
0.2
0.86
0.8
0.8
0.8
0.18
0.8
0.75
0.58
0.8300000000000001
0.79
0.8300000000000001
0.79
0.18
0.78
0.8300000000000001
0.79
0.85
0.18
0.8200000000000001
0.8200000000000001
0.8100000000000001
0.8
0.32
0.8
0.8
0.8
0.8
0.77
0.8
0.8
0.8
0.8
0.36
0.53
0.8
0.8
0.8
0.78
0.84
0.79
0.8
0.79
0.79
0.77
0.8
0.78
0.78
0.2
0.8
0.88
0.8100000000000001
0.75
0.19
0.18
0.2
0.2
0.21
0.78
0.23
0.2
0.22
0.2
0.18
0.19
0.2
0.8300000000000001
0.18
0.8100000000000001
0.22
0.22
0.78
0.21
0.17
0.8
0.85
0.78
0.18
0.2
0.21
0.21
0.85
0.17
0.21
0.2
0.23
0.8
0.17
0.17
0.2
0.16
0.19
0.18
0.2
0.2
0.19
0.8
0.18
0.21
0.21
0.79
0.23
0.22
0.17
0.22
0.8
0.23
0.2
0.19
0.21
0.77
0.2
0.18
0.13
0.23
0.16
0.2
0.16
0.15
0.2
0.18
0.22
0.22
0.78
0.17
0.18
0.8
0.2
0.19
0.21
0.17
0.78
0.23
0.22
0.2
0.78
0.2
0.78
0.8200000000000001
0.2
0.8
0.21
0.79
0.17
0.22
0.15
0.21
0.2
0.22
0.23
0.31
0.8
0.2
0.22
0.21
0.77
0.6900000000000001
0.18
0.8
0.21
0.19
0.2
0.2
0.23
0.23
0.8200000000000001
0.22
0.23
0.78
0.21
0.8200000000000001
0.2
0.77
0.21
0.78
0.8
0.21
0.19
0.17
0.21
0.19
0.84
0.2
0.22
0.22
0.2
0.19
0.22
0.21
0.21
0.18
0.22
0.22
0.21
0.2
0.55
0.21
0.79
0.23
0.2
0.3
0.19
0.18
0.23
0.19
0.8
0.18
0.2
0.66
0.8
0.78
0.23
0.17
0.19
0.61
0.23
0.18
0.19
0.18
0.19
0.61
0.22
0.19
0.19
0.2
0.8200000000000001
0.19
0.29
0.21
0.17
0.22
0.8200000000000001
0.8
0.2
0.22
0.19
0.2
0.2
0.2
0.21
0.58
0.86
0.21
0.8200000000000001
0.18
0.2
0.87
0.86
0.78
0.8
0.78
0.18
0.8100000000000001
0.79
0.8100000000000001
0.15
0.2
0.79
0.8200000000000001
0.84
0.8
0.8
0.8
0.8
0.8
0.2
0.2
0.77
0.77
0.77
0.8
0.8300000000000001
0.8
0.8
0.78
0.2
0.87
0.14
0.78
0.7000000000000001
0.77
0.26
0.23
0.8
0.2
0.79
0.39
0.8100000000000001
0.2
0.8200000000000001
0.71
0.2
0.2
0.78
0.78
0.8
0.79
0.86
0.8300000000000001
0.8
0.8
0.77
0.23
0.8
0.2
0.79
0.79
0.8
0.17
0.8
0.2
0.62
0.22
0.8
0.68
0.26
0.8100000000000001
0.8100000000000001
0.2
0.8200000000000001
0.78
0.8300000000000001
0.8200000000000001
0.85
0.22
0.84
0.23
0.2
0.79
0.8200000000000001
0.8300000000000001
0.8200000000000001
0.77
0.8
0.8300000000000001
0.8
0.2
0.79
0.8100000000000001
0.22
0.18
0.23
0.79
0.79
0.8100000000000001
0.78
0.86
0.8200000000000001
0.17
0.15
0.8
0.84
0.79
0.8300000000000001
0.8200000000000001
0.84
0.78
0.8
0.18
0.8100000000000001
0.18
0.8300000000000001
0.18
0.2
0.2
0.2
0.2
0.16
0.78
0.16
0.78
0.8
0.79
0.78
0.2
0.8
0.8100000000000001
0.8100000000000001
0.8300000000000001
0.77
0.22
0.29
0.4
0.8300000000000001
0.84
0.77
0.8100000000000001
0.8300000000000001
0.8100000000000001
0.8
0.84
0.77
0.79
0.85
0.78
0.79
0.84
0.2
0.8
0.76
0.8200000000000001
0.72
0.79
0.8
0.7000000000000001
0.21
0.77
0.77
0.8200000000000001
0.8
0.8100000000000001
0.73
0.2
0.8200000000000001
0.78
0.26
0.22
0.77
0.78
0.8100000000000001
0.78
0.84
0.77
0.17
0.77
0.8
0.8
0.85
0.8100000000000001
0.23
0.78
0.85
0.77
0.2
0.8
0.26
0.39
0.17
0.8
0.77
0.8100000000000001
0.2
0.42
0.8
0.2
0.8
0.8
0.8
0.8
0.78
0.79
0.78
0.78
0.79
0.26
0.8
0.8200000000000001
0.76
0.78
0.79
0.8
0.84
0.8300000000000001
0.19
0.2
0.84
0.21
0.8
0.78
0.8
0.8100000000000001
0.17
0.73
0.17
0.8100000000000001
0.21
0.8100000000000001
0.8
0.77
0.18
0.2
0.21
0.23
0.8100000000000001
0.18
0.84
0.87
0.9
0.8
0.8
0.79
0.19
0.22
0.8100000000000001
0.22
0.84
0.8
0.2
0.21
0.8100000000000001
0.2
0.21
0.22
0.8
0.8100000000000001
0.8
0.21
0.19
0.78
0.23
0.8200000000000001
0.22
0.2
0.18
0.71
0.22
0.19
0.23
0.21
0.2
0.18
0.2
0.77
0.23
0.32
0.21
0.21
0.8
0.18
0.16
0.21
0.23
0.21
0.22
0.2
0.78
0.23
0.21
0.8
0.21
0.2
0.23
0.2
0.8
0.22
0.21
0.23
0.22
0.2
0.8
0.21
0.2
0.8
0.16
0.2
0.17
0.2
0.8300000000000001
0.19
0.2
0.21
0.79
0.22
0.23
0.2
0.22
0.21
0.77
0.22
0.16
0.23
0.8
0.2
0.21
0.77
0.29
0.78
0.8300000000000001
0.21
0.78
0.23
0.25
0.23
0.62
0.34
0.84
0.22
0.22
0.18
0.2
0.21
0.8100000000000001
0.2
0.22
0.2
0.2
0.2
0.34
0.2
0.5
0.2
0.2
0.59
0.2
0.2
0.22
0.2
0.2
0.2
0.8
0.39
0.29
0.5600000000000001
0.29
0.2
0.2
0.2
0.47
0.8
0.73
0.2
0.79
0.2
0.5
0.2
0.2
0.8
0.32
0.8

forceimprovementnum 1
maxthreads 4
