  0
SECTION
  2
HEADER
  9
$ANGBASE
  50
0.0
  9
$ANGDIR
  70
1
  9
$MEASUREMENT
  70
0
  0
ENDSEC
  0
SECTION
  2
TABLES
  0
TABLE
  2
LTYPE
  70
4
  0
LTYPE
  5
40F
  2
CONTINUOUS
  70
0
  3
Solid line
  72
65
  73
0
  40
0.0
  0
LTYPE
  5
410
  2
DASHDOT
 70
0
  3
Dash Dot ____ _ ____ _
 72
65
 73
4
 40
2.0
 49
1.25
 49
-0.25
 49
0.25
 49
-0.25
  0
LTYPE
  5
411
  2
DASHED
 70
0
  3
Dashed __ __ __ __ __
 72
65
 73
2
 40
0.75
 49
0.5
 49
-0.25
  0
LTYPE
  5
43B
  2
DOTTED
 70
0
  3
Dotted .  .  .  .
 72
65
 73
2
 40
0.2
 49
0.0
 49
-0.2
  0
ENDTAB
  0
TABLE
  2
STYLE
  70
4
  0
STYLE
  2
KICAD
  70
0
  40
0
  41
1
  42
1
  50
0
  71
0
  3
isocp.shx
  0
STYLE
  2
KICADB
  70
0
  40
0
  41
1
  42
1
  50
0
  71
0
  3
isocp.shx
  0
STYLE
  2
KICADI
  70
0
  40
0
  41
1
  42
1
  50
15
  71
0
  3
isocp.shx
  0
STYLE
  2
KICADBI
  70
0
  40
0
  41
1
  42
1
  50
15
  71
0
  3
isocp.shx
  0
ENDTAB
  0
TABLE
  2
LAYER
  70
1
  0
LAYER
  2
BLACK
  70
0
  62
7
  6
CONTINUOUS
  0
ENDTAB
  0
ENDSEC
  0
SECTION
  2
ENTITIES
0
LINE
8
BLACK
6
CONTINUOUS
10
6.7274681889763777
20
-2.7509870078740155
11
6.7476552755905512
21
-2.7509870078740155
0
LINE
8
BLACK
6
CONTINUOUS
10
6.7476552755905512
20
-2.7509870078740155
11
6.7476552755905512
21
-2.7928870078740156
0
LINE
8
BLACK
6
CONTINUOUS
10
6.7476552755905512
20
-2.7928870078740156
11
6.7274681889763777
21
-2.7928870078740156
0
LINE
8
BLACK
6
CONTINUOUS
10
6.7274681889763777
20
-2.7928870078740156
11
6.7267052755905512
21
-2.7929370078740159
0
LINE
8
BLACK
6
CONTINUOUS
10
6.7267052755905512
20
-2.7929370078740159
11
6.6554037795275587
21
-2.7929370078740159
0
LINE
8
BLACK
6
CONTINUOUS
10
6.6554037795275587
20
-2.7929370078740159
11
6.4149500787401577
21
-3.0333906692913386
0
LINE
8
BLACK
6
CONTINUOUS
10
6.4149500787401577
20
-3.0333906692913386
11
6.4147594094488189
21
-3.0337209842519686
0
LINE
8
BLACK
6
CONTINUOUS
10
6.4147594094488189
20
-3.0337209842519686
11
6.4108829527559053
21
-3.0375974409448818
0
LINE
8
BLACK
6
CONTINUOUS
10
6.4108829527559053
20
-3.0375974409448818
11
6.4061353149606299
21
-3.0403384645669291
0
LINE
8
BLACK
6
CONTINUOUS
10
6.4061353149606299
20
-3.0403384645669291
11
6.4051746850393698
21
-3.0405958661417323
0
LINE
8
BLACK
6
CONTINUOUS
10
6.4051746850393698
20
-3.0405958661417323
11
6.3716180708661412
21
-3.0554441338582676
0
LINE
8
BLACK
6
CONTINUOUS
10
6.3716180708661412
20
-3.0554441338582676
11
6.3690387401574799
21
-3.0563890157480316
0
LINE
8
BLACK
6
CONTINUOUS
10
6.3690387401574799
20
-3.0563890157480316
11
6.3672697244094483
21
-3.0566649999999997
0
LINE
8
BLACK
6
CONTINUOUS
10
6.3672697244094483
20
-3.0566649999999997
11
6.3665507874015743
21
-3.0571454330708661
0
LINE
8
BLACK
6
CONTINUOUS
10
6.3665507874015743
20
-3.0571454330708661
11
6.3645167716535429
21
-3.0575499606299212
0
LINE
8
BLACK
6
CONTINUOUS
10
6.3645167716535429
20
-3.0575499606299212
11
6.3499468110236217
21
-3.05755
0
LINE
8
BLACK
6
CONTINUOUS
10
6.3499468110236217
20
-3.05755
11
6.347912834645669
21
-3.0571454330708661
0
LINE
8
BLACK
6
CONTINUOUS
10
6.347912834645669
20
-3.0571454330708661
11
6.3461885433070861
21
-3.0559932677165356
0
LINE
8
BLACK
6
CONTINUOUS
10
6.3461885433070861
20
-3.0559932677165356
11
6.3450363779527557
21
-3.0542689763779527
0
LINE
8
BLACK
6
CONTINUOUS
10
6.3450363779527557
20
-3.0542689763779527
11
6.3446318503937009
21
-3.0522349606299213
0
LINE
8
BLACK
6
CONTINUOUS
10
6.3446318503937009
20
-3.0522349606299213
11
6.3446318110236222
21
-3.0508065354330709
0
LINE
8
BLACK
6
CONTINUOUS
10
6.3446318110236222
20
-3.0508065354330709
11
6.3444070078740156
21
-3.0505470866141731
0
LINE
8
BLACK
6
CONTINUOUS
10
6.3444070078740156
20
-3.0505470866141731
11
6.3426044488188973
21
-3.0465999999999998
0
LINE
8
BLACK
6
CONTINUOUS
10
6.3426044488188973
20
-3.0465999999999998
11
6.3419869291338582
21
-3.0423049999999998
0
LINE
8
BLACK
6
CONTINUOUS
10
6.3419869291338582
20
-3.0423049999999998
11
6.3419869291338582
21
-3.0399200393700787
0
LINE
8
BLACK
6
CONTINUOUS
10
6.3419869291338582
20
-3.0399200393700787
11
6.3407523622047242
21
-3.0353126771653542
0
LINE
8
BLACK
6
CONTINUOUS
10
6.3407523622047242
20
-3.0353126771653542
11
6.3383674015748026
21
-3.0311818110236222
0
LINE
8
BLACK
6
CONTINUOUS
10
6.3383674015748026
20
-3.0311818110236222
11
6.3349946062992126
21
-3.0278090157480313
0
LINE
8
BLACK
6
CONTINUOUS
10
6.3349946062992126
20
-3.0278090157480313
11
6.3308637401574801
21
-3.0254240551181102
0
LINE
8
BLACK
6
CONTINUOUS
10
6.3308637401574801
20
-3.0254240551181102
11
6.3262563779527561
21
-3.0241894881889761
0
LINE
8
BLACK
6
CONTINUOUS
10
6.3262563779527561
20
-3.0241894881889761
11
6.321486456692913
21
-3.0241894881889761
0
LINE
8
BLACK
6
CONTINUOUS
10
6.321486456692913
20
-3.0241894881889761
11
6.316879094488189
21
-3.0254240551181102
0
LINE
8
BLACK
6
CONTINUOUS
10
6.316879094488189
20
-3.0254240551181102
11
6.3127482283464564
21
-3.0278090157480313
0
LINE
8
BLACK
6
CONTINUOUS
10
6.3127482283464564
20
-3.0278090157480313
11
6.3093754330708656
21
-3.0311818110236222
0
LINE
8
BLACK
6
CONTINUOUS
10
6.3093754330708656
20
-3.0311818110236222
11
6.3069904724409449
21
-3.0353126771653542
0
LINE
8
BLACK
6
CONTINUOUS
10
6.3069904724409449
20
-3.0353126771653542
11
6.3057559055118109
21
-3.0399200393700787
0
LINE
8
BLACK
6
CONTINUOUS
10
6.3057559055118109
20
-3.0399200393700787
11
6.3057559055118109
21
-3.0423049999999998
0
LINE
8
BLACK
6
CONTINUOUS
10
6.3057559055118109
20
-3.0423049999999998
11
6.3051383858267718
21
-3.0465999999999998
0
LINE
8
BLACK
6
CONTINUOUS
10
6.3051383858267718
20
-3.0465999999999998
11
6.3033358267716535
21
-3.0505470866141731
0
LINE
8
BLACK
6
CONTINUOUS
10
6.3033358267716535
20
-3.0505470866141731
11
6.3004942519685034
21
-3.0538264173228344
0
LINE
8
BLACK
6
CONTINUOUS
10
6.3004942519685034
20
-3.0538264173228344
11
6.2968438976377952
21
-3.0561723228346458
0
LINE
8
BLACK
6
CONTINUOUS
10
6.2968438976377952
20
-3.0561723228346458
11
6.2926805118110236
21
-3.0573948425196851
0
LINE
8
BLACK
6
CONTINUOUS
10
6.2926805118110236
20
-3.0573948425196851
11
6.2883412992125987
21
-3.0573948425196851
0
LINE
8
BLACK
6
CONTINUOUS
10
6.2883412992125987
20
-3.0573948425196851
11
6.2880645275590545
21
-3.0573135433070866
0
LINE
8
BLACK
6
CONTINUOUS
10
6.2880645275590545
20
-3.0573135433070866
11
6.2870695669291337
21
-3.0575601181102363
0
LINE
8
BLACK
6
CONTINUOUS
10
6.2870695669291337
20
-3.0575601181102363
11
6.2851945669291336
21
-3.0576474409448817
0
LINE
8
BLACK
6
CONTINUOUS
10
6.2851945669291336
20
-3.0576474409448817
11
6.2708269685039371
21
-3.0573757086614171
0
LINE
8
BLACK
6
CONTINUOUS
10
6.2708269685039371
20
-3.0573757086614171
11
6.2699508661417322
21
-3.0575499606299212
0
LINE
8
BLACK
6
CONTINUOUS
10
6.2699508661417322
20
-3.0575499606299212
11
6.255380905511811
21
-3.05755
0
LINE
8
BLACK
6
CONTINUOUS
10
6.255380905511811
20
-3.05755
11
6.2533469291338584
21
-3.0571454330708661
0
LINE
8
BLACK
6
CONTINUOUS
10
6.2533469291338584
20
-3.0571454330708661
11
6.2516226377952755
21
-3.0559932677165356
0
LINE
8
BLACK
6
CONTINUOUS
10
6.2516226377952755
20
-3.0559932677165356
11
6.250470472440945
21
-3.0542689763779527
0
LINE
8
BLACK
6
CONTINUOUS
10
6.250470472440945
20
-3.0542689763779527
11
6.2500659448818894
21
-3.0522349606299213
0
LINE
8
BLACK
6
CONTINUOUS
10
6.2500659448818894
20
-3.0522349606299213
11
6.2500659055118106
21
-3.0445445275590552
0
LINE
8
BLACK
6
CONTINUOUS
10
6.2500659055118106
20
-3.0445445275590552
11
6.2500557874015747
21
-3.0445036614173229
0
LINE
8
BLACK
6
CONTINUOUS
10
6.2500557874015747
20
-3.0445036614173229
11
6.2500659055118106
21
-3.0439681102362206
0
LINE
8
BLACK
6
CONTINUOUS
10
6.2500659055118106
20
-3.0439681102362206
11
6.2500659055118106
21
-3.0416050000000001
0
LINE
8
BLACK
6
CONTINUOUS
10
6.2500659055118106
20
-3.0416050000000001
11
6.2501152755905514
21
-3.041356653543307
0
LINE
8
BLACK
6
CONTINUOUS
10
6.2501152755905514
20
-3.041356653543307
11
6.2501266141732286
21
-3.0407582677165355
0
LINE
8
BLACK
6
CONTINUOUS
10
6.2501266141732286
20
-3.0407582677165355
11
6.2511644488188978
21
-3.0371587795275592
0
LINE
8
BLACK
6
CONTINUOUS
10
6.2511644488188978
20
-3.0371587795275592
11
6.2525529133858262
21
-3.0348555905511811
0
LINE
8
BLACK
6
CONTINUOUS
10
6.2525529133858262
20
-3.0348555905511811
11
6.251301692913386
21
-3.0318348818897638
0
LINE
8
BLACK
6
CONTINUOUS
10
6.251301692913386
20
-3.0318348818897638
11
6.2473359055118109
21
-3.0258996062992125
0
LINE
8
BLACK
6
CONTINUOUS
10
6.2473359055118109
20
-3.0258996062992125
11
6.2422883858267717
21
-3.0208520866141733
0
LINE
8
BLACK
6
CONTINUOUS
10
6.2422883858267717
20
-3.0208520866141733
11
6.2363531102362204
21
-3.0168862992125982
0
LINE
8
BLACK
6
CONTINUOUS
10
6.2363531102362204
20
-3.0168862992125982
11
6.2297582283464568
21
-3.0141546062992126
0
LINE
8
BLACK
6
CONTINUOUS
10
6.2297582283464568
20
-3.0141546062992126
11
6.222757125984252
21
-3.0127620078740156
0
LINE
8
BLACK
6
CONTINUOUS
10
6.222757125984252
20
-3.0127620078740156
11
6.2156188582677165
21
-3.0127620078740156
0
LINE
8
BLACK
6
CONTINUOUS
10
6.2156188582677165
20
-3.0127620078740156
11
6.2086177559055118
21
-3.0141546062992126
0
LINE
8
BLACK
6
CONTINUOUS
10
6.2086177559055118
20
-3.0141546062992126
11
6.2020228740157481
21
-3.0168862992125982
0
LINE
8
BLACK
6
CONTINUOUS
10
6.2020228740157481
20
-3.0168862992125982
11
6.1960875984251969
21
-3.0208520866141733
0
LINE
8
BLACK
6
CONTINUOUS
10
6.1960875984251969
20
-3.0208520866141733
11
6.1910400787401576
21
-3.0258996062992125
0
LINE
8
BLACK
6
CONTINUOUS
10
6.1910400787401576
20
-3.0258996062992125
11
6.1870742913385826
21
-3.0318348818897638
0
LINE
8
BLACK
6
CONTINUOUS
10
6.1870742913385826
20
-3.0318348818897638
11
6.1843425984251965
21
-3.0384297637795274
0
LINE
8
BLACK
6
CONTINUOUS
10
6.1843425984251965
20
-3.0384297637795274
11
6.1829499999999999
21
-3.0454308661417322
0
LINE
8
BLACK
6
CONTINUOUS
10
6.1829499999999999
20
-3.0454308661417322
11
6.1829499999999999
21
-3.0459999999999998
0
LINE
8
BLACK
6
CONTINUOUS
10
6.1829499999999999
20
-3.0459999999999998
11
6.1829999999999998
21
-3.0459999999999998
0
LINE
8
BLACK
6
CONTINUOUS
10
6.1829999999999998
20
-3.0459999999999998
11
6.1829999999999998
21
-3.0582637795275591
0
LINE
8
BLACK
6
CONTINUOUS
10
6.1829999999999998
20
-3.0582637795275591
11
6.1834040551181104
21
-3.0589636614173226
0
LINE
8
BLACK
6
CONTINUOUS
10
6.1834040551181104
20
-3.0589636614173226
11
6.1848229527559058
21
-3.0642589370078741
0
LINE
8
BLACK
6
CONTINUOUS
10
6.1848229527559058
20
-3.0642589370078741
11
6.1848229527559058
21
-3.0697410629921258
0
LINE
8
BLACK
6
CONTINUOUS
10
6.1848229527559058
20
-3.0697410629921258
11
6.1834040551181104
21
-3.0750363385826769
0
LINE
8
BLACK
6
CONTINUOUS
10
6.1834040551181104
20
-3.0750363385826769
11
6.1829999999999998
21
-3.075736181102362
0
LINE
8
BLACK
6
CONTINUOUS
10
6.1829999999999998
20
-3.075736181102362
11
6.1829999999999998
21
-3.0880000000000001
0
LINE
8
BLACK
6
CONTINUOUS
10
6.1829999999999998
20
-3.0880000000000001
11
6.1829500787401575
21
-3.0880000000000001
0
LINE
8
BLACK
6
CONTINUOUS
10
6.1829500787401575
20
-3.0880000000000001
11
6.1829500787401575
21
-3.0885691338582677
0
LINE
8
BLACK
6
CONTINUOUS
10
6.1829500787401575
20
-3.0885691338582677
11
6.184342677165354
21
-3.0955701968503937
0
LINE
8
BLACK
6
CONTINUOUS
10
6.184342677165354
20
-3.0955701968503937
11
6.1870743700787401
21
-3.1021650787401573
0
LINE
8
BLACK
6
CONTINUOUS
10
6.1870743700787401
20
-3.1021650787401573
11
6.1910401574803151
21
-3.1081003149606299
0
LINE
8
BLACK
6
CONTINUOUS
10
6.1910401574803151
20
-3.1081003149606299
11
6.1960876771653544
21
-3.1131478346456691
0
LINE
8
BLACK
6
CONTINUOUS
10
6.1960876771653544
20
-3.1131478346456691
11
6.2020229133858269
21
-3.1171136220472442
0
LINE
8
BLACK
6
CONTINUOUS
10
6.2020229133858269
20
-3.1171136220472442
11
6.2086177952755905
21
-3.1198453149606298
0
LINE
8
BLACK
6
CONTINUOUS
10
6.2086177952755905
20
-3.1198453149606298
11
6.2156188582677165
21
-3.1212379133858268
0
LINE
8
BLACK
6
CONTINUOUS
10
6.2156188582677165
20
-3.1212379133858268
11
6.222757125984252
21
-3.1212379133858268
0
LINE
8
BLACK
6
CONTINUOUS
10
6.222757125984252
20
-3.1212379133858268
11
6.229758188976378
21
-3.1198453149606298
0
LINE
8
BLACK
6
CONTINUOUS
10
6.229758188976378
20
-3.1198453149606298
11
6.2363530708661417
21
-3.1171136220472442
0
LINE
8
BLACK
6
CONTINUOUS
10
6.2363530708661417
20
-3.1171136220472442
11
6.2422883070866142
21
-3.1131478346456691
0
LINE
8
BLACK
6
CONTINUOUS
10
6.2422883070866142
20
-3.1131478346456691
11
6.2473358267716534
21
-3.1081003149606299
0
LINE
8
BLACK
6
CONTINUOUS
10
6.2473358267716534
20
-3.1081003149606299
11
6.2513016141732285
21
-3.1021650787401573
0
LINE
8
BLACK
6
CONTINUOUS
10
6.2513016141732285
20
-3.1021650787401573
11
6.252533070866142
21
-3.0991920078740156
0
LINE
8
BLACK
6
CONTINUOUS
10
6.252533070866142
20
-3.0991920078740156
11
6.2509830314960633
21
-3.0965072440944881
0
LINE
8
BLACK
6
CONTINUOUS
10
6.2509830314960633
20
-3.0965072440944881
11
6.250013464566929
21
-3.0928887795275588
0
LINE
8
BLACK
6
CONTINUOUS
10
6.250013464566929
20
-3.0928887795275588
11
6.250013464566929
21
-3.089142716535433
0
LINE
8
BLACK
6
CONTINUOUS
10
6.250013464566929
20
-3.089142716535433
11
6.2500659055118106
21
-3.0889468897637795
0
LINE
8
BLACK
6
CONTINUOUS
10
6.2500659055118106
20
-3.0889468897637795
11
6.2500659055118106
21
-3.0817649999999999
0
LINE
8
BLACK
6
CONTINUOUS
10
6.2500659055118106
20
-3.0817649999999999
11
6.250470472440945
21
-3.0797310236220472
0
LINE
8
BLACK
6
CONTINUOUS
10
6.250470472440945
20
-3.0797310236220472
11
6.2516226377952755
21
-3.0780067322834643
0
LINE
8
BLACK
6
CONTINUOUS
10
6.2516226377952755
20
-3.0780067322834643
11
6.2533469291338584
21
-3.0768545669291338
0
LINE
8
BLACK
6
CONTINUOUS
10
6.2533469291338584
20
-3.0768545669291338
11
6.2553809448818898
21
-3.0764500393700787
0
LINE
8
BLACK
6
CONTINUOUS
10
6.2553809448818898
20
-3.0764500393700787
11
6.269950905511811
21
-3.0764499999999999
0
LINE
8
BLACK
6
CONTINUOUS
10
6.269950905511811
20
-3.0764499999999999
11
6.2710355905511808
21
-3.0766657480314961
0
LINE
8
BLACK
6
CONTINUOUS
10
6.2710355905511808
20
-3.0766657480314961
11
6.2871907086614174
21
-3.0766657480314961
0
LINE
8
BLACK
6
CONTINUOUS
10
6.2871907086614174
20
-3.0766657480314961
11
6.287962716535433
21
-3.0767163385826772
0
LINE
8
BLACK
6
CONTINUOUS
10
6.287962716535433
20
-3.0767163385826772
11
6.2883414173228349
21
-3.0766051574803148
0
LINE
8
BLACK
6
CONTINUOUS
10
6.2883414173228349
20
-3.0766051574803148
11
6.2926806299212599
21
-3.0766051574803148
0
LINE
8
BLACK
6
CONTINUOUS
10
6.2926806299212599
20
-3.0766051574803148
11
6.2968440157480314
21
-3.0778276771653541
0
LINE
8
BLACK
6
CONTINUOUS
10
6.2968440157480314
20
-3.0778276771653541
11
6.3004943700787397
21
-3.0801735826771655
0
LINE
8
BLACK
6
CONTINUOUS
10
6.3004943700787397
20
-3.0801735826771655
11
6.3033359448818898
21
-3.0834529133858268
0
LINE
8
BLACK
6
CONTINUOUS
10
6.3033359448818898
20
-3.0834529133858268
11
6.305138503937008
21
-3.0874000000000001
0
LINE
8
BLACK
6
CONTINUOUS
10
6.305138503937008
20
-3.0874000000000001
11
6.3057560236220471
21
-3.0916950000000001
0
LINE
8
BLACK
6
CONTINUOUS
10
6.3057560236220471
20
-3.0916950000000001
11
6.3057560236220471
21
-3.0940799212598424
0
LINE
8
BLACK
6
CONTINUOUS
10
6.3057560236220471
20
-3.0940799212598424
11
6.3069905905511812
21
-3.0986872834645669
0
LINE
8
BLACK
6
CONTINUOUS
10
6.3069905905511812
20
-3.0986872834645669
11
6.3093755118110231
21
-3.1028181102362202
0
LINE
8
BLACK
6
CONTINUOUS
10
6.3093755118110231
20
-3.1028181102362202
11
6.3127483070866139
21
-3.1061909055118111
0
LINE
8
BLACK
6
CONTINUOUS
10
6.3127483070866139
20
-3.1061909055118111
11
6.3168791338582677
21
-3.1085758267716534
0
LINE
8
BLACK
6
CONTINUOUS
10
6.3168791338582677
20
-3.1085758267716534
11
6.3214864960629917
21
-3.1098103937007875
0
LINE
8
BLACK
6
CONTINUOUS
10
6.3214864960629917
20
-3.1098103937007875
11
6.3262563385826773
21
-3.1098103937007875
0
LINE
8
BLACK
6
CONTINUOUS
10
6.3262563385826773
20
-3.1098103937007875
11
6.3308637007874013
21
-3.1085758267716534
0
LINE
8
BLACK
6
CONTINUOUS
10
6.3308637007874013
20
-3.1085758267716534
11
6.3349945275590551
21
-3.1061909055118111
0
LINE
8
BLACK
6
CONTINUOUS
10
6.3349945275590551
20
-3.1061909055118111
11
6.3383673228346451
21
-3.1028181102362202
0
LINE
8
BLACK
6
CONTINUOUS
10
6.3383673228346451
20
-3.1028181102362202
11
6.3400534251968503
21
-3.0998975984251969
0
LINE
8
BLACK
6
CONTINUOUS
10
6.3400534251968503
20
-3.0998975984251969
11
6.3397644488188973
21
-3.0972070866141732
0
LINE
8
BLACK
6
CONTINUOUS
10
6.3397644488188973
20
-3.0972070866141732
11
6.3406095669291336
21
-3.0917905511811021
0
LINE
8
BLACK
6
CONTINUOUS
10
6.3406095669291336
20
-3.0917905511811021
11
6.3428278740157475
21
-3.0867772440944883
0
LINE
8
BLACK
6
CONTINUOUS
10
6.3428278740157475
20
-3.0867772440944883
11
6.3429682677165351
21
-3.0866030314960629
0
LINE
8
BLACK
6
CONTINUOUS
10
6.3429682677165351
20
-3.0866030314960629
11
6.3444068897637793
21
-3.0834529133858268
0
LINE
8
BLACK
6
CONTINUOUS
10
6.3444068897637793
20
-3.0834529133858268
11
6.3446318110236222
21
-3.083193307086614
0
LINE
8
BLACK
6
CONTINUOUS
10
6.3446318110236222
20
-3.083193307086614
11
6.3446318110236222
21
-3.0817649999999999
0
LINE
8
BLACK
6
CONTINUOUS
10
6.3446318110236222
20
-3.0817649999999999
11
6.3450363779527557
21
-3.0797310236220472
0
LINE
8
BLACK
6
CONTINUOUS
10
6.3450363779527557
20
-3.0797310236220472
11
6.3461885433070861
21
-3.0780067322834643
0
LINE
8
BLACK
6
CONTINUOUS
10
6.3461885433070861
20
-3.0780067322834643
11
6.347912834645669
21
-3.0768545669291338
0
LINE
8
BLACK
6
CONTINUOUS
10
6.347912834645669
20
-3.0768545669291338
11
6.3499468503937004
21
-3.0764500393700787
0
LINE
8
BLACK
6
CONTINUOUS
10
6.3499468503937004
20
-3.0764500393700787
11
6.3645168110236217
21
-3.0764499999999999
0
LINE
8
BLACK
6
CONTINUOUS
10
6.3645168110236217
20
-3.0764499999999999
11
6.3665507874015743
21
-3.0768545669291338
0
LINE
8
BLACK
6
CONTINUOUS
10
6.3665507874015743
20
-3.0768545669291338
11
6.3682750787401572
21
-3.0780067322834643
0
LINE
8
BLACK
6
CONTINUOUS
10
6.3682750787401572
20
-3.0780067322834643
11
6.3683977559055114
21
-3.0781903149606298
0
LINE
8
BLACK
6
CONTINUOUS
10
6.3683977559055114
20
-3.0781903149606298
11
6.3692558661417324
21
-3.0785046850393698
0
LINE
8
BLACK
6
CONTINUOUS
10
6.3692558661417324
20
-3.0785046850393698
11
6.4014543700787403
21
-3.0927520078740156
0
LINE
8
BLACK
6
CONTINUOUS
10
6.4014543700787403
20
-3.0927520078740156
11
6.403379409448819
21
-3.093267834645669
0
LINE
8
BLACK
6
CONTINUOUS
10
6.403379409448819
20
-3.093267834645669
11
6.4081270472440943
21
-3.0960088582677163
0
LINE
8
BLACK
6
CONTINUOUS
10
6.4081270472440943
20
-3.0960088582677163
11
6.412003503937008
21
-3.09988531496063
0
LINE
8
BLACK
6
CONTINUOUS
10
6.412003503937008
20
-3.09988531496063
11
6.412124291338583
21
-3.100094527559055
0
LINE
8
BLACK
6
CONTINUOUS
10
6.412124291338583
20
-3.100094527559055
11
6.6530415748031491
21
-3.341011811023622
0
LINE
8
BLACK
6
CONTINUOUS
10
6.6530415748031491
20
-3.341011811023622
11
6.7243430708661416
21
-3.341011811023622
0
LINE
8
BLACK
6
CONTINUOUS
10
6.7243430708661416
20
-3.341011811023622
11
6.725105984251968
21
-3.3410618110236219
0
LINE
8
BLACK
6
CONTINUOUS
10
6.725105984251968
20
-3.3410618110236219
11
6.7452930708661416
21
-3.3410618110236219
0
LINE
8
BLACK
6
CONTINUOUS
10
6.7452930708661416
20
-3.3410618110236219
11
6.7452930708661416
21
-3.3829618110236219
0
LINE
8
BLACK
6
CONTINUOUS
10
6.7452930708661416
20
-3.3829618110236219
11
6.725105984251968
21
-3.3829618110236219
0
LINE
8
BLACK
6
CONTINUOUS
10
6.725105984251968
20
-3.3829618110236219
11
6.7243430708661416
21
-3.3830118110236218
0
LINE
8
BLACK
6
CONTINUOUS
10
6.7243430708661416
20
-3.3830118110236218
11
6.6443430708661415
21
-3.3830118110236218
0
LINE
8
BLACK
6
CONTINUOUS
10
6.6443430708661415
20
-3.3830118110236218
11
6.6416020078740159
21
-3.3828321653543307
0
LINE
8
BLACK
6
CONTINUOUS
10
6.6416020078740159
20
-3.3828321653543307
11
6.6363067322834643
21
-3.3814132677165354
0
LINE
8
BLACK
6
CONTINUOUS
10
6.6363067322834643
20
-3.3814132677165354
11
6.631559094488189
21
-3.3786722440944881
0
LINE
8
BLACK
6
CONTINUOUS
10
6.631559094488189
20
-3.3786722440944881
11
6.6294938188976378
21
-3.3768610629921261
0
LINE
8
BLACK
6
CONTINUOUS
10
6.6294938188976378
20
-3.3768610629921261
11
6.383263503937008
21
-3.1306307480314959
0
LINE
8
BLACK
6
CONTINUOUS
10
6.383263503937008
20
-3.1306307480314959
11
6.3622342519685038
21
-3.1213256299212597
0
LINE
8
BLACK
6
CONTINUOUS
10
6.3622342519685038
20
-3.1213256299212597
11
6.3611053149606294
21
-3.1229379527559056
0
LINE
8
BLACK
6
CONTINUOUS
10
6.3611053149606294
20
-3.1229379527559056
11
6.3551143700787396
21
-3.1289288976377954
0
LINE
8
BLACK
6
CONTINUOUS
10
6.3551143700787396
20
-3.1289288976377954
11
6.3481741338582678
21
-3.1337885039370077
0
LINE
8
BLACK
6
CONTINUOUS
10
6.3481741338582678
20
-3.1337885039370077
11
6.340495433070866
21
-3.1373691338582677
0
LINE
8
BLACK
6
CONTINUOUS
10
6.340495433070866
20
-3.1373691338582677
11
6.3323116535433073
21
-3.1395619685039371
0
LINE
8
BLACK
6
CONTINUOUS
10
6.3323116535433073
20
-3.1395619685039371
11
6.3238714173228345
21
-3.1403003937007874
0
LINE
8
BLACK
6
CONTINUOUS
10
6.3238714173228345
20
-3.1403003937007874
11
6.3154311811023618
21
-3.1395619685039371
0
LINE
8
BLACK
6
CONTINUOUS
10
6.3154311811023618
20
-3.1395619685039371
11
6.307247401574803
21
-3.1373691338582677
0
LINE
8
BLACK
6
CONTINUOUS
10
6.307247401574803
20
-3.1373691338582677
11
6.29956874015748
21
-3.1337885039370077
0
LINE
8
BLACK
6
CONTINUOUS
10
6.29956874015748
20
-3.1337885039370077
11
6.2926284645669286
21
-3.1289288976377954
0
LINE
8
BLACK
6
CONTINUOUS
10
6.2926284645669286
20
-3.1289288976377954
11
6.2866375196850388
21
-3.1229379527559056
0
LINE
8
BLACK
6
CONTINUOUS
10
6.2866375196850388
20
-3.1229379527559056
11
6.2817779133858265
21
-3.1159977165354329
0
LINE
8
BLACK
6
CONTINUOUS
10
6.2817779133858265
20
-3.1159977165354329
11
6.278197283464567
21
-3.1083190157480316
0
LINE
8
BLACK
6
CONTINUOUS
10
6.278197283464567
20
-3.1083190157480316
11
6.27740594488189
21
-3.1053657480314958
0
LINE
8
BLACK
6
CONTINUOUS
10
6.27740594488189
20
-3.1053657480314958
11
6.2654481889763778
21
-3.1053657480314958
0
LINE
8
BLACK
6
CONTINUOUS
10
6.2654481889763778
20
-3.1053657480314958
11
6.263793070866142
21
-3.10913905511811
0
LINE
8
BLACK
6
CONTINUOUS
10
6.263793070866142
20
-3.10913905511811
11
6.2592115354330708
21
-3.1161515748031494
0
LINE
8
BLACK
6
CONTINUOUS
10
6.2592115354330708
20
-3.1161515748031494
11
6.2535383070866137
21
-3.1223143700787399
0
LINE
8
BLACK
6
CONTINUOUS
10
6.2535383070866137
20
-3.1223143700787399
11
6.2469280708661419
21
-3.1274593307086613
0
LINE
8
BLACK
6
CONTINUOUS
10
6.2469280708661419
20
-3.1274593307086613
11
6.2395611417322829
21
-3.1314461023622044
0
LINE
8
BLACK
6
CONTINUOUS
10
6.2395611417322829
20
-3.1314461023622044
11
6.2316385039370079
21
-3.1341659448818895
0
LINE
8
BLACK
6
CONTINUOUS
10
6.2316385039370079
20
-3.1341659448818895
11
6.22337625984252
21
-3.13554468503937
0
LINE
8
BLACK
6
CONTINUOUS
10
6.22337625984252
20
-3.13554468503937
11
6.2149997244094486
21
-3.13554468503937
0
LINE
8
BLACK
6
CONTINUOUS
10
6.2149997244094486
20
-3.13554468503937
11
6.2067374803149606
21
-3.1341659448818895
0
LINE
8
BLACK
6
CONTINUOUS
10
6.2067374803149606
20
-3.1341659448818895
11
6.1988148425196847
21
-3.1314461023622044
0
LINE
8
BLACK
6
CONTINUOUS
10
6.1988148425196847
20
-3.1314461023622044
11
6.1914479133858267
21
-3.1274593307086613
0
LINE
8
BLACK
6
CONTINUOUS
10
6.1914479133858267
20
-3.1274593307086613
11
6.1848376771653539
21
-3.1223143700787399
0
LINE
8
BLACK
6
CONTINUOUS
10
6.1848376771653539
20
-3.1223143700787399
11
6.1791644488188977
21
-3.1161515748031494
0
LINE
8
BLACK
6
CONTINUOUS
10
6.1791644488188977
20
-3.1161515748031494
11
6.1745829133858265
21
-3.10913905511811
0
LINE
8
BLACK
6
CONTINUOUS
10
6.1745829133858265
20
-3.10913905511811
11
6.1712181102362207
21
-3.1014680708661415
0
LINE
8
BLACK
6
CONTINUOUS
10
6.1712181102362207
20
-3.1014680708661415
11
6.1691618110236215
21
-3.0933479133858266
0
LINE
8
BLACK
6
CONTINUOUS
10
6.1691618110236215
20
-3.0933479133858266
11
6.1687186614173228
21
-3.0880000000000001
0
LINE
8
BLACK
6
CONTINUOUS
10
6.1687186614173228
20
-3.0880000000000001
11
6.141
21
-3.0880000000000001
0
LINE
8
BLACK
6
CONTINUOUS
10
6.141
20
-3.0880000000000001
11
5.8839999999999995
21
-3.0880000000000001
0
LINE
8
BLACK
6
CONTINUOUS
10
5.8839999999999995
20
-3.0880000000000001
11
5.883237086614173
21
-3.0879499999999998
0
LINE
8
BLACK
6
CONTINUOUS
10
5.883237086614173
20
-3.0879499999999998
11
5.8630499999999994
21
-3.0879499999999998
0
LINE
8
BLACK
6
CONTINUOUS
10
5.8630499999999994
20
-3.0879499999999998
11
5.8630499999999994
21
-3.0460500000000001
0
LINE
8
BLACK
6
CONTINUOUS
10
5.8630499999999994
20
-3.0460500000000001
11
5.883237086614173
21
-3.0460500000000001
0
LINE
8
BLACK
6
CONTINUOUS
10
5.883237086614173
20
-3.0460500000000001
11
5.8839999999999995
21
-3.0459999999999998
0
LINE
8
BLACK
6
CONTINUOUS
10
5.8839999999999995
20
-3.0459999999999998
11
6.1640025984251965
21
-3.0459999999999998
0
LINE
8
BLACK
6
CONTINUOUS
10
6.1640025984251965
20
-3.0459999999999998
11
6.1687185826771653
21
-3.0459999999999998
0
LINE
8
BLACK
6
CONTINUOUS
10
6.1687185826771653
20
-3.0459999999999998
11
6.169161732283464
21
-3.0406520866141733
0
LINE
8
BLACK
6
CONTINUOUS
10
6.169161732283464
20
-3.0406520866141733
11
6.1712180314960632
21
-3.0325318897637796
0
LINE
8
BLACK
6
CONTINUOUS
10
6.1712180314960632
20
-3.0325318897637796
11
6.174582834645669
21
-3.0248609055118107
0
LINE
8
BLACK
6
CONTINUOUS
10
6.174582834645669
20
-3.0248609055118107
11
6.1791643700787402
21
-3.017848346456693
0
LINE
8
BLACK
6
CONTINUOUS
10
6.1791643700787402
20
-3.017848346456693
11
6.1848376377952752
21
-3.0116855511811025
0
LINE
8
BLACK
6
CONTINUOUS
10
6.1848376377952752
20
-3.0116855511811025
11
6.1914478740157479
21
-3.0065405905511811
0
LINE
8
BLACK
6
CONTINUOUS
10
6.1914478740157479
20
-3.0065405905511811
11
6.198814803149606
21
-3.0025538188976375
0
LINE
8
BLACK
6
CONTINUOUS
10
6.198814803149606
20
-3.0025538188976375
11
6.2067374803149606
21
-2.9998339763779529
0
LINE
8
BLACK
6
CONTINUOUS
10
6.2067374803149606
20
-2.9998339763779529
11
6.2149997244094486
21
-2.9984552362204724
0
LINE
8
BLACK
6
CONTINUOUS
10
6.2149997244094486
20
-2.9984552362204724
11
6.22337625984252
21
-2.9984552362204724
0
LINE
8
BLACK
6
CONTINUOUS
10
6.22337625984252
20
-2.9984552362204724
11
6.2316385039370079
21
-2.9998339763779529
0
LINE
8
BLACK
6
CONTINUOUS
10
6.2316385039370079
20
-2.9998339763779529
11
6.2395611811023617
21
-3.0025538188976375
0
LINE
8
BLACK
6
CONTINUOUS
10
6.2395611811023617
20
-3.0025538188976375
11
6.2469281102362206
21
-3.0065405905511811
0
LINE
8
BLACK
6
CONTINUOUS
10
6.2469281102362206
20
-3.0065405905511811
11
6.2535383464566925
21
-3.0116855511811025
0
LINE
8
BLACK
6
CONTINUOUS
10
6.2535383464566925
20
-3.0116855511811025
11
6.2592116141732284
21
-3.017848346456693
0
LINE
8
BLACK
6
CONTINUOUS
10
6.2592116141732284
20
-3.017848346456693
11
6.2637931496062986
21
-3.0248609055118107
0
LINE
8
BLACK
6
CONTINUOUS
10
6.2637931496062986
20
-3.0248609055118107
11
6.265419330708661
21
-3.0285682677165355
0
LINE
8
BLACK
6
CONTINUOUS
10
6.265419330708661
20
-3.0285682677165355
11
6.2773629527559054
21
-3.0287941732283463
0
LINE
8
BLACK
6
CONTINUOUS
10
6.2773629527559054
20
-3.0287941732283463
11
6.2781971653543307
21
-3.0256809448818895
0
LINE
8
BLACK
6
CONTINUOUS
10
6.2781971653543307
20
-3.0256809448818895
11
6.2817777952755902
21
-3.0180022440944883
0
LINE
8
BLACK
6
CONTINUOUS
10
6.2817777952755902
20
-3.0180022440944883
11
6.2866374409448813
21
-3.0110619685039368
0
LINE
8
BLACK
6
CONTINUOUS
10
6.2866374409448813
20
-3.0110619685039368
11
6.2926283858267711
21
-3.005071023622047
0
LINE
8
BLACK
6
CONTINUOUS
10
6.2926283858267711
20
-3.005071023622047
11
6.2995686614173225
21
-3.0002113779527559
0
LINE
8
BLACK
6
CONTINUOUS
10
6.2995686614173225
20
-3.0002113779527559
11
6.3072473622047243
21
-2.996630748031496
0
LINE
8
BLACK
6
CONTINUOUS
10
6.3072473622047243
20
-2.996630748031496
11
6.315431141732283
21
-2.9944379133858265
0
LINE
8
BLACK
6
CONTINUOUS
10
6.315431141732283
20
-2.9944379133858265
11
6.3238714173228345
21
-2.9936994881889762
0
LINE
8
BLACK
6
CONTINUOUS
10
6.3238714173228345
20
-2.9936994881889762
11
6.332311692913386
21
-2.9944379133858265
0
LINE
8
BLACK
6
CONTINUOUS
10
6.332311692913386
20
-2.9944379133858265
11
6.3404954724409448
21
-2.996630748031496
0
LINE
8
BLACK
6
CONTINUOUS
10
6.3404954724409448
20
-2.996630748031496
11
6.3481741732283465
21
-3.0002113779527559
0
LINE
8
BLACK
6
CONTINUOUS
10
6.3481741732283465
20
-3.0002113779527559
11
6.3551144488188971
21
-3.005071023622047
0
LINE
8
BLACK
6
CONTINUOUS
10
6.3551144488188971
20
-3.005071023622047
11
6.3611053937007869
21
-3.0110619685039368
0
LINE
8
BLACK
6
CONTINUOUS
10
6.3611053937007869
20
-3.0110619685039368
11
6.3627657480314959
21
-3.0134331889763777
0
LINE
8
BLACK
6
CONTINUOUS
10
6.3627657480314959
20
-3.0134331889763777
11
6.3856257086614168
21
-3.0033180314960628
0
LINE
8
BLACK
6
CONTINUOUS
10
6.3856257086614168
20
-3.0033180314960628
11
6.6318560236220474
21
-2.7570877559055118
0
LINE
8
BLACK
6
CONTINUOUS
10
6.6318560236220474
20
-2.7570877559055118
11
6.6339212992125987
21
-2.7552765748031494
0
LINE
8
BLACK
6
CONTINUOUS
10
6.6339212992125987
20
-2.7552765748031494
11
6.638668937007874
21
-2.7525355511811025
0
LINE
8
BLACK
6
CONTINUOUS
10
6.638668937007874
20
-2.7525355511811025
11
6.6439642125984246
21
-2.7511166535433071
0
LINE
8
BLACK
6
CONTINUOUS
10
6.6439642125984246
20
-2.7511166535433071
11
6.6467052755905511
21
-2.7509370078740156
0
LINE
8
BLACK
6
CONTINUOUS
10
6.6467052755905511
20
-2.7509370078740156
11
6.7267052755905512
21
-2.7509370078740156
0
LINE
8
BLACK
6
CONTINUOUS
10
6.7267052755905512
20
-2.7509370078740156
11
6.7274681889763777
21
-2.7509870078740155
  0
ENDSEC
  0
EOF
