%TF.GenerationSoftware,KiCad,Pcbnew,9.0.4*%
%TF.CreationDate,2025-09-21T01:41:50-07:00*%
%TF.ProjectId,Wilkinson PD,57696c6b-696e-4736-9f6e-2050442e6b69,rev?*%
%TF.SameCoordinates,Original*%
%TF.FileFunction,Copper,L1,Top*%
%TF.FilePolarity,Positive*%
%FSLAX46Y46*%
G04 Gerber Fmt 4.6, Leading zero omitted, Abs format (unit mm)*
G04 Created by KiCad (PCBNEW 9.0.4) date 2025-09-21 01:41:50*
%MOMM*%
%LPD*%
G01*
G04 APERTURE LIST*
G04 Aperture macros list*
%AMRoundRect*
0 Rectangle with rounded corners*
0 $1 Rounding radius*
0 $2 $3 $4 $5 $6 $7 $8 $9 X,Y pos of 4 corners*
0 Add a 4 corners polygon primitive as box body*
4,1,4,$2,$3,$4,$5,$6,$7,$8,$9,$2,$3,0*
0 Add four circle primitives for the rounded corners*
1,1,$1+$1,$2,$3*
1,1,$1+$1,$4,$5*
1,1,$1+$1,$6,$7*
1,1,$1+$1,$8,$9*
0 Add four rect primitives between the rounded corners*
20,1,$1+$1,$2,$3,$4,$5,0*
20,1,$1+$1,$4,$5,$6,$7,0*
20,1,$1+$1,$6,$7,$8,$9,0*
20,1,$1+$1,$8,$9,$2,$3,0*%
G04 Aperture macros list end*
%ADD10C,0.200000*%
%ADD11C,1.112520*%
%TA.AperFunction,Conductor*%
%ADD12C,1.112520*%
%TD*%
%TA.AperFunction,EtchedComponent*%
%ADD13C,0.772160*%
%TD*%
%TA.AperFunction,EtchedComponent*%
%ADD14C,0.436880*%
%TD*%
%TA.AperFunction,EtchedComponent*%
%ADD15C,1.112520*%
%TD*%
%TA.AperFunction,SMDPad,CuDef*%
%ADD16RoundRect,0.135001X-0.185039X-0.135001X0.185039X-0.135001X0.185039X0.135001X-0.185039X0.135001X0*%
%TD*%
%TA.AperFunction,SMDPad,CuDef*%
%ADD17C,1.112520*%
%TD*%
%TA.AperFunction,SMDPad,CuDef*%
%ADD18R,1.112520X1.112520*%
%TD*%
%TA.AperFunction,SMDPad,CuDef*%
%ADD19RoundRect,0.166878X0.389382X0.389382X-0.389382X0.389382X-0.389382X-0.389382X0.389382X-0.389382X0*%
%TD*%
%TA.AperFunction,SMDPad,CuDef*%
%ADD20RoundRect,0.166878X-0.389382X-0.389382X0.389382X-0.389382X0.389382X0.389382X-0.389382X0.389382X0*%
%TD*%
G04 APERTURE END LIST*
D10*
X171180760Y-76659740D02*
X171180760Y-76659740D01*
X171180760Y-76659740D02*
X171180760Y-76659740D01*
D11*
X176352200Y-72908160D02*
X179941220Y-72913240D01*
D10*
X171180760Y-76659740D02*
X171180760Y-76659740D01*
D12*
X154025600Y-77581760D02*
X146085560Y-77574140D01*
D11*
X176352200Y-82240120D02*
X179941220Y-82235040D01*
X171180760Y-76659740D02*
X171194494Y-76655282D01*
X171208179Y-76650820D01*
X171221806Y-76646355D01*
X171235384Y-76641885D01*
X171248905Y-76637414D01*
X171262376Y-76632937D01*
X171275791Y-76628458D01*
X171289157Y-76623975D01*
X171302466Y-76619489D01*
X171315728Y-76614998D01*
X171328933Y-76610506D01*
X171342090Y-76606008D01*
X171355192Y-76601509D01*
X171368245Y-76597004D01*
X171381244Y-76592498D01*
X171394195Y-76587987D01*
X171407092Y-76583474D01*
X171419941Y-76578956D01*
X171432737Y-76574436D01*
X171445485Y-76569911D01*
X171458180Y-76565385D01*
X171470827Y-76560853D01*
X171483422Y-76556320D01*
X171495970Y-76551782D01*
X171508465Y-76547242D01*
X171520915Y-76542698D01*
X171533312Y-76538151D01*
X171545662Y-76533600D01*
X171557961Y-76529047D01*
X171570215Y-76524489D01*
X171582417Y-76519929D01*
X171594573Y-76515365D01*
X171606679Y-76510798D01*
X171618739Y-76506228D01*
X171630749Y-76501655D01*
X171642714Y-76497078D01*
X171654629Y-76492498D01*
X171666499Y-76487914D01*
X171678320Y-76483328D01*
X171690096Y-76478738D01*
X171701823Y-76474146D01*
X171713506Y-76469549D01*
X171725140Y-76464951D01*
X171736730Y-76460348D01*
X171748272Y-76455742D01*
X171759771Y-76451133D01*
X171771221Y-76446521D01*
X171782628Y-76441906D01*
X171793988Y-76437287D01*
X171805304Y-76432665D01*
X171816574Y-76428041D01*
X171827800Y-76423412D01*
X171838980Y-76418781D01*
X171850117Y-76414147D01*
X171861208Y-76409509D01*
X171872257Y-76404868D01*
X171883260Y-76400225D01*
X171894221Y-76395577D01*
X171905136Y-76390927D01*
X171916010Y-76386273D01*
X171926838Y-76381617D01*
X171937625Y-76376957D01*
X171948368Y-76372294D01*
X171959069Y-76367628D01*
X171969726Y-76362959D01*
X171980342Y-76358286D01*
X171990914Y-76353610D01*
X172001445Y-76348931D01*
X172011934Y-76344249D01*
X172022381Y-76339564D01*
X172032785Y-76334876D01*
X172043149Y-76330184D01*
X172053471Y-76325489D01*
X172063752Y-76320791D01*
X172073992Y-76316090D01*
X172084191Y-76311385D01*
X172094349Y-76306678D01*
X172104467Y-76301967D01*
X172114544Y-76297253D01*
X172124581Y-76292536D01*
X172134578Y-76287815D01*
X172144535Y-76283092D01*
X172154452Y-76278365D01*
X172164329Y-76273635D01*
X172174167Y-76268901D01*
X172183966Y-76264165D01*
X172193726Y-76259425D01*
X172203446Y-76254682D01*
X172213128Y-76249935D01*
X172222771Y-76245186D01*
X172232376Y-76240433D01*
X172241942Y-76235676D01*
X172251470Y-76230917D01*
X172260960Y-76226154D01*
X172270412Y-76221388D01*
X172279826Y-76216618D01*
X172289202Y-76211845D01*
X172298541Y-76207069D01*
X172307844Y-76202290D01*
X172317108Y-76197507D01*
X172326336Y-76192720D01*
X172335527Y-76187931D01*
X172344681Y-76183138D01*
X172353798Y-76178341D01*
X172362880Y-76173541D01*
X172371925Y-76168738D01*
X172380934Y-76163931D01*
X172389907Y-76159121D01*
X172398844Y-76154307D01*
X172407745Y-76149491D01*
X172416612Y-76144670D01*
X172425442Y-76139846D01*
X172434238Y-76135018D01*
X172442998Y-76130187D01*
X172451725Y-76125352D01*
X172460415Y-76120514D01*
X172469072Y-76115671D01*
X172477693Y-76110826D01*
X172486281Y-76105976D01*
X172494834Y-76101124D01*
X172503354Y-76096267D01*
X172511839Y-76091407D01*
X172520291Y-76086543D01*
X172528709Y-76081676D01*
X172537094Y-76076804D01*
X172545445Y-76071930D01*
X172553764Y-76067050D01*
X172562049Y-76062168D01*
X172570302Y-76057281D01*
X172578521Y-76052392D01*
X172586709Y-76047497D01*
X172594863Y-76042600D01*
X172602987Y-76037697D01*
X172611076Y-76032792D01*
X172619136Y-76027881D01*
X172627161Y-76022968D01*
X172635157Y-76018050D01*
X172643119Y-76013129D01*
X172651052Y-76008202D01*
X172658952Y-76003273D01*
X172666822Y-75998338D01*
X172674659Y-75993401D01*
X172682468Y-75988458D01*
X172690244Y-75983513D01*
X172697992Y-75978561D01*
X172705706Y-75973607D01*
X172713393Y-75968647D01*
X172721047Y-75963685D01*
X172728674Y-75958716D01*
X172736268Y-75953745D01*
X172743835Y-75948767D01*
X172751370Y-75943788D01*
X172758878Y-75938801D01*
X172766354Y-75933813D01*
X172773804Y-75928817D01*
X172781221Y-75923819D01*
X172788613Y-75918815D01*
X172795973Y-75913808D01*
X172803307Y-75908794D01*
X172810610Y-75903778D01*
X172817888Y-75898754D01*
X172825133Y-75893729D01*
X172832355Y-75888696D01*
X172839545Y-75883661D01*
X172846711Y-75878618D01*
X172853845Y-75873573D01*
X172860955Y-75868520D01*
X172868034Y-75863465D01*
X172875090Y-75858402D01*
X172882115Y-75853338D01*
X172889117Y-75848264D01*
X172896088Y-75843189D01*
X172903036Y-75838106D01*
X172909954Y-75833020D01*
X172916849Y-75827926D01*
X172923713Y-75822830D01*
X172937369Y-75812618D01*
X172950920Y-75802384D01*
X172964369Y-75792127D01*
X172977716Y-75781848D01*
X172990963Y-75771546D01*
X173004111Y-75761219D01*
X173017160Y-75750869D01*
X173030112Y-75740494D01*
X173042968Y-75730094D01*
X173055728Y-75719668D01*
X173068395Y-75709216D01*
X173080969Y-75698738D01*
X173093451Y-75688232D01*
X173105842Y-75677699D01*
X173118144Y-75667137D01*
X173130357Y-75656546D01*
X173142482Y-75645925D01*
X173154521Y-75635274D01*
X173166475Y-75624593D01*
X173178345Y-75613879D01*
X173190131Y-75603133D01*
X173201836Y-75592355D01*
X173213460Y-75581542D01*
X173225004Y-75570694D01*
X173236469Y-75559812D01*
X173247857Y-75548892D01*
X173259168Y-75537936D01*
X173270405Y-75526941D01*
X173281567Y-75515908D01*
X173292657Y-75504834D01*
X173303675Y-75493719D01*
X173314623Y-75482562D01*
X173325501Y-75471362D01*
X173336312Y-75460117D01*
X173347055Y-75448827D01*
X173357734Y-75437490D01*
X173368348Y-75426105D01*
X173378900Y-75414670D01*
X173389390Y-75403185D01*
X173399819Y-75391647D01*
X173410191Y-75380056D01*
X173420504Y-75368409D01*
X173430762Y-75356705D01*
X173440966Y-75344943D01*
X173451117Y-75333120D01*
X173461216Y-75321234D01*
X173471266Y-75309284D01*
X173481267Y-75297268D01*
X173491222Y-75285182D01*
X173501133Y-75273026D01*
X173511001Y-75260797D01*
X173520827Y-75248491D01*
X173530615Y-75236107D01*
X173540366Y-75223641D01*
X173550082Y-75211091D01*
X173559765Y-75198453D01*
X173569417Y-75185724D01*
X173579042Y-75172900D01*
X173588641Y-75159978D01*
X173598217Y-75146953D01*
X173607774Y-75133821D01*
X173617313Y-75120578D01*
X173626838Y-75107218D01*
X173636352Y-75093736D01*
X173645859Y-75080127D01*
X173655363Y-75066384D01*
X173664868Y-75052499D01*
X173674378Y-75038467D01*
X173683898Y-75024279D01*
X173693432Y-75009926D01*
X173702987Y-74995399D01*
X173712569Y-74980686D01*
X173722185Y-74965778D01*
X173731841Y-74950659D01*
X173741546Y-74935317D01*
X173751309Y-74919734D01*
X173761141Y-74903893D01*
X173771053Y-74887773D01*
X173781059Y-74871350D01*
X173791173Y-74854596D01*
X173801414Y-74837480D01*
X173811803Y-74819963D01*
X173822364Y-74802002D01*
X173833127Y-74783541D01*
X173844129Y-74764515D01*
X173855416Y-74744839D01*
X173867046Y-74724407D01*
X173879098Y-74703077D01*
X173891678Y-74680655D01*
X173904938Y-74656863D01*
X173919113Y-74631272D01*
X173934600Y-74603154D01*
X173952185Y-74571076D01*
X173973934Y-74531260D01*
X173983537Y-74513657D01*
X174001115Y-74481441D01*
X174018660Y-74449348D01*
X174027430Y-74433349D01*
X174036204Y-74417383D01*
X174044985Y-74401451D01*
X174053777Y-74385552D01*
X174062585Y-74369687D01*
X174071412Y-74353858D01*
X174080262Y-74338065D01*
X174089140Y-74322308D01*
X174098048Y-74306588D01*
X174106992Y-74290905D01*
X174115974Y-74275261D01*
X174124999Y-74259656D01*
X174134071Y-74244090D01*
X174143194Y-74228565D01*
X174152371Y-74213080D01*
X174161607Y-74197637D01*
X174170906Y-74182236D01*
X174175580Y-74174551D01*
X174180271Y-74166877D01*
X174184979Y-74159214D01*
X174189706Y-74151561D01*
X174194451Y-74143920D01*
X174199215Y-74136290D01*
X174203999Y-74128671D01*
X174208803Y-74121063D01*
X174213628Y-74113466D01*
X174218473Y-74105881D01*
X174223340Y-74098307D01*
X174228229Y-74090745D01*
X174233141Y-74083194D01*
X174238075Y-74075655D01*
X174243033Y-74068128D01*
X174248015Y-74060612D01*
X174253022Y-74053109D01*
X174258053Y-74045617D01*
X174263110Y-74038138D01*
X174268193Y-74030670D01*
X174273302Y-74023215D01*
X174278438Y-74015773D01*
X174283602Y-74008342D01*
X174288793Y-74000924D01*
X174294013Y-73993519D01*
X174299262Y-73986126D01*
X174304540Y-73978746D01*
X174309849Y-73971378D01*
X174315187Y-73964024D01*
X174320556Y-73956682D01*
X174325957Y-73949354D01*
X174331389Y-73942038D01*
X174336854Y-73934736D01*
X174342352Y-73927446D01*
X174347883Y-73920171D01*
X174353448Y-73912908D01*
X174359047Y-73905659D01*
X174364681Y-73898424D01*
X174370350Y-73891202D01*
X174376055Y-73883994D01*
X174381796Y-73876800D01*
X174387574Y-73869619D01*
X174393389Y-73862453D01*
X174399242Y-73855300D01*
X174405133Y-73848162D01*
X174411063Y-73841038D01*
X174417032Y-73833928D01*
X174423041Y-73826832D01*
X174429090Y-73819751D01*
X174435179Y-73812684D01*
X174441310Y-73805632D01*
X174447483Y-73798594D01*
X174453697Y-73791572D01*
X174459955Y-73784564D01*
X174466255Y-73777571D01*
X174472599Y-73770592D01*
X174478987Y-73763629D01*
X174485420Y-73756681D01*
X174491898Y-73749748D01*
X174498422Y-73742831D01*
X174504991Y-73735928D01*
X174511607Y-73729042D01*
X174518271Y-73722170D01*
X174524982Y-73715315D01*
X174531740Y-73708474D01*
X174538548Y-73701650D01*
X174545404Y-73694842D01*
X174552310Y-73688049D01*
X174559266Y-73681272D01*
X174566273Y-73674512D01*
X174573331Y-73667767D01*
X174580440Y-73661039D01*
X174587601Y-73654327D01*
X174594814Y-73647631D01*
X174602081Y-73640952D01*
X174609400Y-73634289D01*
X174616774Y-73627643D01*
X174624203Y-73621013D01*
X174631686Y-73614401D01*
X174639225Y-73607805D01*
X174646819Y-73601226D01*
X174654470Y-73594664D01*
X174662178Y-73588119D01*
X174669943Y-73581591D01*
X174677767Y-73575081D01*
X174685648Y-73568587D01*
X174693589Y-73562111D01*
X174701588Y-73555653D01*
X174709648Y-73549212D01*
X174717768Y-73542789D01*
X174725949Y-73536383D01*
X174734191Y-73529995D01*
X174742495Y-73523625D01*
X174750861Y-73517273D01*
X174759290Y-73510939D01*
X174767782Y-73504623D01*
X174776338Y-73498325D01*
X174784959Y-73492045D01*
X174793644Y-73485784D01*
X174802394Y-73479541D01*
X174811210Y-73473316D01*
X174820093Y-73467111D01*
X174829042Y-73460923D01*
X174838058Y-73454755D01*
X174847142Y-73448605D01*
X174856294Y-73442474D01*
X174865515Y-73436362D01*
X174874805Y-73430269D01*
X174884165Y-73424195D01*
X174893595Y-73418140D01*
X174903096Y-73412104D01*
X174912667Y-73406088D01*
X174922311Y-73400091D01*
X174932026Y-73394114D01*
X174941814Y-73388156D01*
X174951676Y-73382218D01*
X174961610Y-73376300D01*
X174971619Y-73370401D01*
X174981703Y-73364522D01*
X174991861Y-73358663D01*
X175002096Y-73352825D01*
X175012406Y-73347006D01*
X175022793Y-73341208D01*
X175033256Y-73335429D01*
X175043798Y-73329671D01*
X175054417Y-73323934D01*
X175065115Y-73318217D01*
X175075892Y-73312521D01*
X175086748Y-73306845D01*
X175097685Y-73301190D01*
X175108702Y-73295556D01*
X175119800Y-73289942D01*
X175130979Y-73284350D01*
X175142240Y-73278778D01*
X175153584Y-73273228D01*
X175165011Y-73267699D01*
X175176521Y-73262192D01*
X175188115Y-73256705D01*
X175199793Y-73251240D01*
X175211557Y-73245797D01*
X175223405Y-73240375D01*
X175235340Y-73234975D01*
X175247361Y-73229596D01*
X175259469Y-73224240D01*
X175271664Y-73218905D01*
X175283947Y-73213592D01*
X175296319Y-73208302D01*
X175308779Y-73203033D01*
X175321329Y-73197787D01*
X175333968Y-73192563D01*
X175346698Y-73187361D01*
X175359518Y-73182182D01*
X175372430Y-73177025D01*
X175385434Y-73171891D01*
X175398530Y-73166779D01*
X175411719Y-73161691D01*
X175425000Y-73156625D01*
X175438376Y-73151582D01*
X175451846Y-73146562D01*
X175465411Y-73141565D01*
X175479071Y-73136592D01*
X175492826Y-73131641D01*
X175506678Y-73126714D01*
X175520626Y-73121810D01*
X175534672Y-73116930D01*
X175548816Y-73112073D01*
X175563057Y-73107240D01*
X175577397Y-73102430D01*
X175591837Y-73097645D01*
X175606376Y-73092883D01*
X175621015Y-73088145D01*
X175635755Y-73083431D01*
X175650595Y-73078741D01*
X175665538Y-73074076D01*
X175680583Y-73069434D01*
X175695730Y-73064817D01*
X175710980Y-73060224D01*
X175726334Y-73055656D01*
X175741792Y-73051113D01*
X175757354Y-73046594D01*
X175773022Y-73042099D01*
X175788795Y-73037630D01*
X175804674Y-73033185D01*
X175820660Y-73028765D01*
X175836752Y-73024371D01*
X175852953Y-73020001D01*
X175869261Y-73015657D01*
X175885677Y-73011337D01*
X175902203Y-73007044D01*
X175918838Y-73002775D01*
X175935583Y-72998532D01*
X175952439Y-72994315D01*
X175969405Y-72990123D01*
X175986483Y-72985957D01*
X176003673Y-72981817D01*
X176020975Y-72977703D01*
X176038390Y-72973614D01*
X176055919Y-72969552D01*
X176073561Y-72965516D01*
X176091318Y-72961506D01*
X176109190Y-72957522D01*
X176127177Y-72953565D01*
X176145280Y-72949634D01*
X176163499Y-72945729D01*
X176181836Y-72941852D01*
X176200289Y-72938000D01*
X176218860Y-72934176D01*
X176237550Y-72930378D01*
X176256358Y-72926608D01*
X176275286Y-72922864D01*
X176294334Y-72919147D01*
X176313502Y-72915457D01*
X176332790Y-72911795D01*
X176352200Y-72908160D01*
X171180760Y-78488540D02*
X171194494Y-78492998D01*
X171208179Y-78497460D01*
X171221806Y-78501925D01*
X171235384Y-78506395D01*
X171248905Y-78510866D01*
X171262376Y-78515343D01*
X171275791Y-78519822D01*
X171289157Y-78524305D01*
X171302466Y-78528791D01*
X171315728Y-78533282D01*
X171328933Y-78537774D01*
X171342090Y-78542272D01*
X171355192Y-78546771D01*
X171368245Y-78551276D01*
X171381244Y-78555782D01*
X171394195Y-78560293D01*
X171407092Y-78564806D01*
X171419941Y-78569324D01*
X171432737Y-78573844D01*
X171445485Y-78578369D01*
X171458180Y-78582895D01*
X171470827Y-78587427D01*
X171483422Y-78591960D01*
X171495970Y-78596498D01*
X171508465Y-78601038D01*
X171520915Y-78605582D01*
X171533312Y-78610129D01*
X171545662Y-78614680D01*
X171557961Y-78619233D01*
X171570215Y-78623791D01*
X171582417Y-78628351D01*
X171594573Y-78632915D01*
X171606679Y-78637482D01*
X171618739Y-78642052D01*
X171630749Y-78646625D01*
X171642714Y-78651202D01*
X171654629Y-78655782D01*
X171666499Y-78660366D01*
X171678320Y-78664952D01*
X171690096Y-78669542D01*
X171701823Y-78674134D01*
X171713506Y-78678731D01*
X171725140Y-78683329D01*
X171736730Y-78687932D01*
X171748272Y-78692538D01*
X171759771Y-78697147D01*
X171771221Y-78701759D01*
X171782628Y-78706374D01*
X171793988Y-78710993D01*
X171805304Y-78715615D01*
X171816574Y-78720239D01*
X171827800Y-78724868D01*
X171838980Y-78729499D01*
X171850117Y-78734133D01*
X171861208Y-78738771D01*
X171872257Y-78743412D01*
X171883260Y-78748055D01*
X171894221Y-78752703D01*
X171905136Y-78757353D01*
X171916010Y-78762007D01*
X171926838Y-78766663D01*
X171937625Y-78771323D01*
X171948368Y-78775986D01*
X171959069Y-78780652D01*
X171969726Y-78785321D01*
X171980342Y-78789994D01*
X171990914Y-78794670D01*
X172001445Y-78799349D01*
X172011934Y-78804031D01*
X172022381Y-78808716D01*
X172032785Y-78813404D01*
X172043149Y-78818096D01*
X172053471Y-78822791D01*
X172063752Y-78827489D01*
X172073992Y-78832190D01*
X172084191Y-78836895D01*
X172094349Y-78841602D01*
X172104467Y-78846313D01*
X172114544Y-78851027D01*
X172124581Y-78855744D01*
X172134578Y-78860465D01*
X172144535Y-78865188D01*
X172154452Y-78869915D01*
X172164329Y-78874645D01*
X172174167Y-78879379D01*
X172183966Y-78884115D01*
X172193726Y-78888855D01*
X172203446Y-78893598D01*
X172213128Y-78898345D01*
X172222771Y-78903094D01*
X172232376Y-78907847D01*
X172241942Y-78912604D01*
X172251470Y-78917363D01*
X172260960Y-78922126D01*
X172270412Y-78926892D01*
X172279826Y-78931662D01*
X172289202Y-78936435D01*
X172298541Y-78941211D01*
X172307844Y-78945990D01*
X172317108Y-78950773D01*
X172326336Y-78955560D01*
X172335527Y-78960349D01*
X172344681Y-78965142D01*
X172353798Y-78969939D01*
X172362880Y-78974739D01*
X172371925Y-78979542D01*
X172380934Y-78984349D01*
X172389907Y-78989159D01*
X172398844Y-78993973D01*
X172407745Y-78998789D01*
X172416612Y-79003610D01*
X172425442Y-79008434D01*
X172434238Y-79013262D01*
X172442998Y-79018093D01*
X172451725Y-79022928D01*
X172460415Y-79027766D01*
X172469072Y-79032609D01*
X172477693Y-79037454D01*
X172486281Y-79042304D01*
X172494834Y-79047156D01*
X172503354Y-79052013D01*
X172511839Y-79056873D01*
X172520291Y-79061737D01*
X172528709Y-79066604D01*
X172537094Y-79071476D01*
X172545445Y-79076350D01*
X172553764Y-79081230D01*
X172562049Y-79086112D01*
X172570302Y-79090999D01*
X172578521Y-79095888D01*
X172586709Y-79100783D01*
X172594863Y-79105680D01*
X172602987Y-79110583D01*
X172611076Y-79115488D01*
X172619136Y-79120399D01*
X172627161Y-79125312D01*
X172635157Y-79130230D01*
X172643119Y-79135151D01*
X172651052Y-79140078D01*
X172658952Y-79145007D01*
X172666822Y-79149942D01*
X172674659Y-79154879D01*
X172682468Y-79159822D01*
X172690244Y-79164767D01*
X172697992Y-79169719D01*
X172705706Y-79174673D01*
X172713393Y-79179633D01*
X172721047Y-79184595D01*
X172728674Y-79189564D01*
X172736268Y-79194535D01*
X172743835Y-79199513D01*
X172751370Y-79204492D01*
X172758878Y-79209479D01*
X172766354Y-79214467D01*
X172773804Y-79219463D01*
X172781221Y-79224461D01*
X172788613Y-79229465D01*
X172795973Y-79234472D01*
X172803307Y-79239486D01*
X172810610Y-79244502D01*
X172817888Y-79249526D01*
X172825133Y-79254551D01*
X172832355Y-79259584D01*
X172839545Y-79264619D01*
X172846711Y-79269662D01*
X172853845Y-79274707D01*
X172860955Y-79279760D01*
X172868034Y-79284815D01*
X172875090Y-79289878D01*
X172882115Y-79294942D01*
X172889117Y-79300016D01*
X172896088Y-79305091D01*
X172903036Y-79310174D01*
X172909954Y-79315260D01*
X172916849Y-79320354D01*
X172923713Y-79325450D01*
X172937369Y-79335662D01*
X172950920Y-79345896D01*
X172964369Y-79356153D01*
X172977716Y-79366432D01*
X172990963Y-79376734D01*
X173004111Y-79387061D01*
X173017160Y-79397411D01*
X173030112Y-79407786D01*
X173042968Y-79418186D01*
X173055728Y-79428612D01*
X173068395Y-79439064D01*
X173080969Y-79449542D01*
X173093451Y-79460048D01*
X173105842Y-79470581D01*
X173118144Y-79481143D01*
X173130357Y-79491734D01*
X173142482Y-79502355D01*
X173154521Y-79513006D01*
X173166475Y-79523687D01*
X173178345Y-79534401D01*
X173190131Y-79545147D01*
X173201836Y-79555925D01*
X173213460Y-79566738D01*
X173225004Y-79577586D01*
X173236469Y-79588468D01*
X173247857Y-79599388D01*
X173259168Y-79610344D01*
X173270405Y-79621339D01*
X173281567Y-79632372D01*
X173292657Y-79643446D01*
X173303675Y-79654561D01*
X173314623Y-79665718D01*
X173325501Y-79676918D01*
X173336312Y-79688163D01*
X173347055Y-79699453D01*
X173357734Y-79710790D01*
X173368348Y-79722175D01*
X173378900Y-79733610D01*
X173389390Y-79745095D01*
X173399819Y-79756633D01*
X173410191Y-79768224D01*
X173420504Y-79779871D01*
X173430762Y-79791575D01*
X173440966Y-79803337D01*
X173451117Y-79815160D01*
X173461216Y-79827046D01*
X173471266Y-79838996D01*
X173481267Y-79851012D01*
X173491222Y-79863098D01*
X173501133Y-79875254D01*
X173511001Y-79887483D01*
X173520827Y-79899789D01*
X173530615Y-79912173D01*
X173540366Y-79924639D01*
X173550082Y-79937189D01*
X173559765Y-79949827D01*
X173569417Y-79962556D01*
X173579042Y-79975380D01*
X173588641Y-79988302D01*
X173598217Y-80001327D01*
X173607774Y-80014459D01*
X173617313Y-80027702D01*
X173626838Y-80041062D01*
X173636352Y-80054544D01*
X173645859Y-80068153D01*
X173655363Y-80081896D01*
X173664868Y-80095781D01*
X173674378Y-80109813D01*
X173683898Y-80124001D01*
X173693432Y-80138354D01*
X173702987Y-80152881D01*
X173712569Y-80167594D01*
X173722185Y-80182502D01*
X173731841Y-80197621D01*
X173741546Y-80212963D01*
X173751309Y-80228546D01*
X173761141Y-80244387D01*
X173771053Y-80260507D01*
X173781059Y-80276930D01*
X173791173Y-80293684D01*
X173801414Y-80310800D01*
X173811803Y-80328317D01*
X173822364Y-80346278D01*
X173833127Y-80364739D01*
X173844129Y-80383765D01*
X173855416Y-80403441D01*
X173867046Y-80423873D01*
X173879098Y-80445203D01*
X173891678Y-80467625D01*
X173904938Y-80491417D01*
X173919113Y-80517008D01*
X173934600Y-80545126D01*
X173952185Y-80577204D01*
X173973934Y-80617020D01*
X173983537Y-80634623D01*
X174001115Y-80666839D01*
X174018660Y-80698932D01*
X174027430Y-80714931D01*
X174036204Y-80730897D01*
X174044985Y-80746829D01*
X174053777Y-80762728D01*
X174062585Y-80778593D01*
X174071412Y-80794422D01*
X174080262Y-80810215D01*
X174089140Y-80825972D01*
X174098048Y-80841692D01*
X174106992Y-80857375D01*
X174115974Y-80873019D01*
X174124999Y-80888624D01*
X174134071Y-80904190D01*
X174143194Y-80919715D01*
X174152371Y-80935200D01*
X174161607Y-80950643D01*
X174170906Y-80966044D01*
X174175580Y-80973729D01*
X174180271Y-80981403D01*
X174184979Y-80989066D01*
X174189706Y-80996719D01*
X174194451Y-81004360D01*
X174199215Y-81011990D01*
X174203999Y-81019609D01*
X174208803Y-81027217D01*
X174213628Y-81034814D01*
X174218473Y-81042399D01*
X174223340Y-81049973D01*
X174228229Y-81057535D01*
X174233141Y-81065086D01*
X174238075Y-81072625D01*
X174243033Y-81080152D01*
X174248015Y-81087668D01*
X174253022Y-81095171D01*
X174258053Y-81102663D01*
X174263110Y-81110142D01*
X174268193Y-81117610D01*
X174273302Y-81125065D01*
X174278438Y-81132507D01*
X174283602Y-81139938D01*
X174288793Y-81147356D01*
X174294013Y-81154761D01*
X174299262Y-81162154D01*
X174304540Y-81169534D01*
X174309849Y-81176902D01*
X174315187Y-81184256D01*
X174320556Y-81191598D01*
X174325957Y-81198926D01*
X174331389Y-81206242D01*
X174336854Y-81213544D01*
X174342352Y-81220834D01*
X174347883Y-81228109D01*
X174353448Y-81235372D01*
X174359047Y-81242621D01*
X174364681Y-81249856D01*
X174370350Y-81257078D01*
X174376055Y-81264286D01*
X174381796Y-81271480D01*
X174387574Y-81278661D01*
X174393389Y-81285827D01*
X174399242Y-81292980D01*
X174405133Y-81300118D01*
X174411063Y-81307242D01*
X174417032Y-81314352D01*
X174423041Y-81321448D01*
X174429090Y-81328529D01*
X174435179Y-81335596D01*
X174441310Y-81342648D01*
X174447483Y-81349686D01*
X174453697Y-81356708D01*
X174459955Y-81363716D01*
X174466255Y-81370709D01*
X174472599Y-81377688D01*
X174478987Y-81384651D01*
X174485420Y-81391599D01*
X174491898Y-81398532D01*
X174498422Y-81405449D01*
X174504991Y-81412352D01*
X174511607Y-81419238D01*
X174518271Y-81426110D01*
X174524982Y-81432965D01*
X174531740Y-81439806D01*
X174538548Y-81446630D01*
X174545404Y-81453438D01*
X174552310Y-81460231D01*
X174559266Y-81467008D01*
X174566273Y-81473768D01*
X174573331Y-81480513D01*
X174580440Y-81487241D01*
X174587601Y-81493953D01*
X174594814Y-81500649D01*
X174602081Y-81507328D01*
X174609400Y-81513991D01*
X174616774Y-81520637D01*
X174624203Y-81527267D01*
X174631686Y-81533879D01*
X174639225Y-81540475D01*
X174646819Y-81547054D01*
X174654470Y-81553616D01*
X174662178Y-81560161D01*
X174669943Y-81566689D01*
X174677767Y-81573199D01*
X174685648Y-81579693D01*
X174693589Y-81586169D01*
X174701588Y-81592627D01*
X174709648Y-81599068D01*
X174717768Y-81605491D01*
X174725949Y-81611897D01*
X174734191Y-81618285D01*
X174742495Y-81624655D01*
X174750861Y-81631007D01*
X174759290Y-81637341D01*
X174767782Y-81643657D01*
X174776338Y-81649955D01*
X174784959Y-81656235D01*
X174793644Y-81662496D01*
X174802394Y-81668739D01*
X174811210Y-81674964D01*
X174820093Y-81681169D01*
X174829042Y-81687357D01*
X174838058Y-81693525D01*
X174847142Y-81699675D01*
X174856294Y-81705806D01*
X174865515Y-81711918D01*
X174874805Y-81718011D01*
X174884165Y-81724085D01*
X174893595Y-81730140D01*
X174903096Y-81736176D01*
X174912667Y-81742192D01*
X174922311Y-81748189D01*
X174932026Y-81754166D01*
X174941814Y-81760124D01*
X174951676Y-81766062D01*
X174961610Y-81771980D01*
X174971619Y-81777879D01*
X174981703Y-81783758D01*
X174991861Y-81789617D01*
X175002096Y-81795455D01*
X175012406Y-81801274D01*
X175022793Y-81807072D01*
X175033256Y-81812851D01*
X175043798Y-81818609D01*
X175054417Y-81824346D01*
X175065115Y-81830063D01*
X175075892Y-81835759D01*
X175086748Y-81841435D01*
X175097685Y-81847090D01*
X175108702Y-81852724D01*
X175119800Y-81858338D01*
X175130979Y-81863930D01*
X175142240Y-81869502D01*
X175153584Y-81875052D01*
X175165011Y-81880581D01*
X175176521Y-81886088D01*
X175188115Y-81891575D01*
X175199793Y-81897040D01*
X175211557Y-81902483D01*
X175223405Y-81907905D01*
X175235340Y-81913305D01*
X175247361Y-81918684D01*
X175259469Y-81924040D01*
X175271664Y-81929375D01*
X175283947Y-81934688D01*
X175296319Y-81939978D01*
X175308779Y-81945247D01*
X175321329Y-81950493D01*
X175333968Y-81955717D01*
X175346698Y-81960919D01*
X175359518Y-81966098D01*
X175372430Y-81971255D01*
X175385434Y-81976389D01*
X175398530Y-81981501D01*
X175411719Y-81986589D01*
X175425000Y-81991655D01*
X175438376Y-81996698D01*
X175451846Y-82001718D01*
X175465411Y-82006715D01*
X175479071Y-82011688D01*
X175492826Y-82016639D01*
X175506678Y-82021566D01*
X175520626Y-82026470D01*
X175534672Y-82031350D01*
X175548816Y-82036207D01*
X175563057Y-82041040D01*
X175577397Y-82045850D01*
X175591837Y-82050635D01*
X175606376Y-82055397D01*
X175621015Y-82060135D01*
X175635755Y-82064849D01*
X175650595Y-82069539D01*
X175665538Y-82074204D01*
X175680583Y-82078846D01*
X175695730Y-82083463D01*
X175710980Y-82088056D01*
X175726334Y-82092624D01*
X175741792Y-82097167D01*
X175757354Y-82101686D01*
X175773022Y-82106181D01*
X175788795Y-82110650D01*
X175804674Y-82115095D01*
X175820660Y-82119515D01*
X175836752Y-82123909D01*
X175852953Y-82128279D01*
X175869261Y-82132623D01*
X175885677Y-82136943D01*
X175902203Y-82141236D01*
X175918838Y-82145505D01*
X175935583Y-82149748D01*
X175952439Y-82153965D01*
X175969405Y-82158157D01*
X175986483Y-82162323D01*
X176003673Y-82166463D01*
X176020975Y-82170577D01*
X176038390Y-82174666D01*
X176055919Y-82178728D01*
X176073561Y-82182764D01*
X176091318Y-82186774D01*
X176109190Y-82190758D01*
X176127177Y-82194715D01*
X176145280Y-82198646D01*
X176163499Y-82202551D01*
X176181836Y-82206428D01*
X176200289Y-82210280D01*
X176218860Y-82214104D01*
X176237550Y-82217902D01*
X176256358Y-82221672D01*
X176275286Y-82225416D01*
X176294334Y-82229133D01*
X176313502Y-82232823D01*
X176332790Y-82236485D01*
X176352200Y-82240120D01*
D13*
X170449240Y-78201520D02*
G75*
G02*
X163189920Y-78201520I-3629660J0D01*
G01*
X163189920Y-76946760D02*
G75*
G02*
X170449240Y-76946760I3629660J0D01*
G01*
D14*
X162493960Y-78031340D02*
G75*
G02*
X154462480Y-78031340I-4015740J0D01*
G01*
X154462480Y-77116940D02*
G75*
G02*
X162493960Y-77116940I4015740J0D01*
G01*
D15*
X170609260Y-78374240D02*
X171180760Y-78488540D01*
X170609260Y-76774040D02*
X171180760Y-76659740D01*
D13*
X163189920Y-78201520D02*
X162618420Y-78201520D01*
X163189920Y-76946760D02*
X162618420Y-76946760D01*
D16*
X170449240Y-78084172D03*
X170449240Y-77064108D03*
X162493960Y-78084172D03*
X162493960Y-77064108D03*
D17*
X171180760Y-78488540D03*
X171180760Y-76659740D03*
D18*
X154124660Y-77574140D03*
D19*
X179941220Y-72913240D03*
D20*
X146085560Y-77574140D03*
D19*
X179941220Y-82235040D03*
M02*
