  0
SECTION
  2
HEADER
  9
$ANGBASE
  50
0.0
  9
$ANGDIR
  70
1
  9
$MEASUREMENT
  70
0
  0
ENDSEC
  0
SECTION
  2
TABLES
  0
TABLE
  2
LTYPE
  70
4
  0
LTYPE
  5
40F
  2
CONTINUOUS
  70
0
  3
Solid line
  72
65
  73
0
  40
0.0
  0
LTYPE
  5
410
  2
DASHDOT
 70
0
  3
Dash Dot ____ _ ____ _
 72
65
 73
4
 40
2.0
 49
1.25
 49
-0.25
 49
0.25
 49
-0.25
  0
LTYPE
  5
411
  2
DASHED
 70
0
  3
Dashed __ __ __ __ __
 72
65
 73
2
 40
0.75
 49
0.5
 49
-0.25
  0
LTYPE
  5
43B
  2
DOTTED
 70
0
  3
Dotted .  .  .  .
 72
65
 73
2
 40
0.2
 49
0.0
 49
-0.2
  0
ENDTAB
  0
TABLE
  2
STYLE
  70
4
  0
STYLE
  2
KICAD
  70
0
  40
0
  41
1
  42
1
  50
0
  71
0
  3
isocp.shx
  0
STYLE
  2
KICADB
  70
0
  40
0
  41
1
  42
1
  50
0
  71
0
  3
isocp.shx
  0
STYLE
  2
KICADI
  70
0
  40
0
  41
1
  42
1
  50
15
  71
0
  3
isocp.shx
  0
STYLE
  2
KICADBI
  70
0
  40
0
  41
1
  42
1
  50
15
  71
0
  3
isocp.shx
  0
ENDTAB
  0
TABLE
  2
LAYER
  70
1
  0
LAYER
  2
BLACK
  70
0
  62
7
  6
CONTINUOUS
  0
ENDTAB
  0
ENDSEC
  0
SECTION
  2
ENTITIES
0
LINE
8
BLACK
6
CONTINUOUS
10
6.9685905511811024
20
-6.5357165354330711
11
11.2205590551181107
21
-6.5357165354330711
0
LINE
8
BLACK
6
CONTINUOUS
10
11.2205590551181107
20
-6.5357165354330711
11
11.2205590551181107
21
-7.79555905511811
0
LINE
8
BLACK
6
CONTINUOUS
10
11.2205590551181107
20
-7.79555905511811
11
6.9685905511811024
21
-7.79555905511811
0
LINE
8
BLACK
6
CONTINUOUS
10
6.9685905511811024
20
-7.79555905511811
11
6.9685905511811024
21
-6.5357165354330711
0
LINE
8
BLACK
6
CONTINUOUS
10
0.3937007874015748
20
-0.3937007874015748
11
11.2992992125984255
21
-0.3937007874015748
0
LINE
8
BLACK
6
CONTINUOUS
10
11.2992992125984255
20
-0.3937007874015748
11
11.2992992125984255
21
-7.8742992125984248
0
LINE
8
BLACK
6
CONTINUOUS
10
11.2992992125984255
20
-7.8742992125984248
11
0.3937007874015748
21
-7.8742992125984248
0
LINE
8
BLACK
6
CONTINUOUS
10
0.3937007874015748
20
-7.8742992125984248
11
0.3937007874015748
21
-0.3937007874015748
0
LINE
8
BLACK
6
CONTINUOUS
10
0.4724409448818898
20
-0.4724409448818898
11
11.2205590551181107
21
-0.4724409448818898
0
LINE
8
BLACK
6
CONTINUOUS
10
11.2205590551181107
20
-0.4724409448818898
11
11.2205590551181107
21
-7.79555905511811
0
LINE
8
BLACK
6
CONTINUOUS
10
11.2205590551181107
20
-7.79555905511811
11
0.4724409448818898
21
-7.79555905511811
0
LINE
8
BLACK
6
CONTINUOUS
10
0.4724409448818898
20
-7.79555905511811
11
0.4724409448818898
21
-0.4724409448818898
0
LINE
8
BLACK
6
CONTINUOUS
10
2.3622047244094486
20
-0.4724409448818898
11
2.3622047244094486
21
-0.3937007874015748
0
LINE
8
BLACK
6
CONTINUOUS
10
4.3307086614173231
20
-0.4724409448818898
11
4.3307086614173231
21
-0.3937007874015748
0
LINE
8
BLACK
6
CONTINUOUS
10
6.2992125984251963
20
-0.4724409448818898
11
6.2992125984251963
21
-0.3937007874015748
0
LINE
8
BLACK
6
CONTINUOUS
10
8.2677165354330704
20
-0.4724409448818898
11
8.2677165354330704
21
-0.3937007874015748
0
LINE
8
BLACK
6
CONTINUOUS
10
10.2362204724409445
20
-0.4724409448818898
11
10.2362204724409445
21
-0.3937007874015748
0
LINE
8
BLACK
6
CONTINUOUS
10
1.4208330708661416
20
-0.4564411023622047
11
1.3915867322834645
21
-0.4564411023622047
0
LINE
8
BLACK
6
CONTINUOUS
10
1.4062098818897637
20
-0.4564411023622047
11
1.4062098818897637
21
-0.40526
0
LINE
8
BLACK
6
CONTINUOUS
10
1.4062098818897637
20
-0.40526
11
1.4013355118110236
21
-0.4125716141732284
0
LINE
8
BLACK
6
CONTINUOUS
10
1.4013355118110236
20
-0.4125716141732284
11
1.3964611023622047
21
-0.4174459842519685
0
LINE
8
BLACK
6
CONTINUOUS
10
1.3964611023622047
20
-0.4174459842519685
11
1.3915867322834645
21
-0.4198831889763779
0
LINE
8
BLACK
6
CONTINUOUS
10
3.3600906692913384
20
-0.4101344094488189
11
3.3625278346456691
21
-0.4076972047244095
0
LINE
8
BLACK
6
CONTINUOUS
10
3.3625278346456691
20
-0.4076972047244095
11
3.367402244094488
21
-0.40526
0
LINE
8
BLACK
6
CONTINUOUS
10
3.367402244094488
20
-0.40526
11
3.3795882283464564
21
-0.40526
0
LINE
8
BLACK
6
CONTINUOUS
10
3.3795882283464564
20
-0.40526
11
3.3844625984251966
21
-0.4076972047244095
0
LINE
8
BLACK
6
CONTINUOUS
10
3.3844625984251966
20
-0.4076972047244095
11
3.386899803149606
21
-0.4101344094488189
0
LINE
8
BLACK
6
CONTINUOUS
10
3.386899803149606
20
-0.4101344094488189
11
3.3893370078740155
21
-0.415008779527559
0
LINE
8
BLACK
6
CONTINUOUS
10
3.3893370078740155
20
-0.415008779527559
11
3.3893370078740155
21
-0.4198831889763779
0
LINE
8
BLACK
6
CONTINUOUS
10
3.3893370078740155
20
-0.4198831889763779
11
3.386899803149606
21
-0.4271947637795275
0
LINE
8
BLACK
6
CONTINUOUS
10
3.386899803149606
20
-0.4271947637795275
11
3.3576534645669289
21
-0.4564411023622047
0
LINE
8
BLACK
6
CONTINUOUS
10
3.3576534645669289
20
-0.4564411023622047
11
3.3893370078740155
21
-0.4564411023622047
0
LINE
8
BLACK
6
CONTINUOUS
10
5.326157401574803
20
-0.40526
11
5.3578409448818896
21
-0.40526
0
LINE
8
BLACK
6
CONTINUOUS
10
5.3578409448818896
20
-0.40526
11
5.3407805511811022
21
-0.4247575590551181
0
LINE
8
BLACK
6
CONTINUOUS
10
5.3407805511811022
20
-0.4247575590551181
11
5.3480921653543305
21
-0.4247575590551181
0
LINE
8
BLACK
6
CONTINUOUS
10
5.3480921653543305
20
-0.4247575590551181
11
5.3529665354330707
21
-0.4271947637795275
0
LINE
8
BLACK
6
CONTINUOUS
10
5.3529665354330707
20
-0.4271947637795275
11
5.3554037401574801
21
-0.429631968503937
0
LINE
8
BLACK
6
CONTINUOUS
10
5.3554037401574801
20
-0.429631968503937
11
5.3578409448818896
21
-0.4345063385826772
0
LINE
8
BLACK
6
CONTINUOUS
10
5.3578409448818896
20
-0.4345063385826772
11
5.3578409448818896
21
-0.4466923228346457
0
LINE
8
BLACK
6
CONTINUOUS
10
5.3578409448818896
20
-0.4466923228346457
11
5.3554037401574801
21
-0.4515667322834646
0
LINE
8
BLACK
6
CONTINUOUS
10
5.3554037401574801
20
-0.4515667322834646
11
5.3529665354330707
21
-0.454003937007874
0
LINE
8
BLACK
6
CONTINUOUS
10
5.3529665354330707
20
-0.454003937007874
11
5.3480921653543305
21
-0.4564411023622047
0
LINE
8
BLACK
6
CONTINUOUS
10
5.3480921653543305
20
-0.4564411023622047
11
5.3334689763779526
21
-0.4564411023622047
0
LINE
8
BLACK
6
CONTINUOUS
10
5.3334689763779526
20
-0.4564411023622047
11
5.3285946062992124
21
-0.454003937007874
0
LINE
8
BLACK
6
CONTINUOUS
10
5.3285946062992124
20
-0.454003937007874
11
5.326157401574803
21
-0.4515667322834646
0
LINE
8
BLACK
6
CONTINUOUS
10
7.3214704724409447
20
-0.4223203937007874
11
7.3214704724409447
21
-0.4564411023622047
0
LINE
8
BLACK
6
CONTINUOUS
10
7.3092844881889762
20
-0.4028228346456693
11
7.2970985433070865
21
-0.4393807480314961
0
LINE
8
BLACK
6
CONTINUOUS
10
7.2970985433070865
20
-0.4393807480314961
11
7.3287820472440943
21
-0.4393807480314961
0
LINE
8
BLACK
6
CONTINUOUS
10
9.2924116141732274
20
-0.40526
11
9.2680396456692904
21
-0.40526
0
LINE
8
BLACK
6
CONTINUOUS
10
9.2680396456692904
20
-0.40526
11
9.2656024803149606
21
-0.429631968503937
0
LINE
8
BLACK
6
CONTINUOUS
10
9.2656024803149606
20
-0.429631968503937
11
9.2680396456692904
21
-0.4271947637795275
0
LINE
8
BLACK
6
CONTINUOUS
10
9.2680396456692904
20
-0.4271947637795275
11
9.2729140551181093
21
-0.4247575590551181
0
LINE
8
BLACK
6
CONTINUOUS
10
9.2729140551181093
20
-0.4247575590551181
11
9.2851000393700787
21
-0.4247575590551181
0
LINE
8
BLACK
6
CONTINUOUS
10
9.2851000393700787
20
-0.4247575590551181
11
9.2899744094488188
21
-0.4271947637795275
0
LINE
8
BLACK
6
CONTINUOUS
10
9.2899744094488188
20
-0.4271947637795275
11
9.2924116141732274
21
-0.429631968503937
0
LINE
8
BLACK
6
CONTINUOUS
10
9.2924116141732274
20
-0.429631968503937
11
9.2948488188976377
21
-0.4345063385826772
0
LINE
8
BLACK
6
CONTINUOUS
10
9.2948488188976377
20
-0.4345063385826772
11
9.2948488188976377
21
-0.4466923228346457
0
LINE
8
BLACK
6
CONTINUOUS
10
9.2948488188976377
20
-0.4466923228346457
11
9.2924116141732274
21
-0.4515667322834646
0
LINE
8
BLACK
6
CONTINUOUS
10
9.2924116141732274
20
-0.4515667322834646
11
9.2899744094488188
21
-0.454003937007874
0
LINE
8
BLACK
6
CONTINUOUS
10
9.2899744094488188
20
-0.454003937007874
11
9.2851000393700787
21
-0.4564411023622047
0
LINE
8
BLACK
6
CONTINUOUS
10
9.2851000393700787
20
-0.4564411023622047
11
9.2729140551181093
21
-0.4564411023622047
0
LINE
8
BLACK
6
CONTINUOUS
10
9.2729140551181093
20
-0.4564411023622047
11
9.2680396456692904
21
-0.454003937007874
0
LINE
8
BLACK
6
CONTINUOUS
10
9.2680396456692904
20
-0.454003937007874
11
9.2656024803149606
21
-0.4515667322834646
0
LINE
8
BLACK
6
CONTINUOUS
10
11.2584783464566929
20
-0.40526
11
11.2487295669291338
21
-0.40526
0
LINE
8
BLACK
6
CONTINUOUS
10
11.2487295669291338
20
-0.40526
11
11.2438551968503937
21
-0.4076972047244095
0
LINE
8
BLACK
6
CONTINUOUS
10
11.2438551968503937
20
-0.4076972047244095
11
11.2414179921259834
21
-0.4101344094488189
0
LINE
8
BLACK
6
CONTINUOUS
10
11.2414179921259834
20
-0.4101344094488189
11
11.2365435826771645
21
-0.4174459842519685
0
LINE
8
BLACK
6
CONTINUOUS
10
11.2365435826771645
20
-0.4174459842519685
11
11.2341064173228347
21
-0.4271947637795275
0
LINE
8
BLACK
6
CONTINUOUS
10
11.2341064173228347
20
-0.4271947637795275
11
11.2341064173228347
21
-0.4466923228346457
0
LINE
8
BLACK
6
CONTINUOUS
10
11.2341064173228347
20
-0.4466923228346457
11
11.2365435826771645
21
-0.4515667322834646
0
LINE
8
BLACK
6
CONTINUOUS
10
11.2365435826771645
20
-0.4515667322834646
11
11.2389807874015748
21
-0.454003937007874
0
LINE
8
BLACK
6
CONTINUOUS
10
11.2389807874015748
20
-0.454003937007874
11
11.2438551968503937
21
-0.4564411023622047
0
LINE
8
BLACK
6
CONTINUOUS
10
11.2438551968503937
20
-0.4564411023622047
11
11.2536039763779527
21
-0.4564411023622047
0
LINE
8
BLACK
6
CONTINUOUS
10
11.2536039763779527
20
-0.4564411023622047
11
11.2584783464566929
21
-0.454003937007874
0
LINE
8
BLACK
6
CONTINUOUS
10
11.2584783464566929
20
-0.454003937007874
11
11.2609155511811014
21
-0.4515667322834646
0
LINE
8
BLACK
6
CONTINUOUS
10
11.2609155511811014
20
-0.4515667322834646
11
11.2633527559055118
21
-0.4466923228346457
0
LINE
8
BLACK
6
CONTINUOUS
10
11.2633527559055118
20
-0.4466923228346457
11
11.2633527559055118
21
-0.4345063385826772
0
LINE
8
BLACK
6
CONTINUOUS
10
11.2633527559055118
20
-0.4345063385826772
11
11.2609155511811014
21
-0.429631968503937
0
LINE
8
BLACK
6
CONTINUOUS
10
11.2609155511811014
20
-0.429631968503937
11
11.2584783464566929
21
-0.4271947637795275
0
LINE
8
BLACK
6
CONTINUOUS
10
11.2584783464566929
20
-0.4271947637795275
11
11.2536039763779527
21
-0.4247575590551181
0
LINE
8
BLACK
6
CONTINUOUS
10
11.2536039763779527
20
-0.4247575590551181
11
11.2438551968503937
21
-0.4247575590551181
0
LINE
8
BLACK
6
CONTINUOUS
10
11.2438551968503937
20
-0.4247575590551181
11
11.2389807874015748
21
-0.4271947637795275
0
LINE
8
BLACK
6
CONTINUOUS
10
11.2389807874015748
20
-0.4271947637795275
11
11.2365435826771645
21
-0.429631968503937
0
LINE
8
BLACK
6
CONTINUOUS
10
11.2365435826771645
20
-0.429631968503937
11
11.2341064173228347
21
-0.4345063385826772
0
LINE
8
BLACK
6
CONTINUOUS
10
2.3622047244094486
20
-7.79555905511811
11
2.3622047244094486
21
-7.8742992125984248
0
LINE
8
BLACK
6
CONTINUOUS
10
4.3307086614173231
20
-7.79555905511811
11
4.3307086614173231
21
-7.8742992125984248
0
LINE
8
BLACK
6
CONTINUOUS
10
6.2992125984251963
20
-7.79555905511811
11
6.2992125984251963
21
-7.8742992125984248
0
LINE
8
BLACK
6
CONTINUOUS
10
8.2677165354330704
20
-7.79555905511811
11
8.2677165354330704
21
-7.8742992125984248
0
LINE
8
BLACK
6
CONTINUOUS
10
10.2362204724409445
20
-7.79555905511811
11
10.2362204724409445
21
-7.8742992125984248
0
LINE
8
BLACK
6
CONTINUOUS
10
1.4208330708661416
20
-7.8582993700787398
11
1.3915867322834645
21
-7.8582993700787398
0
LINE
8
BLACK
6
CONTINUOUS
10
1.4062098818897637
20
-7.8582993700787398
11
1.4062098818897637
21
-7.8071182677165352
0
LINE
8
BLACK
6
CONTINUOUS
10
1.4062098818897637
20
-7.8071182677165352
11
1.4013355118110236
21
-7.8144298818897635
0
LINE
8
BLACK
6
CONTINUOUS
10
1.4013355118110236
20
-7.8144298818897635
11
1.3964611023622047
21
-7.8193042519685036
0
LINE
8
BLACK
6
CONTINUOUS
10
1.3964611023622047
20
-7.8193042519685036
11
1.3915867322834645
21
-7.8217414566929131
0
LINE
8
BLACK
6
CONTINUOUS
10
3.3600906692913384
20
-7.8119926771653541
11
3.3625278346456691
21
-7.8095554724409446
0
LINE
8
BLACK
6
CONTINUOUS
10
3.3625278346456691
20
-7.8095554724409446
11
3.367402244094488
21
-7.8071182677165352
0
LINE
8
BLACK
6
CONTINUOUS
10
3.367402244094488
20
-7.8071182677165352
11
3.3795882283464564
21
-7.8071182677165352
0
LINE
8
BLACK
6
CONTINUOUS
10
3.3795882283464564
20
-7.8071182677165352
11
3.3844625984251966
21
-7.8095554724409446
0
LINE
8
BLACK
6
CONTINUOUS
10
3.3844625984251966
20
-7.8095554724409446
11
3.386899803149606
21
-7.8119926771653541
0
LINE
8
BLACK
6
CONTINUOUS
10
3.386899803149606
20
-7.8119926771653541
11
3.3893370078740155
21
-7.8168670472440942
0
LINE
8
BLACK
6
CONTINUOUS
10
3.3893370078740155
20
-7.8168670472440942
11
3.3893370078740155
21
-7.8217414566929131
0
LINE
8
BLACK
6
CONTINUOUS
10
3.3893370078740155
20
-7.8217414566929131
11
3.386899803149606
21
-7.8290530314960627
0
LINE
8
BLACK
6
CONTINUOUS
10
3.386899803149606
20
-7.8290530314960627
11
3.3576534645669289
21
-7.8582993700787398
0
LINE
8
BLACK
6
CONTINUOUS
10
3.3576534645669289
20
-7.8582993700787398
11
3.3893370078740155
21
-7.8582993700787398
0
LINE
8
BLACK
6
CONTINUOUS
10
5.326157401574803
20
-7.8071182677165352
11
5.3578409448818896
21
-7.8071182677165352
0
LINE
8
BLACK
6
CONTINUOUS
10
5.3578409448818896
20
-7.8071182677165352
11
5.3407805511811022
21
-7.8266158267716532
0
LINE
8
BLACK
6
CONTINUOUS
10
5.3407805511811022
20
-7.8266158267716532
11
5.3480921653543305
21
-7.8266158267716532
0
LINE
8
BLACK
6
CONTINUOUS
10
5.3480921653543305
20
-7.8266158267716532
11
5.3529665354330707
21
-7.8290530314960627
0
LINE
8
BLACK
6
CONTINUOUS
10
5.3529665354330707
20
-7.8290530314960627
11
5.3554037401574801
21
-7.8314902362204721
0
LINE
8
BLACK
6
CONTINUOUS
10
5.3554037401574801
20
-7.8314902362204721
11
5.3578409448818896
21
-7.8363646062992123
0
LINE
8
BLACK
6
CONTINUOUS
10
5.3578409448818896
20
-7.8363646062992123
11
5.3578409448818896
21
-7.8485505905511808
0
LINE
8
BLACK
6
CONTINUOUS
10
5.3578409448818896
20
-7.8485505905511808
11
5.3554037401574801
21
-7.8534249999999997
0
LINE
8
BLACK
6
CONTINUOUS
10
5.3554037401574801
20
-7.8534249999999997
11
5.3529665354330707
21
-7.8558622047244091
0
LINE
8
BLACK
6
CONTINUOUS
10
5.3529665354330707
20
-7.8558622047244091
11
5.3480921653543305
21
-7.8582993700787398
0
LINE
8
BLACK
6
CONTINUOUS
10
5.3480921653543305
20
-7.8582993700787398
11
5.3334689763779526
21
-7.8582993700787398
0
LINE
8
BLACK
6
CONTINUOUS
10
5.3334689763779526
20
-7.8582993700787398
11
5.3285946062992124
21
-7.8558622047244091
0
LINE
8
BLACK
6
CONTINUOUS
10
5.3285946062992124
20
-7.8558622047244091
11
5.326157401574803
21
-7.8534249999999997
0
LINE
8
BLACK
6
CONTINUOUS
10
7.3214704724409447
20
-7.8241786614173225
11
7.3214704724409447
21
-7.8582993700787398
0
LINE
8
BLACK
6
CONTINUOUS
10
7.3092844881889762
20
-7.8046811023622045
11
7.2970985433070865
21
-7.8412390157480312
0
LINE
8
BLACK
6
CONTINUOUS
10
7.2970985433070865
20
-7.8412390157480312
11
7.3287820472440943
21
-7.8412390157480312
0
LINE
8
BLACK
6
CONTINUOUS
10
9.2924116141732274
20
-7.8071182677165352
11
9.2680396456692904
21
-7.8071182677165352
0
LINE
8
BLACK
6
CONTINUOUS
10
9.2680396456692904
20
-7.8071182677165352
11
9.2656024803149606
21
-7.8314902362204721
0
LINE
8
BLACK
6
CONTINUOUS
10
9.2656024803149606
20
-7.8314902362204721
11
9.2680396456692904
21
-7.8290530314960627
0
LINE
8
BLACK
6
CONTINUOUS
10
9.2680396456692904
20
-7.8290530314960627
11
9.2729140551181093
21
-7.8266158267716532
0
LINE
8
BLACK
6
CONTINUOUS
10
9.2729140551181093
20
-7.8266158267716532
11
9.2851000393700787
21
-7.8266158267716532
0
LINE
8
BLACK
6
CONTINUOUS
10
9.2851000393700787
20
-7.8266158267716532
11
9.2899744094488188
21
-7.8290530314960627
0
LINE
8
BLACK
6
CONTINUOUS
10
9.2899744094488188
20
-7.8290530314960627
11
9.2924116141732274
21
-7.8314902362204721
0
LINE
8
BLACK
6
CONTINUOUS
10
9.2924116141732274
20
-7.8314902362204721
11
9.2948488188976377
21
-7.8363646062992123
0
LINE
8
BLACK
6
CONTINUOUS
10
9.2948488188976377
20
-7.8363646062992123
11
9.2948488188976377
21
-7.8485505905511808
0
LINE
8
BLACK
6
CONTINUOUS
10
9.2948488188976377
20
-7.8485505905511808
11
9.2924116141732274
21
-7.8534249999999997
0
LINE
8
BLACK
6
CONTINUOUS
10
9.2924116141732274
20
-7.8534249999999997
11
9.2899744094488188
21
-7.8558622047244091
0
LINE
8
BLACK
6
CONTINUOUS
10
9.2899744094488188
20
-7.8558622047244091
11
9.2851000393700787
21
-7.8582993700787398
0
LINE
8
BLACK
6
CONTINUOUS
10
9.2851000393700787
20
-7.8582993700787398
11
9.2729140551181093
21
-7.8582993700787398
0
LINE
8
BLACK
6
CONTINUOUS
10
9.2729140551181093
20
-7.8582993700787398
11
9.2680396456692904
21
-7.8558622047244091
0
LINE
8
BLACK
6
CONTINUOUS
10
9.2680396456692904
20
-7.8558622047244091
11
9.2656024803149606
21
-7.8534249999999997
0
LINE
8
BLACK
6
CONTINUOUS
10
11.2584783464566929
20
-7.8071182677165352
11
11.2487295669291338
21
-7.8071182677165352
0
LINE
8
BLACK
6
CONTINUOUS
10
11.2487295669291338
20
-7.8071182677165352
11
11.2438551968503937
21
-7.8095554724409446
0
LINE
8
BLACK
6
CONTINUOUS
10
11.2438551968503937
20
-7.8095554724409446
11
11.2414179921259834
21
-7.8119926771653541
0
LINE
8
BLACK
6
CONTINUOUS
10
11.2414179921259834
20
-7.8119926771653541
11
11.2365435826771645
21
-7.8193042519685036
0
LINE
8
BLACK
6
CONTINUOUS
10
11.2365435826771645
20
-7.8193042519685036
11
11.2341064173228347
21
-7.8290530314960627
0
LINE
8
BLACK
6
CONTINUOUS
10
11.2341064173228347
20
-7.8290530314960627
11
11.2341064173228347
21
-7.8485505905511808
0
LINE
8
BLACK
6
CONTINUOUS
10
11.2341064173228347
20
-7.8485505905511808
11
11.2365435826771645
21
-7.8534249999999997
0
LINE
8
BLACK
6
CONTINUOUS
10
11.2365435826771645
20
-7.8534249999999997
11
11.2389807874015748
21
-7.8558622047244091
0
LINE
8
BLACK
6
CONTINUOUS
10
11.2389807874015748
20
-7.8558622047244091
11
11.2438551968503937
21
-7.8582993700787398
0
LINE
8
BLACK
6
CONTINUOUS
10
11.2438551968503937
20
-7.8582993700787398
11
11.2536039763779527
21
-7.8582993700787398
0
LINE
8
BLACK
6
CONTINUOUS
10
11.2536039763779527
20
-7.8582993700787398
11
11.2584783464566929
21
-7.8558622047244091
0
LINE
8
BLACK
6
CONTINUOUS
10
11.2584783464566929
20
-7.8558622047244091
11
11.2609155511811014
21
-7.8534249999999997
0
LINE
8
BLACK
6
CONTINUOUS
10
11.2609155511811014
20
-7.8534249999999997
11
11.2633527559055118
21
-7.8485505905511808
0
LINE
8
BLACK
6
CONTINUOUS
10
11.2633527559055118
20
-7.8485505905511808
11
11.2633527559055118
21
-7.8363646062992123
0
LINE
8
BLACK
6
CONTINUOUS
10
11.2633527559055118
20
-7.8363646062992123
11
11.2609155511811014
21
-7.8314902362204721
0
LINE
8
BLACK
6
CONTINUOUS
10
11.2609155511811014
20
-7.8314902362204721
11
11.2584783464566929
21
-7.8290530314960627
0
LINE
8
BLACK
6
CONTINUOUS
10
11.2584783464566929
20
-7.8290530314960627
11
11.2536039763779527
21
-7.8266158267716532
0
LINE
8
BLACK
6
CONTINUOUS
10
11.2536039763779527
20
-7.8266158267716532
11
11.2438551968503937
21
-7.8266158267716532
0
LINE
8
BLACK
6
CONTINUOUS
10
11.2438551968503937
20
-7.8266158267716532
11
11.2389807874015748
21
-7.8290530314960627
0
LINE
8
BLACK
6
CONTINUOUS
10
11.2389807874015748
20
-7.8290530314960627
11
11.2365435826771645
21
-7.8314902362204721
0
LINE
8
BLACK
6
CONTINUOUS
10
11.2365435826771645
20
-7.8314902362204721
11
11.2341064173228347
21
-7.8363646062992123
0
LINE
8
BLACK
6
CONTINUOUS
10
0.3937007874015748
20
-2.3622047244094486
11
0.4724409448818898
21
-2.3622047244094486
0
LINE
8
BLACK
6
CONTINUOUS
10
0.3937007874015748
20
-4.3307086614173231
11
0.4724409448818898
21
-4.3307086614173231
0
LINE
8
BLACK
6
CONTINUOUS
10
0.3937007874015748
20
-6.2992125984251963
11
0.4724409448818898
21
-6.2992125984251963
0
LINE
8
BLACK
6
CONTINUOUS
10
0.4208848818897638
20
-1.386699842519685
11
0.445256811023622
21
-1.386699842519685
0
LINE
8
BLACK
6
CONTINUOUS
10
0.4160104724409449
20
-1.4013229921259842
11
0.4330708267716535
21
-1.3501418897637796
0
LINE
8
BLACK
6
CONTINUOUS
10
0.4330708267716535
20
-1.3501418897637796
11
0.4501312204724409
21
-1.4013229921259842
0
LINE
8
BLACK
6
CONTINUOUS
10
0.4367266535433071
20
-3.3430177952755904
11
0.4440382283464567
21
-3.3454549999999998
0
LINE
8
BLACK
6
CONTINUOUS
10
0.4440382283464567
20
-3.3454549999999998
11
0.4464754330708661
21
-3.3478921653543305
0
LINE
8
BLACK
6
CONTINUOUS
10
0.4464754330708661
20
-3.3478921653543305
11
0.4489125984251968
21
-3.3527665748031494
0
LINE
8
BLACK
6
CONTINUOUS
10
0.4489125984251968
20
-3.3527665748031494
11
0.4489125984251968
21
-3.360078149606299
0
LINE
8
BLACK
6
CONTINUOUS
10
0.4489125984251968
20
-3.360078149606299
11
0.4464754330708661
21
-3.3649525590551179
0
LINE
8
BLACK
6
CONTINUOUS
10
0.4464754330708661
20
-3.3649525590551179
11
0.4440382283464567
21
-3.3673897637795274
0
LINE
8
BLACK
6
CONTINUOUS
10
0.4440382283464567
20
-3.3673897637795274
11
0.4391638188976378
21
-3.3698269291338581
0
LINE
8
BLACK
6
CONTINUOUS
10
0.4391638188976378
20
-3.3698269291338581
11
0.4196662598425197
21
-3.3698269291338581
0
LINE
8
BLACK
6
CONTINUOUS
10
0.4196662598425197
20
-3.3698269291338581
11
0.4196662598425197
21
-3.3186458267716534
0
LINE
8
BLACK
6
CONTINUOUS
10
0.4196662598425197
20
-3.3186458267716534
11
0.4367266535433071
21
-3.3186458267716534
0
LINE
8
BLACK
6
CONTINUOUS
10
0.4367266535433071
20
-3.3186458267716534
11
0.4416010236220472
21
-3.3210830314960629
0
LINE
8
BLACK
6
CONTINUOUS
10
0.4416010236220472
20
-3.3210830314960629
11
0.4440382283464567
21
-3.3235202362204723
0
LINE
8
BLACK
6
CONTINUOUS
10
0.4440382283464567
20
-3.3235202362204723
11
0.4464754330708661
21
-3.3283946062992125
0
LINE
8
BLACK
6
CONTINUOUS
10
0.4464754330708661
20
-3.3283946062992125
11
0.4464754330708661
21
-3.3332690157480314
0
LINE
8
BLACK
6
CONTINUOUS
10
0.4464754330708661
20
-3.3332690157480314
11
0.4440382283464567
21
-3.3381433858267715
0
LINE
8
BLACK
6
CONTINUOUS
10
0.4440382283464567
20
-3.3381433858267715
11
0.4416010236220472
21
-3.340580590551181
0
LINE
8
BLACK
6
CONTINUOUS
10
0.4416010236220472
20
-3.340580590551181
11
0.4367266535433071
21
-3.3430177952755904
0
LINE
8
BLACK
6
CONTINUOUS
10
0.4367266535433071
20
-3.3430177952755904
11
0.4196662598425197
21
-3.3430177952755904
0
LINE
8
BLACK
6
CONTINUOUS
10
0.4489125984251968
20
-5.3334564960629924
11
0.4464754330708661
21
-5.3358937007874019
0
LINE
8
BLACK
6
CONTINUOUS
10
0.4464754330708661
20
-5.3358937007874019
11
0.4391638188976378
21
-5.3383308661417326
0
LINE
8
BLACK
6
CONTINUOUS
10
0.4391638188976378
20
-5.3383308661417326
11
0.4342894488188976
21
-5.3383308661417326
0
LINE
8
BLACK
6
CONTINUOUS
10
0.4342894488188976
20
-5.3383308661417326
11
0.426977874015748
21
-5.3358937007874019
0
LINE
8
BLACK
6
CONTINUOUS
10
0.426977874015748
20
-5.3358937007874019
11
0.4221034645669291
21
-5.331019291338583
0
LINE
8
BLACK
6
CONTINUOUS
10
0.4221034645669291
20
-5.331019291338583
11
0.4196662598425197
21
-5.3261448818897641
0
LINE
8
BLACK
6
CONTINUOUS
10
0.4196662598425197
20
-5.3261448818897641
11
0.417229094488189
21
-5.3163961023622042
0
LINE
8
BLACK
6
CONTINUOUS
10
0.417229094488189
20
-5.3163961023622042
11
0.417229094488189
21
-5.3090845275590546
0
LINE
8
BLACK
6
CONTINUOUS
10
0.417229094488189
20
-5.3090845275590546
11
0.4196662598425197
21
-5.2993357480314955
0
LINE
8
BLACK
6
CONTINUOUS
10
0.4196662598425197
20
-5.2993357480314955
11
0.4221034645669291
21
-5.2944613779527554
0
LINE
8
BLACK
6
CONTINUOUS
10
0.4221034645669291
20
-5.2944613779527554
11
0.426977874015748
21
-5.2895869685039365
0
LINE
8
BLACK
6
CONTINUOUS
10
0.426977874015748
20
-5.2895869685039365
11
0.4342894488188976
21
-5.2871497637795271
0
LINE
8
BLACK
6
CONTINUOUS
10
0.4342894488188976
20
-5.2871497637795271
11
0.4391638188976378
21
-5.2871497637795271
0
LINE
8
BLACK
6
CONTINUOUS
10
0.4391638188976378
20
-5.2871497637795271
11
0.4464754330708661
21
-5.2895869685039365
0
LINE
8
BLACK
6
CONTINUOUS
10
0.4464754330708661
20
-5.2895869685039365
11
0.4489125984251968
21
-5.292024173228346
0
LINE
8
BLACK
6
CONTINUOUS
10
0.4196662598425197
20
-7.3068348031496058
11
0.4196662598425197
21
-7.2556537007874011
0
LINE
8
BLACK
6
CONTINUOUS
10
0.4196662598425197
20
-7.2556537007874011
11
0.4318522440944882
21
-7.2556537007874011
0
LINE
8
BLACK
6
CONTINUOUS
10
0.4318522440944882
20
-7.2556537007874011
11
0.4391638188976378
21
-7.2580909055118106
0
LINE
8
BLACK
6
CONTINUOUS
10
0.4391638188976378
20
-7.2580909055118106
11
0.4440382283464567
21
-7.2629653149606295
0
LINE
8
BLACK
6
CONTINUOUS
10
0.4440382283464567
20
-7.2629653149606295
11
0.4464754330708661
21
-7.2678396850393696
0
LINE
8
BLACK
6
CONTINUOUS
10
0.4464754330708661
20
-7.2678396850393696
11
0.4489125984251968
21
-7.2775884645669286
0
LINE
8
BLACK
6
CONTINUOUS
10
0.4489125984251968
20
-7.2775884645669286
11
0.4489125984251968
21
-7.2849000393700782
0
LINE
8
BLACK
6
CONTINUOUS
10
0.4489125984251968
20
-7.2849000393700782
11
0.4464754330708661
21
-7.2946488188976373
0
LINE
8
BLACK
6
CONTINUOUS
10
0.4464754330708661
20
-7.2946488188976373
11
0.4440382283464567
21
-7.2995232283464562
0
LINE
8
BLACK
6
CONTINUOUS
10
0.4440382283464567
20
-7.2995232283464562
11
0.4391638188976378
21
-7.3043976377952751
0
LINE
8
BLACK
6
CONTINUOUS
10
0.4391638188976378
20
-7.3043976377952751
11
0.4318522440944882
21
-7.3068348031496058
0
LINE
8
BLACK
6
CONTINUOUS
10
0.4318522440944882
20
-7.3068348031496058
11
0.4196662598425197
21
-7.3068348031496058
0
LINE
8
BLACK
6
CONTINUOUS
10
11.2992992125984255
20
-2.3622047244094486
11
11.2205590551181107
21
-2.3622047244094486
0
LINE
8
BLACK
6
CONTINUOUS
10
11.2992992125984255
20
-4.3307086614173231
11
11.2205590551181107
21
-4.3307086614173231
0
LINE
8
BLACK
6
CONTINUOUS
10
11.2992992125984255
20
-6.2992125984251963
11
11.2205590551181107
21
-6.2992125984251963
0
LINE
8
BLACK
6
CONTINUOUS
10
11.2477431496062987
20
-1.386699842519685
11
11.2721150787401569
21
-1.386699842519685
0
LINE
8
BLACK
6
CONTINUOUS
10
11.2428687401574798
20
-1.4013229921259842
11
11.2599290944881893
21
-1.3501418897637796
0
LINE
8
BLACK
6
CONTINUOUS
10
11.2599290944881893
20
-1.3501418897637796
11
11.2769894881889758
21
-1.4013229921259842
0
LINE
8
BLACK
6
CONTINUOUS
10
11.2635849212598416
20
-3.3430177952755904
11
11.270896496062992
21
-3.3454549999999998
0
LINE
8
BLACK
6
CONTINUOUS
10
11.270896496062992
20
-3.3454549999999998
11
11.2733337007874006
21
-3.3478921653543305
0
LINE
8
BLACK
6
CONTINUOUS
10
11.2733337007874006
20
-3.3478921653543305
11
11.2757708661417322
21
-3.3527665748031494
0
LINE
8
BLACK
6
CONTINUOUS
10
11.2757708661417322
20
-3.3527665748031494
11
11.2757708661417322
21
-3.360078149606299
0
LINE
8
BLACK
6
CONTINUOUS
10
11.2757708661417322
20
-3.360078149606299
11
11.2733337007874006
21
-3.3649525590551179
0
LINE
8
BLACK
6
CONTINUOUS
10
11.2733337007874006
20
-3.3649525590551179
11
11.270896496062992
21
-3.3673897637795274
0
LINE
8
BLACK
6
CONTINUOUS
10
11.270896496062992
20
-3.3673897637795274
11
11.2660220866141731
21
-3.3698269291338581
0
LINE
8
BLACK
6
CONTINUOUS
10
11.2660220866141731
20
-3.3698269291338581
11
11.2465245275590551
21
-3.3698269291338581
0
LINE
8
BLACK
6
CONTINUOUS
10
11.2465245275590551
20
-3.3698269291338581
11
11.2465245275590551
21
-3.3186458267716534
0
LINE
8
BLACK
6
CONTINUOUS
10
11.2465245275590551
20
-3.3186458267716534
11
11.2635849212598416
21
-3.3186458267716534
0
LINE
8
BLACK
6
CONTINUOUS
10
11.2635849212598416
20
-3.3186458267716534
11
11.2684592913385817
21
-3.3210830314960629
0
LINE
8
BLACK
6
CONTINUOUS
10
11.2684592913385817
20
-3.3210830314960629
11
11.270896496062992
21
-3.3235202362204723
0
LINE
8
BLACK
6
CONTINUOUS
10
11.270896496062992
20
-3.3235202362204723
11
11.2733337007874006
21
-3.3283946062992125
0
LINE
8
BLACK
6
CONTINUOUS
10
11.2733337007874006
20
-3.3283946062992125
11
11.2733337007874006
21
-3.3332690157480314
0
LINE
8
BLACK
6
CONTINUOUS
10
11.2733337007874006
20
-3.3332690157480314
11
11.270896496062992
21
-3.3381433858267715
0
LINE
8
BLACK
6
CONTINUOUS
10
11.270896496062992
20
-3.3381433858267715
11
11.2684592913385817
21
-3.340580590551181
0
LINE
8
BLACK
6
CONTINUOUS
10
11.2684592913385817
20
-3.340580590551181
11
11.2635849212598416
21
-3.3430177952755904
0
LINE
8
BLACK
6
CONTINUOUS
10
11.2635849212598416
20
-3.3430177952755904
11
11.2465245275590551
21
-3.3430177952755904
0
LINE
8
BLACK
6
CONTINUOUS
10
11.2757708661417322
20
-5.3334564960629924
11
11.2733337007874006
21
-5.3358937007874019
0
LINE
8
BLACK
6
CONTINUOUS
10
11.2733337007874006
20
-5.3358937007874019
11
11.2660220866141731
21
-5.3383308661417326
0
LINE
8
BLACK
6
CONTINUOUS
10
11.2660220866141731
20
-5.3383308661417326
11
11.261147716535433
21
-5.3383308661417326
0
LINE
8
BLACK
6
CONTINUOUS
10
11.261147716535433
20
-5.3383308661417326
11
11.2538361417322825
21
-5.3358937007874019
0
LINE
8
BLACK
6
CONTINUOUS
10
11.2538361417322825
20
-5.3358937007874019
11
11.2489617322834636
21
-5.331019291338583
0
LINE
8
BLACK
6
CONTINUOUS
10
11.2489617322834636
20
-5.331019291338583
11
11.2465245275590551
21
-5.3261448818897641
0
LINE
8
BLACK
6
CONTINUOUS
10
11.2465245275590551
20
-5.3261448818897641
11
11.2440873622047235
21
-5.3163961023622042
0
LINE
8
BLACK
6
CONTINUOUS
10
11.2440873622047235
20
-5.3163961023622042
11
11.2440873622047235
21
-5.3090845275590546
0
LINE
8
BLACK
6
CONTINUOUS
10
11.2440873622047235
20
-5.3090845275590546
11
11.2465245275590551
21
-5.2993357480314955
0
LINE
8
BLACK
6
CONTINUOUS
10
11.2465245275590551
20
-5.2993357480314955
11
11.2489617322834636
21
-5.2944613779527554
0
LINE
8
BLACK
6
CONTINUOUS
10
11.2489617322834636
20
-5.2944613779527554
11
11.2538361417322825
21
-5.2895869685039365
0
LINE
8
BLACK
6
CONTINUOUS
10
11.2538361417322825
20
-5.2895869685039365
11
11.261147716535433
21
-5.2871497637795271
0
LINE
8
BLACK
6
CONTINUOUS
10
11.261147716535433
20
-5.2871497637795271
11
11.2660220866141731
21
-5.2871497637795271
0
LINE
8
BLACK
6
CONTINUOUS
10
11.2660220866141731
20
-5.2871497637795271
11
11.2733337007874006
21
-5.2895869685039365
0
LINE
8
BLACK
6
CONTINUOUS
10
11.2733337007874006
20
-5.2895869685039365
11
11.2757708661417322
21
-5.292024173228346
0
LINE
8
BLACK
6
CONTINUOUS
10
11.2465245275590551
20
-7.3068348031496058
11
11.2465245275590551
21
-7.2556537007874011
0
LINE
8
BLACK
6
CONTINUOUS
10
11.2465245275590551
20
-7.2556537007874011
11
11.2587105118110227
21
-7.2556537007874011
0
LINE
8
BLACK
6
CONTINUOUS
10
11.2587105118110227
20
-7.2556537007874011
11
11.2660220866141731
21
-7.2580909055118106
0
LINE
8
BLACK
6
CONTINUOUS
10
11.2660220866141731
20
-7.2580909055118106
11
11.270896496062992
21
-7.2629653149606295
0
LINE
8
BLACK
6
CONTINUOUS
10
11.270896496062992
20
-7.2629653149606295
11
11.2733337007874006
21
-7.2678396850393696
0
LINE
8
BLACK
6
CONTINUOUS
10
11.2733337007874006
20
-7.2678396850393696
11
11.2757708661417322
21
-7.2775884645669286
0
LINE
8
BLACK
6
CONTINUOUS
10
11.2757708661417322
20
-7.2775884645669286
11
11.2757708661417322
21
-7.2849000393700782
0
LINE
8
BLACK
6
CONTINUOUS
10
11.2757708661417322
20
-7.2849000393700782
11
11.2733337007874006
21
-7.2946488188976373
0
LINE
8
BLACK
6
CONTINUOUS
10
11.2733337007874006
20
-7.2946488188976373
11
11.270896496062992
21
-7.2995232283464562
0
LINE
8
BLACK
6
CONTINUOUS
10
11.270896496062992
20
-7.2995232283464562
11
11.2660220866141731
21
-7.3043976377952751
0
LINE
8
BLACK
6
CONTINUOUS
10
11.2660220866141731
20
-7.3043976377952751
11
11.2587105118110227
21
-7.3068348031496058
0
LINE
8
BLACK
6
CONTINUOUS
10
11.2587105118110227
20
-7.3068348031496058
11
11.2465245275590551
21
-7.3068348031496058
0
LINE
8
BLACK
6
CONTINUOUS
10
7.8920482677165351
20
-7.6296585826771652
11
7.8920482677165351
21
-7.5706034645669291
0
LINE
8
BLACK
6
CONTINUOUS
10
7.8920482677165351
20
-7.5706034645669291
11
7.9061090157480312
21
-7.5706034645669291
0
LINE
8
BLACK
6
CONTINUOUS
10
7.9061090157480312
20
-7.5706034645669291
11
7.9145454724409445
21
-7.5734156299212598
0
LINE
8
BLACK
6
CONTINUOUS
10
7.9145454724409445
20
-7.5734156299212598
11
7.9201697637795272
21
-7.5790399212598425
0
LINE
8
BLACK
6
CONTINUOUS
10
7.9201697637795272
20
-7.5790399212598425
11
7.9229819291338579
21
-7.5846642125984252
0
LINE
8
BLACK
6
CONTINUOUS
10
7.9229819291338579
20
-7.5846642125984252
11
7.9257940551181099
21
-7.5959127952755905
0
LINE
8
BLACK
6
CONTINUOUS
10
7.9257940551181099
20
-7.5959127952755905
11
7.9257940551181099
21
-7.6043492519685039
0
LINE
8
BLACK
6
CONTINUOUS
10
7.9257940551181099
20
-7.6043492519685039
11
7.9229819291338579
21
-7.6155978346456692
0
LINE
8
BLACK
6
CONTINUOUS
10
7.9229819291338579
20
-7.6155978346456692
11
7.9201697637795272
21
-7.6212221259842519
0
LINE
8
BLACK
6
CONTINUOUS
10
7.9201697637795272
20
-7.6212221259842519
11
7.9145454724409445
21
-7.6268464566929133
0
LINE
8
BLACK
6
CONTINUOUS
10
7.9145454724409445
20
-7.6268464566929133
11
7.9061090157480312
21
-7.6296585826771652
0
LINE
8
BLACK
6
CONTINUOUS
10
7.9061090157480312
20
-7.6296585826771652
11
7.8920482677165351
21
-7.6296585826771652
0
LINE
8
BLACK
6
CONTINUOUS
10
7.9764127559055114
20
-7.6296585826771652
11
7.9764127559055114
21
-7.5987249606299212
0
LINE
8
BLACK
6
CONTINUOUS
10
7.9764127559055114
20
-7.5987249606299212
11
7.9736005905511806
21
-7.5931006692913385
0
LINE
8
BLACK
6
CONTINUOUS
10
7.9736005905511806
20
-7.5931006692913385
11
7.967976299212598
21
-7.5902885039370078
0
LINE
8
BLACK
6
CONTINUOUS
10
7.967976299212598
20
-7.5902885039370078
11
7.9567277165354326
21
-7.5902885039370078
0
LINE
8
BLACK
6
CONTINUOUS
10
7.9567277165354326
20
-7.5902885039370078
11
7.9511033858267712
21
-7.5931006692913385
0
LINE
8
BLACK
6
CONTINUOUS
10
7.9764127559055114
20
-7.6268464566929133
11
7.9707884251968499
21
-7.6296585826771652
0
LINE
8
BLACK
6
CONTINUOUS
10
7.9707884251968499
20
-7.6296585826771652
11
7.9567277165354326
21
-7.6296585826771652
0
LINE
8
BLACK
6
CONTINUOUS
10
7.9567277165354326
20
-7.6296585826771652
11
7.9511033858267712
21
-7.6268464566929133
0
LINE
8
BLACK
6
CONTINUOUS
10
7.9511033858267712
20
-7.6268464566929133
11
7.9482912598425193
21
-7.6212221259842519
0
LINE
8
BLACK
6
CONTINUOUS
10
7.9482912598425193
20
-7.6212221259842519
11
7.9482912598425193
21
-7.6155978346456692
0
LINE
8
BLACK
6
CONTINUOUS
10
7.9482912598425193
20
-7.6155978346456692
11
7.9511033858267712
21
-7.6099735433070865
0
LINE
8
BLACK
6
CONTINUOUS
10
7.9511033858267712
20
-7.6099735433070865
11
7.9567277165354326
21
-7.6071614173228346
0
LINE
8
BLACK
6
CONTINUOUS
10
7.9567277165354326
20
-7.6071614173228346
11
7.9707884251968499
21
-7.6071614173228346
0
LINE
8
BLACK
6
CONTINUOUS
10
7.9707884251968499
20
-7.6071614173228346
11
7.9764127559055114
21
-7.6043492519685039
0
LINE
8
BLACK
6
CONTINUOUS
10
7.9960977952755901
20
-7.5902885039370078
11
8.0185949606299207
21
-7.5902885039370078
0
LINE
8
BLACK
6
CONTINUOUS
10
8.0045342125984256
20
-7.5706034645669291
11
8.0045342125984256
21
-7.6212221259842519
0
LINE
8
BLACK
6
CONTINUOUS
10
8.0045342125984256
20
-7.6212221259842519
11
8.0073463779527554
21
-7.6268464566929133
0
LINE
8
BLACK
6
CONTINUOUS
10
8.0073463779527554
20
-7.6268464566929133
11
8.0129706692913381
21
-7.6296585826771652
0
LINE
8
BLACK
6
CONTINUOUS
10
8.0129706692913381
20
-7.6296585826771652
11
8.0185949606299207
21
-7.6296585826771652
0
LINE
8
BLACK
6
CONTINUOUS
10
8.0607772047244097
20
-7.6268464566929133
11
8.0551529133858271
21
-7.6296585826771652
0
LINE
8
BLACK
6
CONTINUOUS
10
8.0551529133858271
20
-7.6296585826771652
11
8.0439043307086617
21
-7.6296585826771652
0
LINE
8
BLACK
6
CONTINUOUS
10
8.0439043307086617
20
-7.6296585826771652
11
8.0382800000000003
21
-7.6268464566929133
0
LINE
8
BLACK
6
CONTINUOUS
10
8.0382800000000003
20
-7.6268464566929133
11
8.0354678740157475
21
-7.6212221259842519
0
LINE
8
BLACK
6
CONTINUOUS
10
8.0354678740157475
20
-7.6212221259842519
11
8.0354678740157475
21
-7.5987249606299212
0
LINE
8
BLACK
6
CONTINUOUS
10
8.0354678740157475
20
-7.5987249606299212
11
8.0382800000000003
21
-7.5931006692913385
0
LINE
8
BLACK
6
CONTINUOUS
10
8.0382800000000003
20
-7.5931006692913385
11
8.0439043307086617
21
-7.5902885039370078
0
LINE
8
BLACK
6
CONTINUOUS
10
8.0439043307086617
20
-7.5902885039370078
11
8.0551529133858271
21
-7.5902885039370078
0
LINE
8
BLACK
6
CONTINUOUS
10
8.0551529133858271
20
-7.5902885039370078
11
8.0607772047244097
21
-7.5931006692913385
0
LINE
8
BLACK
6
CONTINUOUS
10
8.0607772047244097
20
-7.5931006692913385
11
8.0635893700787395
21
-7.5987249606299212
0
LINE
8
BLACK
6
CONTINUOUS
10
8.0635893700787395
20
-7.5987249606299212
11
8.0635893700787395
21
-7.6043492519685039
0
LINE
8
BLACK
6
CONTINUOUS
10
8.0635893700787395
20
-7.6043492519685039
11
8.0354678740157475
21
-7.6099735433070865
0
LINE
8
BLACK
6
CONTINUOUS
10
8.0888986614173231
20
-7.6240342913385826
11
8.0917108267716529
21
-7.6268464566929133
0
LINE
8
BLACK
6
CONTINUOUS
10
8.0917108267716529
20
-7.6268464566929133
11
8.0888986614173231
21
-7.6296585826771652
0
LINE
8
BLACK
6
CONTINUOUS
10
8.0888986614173231
20
-7.6296585826771652
11
8.0860865354330702
21
-7.6268464566929133
0
LINE
8
BLACK
6
CONTINUOUS
10
8.0860865354330702
20
-7.6268464566929133
11
8.0888986614173231
21
-7.6240342913385826
0
LINE
8
BLACK
6
CONTINUOUS
10
8.0888986614173231
20
-7.6240342913385826
11
8.0888986614173231
21
-7.6296585826771652
0
LINE
8
BLACK
6
CONTINUOUS
10
8.0888986614173231
20
-7.5931006692913385
11
8.0917108267716529
21
-7.5959127952755905
0
LINE
8
BLACK
6
CONTINUOUS
10
8.0917108267716529
20
-7.5959127952755905
11
8.0888986614173231
21
-7.5987249606299212
0
LINE
8
BLACK
6
CONTINUOUS
10
8.0888986614173231
20
-7.5987249606299212
11
8.0860865354330702
21
-7.5959127952755905
0
LINE
8
BLACK
6
CONTINUOUS
10
8.0860865354330702
20
-7.5959127952755905
11
8.0888986614173231
21
-7.5931006692913385
0
LINE
8
BLACK
6
CONTINUOUS
10
8.0888986614173231
20
-7.5931006692913385
11
8.0888986614173231
21
-7.5987249606299212
0
LINE
8
BLACK
6
CONTINUOUS
10
6.9685905511811024
20
-7.657763779527559
11
11.2205590551181107
21
-7.657763779527559
0
LINE
8
BLACK
6
CONTINUOUS
10
7.0259065354330703
20
-7.739894803149606
11
7.0259065354330703
21
-7.6808396850393699
0
LINE
8
BLACK
6
CONTINUOUS
10
7.0596523228346459
20
-7.739894803149606
11
7.0343429921259837
21
-7.7061490157480312
0
LINE
8
BLACK
6
CONTINUOUS
10
7.0596523228346459
20
-7.6808396850393699
11
7.0259065354330703
21
-7.7145854724409446
0
LINE
8
BLACK
6
CONTINUOUS
10
7.0849616535433073
20
-7.739894803149606
11
7.0849616535433073
21
-7.7005247244094486
0
LINE
8
BLACK
6
CONTINUOUS
10
7.0849616535433073
20
-7.6808396850393699
11
7.0821495275590554
21
-7.6836518503937006
0
LINE
8
BLACK
6
CONTINUOUS
10
7.0821495275590554
20
-7.6836518503937006
11
7.0849616535433073
21
-7.6864639763779525
0
LINE
8
BLACK
6
CONTINUOUS
10
7.0849616535433073
20
-7.6864639763779525
11
7.087773818897638
21
-7.6836518503937006
0
LINE
8
BLACK
6
CONTINUOUS
10
7.087773818897638
20
-7.6836518503937006
11
7.0849616535433073
21
-7.6808396850393699
0
LINE
8
BLACK
6
CONTINUOUS
10
7.0849616535433073
20
-7.6808396850393699
11
7.0849616535433073
21
-7.6864639763779525
0
LINE
8
BLACK
6
CONTINUOUS
10
7.1468289370078741
20
-7.7342705118110233
11
7.1440168110236222
21
-7.737082677165354
0
LINE
8
BLACK
6
CONTINUOUS
10
7.1440168110236222
20
-7.737082677165354
11
7.1355803543307088
21
-7.739894803149606
0
LINE
8
BLACK
6
CONTINUOUS
10
7.1355803543307088
20
-7.739894803149606
11
7.1299560629921261
21
-7.739894803149606
0
LINE
8
BLACK
6
CONTINUOUS
10
7.1299560629921261
20
-7.739894803149606
11
7.1215196062992128
21
-7.737082677165354
0
LINE
8
BLACK
6
CONTINUOUS
10
7.1215196062992128
20
-7.737082677165354
11
7.1158953149606301
21
-7.7314583464566926
0
LINE
8
BLACK
6
CONTINUOUS
10
7.1158953149606301
20
-7.7314583464566926
11
7.1130831496062994
21
-7.7258340551181099
0
LINE
8
BLACK
6
CONTINUOUS
10
7.1130831496062994
20
-7.7258340551181099
11
7.1102710236220474
21
-7.7145854724409446
0
LINE
8
BLACK
6
CONTINUOUS
10
7.1102710236220474
20
-7.7145854724409446
11
7.1102710236220474
21
-7.7061490157480312
0
LINE
8
BLACK
6
CONTINUOUS
10
7.1102710236220474
20
-7.7061490157480312
11
7.1130831496062994
21
-7.6949004330708659
0
LINE
8
BLACK
6
CONTINUOUS
10
7.1130831496062994
20
-7.6949004330708659
11
7.1158953149606301
21
-7.6892761417322832
0
LINE
8
BLACK
6
CONTINUOUS
10
7.1158953149606301
20
-7.6892761417322832
11
7.1215196062992128
21
-7.6836518503937006
0
LINE
8
BLACK
6
CONTINUOUS
10
7.1215196062992128
20
-7.6836518503937006
11
7.1299560629921261
21
-7.6808396850393699
0
LINE
8
BLACK
6
CONTINUOUS
10
7.1299560629921261
20
-7.6808396850393699
11
7.1355803543307088
21
-7.6808396850393699
0
LINE
8
BLACK
6
CONTINUOUS
10
7.1355803543307088
20
-7.6808396850393699
11
7.1440168110236222
21
-7.6836518503937006
0
LINE
8
BLACK
6
CONTINUOUS
10
7.1440168110236222
20
-7.6836518503937006
11
7.1468289370078741
21
-7.6864639763779525
0
LINE
8
BLACK
6
CONTINUOUS
10
7.1974476377952756
20
-7.739894803149606
11
7.1974476377952756
21
-7.7089611811023619
0
LINE
8
BLACK
6
CONTINUOUS
10
7.1974476377952756
20
-7.7089611811023619
11
7.1946354724409449
21
-7.7033368897637793
0
LINE
8
BLACK
6
CONTINUOUS
10
7.1946354724409449
20
-7.7033368897637793
11
7.1890111811023623
21
-7.7005247244094486
0
LINE
8
BLACK
6
CONTINUOUS
10
7.1890111811023623
20
-7.7005247244094486
11
7.1777625984251969
21
-7.7005247244094486
0
LINE
8
BLACK
6
CONTINUOUS
10
7.1777625984251969
20
-7.7005247244094486
11
7.1721382677165355
21
-7.7033368897637793
0
LINE
8
BLACK
6
CONTINUOUS
10
7.1974476377952756
20
-7.737082677165354
11
7.1918233070866142
21
-7.739894803149606
0
LINE
8
BLACK
6
CONTINUOUS
10
7.1918233070866142
20
-7.739894803149606
11
7.1777625984251969
21
-7.739894803149606
0
LINE
8
BLACK
6
CONTINUOUS
10
7.1777625984251969
20
-7.739894803149606
11
7.1721382677165355
21
-7.737082677165354
0
LINE
8
BLACK
6
CONTINUOUS
10
7.1721382677165355
20
-7.737082677165354
11
7.1693261417322836
21
-7.7314583464566926
0
LINE
8
BLACK
6
CONTINUOUS
10
7.1693261417322836
20
-7.7314583464566926
11
7.1693261417322836
21
-7.7258340551181099
0
LINE
8
BLACK
6
CONTINUOUS
10
7.1693261417322836
20
-7.7258340551181099
11
7.1721382677165355
21
-7.7202097637795273
0
LINE
8
BLACK
6
CONTINUOUS
10
7.1721382677165355
20
-7.7202097637795273
11
7.1777625984251969
21
-7.7173976377952753
0
LINE
8
BLACK
6
CONTINUOUS
10
7.1777625984251969
20
-7.7173976377952753
11
7.1918233070866142
21
-7.7173976377952753
0
LINE
8
BLACK
6
CONTINUOUS
10
7.1918233070866142
20
-7.7173976377952753
11
7.1974476377952756
21
-7.7145854724409446
0
LINE
8
BLACK
6
CONTINUOUS
10
7.2508784645669291
20
-7.739894803149606
11
7.2508784645669291
21
-7.6808396850393699
0
LINE
8
BLACK
6
CONTINUOUS
10
7.2508784645669291
20
-7.737082677165354
11
7.2452541338582677
21
-7.739894803149606
0
LINE
8
BLACK
6
CONTINUOUS
10
7.2452541338582677
20
-7.739894803149606
11
7.2340055511811023
21
-7.739894803149606
0
LINE
8
BLACK
6
CONTINUOUS
10
7.2340055511811023
20
-7.739894803149606
11
7.2283812598425197
21
-7.737082677165354
0
LINE
8
BLACK
6
CONTINUOUS
10
7.2283812598425197
20
-7.737082677165354
11
7.225569094488189
21
-7.7342705118110233
0
LINE
8
BLACK
6
CONTINUOUS
10
7.225569094488189
20
-7.7342705118110233
11
7.222756968503937
21
-7.7286462204724407
0
LINE
8
BLACK
6
CONTINUOUS
10
7.222756968503937
20
-7.7286462204724407
11
7.222756968503937
21
-7.7117733070866139
0
LINE
8
BLACK
6
CONTINUOUS
10
7.222756968503937
20
-7.7117733070866139
11
7.225569094488189
21
-7.7061490157480312
0
LINE
8
BLACK
6
CONTINUOUS
10
7.225569094488189
20
-7.7061490157480312
11
7.2283812598425197
21
-7.7033368897637793
0
LINE
8
BLACK
6
CONTINUOUS
10
7.2283812598425197
20
-7.7033368897637793
11
7.2340055511811023
21
-7.7005247244094486
0
LINE
8
BLACK
6
CONTINUOUS
10
7.2340055511811023
20
-7.7005247244094486
11
7.2452541338582677
21
-7.7005247244094486
0
LINE
8
BLACK
6
CONTINUOUS
10
7.2452541338582677
20
-7.7005247244094486
11
7.2508784645669291
21
-7.7033368897637793
0
LINE
8
BLACK
6
CONTINUOUS
10
7.3239942913385825
20
-7.7089611811023619
11
7.3436793307086612
21
-7.7089611811023619
0
LINE
8
BLACK
6
CONTINUOUS
10
7.3521157874015746
20
-7.739894803149606
11
7.3239942913385825
21
-7.739894803149606
0
LINE
8
BLACK
6
CONTINUOUS
10
7.3239942913385825
20
-7.739894803149606
11
7.3239942913385825
21
-7.6808396850393699
0
LINE
8
BLACK
6
CONTINUOUS
10
7.3239942913385825
20
-7.6808396850393699
11
7.3521157874015746
21
-7.6808396850393699
0
LINE
8
BLACK
6
CONTINUOUS
10
7.3774251181102359
20
-7.7342705118110233
11
7.3802372834645666
21
-7.737082677165354
0
LINE
8
BLACK
6
CONTINUOUS
10
7.3802372834645666
20
-7.737082677165354
11
7.3774251181102359
21
-7.739894803149606
0
LINE
8
BLACK
6
CONTINUOUS
10
7.3774251181102359
20
-7.739894803149606
11
7.374612992125984
21
-7.737082677165354
0
LINE
8
BLACK
6
CONTINUOUS
10
7.374612992125984
20
-7.737082677165354
11
7.3774251181102359
21
-7.7342705118110233
0
LINE
8
BLACK
6
CONTINUOUS
10
7.3774251181102359
20
-7.7342705118110233
11
7.3774251181102359
21
-7.739894803149606
0
LINE
8
BLACK
6
CONTINUOUS
10
7.405546614173228
20
-7.739894803149606
11
7.405546614173228
21
-7.6808396850393699
0
LINE
8
BLACK
6
CONTINUOUS
10
7.405546614173228
20
-7.6808396850393699
11
7.4196073622047241
21
-7.6808396850393699
0
LINE
8
BLACK
6
CONTINUOUS
10
7.4196073622047241
20
-7.6808396850393699
11
7.4280438188976374
21
-7.6836518503937006
0
LINE
8
BLACK
6
CONTINUOUS
10
7.4280438188976374
20
-7.6836518503937006
11
7.4336681102362201
21
-7.6892761417322832
0
LINE
8
BLACK
6
CONTINUOUS
10
7.4336681102362201
20
-7.6892761417322832
11
7.4364802755905508
21
-7.6949004330708659
0
LINE
8
BLACK
6
CONTINUOUS
10
7.4364802755905508
20
-7.6949004330708659
11
7.4392924015748028
21
-7.7061490157480312
0
LINE
8
BLACK
6
CONTINUOUS
10
7.4392924015748028
20
-7.7061490157480312
11
7.4392924015748028
21
-7.7145854724409446
0
LINE
8
BLACK
6
CONTINUOUS
10
7.4392924015748028
20
-7.7145854724409446
11
7.4364802755905508
21
-7.7258340551181099
0
LINE
8
BLACK
6
CONTINUOUS
10
7.4364802755905508
20
-7.7258340551181099
11
7.4336681102362201
21
-7.7314583464566926
0
LINE
8
BLACK
6
CONTINUOUS
10
7.4336681102362201
20
-7.7314583464566926
11
7.4280438188976374
21
-7.737082677165354
0
LINE
8
BLACK
6
CONTINUOUS
10
7.4280438188976374
20
-7.737082677165354
11
7.4196073622047241
21
-7.739894803149606
0
LINE
8
BLACK
6
CONTINUOUS
10
7.4196073622047241
20
-7.739894803149606
11
7.405546614173228
21
-7.739894803149606
0
LINE
8
BLACK
6
CONTINUOUS
10
7.4646017322834641
20
-7.7342705118110233
11
7.4674138976377948
21
-7.737082677165354
0
LINE
8
BLACK
6
CONTINUOUS
10
7.4674138976377948
20
-7.737082677165354
11
7.4646017322834641
21
-7.739894803149606
0
LINE
8
BLACK
6
CONTINUOUS
10
7.4646017322834641
20
-7.739894803149606
11
7.4617896062992122
21
-7.737082677165354
0
LINE
8
BLACK
6
CONTINUOUS
10
7.4617896062992122
20
-7.737082677165354
11
7.4646017322834641
21
-7.7342705118110233
0
LINE
8
BLACK
6
CONTINUOUS
10
7.4646017322834641
20
-7.7342705118110233
11
7.4646017322834641
21
-7.739894803149606
0
LINE
8
BLACK
6
CONTINUOUS
10
7.4899111023622043
20
-7.723021929133858
11
7.5180325984251963
21
-7.723021929133858
0
LINE
8
BLACK
6
CONTINUOUS
10
7.4842868110236216
20
-7.739894803149606
11
7.5039718503937003
21
-7.6808396850393699
0
LINE
8
BLACK
6
CONTINUOUS
10
7.5039718503937003
20
-7.6808396850393699
11
7.523656889763779
21
-7.739894803149606
0
LINE
8
BLACK
6
CONTINUOUS
10
7.543341889763779
20
-7.7342705118110233
11
7.5461540551181097
21
-7.737082677165354
0
LINE
8
BLACK
6
CONTINUOUS
10
7.5461540551181097
20
-7.737082677165354
11
7.543341889763779
21
-7.739894803149606
0
LINE
8
BLACK
6
CONTINUOUS
10
7.543341889763779
20
-7.739894803149606
11
7.540529763779527
21
-7.737082677165354
0
LINE
8
BLACK
6
CONTINUOUS
10
7.540529763779527
20
-7.737082677165354
11
7.543341889763779
21
-7.7342705118110233
0
LINE
8
BLACK
6
CONTINUOUS
10
7.543341889763779
20
-7.7342705118110233
11
7.543341889763779
21
-7.739894803149606
0
LINE
8
BLACK
6
CONTINUOUS
10
7.6192699212598427
20
-7.739894803149606
11
7.630518503937008
21
-7.739894803149606
0
LINE
8
BLACK
6
CONTINUOUS
10
7.630518503937008
20
-7.739894803149606
11
7.6361427952755907
21
-7.737082677165354
0
LINE
8
BLACK
6
CONTINUOUS
10
7.6361427952755907
20
-7.737082677165354
11
7.6389549606299214
21
-7.7342705118110233
0
LINE
8
BLACK
6
CONTINUOUS
10
7.6389549606299214
20
-7.7342705118110233
11
7.6445792519685041
21
-7.7258340551181099
0
LINE
8
BLACK
6
CONTINUOUS
10
7.6445792519685041
20
-7.7258340551181099
11
7.6473914173228348
21
-7.7145854724409446
0
LINE
8
BLACK
6
CONTINUOUS
10
7.6473914173228348
20
-7.7145854724409446
11
7.6473914173228348
21
-7.6920882677165352
0
LINE
8
BLACK
6
CONTINUOUS
10
7.6473914173228348
20
-7.6920882677165352
11
7.6445792519685041
21
-7.6864639763779525
0
LINE
8
BLACK
6
CONTINUOUS
10
7.6445792519685041
20
-7.6864639763779525
11
7.6417671259842521
21
-7.6836518503937006
0
LINE
8
BLACK
6
CONTINUOUS
10
7.6417671259842521
20
-7.6836518503937006
11
7.6361427952755907
21
-7.6808396850393699
0
LINE
8
BLACK
6
CONTINUOUS
10
7.6361427952755907
20
-7.6808396850393699
11
7.6248942125984254
21
-7.6808396850393699
0
LINE
8
BLACK
6
CONTINUOUS
10
7.6248942125984254
20
-7.6808396850393699
11
7.6192699212598427
21
-7.6836518503937006
0
LINE
8
BLACK
6
CONTINUOUS
10
7.6192699212598427
20
-7.6836518503937006
11
7.616457755905512
21
-7.6864639763779525
0
LINE
8
BLACK
6
CONTINUOUS
10
7.616457755905512
20
-7.6864639763779525
11
7.61364562992126
21
-7.6920882677165352
0
LINE
8
BLACK
6
CONTINUOUS
10
7.61364562992126
20
-7.6920882677165352
11
7.61364562992126
21
-7.7061490157480312
0
LINE
8
BLACK
6
CONTINUOUS
10
7.61364562992126
20
-7.7061490157480312
11
7.616457755905512
21
-7.7117733070866139
0
LINE
8
BLACK
6
CONTINUOUS
10
7.616457755905512
20
-7.7117733070866139
11
7.6192699212598427
21
-7.7145854724409446
0
LINE
8
BLACK
6
CONTINUOUS
10
7.6192699212598427
20
-7.7145854724409446
11
7.6248942125984254
21
-7.7173976377952753
0
LINE
8
BLACK
6
CONTINUOUS
10
7.6248942125984254
20
-7.7173976377952753
11
7.6361427952755907
21
-7.7173976377952753
0
LINE
8
BLACK
6
CONTINUOUS
10
7.6361427952755907
20
-7.7173976377952753
11
7.6417671259842521
21
-7.7145854724409446
0
LINE
8
BLACK
6
CONTINUOUS
10
7.6417671259842521
20
-7.7145854724409446
11
7.6445792519685041
21
-7.7117733070866139
0
LINE
8
BLACK
6
CONTINUOUS
10
7.6445792519685041
20
-7.7117733070866139
11
7.6473914173228348
21
-7.7061490157480312
0
LINE
8
BLACK
6
CONTINUOUS
10
7.6727007086614174
20
-7.7342705118110233
11
7.6755128740157481
21
-7.737082677165354
0
LINE
8
BLACK
6
CONTINUOUS
10
7.6755128740157481
20
-7.737082677165354
11
7.6727007086614174
21
-7.739894803149606
0
LINE
8
BLACK
6
CONTINUOUS
10
7.6727007086614174
20
-7.739894803149606
11
7.6698885826771654
21
-7.737082677165354
0
LINE
8
BLACK
6
CONTINUOUS
10
7.6698885826771654
20
-7.737082677165354
11
7.6727007086614174
21
-7.7342705118110233
0
LINE
8
BLACK
6
CONTINUOUS
10
7.6727007086614174
20
-7.7342705118110233
11
7.6727007086614174
21
-7.739894803149606
0
LINE
8
BLACK
6
CONTINUOUS
10
7.7120708267716536
20
-7.6808396850393699
11
7.7176951181102362
21
-7.6808396850393699
0
LINE
8
BLACK
6
CONTINUOUS
10
7.7176951181102362
20
-7.6808396850393699
11
7.7233194094488189
21
-7.6836518503937006
0
LINE
8
BLACK
6
CONTINUOUS
10
7.7233194094488189
20
-7.6836518503937006
11
7.7261315748031496
21
-7.6864639763779525
0
LINE
8
BLACK
6
CONTINUOUS
10
7.7261315748031496
20
-7.6864639763779525
11
7.7289437007874016
21
-7.6920882677165352
0
LINE
8
BLACK
6
CONTINUOUS
10
7.7289437007874016
20
-7.6920882677165352
11
7.7317558661417323
21
-7.7033368897637793
0
LINE
8
BLACK
6
CONTINUOUS
10
7.7317558661417323
20
-7.7033368897637793
11
7.7317558661417323
21
-7.7173976377952753
0
LINE
8
BLACK
6
CONTINUOUS
10
7.7317558661417323
20
-7.7173976377952753
11
7.7289437007874016
21
-7.7286462204724407
0
LINE
8
BLACK
6
CONTINUOUS
10
7.7289437007874016
20
-7.7286462204724407
11
7.7261315748031496
21
-7.7342705118110233
0
LINE
8
BLACK
6
CONTINUOUS
10
7.7261315748031496
20
-7.7342705118110233
11
7.7233194094488189
21
-7.737082677165354
0
LINE
8
BLACK
6
CONTINUOUS
10
7.7233194094488189
20
-7.737082677165354
11
7.7176951181102362
21
-7.739894803149606
0
LINE
8
BLACK
6
CONTINUOUS
10
7.7176951181102362
20
-7.739894803149606
11
7.7120708267716536
21
-7.739894803149606
0
LINE
8
BLACK
6
CONTINUOUS
10
7.7120708267716536
20
-7.739894803149606
11
7.7064465354330709
21
-7.737082677165354
0
LINE
8
BLACK
6
CONTINUOUS
10
7.7064465354330709
20
-7.737082677165354
11
7.7036343700787402
21
-7.7342705118110233
0
LINE
8
BLACK
6
CONTINUOUS
10
7.7036343700787402
20
-7.7342705118110233
11
7.7008222047244095
21
-7.7286462204724407
0
LINE
8
BLACK
6
CONTINUOUS
10
7.7008222047244095
20
-7.7286462204724407
11
7.6980100787401575
21
-7.7173976377952753
0
LINE
8
BLACK
6
CONTINUOUS
10
7.6980100787401575
20
-7.7173976377952753
11
7.6980100787401575
21
-7.7033368897637793
0
LINE
8
BLACK
6
CONTINUOUS
10
7.6980100787401575
20
-7.7033368897637793
11
7.7008222047244095
21
-7.6920882677165352
0
LINE
8
BLACK
6
CONTINUOUS
10
7.7008222047244095
20
-7.6920882677165352
11
7.7036343700787402
21
-7.6864639763779525
0
LINE
8
BLACK
6
CONTINUOUS
10
7.7036343700787402
20
-7.6864639763779525
11
7.7064465354330709
21
-7.6836518503937006
0
LINE
8
BLACK
6
CONTINUOUS
10
7.7064465354330709
20
-7.6836518503937006
11
7.7120708267716536
21
-7.6808396850393699
0
LINE
8
BLACK
6
CONTINUOUS
10
7.7570651574803149
20
-7.7342705118110233
11
7.7598773228346456
21
-7.737082677165354
0
LINE
8
BLACK
6
CONTINUOUS
10
7.7598773228346456
20
-7.737082677165354
11
7.7570651574803149
21
-7.739894803149606
0
LINE
8
BLACK
6
CONTINUOUS
10
7.7570651574803149
20
-7.739894803149606
11
7.7542530314960629
21
-7.737082677165354
0
LINE
8
BLACK
6
CONTINUOUS
10
7.7542530314960629
20
-7.737082677165354
11
7.7570651574803149
21
-7.7342705118110233
0
LINE
8
BLACK
6
CONTINUOUS
10
7.7570651574803149
20
-7.7342705118110233
11
7.7570651574803149
21
-7.739894803149606
0
LINE
8
BLACK
6
CONTINUOUS
10
7.8104960236220471
20
-7.7005247244094486
11
7.8104960236220471
21
-7.739894803149606
0
LINE
8
BLACK
6
CONTINUOUS
10
7.7964352755905511
20
-7.6780275590551179
11
7.782374527559055
21
-7.7202097637795273
0
LINE
8
BLACK
6
CONTINUOUS
10
7.782374527559055
20
-7.7202097637795273
11
7.8189324409448817
21
-7.7202097637795273
0
LINE
8
BLACK
6
CONTINUOUS
10
6.9685905511811024
20
-7.5396535433070868
11
11.2205590551181107
21
-7.5396535433070868
0
LINE
8
BLACK
6
CONTINUOUS
10
10.4099942125984253
20
-7.6293514960629922
11
10.3903091732283457
21
-7.6012300000000002
0
LINE
8
BLACK
6
CONTINUOUS
10
10.3762484251968505
20
-7.6293514960629922
11
10.3762484251968505
21
-7.5702963779527561
0
LINE
8
BLACK
6
CONTINUOUS
10
10.3762484251968505
20
-7.5702963779527561
11
10.3987456299212599
21
-7.5702963779527561
0
LINE
8
BLACK
6
CONTINUOUS
10
10.3987456299212599
20
-7.5702963779527561
11
10.4043699212598426
21
-7.5731085433070868
0
LINE
8
BLACK
6
CONTINUOUS
10
10.4043699212598426
20
-7.5731085433070868
11
10.4071820866141724
21
-7.5759206692913388
0
LINE
8
BLACK
6
CONTINUOUS
10
10.4071820866141724
20
-7.5759206692913388
11
10.4099942125984253
21
-7.5815449606299214
0
LINE
8
BLACK
6
CONTINUOUS
10
10.4099942125984253
20
-7.5815449606299214
11
10.4099942125984253
21
-7.5899814173228348
0
LINE
8
BLACK
6
CONTINUOUS
10
10.4099942125984253
20
-7.5899814173228348
11
10.4071820866141724
21
-7.5956057086614175
0
LINE
8
BLACK
6
CONTINUOUS
10
10.4071820866141724
20
-7.5956057086614175
11
10.4043699212598426
21
-7.5984178740157482
0
LINE
8
BLACK
6
CONTINUOUS
10
10.4043699212598426
20
-7.5984178740157482
11
10.3987456299212599
21
-7.6012300000000002
0
LINE
8
BLACK
6
CONTINUOUS
10
10.3987456299212599
20
-7.6012300000000002
11
10.3762484251968505
21
-7.6012300000000002
0
LINE
8
BLACK
6
CONTINUOUS
10
10.4578007480314952
20
-7.6265393700787403
11
10.4521764566929125
21
-7.6293514960629922
0
LINE
8
BLACK
6
CONTINUOUS
10
10.4521764566929125
20
-7.6293514960629922
11
10.4409278740157472
21
-7.6293514960629922
0
LINE
8
BLACK
6
CONTINUOUS
10
10.4409278740157472
20
-7.6293514960629922
11
10.4353035433070858
21
-7.6265393700787403
0
LINE
8
BLACK
6
CONTINUOUS
10
10.4353035433070858
20
-7.6265393700787403
11
10.4324914173228347
21
-7.6209150393700789
0
LINE
8
BLACK
6
CONTINUOUS
10
10.4324914173228347
20
-7.6209150393700789
11
10.4324914173228347
21
-7.5984178740157482
0
LINE
8
BLACK
6
CONTINUOUS
10
10.4324914173228347
20
-7.5984178740157482
11
10.4353035433070858
21
-7.5927935826771655
0
LINE
8
BLACK
6
CONTINUOUS
10
10.4353035433070858
20
-7.5927935826771655
11
10.4409278740157472
21
-7.5899814173228348
0
LINE
8
BLACK
6
CONTINUOUS
10
10.4409278740157472
20
-7.5899814173228348
11
10.4521764566929125
21
-7.5899814173228348
0
LINE
8
BLACK
6
CONTINUOUS
10
10.4521764566929125
20
-7.5899814173228348
11
10.4578007480314952
21
-7.5927935826771655
0
LINE
8
BLACK
6
CONTINUOUS
10
10.4578007480314952
20
-7.5927935826771655
11
10.4606129133858268
21
-7.5984178740157482
0
LINE
8
BLACK
6
CONTINUOUS
10
10.4606129133858268
20
-7.5984178740157482
11
10.4606129133858268
21
-7.6040421653543309
0
LINE
8
BLACK
6
CONTINUOUS
10
10.4606129133858268
20
-7.6040421653543309
11
10.4324914173228347
21
-7.6096664566929135
0
LINE
8
BLACK
6
CONTINUOUS
10
10.4802979133858258
20
-7.5899814173228348
11
10.4943586614173228
21
-7.6293514960629922
0
LINE
8
BLACK
6
CONTINUOUS
10
10.4943586614173228
20
-7.6293514960629922
11
10.5084194094488179
21
-7.5899814173228348
0
LINE
8
BLACK
6
CONTINUOUS
10
10.5309165748031486
20
-7.6237272047244096
11
10.5337287401574802
21
-7.6265393700787403
0
LINE
8
BLACK
6
CONTINUOUS
10
10.5337287401574802
20
-7.6265393700787403
11
10.5309165748031486
21
-7.6293514960629922
0
LINE
8
BLACK
6
CONTINUOUS
10
10.5309165748031486
20
-7.6293514960629922
11
10.5281044488188975
21
-7.6265393700787403
0
LINE
8
BLACK
6
CONTINUOUS
10
10.5281044488188975
20
-7.6265393700787403
11
10.5309165748031486
21
-7.6237272047244096
0
LINE
8
BLACK
6
CONTINUOUS
10
10.5309165748031486
20
-7.6237272047244096
11
10.5309165748031486
21
-7.6293514960629922
0
LINE
8
BLACK
6
CONTINUOUS
10
10.5309165748031486
20
-7.5927935826771655
11
10.5337287401574802
21
-7.5956057086614175
0
LINE
8
BLACK
6
CONTINUOUS
10
10.5337287401574802
20
-7.5956057086614175
11
10.5309165748031486
21
-7.5984178740157482
0
LINE
8
BLACK
6
CONTINUOUS
10
10.5309165748031486
20
-7.5984178740157482
11
10.5281044488188975
21
-7.5956057086614175
0
LINE
8
BLACK
6
CONTINUOUS
10
10.5281044488188975
20
-7.5956057086614175
11
10.5309165748031486
21
-7.5927935826771655
0
LINE
8
BLACK
6
CONTINUOUS
10
10.5309165748031486
20
-7.5927935826771655
11
10.5309165748031486
21
-7.5984178740157482
0
LINE
8
BLACK
6
CONTINUOUS
10
7.0230944094488184
20
-7.6268464566929133
11
7.0315308661417317
21
-7.6296585826771652
0
LINE
8
BLACK
6
CONTINUOUS
10
7.0315308661417317
20
-7.6296585826771652
11
7.045591574803149
21
-7.6296585826771652
0
LINE
8
BLACK
6
CONTINUOUS
10
7.045591574803149
20
-7.6296585826771652
11
7.0512159055118104
21
-7.6268464566929133
0
LINE
8
BLACK
6
CONTINUOUS
10
7.0512159055118104
20
-7.6268464566929133
11
7.0540280314960624
21
-7.6240342913385826
0
LINE
8
BLACK
6
CONTINUOUS
10
7.0540280314960624
20
-7.6240342913385826
11
7.0568401968503931
21
-7.6184099999999999
0
LINE
8
BLACK
6
CONTINUOUS
10
7.0568401968503931
20
-7.6184099999999999
11
7.0568401968503931
21
-7.6127857086614172
0
LINE
8
BLACK
6
CONTINUOUS
10
7.0568401968503931
20
-7.6127857086614172
11
7.0540280314960624
21
-7.6071614173228346
0
LINE
8
BLACK
6
CONTINUOUS
10
7.0540280314960624
20
-7.6071614173228346
11
7.0512159055118104
21
-7.6043492519685039
0
LINE
8
BLACK
6
CONTINUOUS
10
7.0512159055118104
20
-7.6043492519685039
11
7.045591574803149
21
-7.6015370866141732
0
LINE
8
BLACK
6
CONTINUOUS
10
7.045591574803149
20
-7.6015370866141732
11
7.0343429921259837
21
-7.5987249606299212
0
LINE
8
BLACK
6
CONTINUOUS
10
7.0343429921259837
20
-7.5987249606299212
11
7.028718700787401
21
-7.5959127952755905
0
LINE
8
BLACK
6
CONTINUOUS
10
7.028718700787401
20
-7.5959127952755905
11
7.0259065354330703
21
-7.5931006692913385
0
LINE
8
BLACK
6
CONTINUOUS
10
7.0259065354330703
20
-7.5931006692913385
11
7.0230944094488184
21
-7.5874763779527559
0
LINE
8
BLACK
6
CONTINUOUS
10
7.0230944094488184
20
-7.5874763779527559
11
7.0230944094488184
21
-7.5818520472440945
0
LINE
8
BLACK
6
CONTINUOUS
10
7.0230944094488184
20
-7.5818520472440945
11
7.0259065354330703
21
-7.5762277559055118
0
LINE
8
BLACK
6
CONTINUOUS
10
7.0259065354330703
20
-7.5762277559055118
11
7.028718700787401
21
-7.5734156299212598
0
LINE
8
BLACK
6
CONTINUOUS
10
7.028718700787401
20
-7.5734156299212598
11
7.0343429921259837
21
-7.5706034645669291
0
LINE
8
BLACK
6
CONTINUOUS
10
7.0343429921259837
20
-7.5706034645669291
11
7.0484037401574797
21
-7.5706034645669291
0
LINE
8
BLACK
6
CONTINUOUS
10
7.0484037401574797
20
-7.5706034645669291
11
7.0568401968503931
21
-7.5734156299212598
0
LINE
8
BLACK
6
CONTINUOUS
10
7.0821494881889766
20
-7.6296585826771652
11
7.0821494881889766
21
-7.5902885039370078
0
LINE
8
BLACK
6
CONTINUOUS
10
7.0821494881889766
20
-7.5706034645669291
11
7.0793373622047246
21
-7.5734156299212598
0
LINE
8
BLACK
6
CONTINUOUS
10
7.0793373622047246
20
-7.5734156299212598
11
7.0821494881889766
21
-7.5762277559055118
0
LINE
8
BLACK
6
CONTINUOUS
10
7.0821494881889766
20
-7.5762277559055118
11
7.0849616535433073
21
-7.5734156299212598
0
LINE
8
BLACK
6
CONTINUOUS
10
7.0849616535433073
20
-7.5734156299212598
11
7.0821494881889766
21
-7.5706034645669291
0
LINE
8
BLACK
6
CONTINUOUS
10
7.0821494881889766
20
-7.5706034645669291
11
7.0821494881889766
21
-7.5762277559055118
0
LINE
8
BLACK
6
CONTINUOUS
10
7.104646692913386
20
-7.5902885039370078
11
7.1355803543307088
21
-7.5902885039370078
0
LINE
8
BLACK
6
CONTINUOUS
10
7.1355803543307088
20
-7.5902885039370078
11
7.104646692913386
21
-7.6296585826771652
0
LINE
8
BLACK
6
CONTINUOUS
10
7.104646692913386
20
-7.6296585826771652
11
7.1355803543307088
21
-7.6296585826771652
0
LINE
8
BLACK
6
CONTINUOUS
10
7.1805747244094489
20
-7.6268464566929133
11
7.1749504330708662
21
-7.6296585826771652
0
LINE
8
BLACK
6
CONTINUOUS
10
7.1749504330708662
20
-7.6296585826771652
11
7.1637018503937009
21
-7.6296585826771652
0
LINE
8
BLACK
6
CONTINUOUS
10
7.1637018503937009
20
-7.6296585826771652
11
7.1580775196850395
21
-7.6268464566929133
0
LINE
8
BLACK
6
CONTINUOUS
10
7.1580775196850395
20
-7.6268464566929133
11
7.1552653937007875
21
-7.6212221259842519
0
LINE
8
BLACK
6
CONTINUOUS
10
7.1552653937007875
20
-7.6212221259842519
11
7.1552653937007875
21
-7.5987249606299212
0
LINE
8
BLACK
6
CONTINUOUS
10
7.1552653937007875
20
-7.5987249606299212
11
7.1580775196850395
21
-7.5931006692913385
0
LINE
8
BLACK
6
CONTINUOUS
10
7.1580775196850395
20
-7.5931006692913385
11
7.1637018503937009
21
-7.5902885039370078
0
LINE
8
BLACK
6
CONTINUOUS
10
7.1637018503937009
20
-7.5902885039370078
11
7.1749504330708662
21
-7.5902885039370078
0
LINE
8
BLACK
6
CONTINUOUS
10
7.1749504330708662
20
-7.5902885039370078
11
7.1805747244094489
21
-7.5931006692913385
0
LINE
8
BLACK
6
CONTINUOUS
10
7.1805747244094489
20
-7.5931006692913385
11
7.1833868897637796
21
-7.5987249606299212
0
LINE
8
BLACK
6
CONTINUOUS
10
7.1833868897637796
20
-7.5987249606299212
11
7.1833868897637796
21
-7.6043492519685039
0
LINE
8
BLACK
6
CONTINUOUS
10
7.1833868897637796
20
-7.6043492519685039
11
7.1552653937007875
21
-7.6099735433070865
0
LINE
8
BLACK
6
CONTINUOUS
10
7.2086961811023622
20
-7.6240342913385826
11
7.2115083464566929
21
-7.6268464566929133
0
LINE
8
BLACK
6
CONTINUOUS
10
7.2115083464566929
20
-7.6268464566929133
11
7.2086961811023622
21
-7.6296585826771652
0
LINE
8
BLACK
6
CONTINUOUS
10
7.2086961811023622
20
-7.6296585826771652
11
7.2058840551181103
21
-7.6268464566929133
0
LINE
8
BLACK
6
CONTINUOUS
10
7.2058840551181103
20
-7.6268464566929133
11
7.2086961811023622
21
-7.6240342913385826
0
LINE
8
BLACK
6
CONTINUOUS
10
7.2086961811023622
20
-7.6240342913385826
11
7.2086961811023622
21
-7.6296585826771652
0
LINE
8
BLACK
6
CONTINUOUS
10
7.2086961811023622
20
-7.5931006692913385
11
7.2115083464566929
21
-7.5959127952755905
0
LINE
8
BLACK
6
CONTINUOUS
10
7.2115083464566929
20
-7.5959127952755905
11
7.2086961811023622
21
-7.5987249606299212
0
LINE
8
BLACK
6
CONTINUOUS
10
7.2086961811023622
20
-7.5987249606299212
11
7.2058840551181103
21
-7.5959127952755905
0
LINE
8
BLACK
6
CONTINUOUS
10
7.2058840551181103
20
-7.5959127952755905
11
7.2086961811023622
21
-7.5931006692913385
0
LINE
8
BLACK
6
CONTINUOUS
10
7.2086961811023622
20
-7.5931006692913385
11
7.2086961811023622
21
-7.5987249606299212
0
LINE
8
BLACK
6
CONTINUOUS
10
7.2789999212598424
20
-7.6127857086614172
11
7.3071214173228345
21
-7.6127857086614172
0
LINE
8
BLACK
6
CONTINUOUS
10
7.2733756299212597
20
-7.6296585826771652
11
7.2930606692913384
21
-7.5706034645669291
0
LINE
8
BLACK
6
CONTINUOUS
10
7.2930606692913384
20
-7.5706034645669291
11
7.3127457086614172
21
-7.6296585826771652
0
LINE
8
BLACK
6
CONTINUOUS
10
7.3577400787401572
20
-7.5902885039370078
11
7.3577400787401572
21
-7.6296585826771652
0
LINE
8
BLACK
6
CONTINUOUS
10
7.3436793307086612
20
-7.5677913385826772
11
7.3296185826771652
21
-7.6099735433070865
0
LINE
8
BLACK
6
CONTINUOUS
10
7.3296185826771652
20
-7.6099735433070865
11
7.3661764960629919
21
-7.6099735433070865
0
LINE
8
BLACK
6
CONTINUOUS
10
10.3723632283464564
20
-7.739894803149606
11
10.3723632283464564
21
-7.6808396850393699
0
LINE
8
BLACK
6
CONTINUOUS
10
10.4257940944881895
20
-7.739894803149606
11
10.4257940944881895
21
-7.6808396850393699
0
LINE
8
BLACK
6
CONTINUOUS
10
10.4257940944881895
20
-7.737082677165354
11
10.4201697637795281
21
-7.739894803149606
0
LINE
8
BLACK
6
CONTINUOUS
10
10.4201697637795281
20
-7.739894803149606
11
10.4089211811023628
21
-7.739894803149606
0
LINE
8
BLACK
6
CONTINUOUS
10
10.4089211811023628
20
-7.739894803149606
11
10.4032968897637801
21
-7.737082677165354
0
LINE
8
BLACK
6
CONTINUOUS
10
10.4032968897637801
20
-7.737082677165354
11
10.4004847244094485
21
-7.7342705118110233
0
LINE
8
BLACK
6
CONTINUOUS
10
10.4004847244094485
20
-7.7342705118110233
11
10.3976725984251974
21
-7.7286462204724407
0
LINE
8
BLACK
6
CONTINUOUS
10
10.3976725984251974
20
-7.7286462204724407
11
10.3976725984251974
21
-7.7117733070866139
0
LINE
8
BLACK
6
CONTINUOUS
10
10.3976725984251974
20
-7.7117733070866139
11
10.4004847244094485
21
-7.7061490157480312
0
LINE
8
BLACK
6
CONTINUOUS
10
10.4004847244094485
20
-7.7061490157480312
11
10.4032968897637801
21
-7.7033368897637793
0
LINE
8
BLACK
6
CONTINUOUS
10
10.4032968897637801
20
-7.7033368897637793
11
10.4089211811023628
21
-7.7005247244094486
0
LINE
8
BLACK
6
CONTINUOUS
10
10.4089211811023628
20
-7.7005247244094486
11
10.4201697637795281
21
-7.7005247244094486
0
LINE
8
BLACK
6
CONTINUOUS
10
10.4201697637795281
20
-7.7005247244094486
11
10.4257940944881895
21
-7.7033368897637793
0
LINE
8
BLACK
6
CONTINUOUS
10
10.4539155511811028
20
-7.7342705118110233
11
10.4567277165354326
21
-7.737082677165354
0
LINE
8
BLACK
6
CONTINUOUS
10
10.4567277165354326
20
-7.737082677165354
11
10.4539155511811028
21
-7.739894803149606
0
LINE
8
BLACK
6
CONTINUOUS
10
10.4539155511811028
20
-7.739894803149606
11
10.45110342519685
21
-7.737082677165354
0
LINE
8
BLACK
6
CONTINUOUS
10
10.45110342519685
20
-7.737082677165354
11
10.4539155511811028
21
-7.7342705118110233
0
LINE
8
BLACK
6
CONTINUOUS
10
10.4539155511811028
20
-7.7342705118110233
11
10.4539155511811028
21
-7.739894803149606
0
LINE
8
BLACK
6
CONTINUOUS
10
10.4539155511811028
20
-7.7033368897637793
11
10.4567277165354326
21
-7.7061490157480312
0
LINE
8
BLACK
6
CONTINUOUS
10
10.4567277165354326
20
-7.7061490157480312
11
10.4539155511811028
21
-7.7089611811023619
0
LINE
8
BLACK
6
CONTINUOUS
10
10.4539155511811028
20
-7.7089611811023619
11
10.45110342519685
21
-7.7061490157480312
0
LINE
8
BLACK
6
CONTINUOUS
10
10.45110342519685
20
-7.7061490157480312
11
10.4539155511811028
21
-7.7033368897637793
0
LINE
8
BLACK
6
CONTINUOUS
10
10.4539155511811028
20
-7.7033368897637793
11
10.4539155511811028
21
-7.7089611811023619
0
LINE
8
BLACK
6
CONTINUOUS
10
10.5214071259842523
20
-7.6808396850393699
11
10.5579650787401569
21
-7.6808396850393699
0
LINE
8
BLACK
6
CONTINUOUS
10
10.5579650787401569
20
-7.6808396850393699
11
10.5382800393700791
21
-7.7033368897637793
0
LINE
8
BLACK
6
CONTINUOUS
10
10.5382800393700791
20
-7.7033368897637793
11
10.5467164566929128
21
-7.7033368897637793
0
LINE
8
BLACK
6
CONTINUOUS
10
10.5467164566929128
20
-7.7033368897637793
11
10.5523407874015742
21
-7.7061490157480312
0
LINE
8
BLACK
6
CONTINUOUS
10
10.5523407874015742
20
-7.7061490157480312
11
10.5551529133858271
21
-7.7089611811023619
0
LINE
8
BLACK
6
CONTINUOUS
10
10.5551529133858271
20
-7.7089611811023619
11
10.5579650787401569
21
-7.7145854724409446
0
LINE
8
BLACK
6
CONTINUOUS
10
10.5579650787401569
20
-7.7145854724409446
11
10.5579650787401569
21
-7.7286462204724407
0
LINE
8
BLACK
6
CONTINUOUS
10
10.5579650787401569
20
-7.7286462204724407
11
10.5551529133858271
21
-7.7342705118110233
0
LINE
8
BLACK
6
CONTINUOUS
10
10.5551529133858271
20
-7.7342705118110233
11
10.5523407874015742
21
-7.737082677165354
0
LINE
8
BLACK
6
CONTINUOUS
10
10.5523407874015742
20
-7.737082677165354
11
10.5467164566929128
21
-7.739894803149606
0
LINE
8
BLACK
6
CONTINUOUS
10
10.5467164566929128
20
-7.739894803149606
11
10.5298435826771648
21
-7.739894803149606
0
LINE
8
BLACK
6
CONTINUOUS
10
10.5298435826771648
20
-7.739894803149606
11
10.5242192913385821
21
-7.737082677165354
0
LINE
8
BLACK
6
CONTINUOUS
10
10.5242192913385821
20
-7.737082677165354
11
10.5214071259842523
21
-7.7342705118110233
0
LINE
8
BLACK
6
CONTINUOUS
10
10.6254566141732276
20
-7.6780275590551179
11
10.5748379527559049
21
-7.753955551181102
0
LINE
8
BLACK
6
CONTINUOUS
10
10.6395173622047245
20
-7.6808396850393699
11
10.6760753149606291
21
-7.6808396850393699
0
LINE
8
BLACK
6
CONTINUOUS
10
10.6760753149606291
20
-7.6808396850393699
11
10.6563902755905513
21
-7.7033368897637793
0
LINE
8
BLACK
6
CONTINUOUS
10
10.6563902755905513
20
-7.7033368897637793
11
10.664826692913385
21
-7.7033368897637793
0
LINE
8
BLACK
6
CONTINUOUS
10
10.664826692913385
20
-7.7033368897637793
11
10.6704510236220464
21
-7.7061490157480312
0
LINE
8
BLACK
6
CONTINUOUS
10
10.6704510236220464
20
-7.7061490157480312
11
10.6732631496062993
21
-7.7089611811023619
0
LINE
8
BLACK
6
CONTINUOUS
10
10.6732631496062993
20
-7.7089611811023619
11
10.6760753149606291
21
-7.7145854724409446
0
LINE
8
BLACK
6
CONTINUOUS
10
10.6760753149606291
20
-7.7145854724409446
11
10.6760753149606291
21
-7.7286462204724407
0
LINE
8
BLACK
6
CONTINUOUS
10
10.6760753149606291
20
-7.7286462204724407
11
10.6732631496062993
21
-7.7342705118110233
0
LINE
8
BLACK
6
CONTINUOUS
10
10.6732631496062993
20
-7.7342705118110233
11
10.6704510236220464
21
-7.737082677165354
0
LINE
8
BLACK
6
CONTINUOUS
10
10.6704510236220464
20
-7.737082677165354
11
10.664826692913385
21
-7.739894803149606
0
LINE
8
BLACK
6
CONTINUOUS
10
10.664826692913385
20
-7.739894803149606
11
10.647953818897637
21
-7.739894803149606
0
LINE
8
BLACK
6
CONTINUOUS
10
10.647953818897637
20
-7.739894803149606
11
10.6423295275590544
21
-7.737082677165354
0
LINE
8
BLACK
6
CONTINUOUS
10
10.6423295275590544
20
-7.737082677165354
11
10.6395173622047245
21
-7.7342705118110233
0
LINE
8
BLACK
6
CONTINUOUS
10
6.9685905511811024
20
-7.3821732283464563
11
11.2205590551181107
21
-7.3821732283464563
0
LINE
8
BLACK
6
CONTINUOUS
10
7.035194015748031
20
-7.4099070078740157
11
7.0801883858267711
21
-7.4099070078740157
0
LINE
8
BLACK
6
CONTINUOUS
10
7.0478487007874016
20
-7.4886471653543305
11
7.0576912204724405
21
-7.4099070078740157
0
LINE
8
BLACK
6
CONTINUOUS
10
7.0965925984251967
20
-7.4886471653543305
11
7.1031542913385826
21
-7.4361537007874015
0
LINE
8
BLACK
6
CONTINUOUS
10
7.1064351181102356
20
-7.4099070078740157
11
7.1022168897637794
21
-7.4136565354330708
0
LINE
8
BLACK
6
CONTINUOUS
10
7.1022168897637794
20
-7.4136565354330708
11
7.1054977559055112
21
-7.4174060629921259
0
LINE
8
BLACK
6
CONTINUOUS
10
7.1054977559055112
20
-7.4174060629921259
11
7.1097159842519684
21
-7.4136565354330708
0
LINE
8
BLACK
6
CONTINUOUS
10
7.1097159842519684
20
-7.4136565354330708
11
7.1064351181102356
21
-7.4099070078740157
0
LINE
8
BLACK
6
CONTINUOUS
10
7.1064351181102356
20
-7.4099070078740157
11
7.1054977559055112
21
-7.4174060629921259
0
LINE
8
BLACK
6
CONTINUOUS
10
7.1294010236220471
20
-7.4361537007874015
11
7.159397244094488
21
-7.4361537007874015
0
LINE
8
BLACK
6
CONTINUOUS
10
7.1439304330708664
20
-7.4099070078740157
11
7.1354940157480318
21
-7.4773985433070864
0
LINE
8
BLACK
6
CONTINUOUS
10
7.1354940157480318
20
-7.4773985433070864
11
7.1383061417322837
21
-7.4848976377952754
0
LINE
8
BLACK
6
CONTINUOUS
10
7.1383061417322837
20
-7.4848976377952754
11
7.1453365354330707
21
-7.4886471653543305
0
LINE
8
BLACK
6
CONTINUOUS
10
7.1453365354330707
20
-7.4886471653543305
11
7.1528355905511809
21
-7.4886471653543305
0
LINE
8
BLACK
6
CONTINUOUS
10
7.1903309055118108
20
-7.4886471653543305
11
7.1833005118110238
21
-7.4848976377952754
0
LINE
8
BLACK
6
CONTINUOUS
10
7.1833005118110238
20
-7.4848976377952754
11
7.1804883858267718
21
-7.4773985433070864
0
LINE
8
BLACK
6
CONTINUOUS
10
7.1804883858267718
20
-7.4773985433070864
11
7.1889248031496065
21
-7.4099070078740157
0
LINE
8
BLACK
6
CONTINUOUS
10
7.2507920866141733
20
-7.4848976377952754
11
7.2428243307086611
21
-7.4886471653543305
0
LINE
8
BLACK
6
CONTINUOUS
10
7.2428243307086611
20
-7.4886471653543305
11
7.2278261811023619
21
-7.4886471653543305
0
LINE
8
BLACK
6
CONTINUOUS
10
7.2278261811023619
20
-7.4886471653543305
11
7.2207958267716537
21
-7.4848976377952754
0
LINE
8
BLACK
6
CONTINUOUS
10
7.2207958267716537
20
-7.4848976377952754
11
7.2179836614173229
21
-7.4773985433070864
0
LINE
8
BLACK
6
CONTINUOUS
10
7.2179836614173229
20
-7.4773985433070864
11
7.2217332283464568
21
-7.4474023228346455
0
LINE
8
BLACK
6
CONTINUOUS
10
7.2217332283464568
20
-7.4474023228346455
11
7.2264201181102363
21
-7.4399032283464566
0
LINE
8
BLACK
6
CONTINUOUS
10
7.2264201181102363
20
-7.4399032283464566
11
7.2343878740157477
21
-7.4361537007874015
0
LINE
8
BLACK
6
CONTINUOUS
10
7.2343878740157477
20
-7.4361537007874015
11
7.2493859842519681
21
-7.4361537007874015
0
LINE
8
BLACK
6
CONTINUOUS
10
7.2493859842519681
20
-7.4361537007874015
11
7.256416377952756
21
-7.4399032283464566
0
LINE
8
BLACK
6
CONTINUOUS
10
7.256416377952756
20
-7.4399032283464566
11
7.2592285039370079
21
-7.4474023228346455
0
LINE
8
BLACK
6
CONTINUOUS
10
7.2592285039370079
20
-7.4474023228346455
11
7.2582911417322835
21
-7.4549013779527558
0
LINE
8
BLACK
6
CONTINUOUS
10
7.2582911417322835
20
-7.4549013779527558
11
7.2198584251968505
21
-7.462400433070866
0
LINE
8
BLACK
6
CONTINUOUS
10
7.2887561023622043
20
-7.4811480708661415
11
7.2920369291338583
21
-7.4848976377952754
0
LINE
8
BLACK
6
CONTINUOUS
10
7.2920369291338583
20
-7.4848976377952754
11
7.2878187007874011
21
-7.4886471653543305
0
LINE
8
BLACK
6
CONTINUOUS
10
7.2878187007874011
20
-7.4886471653543305
11
7.284537874015748
21
-7.4848976377952754
0
LINE
8
BLACK
6
CONTINUOUS
10
7.284537874015748
20
-7.4848976377952754
11
7.2887561023622043
21
-7.4811480708661415
0
LINE
8
BLACK
6
CONTINUOUS
10
7.2887561023622043
20
-7.4811480708661415
11
7.2878187007874011
21
-7.4886471653543305
0
LINE
8
BLACK
6
CONTINUOUS
10
7.2939116929133858
20
-7.4399032283464566
11
7.2971925196850389
21
-7.4436527559055117
0
LINE
8
BLACK
6
CONTINUOUS
10
7.2971925196850389
20
-7.4436527559055117
11
7.2929743307086614
21
-7.4474023228346455
0
LINE
8
BLACK
6
CONTINUOUS
10
7.2929743307086614
20
-7.4474023228346455
11
7.2896934645669287
21
-7.4436527559055117
0
LINE
8
BLACK
6
CONTINUOUS
10
7.2896934645669287
20
-7.4436527559055117
11
7.2939116929133858
21
-7.4399032283464566
0
LINE
8
BLACK
6
CONTINUOUS
10
7.2939116929133858
20
-7.4399032283464566
11
7.2929743307086614
21
-7.4474023228346455
0
LINE
8
BLACK
6
CONTINUOUS
10
7.045591574803149
20
-7.3073863779527555
11
7.0259065354330703
21
-7.3073863779527555
0
LINE
8
BLACK
6
CONTINUOUS
10
7.0259065354330703
20
-7.3383199999999995
11
7.0259065354330703
21
-7.2792648818897634
0
LINE
8
BLACK
6
CONTINUOUS
10
7.0259065354330703
20
-7.2792648818897634
11
7.0540280314960624
21
-7.2792648818897634
0
LINE
8
BLACK
6
CONTINUOUS
10
7.0765251968503939
20
-7.3383199999999995
11
7.0765251968503939
21
-7.2989499212598421
0
LINE
8
BLACK
6
CONTINUOUS
10
7.0765251968503939
20
-7.2792648818897634
11
7.073713070866142
21
-7.2820770472440941
0
LINE
8
BLACK
6
CONTINUOUS
10
7.073713070866142
20
-7.2820770472440941
11
7.0765251968503939
21
-7.2848891732283461
0
LINE
8
BLACK
6
CONTINUOUS
10
7.0765251968503939
20
-7.2848891732283461
11
7.0793373622047246
21
-7.2820770472440941
0
LINE
8
BLACK
6
CONTINUOUS
10
7.0793373622047246
20
-7.2820770472440941
11
7.0765251968503939
21
-7.2792648818897634
0
LINE
8
BLACK
6
CONTINUOUS
10
7.0765251968503939
20
-7.2792648818897634
11
7.0765251968503939
21
-7.2848891732283461
0
LINE
8
BLACK
6
CONTINUOUS
10
7.1130831496062994
20
-7.3383199999999995
11
7.1074588582677167
21
-7.3355078740157476
0
LINE
8
BLACK
6
CONTINUOUS
10
7.1074588582677167
20
-7.3355078740157476
11
7.104646692913386
21
-7.3298835433070861
0
LINE
8
BLACK
6
CONTINUOUS
10
7.104646692913386
20
-7.3298835433070861
11
7.104646692913386
21
-7.2792648818897634
0
LINE
8
BLACK
6
CONTINUOUS
10
7.1580775196850395
20
-7.3355078740157476
11
7.1524532283464568
21
-7.3383199999999995
0
LINE
8
BLACK
6
CONTINUOUS
10
7.1524532283464568
20
-7.3383199999999995
11
7.1412046456692915
21
-7.3383199999999995
0
LINE
8
BLACK
6
CONTINUOUS
10
7.1412046456692915
20
-7.3383199999999995
11
7.1355803149606301
21
-7.3355078740157476
0
LINE
8
BLACK
6
CONTINUOUS
10
7.1355803149606301
20
-7.3355078740157476
11
7.1327681889763781
21
-7.3298835433070861
0
LINE
8
BLACK
6
CONTINUOUS
10
7.1327681889763781
20
-7.3298835433070861
11
7.1327681889763781
21
-7.3073863779527555
0
LINE
8
BLACK
6
CONTINUOUS
10
7.1327681889763781
20
-7.3073863779527555
11
7.1355803149606301
21
-7.3017620866141728
0
LINE
8
BLACK
6
CONTINUOUS
10
7.1355803149606301
20
-7.3017620866141728
11
7.1412046456692915
21
-7.2989499212598421
0
LINE
8
BLACK
6
CONTINUOUS
10
7.1412046456692915
20
-7.2989499212598421
11
7.1524532283464568
21
-7.2989499212598421
0
LINE
8
BLACK
6
CONTINUOUS
10
7.1524532283464568
20
-7.2989499212598421
11
7.1580775196850395
21
-7.3017620866141728
0
LINE
8
BLACK
6
CONTINUOUS
10
7.1580775196850395
20
-7.3017620866141728
11
7.1608896850393702
21
-7.3073863779527555
0
LINE
8
BLACK
6
CONTINUOUS
10
7.1608896850393702
20
-7.3073863779527555
11
7.1608896850393702
21
-7.3130106692913381
0
LINE
8
BLACK
6
CONTINUOUS
10
7.1608896850393702
20
-7.3130106692913381
11
7.1327681889763781
21
-7.3186349606299208
0
LINE
8
BLACK
6
CONTINUOUS
10
7.1861989763779528
20
-7.3326957086614168
11
7.1890111417322835
21
-7.3355078740157476
0
LINE
8
BLACK
6
CONTINUOUS
10
7.1890111417322835
20
-7.3355078740157476
11
7.1861989763779528
21
-7.3383199999999995
0
LINE
8
BLACK
6
CONTINUOUS
10
7.1861989763779528
20
-7.3383199999999995
11
7.1833868503937008
21
-7.3355078740157476
0
LINE
8
BLACK
6
CONTINUOUS
10
7.1833868503937008
20
-7.3355078740157476
11
7.1861989763779528
21
-7.3326957086614168
0
LINE
8
BLACK
6
CONTINUOUS
10
7.1861989763779528
20
-7.3326957086614168
11
7.1861989763779528
21
-7.3383199999999995
0
LINE
8
BLACK
6
CONTINUOUS
10
7.1861989763779528
20
-7.3017620866141728
11
7.1890111417322835
21
-7.3045742125984248
0
LINE
8
BLACK
6
CONTINUOUS
10
7.1890111417322835
20
-7.3045742125984248
11
7.1861989763779528
21
-7.3073863779527555
0
LINE
8
BLACK
6
CONTINUOUS
10
7.1861989763779528
20
-7.3073863779527555
11
7.1833868503937008
21
-7.3045742125984248
0
LINE
8
BLACK
6
CONTINUOUS
10
7.1833868503937008
20
-7.3045742125984248
11
7.1861989763779528
21
-7.3017620866141728
0
LINE
8
BLACK
6
CONTINUOUS
10
7.1861989763779528
20
-7.3017620866141728
11
7.1861989763779528
21
-7.3073863779527555
0
LINE
8
BLACK
6
CONTINUOUS
10
7.2536905511811023
20
-7.2792648818897634
11
7.2677512992125983
21
-7.3383199999999995
0
LINE
8
BLACK
6
CONTINUOUS
10
7.2677512992125983
20
-7.3383199999999995
11
7.2789998818897637
21
-7.2961377952755901
0
LINE
8
BLACK
6
CONTINUOUS
10
7.2789998818897637
20
-7.2961377952755901
11
7.2902485039370077
21
-7.3383199999999995
0
LINE
8
BLACK
6
CONTINUOUS
10
7.2902485039370077
20
-7.3383199999999995
11
7.3043092519685038
21
-7.2792648818897634
0
LINE
8
BLACK
6
CONTINUOUS
10
7.3268064173228344
20
-7.3383199999999995
11
7.3268064173228344
21
-7.2989499212598421
0
LINE
8
BLACK
6
CONTINUOUS
10
7.3268064173228344
20
-7.2792648818897634
11
7.3239942913385825
21
-7.2820770472440941
0
LINE
8
BLACK
6
CONTINUOUS
10
7.3239942913385825
20
-7.2820770472440941
11
7.3268064173228344
21
-7.2848891732283461
0
LINE
8
BLACK
6
CONTINUOUS
10
7.3268064173228344
20
-7.2848891732283461
11
7.3296185826771652
21
-7.2820770472440941
0
LINE
8
BLACK
6
CONTINUOUS
10
7.3296185826771652
20
-7.2820770472440941
11
7.3268064173228344
21
-7.2792648818897634
0
LINE
8
BLACK
6
CONTINUOUS
10
7.3268064173228344
20
-7.2792648818897634
11
7.3268064173228344
21
-7.2848891732283461
0
LINE
8
BLACK
6
CONTINUOUS
10
7.3633643700787399
20
-7.3383199999999995
11
7.3577400787401572
21
-7.3355078740157476
0
LINE
8
BLACK
6
CONTINUOUS
10
7.3577400787401572
20
-7.3355078740157476
11
7.3549279133858265
21
-7.3298835433070861
0
LINE
8
BLACK
6
CONTINUOUS
10
7.3549279133858265
20
-7.3298835433070861
11
7.3549279133858265
21
-7.2792648818897634
0
LINE
8
BLACK
6
CONTINUOUS
10
7.3858615354330706
20
-7.3383199999999995
11
7.3858615354330706
21
-7.2792648818897634
0
LINE
8
BLACK
6
CONTINUOUS
10
7.391485866141732
20
-7.3158228346456688
11
7.40835874015748
21
-7.3383199999999995
0
LINE
8
BLACK
6
CONTINUOUS
10
7.40835874015748
20
-7.2989499212598421
11
7.3858615354330706
21
-7.3214471259842515
0
LINE
8
BLACK
6
CONTINUOUS
10
7.4336680708661413
20
-7.3383199999999995
11
7.4336680708661413
21
-7.2989499212598421
0
LINE
8
BLACK
6
CONTINUOUS
10
7.4336680708661413
20
-7.2792648818897634
11
7.4308559448818894
21
-7.2820770472440941
0
LINE
8
BLACK
6
CONTINUOUS
10
7.4308559448818894
20
-7.2820770472440941
11
7.4336680708661413
21
-7.2848891732283461
0
LINE
8
BLACK
6
CONTINUOUS
10
7.4336680708661413
20
-7.2848891732283461
11
7.4364802362204721
21
-7.2820770472440941
0
LINE
8
BLACK
6
CONTINUOUS
10
7.4364802362204721
20
-7.2820770472440941
11
7.4336680708661413
21
-7.2792648818897634
0
LINE
8
BLACK
6
CONTINUOUS
10
7.4336680708661413
20
-7.2792648818897634
11
7.4336680708661413
21
-7.2848891732283461
0
LINE
8
BLACK
6
CONTINUOUS
10
7.4617895669291334
20
-7.2989499212598421
11
7.4617895669291334
21
-7.3383199999999995
0
LINE
8
BLACK
6
CONTINUOUS
10
7.4617895669291334
20
-7.3045742125984248
11
7.4646017322834641
21
-7.3017620866141728
0
LINE
8
BLACK
6
CONTINUOUS
10
7.4646017322834641
20
-7.3017620866141728
11
7.4702260236220468
21
-7.2989499212598421
0
LINE
8
BLACK
6
CONTINUOUS
10
7.4702260236220468
20
-7.2989499212598421
11
7.4786624803149602
21
-7.2989499212598421
0
LINE
8
BLACK
6
CONTINUOUS
10
7.4786624803149602
20
-7.2989499212598421
11
7.4842867716535428
21
-7.3017620866141728
0
LINE
8
BLACK
6
CONTINUOUS
10
7.4842867716535428
20
-7.3017620866141728
11
7.4870989370078735
21
-7.3073863779527555
0
LINE
8
BLACK
6
CONTINUOUS
10
7.4870989370078735
20
-7.3073863779527555
11
7.4870989370078735
21
-7.3383199999999995
0
LINE
8
BLACK
6
CONTINUOUS
10
7.5124082677165349
20
-7.3355078740157476
11
7.5180325590551176
21
-7.3383199999999995
0
LINE
8
BLACK
6
CONTINUOUS
10
7.5180325590551176
20
-7.3383199999999995
11
7.5292811417322829
21
-7.3383199999999995
0
LINE
8
BLACK
6
CONTINUOUS
10
7.5292811417322829
20
-7.3383199999999995
11
7.5349054330708656
21
-7.3355078740157476
0
LINE
8
BLACK
6
CONTINUOUS
10
7.5349054330708656
20
-7.3355078740157476
11
7.5377175984251963
21
-7.3298835433070861
0
LINE
8
BLACK
6
CONTINUOUS
10
7.5377175984251963
20
-7.3298835433070861
11
7.5377175984251963
21
-7.3270714173228342
0
LINE
8
BLACK
6
CONTINUOUS
10
7.5377175984251963
20
-7.3270714173228342
11
7.5349054330708656
21
-7.3214471259842515
0
LINE
8
BLACK
6
CONTINUOUS
10
7.5349054330708656
20
-7.3214471259842515
11
7.5292811417322829
21
-7.3186349606299208
0
LINE
8
BLACK
6
CONTINUOUS
10
7.5292811417322829
20
-7.3186349606299208
11
7.5208447244094483
21
-7.3186349606299208
0
LINE
8
BLACK
6
CONTINUOUS
10
7.5208447244094483
20
-7.3186349606299208
11
7.5152203937007869
21
-7.3158228346456688
0
LINE
8
BLACK
6
CONTINUOUS
10
7.5152203937007869
20
-7.3158228346456688
11
7.5124082677165349
21
-7.3101985039370074
0
LINE
8
BLACK
6
CONTINUOUS
10
7.5124082677165349
20
-7.3101985039370074
11
7.5124082677165349
21
-7.3073863779527555
0
LINE
8
BLACK
6
CONTINUOUS
10
7.5124082677165349
20
-7.3073863779527555
11
7.5152203937007869
21
-7.3017620866141728
0
LINE
8
BLACK
6
CONTINUOUS
10
7.5152203937007869
20
-7.3017620866141728
11
7.5208447244094483
21
-7.2989499212598421
0
LINE
8
BLACK
6
CONTINUOUS
10
7.5208447244094483
20
-7.2989499212598421
11
7.5292811417322829
21
-7.2989499212598421
0
LINE
8
BLACK
6
CONTINUOUS
10
7.5292811417322829
20
-7.2989499212598421
11
7.5349054330708656
21
-7.3017620866141728
0
LINE
8
BLACK
6
CONTINUOUS
10
7.5714633858267719
20
-7.3383199999999995
11
7.5658390944881884
21
-7.3355078740157476
0
LINE
8
BLACK
6
CONTINUOUS
10
7.5658390944881884
20
-7.3355078740157476
11
7.5630269291338577
21
-7.3326957086614168
0
LINE
8
BLACK
6
CONTINUOUS
10
7.5630269291338577
20
-7.3326957086614168
11
7.5602148031496057
21
-7.3270714173228342
0
LINE
8
BLACK
6
CONTINUOUS
10
7.5602148031496057
20
-7.3270714173228342
11
7.5602148031496057
21
-7.3101985039370074
0
LINE
8
BLACK
6
CONTINUOUS
10
7.5602148031496057
20
-7.3101985039370074
11
7.5630269291338577
21
-7.3045742125984248
0
LINE
8
BLACK
6
CONTINUOUS
10
7.5630269291338577
20
-7.3045742125984248
11
7.5658390944881884
21
-7.3017620866141728
0
LINE
8
BLACK
6
CONTINUOUS
10
7.5658390944881884
20
-7.3017620866141728
11
7.5714633858267719
21
-7.2989499212598421
0
LINE
8
BLACK
6
CONTINUOUS
10
7.5714633858267719
20
-7.2989499212598421
11
7.5798998425196853
21
-7.2989499212598421
0
LINE
8
BLACK
6
CONTINUOUS
10
7.5798998425196853
20
-7.2989499212598421
11
7.585524133858268
21
-7.3017620866141728
0
LINE
8
BLACK
6
CONTINUOUS
10
7.585524133858268
20
-7.3017620866141728
11
7.5883362992125987
21
-7.3045742125984248
0
LINE
8
BLACK
6
CONTINUOUS
10
7.5883362992125987
20
-7.3045742125984248
11
7.5911484251968506
21
-7.3101985039370074
0
LINE
8
BLACK
6
CONTINUOUS
10
7.5911484251968506
20
-7.3101985039370074
11
7.5911484251968506
21
-7.3270714173228342
0
LINE
8
BLACK
6
CONTINUOUS
10
7.5911484251968506
20
-7.3270714173228342
11
7.5883362992125987
21
-7.3326957086614168
0
LINE
8
BLACK
6
CONTINUOUS
10
7.5883362992125987
20
-7.3326957086614168
11
7.585524133858268
21
-7.3355078740157476
0
LINE
8
BLACK
6
CONTINUOUS
10
7.585524133858268
20
-7.3355078740157476
11
7.5798998425196853
21
-7.3383199999999995
0
LINE
8
BLACK
6
CONTINUOUS
10
7.5798998425196853
20
-7.3383199999999995
11
7.5714633858267719
21
-7.3383199999999995
0
LINE
8
BLACK
6
CONTINUOUS
10
7.616457755905512
20
-7.2989499212598421
11
7.616457755905512
21
-7.3383199999999995
0
LINE
8
BLACK
6
CONTINUOUS
10
7.616457755905512
20
-7.3045742125984248
11
7.6192699212598427
21
-7.3017620866141728
0
LINE
8
BLACK
6
CONTINUOUS
10
7.6192699212598427
20
-7.3017620866141728
11
7.6248942125984254
21
-7.2989499212598421
0
LINE
8
BLACK
6
CONTINUOUS
10
7.6248942125984254
20
-7.2989499212598421
11
7.6333306692913387
21
-7.2989499212598421
0
LINE
8
BLACK
6
CONTINUOUS
10
7.6333306692913387
20
-7.2989499212598421
11
7.6389549606299214
21
-7.3017620866141728
0
LINE
8
BLACK
6
CONTINUOUS
10
7.6389549606299214
20
-7.3017620866141728
11
7.6417671259842521
21
-7.3073863779527555
0
LINE
8
BLACK
6
CONTINUOUS
10
7.6417671259842521
20
-7.3073863779527555
11
7.6417671259842521
21
-7.3383199999999995
0
LINE
8
BLACK
6
CONTINUOUS
10
7.7148829527559055
20
-7.3383199999999995
11
7.7148829527559055
21
-7.2792648818897634
0
LINE
8
BLACK
6
CONTINUOUS
10
7.7148829527559055
20
-7.2792648818897634
11
7.7373801574803149
21
-7.2792648818897634
0
LINE
8
BLACK
6
CONTINUOUS
10
7.7373801574803149
20
-7.2792648818897634
11
7.7430044488188976
21
-7.2820770472440941
0
LINE
8
BLACK
6
CONTINUOUS
10
7.7430044488188976
20
-7.2820770472440941
11
7.7458166141732283
21
-7.2848891732283461
0
LINE
8
BLACK
6
CONTINUOUS
10
7.7458166141732283
20
-7.2848891732283461
11
7.7486287401574803
21
-7.2905134645669287
0
LINE
8
BLACK
6
CONTINUOUS
10
7.7486287401574803
20
-7.2905134645669287
11
7.7486287401574803
21
-7.2989499212598421
0
LINE
8
BLACK
6
CONTINUOUS
10
7.7486287401574803
20
-7.2989499212598421
11
7.7458166141732283
21
-7.3045742125984248
0
LINE
8
BLACK
6
CONTINUOUS
10
7.7458166141732283
20
-7.3045742125984248
11
7.7430044488188976
21
-7.3073863779527555
0
LINE
8
BLACK
6
CONTINUOUS
10
7.7430044488188976
20
-7.3073863779527555
11
7.7373801574803149
21
-7.3101985039370074
0
LINE
8
BLACK
6
CONTINUOUS
10
7.7373801574803149
20
-7.3101985039370074
11
7.7148829527559055
21
-7.3101985039370074
0
LINE
8
BLACK
6
CONTINUOUS
10
7.7739380708661416
20
-7.3383199999999995
11
7.7739380708661416
21
-7.2792648818897634
0
LINE
8
BLACK
6
CONTINUOUS
10
7.7739380708661416
20
-7.2792648818897634
11
7.7879988188976377
21
-7.2792648818897634
0
LINE
8
BLACK
6
CONTINUOUS
10
7.7879988188976377
20
-7.2792648818897634
11
7.7964352755905511
21
-7.2820770472440941
0
LINE
8
BLACK
6
CONTINUOUS
10
7.7964352755905511
20
-7.2820770472440941
11
7.8020595669291337
21
-7.2877013385826768
0
LINE
8
BLACK
6
CONTINUOUS
10
7.8020595669291337
20
-7.2877013385826768
11
7.8048717322834644
21
-7.2933256299212594
0
LINE
8
BLACK
6
CONTINUOUS
10
7.8048717322834644
20
-7.2933256299212594
11
7.8076838582677164
21
-7.3045742125984248
0
LINE
8
BLACK
6
CONTINUOUS
10
7.8076838582677164
20
-7.3045742125984248
11
7.8076838582677164
21
-7.3130106692913381
0
LINE
8
BLACK
6
CONTINUOUS
10
7.8076838582677164
20
-7.3130106692913381
11
7.8048717322834644
21
-7.3242592519685035
0
LINE
8
BLACK
6
CONTINUOUS
10
7.8048717322834644
20
-7.3242592519685035
11
7.8020595669291337
21
-7.3298835433070861
0
LINE
8
BLACK
6
CONTINUOUS
10
7.8020595669291337
20
-7.3298835433070861
11
7.7964352755905511
21
-7.3355078740157476
0
LINE
8
BLACK
6
CONTINUOUS
10
7.7964352755905511
20
-7.3355078740157476
11
7.7879988188976377
21
-7.3383199999999995
0
LINE
8
BLACK
6
CONTINUOUS
10
7.7879988188976377
20
-7.3383199999999995
11
7.7739380708661416
21
-7.3383199999999995
0
LINE
8
BLACK
6
CONTINUOUS
10
7.8329931889763778
20
-7.3326957086614168
11
7.8358053543307085
21
-7.3355078740157476
0
LINE
8
BLACK
6
CONTINUOUS
10
7.8358053543307085
20
-7.3355078740157476
11
7.8329931889763778
21
-7.3383199999999995
0
LINE
8
BLACK
6
CONTINUOUS
10
7.8329931889763778
20
-7.3383199999999995
11
7.8301810629921258
21
-7.3355078740157476
0
LINE
8
BLACK
6
CONTINUOUS
10
7.8301810629921258
20
-7.3355078740157476
11
7.8329931889763778
21
-7.3326957086614168
0
LINE
8
BLACK
6
CONTINUOUS
10
7.8329931889763778
20
-7.3326957086614168
11
7.8329931889763778
21
-7.3383199999999995
0
LINE
8
BLACK
6
CONTINUOUS
10
7.8611146850393698
20
-7.3383199999999995
11
7.8611146850393698
21
-7.2792648818897634
0
LINE
8
BLACK
6
CONTINUOUS
10
7.8667390157480312
20
-7.3158228346456688
11
7.8836118897637792
21
-7.3383199999999995
0
LINE
8
BLACK
6
CONTINUOUS
10
7.8836118897637792
20
-7.2989499212598421
11
7.8611146850393698
21
-7.3214471259842515
0
LINE
8
BLACK
6
CONTINUOUS
10
7.9089212204724406
20
-7.3383199999999995
11
7.9089212204724406
21
-7.2989499212598421
0
LINE
8
BLACK
6
CONTINUOUS
10
7.9089212204724406
20
-7.2792648818897634
11
7.9061090944881887
21
-7.2820770472440941
0
LINE
8
BLACK
6
CONTINUOUS
10
7.9061090944881887
20
-7.2820770472440941
11
7.9089212204724406
21
-7.2848891732283461
0
LINE
8
BLACK
6
CONTINUOUS
10
7.9089212204724406
20
-7.2848891732283461
11
7.9117333858267713
21
-7.2820770472440941
0
LINE
8
BLACK
6
CONTINUOUS
10
7.9117333858267713
20
-7.2820770472440941
11
7.9089212204724406
21
-7.2792648818897634
0
LINE
8
BLACK
6
CONTINUOUS
10
7.9089212204724406
20
-7.2792648818897634
11
7.9089212204724406
21
-7.2848891732283461
0
LINE
8
BLACK
6
CONTINUOUS
10
7.9623520866141728
20
-7.3355078740157476
11
7.9567277559055114
21
-7.3383199999999995
0
LINE
8
BLACK
6
CONTINUOUS
10
7.9567277559055114
20
-7.3383199999999995
11
7.9454791732283461
21
-7.3383199999999995
0
LINE
8
BLACK
6
CONTINUOUS
10
7.9454791732283461
20
-7.3383199999999995
11
7.9398548818897634
21
-7.3355078740157476
0
LINE
8
BLACK
6
CONTINUOUS
10
7.9398548818897634
20
-7.3355078740157476
11
7.9370427165354327
21
-7.3326957086614168
0
LINE
8
BLACK
6
CONTINUOUS
10
7.9370427165354327
20
-7.3326957086614168
11
7.9342305905511807
21
-7.3270714173228342
0
LINE
8
BLACK
6
CONTINUOUS
10
7.9342305905511807
20
-7.3270714173228342
11
7.9342305905511807
21
-7.3101985039370074
0
LINE
8
BLACK
6
CONTINUOUS
10
7.9342305905511807
20
-7.3101985039370074
11
7.9370427165354327
21
-7.3045742125984248
0
LINE
8
BLACK
6
CONTINUOUS
10
7.9370427165354327
20
-7.3045742125984248
11
7.9398548818897634
21
-7.3017620866141728
0
LINE
8
BLACK
6
CONTINUOUS
10
7.9398548818897634
20
-7.3017620866141728
11
7.9454791732283461
21
-7.2989499212598421
0
LINE
8
BLACK
6
CONTINUOUS
10
7.9454791732283461
20
-7.2989499212598421
11
7.9567277559055114
21
-7.2989499212598421
0
LINE
8
BLACK
6
CONTINUOUS
10
7.9567277559055114
20
-7.2989499212598421
11
7.9623520866141728
21
-7.3017620866141728
0
LINE
8
BLACK
6
CONTINUOUS
10
8.0129707480314956
20
-7.3383199999999995
11
8.0129707480314956
21
-7.3073863779527555
0
LINE
8
BLACK
6
CONTINUOUS
10
8.0129707480314956
20
-7.3073863779527555
11
8.0101585826771657
21
-7.3017620866141728
0
LINE
8
BLACK
6
CONTINUOUS
10
8.0101585826771657
20
-7.3017620866141728
11
8.0045342913385831
21
-7.2989499212598421
0
LINE
8
BLACK
6
CONTINUOUS
10
8.0045342913385831
20
-7.2989499212598421
11
7.9932857086614169
21
-7.2989499212598421
0
LINE
8
BLACK
6
CONTINUOUS
10
7.9932857086614169
20
-7.2989499212598421
11
7.9876613779527554
21
-7.3017620866141728
0
LINE
8
BLACK
6
CONTINUOUS
10
8.0129707480314956
20
-7.3355078740157476
11
8.0073464173228341
21
-7.3383199999999995
0
LINE
8
BLACK
6
CONTINUOUS
10
8.0073464173228341
20
-7.3383199999999995
11
7.9932857086614169
21
-7.3383199999999995
0
LINE
8
BLACK
6
CONTINUOUS
10
7.9932857086614169
20
-7.3383199999999995
11
7.9876613779527554
21
-7.3355078740157476
0
LINE
8
BLACK
6
CONTINUOUS
10
7.9876613779527554
20
-7.3355078740157476
11
7.9848492519685035
21
-7.3298835433070861
0
LINE
8
BLACK
6
CONTINUOUS
10
7.9848492519685035
20
-7.3298835433070861
11
7.9848492519685035
21
-7.3242592519685035
0
LINE
8
BLACK
6
CONTINUOUS
10
7.9848492519685035
20
-7.3242592519685035
11
7.9876613779527554
21
-7.3186349606299208
0
LINE
8
BLACK
6
CONTINUOUS
10
7.9876613779527554
20
-7.3186349606299208
11
7.9932857086614169
21
-7.3158228346456688
0
LINE
8
BLACK
6
CONTINUOUS
10
7.9932857086614169
20
-7.3158228346456688
11
8.0073464173228341
21
-7.3158228346456688
0
LINE
8
BLACK
6
CONTINUOUS
10
8.0073464173228341
20
-7.3158228346456688
11
8.0129707480314956
21
-7.3130106692913381
0
LINE
8
BLACK
6
CONTINUOUS
10
8.0664015748031499
20
-7.3383199999999995
11
8.0664015748031499
21
-7.2792648818897634
0
LINE
8
BLACK
6
CONTINUOUS
10
8.0664015748031499
20
-7.3355078740157476
11
8.0607772440944885
21
-7.3383199999999995
0
LINE
8
BLACK
6
CONTINUOUS
10
8.0607772440944885
20
-7.3383199999999995
11
8.0495286614173231
21
-7.3383199999999995
0
LINE
8
BLACK
6
CONTINUOUS
10
8.0495286614173231
20
-7.3383199999999995
11
8.0439043700787405
21
-7.3355078740157476
0
LINE
8
BLACK
6
CONTINUOUS
10
8.0439043700787405
20
-7.3355078740157476
11
8.0410922047244089
21
-7.3326957086614168
0
LINE
8
BLACK
6
CONTINUOUS
10
8.0410922047244089
20
-7.3326957086614168
11
8.0382800787401578
21
-7.3270714173228342
0
LINE
8
BLACK
6
CONTINUOUS
10
8.0382800787401578
20
-7.3270714173228342
11
8.0382800787401578
21
-7.3101985039370074
0
LINE
8
BLACK
6
CONTINUOUS
10
8.0382800787401578
20
-7.3101985039370074
11
8.0410922047244089
21
-7.3045742125984248
0
LINE
8
BLACK
6
CONTINUOUS
10
8.0410922047244089
20
-7.3045742125984248
11
8.0439043700787405
21
-7.3017620866141728
0
LINE
8
BLACK
6
CONTINUOUS
10
8.0439043700787405
20
-7.3017620866141728
11
8.0495286614173231
21
-7.2989499212598421
0
LINE
8
BLACK
6
CONTINUOUS
10
8.0495286614173231
20
-7.2989499212598421
11
8.0607772440944885
21
-7.2989499212598421
0
LINE
8
BLACK
6
CONTINUOUS
10
8.0607772440944885
20
-7.2989499212598421
11
8.0664015748031499
21
-7.3017620866141728
0
LINE
8
BLACK
6
CONTINUOUS
10
8.0804623228346451
20
-7.3439442913385822
11
8.1254566929133851
21
-7.3439442913385822
0
LINE
8
BLACK
6
CONTINUOUS
10
8.1395174015748033
20
-7.2989499212598421
11
8.1395174015748033
21
-7.3580050393700782
0
LINE
8
BLACK
6
CONTINUOUS
10
8.1395174015748033
20
-7.3017620866141728
11
8.1451417322834647
21
-7.2989499212598421
0
LINE
8
BLACK
6
CONTINUOUS
10
8.1451417322834647
20
-7.2989499212598421
11
8.1563903149606301
21
-7.2989499212598421
0
LINE
8
BLACK
6
CONTINUOUS
10
8.1563903149606301
20
-7.2989499212598421
11
8.1620146062992127
21
-7.3017620866141728
0
LINE
8
BLACK
6
CONTINUOUS
10
8.1620146062992127
20
-7.3017620866141728
11
8.1648267716535425
21
-7.3045742125984248
0
LINE
8
BLACK
6
CONTINUOUS
10
8.1648267716535425
20
-7.3045742125984248
11
8.1676388976377954
21
-7.3101985039370074
0
LINE
8
BLACK
6
CONTINUOUS
10
8.1676388976377954
20
-7.3101985039370074
11
8.1676388976377954
21
-7.3270714173228342
0
LINE
8
BLACK
6
CONTINUOUS
10
8.1676388976377954
20
-7.3270714173228342
11
8.1648267716535425
21
-7.3326957086614168
0
LINE
8
BLACK
6
CONTINUOUS
10
8.1648267716535425
20
-7.3326957086614168
11
8.1620146062992127
21
-7.3355078740157476
0
LINE
8
BLACK
6
CONTINUOUS
10
8.1620146062992127
20
-7.3355078740157476
11
8.1563903149606301
21
-7.3383199999999995
0
LINE
8
BLACK
6
CONTINUOUS
10
8.1563903149606301
20
-7.3383199999999995
11
8.1451417322834647
21
-7.3383199999999995
0
LINE
8
BLACK
6
CONTINUOUS
10
8.1451417322834647
20
-7.3383199999999995
11
8.1395174015748033
21
-7.3355078740157476
0
LINE
8
BLACK
6
CONTINUOUS
10
8.2182575984251969
20
-7.3355078740157476
11
8.2126332677165355
21
-7.3383199999999995
0
LINE
8
BLACK
6
CONTINUOUS
10
8.2126332677165355
20
-7.3383199999999995
11
8.2013846850393701
21
-7.3383199999999995
0
LINE
8
BLACK
6
CONTINUOUS
10
8.2013846850393701
20
-7.3383199999999995
11
8.1957603937007875
21
-7.3355078740157476
0
LINE
8
BLACK
6
CONTINUOUS
10
8.1957603937007875
20
-7.3355078740157476
11
8.1929482283464559
21
-7.3326957086614168
0
LINE
8
BLACK
6
CONTINUOUS
10
8.1929482283464559
20
-7.3326957086614168
11
8.1901361023622048
21
-7.3270714173228342
0
LINE
8
BLACK
6
CONTINUOUS
10
8.1901361023622048
20
-7.3270714173228342
11
8.1901361023622048
21
-7.3101985039370074
0
LINE
8
BLACK
6
CONTINUOUS
10
8.1901361023622048
20
-7.3101985039370074
11
8.1929482283464559
21
-7.3045742125984248
0
LINE
8
BLACK
6
CONTINUOUS
10
8.1929482283464559
20
-7.3045742125984248
11
8.1957603937007875
21
-7.3017620866141728
0
LINE
8
BLACK
6
CONTINUOUS
10
8.1957603937007875
20
-7.3017620866141728
11
8.2013846850393701
21
-7.2989499212598421
0
LINE
8
BLACK
6
CONTINUOUS
10
8.2013846850393701
20
-7.2989499212598421
11
8.2126332677165355
21
-7.2989499212598421
0
LINE
8
BLACK
6
CONTINUOUS
10
8.2126332677165355
20
-7.2989499212598421
11
8.2182575984251969
21
-7.3017620866141728
0
LINE
8
BLACK
6
CONTINUOUS
10
8.2435668897637786
20
-7.3383199999999995
11
8.2435668897637786
21
-7.2792648818897634
0
LINE
8
BLACK
6
CONTINUOUS
10
8.2435668897637786
20
-7.3017620866141728
11
8.24919122047244
21
-7.2989499212598421
0
LINE
8
BLACK
6
CONTINUOUS
10
8.24919122047244
20
-7.2989499212598421
11
8.2604398031496054
21
-7.2989499212598421
0
LINE
8
BLACK
6
CONTINUOUS
10
8.2604398031496054
20
-7.2989499212598421
11
8.266064094488188
21
-7.3017620866141728
0
LINE
8
BLACK
6
CONTINUOUS
10
8.266064094488188
20
-7.3017620866141728
11
8.2688762598425196
21
-7.3045742125984248
0
LINE
8
BLACK
6
CONTINUOUS
10
8.2688762598425196
20
-7.3045742125984248
11
8.2716883858267707
21
-7.3101985039370074
0
LINE
8
BLACK
6
CONTINUOUS
10
8.2716883858267707
20
-7.3101985039370074
11
8.2716883858267707
21
-7.3270714173228342
0
LINE
8
BLACK
6
CONTINUOUS
10
8.2716883858267707
20
-7.3270714173228342
11
8.2688762598425196
21
-7.3326957086614168
0
LINE
8
BLACK
6
CONTINUOUS
10
8.2688762598425196
20
-7.3326957086614168
11
8.266064094488188
21
-7.3355078740157476
0
LINE
8
BLACK
6
CONTINUOUS
10
8.266064094488188
20
-7.3355078740157476
11
8.2604398031496054
21
-7.3383199999999995
0
LINE
8
BLACK
6
CONTINUOUS
10
8.2604398031496054
20
-7.3383199999999995
11
8.24919122047244
21
-7.3383199999999995
0
LINE
8
BLACK
6
CONTINUOUS
10
8.24919122047244
20
-7.3383199999999995
11
8.2435668897637786
21
-7.3355078740157476
0
LINE
8
BLACK
6
CONTINUOUS
10
6.9685905511811024
20
-7.1459527559055118
11
11.2205590551181107
21
-7.1459527559055118
0
LINE
8
BLACK
6
CONTINUOUS
10
7.0230944094488184
20
-7.2292086614173225
11
7.0315308661417317
21
-7.2320207874015745
0
LINE
8
BLACK
6
CONTINUOUS
10
7.0315308661417317
20
-7.2320207874015745
11
7.045591574803149
21
-7.2320207874015745
0
LINE
8
BLACK
6
CONTINUOUS
10
7.045591574803149
20
-7.2320207874015745
11
7.0512159055118104
21
-7.2292086614173225
0
LINE
8
BLACK
6
CONTINUOUS
10
7.0512159055118104
20
-7.2292086614173225
11
7.0540280314960624
21
-7.2263964960629918
0
LINE
8
BLACK
6
CONTINUOUS
10
7.0540280314960624
20
-7.2263964960629918
11
7.0568401968503931
21
-7.2207722047244092
0
LINE
8
BLACK
6
CONTINUOUS
10
7.0568401968503931
20
-7.2207722047244092
11
7.0568401968503931
21
-7.2151479133858265
0
LINE
8
BLACK
6
CONTINUOUS
10
7.0568401968503931
20
-7.2151479133858265
11
7.0540280314960624
21
-7.2095236220472438
0
LINE
8
BLACK
6
CONTINUOUS
10
7.0540280314960624
20
-7.2095236220472438
11
7.0512159055118104
21
-7.2067114566929131
0
LINE
8
BLACK
6
CONTINUOUS
10
7.0512159055118104
20
-7.2067114566929131
11
7.045591574803149
21
-7.2038992913385824
0
LINE
8
BLACK
6
CONTINUOUS
10
7.045591574803149
20
-7.2038992913385824
11
7.0343429921259837
21
-7.2010871653543305
0
LINE
8
BLACK
6
CONTINUOUS
10
7.0343429921259837
20
-7.2010871653543305
11
7.028718700787401
21
-7.1982749999999998
0
LINE
8
BLACK
6
CONTINUOUS
10
7.028718700787401
20
-7.1982749999999998
11
7.0259065354330703
21
-7.1954628740157478
0
LINE
8
BLACK
6
CONTINUOUS
10
7.0259065354330703
20
-7.1954628740157478
11
7.0230944094488184
21
-7.1898385826771651
0
LINE
8
BLACK
6
CONTINUOUS
10
7.0230944094488184
20
-7.1898385826771651
11
7.0230944094488184
21
-7.1842142519685037
0
LINE
8
BLACK
6
CONTINUOUS
10
7.0230944094488184
20
-7.1842142519685037
11
7.0259065354330703
21
-7.1785899606299211
0
LINE
8
BLACK
6
CONTINUOUS
10
7.0259065354330703
20
-7.1785899606299211
11
7.028718700787401
21
-7.1757778346456691
0
LINE
8
BLACK
6
CONTINUOUS
10
7.028718700787401
20
-7.1757778346456691
11
7.0343429921259837
21
-7.1729656692913384
0
LINE
8
BLACK
6
CONTINUOUS
10
7.0343429921259837
20
-7.1729656692913384
11
7.0484037401574797
21
-7.1729656692913384
0
LINE
8
BLACK
6
CONTINUOUS
10
7.0484037401574797
20
-7.1729656692913384
11
7.0568401968503931
21
-7.1757778346456691
0
LINE
8
BLACK
6
CONTINUOUS
10
7.0821494881889766
20
-7.2320207874015745
11
7.0821494881889766
21
-7.1729656692913384
0
LINE
8
BLACK
6
CONTINUOUS
10
7.1074588582677167
20
-7.2320207874015745
11
7.1074588582677167
21
-7.2010871653543305
0
LINE
8
BLACK
6
CONTINUOUS
10
7.1074588582677167
20
-7.2010871653543305
11
7.104646692913386
21
-7.1954628740157478
0
LINE
8
BLACK
6
CONTINUOUS
10
7.104646692913386
20
-7.1954628740157478
11
7.0990224015748034
21
-7.1926507086614171
0
LINE
8
BLACK
6
CONTINUOUS
10
7.0990224015748034
20
-7.1926507086614171
11
7.09058594488189
21
-7.1926507086614171
0
LINE
8
BLACK
6
CONTINUOUS
10
7.09058594488189
20
-7.1926507086614171
11
7.0849616535433073
21
-7.1954628740157478
0
LINE
8
BLACK
6
CONTINUOUS
10
7.0849616535433073
20
-7.1954628740157478
11
7.0821494881889766
21
-7.1982749999999998
0
LINE
8
BLACK
6
CONTINUOUS
10
7.1580775196850395
20
-7.2292086614173225
11
7.1524532283464568
21
-7.2320207874015745
0
LINE
8
BLACK
6
CONTINUOUS
10
7.1524532283464568
20
-7.2320207874015745
11
7.1412046456692915
21
-7.2320207874015745
0
LINE
8
BLACK
6
CONTINUOUS
10
7.1412046456692915
20
-7.2320207874015745
11
7.1355803149606301
21
-7.2292086614173225
0
LINE
8
BLACK
6
CONTINUOUS
10
7.1355803149606301
20
-7.2292086614173225
11
7.1327681889763781
21
-7.2235843307086611
0
LINE
8
BLACK
6
CONTINUOUS
10
7.1327681889763781
20
-7.2235843307086611
11
7.1327681889763781
21
-7.2010871653543305
0
LINE
8
BLACK
6
CONTINUOUS
10
7.1327681889763781
20
-7.2010871653543305
11
7.1355803149606301
21
-7.1954628740157478
0
LINE
8
BLACK
6
CONTINUOUS
10
7.1355803149606301
20
-7.1954628740157478
11
7.1412046456692915
21
-7.1926507086614171
0
LINE
8
BLACK
6
CONTINUOUS
10
7.1412046456692915
20
-7.1926507086614171
11
7.1524532283464568
21
-7.1926507086614171
0
LINE
8
BLACK
6
CONTINUOUS
10
7.1524532283464568
20
-7.1926507086614171
11
7.1580775196850395
21
-7.1954628740157478
0
LINE
8
BLACK
6
CONTINUOUS
10
7.1580775196850395
20
-7.1954628740157478
11
7.1608896850393702
21
-7.2010871653543305
0
LINE
8
BLACK
6
CONTINUOUS
10
7.1608896850393702
20
-7.2010871653543305
11
7.1608896850393702
21
-7.2067114566929131
0
LINE
8
BLACK
6
CONTINUOUS
10
7.1608896850393702
20
-7.2067114566929131
11
7.1327681889763781
21
-7.2123357480314958
0
LINE
8
BLACK
6
CONTINUOUS
10
7.2086961811023622
20
-7.2292086614173225
11
7.2030718897637795
21
-7.2320207874015745
0
LINE
8
BLACK
6
CONTINUOUS
10
7.2030718897637795
20
-7.2320207874015745
11
7.1918233070866142
21
-7.2320207874015745
0
LINE
8
BLACK
6
CONTINUOUS
10
7.1918233070866142
20
-7.2320207874015745
11
7.1861989763779528
21
-7.2292086614173225
0
LINE
8
BLACK
6
CONTINUOUS
10
7.1861989763779528
20
-7.2292086614173225
11
7.1833868503937008
21
-7.2235843307086611
0
LINE
8
BLACK
6
CONTINUOUS
10
7.1833868503937008
20
-7.2235843307086611
11
7.1833868503937008
21
-7.2010871653543305
0
LINE
8
BLACK
6
CONTINUOUS
10
7.1833868503937008
20
-7.2010871653543305
11
7.1861989763779528
21
-7.1954628740157478
0
LINE
8
BLACK
6
CONTINUOUS
10
7.1861989763779528
20
-7.1954628740157478
11
7.1918233070866142
21
-7.1926507086614171
0
LINE
8
BLACK
6
CONTINUOUS
10
7.1918233070866142
20
-7.1926507086614171
11
7.2030718897637795
21
-7.1926507086614171
0
LINE
8
BLACK
6
CONTINUOUS
10
7.2030718897637795
20
-7.1926507086614171
11
7.2086961811023622
21
-7.1954628740157478
0
LINE
8
BLACK
6
CONTINUOUS
10
7.2086961811023622
20
-7.1954628740157478
11
7.2115083464566929
21
-7.2010871653543305
0
LINE
8
BLACK
6
CONTINUOUS
10
7.2115083464566929
20
-7.2010871653543305
11
7.2115083464566929
21
-7.2067114566929131
0
LINE
8
BLACK
6
CONTINUOUS
10
7.2115083464566929
20
-7.2067114566929131
11
7.1833868503937008
21
-7.2123357480314958
0
LINE
8
BLACK
6
CONTINUOUS
10
7.2283812204724409
20
-7.1926507086614171
11
7.2508783858267716
21
-7.1926507086614171
0
LINE
8
BLACK
6
CONTINUOUS
10
7.2368176377952755
20
-7.1729656692913384
11
7.2368176377952755
21
-7.2235843307086611
0
LINE
8
BLACK
6
CONTINUOUS
10
7.2368176377952755
20
-7.2235843307086611
11
7.2396298031496062
21
-7.2292086614173225
0
LINE
8
BLACK
6
CONTINUOUS
10
7.2396298031496062
20
-7.2292086614173225
11
7.2452540944881889
21
-7.2320207874015745
0
LINE
8
BLACK
6
CONTINUOUS
10
7.2452540944881889
20
-7.2320207874015745
11
7.2508783858267716
21
-7.2320207874015745
0
LINE
8
BLACK
6
CONTINUOUS
10
7.2705634251968503
20
-7.2263964960629918
11
7.273375590551181
21
-7.2292086614173225
0
LINE
8
BLACK
6
CONTINUOUS
10
7.273375590551181
20
-7.2292086614173225
11
7.2705634251968503
21
-7.2320207874015745
0
LINE
8
BLACK
6
CONTINUOUS
10
7.2705634251968503
20
-7.2320207874015745
11
7.2677512992125983
21
-7.2292086614173225
0
LINE
8
BLACK
6
CONTINUOUS
10
7.2677512992125983
20
-7.2292086614173225
11
7.2705634251968503
21
-7.2263964960629918
0
LINE
8
BLACK
6
CONTINUOUS
10
7.2705634251968503
20
-7.2263964960629918
11
7.2705634251968503
21
-7.2320207874015745
0
LINE
8
BLACK
6
CONTINUOUS
10
7.2705634251968503
20
-7.1954628740157478
11
7.273375590551181
21
-7.1982749999999998
0
LINE
8
BLACK
6
CONTINUOUS
10
7.273375590551181
20
-7.1982749999999998
11
7.2705634251968503
21
-7.2010871653543305
0
LINE
8
BLACK
6
CONTINUOUS
10
7.2705634251968503
20
-7.2010871653543305
11
7.2677512992125983
21
-7.1982749999999998
0
LINE
8
BLACK
6
CONTINUOUS
10
7.2677512992125983
20
-7.1982749999999998
11
7.2705634251968503
21
-7.1954628740157478
0
LINE
8
BLACK
6
CONTINUOUS
10
7.2705634251968503
20
-7.1954628740157478
11
7.2705634251968503
21
-7.2010871653543305
0
LINE
8
BLACK
6
CONTINUOUS
10
7.7559921259842515
20
-7.5396535433070868
11
7.7559921259842515
21
-7.657763779527559
0
LINE
8
BLACK
6
CONTINUOUS
10
10.2756771653543311
20
-7.5396535433070868
11
10.2756771653543311
21
-7.79555905511811
0
LINE
8
BLACK
6
CONTINUOUS
10
7.1464225984251968
20
-2.7344018110236221
11
7.1474879527559052
21
-2.7354671653543305
0
LINE
8
BLACK
6
CONTINUOUS
10
7.1474879527559052
20
-2.7354671653543305
11
7.1476377952755907
21
-2.7362204724409449
0
LINE
8
BLACK
6
CONTINUOUS
10
7.1476377952755907
20
-2.7362204724409449
11
7.1476377952755907
21
-3.4055118110236218
0
LINE
8
BLACK
6
CONTINUOUS
10
7.1476377952755907
20
-3.4055118110236218
11
7.1474879527559052
21
-3.4062651181102361
0
LINE
8
BLACK
6
CONTINUOUS
10
7.1474879527559052
20
-3.4062651181102361
11
7.1464225984251968
21
-3.407330472440945
0
LINE
8
BLACK
6
CONTINUOUS
10
7.1464225984251968
20
-3.407330472440945
11
7.1456692913385824
21
-3.4074803149606296
0
LINE
8
BLACK
6
CONTINUOUS
10
7.1456692913385824
20
-3.4074803149606296
11
5.7086614173228343
21
-3.4074803149606296
0
LINE
8
BLACK
6
CONTINUOUS
10
5.7086614173228343
20
-3.4074803149606296
11
5.7079081102362199
21
-3.407330472440945
0
LINE
8
BLACK
6
CONTINUOUS
10
5.7079081102362199
20
-3.407330472440945
11
5.7068427559055115
21
-3.4062651181102361
0
LINE
8
BLACK
6
CONTINUOUS
10
5.7068427559055115
20
-3.4062651181102361
11
5.7066929133858268
21
-3.4055118110236218
0
LINE
8
BLACK
6
CONTINUOUS
10
5.7066929133858268
20
-3.4055118110236218
11
5.7066929133858268
21
-2.7362204724409449
0
LINE
8
BLACK
6
CONTINUOUS
10
5.7066929133858268
20
-2.7362204724409449
11
5.7068427559055115
21
-2.7354671653543305
0
LINE
8
BLACK
6
CONTINUOUS
10
5.7068427559055115
20
-2.7354671653543305
11
5.7079081102362199
21
-2.7344018110236221
0
LINE
8
BLACK
6
CONTINUOUS
10
5.7079081102362199
20
-2.7344018110236221
11
5.7086614173228343
21
-2.734251968503937
0
LINE
8
BLACK
6
CONTINUOUS
10
5.7086614173228343
20
-2.734251968503937
11
7.1456692913385824
21
-2.734251968503937
0
LINE
8
BLACK
6
CONTINUOUS
10
7.1456692913385824
20
-2.734251968503937
11
7.1464225984251968
21
-2.7344018110236221
0
LINE
8
BLACK
6
CONTINUOUS
10
5.7106299212598426
20
-2.7381889763779528
11
5.7106299212598426
21
-3.4035433070866139
0
LINE
8
BLACK
6
CONTINUOUS
10
5.7106299212598426
20
-3.4035433070866139
11
7.143700787401575
21
-3.4035433070866139
0
LINE
8
BLACK
6
CONTINUOUS
10
7.143700787401575
20
-3.4035433070866139
11
7.143700787401575
21
-2.7381889763779528
0
LINE
8
BLACK
6
CONTINUOUS
10
7.143700787401575
20
-2.7381889763779528
11
5.7106299212598426
21
-2.7381889763779528
  0
ENDSEC
  0
EOF
