  0
SECTION
  2
HEADER
  9
$ANGBASE
  50
0.0
  9
$ANGDIR
  70
1
  9
$MEASUREMENT
  70
0
  0
ENDSEC
  0
SECTION
  2
TABLES
  0
TABLE
  2
LTYPE
  70
4
  0
LTYPE
  5
40F
  2
CONTINUOUS
  70
0
  3
Solid line
  72
65
  73
0
  40
0.0
  0
LTYPE
  5
410
  2
DASHDOT
 70
0
  3
Dash Dot ____ _ ____ _
 72
65
 73
4
 40
2.0
 49
1.25
 49
-0.25
 49
0.25
 49
-0.25
  0
LTYPE
  5
411
  2
DASHED
 70
0
  3
Dashed __ __ __ __ __
 72
65
 73
2
 40
0.75
 49
0.5
 49
-0.25
  0
LTYPE
  5
43B
  2
DOTTED
 70
0
  3
Dotted .  .  .  .
 72
65
 73
2
 40
0.2
 49
0.0
 49
-0.2
  0
ENDTAB
  0
TABLE
  2
STYLE
  70
4
  0
STYLE
  2
KICAD
  70
0
  40
0
  41
1
  42
1
  50
0
  71
0
  3
isocp.shx
  0
STYLE
  2
KICADB
  70
0
  40
0
  41
1
  42
1
  50
0
  71
0
  3
isocp.shx
  0
STYLE
  2
KICADI
  70
0
  40
0
  41
1
  42
1
  50
15
  71
0
  3
isocp.shx
  0
STYLE
  2
KICADBI
  70
0
  40
0
  41
1
  42
1
  50
15
  71
0
  3
isocp.shx
  0
ENDTAB
  0
TABLE
  2
LAYER
  70
1
  0
LAYER
  2
BLACK
  70
0
  62
7
  6
CONTINUOUS
  0
ENDTAB
  0
ENDSEC
  0
SECTION
  2
ENTITIES
0
LINE
8
BLACK
6
CONTINUOUS
10
6.9685905511811024
20
-6.5357165354330711
11
11.2205590551181107
21
-6.5357165354330711
0
LINE
8
BLACK
6
CONTINUOUS
10
11.2205590551181107
20
-6.5357165354330711
11
11.2205590551181107
21
-7.79555905511811
0
LINE
8
BLACK
6
CONTINUOUS
10
11.2205590551181107
20
-7.79555905511811
11
6.9685905511811024
21
-7.79555905511811
0
LINE
8
BLACK
6
CONTINUOUS
10
6.9685905511811024
20
-7.79555905511811
11
6.9685905511811024
21
-6.5357165354330711
0
LINE
8
BLACK
6
CONTINUOUS
10
0.3937007874015748
20
-0.3937007874015748
11
11.2992992125984255
21
-0.3937007874015748
0
LINE
8
BLACK
6
CONTINUOUS
10
11.2992992125984255
20
-0.3937007874015748
11
11.2992992125984255
21
-7.8742992125984248
0
LINE
8
BLACK
6
CONTINUOUS
10
11.2992992125984255
20
-7.8742992125984248
11
0.3937007874015748
21
-7.8742992125984248
0
LINE
8
BLACK
6
CONTINUOUS
10
0.3937007874015748
20
-7.8742992125984248
11
0.3937007874015748
21
-0.3937007874015748
0
LINE
8
BLACK
6
CONTINUOUS
10
0.4724409448818898
20
-0.4724409448818898
11
11.2205590551181107
21
-0.4724409448818898
0
LINE
8
BLACK
6
CONTINUOUS
10
11.2205590551181107
20
-0.4724409448818898
11
11.2205590551181107
21
-7.79555905511811
0
LINE
8
BLACK
6
CONTINUOUS
10
11.2205590551181107
20
-7.79555905511811
11
0.4724409448818898
21
-7.79555905511811
0
LINE
8
BLACK
6
CONTINUOUS
10
0.4724409448818898
20
-7.79555905511811
11
0.4724409448818898
21
-0.4724409448818898
0
LINE
8
BLACK
6
CONTINUOUS
10
2.3622047244094486
20
-0.4724409448818898
11
2.3622047244094486
21
-0.3937007874015748
0
LINE
8
BLACK
6
CONTINUOUS
10
4.3307086614173231
20
-0.4724409448818898
11
4.3307086614173231
21
-0.3937007874015748
0
LINE
8
BLACK
6
CONTINUOUS
10
6.2992125984251963
20
-0.4724409448818898
11
6.2992125984251963
21
-0.3937007874015748
0
LINE
8
BLACK
6
CONTINUOUS
10
8.2677165354330704
20
-0.4724409448818898
11
8.2677165354330704
21
-0.3937007874015748
0
LINE
8
BLACK
6
CONTINUOUS
10
10.2362204724409445
20
-0.4724409448818898
11
10.2362204724409445
21
-0.3937007874015748
0
LINE
8
BLACK
6
CONTINUOUS
10
1.4208330708661416
20
-0.4564411023622047
11
1.3915867322834645
21
-0.4564411023622047
0
LINE
8
BLACK
6
CONTINUOUS
10
1.4062098818897637
20
-0.4564411023622047
11
1.4062098818897637
21
-0.40526
0
LINE
8
BLACK
6
CONTINUOUS
10
1.4062098818897637
20
-0.40526
11
1.4013355118110236
21
-0.4125716141732284
0
LINE
8
BLACK
6
CONTINUOUS
10
1.4013355118110236
20
-0.4125716141732284
11
1.3964611023622047
21
-0.4174459842519685
0
LINE
8
BLACK
6
CONTINUOUS
10
1.3964611023622047
20
-0.4174459842519685
11
1.3915867322834645
21
-0.4198831889763779
0
LINE
8
BLACK
6
CONTINUOUS
10
3.3600906692913384
20
-0.4101344094488189
11
3.3625278346456691
21
-0.4076972047244095
0
LINE
8
BLACK
6
CONTINUOUS
10
3.3625278346456691
20
-0.4076972047244095
11
3.367402244094488
21
-0.40526
0
LINE
8
BLACK
6
CONTINUOUS
10
3.367402244094488
20
-0.40526
11
3.3795882283464564
21
-0.40526
0
LINE
8
BLACK
6
CONTINUOUS
10
3.3795882283464564
20
-0.40526
11
3.3844625984251966
21
-0.4076972047244095
0
LINE
8
BLACK
6
CONTINUOUS
10
3.3844625984251966
20
-0.4076972047244095
11
3.386899803149606
21
-0.4101344094488189
0
LINE
8
BLACK
6
CONTINUOUS
10
3.386899803149606
20
-0.4101344094488189
11
3.3893370078740155
21
-0.415008779527559
0
LINE
8
BLACK
6
CONTINUOUS
10
3.3893370078740155
20
-0.415008779527559
11
3.3893370078740155
21
-0.4198831889763779
0
LINE
8
BLACK
6
CONTINUOUS
10
3.3893370078740155
20
-0.4198831889763779
11
3.386899803149606
21
-0.4271947637795275
0
LINE
8
BLACK
6
CONTINUOUS
10
3.386899803149606
20
-0.4271947637795275
11
3.3576534645669289
21
-0.4564411023622047
0
LINE
8
BLACK
6
CONTINUOUS
10
3.3576534645669289
20
-0.4564411023622047
11
3.3893370078740155
21
-0.4564411023622047
0
LINE
8
BLACK
6
CONTINUOUS
10
5.326157401574803
20
-0.40526
11
5.3578409448818896
21
-0.40526
0
LINE
8
BLACK
6
CONTINUOUS
10
5.3578409448818896
20
-0.40526
11
5.3407805511811022
21
-0.4247575590551181
0
LINE
8
BLACK
6
CONTINUOUS
10
5.3407805511811022
20
-0.4247575590551181
11
5.3480921653543305
21
-0.4247575590551181
0
LINE
8
BLACK
6
CONTINUOUS
10
5.3480921653543305
20
-0.4247575590551181
11
5.3529665354330707
21
-0.4271947637795275
0
LINE
8
BLACK
6
CONTINUOUS
10
5.3529665354330707
20
-0.4271947637795275
11
5.3554037401574801
21
-0.429631968503937
0
LINE
8
BLACK
6
CONTINUOUS
10
5.3554037401574801
20
-0.429631968503937
11
5.3578409448818896
21
-0.4345063385826772
0
LINE
8
BLACK
6
CONTINUOUS
10
5.3578409448818896
20
-0.4345063385826772
11
5.3578409448818896
21
-0.4466923228346457
0
LINE
8
BLACK
6
CONTINUOUS
10
5.3578409448818896
20
-0.4466923228346457
11
5.3554037401574801
21
-0.4515667322834646
0
LINE
8
BLACK
6
CONTINUOUS
10
5.3554037401574801
20
-0.4515667322834646
11
5.3529665354330707
21
-0.454003937007874
0
LINE
8
BLACK
6
CONTINUOUS
10
5.3529665354330707
20
-0.454003937007874
11
5.3480921653543305
21
-0.4564411023622047
0
LINE
8
BLACK
6
CONTINUOUS
10
5.3480921653543305
20
-0.4564411023622047
11
5.3334689763779526
21
-0.4564411023622047
0
LINE
8
BLACK
6
CONTINUOUS
10
5.3334689763779526
20
-0.4564411023622047
11
5.3285946062992124
21
-0.454003937007874
0
LINE
8
BLACK
6
CONTINUOUS
10
5.3285946062992124
20
-0.454003937007874
11
5.326157401574803
21
-0.4515667322834646
0
LINE
8
BLACK
6
CONTINUOUS
10
7.3214704724409447
20
-0.4223203937007874
11
7.3214704724409447
21
-0.4564411023622047
0
LINE
8
BLACK
6
CONTINUOUS
10
7.3092844881889762
20
-0.4028228346456693
11
7.2970985433070865
21
-0.4393807480314961
0
LINE
8
BLACK
6
CONTINUOUS
10
7.2970985433070865
20
-0.4393807480314961
11
7.3287820472440943
21
-0.4393807480314961
0
LINE
8
BLACK
6
CONTINUOUS
10
9.2924116141732274
20
-0.40526
11
9.2680396456692904
21
-0.40526
0
LINE
8
BLACK
6
CONTINUOUS
10
9.2680396456692904
20
-0.40526
11
9.2656024803149606
21
-0.429631968503937
0
LINE
8
BLACK
6
CONTINUOUS
10
9.2656024803149606
20
-0.429631968503937
11
9.2680396456692904
21
-0.4271947637795275
0
LINE
8
BLACK
6
CONTINUOUS
10
9.2680396456692904
20
-0.4271947637795275
11
9.2729140551181093
21
-0.4247575590551181
0
LINE
8
BLACK
6
CONTINUOUS
10
9.2729140551181093
20
-0.4247575590551181
11
9.2851000393700787
21
-0.4247575590551181
0
LINE
8
BLACK
6
CONTINUOUS
10
9.2851000393700787
20
-0.4247575590551181
11
9.2899744094488188
21
-0.4271947637795275
0
LINE
8
BLACK
6
CONTINUOUS
10
9.2899744094488188
20
-0.4271947637795275
11
9.2924116141732274
21
-0.429631968503937
0
LINE
8
BLACK
6
CONTINUOUS
10
9.2924116141732274
20
-0.429631968503937
11
9.2948488188976377
21
-0.4345063385826772
0
LINE
8
BLACK
6
CONTINUOUS
10
9.2948488188976377
20
-0.4345063385826772
11
9.2948488188976377
21
-0.4466923228346457
0
LINE
8
BLACK
6
CONTINUOUS
10
9.2948488188976377
20
-0.4466923228346457
11
9.2924116141732274
21
-0.4515667322834646
0
LINE
8
BLACK
6
CONTINUOUS
10
9.2924116141732274
20
-0.4515667322834646
11
9.2899744094488188
21
-0.454003937007874
0
LINE
8
BLACK
6
CONTINUOUS
10
9.2899744094488188
20
-0.454003937007874
11
9.2851000393700787
21
-0.4564411023622047
0
LINE
8
BLACK
6
CONTINUOUS
10
9.2851000393700787
20
-0.4564411023622047
11
9.2729140551181093
21
-0.4564411023622047
0
LINE
8
BLACK
6
CONTINUOUS
10
9.2729140551181093
20
-0.4564411023622047
11
9.2680396456692904
21
-0.454003937007874
0
LINE
8
BLACK
6
CONTINUOUS
10
9.2680396456692904
20
-0.454003937007874
11
9.2656024803149606
21
-0.4515667322834646
0
LINE
8
BLACK
6
CONTINUOUS
10
11.2584783464566929
20
-0.40526
11
11.2487295669291338
21
-0.40526
0
LINE
8
BLACK
6
CONTINUOUS
10
11.2487295669291338
20
-0.40526
11
11.2438551968503937
21
-0.4076972047244095
0
LINE
8
BLACK
6
CONTINUOUS
10
11.2438551968503937
20
-0.4076972047244095
11
11.2414179921259834
21
-0.4101344094488189
0
LINE
8
BLACK
6
CONTINUOUS
10
11.2414179921259834
20
-0.4101344094488189
11
11.2365435826771645
21
-0.4174459842519685
0
LINE
8
BLACK
6
CONTINUOUS
10
11.2365435826771645
20
-0.4174459842519685
11
11.2341064173228347
21
-0.4271947637795275
0
LINE
8
BLACK
6
CONTINUOUS
10
11.2341064173228347
20
-0.4271947637795275
11
11.2341064173228347
21
-0.4466923228346457
0
LINE
8
BLACK
6
CONTINUOUS
10
11.2341064173228347
20
-0.4466923228346457
11
11.2365435826771645
21
-0.4515667322834646
0
LINE
8
BLACK
6
CONTINUOUS
10
11.2365435826771645
20
-0.4515667322834646
11
11.2389807874015748
21
-0.454003937007874
0
LINE
8
BLACK
6
CONTINUOUS
10
11.2389807874015748
20
-0.454003937007874
11
11.2438551968503937
21
-0.4564411023622047
0
LINE
8
BLACK
6
CONTINUOUS
10
11.2438551968503937
20
-0.4564411023622047
11
11.2536039763779527
21
-0.4564411023622047
0
LINE
8
BLACK
6
CONTINUOUS
10
11.2536039763779527
20
-0.4564411023622047
11
11.2584783464566929
21
-0.454003937007874
0
LINE
8
BLACK
6
CONTINUOUS
10
11.2584783464566929
20
-0.454003937007874
11
11.2609155511811014
21
-0.4515667322834646
0
LINE
8
BLACK
6
CONTINUOUS
10
11.2609155511811014
20
-0.4515667322834646
11
11.2633527559055118
21
-0.4466923228346457
0
LINE
8
BLACK
6
CONTINUOUS
10
11.2633527559055118
20
-0.4466923228346457
11
11.2633527559055118
21
-0.4345063385826772
0
LINE
8
BLACK
6
CONTINUOUS
10
11.2633527559055118
20
-0.4345063385826772
11
11.2609155511811014
21
-0.429631968503937
0
LINE
8
BLACK
6
CONTINUOUS
10
11.2609155511811014
20
-0.429631968503937
11
11.2584783464566929
21
-0.4271947637795275
0
LINE
8
BLACK
6
CONTINUOUS
10
11.2584783464566929
20
-0.4271947637795275
11
11.2536039763779527
21
-0.4247575590551181
0
LINE
8
BLACK
6
CONTINUOUS
10
11.2536039763779527
20
-0.4247575590551181
11
11.2438551968503937
21
-0.4247575590551181
0
LINE
8
BLACK
6
CONTINUOUS
10
11.2438551968503937
20
-0.4247575590551181
11
11.2389807874015748
21
-0.4271947637795275
0
LINE
8
BLACK
6
CONTINUOUS
10
11.2389807874015748
20
-0.4271947637795275
11
11.2365435826771645
21
-0.429631968503937
0
LINE
8
BLACK
6
CONTINUOUS
10
11.2365435826771645
20
-0.429631968503937
11
11.2341064173228347
21
-0.4345063385826772
0
LINE
8
BLACK
6
CONTINUOUS
10
2.3622047244094486
20
-7.79555905511811
11
2.3622047244094486
21
-7.8742992125984248
0
LINE
8
BLACK
6
CONTINUOUS
10
4.3307086614173231
20
-7.79555905511811
11
4.3307086614173231
21
-7.8742992125984248
0
LINE
8
BLACK
6
CONTINUOUS
10
6.2992125984251963
20
-7.79555905511811
11
6.2992125984251963
21
-7.8742992125984248
0
LINE
8
BLACK
6
CONTINUOUS
10
8.2677165354330704
20
-7.79555905511811
11
8.2677165354330704
21
-7.8742992125984248
0
LINE
8
BLACK
6
CONTINUOUS
10
10.2362204724409445
20
-7.79555905511811
11
10.2362204724409445
21
-7.8742992125984248
0
LINE
8
BLACK
6
CONTINUOUS
10
1.4208330708661416
20
-7.8582993700787398
11
1.3915867322834645
21
-7.8582993700787398
0
LINE
8
BLACK
6
CONTINUOUS
10
1.4062098818897637
20
-7.8582993700787398
11
1.4062098818897637
21
-7.8071182677165352
0
LINE
8
BLACK
6
CONTINUOUS
10
1.4062098818897637
20
-7.8071182677165352
11
1.4013355118110236
21
-7.8144298818897635
0
LINE
8
BLACK
6
CONTINUOUS
10
1.4013355118110236
20
-7.8144298818897635
11
1.3964611023622047
21
-7.8193042519685036
0
LINE
8
BLACK
6
CONTINUOUS
10
1.3964611023622047
20
-7.8193042519685036
11
1.3915867322834645
21
-7.8217414566929131
0
LINE
8
BLACK
6
CONTINUOUS
10
3.3600906692913384
20
-7.8119926771653541
11
3.3625278346456691
21
-7.8095554724409446
0
LINE
8
BLACK
6
CONTINUOUS
10
3.3625278346456691
20
-7.8095554724409446
11
3.367402244094488
21
-7.8071182677165352
0
LINE
8
BLACK
6
CONTINUOUS
10
3.367402244094488
20
-7.8071182677165352
11
3.3795882283464564
21
-7.8071182677165352
0
LINE
8
BLACK
6
CONTINUOUS
10
3.3795882283464564
20
-7.8071182677165352
11
3.3844625984251966
21
-7.8095554724409446
0
LINE
8
BLACK
6
CONTINUOUS
10
3.3844625984251966
20
-7.8095554724409446
11
3.386899803149606
21
-7.8119926771653541
0
LINE
8
BLACK
6
CONTINUOUS
10
3.386899803149606
20
-7.8119926771653541
11
3.3893370078740155
21
-7.8168670472440942
0
LINE
8
BLACK
6
CONTINUOUS
10
3.3893370078740155
20
-7.8168670472440942
11
3.3893370078740155
21
-7.8217414566929131
0
LINE
8
BLACK
6
CONTINUOUS
10
3.3893370078740155
20
-7.8217414566929131
11
3.386899803149606
21
-7.8290530314960627
0
LINE
8
BLACK
6
CONTINUOUS
10
3.386899803149606
20
-7.8290530314960627
11
3.3576534645669289
21
-7.8582993700787398
0
LINE
8
BLACK
6
CONTINUOUS
10
3.3576534645669289
20
-7.8582993700787398
11
3.3893370078740155
21
-7.8582993700787398
0
LINE
8
BLACK
6
CONTINUOUS
10
5.326157401574803
20
-7.8071182677165352
11
5.3578409448818896
21
-7.8071182677165352
0
LINE
8
BLACK
6
CONTINUOUS
10
5.3578409448818896
20
-7.8071182677165352
11
5.3407805511811022
21
-7.8266158267716532
0
LINE
8
BLACK
6
CONTINUOUS
10
5.3407805511811022
20
-7.8266158267716532
11
5.3480921653543305
21
-7.8266158267716532
0
LINE
8
BLACK
6
CONTINUOUS
10
5.3480921653543305
20
-7.8266158267716532
11
5.3529665354330707
21
-7.8290530314960627
0
LINE
8
BLACK
6
CONTINUOUS
10
5.3529665354330707
20
-7.8290530314960627
11
5.3554037401574801
21
-7.8314902362204721
0
LINE
8
BLACK
6
CONTINUOUS
10
5.3554037401574801
20
-7.8314902362204721
11
5.3578409448818896
21
-7.8363646062992123
0
LINE
8
BLACK
6
CONTINUOUS
10
5.3578409448818896
20
-7.8363646062992123
11
5.3578409448818896
21
-7.8485505905511808
0
LINE
8
BLACK
6
CONTINUOUS
10
5.3578409448818896
20
-7.8485505905511808
11
5.3554037401574801
21
-7.8534249999999997
0
LINE
8
BLACK
6
CONTINUOUS
10
5.3554037401574801
20
-7.8534249999999997
11
5.3529665354330707
21
-7.8558622047244091
0
LINE
8
BLACK
6
CONTINUOUS
10
5.3529665354330707
20
-7.8558622047244091
11
5.3480921653543305
21
-7.8582993700787398
0
LINE
8
BLACK
6
CONTINUOUS
10
5.3480921653543305
20
-7.8582993700787398
11
5.3334689763779526
21
-7.8582993700787398
0
LINE
8
BLACK
6
CONTINUOUS
10
5.3334689763779526
20
-7.8582993700787398
11
5.3285946062992124
21
-7.8558622047244091
0
LINE
8
BLACK
6
CONTINUOUS
10
5.3285946062992124
20
-7.8558622047244091
11
5.326157401574803
21
-7.8534249999999997
0
LINE
8
BLACK
6
CONTINUOUS
10
7.3214704724409447
20
-7.8241786614173225
11
7.3214704724409447
21
-7.8582993700787398
0
LINE
8
BLACK
6
CONTINUOUS
10
7.3092844881889762
20
-7.8046811023622045
11
7.2970985433070865
21
-7.8412390157480312
0
LINE
8
BLACK
6
CONTINUOUS
10
7.2970985433070865
20
-7.8412390157480312
11
7.3287820472440943
21
-7.8412390157480312
0
LINE
8
BLACK
6
CONTINUOUS
10
9.2924116141732274
20
-7.8071182677165352
11
9.2680396456692904
21
-7.8071182677165352
0
LINE
8
BLACK
6
CONTINUOUS
10
9.2680396456692904
20
-7.8071182677165352
11
9.2656024803149606
21
-7.8314902362204721
0
LINE
8
BLACK
6
CONTINUOUS
10
9.2656024803149606
20
-7.8314902362204721
11
9.2680396456692904
21
-7.8290530314960627
0
LINE
8
BLACK
6
CONTINUOUS
10
9.2680396456692904
20
-7.8290530314960627
11
9.2729140551181093
21
-7.8266158267716532
0
LINE
8
BLACK
6
CONTINUOUS
10
9.2729140551181093
20
-7.8266158267716532
11
9.2851000393700787
21
-7.8266158267716532
0
LINE
8
BLACK
6
CONTINUOUS
10
9.2851000393700787
20
-7.8266158267716532
11
9.2899744094488188
21
-7.8290530314960627
0
LINE
8
BLACK
6
CONTINUOUS
10
9.2899744094488188
20
-7.8290530314960627
11
9.2924116141732274
21
-7.8314902362204721
0
LINE
8
BLACK
6
CONTINUOUS
10
9.2924116141732274
20
-7.8314902362204721
11
9.2948488188976377
21
-7.8363646062992123
0
LINE
8
BLACK
6
CONTINUOUS
10
9.2948488188976377
20
-7.8363646062992123
11
9.2948488188976377
21
-7.8485505905511808
0
LINE
8
BLACK
6
CONTINUOUS
10
9.2948488188976377
20
-7.8485505905511808
11
9.2924116141732274
21
-7.8534249999999997
0
LINE
8
BLACK
6
CONTINUOUS
10
9.2924116141732274
20
-7.8534249999999997
11
9.2899744094488188
21
-7.8558622047244091
0
LINE
8
BLACK
6
CONTINUOUS
10
9.2899744094488188
20
-7.8558622047244091
11
9.2851000393700787
21
-7.8582993700787398
0
LINE
8
BLACK
6
CONTINUOUS
10
9.2851000393700787
20
-7.8582993700787398
11
9.2729140551181093
21
-7.8582993700787398
0
LINE
8
BLACK
6
CONTINUOUS
10
9.2729140551181093
20
-7.8582993700787398
11
9.2680396456692904
21
-7.8558622047244091
0
LINE
8
BLACK
6
CONTINUOUS
10
9.2680396456692904
20
-7.8558622047244091
11
9.2656024803149606
21
-7.8534249999999997
0
LINE
8
BLACK
6
CONTINUOUS
10
11.2584783464566929
20
-7.8071182677165352
11
11.2487295669291338
21
-7.8071182677165352
0
LINE
8
BLACK
6
CONTINUOUS
10
11.2487295669291338
20
-7.8071182677165352
11
11.2438551968503937
21
-7.8095554724409446
0
LINE
8
BLACK
6
CONTINUOUS
10
11.2438551968503937
20
-7.8095554724409446
11
11.2414179921259834
21
-7.8119926771653541
0
LINE
8
BLACK
6
CONTINUOUS
10
11.2414179921259834
20
-7.8119926771653541
11
11.2365435826771645
21
-7.8193042519685036
0
LINE
8
BLACK
6
CONTINUOUS
10
11.2365435826771645
20
-7.8193042519685036
11
11.2341064173228347
21
-7.8290530314960627
0
LINE
8
BLACK
6
CONTINUOUS
10
11.2341064173228347
20
-7.8290530314960627
11
11.2341064173228347
21
-7.8485505905511808
0
LINE
8
BLACK
6
CONTINUOUS
10
11.2341064173228347
20
-7.8485505905511808
11
11.2365435826771645
21
-7.8534249999999997
0
LINE
8
BLACK
6
CONTINUOUS
10
11.2365435826771645
20
-7.8534249999999997
11
11.2389807874015748
21
-7.8558622047244091
0
LINE
8
BLACK
6
CONTINUOUS
10
11.2389807874015748
20
-7.8558622047244091
11
11.2438551968503937
21
-7.8582993700787398
0
LINE
8
BLACK
6
CONTINUOUS
10
11.2438551968503937
20
-7.8582993700787398
11
11.2536039763779527
21
-7.8582993700787398
0
LINE
8
BLACK
6
CONTINUOUS
10
11.2536039763779527
20
-7.8582993700787398
11
11.2584783464566929
21
-7.8558622047244091
0
LINE
8
BLACK
6
CONTINUOUS
10
11.2584783464566929
20
-7.8558622047244091
11
11.2609155511811014
21
-7.8534249999999997
0
LINE
8
BLACK
6
CONTINUOUS
10
11.2609155511811014
20
-7.8534249999999997
11
11.2633527559055118
21
-7.8485505905511808
0
LINE
8
BLACK
6
CONTINUOUS
10
11.2633527559055118
20
-7.8485505905511808
11
11.2633527559055118
21
-7.8363646062992123
0
LINE
8
BLACK
6
CONTINUOUS
10
11.2633527559055118
20
-7.8363646062992123
11
11.2609155511811014
21
-7.8314902362204721
0
LINE
8
BLACK
6
CONTINUOUS
10
11.2609155511811014
20
-7.8314902362204721
11
11.2584783464566929
21
-7.8290530314960627
0
LINE
8
BLACK
6
CONTINUOUS
10
11.2584783464566929
20
-7.8290530314960627
11
11.2536039763779527
21
-7.8266158267716532
0
LINE
8
BLACK
6
CONTINUOUS
10
11.2536039763779527
20
-7.8266158267716532
11
11.2438551968503937
21
-7.8266158267716532
0
LINE
8
BLACK
6
CONTINUOUS
10
11.2438551968503937
20
-7.8266158267716532
11
11.2389807874015748
21
-7.8290530314960627
0
LINE
8
BLACK
6
CONTINUOUS
10
11.2389807874015748
20
-7.8290530314960627
11
11.2365435826771645
21
-7.8314902362204721
0
LINE
8
BLACK
6
CONTINUOUS
10
11.2365435826771645
20
-7.8314902362204721
11
11.2341064173228347
21
-7.8363646062992123
0
LINE
8
BLACK
6
CONTINUOUS
10
0.3937007874015748
20
-2.3622047244094486
11
0.4724409448818898
21
-2.3622047244094486
0
LINE
8
BLACK
6
CONTINUOUS
10
0.3937007874015748
20
-4.3307086614173231
11
0.4724409448818898
21
-4.3307086614173231
0
LINE
8
BLACK
6
CONTINUOUS
10
0.3937007874015748
20
-6.2992125984251963
11
0.4724409448818898
21
-6.2992125984251963
0
LINE
8
BLACK
6
CONTINUOUS
10
0.4208848818897638
20
-1.386699842519685
11
0.445256811023622
21
-1.386699842519685
0
LINE
8
BLACK
6
CONTINUOUS
10
0.4160104724409449
20
-1.4013229921259842
11
0.4330708267716535
21
-1.3501418897637796
0
LINE
8
BLACK
6
CONTINUOUS
10
0.4330708267716535
20
-1.3501418897637796
11
0.4501312204724409
21
-1.4013229921259842
0
LINE
8
BLACK
6
CONTINUOUS
10
0.4367266535433071
20
-3.3430177952755904
11
0.4440382283464567
21
-3.3454549999999998
0
LINE
8
BLACK
6
CONTINUOUS
10
0.4440382283464567
20
-3.3454549999999998
11
0.4464754330708661
21
-3.3478921653543305
0
LINE
8
BLACK
6
CONTINUOUS
10
0.4464754330708661
20
-3.3478921653543305
11
0.4489125984251968
21
-3.3527665748031494
0
LINE
8
BLACK
6
CONTINUOUS
10
0.4489125984251968
20
-3.3527665748031494
11
0.4489125984251968
21
-3.360078149606299
0
LINE
8
BLACK
6
CONTINUOUS
10
0.4489125984251968
20
-3.360078149606299
11
0.4464754330708661
21
-3.3649525590551179
0
LINE
8
BLACK
6
CONTINUOUS
10
0.4464754330708661
20
-3.3649525590551179
11
0.4440382283464567
21
-3.3673897637795274
0
LINE
8
BLACK
6
CONTINUOUS
10
0.4440382283464567
20
-3.3673897637795274
11
0.4391638188976378
21
-3.3698269291338581
0
LINE
8
BLACK
6
CONTINUOUS
10
0.4391638188976378
20
-3.3698269291338581
11
0.4196662598425197
21
-3.3698269291338581
0
LINE
8
BLACK
6
CONTINUOUS
10
0.4196662598425197
20
-3.3698269291338581
11
0.4196662598425197
21
-3.3186458267716534
0
LINE
8
BLACK
6
CONTINUOUS
10
0.4196662598425197
20
-3.3186458267716534
11
0.4367266535433071
21
-3.3186458267716534
0
LINE
8
BLACK
6
CONTINUOUS
10
0.4367266535433071
20
-3.3186458267716534
11
0.4416010236220472
21
-3.3210830314960629
0
LINE
8
BLACK
6
CONTINUOUS
10
0.4416010236220472
20
-3.3210830314960629
11
0.4440382283464567
21
-3.3235202362204723
0
LINE
8
BLACK
6
CONTINUOUS
10
0.4440382283464567
20
-3.3235202362204723
11
0.4464754330708661
21
-3.3283946062992125
0
LINE
8
BLACK
6
CONTINUOUS
10
0.4464754330708661
20
-3.3283946062992125
11
0.4464754330708661
21
-3.3332690157480314
0
LINE
8
BLACK
6
CONTINUOUS
10
0.4464754330708661
20
-3.3332690157480314
11
0.4440382283464567
21
-3.3381433858267715
0
LINE
8
BLACK
6
CONTINUOUS
10
0.4440382283464567
20
-3.3381433858267715
11
0.4416010236220472
21
-3.340580590551181
0
LINE
8
BLACK
6
CONTINUOUS
10
0.4416010236220472
20
-3.340580590551181
11
0.4367266535433071
21
-3.3430177952755904
0
LINE
8
BLACK
6
CONTINUOUS
10
0.4367266535433071
20
-3.3430177952755904
11
0.4196662598425197
21
-3.3430177952755904
0
LINE
8
BLACK
6
CONTINUOUS
10
0.4489125984251968
20
-5.3334564960629924
11
0.4464754330708661
21
-5.3358937007874019
0
LINE
8
BLACK
6
CONTINUOUS
10
0.4464754330708661
20
-5.3358937007874019
11
0.4391638188976378
21
-5.3383308661417326
0
LINE
8
BLACK
6
CONTINUOUS
10
0.4391638188976378
20
-5.3383308661417326
11
0.4342894488188976
21
-5.3383308661417326
0
LINE
8
BLACK
6
CONTINUOUS
10
0.4342894488188976
20
-5.3383308661417326
11
0.426977874015748
21
-5.3358937007874019
0
LINE
8
BLACK
6
CONTINUOUS
10
0.426977874015748
20
-5.3358937007874019
11
0.4221034645669291
21
-5.331019291338583
0
LINE
8
BLACK
6
CONTINUOUS
10
0.4221034645669291
20
-5.331019291338583
11
0.4196662598425197
21
-5.3261448818897641
0
LINE
8
BLACK
6
CONTINUOUS
10
0.4196662598425197
20
-5.3261448818897641
11
0.417229094488189
21
-5.3163961023622042
0
LINE
8
BLACK
6
CONTINUOUS
10
0.417229094488189
20
-5.3163961023622042
11
0.417229094488189
21
-5.3090845275590546
0
LINE
8
BLACK
6
CONTINUOUS
10
0.417229094488189
20
-5.3090845275590546
11
0.4196662598425197
21
-5.2993357480314955
0
LINE
8
BLACK
6
CONTINUOUS
10
0.4196662598425197
20
-5.2993357480314955
11
0.4221034645669291
21
-5.2944613779527554
0
LINE
8
BLACK
6
CONTINUOUS
10
0.4221034645669291
20
-5.2944613779527554
11
0.426977874015748
21
-5.2895869685039365
0
LINE
8
BLACK
6
CONTINUOUS
10
0.426977874015748
20
-5.2895869685039365
11
0.4342894488188976
21
-5.2871497637795271
0
LINE
8
BLACK
6
CONTINUOUS
10
0.4342894488188976
20
-5.2871497637795271
11
0.4391638188976378
21
-5.2871497637795271
0
LINE
8
BLACK
6
CONTINUOUS
10
0.4391638188976378
20
-5.2871497637795271
11
0.4464754330708661
21
-5.2895869685039365
0
LINE
8
BLACK
6
CONTINUOUS
10
0.4464754330708661
20
-5.2895869685039365
11
0.4489125984251968
21
-5.292024173228346
0
LINE
8
BLACK
6
CONTINUOUS
10
0.4196662598425197
20
-7.3068348031496058
11
0.4196662598425197
21
-7.2556537007874011
0
LINE
8
BLACK
6
CONTINUOUS
10
0.4196662598425197
20
-7.2556537007874011
11
0.4318522440944882
21
-7.2556537007874011
0
LINE
8
BLACK
6
CONTINUOUS
10
0.4318522440944882
20
-7.2556537007874011
11
0.4391638188976378
21
-7.2580909055118106
0
LINE
8
BLACK
6
CONTINUOUS
10
0.4391638188976378
20
-7.2580909055118106
11
0.4440382283464567
21
-7.2629653149606295
0
LINE
8
BLACK
6
CONTINUOUS
10
0.4440382283464567
20
-7.2629653149606295
11
0.4464754330708661
21
-7.2678396850393696
0
LINE
8
BLACK
6
CONTINUOUS
10
0.4464754330708661
20
-7.2678396850393696
11
0.4489125984251968
21
-7.2775884645669286
0
LINE
8
BLACK
6
CONTINUOUS
10
0.4489125984251968
20
-7.2775884645669286
11
0.4489125984251968
21
-7.2849000393700782
0
LINE
8
BLACK
6
CONTINUOUS
10
0.4489125984251968
20
-7.2849000393700782
11
0.4464754330708661
21
-7.2946488188976373
0
LINE
8
BLACK
6
CONTINUOUS
10
0.4464754330708661
20
-7.2946488188976373
11
0.4440382283464567
21
-7.2995232283464562
0
LINE
8
BLACK
6
CONTINUOUS
10
0.4440382283464567
20
-7.2995232283464562
11
0.4391638188976378
21
-7.3043976377952751
0
LINE
8
BLACK
6
CONTINUOUS
10
0.4391638188976378
20
-7.3043976377952751
11
0.4318522440944882
21
-7.3068348031496058
0
LINE
8
BLACK
6
CONTINUOUS
10
0.4318522440944882
20
-7.3068348031496058
11
0.4196662598425197
21
-7.3068348031496058
0
LINE
8
BLACK
6
CONTINUOUS
10
11.2992992125984255
20
-2.3622047244094486
11
11.2205590551181107
21
-2.3622047244094486
0
LINE
8
BLACK
6
CONTINUOUS
10
11.2992992125984255
20
-4.3307086614173231
11
11.2205590551181107
21
-4.3307086614173231
0
LINE
8
BLACK
6
CONTINUOUS
10
11.2992992125984255
20
-6.2992125984251963
11
11.2205590551181107
21
-6.2992125984251963
0
LINE
8
BLACK
6
CONTINUOUS
10
11.2477431496062987
20
-1.386699842519685
11
11.2721150787401569
21
-1.386699842519685
0
LINE
8
BLACK
6
CONTINUOUS
10
11.2428687401574798
20
-1.4013229921259842
11
11.2599290944881893
21
-1.3501418897637796
0
LINE
8
BLACK
6
CONTINUOUS
10
11.2599290944881893
20
-1.3501418897637796
11
11.2769894881889758
21
-1.4013229921259842
0
LINE
8
BLACK
6
CONTINUOUS
10
11.2635849212598416
20
-3.3430177952755904
11
11.270896496062992
21
-3.3454549999999998
0
LINE
8
BLACK
6
CONTINUOUS
10
11.270896496062992
20
-3.3454549999999998
11
11.2733337007874006
21
-3.3478921653543305
0
LINE
8
BLACK
6
CONTINUOUS
10
11.2733337007874006
20
-3.3478921653543305
11
11.2757708661417322
21
-3.3527665748031494
0
LINE
8
BLACK
6
CONTINUOUS
10
11.2757708661417322
20
-3.3527665748031494
11
11.2757708661417322
21
-3.360078149606299
0
LINE
8
BLACK
6
CONTINUOUS
10
11.2757708661417322
20
-3.360078149606299
11
11.2733337007874006
21
-3.3649525590551179
0
LINE
8
BLACK
6
CONTINUOUS
10
11.2733337007874006
20
-3.3649525590551179
11
11.270896496062992
21
-3.3673897637795274
0
LINE
8
BLACK
6
CONTINUOUS
10
11.270896496062992
20
-3.3673897637795274
11
11.2660220866141731
21
-3.3698269291338581
0
LINE
8
BLACK
6
CONTINUOUS
10
11.2660220866141731
20
-3.3698269291338581
11
11.2465245275590551
21
-3.3698269291338581
0
LINE
8
BLACK
6
CONTINUOUS
10
11.2465245275590551
20
-3.3698269291338581
11
11.2465245275590551
21
-3.3186458267716534
0
LINE
8
BLACK
6
CONTINUOUS
10
11.2465245275590551
20
-3.3186458267716534
11
11.2635849212598416
21
-3.3186458267716534
0
LINE
8
BLACK
6
CONTINUOUS
10
11.2635849212598416
20
-3.3186458267716534
11
11.2684592913385817
21
-3.3210830314960629
0
LINE
8
BLACK
6
CONTINUOUS
10
11.2684592913385817
20
-3.3210830314960629
11
11.270896496062992
21
-3.3235202362204723
0
LINE
8
BLACK
6
CONTINUOUS
10
11.270896496062992
20
-3.3235202362204723
11
11.2733337007874006
21
-3.3283946062992125
0
LINE
8
BLACK
6
CONTINUOUS
10
11.2733337007874006
20
-3.3283946062992125
11
11.2733337007874006
21
-3.3332690157480314
0
LINE
8
BLACK
6
CONTINUOUS
10
11.2733337007874006
20
-3.3332690157480314
11
11.270896496062992
21
-3.3381433858267715
0
LINE
8
BLACK
6
CONTINUOUS
10
11.270896496062992
20
-3.3381433858267715
11
11.2684592913385817
21
-3.340580590551181
0
LINE
8
BLACK
6
CONTINUOUS
10
11.2684592913385817
20
-3.340580590551181
11
11.2635849212598416
21
-3.3430177952755904
0
LINE
8
BLACK
6
CONTINUOUS
10
11.2635849212598416
20
-3.3430177952755904
11
11.2465245275590551
21
-3.3430177952755904
0
LINE
8
BLACK
6
CONTINUOUS
10
11.2757708661417322
20
-5.3334564960629924
11
11.2733337007874006
21
-5.3358937007874019
0
LINE
8
BLACK
6
CONTINUOUS
10
11.2733337007874006
20
-5.3358937007874019
11
11.2660220866141731
21
-5.3383308661417326
0
LINE
8
BLACK
6
CONTINUOUS
10
11.2660220866141731
20
-5.3383308661417326
11
11.261147716535433
21
-5.3383308661417326
0
LINE
8
BLACK
6
CONTINUOUS
10
11.261147716535433
20
-5.3383308661417326
11
11.2538361417322825
21
-5.3358937007874019
0
LINE
8
BLACK
6
CONTINUOUS
10
11.2538361417322825
20
-5.3358937007874019
11
11.2489617322834636
21
-5.331019291338583
0
LINE
8
BLACK
6
CONTINUOUS
10
11.2489617322834636
20
-5.331019291338583
11
11.2465245275590551
21
-5.3261448818897641
0
LINE
8
BLACK
6
CONTINUOUS
10
11.2465245275590551
20
-5.3261448818897641
11
11.2440873622047235
21
-5.3163961023622042
0
LINE
8
BLACK
6
CONTINUOUS
10
11.2440873622047235
20
-5.3163961023622042
11
11.2440873622047235
21
-5.3090845275590546
0
LINE
8
BLACK
6
CONTINUOUS
10
11.2440873622047235
20
-5.3090845275590546
11
11.2465245275590551
21
-5.2993357480314955
0
LINE
8
BLACK
6
CONTINUOUS
10
11.2465245275590551
20
-5.2993357480314955
11
11.2489617322834636
21
-5.2944613779527554
0
LINE
8
BLACK
6
CONTINUOUS
10
11.2489617322834636
20
-5.2944613779527554
11
11.2538361417322825
21
-5.2895869685039365
0
LINE
8
BLACK
6
CONTINUOUS
10
11.2538361417322825
20
-5.2895869685039365
11
11.261147716535433
21
-5.2871497637795271
0
LINE
8
BLACK
6
CONTINUOUS
10
11.261147716535433
20
-5.2871497637795271
11
11.2660220866141731
21
-5.2871497637795271
0
LINE
8
BLACK
6
CONTINUOUS
10
11.2660220866141731
20
-5.2871497637795271
11
11.2733337007874006
21
-5.2895869685039365
0
LINE
8
BLACK
6
CONTINUOUS
10
11.2733337007874006
20
-5.2895869685039365
11
11.2757708661417322
21
-5.292024173228346
0
LINE
8
BLACK
6
CONTINUOUS
10
11.2465245275590551
20
-7.3068348031496058
11
11.2465245275590551
21
-7.2556537007874011
0
LINE
8
BLACK
6
CONTINUOUS
10
11.2465245275590551
20
-7.2556537007874011
11
11.2587105118110227
21
-7.2556537007874011
0
LINE
8
BLACK
6
CONTINUOUS
10
11.2587105118110227
20
-7.2556537007874011
11
11.2660220866141731
21
-7.2580909055118106
0
LINE
8
BLACK
6
CONTINUOUS
10
11.2660220866141731
20
-7.2580909055118106
11
11.270896496062992
21
-7.2629653149606295
0
LINE
8
BLACK
6
CONTINUOUS
10
11.270896496062992
20
-7.2629653149606295
11
11.2733337007874006
21
-7.2678396850393696
0
LINE
8
BLACK
6
CONTINUOUS
10
11.2733337007874006
20
-7.2678396850393696
11
11.2757708661417322
21
-7.2775884645669286
0
LINE
8
BLACK
6
CONTINUOUS
10
11.2757708661417322
20
-7.2775884645669286
11
11.2757708661417322
21
-7.2849000393700782
0
LINE
8
BLACK
6
CONTINUOUS
10
11.2757708661417322
20
-7.2849000393700782
11
11.2733337007874006
21
-7.2946488188976373
0
LINE
8
BLACK
6
CONTINUOUS
10
11.2733337007874006
20
-7.2946488188976373
11
11.270896496062992
21
-7.2995232283464562
0
LINE
8
BLACK
6
CONTINUOUS
10
11.270896496062992
20
-7.2995232283464562
11
11.2660220866141731
21
-7.3043976377952751
0
LINE
8
BLACK
6
CONTINUOUS
10
11.2660220866141731
20
-7.3043976377952751
11
11.2587105118110227
21
-7.3068348031496058
0
LINE
8
BLACK
6
CONTINUOUS
10
11.2587105118110227
20
-7.3068348031496058
11
11.2465245275590551
21
-7.3068348031496058
0
LINE
8
BLACK
6
CONTINUOUS
10
7.8920482677165351
20
-7.6296585826771652
11
7.8920482677165351
21
-7.5706034645669291
0
LINE
8
BLACK
6
CONTINUOUS
10
7.8920482677165351
20
-7.5706034645669291
11
7.9061090157480312
21
-7.5706034645669291
0
LINE
8
BLACK
6
CONTINUOUS
10
7.9061090157480312
20
-7.5706034645669291
11
7.9145454724409445
21
-7.5734156299212598
0
LINE
8
BLACK
6
CONTINUOUS
10
7.9145454724409445
20
-7.5734156299212598
11
7.9201697637795272
21
-7.5790399212598425
0
LINE
8
BLACK
6
CONTINUOUS
10
7.9201697637795272
20
-7.5790399212598425
11
7.9229819291338579
21
-7.5846642125984252
0
LINE
8
BLACK
6
CONTINUOUS
10
7.9229819291338579
20
-7.5846642125984252
11
7.9257940551181099
21
-7.5959127952755905
0
LINE
8
BLACK
6
CONTINUOUS
10
7.9257940551181099
20
-7.5959127952755905
11
7.9257940551181099
21
-7.6043492519685039
0
LINE
8
BLACK
6
CONTINUOUS
10
7.9257940551181099
20
-7.6043492519685039
11
7.9229819291338579
21
-7.6155978346456692
0
LINE
8
BLACK
6
CONTINUOUS
10
7.9229819291338579
20
-7.6155978346456692
11
7.9201697637795272
21
-7.6212221259842519
0
LINE
8
BLACK
6
CONTINUOUS
10
7.9201697637795272
20
-7.6212221259842519
11
7.9145454724409445
21
-7.6268464566929133
0
LINE
8
BLACK
6
CONTINUOUS
10
7.9145454724409445
20
-7.6268464566929133
11
7.9061090157480312
21
-7.6296585826771652
0
LINE
8
BLACK
6
CONTINUOUS
10
7.9061090157480312
20
-7.6296585826771652
11
7.8920482677165351
21
-7.6296585826771652
0
LINE
8
BLACK
6
CONTINUOUS
10
7.9764127559055114
20
-7.6296585826771652
11
7.9764127559055114
21
-7.5987249606299212
0
LINE
8
BLACK
6
CONTINUOUS
10
7.9764127559055114
20
-7.5987249606299212
11
7.9736005905511806
21
-7.5931006692913385
0
LINE
8
BLACK
6
CONTINUOUS
10
7.9736005905511806
20
-7.5931006692913385
11
7.967976299212598
21
-7.5902885039370078
0
LINE
8
BLACK
6
CONTINUOUS
10
7.967976299212598
20
-7.5902885039370078
11
7.9567277165354326
21
-7.5902885039370078
0
LINE
8
BLACK
6
CONTINUOUS
10
7.9567277165354326
20
-7.5902885039370078
11
7.9511033858267712
21
-7.5931006692913385
0
LINE
8
BLACK
6
CONTINUOUS
10
7.9764127559055114
20
-7.6268464566929133
11
7.9707884251968499
21
-7.6296585826771652
0
LINE
8
BLACK
6
CONTINUOUS
10
7.9707884251968499
20
-7.6296585826771652
11
7.9567277165354326
21
-7.6296585826771652
0
LINE
8
BLACK
6
CONTINUOUS
10
7.9567277165354326
20
-7.6296585826771652
11
7.9511033858267712
21
-7.6268464566929133
0
LINE
8
BLACK
6
CONTINUOUS
10
7.9511033858267712
20
-7.6268464566929133
11
7.9482912598425193
21
-7.6212221259842519
0
LINE
8
BLACK
6
CONTINUOUS
10
7.9482912598425193
20
-7.6212221259842519
11
7.9482912598425193
21
-7.6155978346456692
0
LINE
8
BLACK
6
CONTINUOUS
10
7.9482912598425193
20
-7.6155978346456692
11
7.9511033858267712
21
-7.6099735433070865
0
LINE
8
BLACK
6
CONTINUOUS
10
7.9511033858267712
20
-7.6099735433070865
11
7.9567277165354326
21
-7.6071614173228346
0
LINE
8
BLACK
6
CONTINUOUS
10
7.9567277165354326
20
-7.6071614173228346
11
7.9707884251968499
21
-7.6071614173228346
0
LINE
8
BLACK
6
CONTINUOUS
10
7.9707884251968499
20
-7.6071614173228346
11
7.9764127559055114
21
-7.6043492519685039
0
LINE
8
BLACK
6
CONTINUOUS
10
7.9960977952755901
20
-7.5902885039370078
11
8.0185949606299207
21
-7.5902885039370078
0
LINE
8
BLACK
6
CONTINUOUS
10
8.0045342125984256
20
-7.5706034645669291
11
8.0045342125984256
21
-7.6212221259842519
0
LINE
8
BLACK
6
CONTINUOUS
10
8.0045342125984256
20
-7.6212221259842519
11
8.0073463779527554
21
-7.6268464566929133
0
LINE
8
BLACK
6
CONTINUOUS
10
8.0073463779527554
20
-7.6268464566929133
11
8.0129706692913381
21
-7.6296585826771652
0
LINE
8
BLACK
6
CONTINUOUS
10
8.0129706692913381
20
-7.6296585826771652
11
8.0185949606299207
21
-7.6296585826771652
0
LINE
8
BLACK
6
CONTINUOUS
10
8.0607772047244097
20
-7.6268464566929133
11
8.0551529133858271
21
-7.6296585826771652
0
LINE
8
BLACK
6
CONTINUOUS
10
8.0551529133858271
20
-7.6296585826771652
11
8.0439043307086617
21
-7.6296585826771652
0
LINE
8
BLACK
6
CONTINUOUS
10
8.0439043307086617
20
-7.6296585826771652
11
8.0382800000000003
21
-7.6268464566929133
0
LINE
8
BLACK
6
CONTINUOUS
10
8.0382800000000003
20
-7.6268464566929133
11
8.0354678740157475
21
-7.6212221259842519
0
LINE
8
BLACK
6
CONTINUOUS
10
8.0354678740157475
20
-7.6212221259842519
11
8.0354678740157475
21
-7.5987249606299212
0
LINE
8
BLACK
6
CONTINUOUS
10
8.0354678740157475
20
-7.5987249606299212
11
8.0382800000000003
21
-7.5931006692913385
0
LINE
8
BLACK
6
CONTINUOUS
10
8.0382800000000003
20
-7.5931006692913385
11
8.0439043307086617
21
-7.5902885039370078
0
LINE
8
BLACK
6
CONTINUOUS
10
8.0439043307086617
20
-7.5902885039370078
11
8.0551529133858271
21
-7.5902885039370078
0
LINE
8
BLACK
6
CONTINUOUS
10
8.0551529133858271
20
-7.5902885039370078
11
8.0607772047244097
21
-7.5931006692913385
0
LINE
8
BLACK
6
CONTINUOUS
10
8.0607772047244097
20
-7.5931006692913385
11
8.0635893700787395
21
-7.5987249606299212
0
LINE
8
BLACK
6
CONTINUOUS
10
8.0635893700787395
20
-7.5987249606299212
11
8.0635893700787395
21
-7.6043492519685039
0
LINE
8
BLACK
6
CONTINUOUS
10
8.0635893700787395
20
-7.6043492519685039
11
8.0354678740157475
21
-7.6099735433070865
0
LINE
8
BLACK
6
CONTINUOUS
10
8.0888986614173231
20
-7.6240342913385826
11
8.0917108267716529
21
-7.6268464566929133
0
LINE
8
BLACK
6
CONTINUOUS
10
8.0917108267716529
20
-7.6268464566929133
11
8.0888986614173231
21
-7.6296585826771652
0
LINE
8
BLACK
6
CONTINUOUS
10
8.0888986614173231
20
-7.6296585826771652
11
8.0860865354330702
21
-7.6268464566929133
0
LINE
8
BLACK
6
CONTINUOUS
10
8.0860865354330702
20
-7.6268464566929133
11
8.0888986614173231
21
-7.6240342913385826
0
LINE
8
BLACK
6
CONTINUOUS
10
8.0888986614173231
20
-7.6240342913385826
11
8.0888986614173231
21
-7.6296585826771652
0
LINE
8
BLACK
6
CONTINUOUS
10
8.0888986614173231
20
-7.5931006692913385
11
8.0917108267716529
21
-7.5959127952755905
0
LINE
8
BLACK
6
CONTINUOUS
10
8.0917108267716529
20
-7.5959127952755905
11
8.0888986614173231
21
-7.5987249606299212
0
LINE
8
BLACK
6
CONTINUOUS
10
8.0888986614173231
20
-7.5987249606299212
11
8.0860865354330702
21
-7.5959127952755905
0
LINE
8
BLACK
6
CONTINUOUS
10
8.0860865354330702
20
-7.5959127952755905
11
8.0888986614173231
21
-7.5931006692913385
0
LINE
8
BLACK
6
CONTINUOUS
10
8.0888986614173231
20
-7.5931006692913385
11
8.0888986614173231
21
-7.5987249606299212
0
LINE
8
BLACK
6
CONTINUOUS
10
6.9685905511811024
20
-7.657763779527559
11
11.2205590551181107
21
-7.657763779527559
0
LINE
8
BLACK
6
CONTINUOUS
10
7.0259065354330703
20
-7.739894803149606
11
7.0259065354330703
21
-7.6808396850393699
0
LINE
8
BLACK
6
CONTINUOUS
10
7.0596523228346459
20
-7.739894803149606
11
7.0343429921259837
21
-7.7061490157480312
0
LINE
8
BLACK
6
CONTINUOUS
10
7.0596523228346459
20
-7.6808396850393699
11
7.0259065354330703
21
-7.7145854724409446
0
LINE
8
BLACK
6
CONTINUOUS
10
7.0849616535433073
20
-7.739894803149606
11
7.0849616535433073
21
-7.7005247244094486
0
LINE
8
BLACK
6
CONTINUOUS
10
7.0849616535433073
20
-7.6808396850393699
11
7.0821495275590554
21
-7.6836518503937006
0
LINE
8
BLACK
6
CONTINUOUS
10
7.0821495275590554
20
-7.6836518503937006
11
7.0849616535433073
21
-7.6864639763779525
0
LINE
8
BLACK
6
CONTINUOUS
10
7.0849616535433073
20
-7.6864639763779525
11
7.087773818897638
21
-7.6836518503937006
0
LINE
8
BLACK
6
CONTINUOUS
10
7.087773818897638
20
-7.6836518503937006
11
7.0849616535433073
21
-7.6808396850393699
0
LINE
8
BLACK
6
CONTINUOUS
10
7.0849616535433073
20
-7.6808396850393699
11
7.0849616535433073
21
-7.6864639763779525
0
LINE
8
BLACK
6
CONTINUOUS
10
7.1468289370078741
20
-7.7342705118110233
11
7.1440168110236222
21
-7.737082677165354
0
LINE
8
BLACK
6
CONTINUOUS
10
7.1440168110236222
20
-7.737082677165354
11
7.1355803543307088
21
-7.739894803149606
0
LINE
8
BLACK
6
CONTINUOUS
10
7.1355803543307088
20
-7.739894803149606
11
7.1299560629921261
21
-7.739894803149606
0
LINE
8
BLACK
6
CONTINUOUS
10
7.1299560629921261
20
-7.739894803149606
11
7.1215196062992128
21
-7.737082677165354
0
LINE
8
BLACK
6
CONTINUOUS
10
7.1215196062992128
20
-7.737082677165354
11
7.1158953149606301
21
-7.7314583464566926
0
LINE
8
BLACK
6
CONTINUOUS
10
7.1158953149606301
20
-7.7314583464566926
11
7.1130831496062994
21
-7.7258340551181099
0
LINE
8
BLACK
6
CONTINUOUS
10
7.1130831496062994
20
-7.7258340551181099
11
7.1102710236220474
21
-7.7145854724409446
0
LINE
8
BLACK
6
CONTINUOUS
10
7.1102710236220474
20
-7.7145854724409446
11
7.1102710236220474
21
-7.7061490157480312
0
LINE
8
BLACK
6
CONTINUOUS
10
7.1102710236220474
20
-7.7061490157480312
11
7.1130831496062994
21
-7.6949004330708659
0
LINE
8
BLACK
6
CONTINUOUS
10
7.1130831496062994
20
-7.6949004330708659
11
7.1158953149606301
21
-7.6892761417322832
0
LINE
8
BLACK
6
CONTINUOUS
10
7.1158953149606301
20
-7.6892761417322832
11
7.1215196062992128
21
-7.6836518503937006
0
LINE
8
BLACK
6
CONTINUOUS
10
7.1215196062992128
20
-7.6836518503937006
11
7.1299560629921261
21
-7.6808396850393699
0
LINE
8
BLACK
6
CONTINUOUS
10
7.1299560629921261
20
-7.6808396850393699
11
7.1355803543307088
21
-7.6808396850393699
0
LINE
8
BLACK
6
CONTINUOUS
10
7.1355803543307088
20
-7.6808396850393699
11
7.1440168110236222
21
-7.6836518503937006
0
LINE
8
BLACK
6
CONTINUOUS
10
7.1440168110236222
20
-7.6836518503937006
11
7.1468289370078741
21
-7.6864639763779525
0
LINE
8
BLACK
6
CONTINUOUS
10
7.1974476377952756
20
-7.739894803149606
11
7.1974476377952756
21
-7.7089611811023619
0
LINE
8
BLACK
6
CONTINUOUS
10
7.1974476377952756
20
-7.7089611811023619
11
7.1946354724409449
21
-7.7033368897637793
0
LINE
8
BLACK
6
CONTINUOUS
10
7.1946354724409449
20
-7.7033368897637793
11
7.1890111811023623
21
-7.7005247244094486
0
LINE
8
BLACK
6
CONTINUOUS
10
7.1890111811023623
20
-7.7005247244094486
11
7.1777625984251969
21
-7.7005247244094486
0
LINE
8
BLACK
6
CONTINUOUS
10
7.1777625984251969
20
-7.7005247244094486
11
7.1721382677165355
21
-7.7033368897637793
0
LINE
8
BLACK
6
CONTINUOUS
10
7.1974476377952756
20
-7.737082677165354
11
7.1918233070866142
21
-7.739894803149606
0
LINE
8
BLACK
6
CONTINUOUS
10
7.1918233070866142
20
-7.739894803149606
11
7.1777625984251969
21
-7.739894803149606
0
LINE
8
BLACK
6
CONTINUOUS
10
7.1777625984251969
20
-7.739894803149606
11
7.1721382677165355
21
-7.737082677165354
0
LINE
8
BLACK
6
CONTINUOUS
10
7.1721382677165355
20
-7.737082677165354
11
7.1693261417322836
21
-7.7314583464566926
0
LINE
8
BLACK
6
CONTINUOUS
10
7.1693261417322836
20
-7.7314583464566926
11
7.1693261417322836
21
-7.7258340551181099
0
LINE
8
BLACK
6
CONTINUOUS
10
7.1693261417322836
20
-7.7258340551181099
11
7.1721382677165355
21
-7.7202097637795273
0
LINE
8
BLACK
6
CONTINUOUS
10
7.1721382677165355
20
-7.7202097637795273
11
7.1777625984251969
21
-7.7173976377952753
0
LINE
8
BLACK
6
CONTINUOUS
10
7.1777625984251969
20
-7.7173976377952753
11
7.1918233070866142
21
-7.7173976377952753
0
LINE
8
BLACK
6
CONTINUOUS
10
7.1918233070866142
20
-7.7173976377952753
11
7.1974476377952756
21
-7.7145854724409446
0
LINE
8
BLACK
6
CONTINUOUS
10
7.2508784645669291
20
-7.739894803149606
11
7.2508784645669291
21
-7.6808396850393699
0
LINE
8
BLACK
6
CONTINUOUS
10
7.2508784645669291
20
-7.737082677165354
11
7.2452541338582677
21
-7.739894803149606
0
LINE
8
BLACK
6
CONTINUOUS
10
7.2452541338582677
20
-7.739894803149606
11
7.2340055511811023
21
-7.739894803149606
0
LINE
8
BLACK
6
CONTINUOUS
10
7.2340055511811023
20
-7.739894803149606
11
7.2283812598425197
21
-7.737082677165354
0
LINE
8
BLACK
6
CONTINUOUS
10
7.2283812598425197
20
-7.737082677165354
11
7.225569094488189
21
-7.7342705118110233
0
LINE
8
BLACK
6
CONTINUOUS
10
7.225569094488189
20
-7.7342705118110233
11
7.222756968503937
21
-7.7286462204724407
0
LINE
8
BLACK
6
CONTINUOUS
10
7.222756968503937
20
-7.7286462204724407
11
7.222756968503937
21
-7.7117733070866139
0
LINE
8
BLACK
6
CONTINUOUS
10
7.222756968503937
20
-7.7117733070866139
11
7.225569094488189
21
-7.7061490157480312
0
LINE
8
BLACK
6
CONTINUOUS
10
7.225569094488189
20
-7.7061490157480312
11
7.2283812598425197
21
-7.7033368897637793
0
LINE
8
BLACK
6
CONTINUOUS
10
7.2283812598425197
20
-7.7033368897637793
11
7.2340055511811023
21
-7.7005247244094486
0
LINE
8
BLACK
6
CONTINUOUS
10
7.2340055511811023
20
-7.7005247244094486
11
7.2452541338582677
21
-7.7005247244094486
0
LINE
8
BLACK
6
CONTINUOUS
10
7.2452541338582677
20
-7.7005247244094486
11
7.2508784645669291
21
-7.7033368897637793
0
LINE
8
BLACK
6
CONTINUOUS
10
7.3239942913385825
20
-7.7089611811023619
11
7.3436793307086612
21
-7.7089611811023619
0
LINE
8
BLACK
6
CONTINUOUS
10
7.3521157874015746
20
-7.739894803149606
11
7.3239942913385825
21
-7.739894803149606
0
LINE
8
BLACK
6
CONTINUOUS
10
7.3239942913385825
20
-7.739894803149606
11
7.3239942913385825
21
-7.6808396850393699
0
LINE
8
BLACK
6
CONTINUOUS
10
7.3239942913385825
20
-7.6808396850393699
11
7.3521157874015746
21
-7.6808396850393699
0
LINE
8
BLACK
6
CONTINUOUS
10
7.3774251181102359
20
-7.7342705118110233
11
7.3802372834645666
21
-7.737082677165354
0
LINE
8
BLACK
6
CONTINUOUS
10
7.3802372834645666
20
-7.737082677165354
11
7.3774251181102359
21
-7.739894803149606
0
LINE
8
BLACK
6
CONTINUOUS
10
7.3774251181102359
20
-7.739894803149606
11
7.374612992125984
21
-7.737082677165354
0
LINE
8
BLACK
6
CONTINUOUS
10
7.374612992125984
20
-7.737082677165354
11
7.3774251181102359
21
-7.7342705118110233
0
LINE
8
BLACK
6
CONTINUOUS
10
7.3774251181102359
20
-7.7342705118110233
11
7.3774251181102359
21
-7.739894803149606
0
LINE
8
BLACK
6
CONTINUOUS
10
7.405546614173228
20
-7.739894803149606
11
7.405546614173228
21
-7.6808396850393699
0
LINE
8
BLACK
6
CONTINUOUS
10
7.405546614173228
20
-7.6808396850393699
11
7.4196073622047241
21
-7.6808396850393699
0
LINE
8
BLACK
6
CONTINUOUS
10
7.4196073622047241
20
-7.6808396850393699
11
7.4280438188976374
21
-7.6836518503937006
0
LINE
8
BLACK
6
CONTINUOUS
10
7.4280438188976374
20
-7.6836518503937006
11
7.4336681102362201
21
-7.6892761417322832
0
LINE
8
BLACK
6
CONTINUOUS
10
7.4336681102362201
20
-7.6892761417322832
11
7.4364802755905508
21
-7.6949004330708659
0
LINE
8
BLACK
6
CONTINUOUS
10
7.4364802755905508
20
-7.6949004330708659
11
7.4392924015748028
21
-7.7061490157480312
0
LINE
8
BLACK
6
CONTINUOUS
10
7.4392924015748028
20
-7.7061490157480312
11
7.4392924015748028
21
-7.7145854724409446
0
LINE
8
BLACK
6
CONTINUOUS
10
7.4392924015748028
20
-7.7145854724409446
11
7.4364802755905508
21
-7.7258340551181099
0
LINE
8
BLACK
6
CONTINUOUS
10
7.4364802755905508
20
-7.7258340551181099
11
7.4336681102362201
21
-7.7314583464566926
0
LINE
8
BLACK
6
CONTINUOUS
10
7.4336681102362201
20
-7.7314583464566926
11
7.4280438188976374
21
-7.737082677165354
0
LINE
8
BLACK
6
CONTINUOUS
10
7.4280438188976374
20
-7.737082677165354
11
7.4196073622047241
21
-7.739894803149606
0
LINE
8
BLACK
6
CONTINUOUS
10
7.4196073622047241
20
-7.739894803149606
11
7.405546614173228
21
-7.739894803149606
0
LINE
8
BLACK
6
CONTINUOUS
10
7.4646017322834641
20
-7.7342705118110233
11
7.4674138976377948
21
-7.737082677165354
0
LINE
8
BLACK
6
CONTINUOUS
10
7.4674138976377948
20
-7.737082677165354
11
7.4646017322834641
21
-7.739894803149606
0
LINE
8
BLACK
6
CONTINUOUS
10
7.4646017322834641
20
-7.739894803149606
11
7.4617896062992122
21
-7.737082677165354
0
LINE
8
BLACK
6
CONTINUOUS
10
7.4617896062992122
20
-7.737082677165354
11
7.4646017322834641
21
-7.7342705118110233
0
LINE
8
BLACK
6
CONTINUOUS
10
7.4646017322834641
20
-7.7342705118110233
11
7.4646017322834641
21
-7.739894803149606
0
LINE
8
BLACK
6
CONTINUOUS
10
7.4899111023622043
20
-7.723021929133858
11
7.5180325984251963
21
-7.723021929133858
0
LINE
8
BLACK
6
CONTINUOUS
10
7.4842868110236216
20
-7.739894803149606
11
7.5039718503937003
21
-7.6808396850393699
0
LINE
8
BLACK
6
CONTINUOUS
10
7.5039718503937003
20
-7.6808396850393699
11
7.523656889763779
21
-7.739894803149606
0
LINE
8
BLACK
6
CONTINUOUS
10
7.543341889763779
20
-7.7342705118110233
11
7.5461540551181097
21
-7.737082677165354
0
LINE
8
BLACK
6
CONTINUOUS
10
7.5461540551181097
20
-7.737082677165354
11
7.543341889763779
21
-7.739894803149606
0
LINE
8
BLACK
6
CONTINUOUS
10
7.543341889763779
20
-7.739894803149606
11
7.540529763779527
21
-7.737082677165354
0
LINE
8
BLACK
6
CONTINUOUS
10
7.540529763779527
20
-7.737082677165354
11
7.543341889763779
21
-7.7342705118110233
0
LINE
8
BLACK
6
CONTINUOUS
10
7.543341889763779
20
-7.7342705118110233
11
7.543341889763779
21
-7.739894803149606
0
LINE
8
BLACK
6
CONTINUOUS
10
7.6192699212598427
20
-7.739894803149606
11
7.630518503937008
21
-7.739894803149606
0
LINE
8
BLACK
6
CONTINUOUS
10
7.630518503937008
20
-7.739894803149606
11
7.6361427952755907
21
-7.737082677165354
0
LINE
8
BLACK
6
CONTINUOUS
10
7.6361427952755907
20
-7.737082677165354
11
7.6389549606299214
21
-7.7342705118110233
0
LINE
8
BLACK
6
CONTINUOUS
10
7.6389549606299214
20
-7.7342705118110233
11
7.6445792519685041
21
-7.7258340551181099
0
LINE
8
BLACK
6
CONTINUOUS
10
7.6445792519685041
20
-7.7258340551181099
11
7.6473914173228348
21
-7.7145854724409446
0
LINE
8
BLACK
6
CONTINUOUS
10
7.6473914173228348
20
-7.7145854724409446
11
7.6473914173228348
21
-7.6920882677165352
0
LINE
8
BLACK
6
CONTINUOUS
10
7.6473914173228348
20
-7.6920882677165352
11
7.6445792519685041
21
-7.6864639763779525
0
LINE
8
BLACK
6
CONTINUOUS
10
7.6445792519685041
20
-7.6864639763779525
11
7.6417671259842521
21
-7.6836518503937006
0
LINE
8
BLACK
6
CONTINUOUS
10
7.6417671259842521
20
-7.6836518503937006
11
7.6361427952755907
21
-7.6808396850393699
0
LINE
8
BLACK
6
CONTINUOUS
10
7.6361427952755907
20
-7.6808396850393699
11
7.6248942125984254
21
-7.6808396850393699
0
LINE
8
BLACK
6
CONTINUOUS
10
7.6248942125984254
20
-7.6808396850393699
11
7.6192699212598427
21
-7.6836518503937006
0
LINE
8
BLACK
6
CONTINUOUS
10
7.6192699212598427
20
-7.6836518503937006
11
7.616457755905512
21
-7.6864639763779525
0
LINE
8
BLACK
6
CONTINUOUS
10
7.616457755905512
20
-7.6864639763779525
11
7.61364562992126
21
-7.6920882677165352
0
LINE
8
BLACK
6
CONTINUOUS
10
7.61364562992126
20
-7.6920882677165352
11
7.61364562992126
21
-7.7061490157480312
0
LINE
8
BLACK
6
CONTINUOUS
10
7.61364562992126
20
-7.7061490157480312
11
7.616457755905512
21
-7.7117733070866139
0
LINE
8
BLACK
6
CONTINUOUS
10
7.616457755905512
20
-7.7117733070866139
11
7.6192699212598427
21
-7.7145854724409446
0
LINE
8
BLACK
6
CONTINUOUS
10
7.6192699212598427
20
-7.7145854724409446
11
7.6248942125984254
21
-7.7173976377952753
0
LINE
8
BLACK
6
CONTINUOUS
10
7.6248942125984254
20
-7.7173976377952753
11
7.6361427952755907
21
-7.7173976377952753
0
LINE
8
BLACK
6
CONTINUOUS
10
7.6361427952755907
20
-7.7173976377952753
11
7.6417671259842521
21
-7.7145854724409446
0
LINE
8
BLACK
6
CONTINUOUS
10
7.6417671259842521
20
-7.7145854724409446
11
7.6445792519685041
21
-7.7117733070866139
0
LINE
8
BLACK
6
CONTINUOUS
10
7.6445792519685041
20
-7.7117733070866139
11
7.6473914173228348
21
-7.7061490157480312
0
LINE
8
BLACK
6
CONTINUOUS
10
7.6727007086614174
20
-7.7342705118110233
11
7.6755128740157481
21
-7.737082677165354
0
LINE
8
BLACK
6
CONTINUOUS
10
7.6755128740157481
20
-7.737082677165354
11
7.6727007086614174
21
-7.739894803149606
0
LINE
8
BLACK
6
CONTINUOUS
10
7.6727007086614174
20
-7.739894803149606
11
7.6698885826771654
21
-7.737082677165354
0
LINE
8
BLACK
6
CONTINUOUS
10
7.6698885826771654
20
-7.737082677165354
11
7.6727007086614174
21
-7.7342705118110233
0
LINE
8
BLACK
6
CONTINUOUS
10
7.6727007086614174
20
-7.7342705118110233
11
7.6727007086614174
21
-7.739894803149606
0
LINE
8
BLACK
6
CONTINUOUS
10
7.7120708267716536
20
-7.6808396850393699
11
7.7176951181102362
21
-7.6808396850393699
0
LINE
8
BLACK
6
CONTINUOUS
10
7.7176951181102362
20
-7.6808396850393699
11
7.7233194094488189
21
-7.6836518503937006
0
LINE
8
BLACK
6
CONTINUOUS
10
7.7233194094488189
20
-7.6836518503937006
11
7.7261315748031496
21
-7.6864639763779525
0
LINE
8
BLACK
6
CONTINUOUS
10
7.7261315748031496
20
-7.6864639763779525
11
7.7289437007874016
21
-7.6920882677165352
0
LINE
8
BLACK
6
CONTINUOUS
10
7.7289437007874016
20
-7.6920882677165352
11
7.7317558661417323
21
-7.7033368897637793
0
LINE
8
BLACK
6
CONTINUOUS
10
7.7317558661417323
20
-7.7033368897637793
11
7.7317558661417323
21
-7.7173976377952753
0
LINE
8
BLACK
6
CONTINUOUS
10
7.7317558661417323
20
-7.7173976377952753
11
7.7289437007874016
21
-7.7286462204724407
0
LINE
8
BLACK
6
CONTINUOUS
10
7.7289437007874016
20
-7.7286462204724407
11
7.7261315748031496
21
-7.7342705118110233
0
LINE
8
BLACK
6
CONTINUOUS
10
7.7261315748031496
20
-7.7342705118110233
11
7.7233194094488189
21
-7.737082677165354
0
LINE
8
BLACK
6
CONTINUOUS
10
7.7233194094488189
20
-7.737082677165354
11
7.7176951181102362
21
-7.739894803149606
0
LINE
8
BLACK
6
CONTINUOUS
10
7.7176951181102362
20
-7.739894803149606
11
7.7120708267716536
21
-7.739894803149606
0
LINE
8
BLACK
6
CONTINUOUS
10
7.7120708267716536
20
-7.739894803149606
11
7.7064465354330709
21
-7.737082677165354
0
LINE
8
BLACK
6
CONTINUOUS
10
7.7064465354330709
20
-7.737082677165354
11
7.7036343700787402
21
-7.7342705118110233
0
LINE
8
BLACK
6
CONTINUOUS
10
7.7036343700787402
20
-7.7342705118110233
11
7.7008222047244095
21
-7.7286462204724407
0
LINE
8
BLACK
6
CONTINUOUS
10
7.7008222047244095
20
-7.7286462204724407
11
7.6980100787401575
21
-7.7173976377952753
0
LINE
8
BLACK
6
CONTINUOUS
10
7.6980100787401575
20
-7.7173976377952753
11
7.6980100787401575
21
-7.7033368897637793
0
LINE
8
BLACK
6
CONTINUOUS
10
7.6980100787401575
20
-7.7033368897637793
11
7.7008222047244095
21
-7.6920882677165352
0
LINE
8
BLACK
6
CONTINUOUS
10
7.7008222047244095
20
-7.6920882677165352
11
7.7036343700787402
21
-7.6864639763779525
0
LINE
8
BLACK
6
CONTINUOUS
10
7.7036343700787402
20
-7.6864639763779525
11
7.7064465354330709
21
-7.6836518503937006
0
LINE
8
BLACK
6
CONTINUOUS
10
7.7064465354330709
20
-7.6836518503937006
11
7.7120708267716536
21
-7.6808396850393699
0
LINE
8
BLACK
6
CONTINUOUS
10
7.7570651574803149
20
-7.7342705118110233
11
7.7598773228346456
21
-7.737082677165354
0
LINE
8
BLACK
6
CONTINUOUS
10
7.7598773228346456
20
-7.737082677165354
11
7.7570651574803149
21
-7.739894803149606
0
LINE
8
BLACK
6
CONTINUOUS
10
7.7570651574803149
20
-7.739894803149606
11
7.7542530314960629
21
-7.737082677165354
0
LINE
8
BLACK
6
CONTINUOUS
10
7.7542530314960629
20
-7.737082677165354
11
7.7570651574803149
21
-7.7342705118110233
0
LINE
8
BLACK
6
CONTINUOUS
10
7.7570651574803149
20
-7.7342705118110233
11
7.7570651574803149
21
-7.739894803149606
0
LINE
8
BLACK
6
CONTINUOUS
10
7.8104960236220471
20
-7.7005247244094486
11
7.8104960236220471
21
-7.739894803149606
0
LINE
8
BLACK
6
CONTINUOUS
10
7.7964352755905511
20
-7.6780275590551179
11
7.782374527559055
21
-7.7202097637795273
0
LINE
8
BLACK
6
CONTINUOUS
10
7.782374527559055
20
-7.7202097637795273
11
7.8189324409448817
21
-7.7202097637795273
0
LINE
8
BLACK
6
CONTINUOUS
10
6.9685905511811024
20
-7.5396535433070868
11
11.2205590551181107
21
-7.5396535433070868
0
LINE
8
BLACK
6
CONTINUOUS
10
10.4099942125984253
20
-7.6293514960629922
11
10.3903091732283457
21
-7.6012300000000002
0
LINE
8
BLACK
6
CONTINUOUS
10
10.3762484251968505
20
-7.6293514960629922
11
10.3762484251968505
21
-7.5702963779527561
0
LINE
8
BLACK
6
CONTINUOUS
10
10.3762484251968505
20
-7.5702963779527561
11
10.3987456299212599
21
-7.5702963779527561
0
LINE
8
BLACK
6
CONTINUOUS
10
10.3987456299212599
20
-7.5702963779527561
11
10.4043699212598426
21
-7.5731085433070868
0
LINE
8
BLACK
6
CONTINUOUS
10
10.4043699212598426
20
-7.5731085433070868
11
10.4071820866141724
21
-7.5759206692913388
0
LINE
8
BLACK
6
CONTINUOUS
10
10.4071820866141724
20
-7.5759206692913388
11
10.4099942125984253
21
-7.5815449606299214
0
LINE
8
BLACK
6
CONTINUOUS
10
10.4099942125984253
20
-7.5815449606299214
11
10.4099942125984253
21
-7.5899814173228348
0
LINE
8
BLACK
6
CONTINUOUS
10
10.4099942125984253
20
-7.5899814173228348
11
10.4071820866141724
21
-7.5956057086614175
0
LINE
8
BLACK
6
CONTINUOUS
10
10.4071820866141724
20
-7.5956057086614175
11
10.4043699212598426
21
-7.5984178740157482
0
LINE
8
BLACK
6
CONTINUOUS
10
10.4043699212598426
20
-7.5984178740157482
11
10.3987456299212599
21
-7.6012300000000002
0
LINE
8
BLACK
6
CONTINUOUS
10
10.3987456299212599
20
-7.6012300000000002
11
10.3762484251968505
21
-7.6012300000000002
0
LINE
8
BLACK
6
CONTINUOUS
10
10.4578007480314952
20
-7.6265393700787403
11
10.4521764566929125
21
-7.6293514960629922
0
LINE
8
BLACK
6
CONTINUOUS
10
10.4521764566929125
20
-7.6293514960629922
11
10.4409278740157472
21
-7.6293514960629922
0
LINE
8
BLACK
6
CONTINUOUS
10
10.4409278740157472
20
-7.6293514960629922
11
10.4353035433070858
21
-7.6265393700787403
0
LINE
8
BLACK
6
CONTINUOUS
10
10.4353035433070858
20
-7.6265393700787403
11
10.4324914173228347
21
-7.6209150393700789
0
LINE
8
BLACK
6
CONTINUOUS
10
10.4324914173228347
20
-7.6209150393700789
11
10.4324914173228347
21
-7.5984178740157482
0
LINE
8
BLACK
6
CONTINUOUS
10
10.4324914173228347
20
-7.5984178740157482
11
10.4353035433070858
21
-7.5927935826771655
0
LINE
8
BLACK
6
CONTINUOUS
10
10.4353035433070858
20
-7.5927935826771655
11
10.4409278740157472
21
-7.5899814173228348
0
LINE
8
BLACK
6
CONTINUOUS
10
10.4409278740157472
20
-7.5899814173228348
11
10.4521764566929125
21
-7.5899814173228348
0
LINE
8
BLACK
6
CONTINUOUS
10
10.4521764566929125
20
-7.5899814173228348
11
10.4578007480314952
21
-7.5927935826771655
0
LINE
8
BLACK
6
CONTINUOUS
10
10.4578007480314952
20
-7.5927935826771655
11
10.4606129133858268
21
-7.5984178740157482
0
LINE
8
BLACK
6
CONTINUOUS
10
10.4606129133858268
20
-7.5984178740157482
11
10.4606129133858268
21
-7.6040421653543309
0
LINE
8
BLACK
6
CONTINUOUS
10
10.4606129133858268
20
-7.6040421653543309
11
10.4324914173228347
21
-7.6096664566929135
0
LINE
8
BLACK
6
CONTINUOUS
10
10.4802979133858258
20
-7.5899814173228348
11
10.4943586614173228
21
-7.6293514960629922
0
LINE
8
BLACK
6
CONTINUOUS
10
10.4943586614173228
20
-7.6293514960629922
11
10.5084194094488179
21
-7.5899814173228348
0
LINE
8
BLACK
6
CONTINUOUS
10
10.5309165748031486
20
-7.6237272047244096
11
10.5337287401574802
21
-7.6265393700787403
0
LINE
8
BLACK
6
CONTINUOUS
10
10.5337287401574802
20
-7.6265393700787403
11
10.5309165748031486
21
-7.6293514960629922
0
LINE
8
BLACK
6
CONTINUOUS
10
10.5309165748031486
20
-7.6293514960629922
11
10.5281044488188975
21
-7.6265393700787403
0
LINE
8
BLACK
6
CONTINUOUS
10
10.5281044488188975
20
-7.6265393700787403
11
10.5309165748031486
21
-7.6237272047244096
0
LINE
8
BLACK
6
CONTINUOUS
10
10.5309165748031486
20
-7.6237272047244096
11
10.5309165748031486
21
-7.6293514960629922
0
LINE
8
BLACK
6
CONTINUOUS
10
10.5309165748031486
20
-7.5927935826771655
11
10.5337287401574802
21
-7.5956057086614175
0
LINE
8
BLACK
6
CONTINUOUS
10
10.5337287401574802
20
-7.5956057086614175
11
10.5309165748031486
21
-7.5984178740157482
0
LINE
8
BLACK
6
CONTINUOUS
10
10.5309165748031486
20
-7.5984178740157482
11
10.5281044488188975
21
-7.5956057086614175
0
LINE
8
BLACK
6
CONTINUOUS
10
10.5281044488188975
20
-7.5956057086614175
11
10.5309165748031486
21
-7.5927935826771655
0
LINE
8
BLACK
6
CONTINUOUS
10
10.5309165748031486
20
-7.5927935826771655
11
10.5309165748031486
21
-7.5984178740157482
0
LINE
8
BLACK
6
CONTINUOUS
10
7.0230944094488184
20
-7.6268464566929133
11
7.0315308661417317
21
-7.6296585826771652
0
LINE
8
BLACK
6
CONTINUOUS
10
7.0315308661417317
20
-7.6296585826771652
11
7.045591574803149
21
-7.6296585826771652
0
LINE
8
BLACK
6
CONTINUOUS
10
7.045591574803149
20
-7.6296585826771652
11
7.0512159055118104
21
-7.6268464566929133
0
LINE
8
BLACK
6
CONTINUOUS
10
7.0512159055118104
20
-7.6268464566929133
11
7.0540280314960624
21
-7.6240342913385826
0
LINE
8
BLACK
6
CONTINUOUS
10
7.0540280314960624
20
-7.6240342913385826
11
7.0568401968503931
21
-7.6184099999999999
0
LINE
8
BLACK
6
CONTINUOUS
10
7.0568401968503931
20
-7.6184099999999999
11
7.0568401968503931
21
-7.6127857086614172
0
LINE
8
BLACK
6
CONTINUOUS
10
7.0568401968503931
20
-7.6127857086614172
11
7.0540280314960624
21
-7.6071614173228346
0
LINE
8
BLACK
6
CONTINUOUS
10
7.0540280314960624
20
-7.6071614173228346
11
7.0512159055118104
21
-7.6043492519685039
0
LINE
8
BLACK
6
CONTINUOUS
10
7.0512159055118104
20
-7.6043492519685039
11
7.045591574803149
21
-7.6015370866141732
0
LINE
8
BLACK
6
CONTINUOUS
10
7.045591574803149
20
-7.6015370866141732
11
7.0343429921259837
21
-7.5987249606299212
0
LINE
8
BLACK
6
CONTINUOUS
10
7.0343429921259837
20
-7.5987249606299212
11
7.028718700787401
21
-7.5959127952755905
0
LINE
8
BLACK
6
CONTINUOUS
10
7.028718700787401
20
-7.5959127952755905
11
7.0259065354330703
21
-7.5931006692913385
0
LINE
8
BLACK
6
CONTINUOUS
10
7.0259065354330703
20
-7.5931006692913385
11
7.0230944094488184
21
-7.5874763779527559
0
LINE
8
BLACK
6
CONTINUOUS
10
7.0230944094488184
20
-7.5874763779527559
11
7.0230944094488184
21
-7.5818520472440945
0
LINE
8
BLACK
6
CONTINUOUS
10
7.0230944094488184
20
-7.5818520472440945
11
7.0259065354330703
21
-7.5762277559055118
0
LINE
8
BLACK
6
CONTINUOUS
10
7.0259065354330703
20
-7.5762277559055118
11
7.028718700787401
21
-7.5734156299212598
0
LINE
8
BLACK
6
CONTINUOUS
10
7.028718700787401
20
-7.5734156299212598
11
7.0343429921259837
21
-7.5706034645669291
0
LINE
8
BLACK
6
CONTINUOUS
10
7.0343429921259837
20
-7.5706034645669291
11
7.0484037401574797
21
-7.5706034645669291
0
LINE
8
BLACK
6
CONTINUOUS
10
7.0484037401574797
20
-7.5706034645669291
11
7.0568401968503931
21
-7.5734156299212598
0
LINE
8
BLACK
6
CONTINUOUS
10
7.0821494881889766
20
-7.6296585826771652
11
7.0821494881889766
21
-7.5902885039370078
0
LINE
8
BLACK
6
CONTINUOUS
10
7.0821494881889766
20
-7.5706034645669291
11
7.0793373622047246
21
-7.5734156299212598
0
LINE
8
BLACK
6
CONTINUOUS
10
7.0793373622047246
20
-7.5734156299212598
11
7.0821494881889766
21
-7.5762277559055118
0
LINE
8
BLACK
6
CONTINUOUS
10
7.0821494881889766
20
-7.5762277559055118
11
7.0849616535433073
21
-7.5734156299212598
0
LINE
8
BLACK
6
CONTINUOUS
10
7.0849616535433073
20
-7.5734156299212598
11
7.0821494881889766
21
-7.5706034645669291
0
LINE
8
BLACK
6
CONTINUOUS
10
7.0821494881889766
20
-7.5706034645669291
11
7.0821494881889766
21
-7.5762277559055118
0
LINE
8
BLACK
6
CONTINUOUS
10
7.104646692913386
20
-7.5902885039370078
11
7.1355803543307088
21
-7.5902885039370078
0
LINE
8
BLACK
6
CONTINUOUS
10
7.1355803543307088
20
-7.5902885039370078
11
7.104646692913386
21
-7.6296585826771652
0
LINE
8
BLACK
6
CONTINUOUS
10
7.104646692913386
20
-7.6296585826771652
11
7.1355803543307088
21
-7.6296585826771652
0
LINE
8
BLACK
6
CONTINUOUS
10
7.1805747244094489
20
-7.6268464566929133
11
7.1749504330708662
21
-7.6296585826771652
0
LINE
8
BLACK
6
CONTINUOUS
10
7.1749504330708662
20
-7.6296585826771652
11
7.1637018503937009
21
-7.6296585826771652
0
LINE
8
BLACK
6
CONTINUOUS
10
7.1637018503937009
20
-7.6296585826771652
11
7.1580775196850395
21
-7.6268464566929133
0
LINE
8
BLACK
6
CONTINUOUS
10
7.1580775196850395
20
-7.6268464566929133
11
7.1552653937007875
21
-7.6212221259842519
0
LINE
8
BLACK
6
CONTINUOUS
10
7.1552653937007875
20
-7.6212221259842519
11
7.1552653937007875
21
-7.5987249606299212
0
LINE
8
BLACK
6
CONTINUOUS
10
7.1552653937007875
20
-7.5987249606299212
11
7.1580775196850395
21
-7.5931006692913385
0
LINE
8
BLACK
6
CONTINUOUS
10
7.1580775196850395
20
-7.5931006692913385
11
7.1637018503937009
21
-7.5902885039370078
0
LINE
8
BLACK
6
CONTINUOUS
10
7.1637018503937009
20
-7.5902885039370078
11
7.1749504330708662
21
-7.5902885039370078
0
LINE
8
BLACK
6
CONTINUOUS
10
7.1749504330708662
20
-7.5902885039370078
11
7.1805747244094489
21
-7.5931006692913385
0
LINE
8
BLACK
6
CONTINUOUS
10
7.1805747244094489
20
-7.5931006692913385
11
7.1833868897637796
21
-7.5987249606299212
0
LINE
8
BLACK
6
CONTINUOUS
10
7.1833868897637796
20
-7.5987249606299212
11
7.1833868897637796
21
-7.6043492519685039
0
LINE
8
BLACK
6
CONTINUOUS
10
7.1833868897637796
20
-7.6043492519685039
11
7.1552653937007875
21
-7.6099735433070865
0
LINE
8
BLACK
6
CONTINUOUS
10
7.2086961811023622
20
-7.6240342913385826
11
7.2115083464566929
21
-7.6268464566929133
0
LINE
8
BLACK
6
CONTINUOUS
10
7.2115083464566929
20
-7.6268464566929133
11
7.2086961811023622
21
-7.6296585826771652
0
LINE
8
BLACK
6
CONTINUOUS
10
7.2086961811023622
20
-7.6296585826771652
11
7.2058840551181103
21
-7.6268464566929133
0
LINE
8
BLACK
6
CONTINUOUS
10
7.2058840551181103
20
-7.6268464566929133
11
7.2086961811023622
21
-7.6240342913385826
0
LINE
8
BLACK
6
CONTINUOUS
10
7.2086961811023622
20
-7.6240342913385826
11
7.2086961811023622
21
-7.6296585826771652
0
LINE
8
BLACK
6
CONTINUOUS
10
7.2086961811023622
20
-7.5931006692913385
11
7.2115083464566929
21
-7.5959127952755905
0
LINE
8
BLACK
6
CONTINUOUS
10
7.2115083464566929
20
-7.5959127952755905
11
7.2086961811023622
21
-7.5987249606299212
0
LINE
8
BLACK
6
CONTINUOUS
10
7.2086961811023622
20
-7.5987249606299212
11
7.2058840551181103
21
-7.5959127952755905
0
LINE
8
BLACK
6
CONTINUOUS
10
7.2058840551181103
20
-7.5959127952755905
11
7.2086961811023622
21
-7.5931006692913385
0
LINE
8
BLACK
6
CONTINUOUS
10
7.2086961811023622
20
-7.5931006692913385
11
7.2086961811023622
21
-7.5987249606299212
0
LINE
8
BLACK
6
CONTINUOUS
10
7.2789999212598424
20
-7.6127857086614172
11
7.3071214173228345
21
-7.6127857086614172
0
LINE
8
BLACK
6
CONTINUOUS
10
7.2733756299212597
20
-7.6296585826771652
11
7.2930606692913384
21
-7.5706034645669291
0
LINE
8
BLACK
6
CONTINUOUS
10
7.2930606692913384
20
-7.5706034645669291
11
7.3127457086614172
21
-7.6296585826771652
0
LINE
8
BLACK
6
CONTINUOUS
10
7.3577400787401572
20
-7.5902885039370078
11
7.3577400787401572
21
-7.6296585826771652
0
LINE
8
BLACK
6
CONTINUOUS
10
7.3436793307086612
20
-7.5677913385826772
11
7.3296185826771652
21
-7.6099735433070865
0
LINE
8
BLACK
6
CONTINUOUS
10
7.3296185826771652
20
-7.6099735433070865
11
7.3661764960629919
21
-7.6099735433070865
0
LINE
8
BLACK
6
CONTINUOUS
10
10.3723632283464564
20
-7.739894803149606
11
10.3723632283464564
21
-7.6808396850393699
0
LINE
8
BLACK
6
CONTINUOUS
10
10.4257940944881895
20
-7.739894803149606
11
10.4257940944881895
21
-7.6808396850393699
0
LINE
8
BLACK
6
CONTINUOUS
10
10.4257940944881895
20
-7.737082677165354
11
10.4201697637795281
21
-7.739894803149606
0
LINE
8
BLACK
6
CONTINUOUS
10
10.4201697637795281
20
-7.739894803149606
11
10.4089211811023628
21
-7.739894803149606
0
LINE
8
BLACK
6
CONTINUOUS
10
10.4089211811023628
20
-7.739894803149606
11
10.4032968897637801
21
-7.737082677165354
0
LINE
8
BLACK
6
CONTINUOUS
10
10.4032968897637801
20
-7.737082677165354
11
10.4004847244094485
21
-7.7342705118110233
0
LINE
8
BLACK
6
CONTINUOUS
10
10.4004847244094485
20
-7.7342705118110233
11
10.3976725984251974
21
-7.7286462204724407
0
LINE
8
BLACK
6
CONTINUOUS
10
10.3976725984251974
20
-7.7286462204724407
11
10.3976725984251974
21
-7.7117733070866139
0
LINE
8
BLACK
6
CONTINUOUS
10
10.3976725984251974
20
-7.7117733070866139
11
10.4004847244094485
21
-7.7061490157480312
0
LINE
8
BLACK
6
CONTINUOUS
10
10.4004847244094485
20
-7.7061490157480312
11
10.4032968897637801
21
-7.7033368897637793
0
LINE
8
BLACK
6
CONTINUOUS
10
10.4032968897637801
20
-7.7033368897637793
11
10.4089211811023628
21
-7.7005247244094486
0
LINE
8
BLACK
6
CONTINUOUS
10
10.4089211811023628
20
-7.7005247244094486
11
10.4201697637795281
21
-7.7005247244094486
0
LINE
8
BLACK
6
CONTINUOUS
10
10.4201697637795281
20
-7.7005247244094486
11
10.4257940944881895
21
-7.7033368897637793
0
LINE
8
BLACK
6
CONTINUOUS
10
10.4539155511811028
20
-7.7342705118110233
11
10.4567277165354326
21
-7.737082677165354
0
LINE
8
BLACK
6
CONTINUOUS
10
10.4567277165354326
20
-7.737082677165354
11
10.4539155511811028
21
-7.739894803149606
0
LINE
8
BLACK
6
CONTINUOUS
10
10.4539155511811028
20
-7.739894803149606
11
10.45110342519685
21
-7.737082677165354
0
LINE
8
BLACK
6
CONTINUOUS
10
10.45110342519685
20
-7.737082677165354
11
10.4539155511811028
21
-7.7342705118110233
0
LINE
8
BLACK
6
CONTINUOUS
10
10.4539155511811028
20
-7.7342705118110233
11
10.4539155511811028
21
-7.739894803149606
0
LINE
8
BLACK
6
CONTINUOUS
10
10.4539155511811028
20
-7.7033368897637793
11
10.4567277165354326
21
-7.7061490157480312
0
LINE
8
BLACK
6
CONTINUOUS
10
10.4567277165354326
20
-7.7061490157480312
11
10.4539155511811028
21
-7.7089611811023619
0
LINE
8
BLACK
6
CONTINUOUS
10
10.4539155511811028
20
-7.7089611811023619
11
10.45110342519685
21
-7.7061490157480312
0
LINE
8
BLACK
6
CONTINUOUS
10
10.45110342519685
20
-7.7061490157480312
11
10.4539155511811028
21
-7.7033368897637793
0
LINE
8
BLACK
6
CONTINUOUS
10
10.4539155511811028
20
-7.7033368897637793
11
10.4539155511811028
21
-7.7089611811023619
0
LINE
8
BLACK
6
CONTINUOUS
10
10.5579650787401569
20
-7.739894803149606
11
10.5242192913385821
21
-7.739894803149606
0
LINE
8
BLACK
6
CONTINUOUS
10
10.5410921653543301
20
-7.739894803149606
11
10.5410921653543301
21
-7.6808396850393699
0
LINE
8
BLACK
6
CONTINUOUS
10
10.5410921653543301
20
-7.6808396850393699
11
10.5354678740157475
21
-7.6892761417322832
0
LINE
8
BLACK
6
CONTINUOUS
10
10.5354678740157475
20
-7.6892761417322832
11
10.5298435826771648
21
-7.6949004330708659
0
LINE
8
BLACK
6
CONTINUOUS
10
10.5298435826771648
20
-7.6949004330708659
11
10.5242192913385821
21
-7.6977125984251966
0
LINE
8
BLACK
6
CONTINUOUS
10
10.6254566141732276
20
-7.6780275590551179
11
10.5748379527559049
21
-7.753955551181102
0
LINE
8
BLACK
6
CONTINUOUS
10
10.6395173622047245
20
-7.6808396850393699
11
10.6760753149606291
21
-7.6808396850393699
0
LINE
8
BLACK
6
CONTINUOUS
10
10.6760753149606291
20
-7.6808396850393699
11
10.6563902755905513
21
-7.7033368897637793
0
LINE
8
BLACK
6
CONTINUOUS
10
10.6563902755905513
20
-7.7033368897637793
11
10.664826692913385
21
-7.7033368897637793
0
LINE
8
BLACK
6
CONTINUOUS
10
10.664826692913385
20
-7.7033368897637793
11
10.6704510236220464
21
-7.7061490157480312
0
LINE
8
BLACK
6
CONTINUOUS
10
10.6704510236220464
20
-7.7061490157480312
11
10.6732631496062993
21
-7.7089611811023619
0
LINE
8
BLACK
6
CONTINUOUS
10
10.6732631496062993
20
-7.7089611811023619
11
10.6760753149606291
21
-7.7145854724409446
0
LINE
8
BLACK
6
CONTINUOUS
10
10.6760753149606291
20
-7.7145854724409446
11
10.6760753149606291
21
-7.7286462204724407
0
LINE
8
BLACK
6
CONTINUOUS
10
10.6760753149606291
20
-7.7286462204724407
11
10.6732631496062993
21
-7.7342705118110233
0
LINE
8
BLACK
6
CONTINUOUS
10
10.6732631496062993
20
-7.7342705118110233
11
10.6704510236220464
21
-7.737082677165354
0
LINE
8
BLACK
6
CONTINUOUS
10
10.6704510236220464
20
-7.737082677165354
11
10.664826692913385
21
-7.739894803149606
0
LINE
8
BLACK
6
CONTINUOUS
10
10.664826692913385
20
-7.739894803149606
11
10.647953818897637
21
-7.739894803149606
0
LINE
8
BLACK
6
CONTINUOUS
10
10.647953818897637
20
-7.739894803149606
11
10.6423295275590544
21
-7.737082677165354
0
LINE
8
BLACK
6
CONTINUOUS
10
10.6423295275590544
20
-7.737082677165354
11
10.6395173622047245
21
-7.7342705118110233
0
LINE
8
BLACK
6
CONTINUOUS
10
6.9685905511811024
20
-7.3821732283464563
11
11.2205590551181107
21
-7.3821732283464563
0
LINE
8
BLACK
6
CONTINUOUS
10
7.035194015748031
20
-7.4099070078740157
11
7.0801883858267711
21
-7.4099070078740157
0
LINE
8
BLACK
6
CONTINUOUS
10
7.0478487007874016
20
-7.4886471653543305
11
7.0576912204724405
21
-7.4099070078740157
0
LINE
8
BLACK
6
CONTINUOUS
10
7.0965925984251967
20
-7.4886471653543305
11
7.1031542913385826
21
-7.4361537007874015
0
LINE
8
BLACK
6
CONTINUOUS
10
7.1064351181102356
20
-7.4099070078740157
11
7.1022168897637794
21
-7.4136565354330708
0
LINE
8
BLACK
6
CONTINUOUS
10
7.1022168897637794
20
-7.4136565354330708
11
7.1054977559055112
21
-7.4174060629921259
0
LINE
8
BLACK
6
CONTINUOUS
10
7.1054977559055112
20
-7.4174060629921259
11
7.1097159842519684
21
-7.4136565354330708
0
LINE
8
BLACK
6
CONTINUOUS
10
7.1097159842519684
20
-7.4136565354330708
11
7.1064351181102356
21
-7.4099070078740157
0
LINE
8
BLACK
6
CONTINUOUS
10
7.1064351181102356
20
-7.4099070078740157
11
7.1054977559055112
21
-7.4174060629921259
0
LINE
8
BLACK
6
CONTINUOUS
10
7.1294010236220471
20
-7.4361537007874015
11
7.159397244094488
21
-7.4361537007874015
0
LINE
8
BLACK
6
CONTINUOUS
10
7.1439304330708664
20
-7.4099070078740157
11
7.1354940157480318
21
-7.4773985433070864
0
LINE
8
BLACK
6
CONTINUOUS
10
7.1354940157480318
20
-7.4773985433070864
11
7.1383061417322837
21
-7.4848976377952754
0
LINE
8
BLACK
6
CONTINUOUS
10
7.1383061417322837
20
-7.4848976377952754
11
7.1453365354330707
21
-7.4886471653543305
0
LINE
8
BLACK
6
CONTINUOUS
10
7.1453365354330707
20
-7.4886471653543305
11
7.1528355905511809
21
-7.4886471653543305
0
LINE
8
BLACK
6
CONTINUOUS
10
7.1903309055118108
20
-7.4886471653543305
11
7.1833005118110238
21
-7.4848976377952754
0
LINE
8
BLACK
6
CONTINUOUS
10
7.1833005118110238
20
-7.4848976377952754
11
7.1804883858267718
21
-7.4773985433070864
0
LINE
8
BLACK
6
CONTINUOUS
10
7.1804883858267718
20
-7.4773985433070864
11
7.1889248031496065
21
-7.4099070078740157
0
LINE
8
BLACK
6
CONTINUOUS
10
7.2507920866141733
20
-7.4848976377952754
11
7.2428243307086611
21
-7.4886471653543305
0
LINE
8
BLACK
6
CONTINUOUS
10
7.2428243307086611
20
-7.4886471653543305
11
7.2278261811023619
21
-7.4886471653543305
0
LINE
8
BLACK
6
CONTINUOUS
10
7.2278261811023619
20
-7.4886471653543305
11
7.2207958267716537
21
-7.4848976377952754
0
LINE
8
BLACK
6
CONTINUOUS
10
7.2207958267716537
20
-7.4848976377952754
11
7.2179836614173229
21
-7.4773985433070864
0
LINE
8
BLACK
6
CONTINUOUS
10
7.2179836614173229
20
-7.4773985433070864
11
7.2217332283464568
21
-7.4474023228346455
0
LINE
8
BLACK
6
CONTINUOUS
10
7.2217332283464568
20
-7.4474023228346455
11
7.2264201181102363
21
-7.4399032283464566
0
LINE
8
BLACK
6
CONTINUOUS
10
7.2264201181102363
20
-7.4399032283464566
11
7.2343878740157477
21
-7.4361537007874015
0
LINE
8
BLACK
6
CONTINUOUS
10
7.2343878740157477
20
-7.4361537007874015
11
7.2493859842519681
21
-7.4361537007874015
0
LINE
8
BLACK
6
CONTINUOUS
10
7.2493859842519681
20
-7.4361537007874015
11
7.256416377952756
21
-7.4399032283464566
0
LINE
8
BLACK
6
CONTINUOUS
10
7.256416377952756
20
-7.4399032283464566
11
7.2592285039370079
21
-7.4474023228346455
0
LINE
8
BLACK
6
CONTINUOUS
10
7.2592285039370079
20
-7.4474023228346455
11
7.2582911417322835
21
-7.4549013779527558
0
LINE
8
BLACK
6
CONTINUOUS
10
7.2582911417322835
20
-7.4549013779527558
11
7.2198584251968505
21
-7.462400433070866
0
LINE
8
BLACK
6
CONTINUOUS
10
7.2887561023622043
20
-7.4811480708661415
11
7.2920369291338583
21
-7.4848976377952754
0
LINE
8
BLACK
6
CONTINUOUS
10
7.2920369291338583
20
-7.4848976377952754
11
7.2878187007874011
21
-7.4886471653543305
0
LINE
8
BLACK
6
CONTINUOUS
10
7.2878187007874011
20
-7.4886471653543305
11
7.284537874015748
21
-7.4848976377952754
0
LINE
8
BLACK
6
CONTINUOUS
10
7.284537874015748
20
-7.4848976377952754
11
7.2887561023622043
21
-7.4811480708661415
0
LINE
8
BLACK
6
CONTINUOUS
10
7.2887561023622043
20
-7.4811480708661415
11
7.2878187007874011
21
-7.4886471653543305
0
LINE
8
BLACK
6
CONTINUOUS
10
7.2939116929133858
20
-7.4399032283464566
11
7.2971925196850389
21
-7.4436527559055117
0
LINE
8
BLACK
6
CONTINUOUS
10
7.2971925196850389
20
-7.4436527559055117
11
7.2929743307086614
21
-7.4474023228346455
0
LINE
8
BLACK
6
CONTINUOUS
10
7.2929743307086614
20
-7.4474023228346455
11
7.2896934645669287
21
-7.4436527559055117
0
LINE
8
BLACK
6
CONTINUOUS
10
7.2896934645669287
20
-7.4436527559055117
11
7.2939116929133858
21
-7.4399032283464566
0
LINE
8
BLACK
6
CONTINUOUS
10
7.2939116929133858
20
-7.4399032283464566
11
7.2929743307086614
21
-7.4474023228346455
0
LINE
8
BLACK
6
CONTINUOUS
10
7.045591574803149
20
-7.3073863779527555
11
7.0259065354330703
21
-7.3073863779527555
0
LINE
8
BLACK
6
CONTINUOUS
10
7.0259065354330703
20
-7.3383199999999995
11
7.0259065354330703
21
-7.2792648818897634
0
LINE
8
BLACK
6
CONTINUOUS
10
7.0259065354330703
20
-7.2792648818897634
11
7.0540280314960624
21
-7.2792648818897634
0
LINE
8
BLACK
6
CONTINUOUS
10
7.0765251968503939
20
-7.3383199999999995
11
7.0765251968503939
21
-7.2989499212598421
0
LINE
8
BLACK
6
CONTINUOUS
10
7.0765251968503939
20
-7.2792648818897634
11
7.073713070866142
21
-7.2820770472440941
0
LINE
8
BLACK
6
CONTINUOUS
10
7.073713070866142
20
-7.2820770472440941
11
7.0765251968503939
21
-7.2848891732283461
0
LINE
8
BLACK
6
CONTINUOUS
10
7.0765251968503939
20
-7.2848891732283461
11
7.0793373622047246
21
-7.2820770472440941
0
LINE
8
BLACK
6
CONTINUOUS
10
7.0793373622047246
20
-7.2820770472440941
11
7.0765251968503939
21
-7.2792648818897634
0
LINE
8
BLACK
6
CONTINUOUS
10
7.0765251968503939
20
-7.2792648818897634
11
7.0765251968503939
21
-7.2848891732283461
0
LINE
8
BLACK
6
CONTINUOUS
10
7.1130831496062994
20
-7.3383199999999995
11
7.1074588582677167
21
-7.3355078740157476
0
LINE
8
BLACK
6
CONTINUOUS
10
7.1074588582677167
20
-7.3355078740157476
11
7.104646692913386
21
-7.3298835433070861
0
LINE
8
BLACK
6
CONTINUOUS
10
7.104646692913386
20
-7.3298835433070861
11
7.104646692913386
21
-7.2792648818897634
0
LINE
8
BLACK
6
CONTINUOUS
10
7.1580775196850395
20
-7.3355078740157476
11
7.1524532283464568
21
-7.3383199999999995
0
LINE
8
BLACK
6
CONTINUOUS
10
7.1524532283464568
20
-7.3383199999999995
11
7.1412046456692915
21
-7.3383199999999995
0
LINE
8
BLACK
6
CONTINUOUS
10
7.1412046456692915
20
-7.3383199999999995
11
7.1355803149606301
21
-7.3355078740157476
0
LINE
8
BLACK
6
CONTINUOUS
10
7.1355803149606301
20
-7.3355078740157476
11
7.1327681889763781
21
-7.3298835433070861
0
LINE
8
BLACK
6
CONTINUOUS
10
7.1327681889763781
20
-7.3298835433070861
11
7.1327681889763781
21
-7.3073863779527555
0
LINE
8
BLACK
6
CONTINUOUS
10
7.1327681889763781
20
-7.3073863779527555
11
7.1355803149606301
21
-7.3017620866141728
0
LINE
8
BLACK
6
CONTINUOUS
10
7.1355803149606301
20
-7.3017620866141728
11
7.1412046456692915
21
-7.2989499212598421
0
LINE
8
BLACK
6
CONTINUOUS
10
7.1412046456692915
20
-7.2989499212598421
11
7.1524532283464568
21
-7.2989499212598421
0
LINE
8
BLACK
6
CONTINUOUS
10
7.1524532283464568
20
-7.2989499212598421
11
7.1580775196850395
21
-7.3017620866141728
0
LINE
8
BLACK
6
CONTINUOUS
10
7.1580775196850395
20
-7.3017620866141728
11
7.1608896850393702
21
-7.3073863779527555
0
LINE
8
BLACK
6
CONTINUOUS
10
7.1608896850393702
20
-7.3073863779527555
11
7.1608896850393702
21
-7.3130106692913381
0
LINE
8
BLACK
6
CONTINUOUS
10
7.1608896850393702
20
-7.3130106692913381
11
7.1327681889763781
21
-7.3186349606299208
0
LINE
8
BLACK
6
CONTINUOUS
10
7.1861989763779528
20
-7.3326957086614168
11
7.1890111417322835
21
-7.3355078740157476
0
LINE
8
BLACK
6
CONTINUOUS
10
7.1890111417322835
20
-7.3355078740157476
11
7.1861989763779528
21
-7.3383199999999995
0
LINE
8
BLACK
6
CONTINUOUS
10
7.1861989763779528
20
-7.3383199999999995
11
7.1833868503937008
21
-7.3355078740157476
0
LINE
8
BLACK
6
CONTINUOUS
10
7.1833868503937008
20
-7.3355078740157476
11
7.1861989763779528
21
-7.3326957086614168
0
LINE
8
BLACK
6
CONTINUOUS
10
7.1861989763779528
20
-7.3326957086614168
11
7.1861989763779528
21
-7.3383199999999995
0
LINE
8
BLACK
6
CONTINUOUS
10
7.1861989763779528
20
-7.3017620866141728
11
7.1890111417322835
21
-7.3045742125984248
0
LINE
8
BLACK
6
CONTINUOUS
10
7.1890111417322835
20
-7.3045742125984248
11
7.1861989763779528
21
-7.3073863779527555
0
LINE
8
BLACK
6
CONTINUOUS
10
7.1861989763779528
20
-7.3073863779527555
11
7.1833868503937008
21
-7.3045742125984248
0
LINE
8
BLACK
6
CONTINUOUS
10
7.1833868503937008
20
-7.3045742125984248
11
7.1861989763779528
21
-7.3017620866141728
0
LINE
8
BLACK
6
CONTINUOUS
10
7.1861989763779528
20
-7.3017620866141728
11
7.1861989763779528
21
-7.3073863779527555
0
LINE
8
BLACK
6
CONTINUOUS
10
7.2536905511811023
20
-7.2792648818897634
11
7.2677512992125983
21
-7.3383199999999995
0
LINE
8
BLACK
6
CONTINUOUS
10
7.2677512992125983
20
-7.3383199999999995
11
7.2789998818897637
21
-7.2961377952755901
0
LINE
8
BLACK
6
CONTINUOUS
10
7.2789998818897637
20
-7.2961377952755901
11
7.2902485039370077
21
-7.3383199999999995
0
LINE
8
BLACK
6
CONTINUOUS
10
7.2902485039370077
20
-7.3383199999999995
11
7.3043092519685038
21
-7.2792648818897634
0
LINE
8
BLACK
6
CONTINUOUS
10
7.3268064173228344
20
-7.3383199999999995
11
7.3268064173228344
21
-7.2989499212598421
0
LINE
8
BLACK
6
CONTINUOUS
10
7.3268064173228344
20
-7.2792648818897634
11
7.3239942913385825
21
-7.2820770472440941
0
LINE
8
BLACK
6
CONTINUOUS
10
7.3239942913385825
20
-7.2820770472440941
11
7.3268064173228344
21
-7.2848891732283461
0
LINE
8
BLACK
6
CONTINUOUS
10
7.3268064173228344
20
-7.2848891732283461
11
7.3296185826771652
21
-7.2820770472440941
0
LINE
8
BLACK
6
CONTINUOUS
10
7.3296185826771652
20
-7.2820770472440941
11
7.3268064173228344
21
-7.2792648818897634
0
LINE
8
BLACK
6
CONTINUOUS
10
7.3268064173228344
20
-7.2792648818897634
11
7.3268064173228344
21
-7.2848891732283461
0
LINE
8
BLACK
6
CONTINUOUS
10
7.3633643700787399
20
-7.3383199999999995
11
7.3577400787401572
21
-7.3355078740157476
0
LINE
8
BLACK
6
CONTINUOUS
10
7.3577400787401572
20
-7.3355078740157476
11
7.3549279133858265
21
-7.3298835433070861
0
LINE
8
BLACK
6
CONTINUOUS
10
7.3549279133858265
20
-7.3298835433070861
11
7.3549279133858265
21
-7.2792648818897634
0
LINE
8
BLACK
6
CONTINUOUS
10
7.3858615354330706
20
-7.3383199999999995
11
7.3858615354330706
21
-7.2792648818897634
0
LINE
8
BLACK
6
CONTINUOUS
10
7.391485866141732
20
-7.3158228346456688
11
7.40835874015748
21
-7.3383199999999995
0
LINE
8
BLACK
6
CONTINUOUS
10
7.40835874015748
20
-7.2989499212598421
11
7.3858615354330706
21
-7.3214471259842515
0
LINE
8
BLACK
6
CONTINUOUS
10
7.4336680708661413
20
-7.3383199999999995
11
7.4336680708661413
21
-7.2989499212598421
0
LINE
8
BLACK
6
CONTINUOUS
10
7.4336680708661413
20
-7.2792648818897634
11
7.4308559448818894
21
-7.2820770472440941
0
LINE
8
BLACK
6
CONTINUOUS
10
7.4308559448818894
20
-7.2820770472440941
11
7.4336680708661413
21
-7.2848891732283461
0
LINE
8
BLACK
6
CONTINUOUS
10
7.4336680708661413
20
-7.2848891732283461
11
7.4364802362204721
21
-7.2820770472440941
0
LINE
8
BLACK
6
CONTINUOUS
10
7.4364802362204721
20
-7.2820770472440941
11
7.4336680708661413
21
-7.2792648818897634
0
LINE
8
BLACK
6
CONTINUOUS
10
7.4336680708661413
20
-7.2792648818897634
11
7.4336680708661413
21
-7.2848891732283461
0
LINE
8
BLACK
6
CONTINUOUS
10
7.4617895669291334
20
-7.2989499212598421
11
7.4617895669291334
21
-7.3383199999999995
0
LINE
8
BLACK
6
CONTINUOUS
10
7.4617895669291334
20
-7.3045742125984248
11
7.4646017322834641
21
-7.3017620866141728
0
LINE
8
BLACK
6
CONTINUOUS
10
7.4646017322834641
20
-7.3017620866141728
11
7.4702260236220468
21
-7.2989499212598421
0
LINE
8
BLACK
6
CONTINUOUS
10
7.4702260236220468
20
-7.2989499212598421
11
7.4786624803149602
21
-7.2989499212598421
0
LINE
8
BLACK
6
CONTINUOUS
10
7.4786624803149602
20
-7.2989499212598421
11
7.4842867716535428
21
-7.3017620866141728
0
LINE
8
BLACK
6
CONTINUOUS
10
7.4842867716535428
20
-7.3017620866141728
11
7.4870989370078735
21
-7.3073863779527555
0
LINE
8
BLACK
6
CONTINUOUS
10
7.4870989370078735
20
-7.3073863779527555
11
7.4870989370078735
21
-7.3383199999999995
0
LINE
8
BLACK
6
CONTINUOUS
10
7.5124082677165349
20
-7.3355078740157476
11
7.5180325590551176
21
-7.3383199999999995
0
LINE
8
BLACK
6
CONTINUOUS
10
7.5180325590551176
20
-7.3383199999999995
11
7.5292811417322829
21
-7.3383199999999995
0
LINE
8
BLACK
6
CONTINUOUS
10
7.5292811417322829
20
-7.3383199999999995
11
7.5349054330708656
21
-7.3355078740157476
0
LINE
8
BLACK
6
CONTINUOUS
10
7.5349054330708656
20
-7.3355078740157476
11
7.5377175984251963
21
-7.3298835433070861
0
LINE
8
BLACK
6
CONTINUOUS
10
7.5377175984251963
20
-7.3298835433070861
11
7.5377175984251963
21
-7.3270714173228342
0
LINE
8
BLACK
6
CONTINUOUS
10
7.5377175984251963
20
-7.3270714173228342
11
7.5349054330708656
21
-7.3214471259842515
0
LINE
8
BLACK
6
CONTINUOUS
10
7.5349054330708656
20
-7.3214471259842515
11
7.5292811417322829
21
-7.3186349606299208
0
LINE
8
BLACK
6
CONTINUOUS
10
7.5292811417322829
20
-7.3186349606299208
11
7.5208447244094483
21
-7.3186349606299208
0
LINE
8
BLACK
6
CONTINUOUS
10
7.5208447244094483
20
-7.3186349606299208
11
7.5152203937007869
21
-7.3158228346456688
0
LINE
8
BLACK
6
CONTINUOUS
10
7.5152203937007869
20
-7.3158228346456688
11
7.5124082677165349
21
-7.3101985039370074
0
LINE
8
BLACK
6
CONTINUOUS
10
7.5124082677165349
20
-7.3101985039370074
11
7.5124082677165349
21
-7.3073863779527555
0
LINE
8
BLACK
6
CONTINUOUS
10
7.5124082677165349
20
-7.3073863779527555
11
7.5152203937007869
21
-7.3017620866141728
0
LINE
8
BLACK
6
CONTINUOUS
10
7.5152203937007869
20
-7.3017620866141728
11
7.5208447244094483
21
-7.2989499212598421
0
LINE
8
BLACK
6
CONTINUOUS
10
7.5208447244094483
20
-7.2989499212598421
11
7.5292811417322829
21
-7.2989499212598421
0
LINE
8
BLACK
6
CONTINUOUS
10
7.5292811417322829
20
-7.2989499212598421
11
7.5349054330708656
21
-7.3017620866141728
0
LINE
8
BLACK
6
CONTINUOUS
10
7.5714633858267719
20
-7.3383199999999995
11
7.5658390944881884
21
-7.3355078740157476
0
LINE
8
BLACK
6
CONTINUOUS
10
7.5658390944881884
20
-7.3355078740157476
11
7.5630269291338577
21
-7.3326957086614168
0
LINE
8
BLACK
6
CONTINUOUS
10
7.5630269291338577
20
-7.3326957086614168
11
7.5602148031496057
21
-7.3270714173228342
0
LINE
8
BLACK
6
CONTINUOUS
10
7.5602148031496057
20
-7.3270714173228342
11
7.5602148031496057
21
-7.3101985039370074
0
LINE
8
BLACK
6
CONTINUOUS
10
7.5602148031496057
20
-7.3101985039370074
11
7.5630269291338577
21
-7.3045742125984248
0
LINE
8
BLACK
6
CONTINUOUS
10
7.5630269291338577
20
-7.3045742125984248
11
7.5658390944881884
21
-7.3017620866141728
0
LINE
8
BLACK
6
CONTINUOUS
10
7.5658390944881884
20
-7.3017620866141728
11
7.5714633858267719
21
-7.2989499212598421
0
LINE
8
BLACK
6
CONTINUOUS
10
7.5714633858267719
20
-7.2989499212598421
11
7.5798998425196853
21
-7.2989499212598421
0
LINE
8
BLACK
6
CONTINUOUS
10
7.5798998425196853
20
-7.2989499212598421
11
7.585524133858268
21
-7.3017620866141728
0
LINE
8
BLACK
6
CONTINUOUS
10
7.585524133858268
20
-7.3017620866141728
11
7.5883362992125987
21
-7.3045742125984248
0
LINE
8
BLACK
6
CONTINUOUS
10
7.5883362992125987
20
-7.3045742125984248
11
7.5911484251968506
21
-7.3101985039370074
0
LINE
8
BLACK
6
CONTINUOUS
10
7.5911484251968506
20
-7.3101985039370074
11
7.5911484251968506
21
-7.3270714173228342
0
LINE
8
BLACK
6
CONTINUOUS
10
7.5911484251968506
20
-7.3270714173228342
11
7.5883362992125987
21
-7.3326957086614168
0
LINE
8
BLACK
6
CONTINUOUS
10
7.5883362992125987
20
-7.3326957086614168
11
7.585524133858268
21
-7.3355078740157476
0
LINE
8
BLACK
6
CONTINUOUS
10
7.585524133858268
20
-7.3355078740157476
11
7.5798998425196853
21
-7.3383199999999995
0
LINE
8
BLACK
6
CONTINUOUS
10
7.5798998425196853
20
-7.3383199999999995
11
7.5714633858267719
21
-7.3383199999999995
0
LINE
8
BLACK
6
CONTINUOUS
10
7.616457755905512
20
-7.2989499212598421
11
7.616457755905512
21
-7.3383199999999995
0
LINE
8
BLACK
6
CONTINUOUS
10
7.616457755905512
20
-7.3045742125984248
11
7.6192699212598427
21
-7.3017620866141728
0
LINE
8
BLACK
6
CONTINUOUS
10
7.6192699212598427
20
-7.3017620866141728
11
7.6248942125984254
21
-7.2989499212598421
0
LINE
8
BLACK
6
CONTINUOUS
10
7.6248942125984254
20
-7.2989499212598421
11
7.6333306692913387
21
-7.2989499212598421
0
LINE
8
BLACK
6
CONTINUOUS
10
7.6333306692913387
20
-7.2989499212598421
11
7.6389549606299214
21
-7.3017620866141728
0
LINE
8
BLACK
6
CONTINUOUS
10
7.6389549606299214
20
-7.3017620866141728
11
7.6417671259842521
21
-7.3073863779527555
0
LINE
8
BLACK
6
CONTINUOUS
10
7.6417671259842521
20
-7.3073863779527555
11
7.6417671259842521
21
-7.3383199999999995
0
LINE
8
BLACK
6
CONTINUOUS
10
7.7148829527559055
20
-7.3383199999999995
11
7.7148829527559055
21
-7.2792648818897634
0
LINE
8
BLACK
6
CONTINUOUS
10
7.7148829527559055
20
-7.2792648818897634
11
7.7373801574803149
21
-7.2792648818897634
0
LINE
8
BLACK
6
CONTINUOUS
10
7.7373801574803149
20
-7.2792648818897634
11
7.7430044488188976
21
-7.2820770472440941
0
LINE
8
BLACK
6
CONTINUOUS
10
7.7430044488188976
20
-7.2820770472440941
11
7.7458166141732283
21
-7.2848891732283461
0
LINE
8
BLACK
6
CONTINUOUS
10
7.7458166141732283
20
-7.2848891732283461
11
7.7486287401574803
21
-7.2905134645669287
0
LINE
8
BLACK
6
CONTINUOUS
10
7.7486287401574803
20
-7.2905134645669287
11
7.7486287401574803
21
-7.2989499212598421
0
LINE
8
BLACK
6
CONTINUOUS
10
7.7486287401574803
20
-7.2989499212598421
11
7.7458166141732283
21
-7.3045742125984248
0
LINE
8
BLACK
6
CONTINUOUS
10
7.7458166141732283
20
-7.3045742125984248
11
7.7430044488188976
21
-7.3073863779527555
0
LINE
8
BLACK
6
CONTINUOUS
10
7.7430044488188976
20
-7.3073863779527555
11
7.7373801574803149
21
-7.3101985039370074
0
LINE
8
BLACK
6
CONTINUOUS
10
7.7373801574803149
20
-7.3101985039370074
11
7.7148829527559055
21
-7.3101985039370074
0
LINE
8
BLACK
6
CONTINUOUS
10
7.7739380708661416
20
-7.3383199999999995
11
7.7739380708661416
21
-7.2792648818897634
0
LINE
8
BLACK
6
CONTINUOUS
10
7.7739380708661416
20
-7.2792648818897634
11
7.7879988188976377
21
-7.2792648818897634
0
LINE
8
BLACK
6
CONTINUOUS
10
7.7879988188976377
20
-7.2792648818897634
11
7.7964352755905511
21
-7.2820770472440941
0
LINE
8
BLACK
6
CONTINUOUS
10
7.7964352755905511
20
-7.2820770472440941
11
7.8020595669291337
21
-7.2877013385826768
0
LINE
8
BLACK
6
CONTINUOUS
10
7.8020595669291337
20
-7.2877013385826768
11
7.8048717322834644
21
-7.2933256299212594
0
LINE
8
BLACK
6
CONTINUOUS
10
7.8048717322834644
20
-7.2933256299212594
11
7.8076838582677164
21
-7.3045742125984248
0
LINE
8
BLACK
6
CONTINUOUS
10
7.8076838582677164
20
-7.3045742125984248
11
7.8076838582677164
21
-7.3130106692913381
0
LINE
8
BLACK
6
CONTINUOUS
10
7.8076838582677164
20
-7.3130106692913381
11
7.8048717322834644
21
-7.3242592519685035
0
LINE
8
BLACK
6
CONTINUOUS
10
7.8048717322834644
20
-7.3242592519685035
11
7.8020595669291337
21
-7.3298835433070861
0
LINE
8
BLACK
6
CONTINUOUS
10
7.8020595669291337
20
-7.3298835433070861
11
7.7964352755905511
21
-7.3355078740157476
0
LINE
8
BLACK
6
CONTINUOUS
10
7.7964352755905511
20
-7.3355078740157476
11
7.7879988188976377
21
-7.3383199999999995
0
LINE
8
BLACK
6
CONTINUOUS
10
7.7879988188976377
20
-7.3383199999999995
11
7.7739380708661416
21
-7.3383199999999995
0
LINE
8
BLACK
6
CONTINUOUS
10
7.8329931889763778
20
-7.3326957086614168
11
7.8358053543307085
21
-7.3355078740157476
0
LINE
8
BLACK
6
CONTINUOUS
10
7.8358053543307085
20
-7.3355078740157476
11
7.8329931889763778
21
-7.3383199999999995
0
LINE
8
BLACK
6
CONTINUOUS
10
7.8329931889763778
20
-7.3383199999999995
11
7.8301810629921258
21
-7.3355078740157476
0
LINE
8
BLACK
6
CONTINUOUS
10
7.8301810629921258
20
-7.3355078740157476
11
7.8329931889763778
21
-7.3326957086614168
0
LINE
8
BLACK
6
CONTINUOUS
10
7.8329931889763778
20
-7.3326957086614168
11
7.8329931889763778
21
-7.3383199999999995
0
LINE
8
BLACK
6
CONTINUOUS
10
7.8611146850393698
20
-7.3383199999999995
11
7.8611146850393698
21
-7.2792648818897634
0
LINE
8
BLACK
6
CONTINUOUS
10
7.8667390157480312
20
-7.3158228346456688
11
7.8836118897637792
21
-7.3383199999999995
0
LINE
8
BLACK
6
CONTINUOUS
10
7.8836118897637792
20
-7.2989499212598421
11
7.8611146850393698
21
-7.3214471259842515
0
LINE
8
BLACK
6
CONTINUOUS
10
7.9089212204724406
20
-7.3383199999999995
11
7.9089212204724406
21
-7.2989499212598421
0
LINE
8
BLACK
6
CONTINUOUS
10
7.9089212204724406
20
-7.2792648818897634
11
7.9061090944881887
21
-7.2820770472440941
0
LINE
8
BLACK
6
CONTINUOUS
10
7.9061090944881887
20
-7.2820770472440941
11
7.9089212204724406
21
-7.2848891732283461
0
LINE
8
BLACK
6
CONTINUOUS
10
7.9089212204724406
20
-7.2848891732283461
11
7.9117333858267713
21
-7.2820770472440941
0
LINE
8
BLACK
6
CONTINUOUS
10
7.9117333858267713
20
-7.2820770472440941
11
7.9089212204724406
21
-7.2792648818897634
0
LINE
8
BLACK
6
CONTINUOUS
10
7.9089212204724406
20
-7.2792648818897634
11
7.9089212204724406
21
-7.2848891732283461
0
LINE
8
BLACK
6
CONTINUOUS
10
7.9623520866141728
20
-7.3355078740157476
11
7.9567277559055114
21
-7.3383199999999995
0
LINE
8
BLACK
6
CONTINUOUS
10
7.9567277559055114
20
-7.3383199999999995
11
7.9454791732283461
21
-7.3383199999999995
0
LINE
8
BLACK
6
CONTINUOUS
10
7.9454791732283461
20
-7.3383199999999995
11
7.9398548818897634
21
-7.3355078740157476
0
LINE
8
BLACK
6
CONTINUOUS
10
7.9398548818897634
20
-7.3355078740157476
11
7.9370427165354327
21
-7.3326957086614168
0
LINE
8
BLACK
6
CONTINUOUS
10
7.9370427165354327
20
-7.3326957086614168
11
7.9342305905511807
21
-7.3270714173228342
0
LINE
8
BLACK
6
CONTINUOUS
10
7.9342305905511807
20
-7.3270714173228342
11
7.9342305905511807
21
-7.3101985039370074
0
LINE
8
BLACK
6
CONTINUOUS
10
7.9342305905511807
20
-7.3101985039370074
11
7.9370427165354327
21
-7.3045742125984248
0
LINE
8
BLACK
6
CONTINUOUS
10
7.9370427165354327
20
-7.3045742125984248
11
7.9398548818897634
21
-7.3017620866141728
0
LINE
8
BLACK
6
CONTINUOUS
10
7.9398548818897634
20
-7.3017620866141728
11
7.9454791732283461
21
-7.2989499212598421
0
LINE
8
BLACK
6
CONTINUOUS
10
7.9454791732283461
20
-7.2989499212598421
11
7.9567277559055114
21
-7.2989499212598421
0
LINE
8
BLACK
6
CONTINUOUS
10
7.9567277559055114
20
-7.2989499212598421
11
7.9623520866141728
21
-7.3017620866141728
0
LINE
8
BLACK
6
CONTINUOUS
10
8.0129707480314956
20
-7.3383199999999995
11
8.0129707480314956
21
-7.3073863779527555
0
LINE
8
BLACK
6
CONTINUOUS
10
8.0129707480314956
20
-7.3073863779527555
11
8.0101585826771657
21
-7.3017620866141728
0
LINE
8
BLACK
6
CONTINUOUS
10
8.0101585826771657
20
-7.3017620866141728
11
8.0045342913385831
21
-7.2989499212598421
0
LINE
8
BLACK
6
CONTINUOUS
10
8.0045342913385831
20
-7.2989499212598421
11
7.9932857086614169
21
-7.2989499212598421
0
LINE
8
BLACK
6
CONTINUOUS
10
7.9932857086614169
20
-7.2989499212598421
11
7.9876613779527554
21
-7.3017620866141728
0
LINE
8
BLACK
6
CONTINUOUS
10
8.0129707480314956
20
-7.3355078740157476
11
8.0073464173228341
21
-7.3383199999999995
0
LINE
8
BLACK
6
CONTINUOUS
10
8.0073464173228341
20
-7.3383199999999995
11
7.9932857086614169
21
-7.3383199999999995
0
LINE
8
BLACK
6
CONTINUOUS
10
7.9932857086614169
20
-7.3383199999999995
11
7.9876613779527554
21
-7.3355078740157476
0
LINE
8
BLACK
6
CONTINUOUS
10
7.9876613779527554
20
-7.3355078740157476
11
7.9848492519685035
21
-7.3298835433070861
0
LINE
8
BLACK
6
CONTINUOUS
10
7.9848492519685035
20
-7.3298835433070861
11
7.9848492519685035
21
-7.3242592519685035
0
LINE
8
BLACK
6
CONTINUOUS
10
7.9848492519685035
20
-7.3242592519685035
11
7.9876613779527554
21
-7.3186349606299208
0
LINE
8
BLACK
6
CONTINUOUS
10
7.9876613779527554
20
-7.3186349606299208
11
7.9932857086614169
21
-7.3158228346456688
0
LINE
8
BLACK
6
CONTINUOUS
10
7.9932857086614169
20
-7.3158228346456688
11
8.0073464173228341
21
-7.3158228346456688
0
LINE
8
BLACK
6
CONTINUOUS
10
8.0073464173228341
20
-7.3158228346456688
11
8.0129707480314956
21
-7.3130106692913381
0
LINE
8
BLACK
6
CONTINUOUS
10
8.0664015748031499
20
-7.3383199999999995
11
8.0664015748031499
21
-7.2792648818897634
0
LINE
8
BLACK
6
CONTINUOUS
10
8.0664015748031499
20
-7.3355078740157476
11
8.0607772440944885
21
-7.3383199999999995
0
LINE
8
BLACK
6
CONTINUOUS
10
8.0607772440944885
20
-7.3383199999999995
11
8.0495286614173231
21
-7.3383199999999995
0
LINE
8
BLACK
6
CONTINUOUS
10
8.0495286614173231
20
-7.3383199999999995
11
8.0439043700787405
21
-7.3355078740157476
0
LINE
8
BLACK
6
CONTINUOUS
10
8.0439043700787405
20
-7.3355078740157476
11
8.0410922047244089
21
-7.3326957086614168
0
LINE
8
BLACK
6
CONTINUOUS
10
8.0410922047244089
20
-7.3326957086614168
11
8.0382800787401578
21
-7.3270714173228342
0
LINE
8
BLACK
6
CONTINUOUS
10
8.0382800787401578
20
-7.3270714173228342
11
8.0382800787401578
21
-7.3101985039370074
0
LINE
8
BLACK
6
CONTINUOUS
10
8.0382800787401578
20
-7.3101985039370074
11
8.0410922047244089
21
-7.3045742125984248
0
LINE
8
BLACK
6
CONTINUOUS
10
8.0410922047244089
20
-7.3045742125984248
11
8.0439043700787405
21
-7.3017620866141728
0
LINE
8
BLACK
6
CONTINUOUS
10
8.0439043700787405
20
-7.3017620866141728
11
8.0495286614173231
21
-7.2989499212598421
0
LINE
8
BLACK
6
CONTINUOUS
10
8.0495286614173231
20
-7.2989499212598421
11
8.0607772440944885
21
-7.2989499212598421
0
LINE
8
BLACK
6
CONTINUOUS
10
8.0607772440944885
20
-7.2989499212598421
11
8.0664015748031499
21
-7.3017620866141728
0
LINE
8
BLACK
6
CONTINUOUS
10
8.0804623228346451
20
-7.3439442913385822
11
8.1254566929133851
21
-7.3439442913385822
0
LINE
8
BLACK
6
CONTINUOUS
10
8.1395174015748033
20
-7.2989499212598421
11
8.1395174015748033
21
-7.3580050393700782
0
LINE
8
BLACK
6
CONTINUOUS
10
8.1395174015748033
20
-7.3017620866141728
11
8.1451417322834647
21
-7.2989499212598421
0
LINE
8
BLACK
6
CONTINUOUS
10
8.1451417322834647
20
-7.2989499212598421
11
8.1563903149606301
21
-7.2989499212598421
0
LINE
8
BLACK
6
CONTINUOUS
10
8.1563903149606301
20
-7.2989499212598421
11
8.1620146062992127
21
-7.3017620866141728
0
LINE
8
BLACK
6
CONTINUOUS
10
8.1620146062992127
20
-7.3017620866141728
11
8.1648267716535425
21
-7.3045742125984248
0
LINE
8
BLACK
6
CONTINUOUS
10
8.1648267716535425
20
-7.3045742125984248
11
8.1676388976377954
21
-7.3101985039370074
0
LINE
8
BLACK
6
CONTINUOUS
10
8.1676388976377954
20
-7.3101985039370074
11
8.1676388976377954
21
-7.3270714173228342
0
LINE
8
BLACK
6
CONTINUOUS
10
8.1676388976377954
20
-7.3270714173228342
11
8.1648267716535425
21
-7.3326957086614168
0
LINE
8
BLACK
6
CONTINUOUS
10
8.1648267716535425
20
-7.3326957086614168
11
8.1620146062992127
21
-7.3355078740157476
0
LINE
8
BLACK
6
CONTINUOUS
10
8.1620146062992127
20
-7.3355078740157476
11
8.1563903149606301
21
-7.3383199999999995
0
LINE
8
BLACK
6
CONTINUOUS
10
8.1563903149606301
20
-7.3383199999999995
11
8.1451417322834647
21
-7.3383199999999995
0
LINE
8
BLACK
6
CONTINUOUS
10
8.1451417322834647
20
-7.3383199999999995
11
8.1395174015748033
21
-7.3355078740157476
0
LINE
8
BLACK
6
CONTINUOUS
10
8.2182575984251969
20
-7.3355078740157476
11
8.2126332677165355
21
-7.3383199999999995
0
LINE
8
BLACK
6
CONTINUOUS
10
8.2126332677165355
20
-7.3383199999999995
11
8.2013846850393701
21
-7.3383199999999995
0
LINE
8
BLACK
6
CONTINUOUS
10
8.2013846850393701
20
-7.3383199999999995
11
8.1957603937007875
21
-7.3355078740157476
0
LINE
8
BLACK
6
CONTINUOUS
10
8.1957603937007875
20
-7.3355078740157476
11
8.1929482283464559
21
-7.3326957086614168
0
LINE
8
BLACK
6
CONTINUOUS
10
8.1929482283464559
20
-7.3326957086614168
11
8.1901361023622048
21
-7.3270714173228342
0
LINE
8
BLACK
6
CONTINUOUS
10
8.1901361023622048
20
-7.3270714173228342
11
8.1901361023622048
21
-7.3101985039370074
0
LINE
8
BLACK
6
CONTINUOUS
10
8.1901361023622048
20
-7.3101985039370074
11
8.1929482283464559
21
-7.3045742125984248
0
LINE
8
BLACK
6
CONTINUOUS
10
8.1929482283464559
20
-7.3045742125984248
11
8.1957603937007875
21
-7.3017620866141728
0
LINE
8
BLACK
6
CONTINUOUS
10
8.1957603937007875
20
-7.3017620866141728
11
8.2013846850393701
21
-7.2989499212598421
0
LINE
8
BLACK
6
CONTINUOUS
10
8.2013846850393701
20
-7.2989499212598421
11
8.2126332677165355
21
-7.2989499212598421
0
LINE
8
BLACK
6
CONTINUOUS
10
8.2126332677165355
20
-7.2989499212598421
11
8.2182575984251969
21
-7.3017620866141728
0
LINE
8
BLACK
6
CONTINUOUS
10
8.2435668897637786
20
-7.3383199999999995
11
8.2435668897637786
21
-7.2792648818897634
0
LINE
8
BLACK
6
CONTINUOUS
10
8.2435668897637786
20
-7.3017620866141728
11
8.24919122047244
21
-7.2989499212598421
0
LINE
8
BLACK
6
CONTINUOUS
10
8.24919122047244
20
-7.2989499212598421
11
8.2604398031496054
21
-7.2989499212598421
0
LINE
8
BLACK
6
CONTINUOUS
10
8.2604398031496054
20
-7.2989499212598421
11
8.266064094488188
21
-7.3017620866141728
0
LINE
8
BLACK
6
CONTINUOUS
10
8.266064094488188
20
-7.3017620866141728
11
8.2688762598425196
21
-7.3045742125984248
0
LINE
8
BLACK
6
CONTINUOUS
10
8.2688762598425196
20
-7.3045742125984248
11
8.2716883858267707
21
-7.3101985039370074
0
LINE
8
BLACK
6
CONTINUOUS
10
8.2716883858267707
20
-7.3101985039370074
11
8.2716883858267707
21
-7.3270714173228342
0
LINE
8
BLACK
6
CONTINUOUS
10
8.2716883858267707
20
-7.3270714173228342
11
8.2688762598425196
21
-7.3326957086614168
0
LINE
8
BLACK
6
CONTINUOUS
10
8.2688762598425196
20
-7.3326957086614168
11
8.266064094488188
21
-7.3355078740157476
0
LINE
8
BLACK
6
CONTINUOUS
10
8.266064094488188
20
-7.3355078740157476
11
8.2604398031496054
21
-7.3383199999999995
0
LINE
8
BLACK
6
CONTINUOUS
10
8.2604398031496054
20
-7.3383199999999995
11
8.24919122047244
21
-7.3383199999999995
0
LINE
8
BLACK
6
CONTINUOUS
10
8.24919122047244
20
-7.3383199999999995
11
8.2435668897637786
21
-7.3355078740157476
0
LINE
8
BLACK
6
CONTINUOUS
10
6.9685905511811024
20
-7.1459527559055118
11
11.2205590551181107
21
-7.1459527559055118
0
LINE
8
BLACK
6
CONTINUOUS
10
7.0230944094488184
20
-7.2292086614173225
11
7.0315308661417317
21
-7.2320207874015745
0
LINE
8
BLACK
6
CONTINUOUS
10
7.0315308661417317
20
-7.2320207874015745
11
7.045591574803149
21
-7.2320207874015745
0
LINE
8
BLACK
6
CONTINUOUS
10
7.045591574803149
20
-7.2320207874015745
11
7.0512159055118104
21
-7.2292086614173225
0
LINE
8
BLACK
6
CONTINUOUS
10
7.0512159055118104
20
-7.2292086614173225
11
7.0540280314960624
21
-7.2263964960629918
0
LINE
8
BLACK
6
CONTINUOUS
10
7.0540280314960624
20
-7.2263964960629918
11
7.0568401968503931
21
-7.2207722047244092
0
LINE
8
BLACK
6
CONTINUOUS
10
7.0568401968503931
20
-7.2207722047244092
11
7.0568401968503931
21
-7.2151479133858265
0
LINE
8
BLACK
6
CONTINUOUS
10
7.0568401968503931
20
-7.2151479133858265
11
7.0540280314960624
21
-7.2095236220472438
0
LINE
8
BLACK
6
CONTINUOUS
10
7.0540280314960624
20
-7.2095236220472438
11
7.0512159055118104
21
-7.2067114566929131
0
LINE
8
BLACK
6
CONTINUOUS
10
7.0512159055118104
20
-7.2067114566929131
11
7.045591574803149
21
-7.2038992913385824
0
LINE
8
BLACK
6
CONTINUOUS
10
7.045591574803149
20
-7.2038992913385824
11
7.0343429921259837
21
-7.2010871653543305
0
LINE
8
BLACK
6
CONTINUOUS
10
7.0343429921259837
20
-7.2010871653543305
11
7.028718700787401
21
-7.1982749999999998
0
LINE
8
BLACK
6
CONTINUOUS
10
7.028718700787401
20
-7.1982749999999998
11
7.0259065354330703
21
-7.1954628740157478
0
LINE
8
BLACK
6
CONTINUOUS
10
7.0259065354330703
20
-7.1954628740157478
11
7.0230944094488184
21
-7.1898385826771651
0
LINE
8
BLACK
6
CONTINUOUS
10
7.0230944094488184
20
-7.1898385826771651
11
7.0230944094488184
21
-7.1842142519685037
0
LINE
8
BLACK
6
CONTINUOUS
10
7.0230944094488184
20
-7.1842142519685037
11
7.0259065354330703
21
-7.1785899606299211
0
LINE
8
BLACK
6
CONTINUOUS
10
7.0259065354330703
20
-7.1785899606299211
11
7.028718700787401
21
-7.1757778346456691
0
LINE
8
BLACK
6
CONTINUOUS
10
7.028718700787401
20
-7.1757778346456691
11
7.0343429921259837
21
-7.1729656692913384
0
LINE
8
BLACK
6
CONTINUOUS
10
7.0343429921259837
20
-7.1729656692913384
11
7.0484037401574797
21
-7.1729656692913384
0
LINE
8
BLACK
6
CONTINUOUS
10
7.0484037401574797
20
-7.1729656692913384
11
7.0568401968503931
21
-7.1757778346456691
0
LINE
8
BLACK
6
CONTINUOUS
10
7.0821494881889766
20
-7.2320207874015745
11
7.0821494881889766
21
-7.1729656692913384
0
LINE
8
BLACK
6
CONTINUOUS
10
7.1074588582677167
20
-7.2320207874015745
11
7.1074588582677167
21
-7.2010871653543305
0
LINE
8
BLACK
6
CONTINUOUS
10
7.1074588582677167
20
-7.2010871653543305
11
7.104646692913386
21
-7.1954628740157478
0
LINE
8
BLACK
6
CONTINUOUS
10
7.104646692913386
20
-7.1954628740157478
11
7.0990224015748034
21
-7.1926507086614171
0
LINE
8
BLACK
6
CONTINUOUS
10
7.0990224015748034
20
-7.1926507086614171
11
7.09058594488189
21
-7.1926507086614171
0
LINE
8
BLACK
6
CONTINUOUS
10
7.09058594488189
20
-7.1926507086614171
11
7.0849616535433073
21
-7.1954628740157478
0
LINE
8
BLACK
6
CONTINUOUS
10
7.0849616535433073
20
-7.1954628740157478
11
7.0821494881889766
21
-7.1982749999999998
0
LINE
8
BLACK
6
CONTINUOUS
10
7.1580775196850395
20
-7.2292086614173225
11
7.1524532283464568
21
-7.2320207874015745
0
LINE
8
BLACK
6
CONTINUOUS
10
7.1524532283464568
20
-7.2320207874015745
11
7.1412046456692915
21
-7.2320207874015745
0
LINE
8
BLACK
6
CONTINUOUS
10
7.1412046456692915
20
-7.2320207874015745
11
7.1355803149606301
21
-7.2292086614173225
0
LINE
8
BLACK
6
CONTINUOUS
10
7.1355803149606301
20
-7.2292086614173225
11
7.1327681889763781
21
-7.2235843307086611
0
LINE
8
BLACK
6
CONTINUOUS
10
7.1327681889763781
20
-7.2235843307086611
11
7.1327681889763781
21
-7.2010871653543305
0
LINE
8
BLACK
6
CONTINUOUS
10
7.1327681889763781
20
-7.2010871653543305
11
7.1355803149606301
21
-7.1954628740157478
0
LINE
8
BLACK
6
CONTINUOUS
10
7.1355803149606301
20
-7.1954628740157478
11
7.1412046456692915
21
-7.1926507086614171
0
LINE
8
BLACK
6
CONTINUOUS
10
7.1412046456692915
20
-7.1926507086614171
11
7.1524532283464568
21
-7.1926507086614171
0
LINE
8
BLACK
6
CONTINUOUS
10
7.1524532283464568
20
-7.1926507086614171
11
7.1580775196850395
21
-7.1954628740157478
0
LINE
8
BLACK
6
CONTINUOUS
10
7.1580775196850395
20
-7.1954628740157478
11
7.1608896850393702
21
-7.2010871653543305
0
LINE
8
BLACK
6
CONTINUOUS
10
7.1608896850393702
20
-7.2010871653543305
11
7.1608896850393702
21
-7.2067114566929131
0
LINE
8
BLACK
6
CONTINUOUS
10
7.1608896850393702
20
-7.2067114566929131
11
7.1327681889763781
21
-7.2123357480314958
0
LINE
8
BLACK
6
CONTINUOUS
10
7.2086961811023622
20
-7.2292086614173225
11
7.2030718897637795
21
-7.2320207874015745
0
LINE
8
BLACK
6
CONTINUOUS
10
7.2030718897637795
20
-7.2320207874015745
11
7.1918233070866142
21
-7.2320207874015745
0
LINE
8
BLACK
6
CONTINUOUS
10
7.1918233070866142
20
-7.2320207874015745
11
7.1861989763779528
21
-7.2292086614173225
0
LINE
8
BLACK
6
CONTINUOUS
10
7.1861989763779528
20
-7.2292086614173225
11
7.1833868503937008
21
-7.2235843307086611
0
LINE
8
BLACK
6
CONTINUOUS
10
7.1833868503937008
20
-7.2235843307086611
11
7.1833868503937008
21
-7.2010871653543305
0
LINE
8
BLACK
6
CONTINUOUS
10
7.1833868503937008
20
-7.2010871653543305
11
7.1861989763779528
21
-7.1954628740157478
0
LINE
8
BLACK
6
CONTINUOUS
10
7.1861989763779528
20
-7.1954628740157478
11
7.1918233070866142
21
-7.1926507086614171
0
LINE
8
BLACK
6
CONTINUOUS
10
7.1918233070866142
20
-7.1926507086614171
11
7.2030718897637795
21
-7.1926507086614171
0
LINE
8
BLACK
6
CONTINUOUS
10
7.2030718897637795
20
-7.1926507086614171
11
7.2086961811023622
21
-7.1954628740157478
0
LINE
8
BLACK
6
CONTINUOUS
10
7.2086961811023622
20
-7.1954628740157478
11
7.2115083464566929
21
-7.2010871653543305
0
LINE
8
BLACK
6
CONTINUOUS
10
7.2115083464566929
20
-7.2010871653543305
11
7.2115083464566929
21
-7.2067114566929131
0
LINE
8
BLACK
6
CONTINUOUS
10
7.2115083464566929
20
-7.2067114566929131
11
7.1833868503937008
21
-7.2123357480314958
0
LINE
8
BLACK
6
CONTINUOUS
10
7.2283812204724409
20
-7.1926507086614171
11
7.2508783858267716
21
-7.1926507086614171
0
LINE
8
BLACK
6
CONTINUOUS
10
7.2368176377952755
20
-7.1729656692913384
11
7.2368176377952755
21
-7.2235843307086611
0
LINE
8
BLACK
6
CONTINUOUS
10
7.2368176377952755
20
-7.2235843307086611
11
7.2396298031496062
21
-7.2292086614173225
0
LINE
8
BLACK
6
CONTINUOUS
10
7.2396298031496062
20
-7.2292086614173225
11
7.2452540944881889
21
-7.2320207874015745
0
LINE
8
BLACK
6
CONTINUOUS
10
7.2452540944881889
20
-7.2320207874015745
11
7.2508783858267716
21
-7.2320207874015745
0
LINE
8
BLACK
6
CONTINUOUS
10
7.2705634251968503
20
-7.2263964960629918
11
7.273375590551181
21
-7.2292086614173225
0
LINE
8
BLACK
6
CONTINUOUS
10
7.273375590551181
20
-7.2292086614173225
11
7.2705634251968503
21
-7.2320207874015745
0
LINE
8
BLACK
6
CONTINUOUS
10
7.2705634251968503
20
-7.2320207874015745
11
7.2677512992125983
21
-7.2292086614173225
0
LINE
8
BLACK
6
CONTINUOUS
10
7.2677512992125983
20
-7.2292086614173225
11
7.2705634251968503
21
-7.2263964960629918
0
LINE
8
BLACK
6
CONTINUOUS
10
7.2705634251968503
20
-7.2263964960629918
11
7.2705634251968503
21
-7.2320207874015745
0
LINE
8
BLACK
6
CONTINUOUS
10
7.2705634251968503
20
-7.1954628740157478
11
7.273375590551181
21
-7.1982749999999998
0
LINE
8
BLACK
6
CONTINUOUS
10
7.273375590551181
20
-7.1982749999999998
11
7.2705634251968503
21
-7.2010871653543305
0
LINE
8
BLACK
6
CONTINUOUS
10
7.2705634251968503
20
-7.2010871653543305
11
7.2677512992125983
21
-7.1982749999999998
0
LINE
8
BLACK
6
CONTINUOUS
10
7.2677512992125983
20
-7.1982749999999998
11
7.2705634251968503
21
-7.1954628740157478
0
LINE
8
BLACK
6
CONTINUOUS
10
7.2705634251968503
20
-7.1954628740157478
11
7.2705634251968503
21
-7.2010871653543305
0
LINE
8
BLACK
6
CONTINUOUS
10
7.7559921259842515
20
-7.5396535433070868
11
7.7559921259842515
21
-7.657763779527559
0
LINE
8
BLACK
6
CONTINUOUS
10
10.2756771653543311
20
-7.5396535433070868
11
10.2756771653543311
21
-7.79555905511811
0
LINE
8
BLACK
6
CONTINUOUS
10
7.0843031889763779
20
-2.8487
11
7.0996299999999994
21
-2.8487
0
LINE
8
BLACK
6
CONTINUOUS
10
7.0996299999999994
20
-2.8487
11
7.1021442125984251
21
-2.849200118110236
0
LINE
8
BLACK
6
CONTINUOUS
10
7.1021442125984251
20
-2.849200118110236
11
7.104275708661417
21
-2.8506242913385824
0
LINE
8
BLACK
6
CONTINUOUS
10
7.104275708661417
20
-2.8506242913385824
11
7.1056998818897634
21
-2.8527557874015748
0
LINE
8
BLACK
6
CONTINUOUS
10
7.1056998818897634
20
-2.8527557874015748
11
7.1061999999999994
21
-2.85527
0
LINE
8
BLACK
6
CONTINUOUS
10
7.1061999999999994
20
-2.85527
11
7.1061999999999994
21
-2.8859300000000001
0
LINE
8
BLACK
6
CONTINUOUS
10
7.1061999999999994
20
-2.8859300000000001
11
7.1056998818897634
21
-2.8884442125984253
0
LINE
8
BLACK
6
CONTINUOUS
10
7.1056998818897634
20
-2.8884442125984253
11
7.104275708661417
21
-2.8905757086614172
0
LINE
8
BLACK
6
CONTINUOUS
10
7.104275708661417
20
-2.8905757086614172
11
7.1021442125984251
21
-2.8919998818897636
0
LINE
8
BLACK
6
CONTINUOUS
10
7.1021442125984251
20
-2.8919998818897636
11
7.0996299999999994
21
-2.8925000000000001
0
LINE
8
BLACK
6
CONTINUOUS
10
7.0996299999999994
20
-2.8925000000000001
11
7.0689700000000002
21
-2.8925000000000001
0
LINE
8
BLACK
6
CONTINUOUS
10
7.0689700000000002
20
-2.8925000000000001
11
7.0688601181102362
21
-2.892478149606299
0
LINE
8
BLACK
6
CONTINUOUS
10
7.0688601181102362
20
-2.892478149606299
11
6.9452298818897633
21
-2.892303149606299
0
LINE
8
BLACK
6
CONTINUOUS
10
6.9452298818897633
20
-2.892303149606299
11
6.936263661417323
21
-2.894161023622047
0
LINE
8
BLACK
6
CONTINUOUS
10
6.936263661417323
20
-2.894161023622047
11
6.926771181102362
21
-2.8965802362204722
0
LINE
8
BLACK
6
CONTINUOUS
10
6.926771181102362
20
-2.8965802362204722
11
6.9184624409448814
21
-2.8991576377952755
0
LINE
8
BLACK
6
CONTINUOUS
10
6.9184624409448814
20
-2.8991576377952755
11
6.9112529133858267
21
-2.9018585826771655
0
LINE
8
BLACK
6
CONTINUOUS
10
6.9112529133858267
20
-2.9018585826771655
11
6.9050469291338583
21
-2.9046492519685039
0
LINE
8
BLACK
6
CONTINUOUS
10
6.9050469291338583
20
-2.9046492519685039
11
6.8997335826771655
21
-2.9075025196850395
0
LINE
8
BLACK
6
CONTINUOUS
10
6.8997335826771655
20
-2.9075025196850395
11
6.8951880708661415
21
-2.910403622047244
0
LINE
8
BLACK
6
CONTINUOUS
10
6.8951880708661415
20
-2.910403622047244
11
6.8912738976377952
21
-2.9133579527559053
0
LINE
8
BLACK
6
CONTINUOUS
10
6.8912738976377952
20
-2.9133579527559053
11
6.8878529921259837
21
-2.9163934251968504
0
LINE
8
BLACK
6
CONTINUOUS
10
6.8878529921259837
20
-2.9163934251968504
11
6.8850336614173226
21
-2.919311811023622
0
LINE
8
BLACK
6
CONTINUOUS
10
6.8850336614173226
20
-2.919311811023622
11
6.8792852755905507
21
-2.926633897637795
0
LINE
8
BLACK
6
CONTINUOUS
10
6.8792852755905507
20
-2.926633897637795
11
6.8741631889763779
21
-2.9347751968503935
0
LINE
8
BLACK
6
CONTINUOUS
10
6.8741631889763779
20
-2.9347751968503935
11
6.8688783858267719
21
-2.9442642913385826
0
LINE
8
BLACK
6
CONTINUOUS
10
6.8688783858267719
20
-2.9442642913385826
11
6.8634659448818898
21
-2.9540076771653543
0
LINE
8
BLACK
6
CONTINUOUS
10
6.8634659448818898
20
-2.9540076771653543
11
6.863158031496063
21
-2.9544853543307088
0
LINE
8
BLACK
6
CONTINUOUS
10
6.863158031496063
20
-2.9544853543307088
11
6.8628885826771651
21
-2.9549863779527556
0
LINE
8
BLACK
6
CONTINUOUS
10
6.8628885826771651
20
-2.9549863779527556
11
6.8553109448818894
21
-2.967101181102362
0
LINE
8
BLACK
6
CONTINUOUS
10
6.8553109448818894
20
-2.967101181102362
11
6.8547002755905506
21
-2.9679486220472442
0
LINE
8
BLACK
6
CONTINUOUS
10
6.8547002755905506
20
-2.9679486220472442
11
6.8541198818897637
21
-2.9688175196850395
0
LINE
8
BLACK
6
CONTINUOUS
10
6.8541198818897637
20
-2.9688175196850395
11
6.846106377952756
21
-2.9792635433070864
0
LINE
8
BLACK
6
CONTINUOUS
10
6.846106377952756
20
-2.9792635433070864
11
6.8453236614173223
21
-2.9801562204724408
0
LINE
8
BLACK
6
CONTINUOUS
10
6.8453236614173223
20
-2.9801562204724408
11
6.8445616929133859
21
-2.9810657480314959
0
LINE
8
BLACK
6
CONTINUOUS
10
6.8445616929133859
20
-2.9810657480314959
11
6.8353977952755907
21
-2.9906532283464564
0
LINE
8
BLACK
6
CONTINUOUS
10
6.8353977952755907
20
-2.9906532283464564
11
6.8345149212598422
21
-2.9914634645669289
0
LINE
8
BLACK
6
CONTINUOUS
10
6.8345149212598422
20
-2.9914634645669289
11
6.8336504724409446
21
-2.9922916929133856
0
LINE
8
BLACK
6
CONTINUOUS
10
6.8336504724409446
20
-2.9922916929133856
11
6.8228451181102363
21
-3.0013662204724407
0
LINE
8
BLACK
6
CONTINUOUS
10
6.8228451181102363
20
-3.0013662204724407
11
6.8221562598425196
21
-3.0018716929133857
0
LINE
8
BLACK
6
CONTINUOUS
10
6.8221562598425196
20
-3.0018716929133857
11
6.8214952755905509
21
-3.0024128346456691
0
LINE
8
BLACK
6
CONTINUOUS
10
6.8214952755905509
20
-3.0024128346456691
11
6.8153548425196853
21
-3.0068015354330706
0
LINE
8
BLACK
6
CONTINUOUS
10
6.8153548425196853
20
-3.0068015354330706
11
6.8148925590551181
21
-3.0070881889763781
0
LINE
8
BLACK
6
CONTINUOUS
10
6.8148925590551181
20
-3.0070881889763781
11
6.8144553543307085
21
-3.0074112598425198
0
LINE
8
BLACK
6
CONTINUOUS
10
6.8144553543307085
20
-3.0074112598425198
11
6.8076873228346457
21
-3.0117581102362205
0
LINE
8
BLACK
6
CONTINUOUS
10
6.8076873228346457
20
-3.0117581102362205
11
6.8072348818897632
21
-3.0120084645669292
0
LINE
8
BLACK
6
CONTINUOUS
10
6.8072348818897632
20
-3.0120084645669292
11
6.8068049212598423
21
-3.0122958661417321
0
LINE
8
BLACK
6
CONTINUOUS
10
6.8068049212598423
20
-3.0122958661417321
11
6.7994125196850392
21
-3.0165651181102362
0
LINE
8
BLACK
6
CONTINUOUS
10
6.7994125196850392
20
-3.0165651181102362
11
6.7989760236220471
21
-3.0167804330708661
0
LINE
8
BLACK
6
CONTINUOUS
10
6.7989760236220471
20
-3.0167804330708661
11
6.7985596062992126
21
-3.0170327559055119
0
LINE
8
BLACK
6
CONTINUOUS
10
6.7985596062992126
20
-3.0170327559055119
11
6.7904535433070867
21
-3.0212457086614171
0
LINE
8
BLACK
6
CONTINUOUS
10
6.7904535433070867
20
-3.0212457086614171
11
6.7900348818897633
21
-3.0214295669291338
0
LINE
8
BLACK
6
CONTINUOUS
10
6.7900348818897633
20
-3.0214295669291338
11
6.7896344881889759
21
-3.0216499212598427
0
LINE
8
BLACK
6
CONTINUOUS
10
6.7896344881889759
20
-3.0216499212598427
11
6.7807310236220468
21
-3.0258153937007872
0
LINE
8
BLACK
6
CONTINUOUS
10
6.7807310236220468
20
-3.0258153937007872
11
6.7803338188976374
21
-3.0259704330708659
0
LINE
8
BLACK
6
CONTINUOUS
10
6.7803338188976374
20
-3.0259704330708659
11
6.7799525590551184
21
-3.0261612992125984
0
LINE
8
BLACK
6
CONTINUOUS
10
6.7799525590551184
20
-3.0261612992125984
11
6.7702348425196845
21
-3.0302549606299212
0
LINE
8
BLACK
6
CONTINUOUS
10
6.7702348425196845
20
-3.0302549606299212
11
6.7698595669291333
21
-3.0303848425196849
0
LINE
8
BLACK
6
CONTINUOUS
10
6.7698595669291333
20
-3.0303848425196849
11
6.7694981102362206
21
-3.0305497244094486
0
LINE
8
BLACK
6
CONTINUOUS
10
6.7694981102362206
20
-3.0305497244094486
11
6.7587966929133856
21
-3.0346078740157481
0
LINE
8
BLACK
6
CONTINUOUS
10
6.7587966929133856
20
-3.0346078740157481
11
6.7584442519685037
21
-3.0347157086614174
0
LINE
8
BLACK
6
CONTINUOUS
10
6.7584442519685037
20
-3.0347157086614174
11
6.7581042913385829
21
-3.0348572047244096
0
LINE
8
BLACK
6
CONTINUOUS
10
6.7581042913385829
20
-3.0348572047244096
11
6.7464728346456688
21
-3.0388264173228348
0
LINE
8
BLACK
6
CONTINUOUS
10
6.7464728346456688
20
-3.0388264173228348
11
6.7464648818897635
21
-3.0388285433070865
0
LINE
8
BLACK
6
CONTINUOUS
10
6.7464648818897635
20
-3.0388285433070865
11
6.7464611811023625
21
-3.0388303937007874
0
LINE
8
BLACK
6
CONTINUOUS
10
6.7464611811023625
20
-3.0388303937007874
11
6.7450562598425199
21
-3.0392084251968505
0
LINE
8
BLACK
6
CONTINUOUS
10
6.7450562598425199
20
-3.0392084251968505
11
6.7437070078740158
21
-3.0395722834645666
0
LINE
8
BLACK
6
CONTINUOUS
10
6.7437070078740158
20
-3.0395722834645666
11
6.7437030314960626
21
-3.0395725196850392
0
LINE
8
BLACK
6
CONTINUOUS
10
6.7437030314960626
20
-3.0395725196850392
11
6.743694960629921
21
-3.0395747244094489
0
LINE
8
BLACK
6
CONTINUOUS
10
6.743694960629921
20
-3.0395747244094489
11
6.7211949606299211
21
-3.0440747244094486
0
LINE
8
BLACK
6
CONTINUOUS
10
6.7211949606299211
20
-3.0440747244094486
11
6.7199215354330706
21
-3.0442437007874017
0
LINE
8
BLACK
6
CONTINUOUS
10
6.7199215354330706
20
-3.0442437007874017
11
6.7199189763779525
21
-3.0442454330708659
0
LINE
8
BLACK
6
CONTINUOUS
10
6.7199189763779525
20
-3.0442454330708659
11
6.7178849606299211
21
-3.0446499606299211
0
LINE
8
BLACK
6
CONTINUOUS
10
6.7178849606299211
20
-3.0446499606299211
11
6.7033149999999999
21
-3.0446499999999999
0
LINE
8
BLACK
6
CONTINUOUS
10
6.7033149999999999
20
-3.0446499999999999
11
6.7012810236220473
21
-3.0442454330708659
0
LINE
8
BLACK
6
CONTINUOUS
10
6.7012810236220473
20
-3.0442454330708659
11
6.6995567322834644
21
-3.0430932677165354
0
LINE
8
BLACK
6
CONTINUOUS
10
6.6995567322834644
20
-3.0430932677165354
11
6.6984045669291339
21
-3.0413689763779526
0
LINE
8
BLACK
6
CONTINUOUS
10
6.6984045669291339
20
-3.0413689763779526
11
6.6980000393700783
21
-3.0393349606299211
0
LINE
8
BLACK
6
CONTINUOUS
10
6.6980000393700783
20
-3.0393349606299211
11
6.6979999999999995
21
-3.0378336220472439
0
LINE
8
BLACK
6
CONTINUOUS
10
6.6979999999999995
20
-3.0378336220472439
11
6.6978129527559052
21
-3.0376177559055115
0
LINE
8
BLACK
6
CONTINUOUS
10
6.6978129527559052
20
-3.0376177559055115
11
6.6960157086614176
21
-3.0336823228346455
0
LINE
8
BLACK
6
CONTINUOUS
10
6.6960157086614176
20
-3.0336823228346455
11
6.6954000000000002
21
-3.0293999999999999
0
LINE
8
BLACK
6
CONTINUOUS
10
6.6954000000000002
20
-3.0293999999999999
11
6.6954000000000002
21
-3.0258130708661417
0
LINE
8
BLACK
6
CONTINUOUS
10
6.6954000000000002
20
-3.0258130708661417
11
6.6950484251968501
21
-3.0240551968503935
0
LINE
8
BLACK
6
CONTINUOUS
10
6.6950484251968501
20
-3.0240551968503935
11
6.6952431889763782
21
-3.0210346456692911
0
LINE
8
BLACK
6
CONTINUOUS
10
6.6952431889763782
20
-3.0210346456692911
11
6.6939028346456695
21
-3.0087100787401573
0
LINE
8
BLACK
6
CONTINUOUS
10
6.6939028346456695
20
-3.0087100787401573
11
6.6909260629921254
21
-2.9951864566929132
0
LINE
8
BLACK
6
CONTINUOUS
10
6.6909260629921254
20
-2.9951864566929132
11
6.6865045669291341
21
-2.9820639370078741
0
LINE
8
BLACK
6
CONTINUOUS
10
6.6865045669291341
20
-2.9820639370078741
11
6.6806901968503931
21
-2.9694963779527557
0
LINE
8
BLACK
6
CONTINUOUS
10
6.6806901968503931
20
-2.9694963779527557
11
6.6735511417322835
21
-2.9576311417322834
0
LINE
8
BLACK
6
CONTINUOUS
10
6.6735511417322835
20
-2.9576311417322834
11
6.6651710629921261
21
-2.9466073622047242
0
LINE
8
BLACK
6
CONTINUOUS
10
6.6651710629921261
20
-2.9466073622047242
11
6.6556481889763779
21
-2.9365542125984252
0
LINE
8
BLACK
6
CONTINUOUS
10
6.6556481889763779
20
-2.9365542125984252
11
6.6450942519685041
21
-2.9275896062992124
0
LINE
8
BLACK
6
CONTINUOUS
10
6.6450942519685041
20
-2.9275896062992124
11
6.6336329133858269
21
-2.9198186220472442
0
LINE
8
BLACK
6
CONTINUOUS
10
6.6336329133858269
20
-2.9198186220472442
11
6.6213985826771653
21
-2.9133324015748032
0
LINE
8
BLACK
6
CONTINUOUS
10
6.6213985826771653
20
-2.9133324015748032
11
6.6085346850393698
21
-2.9082069685039369
0
LINE
8
BLACK
6
CONTINUOUS
10
6.6085346850393698
20
-2.9082069685039369
11
6.5951920472440939
21
-2.9045023622047244
0
LINE
8
BLACK
6
CONTINUOUS
10
6.5951920472440939
20
-2.9045023622047244
11
6.5815270866141731
21
-2.9022621259842518
0
LINE
8
BLACK
6
CONTINUOUS
10
6.5815270866141731
20
-2.9022621259842518
11
6.5676999999999994
21
-2.9015124409448818
0
LINE
8
BLACK
6
CONTINUOUS
10
6.5676999999999994
20
-2.9015124409448818
11
6.5538729133858267
21
-2.9022621259842518
0
LINE
8
BLACK
6
CONTINUOUS
10
6.5538729133858267
20
-2.9022621259842518
11
6.5402079527559049
21
-2.9045023622047244
0
LINE
8
BLACK
6
CONTINUOUS
10
6.5402079527559049
20
-2.9045023622047244
11
6.5268653149606299
21
-2.9082069685039369
0
LINE
8
BLACK
6
CONTINUOUS
10
6.5268653149606299
20
-2.9082069685039369
11
6.5140014173228344
21
-2.9133324015748032
0
LINE
8
BLACK
6
CONTINUOUS
10
6.5140014173228344
20
-2.9133324015748032
11
6.5017670866141728
21
-2.9198186220472442
0
LINE
8
BLACK
6
CONTINUOUS
10
6.5017670866141728
20
-2.9198186220472442
11
6.4903057480314956
21
-2.9275896062992124
0
LINE
8
BLACK
6
CONTINUOUS
10
6.4903057480314956
20
-2.9275896062992124
11
6.4797518110236219
21
-2.9365542125984252
0
LINE
8
BLACK
6
CONTINUOUS
10
6.4797518110236219
20
-2.9365542125984252
11
6.4702289370078736
21
-2.9466073622047242
0
LINE
8
BLACK
6
CONTINUOUS
10
6.4702289370078736
20
-2.9466073622047242
11
6.4618488582677163
21
-2.9576311417322834
0
LINE
8
BLACK
6
CONTINUOUS
10
6.4618488582677163
20
-2.9576311417322834
11
6.4547098031496057
21
-2.9694963779527557
0
LINE
8
BLACK
6
CONTINUOUS
10
6.4547098031496057
20
-2.9694963779527557
11
6.4488954330708657
21
-2.9820639370078741
0
LINE
8
BLACK
6
CONTINUOUS
10
6.4488954330708657
20
-2.9820639370078741
11
6.4444739370078743
21
-2.9951864566929132
0
LINE
8
BLACK
6
CONTINUOUS
10
6.4444739370078743
20
-2.9951864566929132
11
6.4414971653543303
21
-3.0087100787401573
0
LINE
8
BLACK
6
CONTINUOUS
10
6.4414971653543303
20
-3.0087100787401573
11
6.4399999999999995
21
-3.0224762992125984
0
LINE
8
BLACK
6
CONTINUOUS
10
6.4399999999999995
20
-3.0224762992125984
11
6.4399999999999995
21
-3.0293999999999999
0
LINE
8
BLACK
6
CONTINUOUS
10
6.4399999999999995
20
-3.0293999999999999
11
6.4398699606299212
21
-3.030304409448819
0
LINE
8
BLACK
6
CONTINUOUS
10
6.4398699606299212
20
-3.030304409448819
11
6.4398699606299212
21
-3.0313840157480314
0
LINE
8
BLACK
6
CONTINUOUS
10
6.4398699606299212
20
-3.0313840157480314
11
6.4395350000000002
21
-3.0326340157480316
0
LINE
8
BLACK
6
CONTINUOUS
10
6.4395350000000002
20
-3.0326340157480316
11
6.4393842913385821
21
-3.0336823228346455
0
LINE
8
BLACK
6
CONTINUOUS
10
6.4393842913385821
20
-3.0336823228346455
11
6.4390692913385825
21
-3.0343720472440943
0
LINE
8
BLACK
6
CONTINUOUS
10
6.4390692913385825
20
-3.0343720472440943
11
6.4388429527559055
21
-3.0352167716535434
0
LINE
8
BLACK
6
CONTINUOUS
10
6.4388429527559055
20
-3.0352167716535434
11
6.4380801181102365
21
-3.0365379921259841
0
LINE
8
BLACK
6
CONTINUOUS
10
6.4380801181102365
20
-3.0365379921259841
11
6.4375870472440946
21
-3.0376177559055115
0
LINE
8
BLACK
6
CONTINUOUS
10
6.4375870472440946
20
-3.0376177559055115
11
6.4371966535433067
21
-3.0380682677165352
0
LINE
8
BLACK
6
CONTINUOUS
10
6.4371966535433067
20
-3.0380682677165352
11
6.4368589763779527
21
-3.0386531889763777
0
LINE
8
BLACK
6
CONTINUOUS
10
6.4368589763779527
20
-3.0386531889763777
11
6.4355920472440946
21
-3.0399200787401575
0
LINE
8
BLACK
6
CONTINUOUS
10
6.4355920472440946
20
-3.0399200787401575
11
6.4347538976377949
21
-3.0408874015748029
0
LINE
8
BLACK
6
CONTINUOUS
10
6.4347538976377949
20
-3.0408874015748029
11
6.4343925196850389
21
-3.0411196062992127
0
LINE
8
BLACK
6
CONTINUOUS
10
6.4343925196850389
20
-3.0411196062992127
11
6.4340531889763781
21
-3.0414589763779527
0
LINE
8
BLACK
6
CONTINUOUS
10
6.4340531889763781
20
-3.0414589763779527
11
6.4321966929133856
21
-3.042530748031496
0
LINE
8
BLACK
6
CONTINUOUS
10
6.4321966929133856
20
-3.042530748031496
11
6.4311142913385826
21
-3.0432264173228347
0
LINE
8
BLACK
6
CONTINUOUS
10
6.4311142913385826
20
-3.0432264173228347
11
6.4308650787401573
21
-3.0432995669291336
0
LINE
8
BLACK
6
CONTINUOUS
10
6.4308650787401573
20
-3.0432995669291336
11
6.4306167716535434
21
-3.0434429527559055
0
LINE
8
BLACK
6
CONTINUOUS
10
6.4306167716535434
20
-3.0434429527559055
11
6.4278719291338584
21
-3.0441784251968502
0
LINE
8
BLACK
6
CONTINUOUS
10
6.4278719291338584
20
-3.0441784251968502
11
6.4269631889763774
21
-3.0444452755905509
0
LINE
8
BLACK
6
CONTINUOUS
10
6.4269631889763774
20
-3.0444452755905509
11
6.4268761417322837
21
-3.0444452755905509
0
LINE
8
BLACK
6
CONTINUOUS
10
6.4268761417322837
20
-3.0444452755905509
11
6.4267840157480309
21
-3.0444699606299213
0
LINE
8
BLACK
6
CONTINUOUS
10
6.4267840157480309
20
-3.0444699606299213
11
6.4248000000000003
21
-3.0446
0
LINE
8
BLACK
6
CONTINUOUS
10
6.4248000000000003
20
-3.0446
11
6.4049361811023617
21
-3.0446
0
LINE
8
BLACK
6
CONTINUOUS
10
6.4049361811023617
20
-3.0446
11
6.404684960629921
21
-3.0446499606299211
0
LINE
8
BLACK
6
CONTINUOUS
10
6.404684960629921
20
-3.0446499606299211
11
6.3976514566929135
21
-3.0446499606299211
0
LINE
8
BLACK
6
CONTINUOUS
10
6.3976514566929135
20
-3.0446499606299211
11
6.3974000000000002
21
-3.0446999999999997
0
LINE
8
BLACK
6
CONTINUOUS
10
6.3974000000000002
20
-3.0446999999999997
11
6.3971485039370073
21
-3.0446499606299211
0
LINE
8
BLACK
6
CONTINUOUS
10
6.3971485039370073
20
-3.0446499606299211
11
6.3901149999999998
21
-3.0446499999999999
0
LINE
8
BLACK
6
CONTINUOUS
10
6.3901149999999998
20
-3.0446499999999999
11
6.3880810236220471
21
-3.0442454330708659
0
LINE
8
BLACK
6
CONTINUOUS
10
6.3880810236220471
20
-3.0442454330708659
11
6.3863567322834642
21
-3.0430932677165354
0
LINE
8
BLACK
6
CONTINUOUS
10
6.3863567322834642
20
-3.0430932677165354
11
6.3852045669291337
21
-3.0413689763779526
0
LINE
8
BLACK
6
CONTINUOUS
10
6.3852045669291337
20
-3.0413689763779526
11
6.384800039370079
21
-3.0393349606299211
0
LINE
8
BLACK
6
CONTINUOUS
10
6.384800039370079
20
-3.0393349606299211
11
6.3848000000000003
21
-3.028705
0
LINE
8
BLACK
6
CONTINUOUS
10
6.3848000000000003
20
-3.028705
11
6.3852045669291337
21
-3.0266710236220473
0
LINE
8
BLACK
6
CONTINUOUS
10
6.3852045669291337
20
-3.0266710236220473
11
6.3863567322834642
21
-3.0249467322834644
0
LINE
8
BLACK
6
CONTINUOUS
10
6.3863567322834642
20
-3.0249467322834644
11
6.3880810236220471
21
-3.023794566929134
0
LINE
8
BLACK
6
CONTINUOUS
10
6.3880810236220471
20
-3.023794566929134
11
6.3882071259842519
21
-3.0237694488188978
0
LINE
8
BLACK
6
CONTINUOUS
10
6.3882071259842519
20
-3.0237694488188978
11
6.3882570472440943
21
-3.0235832283464568
0
LINE
8
BLACK
6
CONTINUOUS
10
6.3882570472440943
20
-3.0235832283464568
11
6.3882856692913386
21
-3.0235335826771652
0
LINE
8
BLACK
6
CONTINUOUS
10
6.3882856692913386
20
-3.0235335826771652
11
6.3873602362204727
21
-3.0141373228346455
0
LINE
8
BLACK
6
CONTINUOUS
10
6.3873602362204727
20
-3.0141373228346455
11
6.384494566929134
21
-2.9997306692913384
0
LINE
8
BLACK
6
CONTINUOUS
10
6.384494566929134
20
-2.9997306692913384
11
6.3802306299212601
21
-2.985674212598425
0
LINE
8
BLACK
6
CONTINUOUS
10
6.3802306299212601
20
-2.985674212598425
11
6.3746094094488184
21
-2.9721034251968503
0
LINE
8
BLACK
6
CONTINUOUS
10
6.3746094094488184
20
-2.9721034251968503
11
6.3676850787401573
21
-2.9591489370078738
0
LINE
8
BLACK
6
CONTINUOUS
10
6.3676850787401573
20
-2.9591489370078738
11
6.3595243700787396
21
-2.9469355511811024
0
LINE
8
BLACK
6
CONTINUOUS
10
6.3595243700787396
20
-2.9469355511811024
11
6.3502057874015749
21
-2.9355808267716537
0
LINE
8
BLACK
6
CONTINUOUS
10
6.3502057874015749
20
-2.9355808267716537
11
6.3398191732283466
21
-2.9251942125984249
0
LINE
8
BLACK
6
CONTINUOUS
10
6.3398191732283466
20
-2.9251942125984249
11
6.3284644488188979
21
-2.9158756299212598
0
LINE
8
BLACK
6
CONTINUOUS
10
6.3284644488188979
20
-2.9158756299212598
11
6.3162510629921256
21
-2.9077149212598425
0
LINE
8
BLACK
6
CONTINUOUS
10
6.3162510629921256
20
-2.9077149212598425
11
6.3032965748031495
21
-2.900790590551181
0
LINE
8
BLACK
6
CONTINUOUS
10
6.3032965748031495
20
-2.900790590551181
11
6.2897257874015748
21
-2.8951693700787402
0
LINE
8
BLACK
6
CONTINUOUS
10
6.2897257874015748
20
-2.8951693700787402
11
6.2756693307086611
21
-2.8909054330708659
0
LINE
8
BLACK
6
CONTINUOUS
10
6.2756693307086611
20
-2.8909054330708659
11
6.2612626771653543
21
-2.8880397637795276
0
LINE
8
BLACK
6
CONTINUOUS
10
6.2612626771653543
20
-2.8880397637795276
11
6.2466444488188975
21
-2.8866000000000001
0
LINE
8
BLACK
6
CONTINUOUS
10
6.2466444488188975
20
-2.8866000000000001
11
6.2319555511811018
21
-2.8866000000000001
0
LINE
8
BLACK
6
CONTINUOUS
10
6.2319555511811018
20
-2.8866000000000001
11
6.2173373228346458
21
-2.8880397637795276
0
LINE
8
BLACK
6
CONTINUOUS
10
6.2173373228346458
20
-2.8880397637795276
11
6.2029306692913382
21
-2.8909054330708659
0
LINE
8
BLACK
6
CONTINUOUS
10
6.2029306692913382
20
-2.8909054330708659
11
6.1888742125984253
21
-2.8951693700787402
0
LINE
8
BLACK
6
CONTINUOUS
10
6.1888742125984253
20
-2.8951693700787402
11
6.1753034251968506
21
-2.900790590551181
0
LINE
8
BLACK
6
CONTINUOUS
10
6.1753034251968506
20
-2.900790590551181
11
6.1623489370078737
21
-2.9077149212598425
0
LINE
8
BLACK
6
CONTINUOUS
10
6.1623489370078737
20
-2.9077149212598425
11
6.1501355511811022
21
-2.9158756299212598
0
LINE
8
BLACK
6
CONTINUOUS
10
6.1501355511811022
20
-2.9158756299212598
11
6.1387808267716535
21
-2.9251942125984249
0
LINE
8
BLACK
6
CONTINUOUS
10
6.1387808267716535
20
-2.9251942125984249
11
6.1283942125984252
21
-2.9355808267716537
0
LINE
8
BLACK
6
CONTINUOUS
10
6.1283942125984252
20
-2.9355808267716537
11
6.1190756299212596
21
-2.9469355511811024
0
LINE
8
BLACK
6
CONTINUOUS
10
6.1190756299212596
20
-2.9469355511811024
11
6.1109149212598428
21
-2.9591489370078738
0
LINE
8
BLACK
6
CONTINUOUS
10
6.1109149212598428
20
-2.9591489370078738
11
6.1039905905511809
21
-2.9721034251968503
0
LINE
8
BLACK
6
CONTINUOUS
10
6.1039905905511809
20
-2.9721034251968503
11
6.09836937007874
21
-2.985674212598425
0
LINE
8
BLACK
6
CONTINUOUS
10
6.09836937007874
20
-2.985674212598425
11
6.0941054330708662
21
-2.9997306692913384
0
LINE
8
BLACK
6
CONTINUOUS
10
6.0941054330708662
20
-2.9997306692913384
11
6.0912397637795275
21
-3.0141373228346455
0
LINE
8
BLACK
6
CONTINUOUS
10
6.0912397637795275
20
-3.0141373228346455
11
6.0897999999999994
21
-3.0287555511811024
0
LINE
8
BLACK
6
CONTINUOUS
10
6.0897999999999994
20
-3.0287555511811024
11
6.0897999999999994
21
-3.0322
0
LINE
8
BLACK
6
CONTINUOUS
10
6.0897999999999994
20
-3.0322
11
6.0897999999999994
21
-3.0720999999999998
0
LINE
8
BLACK
6
CONTINUOUS
10
6.0897999999999994
20
-3.0720999999999998
11
6.0897999999999994
21
-3.0794444488188977
0
LINE
8
BLACK
6
CONTINUOUS
10
6.0897999999999994
20
-3.0794444488188977
11
6.0912397637795275
21
-3.0940626771653541
0
LINE
8
BLACK
6
CONTINUOUS
10
6.0912397637795275
20
-3.0940626771653541
11
6.0941054330708662
21
-3.1084693307086613
0
LINE
8
BLACK
6
CONTINUOUS
10
6.0941054330708662
20
-3.1084693307086613
11
6.09836937007874
21
-3.1225257874015746
0
LINE
8
BLACK
6
CONTINUOUS
10
6.09836937007874
20
-3.1225257874015746
11
6.1039905905511809
21
-3.1360965748031497
0
LINE
8
BLACK
6
CONTINUOUS
10
6.1039905905511809
20
-3.1360965748031497
11
6.1109149212598428
21
-3.1490510629921258
0
LINE
8
BLACK
6
CONTINUOUS
10
6.1109149212598428
20
-3.1490510629921258
11
6.1190756299212596
21
-3.1612644488188977
0
LINE
8
BLACK
6
CONTINUOUS
10
6.1190756299212596
20
-3.1612644488188977
11
6.1283942125984252
21
-3.1726191732283464
0
LINE
8
BLACK
6
CONTINUOUS
10
6.1283942125984252
20
-3.1726191732283464
11
6.1387808267716535
21
-3.1830057874015747
0
LINE
8
BLACK
6
CONTINUOUS
10
6.1387808267716535
20
-3.1830057874015747
11
6.1501355511811022
21
-3.1923243700787403
0
LINE
8
BLACK
6
CONTINUOUS
10
6.1501355511811022
20
-3.1923243700787403
11
6.1623489370078737
21
-3.2004850787401575
0
LINE
8
BLACK
6
CONTINUOUS
10
6.1623489370078737
20
-3.2004850787401575
11
6.1753034251968506
21
-3.207409409448819
0
LINE
8
BLACK
6
CONTINUOUS
10
6.1753034251968506
20
-3.207409409448819
11
6.1888742125984253
21
-3.2130306299212599
0
LINE
8
BLACK
6
CONTINUOUS
10
6.1888742125984253
20
-3.2130306299212599
11
6.2029306692913382
21
-3.2172945669291337
0
LINE
8
BLACK
6
CONTINUOUS
10
6.2029306692913382
20
-3.2172945669291337
11
6.2173373228346458
21
-3.2201602362204724
0
LINE
8
BLACK
6
CONTINUOUS
10
6.2173373228346458
20
-3.2201602362204724
11
6.2319555511811018
21
-3.2216
0
LINE
8
BLACK
6
CONTINUOUS
10
6.2319555511811018
20
-3.2216
11
6.2466444488188975
21
-3.2216
0
LINE
8
BLACK
6
CONTINUOUS
10
6.2466444488188975
20
-3.2216
11
6.2612626771653543
21
-3.2201602362204724
0
LINE
8
BLACK
6
CONTINUOUS
10
6.2612626771653543
20
-3.2201602362204724
11
6.2756693307086611
21
-3.2172945669291337
0
LINE
8
BLACK
6
CONTINUOUS
10
6.2756693307086611
20
-3.2172945669291337
11
6.2897257874015748
21
-3.2130306299212599
0
LINE
8
BLACK
6
CONTINUOUS
10
6.2897257874015748
20
-3.2130306299212599
11
6.3032965748031495
21
-3.207409409448819
0
LINE
8
BLACK
6
CONTINUOUS
10
6.3032965748031495
20
-3.207409409448819
11
6.3162510629921256
21
-3.2004850787401575
0
LINE
8
BLACK
6
CONTINUOUS
10
6.3162510629921256
20
-3.2004850787401575
11
6.3284644488188979
21
-3.1923243700787403
0
LINE
8
BLACK
6
CONTINUOUS
10
6.3284644488188979
20
-3.1923243700787403
11
6.3398191732283466
21
-3.1830057874015747
0
LINE
8
BLACK
6
CONTINUOUS
10
6.3398191732283466
20
-3.1830057874015747
11
6.3502057874015749
21
-3.1726191732283464
0
LINE
8
BLACK
6
CONTINUOUS
10
6.3502057874015749
20
-3.1726191732283464
11
6.3595243700787396
21
-3.1612644488188977
0
LINE
8
BLACK
6
CONTINUOUS
10
6.3595243700787396
20
-3.1612644488188977
11
6.3676850787401573
21
-3.1490510629921258
0
LINE
8
BLACK
6
CONTINUOUS
10
6.3676850787401573
20
-3.1490510629921258
11
6.3746094094488184
21
-3.1360965748031497
0
LINE
8
BLACK
6
CONTINUOUS
10
6.3746094094488184
20
-3.1360965748031497
11
6.3802306299212601
21
-3.1225257874015746
0
LINE
8
BLACK
6
CONTINUOUS
10
6.3802306299212601
20
-3.1225257874015746
11
6.384494566929134
21
-3.1084693307086613
0
LINE
8
BLACK
6
CONTINUOUS
10
6.384494566929134
20
-3.1084693307086613
11
6.3873602362204727
21
-3.0940626771653541
0
LINE
8
BLACK
6
CONTINUOUS
10
6.3873602362204727
20
-3.0940626771653541
11
6.3882856692913386
21
-3.0846663779527557
0
LINE
8
BLACK
6
CONTINUOUS
10
6.3882856692913386
20
-3.0846663779527557
11
6.3882570472440943
21
-3.0846167716535433
0
LINE
8
BLACK
6
CONTINUOUS
10
6.3882570472440943
20
-3.0846167716535433
11
6.3882071259842519
21
-3.0844305118110236
0
LINE
8
BLACK
6
CONTINUOUS
10
6.3882071259842519
20
-3.0844305118110236
11
6.3880810236220471
21
-3.0844054330708661
0
LINE
8
BLACK
6
CONTINUOUS
10
6.3880810236220471
20
-3.0844054330708661
11
6.3863567322834642
21
-3.0832532677165352
0
LINE
8
BLACK
6
CONTINUOUS
10
6.3863567322834642
20
-3.0832532677165352
11
6.3852045669291337
21
-3.0815289763779528
0
LINE
8
BLACK
6
CONTINUOUS
10
6.3852045669291337
20
-3.0815289763779528
11
6.384800039370079
21
-3.0794949606299213
0
LINE
8
BLACK
6
CONTINUOUS
10
6.384800039370079
20
-3.0794949606299213
11
6.3848000000000003
21
-3.0688649999999997
0
LINE
8
BLACK
6
CONTINUOUS
10
6.3848000000000003
20
-3.0688649999999997
11
6.3852045669291337
21
-3.0668310236220471
0
LINE
8
BLACK
6
CONTINUOUS
10
6.3852045669291337
20
-3.0668310236220471
11
6.3863567322834642
21
-3.0651067322834646
0
LINE
8
BLACK
6
CONTINUOUS
10
6.3863567322834642
20
-3.0651067322834646
11
6.3880810236220471
21
-3.0639545669291337
0
LINE
8
BLACK
6
CONTINUOUS
10
6.3880810236220471
20
-3.0639545669291337
11
6.3901150393700785
21
-3.0635500393700785
0
LINE
8
BLACK
6
CONTINUOUS
10
6.3901150393700785
20
-3.0635500393700785
11
6.3971485039370073
21
-3.0635499999999998
0
LINE
8
BLACK
6
CONTINUOUS
10
6.3971485039370073
20
-3.0635499999999998
11
6.3974000000000002
21
-3.0634999999999999
0
LINE
8
BLACK
6
CONTINUOUS
10
6.3974000000000002
20
-3.0634999999999999
11
6.3976514566929135
21
-3.0635499999999998
0
LINE
8
BLACK
6
CONTINUOUS
10
6.3976514566929135
20
-3.0635499999999998
11
6.4046849999999997
21
-3.0635499999999998
0
LINE
8
BLACK
6
CONTINUOUS
10
6.4046849999999997
20
-3.0635499999999998
11
6.4049363779527555
21
-3.0636000000000001
0
LINE
8
BLACK
6
CONTINUOUS
10
6.4049363779527555
20
-3.0636000000000001
11
6.4248000000000003
21
-3.0636000000000001
0
LINE
8
BLACK
6
CONTINUOUS
10
6.4248000000000003
20
-3.0636000000000001
11
6.4267840157480309
21
-3.0637300393700788
0
LINE
8
BLACK
6
CONTINUOUS
10
6.4267840157480309
20
-3.0637300393700788
11
6.4268761417322837
21
-3.0637547244094487
0
LINE
8
BLACK
6
CONTINUOUS
10
6.4268761417322837
20
-3.0637547244094487
11
6.4269631889763774
21
-3.0637547244094487
0
LINE
8
BLACK
6
CONTINUOUS
10
6.4269631889763774
20
-3.0637547244094487
11
6.4278719291338584
21
-3.0640215354330707
0
LINE
8
BLACK
6
CONTINUOUS
10
6.4278719291338584
20
-3.0640215354330707
11
6.4306167716535434
21
-3.0647570472440946
0
LINE
8
BLACK
6
CONTINUOUS
10
6.4306167716535434
20
-3.0647570472440946
11
6.4308650787401573
21
-3.0649003937007873
0
LINE
8
BLACK
6
CONTINUOUS
10
6.4308650787401573
20
-3.0649003937007873
11
6.4311142913385826
21
-3.0649735826771654
0
LINE
8
BLACK
6
CONTINUOUS
10
6.4311142913385826
20
-3.0649735826771654
11
6.4321966929133856
21
-3.0656692125984253
0
LINE
8
BLACK
6
CONTINUOUS
10
6.4321966929133856
20
-3.0656692125984253
11
6.4340531889763781
21
-3.0667410236220474
0
LINE
8
BLACK
6
CONTINUOUS
10
6.4340531889763781
20
-3.0667410236220474
11
6.4343925196850389
21
-3.0670803543307086
0
LINE
8
BLACK
6
CONTINUOUS
10
6.4343925196850389
20
-3.0670803543307086
11
6.4347538976377949
21
-3.0673125984251968
0
LINE
8
BLACK
6
CONTINUOUS
10
6.4347538976377949
20
-3.0673125984251968
11
6.4355920472440946
21
-3.0682798818897639
0
LINE
8
BLACK
6
CONTINUOUS
10
6.4355920472440946
20
-3.0682798818897639
11
6.4368589763779527
21
-3.0695468110236219
0
LINE
8
BLACK
6
CONTINUOUS
10
6.4368589763779527
20
-3.0695468110236219
11
6.4371966535433067
21
-3.0701316929133857
0
LINE
8
BLACK
6
CONTINUOUS
10
6.4371966535433067
20
-3.0701316929133857
11
6.4375870472440946
21
-3.0705822440944881
0
LINE
8
BLACK
6
CONTINUOUS
10
6.4375870472440946
20
-3.0705822440944881
11
6.4380801181102365
21
-3.0716619685039368
0
LINE
8
BLACK
6
CONTINUOUS
10
6.4380801181102365
20
-3.0716619685039368
11
6.4388429527559055
21
-3.0729832283464567
0
LINE
8
BLACK
6
CONTINUOUS
10
6.4388429527559055
20
-3.0729832283464567
11
6.4390692913385825
21
-3.0738279133858266
0
LINE
8
BLACK
6
CONTINUOUS
10
6.4390692913385825
20
-3.0738279133858266
11
6.4393842913385821
21
-3.0745176771653542
0
LINE
8
BLACK
6
CONTINUOUS
10
6.4393842913385821
20
-3.0745176771653542
11
6.4395350000000002
21
-3.0755659448818897
0
LINE
8
BLACK
6
CONTINUOUS
10
6.4395350000000002
20
-3.0755659448818897
11
6.4398699606299212
21
-3.0768159842519682
0
LINE
8
BLACK
6
CONTINUOUS
10
6.4398699606299212
20
-3.0768159842519682
11
6.4398699606299212
21
-3.0778955511811024
0
LINE
8
BLACK
6
CONTINUOUS
10
6.4398699606299212
20
-3.0778955511811024
11
6.4399999999999995
21
-3.0787999999999998
0
LINE
8
BLACK
6
CONTINUOUS
10
6.4399999999999995
20
-3.0787999999999998
11
6.4399999999999995
21
-3.0857237007874017
0
LINE
8
BLACK
6
CONTINUOUS
10
6.4399999999999995
20
-3.0857237007874017
11
6.4414971653543303
21
-3.0994899212598424
0
LINE
8
BLACK
6
CONTINUOUS
10
6.4414971653543303
20
-3.0994899212598424
11
6.4444739370078743
21
-3.1130135433070865
0
LINE
8
BLACK
6
CONTINUOUS
10
6.4444739370078743
20
-3.1130135433070865
11
6.4488954330708657
21
-3.126136062992126
0
LINE
8
BLACK
6
CONTINUOUS
10
6.4488954330708657
20
-3.126136062992126
11
6.4547098031496057
21
-3.138703622047244
0
LINE
8
BLACK
6
CONTINUOUS
10
6.4547098031496057
20
-3.138703622047244
11
6.4618488582677163
21
-3.1505688582677163
0
LINE
8
BLACK
6
CONTINUOUS
10
6.4618488582677163
20
-3.1505688582677163
11
6.4702289370078736
21
-3.1615926377952754
0
LINE
8
BLACK
6
CONTINUOUS
10
6.4702289370078736
20
-3.1615926377952754
11
6.4797518110236219
21
-3.1716457874015749
0
LINE
8
BLACK
6
CONTINUOUS
10
6.4797518110236219
20
-3.1716457874015749
11
6.4903057480314956
21
-3.1806103937007872
0
LINE
8
BLACK
6
CONTINUOUS
10
6.4903057480314956
20
-3.1806103937007872
11
6.5017670866141728
21
-3.1883813779527559
0
LINE
8
BLACK
6
CONTINUOUS
10
6.5017670866141728
20
-3.1883813779527559
11
6.5140014173228344
21
-3.1948675984251969
0
LINE
8
BLACK
6
CONTINUOUS
10
6.5140014173228344
20
-3.1948675984251969
11
6.5268653149606299
21
-3.1999930314960627
0
LINE
8
BLACK
6
CONTINUOUS
10
6.5268653149606299
20
-3.1999930314960627
11
6.5402079527559049
21
-3.2036976377952757
0
LINE
8
BLACK
6
CONTINUOUS
10
6.5402079527559049
20
-3.2036976377952757
11
6.5538729133858267
21
-3.2059378740157478
0
LINE
8
BLACK
6
CONTINUOUS
10
6.5538729133858267
20
-3.2059378740157478
11
6.5676999999999994
21
-3.2066875590551178
0
LINE
8
BLACK
6
CONTINUOUS
10
6.5676999999999994
20
-3.2066875590551178
11
6.5815270866141731
21
-3.2059378740157478
0
LINE
8
BLACK
6
CONTINUOUS
10
6.5815270866141731
20
-3.2059378740157478
11
6.5951920472440939
21
-3.2036976377952757
0
LINE
8
BLACK
6
CONTINUOUS
10
6.5951920472440939
20
-3.2036976377952757
11
6.6085346850393698
21
-3.1999930314960627
0
LINE
8
BLACK
6
CONTINUOUS
10
6.6085346850393698
20
-3.1999930314960627
11
6.6213985826771653
21
-3.1948675984251969
0
LINE
8
BLACK
6
CONTINUOUS
10
6.6213985826771653
20
-3.1948675984251969
11
6.6336329133858269
21
-3.1883813779527559
0
LINE
8
BLACK
6
CONTINUOUS
10
6.6336329133858269
20
-3.1883813779527559
11
6.6450942519685041
21
-3.1806103937007872
0
LINE
8
BLACK
6
CONTINUOUS
10
6.6450942519685041
20
-3.1806103937007872
11
6.6556481889763779
21
-3.1716457874015749
0
LINE
8
BLACK
6
CONTINUOUS
10
6.6556481889763779
20
-3.1716457874015749
11
6.6651710629921261
21
-3.1615926377952754
0
LINE
8
BLACK
6
CONTINUOUS
10
6.6651710629921261
20
-3.1615926377952754
11
6.6735511417322835
21
-3.1505688582677163
0
LINE
8
BLACK
6
CONTINUOUS
10
6.6735511417322835
20
-3.1505688582677163
11
6.6806901968503931
21
-3.138703622047244
0
LINE
8
BLACK
6
CONTINUOUS
10
6.6806901968503931
20
-3.138703622047244
11
6.6865045669291341
21
-3.126136062992126
0
LINE
8
BLACK
6
CONTINUOUS
10
6.6865045669291341
20
-3.126136062992126
11
6.6909260629921254
21
-3.1130135433070865
0
LINE
8
BLACK
6
CONTINUOUS
10
6.6909260629921254
20
-3.1130135433070865
11
6.6939028346456695
21
-3.0994899212598424
0
LINE
8
BLACK
6
CONTINUOUS
10
6.6939028346456695
20
-3.0994899212598424
11
6.6952431889763782
21
-3.0871653149606297
0
LINE
8
BLACK
6
CONTINUOUS
10
6.6952431889763782
20
-3.0871653149606297
11
6.6950484251968501
21
-3.0841448031496062
0
LINE
8
BLACK
6
CONTINUOUS
10
6.6950484251968501
20
-3.0841448031496062
11
6.6954000000000002
21
-3.0823868897637796
0
LINE
8
BLACK
6
CONTINUOUS
10
6.6954000000000002
20
-3.0823868897637796
11
6.6954000000000002
21
-3.0787999999999998
0
LINE
8
BLACK
6
CONTINUOUS
10
6.6954000000000002
20
-3.0787999999999998
11
6.6960157086614176
21
-3.0745176771653542
0
LINE
8
BLACK
6
CONTINUOUS
10
6.6960157086614176
20
-3.0745176771653542
11
6.6978129527559052
21
-3.0705822440944881
0
LINE
8
BLACK
6
CONTINUOUS
10
6.6978129527559052
20
-3.0705822440944881
11
6.6979999999999995
21
-3.0703663385826769
0
LINE
8
BLACK
6
CONTINUOUS
10
6.6979999999999995
20
-3.0703663385826769
11
6.6979999999999995
21
-3.0688649999999997
0
LINE
8
BLACK
6
CONTINUOUS
10
6.6979999999999995
20
-3.0688649999999997
11
6.6984045669291339
21
-3.0668310236220471
0
LINE
8
BLACK
6
CONTINUOUS
10
6.6984045669291339
20
-3.0668310236220471
11
6.6995567322834644
21
-3.0651067322834646
0
LINE
8
BLACK
6
CONTINUOUS
10
6.6995567322834644
20
-3.0651067322834646
11
6.7012810236220473
21
-3.0639545669291337
0
LINE
8
BLACK
6
CONTINUOUS
10
6.7012810236220473
20
-3.0639545669291337
11
6.7033150393700787
21
-3.0635500393700785
0
LINE
8
BLACK
6
CONTINUOUS
10
6.7033150393700787
20
-3.0635500393700785
11
6.7178849999999999
21
-3.0635499999999998
0
LINE
8
BLACK
6
CONTINUOUS
10
6.7178849999999999
20
-3.0635499999999998
11
6.7199189763779525
21
-3.0639545669291337
0
LINE
8
BLACK
6
CONTINUOUS
10
6.7199189763779525
20
-3.0639545669291337
11
6.7199215354330706
21
-3.0639562598425196
0
LINE
8
BLACK
6
CONTINUOUS
10
6.7199215354330706
20
-3.0639562598425196
11
6.7211949606299211
21
-3.064125275590551
0
LINE
8
BLACK
6
CONTINUOUS
10
6.7211949606299211
20
-3.064125275590551
11
6.743694960629921
21
-3.0686252755905512
0
LINE
8
BLACK
6
CONTINUOUS
10
6.743694960629921
20
-3.0686252755905512
11
6.7437030314960626
21
-3.0686274409448817
0
LINE
8
BLACK
6
CONTINUOUS
10
6.7437030314960626
20
-3.0686274409448817
11
6.7437070078740158
21
-3.068627716535433
0
LINE
8
BLACK
6
CONTINUOUS
10
6.7437070078740158
20
-3.068627716535433
11
6.7450562598425199
21
-3.0689915354330708
0
LINE
8
BLACK
6
CONTINUOUS
10
6.7450562598425199
20
-3.0689915354330708
11
6.7464611811023625
21
-3.0693696062992126
0
LINE
8
BLACK
6
CONTINUOUS
10
6.7464611811023625
20
-3.0693696062992126
11
6.7464648818897635
21
-3.0693714173228344
0
LINE
8
BLACK
6
CONTINUOUS
10
6.7464648818897635
20
-3.0693714173228344
11
6.7464728346456688
21
-3.0693735826771653
0
LINE
8
BLACK
6
CONTINUOUS
10
6.7464728346456688
20
-3.0693735826771653
11
6.7581042913385829
21
-3.0733427952755905
0
LINE
8
BLACK
6
CONTINUOUS
10
6.7581042913385829
20
-3.0733427952755905
11
6.7584442519685037
21
-3.0734842519685039
0
LINE
8
BLACK
6
CONTINUOUS
10
6.7584442519685037
20
-3.0734842519685039
11
6.7587966929133856
21
-3.073592125984252
0
LINE
8
BLACK
6
CONTINUOUS
10
6.7587966929133856
20
-3.073592125984252
11
6.7694981102362206
21
-3.077650275590551
0
LINE
8
BLACK
6
CONTINUOUS
10
6.7694981102362206
20
-3.077650275590551
11
6.7698595669291333
21
-3.077815118110236
0
LINE
8
BLACK
6
CONTINUOUS
10
6.7698595669291333
20
-3.077815118110236
11
6.7702348425196845
21
-3.0779450393700785
0
LINE
8
BLACK
6
CONTINUOUS
10
6.7702348425196845
20
-3.0779450393700785
11
6.7799525590551184
21
-3.0820387007874017
0
LINE
8
BLACK
6
CONTINUOUS
10
6.7799525590551184
20
-3.0820387007874017
11
6.7803338188976374
21
-3.082229527559055
0
LINE
8
BLACK
6
CONTINUOUS
10
6.7803338188976374
20
-3.082229527559055
11
6.7807310236220468
21
-3.0823846062992124
0
LINE
8
BLACK
6
CONTINUOUS
10
6.7807310236220468
20
-3.0823846062992124
11
6.7896344881889759
21
-3.0865500787401574
0
LINE
8
BLACK
6
CONTINUOUS
10
6.7896344881889759
20
-3.0865500787401574
11
6.7900348818897633
21
-3.0867703937007875
0
LINE
8
BLACK
6
CONTINUOUS
10
6.7900348818897633
20
-3.0867703937007875
11
6.7904535433070867
21
-3.0869542913385826
0
LINE
8
BLACK
6
CONTINUOUS
10
6.7904535433070867
20
-3.0869542913385826
11
6.7985596062992126
21
-3.0911672440944882
0
LINE
8
BLACK
6
CONTINUOUS
10
6.7985596062992126
20
-3.0911672440944882
11
6.7989760236220471
21
-3.0914195275590552
0
LINE
8
BLACK
6
CONTINUOUS
10
6.7989760236220471
20
-3.0914195275590552
11
6.7994125196850392
21
-3.0916348818897639
0
LINE
8
BLACK
6
CONTINUOUS
10
6.7994125196850392
20
-3.0916348818897639
11
6.8068049212598423
21
-3.0959041338582676
0
LINE
8
BLACK
6
CONTINUOUS
10
6.8068049212598423
20
-3.0959041338582676
11
6.8072348818897632
21
-3.0961914960629922
0
LINE
8
BLACK
6
CONTINUOUS
10
6.8072348818897632
20
-3.0961914960629922
11
6.8076873228346457
21
-3.0964418897637795
0
LINE
8
BLACK
6
CONTINUOUS
10
6.8076873228346457
20
-3.0964418897637795
11
6.8144553543307085
21
-3.1007887401574803
0
LINE
8
BLACK
6
CONTINUOUS
10
6.8144553543307085
20
-3.1007887401574803
11
6.8148925590551181
21
-3.1011117716535432
0
LINE
8
BLACK
6
CONTINUOUS
10
6.8148925590551181
20
-3.1011117716535432
11
6.8153548425196853
21
-3.101398464566929
0
LINE
8
BLACK
6
CONTINUOUS
10
6.8153548425196853
20
-3.101398464566929
11
6.8214952755905509
21
-3.1057871653543305
0
LINE
8
BLACK
6
CONTINUOUS
10
6.8214952755905509
20
-3.1057871653543305
11
6.8221562598425196
21
-3.1063282677165351
0
LINE
8
BLACK
6
CONTINUOUS
10
6.8221562598425196
20
-3.1063282677165351
11
6.8228451181102363
21
-3.1068337795275589
0
LINE
8
BLACK
6
CONTINUOUS
10
6.8228451181102363
20
-3.1068337795275589
11
6.8336504724409446
21
-3.115908307086614
0
LINE
8
BLACK
6
CONTINUOUS
10
6.8336504724409446
20
-3.115908307086614
11
6.8345149212598422
21
-3.116736496062992
0
LINE
8
BLACK
6
CONTINUOUS
10
6.8345149212598422
20
-3.116736496062992
11
6.8353977952755907
21
-3.1175467716535432
0
LINE
8
BLACK
6
CONTINUOUS
10
6.8353977952755907
20
-3.1175467716535432
11
6.8445616929133859
21
-3.1271342519685037
0
LINE
8
BLACK
6
CONTINUOUS
10
6.8445616929133859
20
-3.1271342519685037
11
6.8453236614173223
21
-3.1280437401574801
0
LINE
8
BLACK
6
CONTINUOUS
10
6.8453236614173223
20
-3.1280437401574801
11
6.846106377952756
21
-3.1289364566929132
0
LINE
8
BLACK
6
CONTINUOUS
10
6.846106377952756
20
-3.1289364566929132
11
6.8541198818897637
21
-3.1393824803149606
0
LINE
8
BLACK
6
CONTINUOUS
10
6.8541198818897637
20
-3.1393824803149606
11
6.8547002755905506
21
-3.1402513385826771
0
LINE
8
BLACK
6
CONTINUOUS
10
6.8547002755905506
20
-3.1402513385826771
11
6.8553109448818894
21
-3.1410988188976376
0
LINE
8
BLACK
6
CONTINUOUS
10
6.8553109448818894
20
-3.1410988188976376
11
6.8628885826771651
21
-3.153213622047244
0
LINE
8
BLACK
6
CONTINUOUS
10
6.8628885826771651
20
-3.153213622047244
11
6.863158031496063
21
-3.1537146062992125
0
LINE
8
BLACK
6
CONTINUOUS
10
6.863158031496063
20
-3.1537146062992125
11
6.8634659448818898
21
-3.1541923228346458
0
LINE
8
BLACK
6
CONTINUOUS
10
6.8634659448818898
20
-3.1541923228346458
11
6.8688783464566932
21
-3.1639356692913383
0
LINE
8
BLACK
6
CONTINUOUS
10
6.8688783464566932
20
-3.1639356692913383
11
6.8688783858267719
21
-3.163935708661417
0
LINE
8
BLACK
6
CONTINUOUS
10
6.8688783858267719
20
-3.163935708661417
11
6.8741631889763779
21
-3.1734247637795274
0
LINE
8
BLACK
6
CONTINUOUS
10
6.8741631889763779
20
-3.1734247637795274
11
6.8792852755905507
21
-3.1815660629921259
0
LINE
8
BLACK
6
CONTINUOUS
10
6.8792852755905507
20
-3.1815660629921259
11
6.8850336614173226
21
-3.1888881496062993
0
LINE
8
BLACK
6
CONTINUOUS
10
6.8850336614173226
20
-3.1888881496062993
11
6.8878529921259837
21
-3.1918065354330709
0
LINE
8
BLACK
6
CONTINUOUS
10
6.8878529921259837
20
-3.1918065354330709
11
6.8912738976377952
21
-3.1948420078740156
0
LINE
8
BLACK
6
CONTINUOUS
10
6.8912738976377952
20
-3.1948420078740156
11
6.8951880708661415
21
-3.1977963385826773
0
LINE
8
BLACK
6
CONTINUOUS
10
6.8951880708661415
20
-3.1977963385826773
11
6.8997335826771655
21
-3.2006974409448818
0
LINE
8
BLACK
6
CONTINUOUS
10
6.8997335826771655
20
-3.2006974409448818
11
6.9050469291338583
21
-3.2035507086614174
0
LINE
8
BLACK
6
CONTINUOUS
10
6.9050469291338583
20
-3.2035507086614174
11
6.9112529133858267
21
-3.2063413779527559
0
LINE
8
BLACK
6
CONTINUOUS
10
6.9112529133858267
20
-3.2063413779527559
11
6.9184624409448814
21
-3.2090423228346454
0
LINE
8
BLACK
6
CONTINUOUS
10
6.9184624409448814
20
-3.2090423228346454
11
6.926771181102362
21
-3.2116197244094487
0
LINE
8
BLACK
6
CONTINUOUS
10
6.926771181102362
20
-3.2116197244094487
11
6.936263661417323
21
-3.2140389370078739
0
LINE
8
BLACK
6
CONTINUOUS
10
6.936263661417323
20
-3.2140389370078739
11
6.9452298818897633
21
-3.2158968110236219
0
LINE
8
BLACK
6
CONTINUOUS
10
6.9452298818897633
20
-3.2158968110236219
11
7.0688601181102362
21
-3.2157218110236219
0
LINE
8
BLACK
6
CONTINUOUS
10
7.0688601181102362
20
-3.2157218110236219
11
7.0689700000000002
21
-3.2157
0
LINE
8
BLACK
6
CONTINUOUS
10
7.0689700000000002
20
-3.2157
11
7.0996299999999994
21
-3.2157
0
LINE
8
BLACK
6
CONTINUOUS
10
7.0996299999999994
20
-3.2157
11
7.1021442125984251
21
-3.216200118110236
0
LINE
8
BLACK
6
CONTINUOUS
10
7.1021442125984251
20
-3.216200118110236
11
7.104275708661417
21
-3.2176242913385824
0
LINE
8
BLACK
6
CONTINUOUS
10
7.104275708661417
20
-3.2176242913385824
11
7.1056998818897634
21
-3.2197557874015748
0
LINE
8
BLACK
6
CONTINUOUS
10
7.1056998818897634
20
-3.2197557874015748
11
7.1061999999999994
21
-3.22227
0
LINE
8
BLACK
6
CONTINUOUS
10
7.1061999999999994
20
-3.22227
11
7.1061999999999994
21
-3.2529300000000001
0
LINE
8
BLACK
6
CONTINUOUS
10
7.1061999999999994
20
-3.2529300000000001
11
7.1056998818897634
21
-3.2554442125984253
0
LINE
8
BLACK
6
CONTINUOUS
10
7.1056998818897634
20
-3.2554442125984253
11
7.104275708661417
21
-3.2575757086614172
0
LINE
8
BLACK
6
CONTINUOUS
10
7.104275708661417
20
-3.2575757086614172
11
7.1021442125984251
21
-3.2589998818897636
0
LINE
8
BLACK
6
CONTINUOUS
10
7.1021442125984251
20
-3.2589998818897636
11
7.0996299999999994
21
-3.2595000000000001
0
LINE
8
BLACK
6
CONTINUOUS
10
7.0996299999999994
20
-3.2595000000000001
11
7.0843031889763779
21
-3.2595000000000001
0
LINE
8
BLACK
6
CONTINUOUS
10
7.0843031889763779
20
-3.2595000000000001
11
6.9430309842519682
21
-3.2596999606299213
0
LINE
8
BLACK
6
CONTINUOUS
10
6.9430309842519682
20
-3.2596999606299213
11
6.941771771653543
21
-3.2596192125984249
0
LINE
8
BLACK
6
CONTINUOUS
10
6.941771771653543
20
-3.2596192125984249
11
6.9413935826771649
21
-3.2596409842519685
0
LINE
8
BLACK
6
CONTINUOUS
10
6.9413935826771649
20
-3.2596409842519685
11
6.940785157480315
21
-3.2595559448818898
0
LINE
8
BLACK
6
CONTINUOUS
10
6.940785157480315
20
-3.2595559448818898
11
6.9401722440944882
21
-3.2595166535433071
0
LINE
8
BLACK
6
CONTINUOUS
10
6.9401722440944882
20
-3.2595166535433071
11
6.9398062598425199
21
-3.2594191338582674
0
LINE
8
BLACK
6
CONTINUOUS
10
6.9398062598425199
20
-3.2594191338582674
11
6.9385565354330705
21
-3.2592444881889762
0
LINE
8
BLACK
6
CONTINUOUS
10
6.9385565354330705
20
-3.2592444881889762
11
6.9268919291338582
21
-3.2568274803149606
0
LINE
8
BLACK
6
CONTINUOUS
10
6.9268919291338582
20
-3.2568274803149606
11
6.9264140157480316
21
-3.2566953149606297
0
LINE
8
BLACK
6
CONTINUOUS
10
6.9264140157480316
20
-3.2566953149606297
11
6.9259269685039371
21
-3.2566046456692912
0
LINE
8
BLACK
6
CONTINUOUS
10
6.9259269685039371
20
-3.2566046456692912
11
6.9154102362204721
21
-3.2539244094488189
0
LINE
8
BLACK
6
CONTINUOUS
10
6.9154102362204721
20
-3.2539244094488189
11
6.9148762992125983
21
-3.253750433070866
0
LINE
8
BLACK
6
CONTINUOUS
10
6.9148762992125983
20
-3.253750433070866
11
6.9143301968503934
21
-3.2536194881889764
0
LINE
8
BLACK
6
CONTINUOUS
10
6.9143301968503934
20
-3.2536194881889764
11
6.9048822047244096
21
-3.2506886614173229
0
LINE
8
BLACK
6
CONTINUOUS
10
6.9048822047244096
20
-3.2506886614173229
11
6.9042920472440947
21
-3.2504622834645667
0
LINE
8
BLACK
6
CONTINUOUS
10
6.9042920472440947
20
-3.2504622834645667
11
6.9036876377952758
21
-3.2502799606299213
0
LINE
8
BLACK
6
CONTINUOUS
10
6.9036876377952758
20
-3.2502799606299213
11
6.8952290551181097
21
-3.2471111023622048
0
LINE
8
BLACK
6
CONTINUOUS
10
6.8952290551181097
20
-3.2471111023622048
11
6.8945884645669286
21
-3.2468220078740155
0
LINE
8
BLACK
6
CONTINUOUS
10
6.8945884645669286
20
-3.2468220078740155
11
6.8939305511811018
21
-3.2465765354330709
0
LINE
8
BLACK
6
CONTINUOUS
10
6.8939305511811018
20
-3.2465765354330709
11
6.8863822047244092
21
-3.2431822440944882
0
LINE
8
BLACK
6
CONTINUOUS
10
6.8863822047244092
20
-3.2431822440944882
11
6.8857030708661418
21
-3.242821692913386
0
LINE
8
BLACK
6
CONTINUOUS
10
6.8857030708661418
20
-3.242821692913386
11
6.8850028740157478
21
-3.242502834645669
0
LINE
8
BLACK
6
CONTINUOUS
10
6.8850028740157478
20
-3.242502834645669
11
6.8782855511811025
21
-3.2388956299212599
0
LINE
8
BLACK
6
CONTINUOUS
10
6.8782855511811025
20
-3.2388956299212599
11
6.8775863779527562
21
-3.2384589763779528
0
LINE
8
BLACK
6
CONTINUOUS
10
6.8775863779527562
20
-3.2384589763779528
11
6.8768642125984254
21
-3.2380620078740159
0
LINE
8
BLACK
6
CONTINUOUS
10
6.8768642125984254
20
-3.2380620078740159
11
6.8708986220472443
21
-3.2342545275590551
0
LINE
8
BLACK
6
CONTINUOUS
10
6.8708986220472443
20
-3.2342545275590551
11
6.8702062598425195
21
-3.2337459448818895
0
LINE
8
BLACK
6
CONTINUOUS
10
6.8702062598425195
20
-3.2337459448818895
11
6.8694874409448818
21
-3.2332738976377953
0
LINE
8
BLACK
6
CONTINUOUS
10
6.8694874409448818
20
-3.2332738976377953
11
6.8641943307086617
21
-3.2292787795275588
0
LINE
8
BLACK
6
CONTINUOUS
10
6.8641943307086617
20
-3.2292787795275588
11
6.8635373228346452
21
-3.2287117716535434
0
LINE
8
BLACK
6
CONTINUOUS
10
6.8635373228346452
20
-3.2287117716535434
11
6.8628524409448817
21
-3.2281798818897638
0
LINE
8
BLACK
6
CONTINUOUS
10
6.8628524409448817
20
-3.2281798818897638
11
6.858152598425197
21
-3.2240096062992127
0
LINE
8
BLACK
6
CONTINUOUS
10
6.858152598425197
20
-3.2240096062992127
11
6.8575604724409445
21
-3.2234105118110237
0
LINE
8
BLACK
6
CONTINUOUS
10
6.8575604724409445
20
-3.2234105118110237
11
6.8569373622047243
21
-3.2228447637795274
0
LINE
8
BLACK
6
CONTINUOUS
10
6.8569373622047243
20
-3.2228447637795274
11
6.8527516141732283
21
-3.2185120472440945
0
LINE
8
BLACK
6
CONTINUOUS
10
6.8527516141732283
20
-3.2185120472440945
11
6.8520253937007869
21
-3.2176545669291339
0
LINE
8
BLACK
6
CONTINUOUS
10
6.8520253937007869
20
-3.2176545669291339
11
6.8512764566929132
21
-3.2168194094488189
0
LINE
8
BLACK
6
CONTINUOUS
10
6.8512764566929132
20
-3.2168194094488189
11
6.8441301181102361
21
-3.2077166929133858
0
LINE
8
BLACK
6
CONTINUOUS
10
6.8441301181102361
20
-3.2077166929133858
11
6.8434869291338583
21
-3.2067768110236221
0
LINE
8
BLACK
6
CONTINUOUS
10
6.8434869291338583
20
-3.2067768110236221
11
6.8428193307086609
21
-3.205855433070866
0
LINE
8
BLACK
6
CONTINUOUS
10
6.8428193307086609
20
-3.205855433070866
11
6.83677842519685
21
-3.1962537401574802
0
LINE
8
BLACK
6
CONTINUOUS
10
6.83677842519685
20
-3.1962537401574802
11
6.8364998031496063
21
-3.1957390157480314
0
LINE
8
BLACK
6
CONTINUOUS
10
6.8364998031496063
20
-3.1957390157480314
11
6.8361820866141727
21
-3.1952472440944879
0
LINE
8
BLACK
6
CONTINUOUS
10
6.8361820866141727
20
-3.1952472440944879
11
6.8306127165354331
21
-3.1852472047244094
0
LINE
8
BLACK
6
CONTINUOUS
10
6.8306127165354331
20
-3.1852472047244094
11
6.8306075196850395
21
-3.1852362992125984
0
LINE
8
BLACK
6
CONTINUOUS
10
6.8306075196850395
20
-3.1852362992125984
11
6.8306010236220471
21
-3.1852261811023621
0
LINE
8
BLACK
6
CONTINUOUS
10
6.8306010236220471
20
-3.1852261811023621
11
6.8254529527559056
21
-3.1759587007874015
0
LINE
8
BLACK
6
CONTINUOUS
10
6.8254529527559056
20
-3.1759587007874015
11
6.8187312992125984
21
-3.1652123228346456
0
LINE
8
BLACK
6
CONTINUOUS
10
6.8187312992125984
20
-3.1652123228346456
11
6.8120776771653544
21
-3.1565390157480313
0
LINE
8
BLACK
6
CONTINUOUS
10
6.8120776771653544
20
-3.1565390157480313
11
6.8045638188976376
21
-3.1486778740157479
0
LINE
8
BLACK
6
CONTINUOUS
10
6.8045638188976376
20
-3.1486778740157479
11
6.79533125984252
21
-3.1409242125984251
0
LINE
8
BLACK
6
CONTINUOUS
10
6.79533125984252
20
-3.1409242125984251
11
6.7903285433070861
21
-3.1373487007874017
0
LINE
8
BLACK
6
CONTINUOUS
10
6.7903285433070861
20
-3.1373487007874017
11
6.7844525590551177
21
-3.1335747637795275
0
LINE
8
BLACK
6
CONTINUOUS
10
6.7844525590551177
20
-3.1335747637795275
11
6.7779287795275591
21
-3.1298071653543307
0
LINE
8
BLACK
6
CONTINUOUS
10
6.7779287795275591
20
-3.1298071653543307
11
6.7706597244094491
21
-3.1260292519685038
0
LINE
8
BLACK
6
CONTINUOUS
10
6.7706597244094491
20
-3.1260292519685038
11
6.7625558661417324
21
-3.1222378740157479
0
LINE
8
BLACK
6
CONTINUOUS
10
6.7625558661417324
20
-3.1222378740157479
11
6.7535967716535428
21
-3.1184638188976379
0
LINE
8
BLACK
6
CONTINUOUS
10
6.7535967716535428
20
-3.1184638188976379
11
6.743610236220472
21
-3.1146767322834643
0
LINE
8
BLACK
6
CONTINUOUS
10
6.743610236220472
20
-3.1146767322834643
11
6.7336915748031494
21
-3.1112920078740158
0
LINE
8
BLACK
6
CONTINUOUS
10
6.7336915748031494
20
-3.1112920078740158
11
6.7228396062992122
21
-3.1091216141732283
0
LINE
8
BLACK
6
CONTINUOUS
10
6.7228396062992122
20
-3.1091216141732283
11
6.7227621653543306
21
-3.1096437795275591
0
LINE
8
BLACK
6
CONTINUOUS
10
6.7227621653543306
20
-3.1096437795275591
11
6.7189922834645666
21
-3.1246940157480316
0
LINE
8
BLACK
6
CONTINUOUS
10
6.7189922834645666
20
-3.1246940157480316
11
6.7137653543307083
21
-3.139302244094488
0
LINE
8
BLACK
6
CONTINUOUS
10
6.7137653543307083
20
-3.139302244094488
11
6.7071317322834645
21
-3.153327834645669
0
LINE
8
BLACK
6
CONTINUOUS
10
6.7071317322834645
20
-3.153327834645669
11
6.6991553543307081
21
-3.1666356692913387
0
LINE
8
BLACK
6
CONTINUOUS
10
6.6991553543307081
20
-3.1666356692913387
11
6.6899129527559049
21
-3.1790975590551178
0
LINE
8
BLACK
6
CONTINUOUS
10
6.6899129527559049
20
-3.1790975590551178
11
6.6794935826771651
21
-3.1905935826771654
0
LINE
8
BLACK
6
CONTINUOUS
10
6.6794935826771651
20
-3.1905935826771654
11
6.6679975590551184
21
-3.2010129527559052
0
LINE
8
BLACK
6
CONTINUOUS
10
6.6679975590551184
20
-3.2010129527559052
11
6.6555356692913383
21
-3.2102553543307084
0
LINE
8
BLACK
6
CONTINUOUS
10
6.6555356692913383
20
-3.2102553543307084
11
6.6422278346456691
21
-3.2182317322834644
0
LINE
8
BLACK
6
CONTINUOUS
10
6.6422278346456691
20
-3.2182317322834644
11
6.6282022440944877
21
-3.2248653543307086
0
LINE
8
BLACK
6
CONTINUOUS
10
6.6282022440944877
20
-3.2248653543307086
11
6.6135940157480313
21
-3.2300922834645669
0
LINE
8
BLACK
6
CONTINUOUS
10
6.6135940157480313
20
-3.2300922834645669
11
6.5985437795275592
21
-3.2338621653543305
0
LINE
8
BLACK
6
CONTINUOUS
10
6.5985437795275592
20
-3.2338621653543305
11
6.5831964960629916
21
-3.2361387007874014
0
LINE
8
BLACK
6
CONTINUOUS
10
6.5831964960629916
20
-3.2361387007874014
11
6.5676999999999994
21
-3.2368999999999999
0
LINE
8
BLACK
6
CONTINUOUS
10
6.5676999999999994
20
-3.2368999999999999
11
6.5522035039370081
21
-3.2361387007874014
0
LINE
8
BLACK
6
CONTINUOUS
10
6.5522035039370081
20
-3.2361387007874014
11
6.5368562204724405
21
-3.2338621653543305
0
LINE
8
BLACK
6
CONTINUOUS
10
6.5368562204724405
20
-3.2338621653543305
11
6.5218059842519684
21
-3.2300922834645669
0
LINE
8
BLACK
6
CONTINUOUS
10
6.5218059842519684
20
-3.2300922834645669
11
6.5071977559055121
21
-3.2248653543307086
0
LINE
8
BLACK
6
CONTINUOUS
10
6.5071977559055121
20
-3.2248653543307086
11
6.4931721653543306
21
-3.2182317322834644
0
LINE
8
BLACK
6
CONTINUOUS
10
6.4931721653543306
20
-3.2182317322834644
11
6.4798643307086614
21
-3.2102553543307084
0
LINE
8
BLACK
6
CONTINUOUS
10
6.4798643307086614
20
-3.2102553543307084
11
6.4674024409448814
21
-3.2010129527559052
0
LINE
8
BLACK
6
CONTINUOUS
10
6.4674024409448814
20
-3.2010129527559052
11
6.4559064173228347
21
-3.1905935826771654
0
LINE
8
BLACK
6
CONTINUOUS
10
6.4559064173228347
20
-3.1905935826771654
11
6.4454870472440939
21
-3.1790975590551178
0
LINE
8
BLACK
6
CONTINUOUS
10
6.4454870472440939
20
-3.1790975590551178
11
6.4362446456692908
21
-3.1666356692913387
0
LINE
8
BLACK
6
CONTINUOUS
10
6.4362446456692908
20
-3.1666356692913387
11
6.4282682677165353
21
-3.153327834645669
0
LINE
8
BLACK
6
CONTINUOUS
10
6.4282682677165353
20
-3.153327834645669
11
6.4216346456692914
21
-3.139302244094488
0
LINE
8
BLACK
6
CONTINUOUS
10
6.4216346456692914
20
-3.139302244094488
11
6.4164077165354332
21
-3.1246940157480316
0
LINE
8
BLACK
6
CONTINUOUS
10
6.4164077165354332
20
-3.1246940157480316
11
6.4126378346456692
21
-3.1096437795275591
0
LINE
8
BLACK
6
CONTINUOUS
10
6.4126378346456692
20
-3.1096437795275591
11
6.4103612992125987
21
-3.094296496062992
0
LINE
8
BLACK
6
CONTINUOUS
10
6.4103612992125987
20
-3.094296496062992
11
6.4103467322834646
21
-3.0939999999999999
0
LINE
8
BLACK
6
CONTINUOUS
10
6.4103467322834646
20
-3.0939999999999999
11
6.4043747244094487
21
-3.0939999999999999
0
LINE
8
BLACK
6
CONTINUOUS
10
6.4043747244094487
20
-3.0939999999999999
11
6.4029875196850394
21
-3.1036481889763778
0
LINE
8
BLACK
6
CONTINUOUS
10
6.4029875196850394
20
-3.1036481889763778
11
6.3992474803149602
21
-3.1190648031496062
0
LINE
8
BLACK
6
CONTINUOUS
10
6.3992474803149602
20
-3.1190648031496062
11
6.3940589370078742
21
-3.1340561417322834
0
LINE
8
BLACK
6
CONTINUOUS
10
6.3940589370078742
20
-3.1340561417322834
11
6.3874688582677166
21
-3.1484863779527559
0
LINE
8
BLACK
6
CONTINUOUS
10
6.3874688582677166
20
-3.1484863779527559
11
6.3795369685039365
21
-3.1622248425196848
0
LINE
8
BLACK
6
CONTINUOUS
10
6.3795369685039365
20
-3.1622248425196848
11
6.3703350393700786
21
-3.1751470866141731
0
LINE
8
BLACK
6
CONTINUOUS
10
6.3703350393700786
20
-3.1751470866141731
11
6.3599464566929136
21
-3.1871361811023622
0
LINE
8
BLACK
6
CONTINUOUS
10
6.3599464566929136
20
-3.1871361811023622
11
6.3484652755905513
21
-3.1980834645669289
0
LINE
8
BLACK
6
CONTINUOUS
10
6.3484652755905513
20
-3.1980834645669289
11
6.3359954724409446
21
-3.2078898031496061
0
LINE
8
BLACK
6
CONTINUOUS
10
6.3359954724409446
20
-3.2078898031496061
11
6.3226499999999994
21
-3.2164664173228346
0
LINE
8
BLACK
6
CONTINUOUS
10
6.3226499999999994
20
-3.2164664173228346
11
6.3085496850393703
21
-3.2237356692913384
0
LINE
8
BLACK
6
CONTINUOUS
10
6.3085496850393703
20
-3.2237356692913384
11
6.2938222440944882
21
-3.2296316535433069
0
LINE
8
BLACK
6
CONTINUOUS
10
6.2938222440944882
20
-3.2296316535433069
11
6.2786010236220475
21
-3.2341009842519686
0
LINE
8
BLACK
6
CONTINUOUS
10
6.2786010236220475
20
-3.2341009842519686
11
6.2630238976377948
21
-3.2371032283464567
0
LINE
8
BLACK
6
CONTINUOUS
10
6.2630238976377948
20
-3.2371032283464567
11
6.2472318897637793
21
-3.2386111811023621
0
LINE
8
BLACK
6
CONTINUOUS
10
6.2472318897637793
20
-3.2386111811023621
11
6.2313681102362199
21
-3.2386111811023621
0
LINE
8
BLACK
6
CONTINUOUS
10
6.2313681102362199
20
-3.2386111811023621
11
6.2155761023622045
21
-3.2371032283464567
0
LINE
8
BLACK
6
CONTINUOUS
10
6.2155761023622045
20
-3.2371032283464567
11
6.1999989763779526
21
-3.2341009842519686
0
LINE
8
BLACK
6
CONTINUOUS
10
6.1999989763779526
20
-3.2341009842519686
11
6.1847777559055119
21
-3.2296316535433069
0
LINE
8
BLACK
6
CONTINUOUS
10
6.1847777559055119
20
-3.2296316535433069
11
6.1700503149606298
21
-3.2237356692913384
0
LINE
8
BLACK
6
CONTINUOUS
10
6.1700503149606298
20
-3.2237356692913384
11
6.1559499999999998
21
-3.2164664173228346
0
LINE
8
BLACK
6
CONTINUOUS
10
6.1559499999999998
20
-3.2164664173228346
11
6.1426045275590546
21
-3.2078898031496061
0
LINE
8
BLACK
6
CONTINUOUS
10
6.1426045275590546
20
-3.2078898031496061
11
6.1301347244094488
21
-3.1980834645669289
0
LINE
8
BLACK
6
CONTINUOUS
10
6.1301347244094488
20
-3.1980834645669289
11
6.1186535433070866
21
-3.1871361811023622
0
LINE
8
BLACK
6
CONTINUOUS
10
6.1186535433070866
20
-3.1871361811023622
11
6.1082649606299215
21
-3.1751470866141731
0
LINE
8
BLACK
6
CONTINUOUS
10
6.1082649606299215
20
-3.1751470866141731
11
6.0990630314960628
21
-3.1622248425196848
0
LINE
8
BLACK
6
CONTINUOUS
10
6.0990630314960628
20
-3.1622248425196848
11
6.0911311417322835
21
-3.1484863779527559
0
LINE
8
BLACK
6
CONTINUOUS
10
6.0911311417322835
20
-3.1484863779527559
11
6.0845410629921259
21
-3.1340561417322834
0
LINE
8
BLACK
6
CONTINUOUS
10
6.0845410629921259
20
-3.1340561417322834
11
6.0793525196850391
21
-3.1190648031496062
0
LINE
8
BLACK
6
CONTINUOUS
10
6.0793525196850391
20
-3.1190648031496062
11
6.0756124803149607
21
-3.1036481889763778
0
LINE
8
BLACK
6
CONTINUOUS
10
6.0756124803149607
20
-3.1036481889763778
11
6.0733548425196853
21
-3.0879458267716533
0
LINE
8
BLACK
6
CONTINUOUS
10
6.0733548425196853
20
-3.0879458267716533
11
6.0727857874015747
21
-3.0760000000000001
0
LINE
8
BLACK
6
CONTINUOUS
10
6.0727857874015747
20
-3.0760000000000001
11
6.0672698425196847
21
-3.0760000000000001
0
LINE
8
BLACK
6
CONTINUOUS
10
6.0672698425196847
20
-3.0760000000000001
11
6.0668376771653545
21
-3.0761153543307085
0
LINE
8
BLACK
6
CONTINUOUS
10
6.0668376771653545
20
-3.0761153543307085
11
6.0639790157480311
21
-3.0762999999999998
0
LINE
8
BLACK
6
CONTINUOUS
10
6.0639790157480311
20
-3.0762999999999998
11
5.7513789763779526
21
-3.0760000000000001
0
LINE
8
BLACK
6
CONTINUOUS
10
5.7513789763779526
20
-3.0760000000000001
11
5.7360699999999998
21
-3.0760000000000001
0
LINE
8
BLACK
6
CONTINUOUS
10
5.7360699999999998
20
-3.0760000000000001
11
5.733555787401575
21
-3.0754998818897636
0
LINE
8
BLACK
6
CONTINUOUS
10
5.733555787401575
20
-3.0754998818897636
11
5.7314242913385822
21
-3.0740757086614172
0
LINE
8
BLACK
6
CONTINUOUS
10
5.7314242913385822
20
-3.0740757086614172
11
5.7300001181102358
21
-3.0719442125984253
0
LINE
8
BLACK
6
CONTINUOUS
10
5.7300001181102358
20
-3.0719442125984253
11
5.7294999999999998
21
-3.0694300000000001
0
LINE
8
BLACK
6
CONTINUOUS
10
5.7294999999999998
20
-3.0694300000000001
11
5.7294999999999998
21
-3.03877
0
LINE
8
BLACK
6
CONTINUOUS
10
5.7294999999999998
20
-3.03877
11
5.7300001181102358
21
-3.0362557874015748
0
LINE
8
BLACK
6
CONTINUOUS
10
5.7300001181102358
20
-3.0362557874015748
11
5.7314242913385822
21
-3.0341242913385824
0
LINE
8
BLACK
6
CONTINUOUS
10
5.7314242913385822
20
-3.0341242913385824
11
5.733555787401575
21
-3.032700118110236
0
LINE
8
BLACK
6
CONTINUOUS
10
5.733555787401575
20
-3.032700118110236
11
5.7360699999999998
21
-3.0322
0
LINE
8
BLACK
6
CONTINUOUS
10
5.7360699999999998
20
-3.0322
11
5.7667299999999999
21
-3.0322
0
LINE
8
BLACK
6
CONTINUOUS
10
5.7667299999999999
20
-3.0322
11
5.7668042125984247
21
-3.0322147244094486
0
LINE
8
BLACK
6
CONTINUOUS
10
5.7668042125984247
20
-3.0322147244094486
11
6.0460000000000003
21
-3.0324826771653544
0
LINE
8
BLACK
6
CONTINUOUS
10
6.0460000000000003
20
-3.0324826771653544
11
6.0460000000000003
21
-3.0322
0
LINE
8
BLACK
6
CONTINUOUS
10
6.0460000000000003
20
-3.0322
11
6.0727857874015747
21
-3.0322
0
LINE
8
BLACK
6
CONTINUOUS
10
6.0727857874015747
20
-3.0322
11
6.0733548425196853
21
-3.0202541732283463
0
LINE
8
BLACK
6
CONTINUOUS
10
6.0733548425196853
20
-3.0202541732283463
11
6.0756124803149607
21
-3.0045518110236218
0
LINE
8
BLACK
6
CONTINUOUS
10
6.0756124803149607
20
-3.0045518110236218
11
6.0793525196850391
21
-2.9891351968503934
0
LINE
8
BLACK
6
CONTINUOUS
10
6.0793525196850391
20
-2.9891351968503934
11
6.0845410629921259
21
-2.9741438582677167
0
LINE
8
BLACK
6
CONTINUOUS
10
6.0845410629921259
20
-2.9741438582677167
11
6.0911311417322835
21
-2.9597136220472442
0
LINE
8
BLACK
6
CONTINUOUS
10
6.0911311417322835
20
-2.9597136220472442
11
6.0990630314960628
21
-2.9459751574803148
0
LINE
8
BLACK
6
CONTINUOUS
10
6.0990630314960628
20
-2.9459751574803148
11
6.1082649606299215
21
-2.9330529133858265
0
LINE
8
BLACK
6
CONTINUOUS
10
6.1082649606299215
20
-2.9330529133858265
11
6.1186535433070866
21
-2.9210638188976379
0
LINE
8
BLACK
6
CONTINUOUS
10
6.1186535433070866
20
-2.9210638188976379
11
6.1301347244094488
21
-2.9101165354330707
0
LINE
8
BLACK
6
CONTINUOUS
10
6.1301347244094488
20
-2.9101165354330707
11
6.1426045275590546
21
-2.9003101968503935
0
LINE
8
BLACK
6
CONTINUOUS
10
6.1426045275590546
20
-2.9003101968503935
11
6.1559499999999998
21
-2.8917335826771651
0
LINE
8
BLACK
6
CONTINUOUS
10
6.1559499999999998
20
-2.8917335826771651
11
6.1700503149606298
21
-2.8844643307086613
0
LINE
8
BLACK
6
CONTINUOUS
10
6.1700503149606298
20
-2.8844643307086613
11
6.1847777559055119
21
-2.8785683464566927
0
LINE
8
BLACK
6
CONTINUOUS
10
6.1847777559055119
20
-2.8785683464566927
11
6.1999989763779526
21
-2.8740990157480315
0
LINE
8
BLACK
6
CONTINUOUS
10
6.1999989763779526
20
-2.8740990157480315
11
6.2155761023622045
21
-2.8710967716535434
0
LINE
8
BLACK
6
CONTINUOUS
10
6.2155761023622045
20
-2.8710967716535434
11
6.2313681102362199
21
-2.8695888188976379
0
LINE
8
BLACK
6
CONTINUOUS
10
6.2313681102362199
20
-2.8695888188976379
11
6.2472318897637793
21
-2.8695888188976379
0
LINE
8
BLACK
6
CONTINUOUS
10
6.2472318897637793
20
-2.8695888188976379
11
6.2630238976377948
21
-2.8710967716535434
0
LINE
8
BLACK
6
CONTINUOUS
10
6.2630238976377948
20
-2.8710967716535434
11
6.2786010236220475
21
-2.8740990157480315
0
LINE
8
BLACK
6
CONTINUOUS
10
6.2786010236220475
20
-2.8740990157480315
11
6.2938222440944882
21
-2.8785683464566927
0
LINE
8
BLACK
6
CONTINUOUS
10
6.2938222440944882
20
-2.8785683464566927
11
6.3085496850393703
21
-2.8844643307086613
0
LINE
8
BLACK
6
CONTINUOUS
10
6.3085496850393703
20
-2.8844643307086613
11
6.3226499999999994
21
-2.8917335826771651
0
LINE
8
BLACK
6
CONTINUOUS
10
6.3226499999999994
20
-2.8917335826771651
11
6.3359954724409446
21
-2.9003101968503935
0
LINE
8
BLACK
6
CONTINUOUS
10
6.3359954724409446
20
-2.9003101968503935
11
6.3484652755905513
21
-2.9101165354330707
0
LINE
8
BLACK
6
CONTINUOUS
10
6.3484652755905513
20
-2.9101165354330707
11
6.3599464566929136
21
-2.9210638188976379
0
LINE
8
BLACK
6
CONTINUOUS
10
6.3599464566929136
20
-2.9210638188976379
11
6.3703350393700786
21
-2.9330529133858265
0
LINE
8
BLACK
6
CONTINUOUS
10
6.3703350393700786
20
-2.9330529133858265
11
6.3795369685039365
21
-2.9459751574803148
0
LINE
8
BLACK
6
CONTINUOUS
10
6.3795369685039365
20
-2.9459751574803148
11
6.3874688582677166
21
-2.9597136220472442
0
LINE
8
BLACK
6
CONTINUOUS
10
6.3874688582677166
20
-2.9597136220472442
11
6.3940589370078742
21
-2.9741438582677167
0
LINE
8
BLACK
6
CONTINUOUS
10
6.3940589370078742
20
-2.9741438582677167
11
6.3992474803149602
21
-2.9891351968503934
0
LINE
8
BLACK
6
CONTINUOUS
10
6.3992474803149602
20
-2.9891351968503934
11
6.4029875196850394
21
-3.0045518110236218
0
LINE
8
BLACK
6
CONTINUOUS
10
6.4029875196850394
20
-3.0045518110236218
11
6.4043747244094487
21
-3.0141999999999998
0
LINE
8
BLACK
6
CONTINUOUS
10
6.4043747244094487
20
-3.0141999999999998
11
6.4103467322834646
21
-3.0141999999999998
0
LINE
8
BLACK
6
CONTINUOUS
10
6.4103467322834646
20
-3.0141999999999998
11
6.4103612992125987
21
-3.0139035039370077
0
LINE
8
BLACK
6
CONTINUOUS
10
6.4103612992125987
20
-3.0139035039370077
11
6.4126378346456692
21
-2.998556220472441
0
LINE
8
BLACK
6
CONTINUOUS
10
6.4126378346456692
20
-2.998556220472441
11
6.4164077165354332
21
-2.9835059842519684
0
LINE
8
BLACK
6
CONTINUOUS
10
6.4164077165354332
20
-2.9835059842519684
11
6.4216346456692914
21
-2.9688977559055116
0
LINE
8
BLACK
6
CONTINUOUS
10
6.4216346456692914
20
-2.9688977559055116
11
6.4282682677165353
21
-2.9548721653543306
0
LINE
8
BLACK
6
CONTINUOUS
10
6.4282682677165353
20
-2.9548721653543306
11
6.4362446456692908
21
-2.9415643307086614
0
LINE
8
BLACK
6
CONTINUOUS
10
6.4362446456692908
20
-2.9415643307086614
11
6.4454870472440939
21
-2.9291024409448818
0
LINE
8
BLACK
6
CONTINUOUS
10
6.4454870472440939
20
-2.9291024409448818
11
6.4559064173228347
21
-2.9176064173228347
0
LINE
8
BLACK
6
CONTINUOUS
10
6.4559064173228347
20
-2.9176064173228347
11
6.4674024409448814
21
-2.9071870472440944
0
LINE
8
BLACK
6
CONTINUOUS
10
6.4674024409448814
20
-2.9071870472440944
11
6.4798643307086614
21
-2.8979446456692912
0
LINE
8
BLACK
6
CONTINUOUS
10
6.4798643307086614
20
-2.8979446456692912
11
6.4931721653543306
21
-2.8899682677165353
0
LINE
8
BLACK
6
CONTINUOUS
10
6.4931721653543306
20
-2.8899682677165353
11
6.5071977559055121
21
-2.8833346456692914
0
LINE
8
BLACK
6
CONTINUOUS
10
6.5071977559055121
20
-2.8833346456692914
11
6.5218059842519684
21
-2.8781077165354332
0
LINE
8
BLACK
6
CONTINUOUS
10
6.5218059842519684
20
-2.8781077165354332
11
6.5368562204724405
21
-2.8743378346456692
0
LINE
8
BLACK
6
CONTINUOUS
10
6.5368562204724405
20
-2.8743378346456692
11
6.5522035039370081
21
-2.8720612992125982
0
LINE
8
BLACK
6
CONTINUOUS
10
6.5522035039370081
20
-2.8720612992125982
11
6.5676999999999994
21
-2.8712999999999997
0
LINE
8
BLACK
6
CONTINUOUS
10
6.5676999999999994
20
-2.8712999999999997
11
6.5831964960629916
21
-2.8720612992125982
0
LINE
8
BLACK
6
CONTINUOUS
10
6.5831964960629916
20
-2.8720612992125982
11
6.5985437795275592
21
-2.8743378346456692
0
LINE
8
BLACK
6
CONTINUOUS
10
6.5985437795275592
20
-2.8743378346456692
11
6.6135940157480313
21
-2.8781077165354332
0
LINE
8
BLACK
6
CONTINUOUS
10
6.6135940157480313
20
-2.8781077165354332
11
6.6282022440944877
21
-2.8833346456692914
0
LINE
8
BLACK
6
CONTINUOUS
10
6.6282022440944877
20
-2.8833346456692914
11
6.6422278346456691
21
-2.8899682677165353
0
LINE
8
BLACK
6
CONTINUOUS
10
6.6422278346456691
20
-2.8899682677165353
11
6.6555356692913383
21
-2.8979446456692912
0
LINE
8
BLACK
6
CONTINUOUS
10
6.6555356692913383
20
-2.8979446456692912
11
6.6679975590551184
21
-2.9071870472440944
0
LINE
8
BLACK
6
CONTINUOUS
10
6.6679975590551184
20
-2.9071870472440944
11
6.6794935826771651
21
-2.9176064173228347
0
LINE
8
BLACK
6
CONTINUOUS
10
6.6794935826771651
20
-2.9176064173228347
11
6.6899129527559049
21
-2.9291024409448818
0
LINE
8
BLACK
6
CONTINUOUS
10
6.6899129527559049
20
-2.9291024409448818
11
6.6991553543307081
21
-2.9415643307086614
0
LINE
8
BLACK
6
CONTINUOUS
10
6.6991553543307081
20
-2.9415643307086614
11
6.7071317322834645
21
-2.9548721653543306
0
LINE
8
BLACK
6
CONTINUOUS
10
6.7071317322834645
20
-2.9548721653543306
11
6.7137653543307083
21
-2.9688977559055116
0
LINE
8
BLACK
6
CONTINUOUS
10
6.7137653543307083
20
-2.9688977559055116
11
6.7189922834645666
21
-2.9835059842519684
0
LINE
8
BLACK
6
CONTINUOUS
10
6.7189922834645666
20
-2.9835059842519684
11
6.7227621653543306
21
-2.998556220472441
0
LINE
8
BLACK
6
CONTINUOUS
10
6.7227621653543306
20
-2.998556220472441
11
6.7228396062992122
21
-2.999078346456693
0
LINE
8
BLACK
6
CONTINUOUS
10
6.7228396062992122
20
-2.999078346456693
11
6.7336915748031494
21
-2.9969079527559055
0
LINE
8
BLACK
6
CONTINUOUS
10
6.7336915748031494
20
-2.9969079527559055
11
6.743610236220472
21
-2.9935232283464566
0
LINE
8
BLACK
6
CONTINUOUS
10
6.743610236220472
20
-2.9935232283464566
11
6.7535967716535428
21
-2.9897361417322834
0
LINE
8
BLACK
6
CONTINUOUS
10
6.7535967716535428
20
-2.9897361417322834
11
6.7625558661417324
21
-2.985962086614173
0
LINE
8
BLACK
6
CONTINUOUS
10
6.7625558661417324
20
-2.985962086614173
11
6.7706597244094491
21
-2.9821707086614171
0
LINE
8
BLACK
6
CONTINUOUS
10
6.7706597244094491
20
-2.9821707086614171
11
6.7779287795275591
21
-2.9783927952755906
0
LINE
8
BLACK
6
CONTINUOUS
10
6.7779287795275591
20
-2.9783927952755906
11
6.7844525590551177
21
-2.9746251968503938
0
LINE
8
BLACK
6
CONTINUOUS
10
6.7844525590551177
20
-2.9746251968503938
11
6.7903285433070861
21
-2.9708512598425196
0
LINE
8
BLACK
6
CONTINUOUS
10
6.7903285433070861
20
-2.9708512598425196
11
6.79533125984252
21
-2.9672757480314962
0
LINE
8
BLACK
6
CONTINUOUS
10
6.79533125984252
20
-2.9672757480314962
11
6.8045638188976376
21
-2.9595220866141734
0
LINE
8
BLACK
6
CONTINUOUS
10
6.8045638188976376
20
-2.9595220866141734
11
6.8120776771653544
21
-2.9516609448818896
0
LINE
8
BLACK
6
CONTINUOUS
10
6.8120776771653544
20
-2.9516609448818896
11
6.8187312992125984
21
-2.9429876377952757
0
LINE
8
BLACK
6
CONTINUOUS
10
6.8187312992125984
20
-2.9429876377952757
11
6.8254529527559056
21
-2.9322412598425198
0
LINE
8
BLACK
6
CONTINUOUS
10
6.8254529527559056
20
-2.9322412598425198
11
6.8306010236220471
21
-2.9229738188976375
0
LINE
8
BLACK
6
CONTINUOUS
10
6.8306010236220471
20
-2.9229738188976375
11
6.8306075196850395
21
-2.9229636614173229
0
LINE
8
BLACK
6
CONTINUOUS
10
6.8306075196850395
20
-2.9229636614173229
11
6.8306127165354331
21
-2.9229527952755903
0
LINE
8
BLACK
6
CONTINUOUS
10
6.8306127165354331
20
-2.9229527952755903
11
6.8361820866141727
21
-2.9129527559055117
0
LINE
8
BLACK
6
CONTINUOUS
10
6.8361820866141727
20
-2.9129527559055117
11
6.8364998031496063
21
-2.9124609448818899
0
LINE
8
BLACK
6
CONTINUOUS
10
6.8364998031496063
20
-2.9124609448818899
11
6.83677842519685
21
-2.9119462598425194
0
LINE
8
BLACK
6
CONTINUOUS
10
6.83677842519685
20
-2.9119462598425194
11
6.8428193307086609
21
-2.9023445669291337
0
LINE
8
BLACK
6
CONTINUOUS
10
6.8428193307086609
20
-2.9023445669291337
11
6.8434869291338583
21
-2.9014231496062992
0
LINE
8
BLACK
6
CONTINUOUS
10
6.8434869291338583
20
-2.9014231496062992
11
6.8441301181102361
21
-2.9004833070866143
0
LINE
8
BLACK
6
CONTINUOUS
10
6.8441301181102361
20
-2.9004833070866143
11
6.8512764566929132
21
-2.8913805905511811
0
LINE
8
BLACK
6
CONTINUOUS
10
6.8512764566929132
20
-2.8913805905511811
11
6.8520253937007869
21
-2.8905453937007874
0
LINE
8
BLACK
6
CONTINUOUS
10
6.8520253937007869
20
-2.8905453937007874
11
6.8527516141732283
21
-2.8896879527559056
0
LINE
8
BLACK
6
CONTINUOUS
10
6.8527516141732283
20
-2.8896879527559056
11
6.8569373622047243
21
-2.8853552362204722
0
LINE
8
BLACK
6
CONTINUOUS
10
6.8569373622047243
20
-2.8853552362204722
11
6.8575604724409445
21
-2.8847894488188977
0
LINE
8
BLACK
6
CONTINUOUS
10
6.8575604724409445
20
-2.8847894488188977
11
6.858152598425197
21
-2.8841903937007873
0
LINE
8
BLACK
6
CONTINUOUS
10
6.858152598425197
20
-2.8841903937007873
11
6.8628524409448817
21
-2.8800201181102363
0
LINE
8
BLACK
6
CONTINUOUS
10
6.8628524409448817
20
-2.8800201181102363
11
6.8635373228346452
21
-2.8794881889763779
0
LINE
8
BLACK
6
CONTINUOUS
10
6.8635373228346452
20
-2.8794881889763779
11
6.8641943307086617
21
-2.8789212204724408
0
LINE
8
BLACK
6
CONTINUOUS
10
6.8641943307086617
20
-2.8789212204724408
11
6.8694874409448818
21
-2.8749261023622048
0
LINE
8
BLACK
6
CONTINUOUS
10
6.8694874409448818
20
-2.8749261023622048
11
6.8702062598425195
21
-2.8744540157480314
0
LINE
8
BLACK
6
CONTINUOUS
10
6.8702062598425195
20
-2.8744540157480314
11
6.8708986220472443
21
-2.873945472440945
0
LINE
8
BLACK
6
CONTINUOUS
10
6.8708986220472443
20
-2.873945472440945
11
6.8768642125984254
21
-2.8701379921259842
0
LINE
8
BLACK
6
CONTINUOUS
10
6.8768642125984254
20
-2.8701379921259842
11
6.8775863779527562
21
-2.8697409842519686
0
LINE
8
BLACK
6
CONTINUOUS
10
6.8775863779527562
20
-2.8697409842519686
11
6.8782855511811025
21
-2.8693043700787402
0
LINE
8
BLACK
6
CONTINUOUS
10
6.8782855511811025
20
-2.8693043700787402
11
6.8850028740157478
21
-2.8656971653543306
0
LINE
8
BLACK
6
CONTINUOUS
10
6.8850028740157478
20
-2.8656971653543306
11
6.8857030708661418
21
-2.8653782677165354
0
LINE
8
BLACK
6
CONTINUOUS
10
6.8857030708661418
20
-2.8653782677165354
11
6.8863822047244092
21
-2.8650177559055119
0
LINE
8
BLACK
6
CONTINUOUS
10
6.8863822047244092
20
-2.8650177559055119
11
6.8939305511811018
21
-2.8616234645669292
0
LINE
8
BLACK
6
CONTINUOUS
10
6.8939305511811018
20
-2.8616234645669292
11
6.8945884645669286
21
-2.8613779527559053
0
LINE
8
BLACK
6
CONTINUOUS
10
6.8945884645669286
20
-2.8613779527559053
11
6.8952290551181097
21
-2.8610888976377953
0
LINE
8
BLACK
6
CONTINUOUS
10
6.8952290551181097
20
-2.8610888976377953
11
6.9036876377952758
21
-2.8579200393700788
0
LINE
8
BLACK
6
CONTINUOUS
10
6.9036876377952758
20
-2.8579200393700788
11
6.9042920472440947
21
-2.8577376771653542
0
LINE
8
BLACK
6
CONTINUOUS
10
6.9042920472440947
20
-2.8577376771653542
11
6.9048822047244096
21
-2.8575113385826771
0
LINE
8
BLACK
6
CONTINUOUS
10
6.9048822047244096
20
-2.8575113385826771
11
6.9143301968503934
21
-2.8545805118110237
0
LINE
8
BLACK
6
CONTINUOUS
10
6.9143301968503934
20
-2.8545805118110237
11
6.9148762992125983
21
-2.8544495275590549
0
LINE
8
BLACK
6
CONTINUOUS
10
6.9148762992125983
20
-2.8544495275590549
11
6.9154102362204721
21
-2.8542755905511812
0
LINE
8
BLACK
6
CONTINUOUS
10
6.9154102362204721
20
-2.8542755905511812
11
6.9259269685039371
21
-2.8515953543307084
0
LINE
8
BLACK
6
CONTINUOUS
10
6.9259269685039371
20
-2.8515953543307084
11
6.9264140157480316
21
-2.8515046456692912
0
LINE
8
BLACK
6
CONTINUOUS
10
6.9264140157480316
20
-2.8515046456692912
11
6.9268919291338582
21
-2.8513725196850395
0
LINE
8
BLACK
6
CONTINUOUS
10
6.9268919291338582
20
-2.8513725196850395
11
6.9385565354330705
21
-2.8489555118110235
0
LINE
8
BLACK
6
CONTINUOUS
10
6.9385565354330705
20
-2.8489555118110235
11
6.9398062598425199
21
-2.8487808267716535
0
LINE
8
BLACK
6
CONTINUOUS
10
6.9398062598425199
20
-2.8487808267716535
11
6.9401722440944882
21
-2.848683346456693
0
LINE
8
BLACK
6
CONTINUOUS
10
6.9401722440944882
20
-2.848683346456693
11
6.940785157480315
21
-2.8486440157480315
0
LINE
8
BLACK
6
CONTINUOUS
10
6.940785157480315
20
-2.8486440157480315
11
6.9413935826771649
21
-2.8485590157480316
0
LINE
8
BLACK
6
CONTINUOUS
10
6.9413935826771649
20
-2.8485590157480316
11
6.941771771653543
21
-2.848580748031496
0
LINE
8
BLACK
6
CONTINUOUS
10
6.941771771653543
20
-2.848580748031496
11
6.9430309842519682
21
-2.8485000393700788
0
LINE
8
BLACK
6
CONTINUOUS
10
6.9430309842519682
20
-2.8485000393700788
11
7.0843031889763779
21
-2.8487
  0
ENDSEC
  0
EOF
