  0
SECTION
  2
HEADER
  9
$ANGBASE
  50
0.0
  9
$ANGDIR
  70
1
  9
$MEASUREMENT
  70
0
  0
ENDSEC
  0
SECTION
  2
TABLES
  0
TABLE
  2
LTYPE
  70
4
  0
LTYPE
  5
40F
  2
CONTINUOUS
  70
0
  3
Solid line
  72
65
  73
0
  40
0.0
  0
LTYPE
  5
410
  2
DASHDOT
 70
0
  3
Dash Dot ____ _ ____ _
 72
65
 73
4
 40
2.0
 49
1.25
 49
-0.25
 49
0.25
 49
-0.25
  0
LTYPE
  5
411
  2
DASHED
 70
0
  3
Dashed __ __ __ __ __
 72
65
 73
2
 40
0.75
 49
0.5
 49
-0.25
  0
LTYPE
  5
43B
  2
DOTTED
 70
0
  3
Dotted .  .  .  .
 72
65
 73
2
 40
0.2
 49
0.0
 49
-0.2
  0
ENDTAB
  0
TABLE
  2
STYLE
  70
4
  0
STYLE
  2
KICAD
  70
0
  40
0
  41
1
  42
1
  50
0
  71
0
  3
isocp.shx
  0
STYLE
  2
KICADB
  70
0
  40
0
  41
1
  42
1
  50
0
  71
0
  3
isocp.shx
  0
STYLE
  2
KICADI
  70
0
  40
0
  41
1
  42
1
  50
15
  71
0
  3
isocp.shx
  0
STYLE
  2
KICADBI
  70
0
  40
0
  41
1
  42
1
  50
15
  71
0
  3
isocp.shx
  0
ENDTAB
  0
TABLE
  2
LAYER
  70
1
  0
LAYER
  2
BLACK
  70
0
  62
7
  6
CONTINUOUS
  0
ENDTAB
  0
ENDSEC
  0
SECTION
  2
ENTITIES
0
LINE
8
BLACK
6
CONTINUOUS
10
6.7986661023622048
20
-2.7529499999999998
11
6.8188531889763775
21
-2.7529499999999998
0
LINE
8
BLACK
6
CONTINUOUS
10
6.8188531889763775
20
-2.7529499999999998
11
6.8188531889763775
21
-2.7948499999999998
0
LINE
8
BLACK
6
CONTINUOUS
10
6.8188531889763775
20
-2.7948499999999998
11
6.7986661023622048
21
-2.7948499999999998
0
LINE
8
BLACK
6
CONTINUOUS
10
6.7986661023622048
20
-2.7948499999999998
11
6.7979031889763775
21
-2.7948999999999997
0
LINE
8
BLACK
6
CONTINUOUS
10
6.7979031889763775
20
-2.7948999999999997
11
6.7266016929133858
21
-2.7948999999999997
0
LINE
8
BLACK
6
CONTINUOUS
10
6.7266016929133858
20
-2.7948999999999997
11
6.4878440157480313
21
-3.0336576377952755
0
LINE
8
BLACK
6
CONTINUOUS
10
6.4878440157480313
20
-3.0336576377952755
11
6.4868982677165352
21
-3.0352957874015747
0
LINE
8
BLACK
6
CONTINUOUS
10
6.4868982677165352
20
-3.0352957874015747
11
6.4830218110236215
21
-3.0391722440944879
0
LINE
8
BLACK
6
CONTINUOUS
10
6.4830218110236215
20
-3.0391722440944879
11
6.4782741732283462
21
-3.0419132677165353
0
LINE
8
BLACK
6
CONTINUOUS
10
6.4782741732283462
20
-3.0419132677165353
11
6.4770383070866142
21
-3.042244409448819
0
LINE
8
BLACK
6
CONTINUOUS
10
6.4770383070866142
20
-3.042244409448819
11
6.4769395275590549
21
-3.0423014566929134
0
LINE
8
BLACK
6
CONTINUOUS
10
6.4769395275590549
20
-3.0423014566929134
11
6.4765898031496061
21
-3.042395157480315
0
LINE
8
BLACK
6
CONTINUOUS
10
6.4765898031496061
20
-3.042395157480315
11
6.4751415748031498
21
-3.0429520078740158
0
LINE
8
BLACK
6
CONTINUOUS
10
6.4751415748031498
20
-3.0429520078740158
11
6.4346415748031491
21
-3.0555520078740157
0
LINE
8
BLACK
6
CONTINUOUS
10
6.4346415748031491
20
-3.0555520078740157
11
6.4341950787401574
21
-3.0556594488188975
0
LINE
8
BLACK
6
CONTINUOUS
10
6.4341950787401574
20
-3.0556594488188975
11
6.4339720472440947
21
-3.0559932677165356
0
LINE
8
BLACK
6
CONTINUOUS
10
6.4339720472440947
20
-3.0559932677165356
11
6.4322477559055118
21
-3.0571454330708661
0
LINE
8
BLACK
6
CONTINUOUS
10
6.4322477559055118
20
-3.0571454330708661
11
6.4302137401574804
21
-3.0575499606299212
0
LINE
8
BLACK
6
CONTINUOUS
10
6.4302137401574804
20
-3.0575499606299212
11
6.4156437795275592
21
-3.05755
0
LINE
8
BLACK
6
CONTINUOUS
10
6.4156437795275592
20
-3.05755
11
6.4136098031496065
21
-3.0571454330708661
0
LINE
8
BLACK
6
CONTINUOUS
10
6.4136098031496065
20
-3.0571454330708661
11
6.4118855118110236
21
-3.0559932677165356
0
LINE
8
BLACK
6
CONTINUOUS
10
6.4118855118110236
20
-3.0559932677165356
11
6.4107333464566931
21
-3.0542689763779527
0
LINE
8
BLACK
6
CONTINUOUS
10
6.4107333464566931
20
-3.0542689763779527
11
6.4103288188976375
21
-3.0522349606299213
0
LINE
8
BLACK
6
CONTINUOUS
10
6.4103288188976375
20
-3.0522349606299213
11
6.4103287795275588
21
-3.0508348031496064
0
LINE
8
BLACK
6
CONTINUOUS
10
6.4103287795275588
20
-3.0508348031496064
11
6.4100575984251966
21
-3.0505218110236219
0
LINE
8
BLACK
6
CONTINUOUS
10
6.4100575984251966
20
-3.0505218110236219
11
6.4082485433070868
21
-3.0465605118110237
0
LINE
8
BLACK
6
CONTINUOUS
10
6.4082485433070868
20
-3.0465605118110237
11
6.4076287795275588
21
-3.0422500000000001
0
LINE
8
BLACK
6
CONTINUOUS
10
6.4076287795275588
20
-3.0422500000000001
11
6.4076287795275588
21
-3.0387276771653542
0
LINE
8
BLACK
6
CONTINUOUS
10
6.4076287795275588
20
-3.0387276771653542
11
6.406164133858268
21
-3.031836929133858
0
LINE
8
BLACK
6
CONTINUOUS
10
6.406164133858268
20
-3.031836929133858
11
6.4032987795275593
21
-3.0254012992125983
0
LINE
8
BLACK
6
CONTINUOUS
10
6.4032987795275593
20
-3.0254012992125983
11
6.3991580314960625
21
-3.0197020472440945
0
LINE
8
BLACK
6
CONTINUOUS
10
6.3991580314960625
20
-3.0197020472440945
11
6.3939228346456689
21
-3.0149882283464566
0
LINE
8
BLACK
6
CONTINUOUS
10
6.3939228346456689
20
-3.0149882283464566
11
6.3878219685039372
21
-3.0114659055118111
0
LINE
8
BLACK
6
CONTINUOUS
10
6.3878219685039372
20
-3.0114659055118111
11
6.3811220866141731
21
-3.0092889763779529
0
LINE
8
BLACK
6
CONTINUOUS
10
6.3811220866141731
20
-3.0092889763779529
11
6.3741159842519686
21
-3.0085525984251968
0
LINE
8
BLACK
6
CONTINUOUS
10
6.3741159842519686
20
-3.0085525984251968
11
6.367109881889764
21
-3.0092889763779529
0
LINE
8
BLACK
6
CONTINUOUS
10
6.367109881889764
20
-3.0092889763779529
11
6.3604099999999999
21
-3.0114659055118111
0
LINE
8
BLACK
6
CONTINUOUS
10
6.3604099999999999
20
-3.0114659055118111
11
6.3543091338582673
21
-3.0149882283464566
0
LINE
8
BLACK
6
CONTINUOUS
10
6.3543091338582673
20
-3.0149882283464566
11
6.3490739370078737
21
-3.0197020472440945
0
LINE
8
BLACK
6
CONTINUOUS
10
6.3490739370078737
20
-3.0197020472440945
11
6.3449331889763778
21
-3.0254012992125983
0
LINE
8
BLACK
6
CONTINUOUS
10
6.3449331889763778
20
-3.0254012992125983
11
6.3420678346456691
21
-3.031836929133858
0
LINE
8
BLACK
6
CONTINUOUS
10
6.3420678346456691
20
-3.031836929133858
11
6.3406031889763774
21
-3.0387276771653542
0
LINE
8
BLACK
6
CONTINUOUS
10
6.3406031889763774
20
-3.0387276771653542
11
6.3406031889763774
21
-3.0422500000000001
0
LINE
8
BLACK
6
CONTINUOUS
10
6.3406031889763774
20
-3.0422500000000001
11
6.3399834251968503
21
-3.0465605118110237
0
LINE
8
BLACK
6
CONTINUOUS
10
6.3399834251968503
20
-3.0465605118110237
11
6.3381743700787396
21
-3.0505218110236219
0
LINE
8
BLACK
6
CONTINUOUS
10
6.3381743700787396
20
-3.0505218110236219
11
6.3353225590551183
21
-3.0538129527559055
0
LINE
8
BLACK
6
CONTINUOUS
10
6.3353225590551183
20
-3.0538129527559055
11
6.3316590551181102
21
-3.0561673622047243
0
LINE
8
BLACK
6
CONTINUOUS
10
6.3316590551181102
20
-3.0561673622047243
11
6.3274805905511808
21
-3.0573942519685038
0
LINE
8
BLACK
6
CONTINUOUS
10
6.3274805905511808
20
-3.0573942519685038
11
6.3231257874015743
21
-3.0573942519685038
0
LINE
8
BLACK
6
CONTINUOUS
10
6.3231257874015743
20
-3.0573942519685038
11
6.322828503937008
21
-3.0573069291338584
0
LINE
8
BLACK
6
CONTINUOUS
10
6.322828503937008
20
-3.0573069291338584
11
6.3218068503937008
21
-3.0575601181102363
0
LINE
8
BLACK
6
CONTINUOUS
10
6.3218068503937008
20
-3.0575601181102363
11
6.3199318503937008
21
-3.0576474409448817
0
LINE
8
BLACK
6
CONTINUOUS
10
6.3199318503937008
20
-3.0576474409448817
11
6.3055642519685042
21
-3.0573757086614171
0
LINE
8
BLACK
6
CONTINUOUS
10
6.3055642519685042
20
-3.0573757086614171
11
6.3046881496062994
21
-3.0575499606299212
0
LINE
8
BLACK
6
CONTINUOUS
10
6.3046881496062994
20
-3.0575499606299212
11
6.2901181889763782
21
-3.05755
0
LINE
8
BLACK
6
CONTINUOUS
10
6.2901181889763782
20
-3.05755
11
6.2880842125984246
21
-3.0571454330708661
0
LINE
8
BLACK
6
CONTINUOUS
10
6.2880842125984246
20
-3.0571454330708661
11
6.2863599212598427
21
-3.0559932677165356
0
LINE
8
BLACK
6
CONTINUOUS
10
6.2863599212598427
20
-3.0559932677165356
11
6.2852077559055113
21
-3.0542689763779527
0
LINE
8
BLACK
6
CONTINUOUS
10
6.2852077559055113
20
-3.0542689763779527
11
6.2848032283464565
21
-3.0522349606299213
0
LINE
8
BLACK
6
CONTINUOUS
10
6.2848032283464565
20
-3.0522349606299213
11
6.2848031889763778
21
-3.0445445275590552
0
LINE
8
BLACK
6
CONTINUOUS
10
6.2848031889763778
20
-3.0445445275590552
11
6.2847930708661419
21
-3.0445036614173229
0
LINE
8
BLACK
6
CONTINUOUS
10
6.2847930708661419
20
-3.0445036614173229
11
6.2848031889763778
21
-3.0439681102362206
0
LINE
8
BLACK
6
CONTINUOUS
10
6.2848031889763778
20
-3.0439681102362206
11
6.2848031889763778
21
-3.0416050000000001
0
LINE
8
BLACK
6
CONTINUOUS
10
6.2848031889763778
20
-3.0416050000000001
11
6.2848525590551176
21
-3.041356653543307
0
LINE
8
BLACK
6
CONTINUOUS
10
6.2848525590551176
20
-3.041356653543307
11
6.2848638976377948
21
-3.0407582677165355
0
LINE
8
BLACK
6
CONTINUOUS
10
6.2848638976377948
20
-3.0407582677165355
11
6.285901732283464
21
-3.0371587795275592
0
LINE
8
BLACK
6
CONTINUOUS
10
6.285901732283464
20
-3.0371587795275592
11
6.2878357874015744
21
-3.0339505905511812
0
LINE
8
BLACK
6
CONTINUOUS
10
6.2878357874015744
20
-3.0339505905511812
11
6.2879763779527558
21
-3.0338151968503935
0
LINE
8
BLACK
6
CONTINUOUS
10
6.2879763779527558
20
-3.0338151968503935
11
6.2859762992125985
21
-3.0279892125984249
0
LINE
8
BLACK
6
CONTINUOUS
10
6.2859762992125985
20
-3.0279892125984249
11
6.2818647637795273
21
-3.0203917322834646
0
LINE
8
BLACK
6
CONTINUOUS
10
6.2818647637795273
20
-3.0203917322834646
11
6.2765587795275586
21
-3.0135746456692911
0
LINE
8
BLACK
6
CONTINUOUS
10
6.2765587795275586
20
-3.0135746456692911
11
6.2702031102362206
21
-3.0077238188976376
0
LINE
8
BLACK
6
CONTINUOUS
10
6.2702031102362206
20
-3.0077238188976376
11
6.2629711023622043
21
-3.0029989370078738
0
LINE
8
BLACK
6
CONTINUOUS
10
6.2629711023622043
20
-3.0029989370078738
11
6.255060039370079
21
-2.9995288188976379
0
LINE
8
BLACK
6
CONTINUOUS
10
6.255060039370079
20
-2.9995288188976379
11
6.2466857480314957
21
-2.997408149606299
0
LINE
8
BLACK
6
CONTINUOUS
10
6.2466857480314957
20
-2.997408149606299
11
6.2380765748031495
21
-2.9966947637795274
0
LINE
8
BLACK
6
CONTINUOUS
10
6.2380765748031495
20
-2.9966947637795274
11
6.2294674015748033
21
-2.997408149606299
0
LINE
8
BLACK
6
CONTINUOUS
10
6.2294674015748033
20
-2.997408149606299
11
6.2210931102362199
21
-2.9995288188976379
0
LINE
8
BLACK
6
CONTINUOUS
10
6.2210931102362199
20
-2.9995288188976379
11
6.2131820472440946
21
-3.0029989370078738
0
LINE
8
BLACK
6
CONTINUOUS
10
6.2131820472440946
20
-3.0029989370078738
11
6.2059500393700784
21
-3.0077238188976376
0
LINE
8
BLACK
6
CONTINUOUS
10
6.2059500393700784
20
-3.0077238188976376
11
6.1995943700787404
21
-3.0135746456692911
0
LINE
8
BLACK
6
CONTINUOUS
10
6.1995943700787404
20
-3.0135746456692911
11
6.1942883858267717
21
-3.0203917322834646
0
LINE
8
BLACK
6
CONTINUOUS
10
6.1942883858267717
20
-3.0203917322834646
11
6.1901768503937005
21
-3.0279892125984249
0
LINE
8
BLACK
6
CONTINUOUS
10
6.1901768503937005
20
-3.0279892125984249
11
6.187371850393701
21
-3.0361598425196852
0
LINE
8
BLACK
6
CONTINUOUS
10
6.187371850393701
20
-3.0361598425196852
11
6.1859500000000001
21
-3.0446806692913384
0
LINE
8
BLACK
6
CONTINUOUS
10
6.1859500000000001
20
-3.0446806692913384
11
6.1859500000000001
21
-3.0459999999999998
0
LINE
8
BLACK
6
CONTINUOUS
10
6.1859500000000001
20
-3.0459999999999998
11
6.1859999999999999
21
-3.0459999999999998
0
LINE
8
BLACK
6
CONTINUOUS
10
6.1859999999999999
20
-3.0459999999999998
11
6.1859999999999999
21
-3.0880000000000001
0
LINE
8
BLACK
6
CONTINUOUS
10
6.1859999999999999
20
-3.0880000000000001
11
6.1858316141732281
21
-3.0880000000000001
0
LINE
8
BLACK
6
CONTINUOUS
10
6.1858316141732281
20
-3.0880000000000001
11
6.1872496456692909
21
-3.0964978346456693
0
LINE
8
BLACK
6
CONTINUOUS
10
6.1872496456692909
20
-3.0964978346456693
11
6.1900546456692913
21
-3.1046684645669291
0
LINE
8
BLACK
6
CONTINUOUS
10
6.1900546456692913
20
-3.1046684645669291
11
6.1941661811023625
21
-3.1122659448818899
0
LINE
8
BLACK
6
CONTINUOUS
10
6.1941661811023625
20
-3.1122659448818899
11
6.1994721653543303
21
-3.1190830314960629
0
LINE
8
BLACK
6
CONTINUOUS
10
6.1994721653543303
20
-3.1190830314960629
11
6.2058278346456692
21
-3.1249338582677164
0
LINE
8
BLACK
6
CONTINUOUS
10
6.2058278346456692
20
-3.1249338582677164
11
6.2130598425196846
21
-3.1296587401574802
0
LINE
8
BLACK
6
CONTINUOUS
10
6.2130598425196846
20
-3.1296587401574802
11
6.2209709055118108
21
-3.1331288582677166
0
LINE
8
BLACK
6
CONTINUOUS
10
6.2209709055118108
20
-3.1331288582677166
11
6.2293451968503932
21
-3.1352495275590551
0
LINE
8
BLACK
6
CONTINUOUS
10
6.2293451968503932
20
-3.1352495275590551
11
6.2379543700787403
21
-3.1359629133858267
0
LINE
8
BLACK
6
CONTINUOUS
10
6.2379543700787403
20
-3.1359629133858267
11
6.2465635433070865
21
-3.1352495275590551
0
LINE
8
BLACK
6
CONTINUOUS
10
6.2465635433070865
20
-3.1352495275590551
11
6.254937834645669
21
-3.1331288582677166
0
LINE
8
BLACK
6
CONTINUOUS
10
6.254937834645669
20
-3.1331288582677166
11
6.2628488976377952
21
-3.1296587401574802
0
LINE
8
BLACK
6
CONTINUOUS
10
6.2628488976377952
20
-3.1296587401574802
11
6.2700809055118105
21
-3.1249338582677164
0
LINE
8
BLACK
6
CONTINUOUS
10
6.2700809055118105
20
-3.1249338582677164
11
6.2764365748031494
21
-3.1190830314960629
0
LINE
8
BLACK
6
CONTINUOUS
10
6.2764365748031494
20
-3.1190830314960629
11
6.2817425590551181
21
-3.1122659448818899
0
LINE
8
BLACK
6
CONTINUOUS
10
6.2817425590551181
20
-3.1122659448818899
11
6.2858540944881884
21
-3.1046684645669291
0
LINE
8
BLACK
6
CONTINUOUS
10
6.2858540944881884
20
-3.1046684645669291
11
6.2875612204724405
21
-3.0996957480314959
0
LINE
8
BLACK
6
CONTINUOUS
10
6.2875612204724405
20
-3.0996957480314959
11
6.2857203149606296
21
-3.0965072440944881
0
LINE
8
BLACK
6
CONTINUOUS
10
6.2857203149606296
20
-3.0965072440944881
11
6.2847507480314961
21
-3.0928887795275588
0
LINE
8
BLACK
6
CONTINUOUS
10
6.2847507480314961
20
-3.0928887795275588
11
6.2847507480314961
21
-3.089142716535433
0
LINE
8
BLACK
6
CONTINUOUS
10
6.2847507480314961
20
-3.089142716535433
11
6.2848031889763778
21
-3.0889468897637795
0
LINE
8
BLACK
6
CONTINUOUS
10
6.2848031889763778
20
-3.0889468897637795
11
6.2848031889763778
21
-3.0817649999999999
0
LINE
8
BLACK
6
CONTINUOUS
10
6.2848031889763778
20
-3.0817649999999999
11
6.2852077559055113
21
-3.0797310236220472
0
LINE
8
BLACK
6
CONTINUOUS
10
6.2852077559055113
20
-3.0797310236220472
11
6.2863599212598427
21
-3.0780067322834643
0
LINE
8
BLACK
6
CONTINUOUS
10
6.2863599212598427
20
-3.0780067322834643
11
6.2880842125984246
21
-3.0768545669291338
0
LINE
8
BLACK
6
CONTINUOUS
10
6.2880842125984246
20
-3.0768545669291338
11
6.290118228346457
21
-3.0764500393700787
0
LINE
8
BLACK
6
CONTINUOUS
10
6.290118228346457
20
-3.0764500393700787
11
6.3046881889763782
21
-3.0764499999999999
0
LINE
8
BLACK
6
CONTINUOUS
10
6.3046881889763782
20
-3.0764499999999999
11
6.3057728740157479
21
-3.0766657480314961
0
LINE
8
BLACK
6
CONTINUOUS
10
6.3057728740157479
20
-3.0766657480314961
11
6.3219279921259837
21
-3.0766657480314961
0
LINE
8
BLACK
6
CONTINUOUS
10
6.3219279921259837
20
-3.0766657480314961
11
6.3227361811023624
21
-3.0767187007874015
0
LINE
8
BLACK
6
CONTINUOUS
10
6.3227361811023624
20
-3.0767187007874015
11
6.3231226771653546
21
-3.0766052362204723
0
LINE
8
BLACK
6
CONTINUOUS
10
6.3231226771653546
20
-3.0766052362204723
11
6.3274774803149603
21
-3.0766052362204723
0
LINE
8
BLACK
6
CONTINUOUS
10
6.3274774803149603
20
-3.0766052362204723
11
6.3316559448818897
21
-3.0778321259842518
0
LINE
8
BLACK
6
CONTINUOUS
10
6.3316559448818897
20
-3.0778321259842518
11
6.3353194488188977
21
-3.0801865354330706
0
LINE
8
BLACK
6
CONTINUOUS
10
6.3353194488188977
20
-3.0801865354330706
11
6.3381712598425199
21
-3.0834776771653543
0
LINE
8
BLACK
6
CONTINUOUS
10
6.3381712598425199
20
-3.0834776771653543
11
6.3399803149606297
21
-3.0874389763779528
0
LINE
8
BLACK
6
CONTINUOUS
10
6.3399803149606297
20
-3.0874389763779528
11
6.3406000787401577
21
-3.0917494881889764
0
LINE
8
BLACK
6
CONTINUOUS
10
6.3406000787401577
20
-3.0917494881889764
11
6.3406000787401577
21
-3.0952718110236219
0
LINE
8
BLACK
6
CONTINUOUS
10
6.3406000787401577
20
-3.0952718110236219
11
6.3420647244094486
21
-3.1021625590551181
0
LINE
8
BLACK
6
CONTINUOUS
10
6.3420647244094486
20
-3.1021625590551181
11
6.3449300787401572
21
-3.1085981889763779
0
LINE
8
BLACK
6
CONTINUOUS
10
6.3449300787401572
20
-3.1085981889763779
11
6.3490708267716531
21
-3.114297440944882
0
LINE
8
BLACK
6
CONTINUOUS
10
6.3490708267716531
20
-3.114297440944882
11
6.3543060236220468
21
-3.1190112598425195
0
LINE
8
BLACK
6
CONTINUOUS
10
6.3543060236220468
20
-3.1190112598425195
11
6.3604068897637793
21
-3.1225335826771654
0
LINE
8
BLACK
6
CONTINUOUS
10
6.3604068897637793
20
-3.1225335826771654
11
6.3671067716535434
21
-3.1247105118110237
0
LINE
8
BLACK
6
CONTINUOUS
10
6.3671067716535434
20
-3.1247105118110237
11
6.374112874015748
21
-3.1254468897637793
0
LINE
8
BLACK
6
CONTINUOUS
10
6.374112874015748
20
-3.1254468897637793
11
6.3811189763779526
21
-3.1247105118110237
0
LINE
8
BLACK
6
CONTINUOUS
10
6.3811189763779526
20
-3.1247105118110237
11
6.3878188582677167
21
-3.1225335826771654
0
LINE
8
BLACK
6
CONTINUOUS
10
6.3878188582677167
20
-3.1225335826771654
11
6.3939197244094483
21
-3.1190112598425195
0
LINE
8
BLACK
6
CONTINUOUS
10
6.3939197244094483
20
-3.1190112598425195
11
6.399154921259842
21
-3.114297440944882
0
LINE
8
BLACK
6
CONTINUOUS
10
6.399154921259842
20
-3.114297440944882
11
6.4032956692913388
21
-3.1085981889763779
0
LINE
8
BLACK
6
CONTINUOUS
10
6.4032956692913388
20
-3.1085981889763779
11
6.4061610236220474
21
-3.1021625590551181
0
LINE
8
BLACK
6
CONTINUOUS
10
6.4061610236220474
20
-3.1021625590551181
11
6.4076256692913383
21
-3.0952718110236219
0
LINE
8
BLACK
6
CONTINUOUS
10
6.4076256692913383
20
-3.0952718110236219
11
6.4076256692913383
21
-3.0917494881889764
0
LINE
8
BLACK
6
CONTINUOUS
10
6.4076256692913383
20
-3.0917494881889764
11
6.4082454330708662
21
-3.0874389763779528
0
LINE
8
BLACK
6
CONTINUOUS
10
6.4082454330708662
20
-3.0874389763779528
11
6.4100544881889761
21
-3.0834776771653543
0
LINE
8
BLACK
6
CONTINUOUS
10
6.4100544881889761
20
-3.0834776771653543
11
6.4103287795275588
21
-3.0831611023622045
0
LINE
8
BLACK
6
CONTINUOUS
10
6.4103287795275588
20
-3.0831611023622045
11
6.4103287795275588
21
-3.0817649999999999
0
LINE
8
BLACK
6
CONTINUOUS
10
6.4103287795275588
20
-3.0817649999999999
11
6.4107333464566931
21
-3.0797310236220472
0
LINE
8
BLACK
6
CONTINUOUS
10
6.4107333464566931
20
-3.0797310236220472
11
6.4118855118110236
21
-3.0780067322834643
0
LINE
8
BLACK
6
CONTINUOUS
10
6.4118855118110236
20
-3.0780067322834643
11
6.4136098031496065
21
-3.0768545669291338
0
LINE
8
BLACK
6
CONTINUOUS
10
6.4136098031496065
20
-3.0768545669291338
11
6.4156438188976379
21
-3.0764500393700787
0
LINE
8
BLACK
6
CONTINUOUS
10
6.4156438188976379
20
-3.0764500393700787
11
6.4302137795275591
21
-3.0764499999999999
0
LINE
8
BLACK
6
CONTINUOUS
10
6.4302137795275591
20
-3.0764499999999999
11
6.4322477559055118
21
-3.0768545669291338
0
LINE
8
BLACK
6
CONTINUOUS
10
6.4322477559055118
20
-3.0768545669291338
11
6.4339720472440947
21
-3.0780067322834643
0
LINE
8
BLACK
6
CONTINUOUS
10
6.4339720472440947
20
-3.0780067322834643
11
6.4341950787401574
21
-3.0783405118110236
0
LINE
8
BLACK
6
CONTINUOUS
10
6.4341950787401574
20
-3.0783405118110236
11
6.4346415748031491
21
-3.0784479921259842
0
LINE
8
BLACK
6
CONTINUOUS
10
6.4346415748031491
20
-3.0784479921259842
11
6.4751415748031498
21
-3.0910479921259841
0
LINE
8
BLACK
6
CONTINUOUS
10
6.4751415748031498
20
-3.0910479921259841
11
6.4759468503937008
21
-3.0913575984251969
0
LINE
8
BLACK
6
CONTINUOUS
10
6.4759468503937008
20
-3.0913575984251969
11
6.4786678740157475
21
-3.0920867322834646
0
LINE
8
BLACK
6
CONTINUOUS
10
6.4786678740157475
20
-3.0920867322834646
11
6.4834155118110237
21
-3.094827755905512
0
LINE
8
BLACK
6
CONTINUOUS
10
6.4834155118110237
20
-3.094827755905512
11
6.4872919685039365
21
-3.0987042125984252
0
LINE
8
BLACK
6
CONTINUOUS
10
6.4872919685039365
20
-3.0987042125984252
11
6.4887755118110233
21
-3.1012738188976376
0
LINE
8
BLACK
6
CONTINUOUS
10
6.4887755118110233
20
-3.1012738188976376
11
6.7266016929133858
21
-3.3390999999999997
0
LINE
8
BLACK
6
CONTINUOUS
10
6.7266016929133858
20
-3.3390999999999997
11
6.7979031889763775
21
-3.3390999999999997
0
LINE
8
BLACK
6
CONTINUOUS
10
6.7979031889763775
20
-3.3390999999999997
11
6.7986661023622048
21
-3.3391500000000001
0
LINE
8
BLACK
6
CONTINUOUS
10
6.7986661023622048
20
-3.3391500000000001
11
6.8188531889763775
21
-3.3391500000000001
0
LINE
8
BLACK
6
CONTINUOUS
10
6.8188531889763775
20
-3.3391500000000001
11
6.8188531889763775
21
-3.3810500000000001
0
LINE
8
BLACK
6
CONTINUOUS
10
6.8188531889763775
20
-3.3810500000000001
11
6.7986661023622048
21
-3.3810500000000001
0
LINE
8
BLACK
6
CONTINUOUS
10
6.7986661023622048
20
-3.3810500000000001
11
6.7979031889763775
21
-3.3811
0
LINE
8
BLACK
6
CONTINUOUS
10
6.7979031889763775
20
-3.3811
11
6.7179031889763774
21
-3.3811
0
LINE
8
BLACK
6
CONTINUOUS
10
6.7179031889763774
20
-3.3811
11
6.7151621259842518
21
-3.3809203543307085
0
LINE
8
BLACK
6
CONTINUOUS
10
6.7151621259842518
20
-3.3809203543307085
11
6.7098668503937002
21
-3.3795014566929131
0
LINE
8
BLACK
6
CONTINUOUS
10
6.7098668503937002
20
-3.3795014566929131
11
6.7051192125984249
21
-3.3767604330708663
0
LINE
8
BLACK
6
CONTINUOUS
10
6.7051192125984249
20
-3.3767604330708663
11
6.7030539370078737
21
-3.3749492519685038
0
LINE
8
BLACK
6
CONTINUOUS
10
6.7030539370078737
20
-3.3749492519685038
11
6.4577175590551184
21
-3.1296128740157481
0
LINE
8
BLACK
6
CONTINUOUS
10
6.4577175590551184
20
-3.1296128740157481
11
6.4308944488188979
21
-3.1212678740157478
0
LINE
8
BLACK
6
CONTINUOUS
10
6.4308944488188979
20
-3.1212678740157478
11
6.4270853543307087
21
-3.1278655118110237
0
LINE
8
BLACK
6
CONTINUOUS
10
6.4270853543307087
20
-3.1278655118110237
11
6.4211108661417322
21
-3.1353572440944881
0
LINE
8
BLACK
6
CONTINUOUS
10
6.4211108661417322
20
-3.1353572440944881
11
6.4140865354330705
21
-3.1418748818897635
0
LINE
8
BLACK
6
CONTINUOUS
10
6.4140865354330705
20
-3.1418748818897635
11
6.4061692913385828
21
-3.1472727952755903
0
LINE
8
BLACK
6
CONTINUOUS
10
6.4061692913385828
20
-3.1472727952755903
11
6.3975359055118108
21
-3.1514303937007875
0
LINE
8
BLACK
6
CONTINUOUS
10
6.3975359055118108
20
-3.1514303937007875
11
6.3883793307086609
21
-3.154254842519685
0
LINE
8
BLACK
6
CONTINUOUS
10
6.3883793307086609
20
-3.154254842519685
11
6.3789040157480317
21
-3.1556829921259841
0
LINE
8
BLACK
6
CONTINUOUS
10
6.3789040157480317
20
-3.1556829921259841
11
6.3693217322834643
21
-3.1556829921259841
0
LINE
8
BLACK
6
CONTINUOUS
10
6.3693217322834643
20
-3.1556829921259841
11
6.3598464173228342
21
-3.154254842519685
0
LINE
8
BLACK
6
CONTINUOUS
10
6.3598464173228342
20
-3.154254842519685
11
6.3506898425196852
21
-3.1514303937007875
0
LINE
8
BLACK
6
CONTINUOUS
10
6.3506898425196852
20
-3.1514303937007875
11
6.3420564960629919
21
-3.1472727952755903
0
LINE
8
BLACK
6
CONTINUOUS
10
6.3420564960629919
20
-3.1472727952755903
11
6.3341392125984255
21
-3.1418748818897635
0
LINE
8
BLACK
6
CONTINUOUS
10
6.3341392125984255
20
-3.1418748818897635
11
6.3271148818897638
21
-3.1353572440944881
0
LINE
8
BLACK
6
CONTINUOUS
10
6.3271148818897638
20
-3.1353572440944881
11
6.3211403937007873
21
-3.1278655118110237
0
LINE
8
BLACK
6
CONTINUOUS
10
6.3211403937007873
20
-3.1278655118110237
11
6.3163492519685036
21
-3.1195669685039369
0
LINE
8
BLACK
6
CONTINUOUS
10
6.3163492519685036
20
-3.1195669685039369
11
6.31284842519685
21
-3.1106470472440946
0
LINE
8
BLACK
6
CONTINUOUS
10
6.31284842519685
20
-3.1106470472440946
11
6.3116430314960628
21
-3.1053657480314958
0
LINE
8
BLACK
6
CONTINUOUS
10
6.3116430314960628
20
-3.1053657480314958
11
6.3007015354330704
21
-3.1053657480314958
0
LINE
8
BLACK
6
CONTINUOUS
10
6.3007015354330704
20
-3.1053657480314958
11
6.2978927559055116
21
-3.1125224803149605
0
LINE
8
BLACK
6
CONTINUOUS
10
6.2978927559055116
20
-3.1125224803149605
11
6.292921220472441
21
-3.1211334251968501
0
LINE
8
BLACK
6
CONTINUOUS
10
6.292921220472441
20
-3.1211334251968501
11
6.2867218110236216
21
-3.1289072440944881
0
LINE
8
BLACK
6
CONTINUOUS
10
6.2867218110236216
20
-3.1289072440944881
11
6.2794329921259839
21
-3.1356702362204723
0
LINE
8
BLACK
6
CONTINUOUS
10
6.2794329921259839
20
-3.1356702362204723
11
6.2712176771653541
21
-3.1412713779527559
0
LINE
8
BLACK
6
CONTINUOUS
10
6.2712176771653541
20
-3.1412713779527559
11
6.2622592519685041
21
-3.1455855118110234
0
LINE
8
BLACK
6
CONTINUOUS
10
6.2622592519685041
20
-3.1455855118110234
11
6.2527579133858264
21
-3.1485162992125986
0
LINE
8
BLACK
6
CONTINUOUS
10
6.2527579133858264
20
-3.1485162992125986
11
6.2429259055118109
21
-3.1499982283464565
0
LINE
8
BLACK
6
CONTINUOUS
10
6.2429259055118109
20
-3.1499982283464565
11
6.2329828346456688
21
-3.1499982283464565
0
LINE
8
BLACK
6
CONTINUOUS
10
6.2329828346456688
20
-3.1499982283464565
11
6.2231508267716533
21
-3.1485162992125986
0
LINE
8
BLACK
6
CONTINUOUS
10
6.2231508267716533
20
-3.1485162992125986
11
6.2136494881889766
21
-3.1455855118110234
0
LINE
8
BLACK
6
CONTINUOUS
10
6.2136494881889766
20
-3.1455855118110234
11
6.2046911023622044
21
-3.1412713779527559
0
LINE
8
BLACK
6
CONTINUOUS
10
6.2046911023622044
20
-3.1412713779527559
11
6.1964757480314958
21
-3.1356702362204723
0
LINE
8
BLACK
6
CONTINUOUS
10
6.1964757480314958
20
-3.1356702362204723
11
6.1891869291338582
21
-3.1289072440944881
0
LINE
8
BLACK
6
CONTINUOUS
10
6.1891869291338582
20
-3.1289072440944881
11
6.1829875196850388
21
-3.1211334251968501
0
LINE
8
BLACK
6
CONTINUOUS
10
6.1829875196850388
20
-3.1211334251968501
11
6.1780159842519682
21
-3.1125224803149605
0
LINE
8
BLACK
6
CONTINUOUS
10
6.1780159842519682
20
-3.1125224803149605
11
6.1743833858267712
21
-3.1032667322834646
0
LINE
8
BLACK
6
CONTINUOUS
10
6.1743833858267712
20
-3.1032667322834646
11
6.1721708267716533
21
-3.0935729527559053
0
LINE
8
BLACK
6
CONTINUOUS
10
6.1721708267716533
20
-3.0935729527559053
11
6.1717531889763775
21
-3.0880000000000001
0
LINE
8
BLACK
6
CONTINUOUS
10
6.1717531889763775
20
-3.0880000000000001
11
6.1440000000000001
21
-3.0880000000000001
0
LINE
8
BLACK
6
CONTINUOUS
10
6.1440000000000001
20
-3.0880000000000001
11
5.8839999999999995
21
-3.0880000000000001
0
LINE
8
BLACK
6
CONTINUOUS
10
5.8839999999999995
20
-3.0880000000000001
11
5.883237086614173
21
-3.0879499999999998
0
LINE
8
BLACK
6
CONTINUOUS
10
5.883237086614173
20
-3.0879499999999998
11
5.8630499999999994
21
-3.0879499999999998
0
LINE
8
BLACK
6
CONTINUOUS
10
5.8630499999999994
20
-3.0879499999999998
11
5.8630499999999994
21
-3.0460500000000001
0
LINE
8
BLACK
6
CONTINUOUS
10
5.8630499999999994
20
-3.0460500000000001
11
5.883237086614173
21
-3.0460500000000001
0
LINE
8
BLACK
6
CONTINUOUS
10
5.883237086614173
20
-3.0460500000000001
11
5.8839999999999995
21
-3.0459999999999998
0
LINE
8
BLACK
6
CONTINUOUS
10
5.8839999999999995
20
-3.0459999999999998
11
6.1640025984251965
21
-3.0459999999999998
0
LINE
8
BLACK
6
CONTINUOUS
10
6.1640025984251965
20
-3.0459999999999998
11
6.1717748031496065
21
-3.0459999999999998
0
LINE
8
BLACK
6
CONTINUOUS
10
6.1717748031496065
20
-3.0459999999999998
11
6.1722930314960625
21
-3.0390847244094488
0
LINE
8
BLACK
6
CONTINUOUS
10
6.1722930314960625
20
-3.0390847244094488
11
6.1745055905511812
21
-3.0293909448818899
0
LINE
8
BLACK
6
CONTINUOUS
10
6.1745055905511812
20
-3.0293909448818899
11
6.1781381889763782
21
-3.0201351968503936
0
LINE
8
BLACK
6
CONTINUOUS
10
6.1781381889763782
20
-3.0201351968503936
11
6.1831097244094488
21
-3.0115242519685039
0
LINE
8
BLACK
6
CONTINUOUS
10
6.1831097244094488
20
-3.0115242519685039
11
6.1893091338582673
21
-3.003750433070866
0
LINE
8
BLACK
6
CONTINUOUS
10
6.1893091338582673
20
-3.003750433070866
11
6.196597952755905
21
-2.9969874409448818
0
LINE
8
BLACK
6
CONTINUOUS
10
6.196597952755905
20
-2.9969874409448818
11
6.2048133070866136
21
-2.9913862992125986
0
LINE
8
BLACK
6
CONTINUOUS
10
6.2048133070866136
20
-2.9913862992125986
11
6.2137716929133857
21
-2.9870721653543306
0
LINE
8
BLACK
6
CONTINUOUS
10
6.2137716929133857
20
-2.9870721653543306
11
6.2232730314960625
21
-2.9841413779527559
0
LINE
8
BLACK
6
CONTINUOUS
10
6.2232730314960625
20
-2.9841413779527559
11
6.2331050393700789
21
-2.9826594488188976
0
LINE
8
BLACK
6
CONTINUOUS
10
6.2331050393700789
20
-2.9826594488188976
11
6.2430481102362201
21
-2.9826594488188976
0
LINE
8
BLACK
6
CONTINUOUS
10
6.2430481102362201
20
-2.9826594488188976
11
6.2528801181102365
21
-2.9841413779527559
0
LINE
8
BLACK
6
CONTINUOUS
10
6.2528801181102365
20
-2.9841413779527559
11
6.2623814566929132
21
-2.9870721653543306
0
LINE
8
BLACK
6
CONTINUOUS
10
6.2623814566929132
20
-2.9870721653543306
11
6.2713398818897632
21
-2.9913862992125986
0
LINE
8
BLACK
6
CONTINUOUS
10
6.2713398818897632
20
-2.9913862992125986
11
6.279555196850394
21
-2.9969874409448818
0
LINE
8
BLACK
6
CONTINUOUS
10
6.279555196850394
20
-2.9969874409448818
11
6.2868440157480316
21
-3.003750433070866
0
LINE
8
BLACK
6
CONTINUOUS
10
6.2868440157480316
20
-3.003750433070866
11
6.2930434251968501
21
-3.0115242519685039
0
LINE
8
BLACK
6
CONTINUOUS
10
6.2930434251968501
20
-3.0115242519685039
11
6.2980149606299207
21
-3.0201351968503936
0
LINE
8
BLACK
6
CONTINUOUS
10
6.2980149606299207
20
-3.0201351968503936
11
6.3013334251968507
21
-3.0285905511811024
0
LINE
8
BLACK
6
CONTINUOUS
10
6.3013334251968507
20
-3.0285905511811024
11
6.3116115748031492
21
-3.0287849212598426
0
LINE
8
BLACK
6
CONTINUOUS
10
6.3116115748031492
20
-3.0287849212598426
11
6.3128515354330705
21
-3.023352440944882
0
LINE
8
BLACK
6
CONTINUOUS
10
6.3128515354330705
20
-3.023352440944882
11
6.3163523622047242
21
-3.0144325196850392
0
LINE
8
BLACK
6
CONTINUOUS
10
6.3163523622047242
20
-3.0144325196850392
11
6.3211435039370079
21
-3.0061339763779529
0
LINE
8
BLACK
6
CONTINUOUS
10
6.3211435039370079
20
-3.0061339763779529
11
6.3271179921259844
21
-2.998642244094488
0
LINE
8
BLACK
6
CONTINUOUS
10
6.3271179921259844
20
-2.998642244094488
11
6.3341423228346452
21
-2.9921246062992126
0
LINE
8
BLACK
6
CONTINUOUS
10
6.3341423228346452
20
-2.9921246062992126
11
6.3420596062992125
21
-2.9867266929133858
0
LINE
8
BLACK
6
CONTINUOUS
10
6.3420596062992125
20
-2.9867266929133858
11
6.3506929527559057
21
-2.9825690944881891
0
LINE
8
BLACK
6
CONTINUOUS
10
6.3506929527559057
20
-2.9825690944881891
11
6.3598495275590547
21
-2.9797446456692911
0
LINE
8
BLACK
6
CONTINUOUS
10
6.3598495275590547
20
-2.9797446456692911
11
6.3693248425196849
21
-2.978316496062992
0
LINE
8
BLACK
6
CONTINUOUS
10
6.3693248425196849
20
-2.978316496062992
11
6.3789071259842522
21
-2.978316496062992
0
LINE
8
BLACK
6
CONTINUOUS
10
6.3789071259842522
20
-2.978316496062992
11
6.3883824409448815
21
-2.9797446456692911
0
LINE
8
BLACK
6
CONTINUOUS
10
6.3883824409448815
20
-2.9797446456692911
11
6.3975390157480314
21
-2.9825690944881891
0
LINE
8
BLACK
6
CONTINUOUS
10
6.3975390157480314
20
-2.9825690944881891
11
6.4061724015748034
21
-2.9867266929133858
0
LINE
8
BLACK
6
CONTINUOUS
10
6.4061724015748034
20
-2.9867266929133858
11
6.4140896456692911
21
-2.9921246062992126
0
LINE
8
BLACK
6
CONTINUOUS
10
6.4140896456692911
20
-2.9921246062992126
11
6.4211139763779528
21
-2.998642244094488
0
LINE
8
BLACK
6
CONTINUOUS
10
6.4211139763779528
20
-2.998642244094488
11
6.4270884645669293
21
-3.0061339763779529
0
LINE
8
BLACK
6
CONTINUOUS
10
6.4270884645669293
20
-3.0061339763779529
11
6.4308973228346451
21
-3.012731181102362
0
LINE
8
BLACK
6
CONTINUOUS
10
6.4308973228346451
20
-3.012731181102362
11
6.4577175590551184
21
-3.0043870866141731
0
LINE
8
BLACK
6
CONTINUOUS
10
6.4577175590551184
20
-3.0043870866141731
11
6.7030539370078737
21
-2.7590507480314961
0
LINE
8
BLACK
6
CONTINUOUS
10
6.7030539370078737
20
-2.7590507480314961
11
6.7051192125984249
21
-2.7572395669291336
0
LINE
8
BLACK
6
CONTINUOUS
10
6.7051192125984249
20
-2.7572395669291336
11
6.7098668503937002
21
-2.7544985433070868
0
LINE
8
BLACK
6
CONTINUOUS
10
6.7098668503937002
20
-2.7544985433070868
11
6.7151621259842518
21
-2.7530796456692914
0
LINE
8
BLACK
6
CONTINUOUS
10
6.7151621259842518
20
-2.7530796456692914
11
6.7179031889763774
21
-2.7528999999999999
0
LINE
8
BLACK
6
CONTINUOUS
10
6.7179031889763774
20
-2.7528999999999999
11
6.7979031889763775
21
-2.7528999999999999
0
LINE
8
BLACK
6
CONTINUOUS
10
6.7979031889763775
20
-2.7528999999999999
11
6.7986661023622048
21
-2.7529499999999998
  0
ENDSEC
  0
EOF
