  0
SECTION
  2
HEADER
  9
$ANGBASE
  50
0.0
  9
$ANGDIR
  70
1
  9
$MEASUREMENT
  70
0
  0
ENDSEC
  0
SECTION
  2
TABLES
  0
TABLE
  2
LTYPE
  70
4
  0
LTYPE
  5
40F
  2
CONTINUOUS
  70
0
  3
Solid line
  72
65
  73
0
  40
0.0
  0
LTYPE
  5
410
  2
DASHDOT
 70
0
  3
Dash Dot ____ _ ____ _
 72
65
 73
4
 40
2.0
 49
1.25
 49
-0.25
 49
0.25
 49
-0.25
  0
LTYPE
  5
411
  2
DASHED
 70
0
  3
Dashed __ __ __ __ __
 72
65
 73
2
 40
0.75
 49
0.5
 49
-0.25
  0
LTYPE
  5
43B
  2
DOTTED
 70
0
  3
Dotted .  .  .  .
 72
65
 73
2
 40
0.2
 49
0.0
 49
-0.2
  0
ENDTAB
  0
TABLE
  2
STYLE
  70
4
  0
STYLE
  2
KICAD
  70
0
  40
0
  41
1
  42
1
  50
0
  71
0
  3
isocp.shx
  0
STYLE
  2
KICADB
  70
0
  40
0
  41
1
  42
1
  50
0
  71
0
  3
isocp.shx
  0
STYLE
  2
KICADI
  70
0
  40
0
  41
1
  42
1
  50
15
  71
0
  3
isocp.shx
  0
STYLE
  2
KICADBI
  70
0
  40
0
  41
1
  42
1
  50
15
  71
0
  3
isocp.shx
  0
ENDTAB
  0
TABLE
  2
LAYER
  70
1
  0
LAYER
  2
BLACK
  70
0
  62
7
  6
CONTINUOUS
  0
ENDTAB
  0
ENDSEC
  0
SECTION
  2
ENTITIES
0
LINE
8
BLACK
6
CONTINUOUS
10
6.8997629133858265
20
-2.7590499999999998
11
6.91995
21
-2.7590499999999998
0
LINE
8
BLACK
6
CONTINUOUS
10
6.91995
20
-2.7590499999999998
11
6.91995
21
-2.8009499999999998
0
LINE
8
BLACK
6
CONTINUOUS
10
6.91995
20
-2.8009499999999998
11
6.8997629133858265
21
-2.8009499999999998
0
LINE
8
BLACK
6
CONTINUOUS
10
6.8997629133858265
20
-2.8009499999999998
11
6.899
21
-2.8010000000000002
0
LINE
8
BLACK
6
CONTINUOUS
10
6.899
20
-2.8010000000000002
11
6.8276985039370075
21
-2.8010000000000002
0
LINE
8
BLACK
6
CONTINUOUS
10
6.8276985039370075
20
-2.8010000000000002
11
6.584849251968504
21
-3.0438492519685041
0
LINE
8
BLACK
6
CONTINUOUS
10
6.584849251968504
20
-3.0438492519685041
11
6.5827839763779528
21
-3.0456604330708661
0
LINE
8
BLACK
6
CONTINUOUS
10
6.5827839763779528
20
-3.0456604330708661
11
6.5780363385826774
21
-3.0484014566929134
0
LINE
8
BLACK
6
CONTINUOUS
10
6.5780363385826774
20
-3.0484014566929134
11
6.5727410629921259
21
-3.0498203543307087
0
LINE
8
BLACK
6
CONTINUOUS
10
6.5727410629921259
20
-3.0498203543307087
11
6.5712441732283464
21
-3.0498203543307087
0
LINE
8
BLACK
6
CONTINUOUS
10
6.5712441732283464
20
-3.0498203543307087
11
6.5433783464566924
21
-3.0563770078740156
0
LINE
8
BLACK
6
CONTINUOUS
10
6.5433783464566924
20
-3.0563770078740156
11
6.5422283858267711
21
-3.0571454330708661
0
LINE
8
BLACK
6
CONTINUOUS
10
6.5422283858267711
20
-3.0571454330708661
11
6.5401943700787397
21
-3.0575499606299212
0
LINE
8
BLACK
6
CONTINUOUS
10
6.5401943700787397
20
-3.0575499606299212
11
6.5256244094488185
21
-3.05755
0
LINE
8
BLACK
6
CONTINUOUS
10
6.5256244094488185
20
-3.05755
11
6.5235904330708658
21
-3.0571454330708661
0
LINE
8
BLACK
6
CONTINUOUS
10
6.5235904330708658
20
-3.0571454330708661
11
6.521866141732283
21
-3.0559932677165356
0
LINE
8
BLACK
6
CONTINUOUS
10
6.521866141732283
20
-3.0559932677165356
11
6.5207139763779525
21
-3.0542689763779527
0
LINE
8
BLACK
6
CONTINUOUS
10
6.5207139763779525
20
-3.0542689763779527
11
6.5203094488188977
21
-3.0522349606299213
0
LINE
8
BLACK
6
CONTINUOUS
10
6.5203094488188977
20
-3.0522349606299213
11
6.520309409448819
21
-3.0508041338582674
0
LINE
8
BLACK
6
CONTINUOUS
10
6.520309409448819
20
-3.0508041338582674
11
6.520088661417323
21
-3.0505493700787403
0
LINE
8
BLACK
6
CONTINUOUS
10
6.520088661417323
20
-3.0505493700787403
11
6.518286692913386
21
-3.0466036220472441
0
LINE
8
BLACK
6
CONTINUOUS
10
6.518286692913386
20
-3.0466036220472441
11
6.5176693700787398
21
-3.0423100000000001
0
LINE
8
BLACK
6
CONTINUOUS
10
6.5176693700787398
20
-3.0423100000000001
11
6.5176693700787398
21
-3.0421931889763778
0
LINE
8
BLACK
6
CONTINUOUS
10
6.5176693700787398
20
-3.0421931889763778
11
6.5167427165354326
21
-3.0382548031496062
0
LINE
8
BLACK
6
CONTINUOUS
10
6.5167427165354326
20
-3.0382548031496062
11
6.5169110629921256
21
-3.03277531496063
0
LINE
8
BLACK
6
CONTINUOUS
10
6.5169110629921256
20
-3.03277531496063
11
6.516916299212598
21
-3.0327578740157479
0
LINE
8
BLACK
6
CONTINUOUS
10
6.516916299212598
20
-3.0327578740157479
11
6.5163112992125987
21
-3.0287439763779527
0
LINE
8
BLACK
6
CONTINUOUS
10
6.5163112992125987
20
-3.0287439763779527
11
6.5136255511811019
21
-3.020036929133858
0
LINE
8
BLACK
6
CONTINUOUS
10
6.5136255511811019
20
-3.020036929133858
11
6.5096720472440941
21
-3.0118274409448818
0
LINE
8
BLACK
6
CONTINUOUS
10
6.5096720472440941
20
-3.0118274409448818
11
6.5045391732283466
21
-3.0042988582677164
0
LINE
8
BLACK
6
CONTINUOUS
10
6.5045391732283466
20
-3.0042988582677164
11
6.4983415354330711
21
-2.9976193700787399
0
LINE
8
BLACK
6
CONTINUOUS
10
6.4983415354330711
20
-2.9976193700787399
11
6.4912175984251963
21
-2.9919382283464566
0
LINE
8
BLACK
6
CONTINUOUS
10
6.4912175984251963
20
-2.9919382283464566
11
6.4833264566929136
21
-2.9873822834645667
0
LINE
8
BLACK
6
CONTINUOUS
10
6.4833264566929136
20
-2.9873822834645667
11
6.4748444881889764
21
-2.984053346456693
0
LINE
8
BLACK
6
CONTINUOUS
10
6.4748444881889764
20
-2.984053346456693
11
6.4659610629921263
21
-2.9820257874015748
0
LINE
8
BLACK
6
CONTINUOUS
10
6.4659610629921263
20
-2.9820257874015748
11
6.4568746850393701
21
-2.9813448425196851
0
LINE
8
BLACK
6
CONTINUOUS
10
6.4568746850393701
20
-2.9813448425196851
11
6.447788307086614
21
-2.9820257874015748
0
LINE
8
BLACK
6
CONTINUOUS
10
6.447788307086614
20
-2.9820257874015748
11
6.4389048818897638
21
-2.984053346456693
0
LINE
8
BLACK
6
CONTINUOUS
10
6.4389048818897638
20
-2.984053346456693
11
6.4304229133858266
21
-2.9873822834645667
0
LINE
8
BLACK
6
CONTINUOUS
10
6.4304229133858266
20
-2.9873822834645667
11
6.4225317716535431
21
-2.9919382283464566
0
LINE
8
BLACK
6
CONTINUOUS
10
6.4225317716535431
20
-2.9919382283464566
11
6.4154078346456691
21
-2.9976193700787399
0
LINE
8
BLACK
6
CONTINUOUS
10
6.4154078346456691
20
-2.9976193700787399
11
6.4092101968503936
21
-3.0042988582677164
0
LINE
8
BLACK
6
CONTINUOUS
10
6.4092101968503936
20
-3.0042988582677164
11
6.4040773228346453
21
-3.0118274409448818
0
LINE
8
BLACK
6
CONTINUOUS
10
6.4040773228346453
20
-3.0118274409448818
11
6.4001238188976375
21
-3.020036929133858
0
LINE
8
BLACK
6
CONTINUOUS
10
6.4001238188976375
20
-3.020036929133858
11
6.3974380708661416
21
-3.0287439763779527
0
LINE
8
BLACK
6
CONTINUOUS
10
6.3974380708661416
20
-3.0287439763779527
11
6.3960799999999995
21
-3.0377540551181101
0
LINE
8
BLACK
6
CONTINUOUS
10
6.3960799999999995
20
-3.0377540551181101
11
6.3960799999999995
21
-3.0423100000000001
0
LINE
8
BLACK
6
CONTINUOUS
10
6.3960799999999995
20
-3.0423100000000001
11
6.3954626771653542
21
-3.0466036220472441
0
LINE
8
BLACK
6
CONTINUOUS
10
6.3954626771653542
20
-3.0466036220472441
11
6.3936607086614172
21
-3.0505493700787403
0
LINE
8
BLACK
6
CONTINUOUS
10
6.3936607086614172
20
-3.0505493700787403
11
6.3908200787401572
21
-3.0538276377952753
0
LINE
8
BLACK
6
CONTINUOUS
10
6.3908200787401572
20
-3.0538276377952753
11
6.3871709055118107
21
-3.0561727952755904
0
LINE
8
BLACK
6
CONTINUOUS
10
6.3871709055118107
20
-3.0561727952755904
11
6.3830088976377954
21
-3.0573948818897638
0
LINE
8
BLACK
6
CONTINUOUS
10
6.3830088976377954
20
-3.0573948818897638
11
6.3786711023622047
21
-3.0573948818897638
0
LINE
8
BLACK
6
CONTINUOUS
10
6.3786711023622047
20
-3.0573948818897638
11
6.3783962204724407
21
-3.0573141338582674
0
LINE
8
BLACK
6
CONTINUOUS
10
6.3783962204724407
20
-3.0573141338582674
11
6.3774036614173228
21
-3.0575601181102363
0
LINE
8
BLACK
6
CONTINUOUS
10
6.3774036614173228
20
-3.0575601181102363
11
6.3755286614173228
21
-3.0576474409448817
0
LINE
8
BLACK
6
CONTINUOUS
10
6.3755286614173228
20
-3.0576474409448817
11
6.3611610629921262
21
-3.0573757086614171
0
LINE
8
BLACK
6
CONTINUOUS
10
6.3611610629921262
20
-3.0573757086614171
11
6.3602849606299214
21
-3.0575499606299212
0
LINE
8
BLACK
6
CONTINUOUS
10
6.3602849606299214
20
-3.0575499606299212
11
6.3457150000000002
21
-3.05755
0
LINE
8
BLACK
6
CONTINUOUS
10
6.3457150000000002
20
-3.05755
11
6.3436810236220467
21
-3.0571454330708661
0
LINE
8
BLACK
6
CONTINUOUS
10
6.3436810236220467
20
-3.0571454330708661
11
6.3419567322834647
21
-3.0559932677165356
0
LINE
8
BLACK
6
CONTINUOUS
10
6.3419567322834647
20
-3.0559932677165356
11
6.3408045669291333
21
-3.0542689763779527
0
LINE
8
BLACK
6
CONTINUOUS
10
6.3408045669291333
20
-3.0542689763779527
11
6.3404000393700786
21
-3.0522349606299213
0
LINE
8
BLACK
6
CONTINUOUS
10
6.3404000393700786
20
-3.0522349606299213
11
6.3403999999999998
21
-3.0445445275590552
0
LINE
8
BLACK
6
CONTINUOUS
10
6.3403999999999998
20
-3.0445445275590552
11
6.3403898818897639
21
-3.0445036614173229
0
LINE
8
BLACK
6
CONTINUOUS
10
6.3403898818897639
20
-3.0445036614173229
11
6.3403999999999998
21
-3.0439681102362206
0
LINE
8
BLACK
6
CONTINUOUS
10
6.3403999999999998
20
-3.0439681102362206
11
6.3403999999999998
21
-3.0416050000000001
0
LINE
8
BLACK
6
CONTINUOUS
10
6.3403999999999998
20
-3.0416050000000001
11
6.3404493700787397
21
-3.041356653543307
0
LINE
8
BLACK
6
CONTINUOUS
10
6.3404493700787397
20
-3.041356653543307
11
6.3404607086614169
21
-3.0407582677165355
0
LINE
8
BLACK
6
CONTINUOUS
10
6.3404607086614169
20
-3.0407582677165355
11
6.3414985433070861
21
-3.0371587795275592
0
LINE
8
BLACK
6
CONTINUOUS
10
6.3414985433070861
20
-3.0371587795275592
11
6.3434325984251965
21
-3.0339505905511812
0
LINE
8
BLACK
6
CONTINUOUS
10
6.3434325984251965
20
-3.0339505905511812
11
6.3443246456692908
21
-3.0330916141732285
0
LINE
8
BLACK
6
CONTINUOUS
10
6.3443246456692908
20
-3.0330916141732285
11
6.3442715354330703
21
-3.0327051181102362
0
LINE
8
BLACK
6
CONTINUOUS
10
6.3442715354330703
20
-3.0327051181102362
11
6.3413223622047239
21
-3.02217937007874
0
LINE
8
BLACK
6
CONTINUOUS
10
6.3413223622047239
20
-3.02217937007874
11
6.3369673622047245
21
-3.0121532283464565
0
LINE
8
BLACK
6
CONTINUOUS
10
6.3369673622047245
20
-3.0121532283464565
11
6.3312877559055121
21
-3.0028134645669291
0
LINE
8
BLACK
6
CONTINUOUS
10
6.3312877559055121
20
-3.0028134645669291
11
6.3243892519685039
21
-2.9943340551181103
0
LINE
8
BLACK
6
CONTINUOUS
10
6.3243892519685039
20
-2.9943340551181103
11
6.3164003937007873
21
-2.986872992125984
0
LINE
8
BLACK
6
CONTINUOUS
10
6.3164003937007873
20
-2.986872992125984
11
6.3074699999999995
21
-2.9805692125984251
0
LINE
8
BLACK
6
CONTINUOUS
10
6.3074699999999995
20
-2.9805692125984251
11
6.2977644094488188
21
-2.9755401968503938
0
LINE
8
BLACK
6
CONTINUOUS
10
6.2977644094488188
20
-2.9755401968503938
11
6.2874644094488188
21
-2.9718795669291338
0
LINE
8
BLACK
6
CONTINUOUS
10
6.2874644094488188
20
-2.9718795669291338
11
6.2767619291338583
21
-2.9696555905511812
0
LINE
8
BLACK
6
CONTINUOUS
10
6.2767619291338583
20
-2.9696555905511812
11
6.2658562992125981
21
-2.9689096062992126
0
LINE
8
BLACK
6
CONTINUOUS
10
6.2658562992125981
20
-2.9689096062992126
11
6.2549506692913388
21
-2.9696555905511812
0
LINE
8
BLACK
6
CONTINUOUS
10
6.2549506692913388
20
-2.9696555905511812
11
6.2442481889763775
21
-2.9718795669291338
0
LINE
8
BLACK
6
CONTINUOUS
10
6.2442481889763775
20
-2.9718795669291338
11
6.2339481889763775
21
-2.9755401968503938
0
LINE
8
BLACK
6
CONTINUOUS
10
6.2339481889763775
20
-2.9755401968503938
11
6.2242425984251968
21
-2.9805692125984251
0
LINE
8
BLACK
6
CONTINUOUS
10
6.2242425984251968
20
-2.9805692125984251
11
6.2153122047244089
21
-2.986872992125984
0
LINE
8
BLACK
6
CONTINUOUS
10
6.2153122047244089
20
-2.986872992125984
11
6.2073233464566924
21
-2.9943340551181103
0
LINE
8
BLACK
6
CONTINUOUS
10
6.2073233464566924
20
-2.9943340551181103
11
6.2004248425196851
21
-3.0028134645669291
0
LINE
8
BLACK
6
CONTINUOUS
10
6.2004248425196851
20
-3.0028134645669291
11
6.1947452362204727
21
-3.0121532283464565
0
LINE
8
BLACK
6
CONTINUOUS
10
6.1947452362204727
20
-3.0121532283464565
11
6.1903902362204724
21
-3.02217937007874
0
LINE
8
BLACK
6
CONTINUOUS
10
6.1903902362204724
20
-3.02217937007874
11
6.1874410629921259
21
-3.0327051181102362
0
LINE
8
BLACK
6
CONTINUOUS
10
6.1874410629921259
20
-3.0327051181102362
11
6.1859525984251968
21
-3.0435344488188978
0
LINE
8
BLACK
6
CONTINUOUS
10
6.1859525984251968
20
-3.0435344488188978
11
6.1859525984251968
21
-3.0459999999999998
0
LINE
8
BLACK
6
CONTINUOUS
10
6.1859525984251968
20
-3.0459999999999998
11
6.1860025984251967
21
-3.0459999999999998
0
LINE
8
BLACK
6
CONTINUOUS
10
6.1860025984251967
20
-3.0459999999999998
11
6.1860025984251967
21
-3.0880000000000001
0
LINE
8
BLACK
6
CONTINUOUS
10
6.1860025984251967
20
-3.0880000000000001
11
6.1859525984251968
21
-3.0880000000000001
0
LINE
8
BLACK
6
CONTINUOUS
10
6.1859525984251968
20
-3.0880000000000001
11
6.1859525984251968
21
-3.0904655511811021
0
LINE
8
BLACK
6
CONTINUOUS
10
6.1859525984251968
20
-3.0904655511811021
11
6.1874410629921259
21
-3.1012948818897637
0
LINE
8
BLACK
6
CONTINUOUS
10
6.1874410629921259
20
-3.1012948818897637
11
6.1903902362204724
21
-3.1118206299212599
0
LINE
8
BLACK
6
CONTINUOUS
10
6.1903902362204724
20
-3.1118206299212599
11
6.1947452362204727
21
-3.1218467716535434
0
LINE
8
BLACK
6
CONTINUOUS
10
6.1947452362204727
20
-3.1218467716535434
11
6.2004248425196851
21
-3.1311865354330708
0
LINE
8
BLACK
6
CONTINUOUS
10
6.2004248425196851
20
-3.1311865354330708
11
6.2073233464566924
21
-3.1396659448818895
0
LINE
8
BLACK
6
CONTINUOUS
10
6.2073233464566924
20
-3.1396659448818895
11
6.2153122047244089
21
-3.1471270078740159
0
LINE
8
BLACK
6
CONTINUOUS
10
6.2153122047244089
20
-3.1471270078740159
11
6.2242425984251968
21
-3.1534307874015748
0
LINE
8
BLACK
6
CONTINUOUS
10
6.2242425984251968
20
-3.1534307874015748
11
6.2339481889763775
21
-3.1584598031496061
0
LINE
8
BLACK
6
CONTINUOUS
10
6.2339481889763775
20
-3.1584598031496061
11
6.2442481889763775
21
-3.1621204330708661
0
LINE
8
BLACK
6
CONTINUOUS
10
6.2442481889763775
20
-3.1621204330708661
11
6.2549506692913388
21
-3.1643444094488187
0
LINE
8
BLACK
6
CONTINUOUS
10
6.2549506692913388
20
-3.1643444094488187
11
6.2658562992125981
21
-3.1650903937007873
0
LINE
8
BLACK
6
CONTINUOUS
10
6.2658562992125981
20
-3.1650903937007873
11
6.2767619291338583
21
-3.1643444094488187
0
LINE
8
BLACK
6
CONTINUOUS
10
6.2767619291338583
20
-3.1643444094488187
11
6.2874644094488188
21
-3.1621204330708661
0
LINE
8
BLACK
6
CONTINUOUS
10
6.2874644094488188
20
-3.1621204330708661
11
6.2977644094488188
21
-3.1584598031496061
0
LINE
8
BLACK
6
CONTINUOUS
10
6.2977644094488188
20
-3.1584598031496061
11
6.3074699999999995
21
-3.1534307874015748
0
LINE
8
BLACK
6
CONTINUOUS
10
6.3074699999999995
20
-3.1534307874015748
11
6.3164003937007873
21
-3.1471270078740159
0
LINE
8
BLACK
6
CONTINUOUS
10
6.3164003937007873
20
-3.1471270078740159
11
6.3243892519685039
21
-3.1396659448818895
0
LINE
8
BLACK
6
CONTINUOUS
10
6.3243892519685039
20
-3.1396659448818895
11
6.3312877559055121
21
-3.1311865354330708
0
LINE
8
BLACK
6
CONTINUOUS
10
6.3312877559055121
20
-3.1311865354330708
11
6.3369673622047245
21
-3.1218467716535434
0
LINE
8
BLACK
6
CONTINUOUS
10
6.3369673622047245
20
-3.1218467716535434
11
6.3413223622047239
21
-3.1118206299212599
0
LINE
8
BLACK
6
CONTINUOUS
10
6.3413223622047239
20
-3.1118206299212599
11
6.3442715354330703
21
-3.1012948818897637
0
LINE
8
BLACK
6
CONTINUOUS
10
6.3442715354330703
20
-3.1012948818897637
11
6.3443273622047247
21
-3.1008886220472438
0
LINE
8
BLACK
6
CONTINUOUS
10
6.3443273622047247
20
-3.1008886220472438
11
6.3431901968503936
21
-3.0997514566929132
0
LINE
8
BLACK
6
CONTINUOUS
10
6.3431901968503936
20
-3.0997514566929132
11
6.3413171259842516
21
-3.0965072440944881
0
LINE
8
BLACK
6
CONTINUOUS
10
6.3413171259842516
20
-3.0965072440944881
11
6.3403475590551182
21
-3.0928887795275588
0
LINE
8
BLACK
6
CONTINUOUS
10
6.3403475590551182
20
-3.0928887795275588
11
6.3403475590551182
21
-3.089142716535433
0
LINE
8
BLACK
6
CONTINUOUS
10
6.3403475590551182
20
-3.089142716535433
11
6.3403999999999998
21
-3.0889468897637795
0
LINE
8
BLACK
6
CONTINUOUS
10
6.3403999999999998
20
-3.0889468897637795
11
6.3403999999999998
21
-3.0817649999999999
0
LINE
8
BLACK
6
CONTINUOUS
10
6.3403999999999998
20
-3.0817649999999999
11
6.3408045669291333
21
-3.0797310236220472
0
LINE
8
BLACK
6
CONTINUOUS
10
6.3408045669291333
20
-3.0797310236220472
11
6.3419567322834647
21
-3.0780067322834643
0
LINE
8
BLACK
6
CONTINUOUS
10
6.3419567322834647
20
-3.0780067322834643
11
6.3436810236220467
21
-3.0768545669291338
0
LINE
8
BLACK
6
CONTINUOUS
10
6.3436810236220467
20
-3.0768545669291338
11
6.345715039370079
21
-3.0764500393700787
0
LINE
8
BLACK
6
CONTINUOUS
10
6.345715039370079
20
-3.0764500393700787
11
6.3602850000000002
21
-3.0764499999999999
0
LINE
8
BLACK
6
CONTINUOUS
10
6.3602850000000002
20
-3.0764499999999999
11
6.3613696850393699
21
-3.0766657480314961
0
LINE
8
BLACK
6
CONTINUOUS
10
6.3613696850393699
20
-3.0766657480314961
11
6.3775248031496066
21
-3.0766657480314961
0
LINE
8
BLACK
6
CONTINUOUS
10
6.3775248031496066
20
-3.0766657480314961
11
6.3782930708661416
21
-3.076716062992126
0
LINE
8
BLACK
6
CONTINUOUS
10
6.3782930708661416
20
-3.076716062992126
11
6.3786710629921259
21
-3.0766051181102361
0
LINE
8
BLACK
6
CONTINUOUS
10
6.3786710629921259
20
-3.0766051181102361
11
6.3830088582677167
21
-3.0766051181102361
0
LINE
8
BLACK
6
CONTINUOUS
10
6.3830088582677167
20
-3.0766051181102361
11
6.3871708661417319
21
-3.0778272047244095
0
LINE
8
BLACK
6
CONTINUOUS
10
6.3871708661417319
20
-3.0778272047244095
11
6.3908200393700785
21
-3.0801723622047241
0
LINE
8
BLACK
6
CONTINUOUS
10
6.3908200393700785
20
-3.0801723622047241
11
6.3936606692913385
21
-3.0834506299212596
0
LINE
8
BLACK
6
CONTINUOUS
10
6.3936606692913385
20
-3.0834506299212596
11
6.3954626377952755
21
-3.0873963779527558
0
LINE
8
BLACK
6
CONTINUOUS
10
6.3954626377952755
20
-3.0873963779527558
11
6.3960799606299208
21
-3.0916899999999998
0
LINE
8
BLACK
6
CONTINUOUS
10
6.3960799606299208
20
-3.0916899999999998
11
6.3960799606299208
21
-3.0962459448818898
0
LINE
8
BLACK
6
CONTINUOUS
10
6.3960799606299208
20
-3.0962459448818898
11
6.3974380314960628
21
-3.1052560236220472
0
LINE
8
BLACK
6
CONTINUOUS
10
6.3974380314960628
20
-3.1052560236220472
11
6.4001237795275587
21
-3.1139630708661419
0
LINE
8
BLACK
6
CONTINUOUS
10
6.4001237795275587
20
-3.1139630708661419
11
6.4040772834645665
21
-3.1221725984251969
0
LINE
8
BLACK
6
CONTINUOUS
10
6.4040772834645665
20
-3.1221725984251969
11
6.4092101574803149
21
-3.1297011811023623
0
LINE
8
BLACK
6
CONTINUOUS
10
6.4092101574803149
20
-3.1297011811023623
11
6.4154078346456691
21
-3.1363806692913383
0
LINE
8
BLACK
6
CONTINUOUS
10
6.4154078346456691
20
-3.1363806692913383
11
6.4225317716535431
21
-3.142061811023622
0
LINE
8
BLACK
6
CONTINUOUS
10
6.4225317716535431
20
-3.142061811023622
11
6.4304228740157479
21
-3.146617755905512
0
LINE
8
BLACK
6
CONTINUOUS
10
6.4304228740157479
20
-3.146617755905512
11
6.4389048818897638
21
-3.1499466929133857
0
LINE
8
BLACK
6
CONTINUOUS
10
6.4389048818897638
20
-3.1499466929133857
11
6.447788307086614
21
-3.1519742519685039
0
LINE
8
BLACK
6
CONTINUOUS
10
6.447788307086614
20
-3.1519742519685039
11
6.4568746850393701
21
-3.1526551968503935
0
LINE
8
BLACK
6
CONTINUOUS
10
6.4568746850393701
20
-3.1526551968503935
11
6.4659610629921263
21
-3.1519742519685039
0
LINE
8
BLACK
6
CONTINUOUS
10
6.4659610629921263
20
-3.1519742519685039
11
6.4748444881889764
21
-3.1499466929133857
0
LINE
8
BLACK
6
CONTINUOUS
10
6.4748444881889764
20
-3.1499466929133857
11
6.4833264960629924
21
-3.146617755905512
0
LINE
8
BLACK
6
CONTINUOUS
10
6.4833264960629924
20
-3.146617755905512
11
6.4912175984251963
21
-3.142061811023622
0
LINE
8
BLACK
6
CONTINUOUS
10
6.4912175984251963
20
-3.142061811023622
11
6.4983415354330711
21
-3.1363806692913383
0
LINE
8
BLACK
6
CONTINUOUS
10
6.4983415354330711
20
-3.1363806692913383
11
6.5045392125984254
21
-3.1297011811023623
0
LINE
8
BLACK
6
CONTINUOUS
10
6.5045392125984254
20
-3.1297011811023623
11
6.5096720866141728
21
-3.1221725984251969
0
LINE
8
BLACK
6
CONTINUOUS
10
6.5096720866141728
20
-3.1221725984251969
11
6.5136255905511806
21
-3.1139630708661419
0
LINE
8
BLACK
6
CONTINUOUS
10
6.5136255905511806
20
-3.1139630708661419
11
6.5163113385826774
21
-3.1052560236220472
0
LINE
8
BLACK
6
CONTINUOUS
10
6.5163113385826774
20
-3.1052560236220472
11
6.5165591338582676
21
-3.1036119291338582
0
LINE
8
BLACK
6
CONTINUOUS
10
6.5165591338582676
20
-3.1036119291338582
11
6.5157216929133854
21
-3.1008309842519686
0
LINE
8
BLACK
6
CONTINUOUS
10
6.5157216929133854
20
-3.1008309842519686
11
6.5155533464566924
21
-3.095351496062992
0
LINE
8
BLACK
6
CONTINUOUS
10
6.5155533464566924
20
-3.095351496062992
11
6.5168089370078741
21
-3.0900150787401572
0
LINE
8
BLACK
6
CONTINUOUS
10
6.5168089370078741
20
-3.0900150787401572
11
6.5186912598425195
21
-3.0865105118110234
0
LINE
8
BLACK
6
CONTINUOUS
10
6.5186912598425195
20
-3.0865105118110234
11
6.5200887007874018
21
-3.0834506299212596
0
LINE
8
BLACK
6
CONTINUOUS
10
6.5200887007874018
20
-3.0834506299212596
11
6.520309409448819
21
-3.0831959055118108
0
LINE
8
BLACK
6
CONTINUOUS
10
6.520309409448819
20
-3.0831959055118108
11
6.520309409448819
21
-3.0817649999999999
0
LINE
8
BLACK
6
CONTINUOUS
10
6.520309409448819
20
-3.0817649999999999
11
6.5207139763779525
21
-3.0797310236220472
0
LINE
8
BLACK
6
CONTINUOUS
10
6.5207139763779525
20
-3.0797310236220472
11
6.521866141732283
21
-3.0780067322834643
0
LINE
8
BLACK
6
CONTINUOUS
10
6.521866141732283
20
-3.0780067322834643
11
6.5235904330708658
21
-3.0768545669291338
0
LINE
8
BLACK
6
CONTINUOUS
10
6.5235904330708658
20
-3.0768545669291338
11
6.5256244488188972
21
-3.0764500393700787
0
LINE
8
BLACK
6
CONTINUOUS
10
6.5256244488188972
20
-3.0764500393700787
11
6.5401944094488185
21
-3.0764499999999999
0
LINE
8
BLACK
6
CONTINUOUS
10
6.5401944094488185
20
-3.0764499999999999
11
6.5422283858267711
21
-3.0768545669291338
0
LINE
8
BLACK
6
CONTINUOUS
10
6.5422283858267711
20
-3.0768545669291338
11
6.5431153543307081
21
-3.077447244094488
0
LINE
8
BLACK
6
CONTINUOUS
10
6.5431153543307081
20
-3.077447244094488
11
6.5717280314960629
21
-3.0841796456692911
0
LINE
8
BLACK
6
CONTINUOUS
10
6.5717280314960629
20
-3.0841796456692911
11
6.5717410629921256
21
-3.0841796456692911
0
LINE
8
BLACK
6
CONTINUOUS
10
6.5717410629921256
20
-3.0841796456692911
11
6.5727410629921259
21
-3.0841796456692911
0
LINE
8
BLACK
6
CONTINUOUS
10
6.5727410629921259
20
-3.0841796456692911
11
6.5780363385826774
21
-3.0855985433070865
0
LINE
8
BLACK
6
CONTINUOUS
10
6.5780363385826774
20
-3.0855985433070865
11
6.5827839763779528
21
-3.0883395669291338
0
LINE
8
BLACK
6
CONTINUOUS
10
6.5827839763779528
20
-3.0883395669291338
11
6.584849251968504
21
-3.0901507480314958
0
LINE
8
BLACK
6
CONTINUOUS
10
6.584849251968504
20
-3.0901507480314958
11
6.8276985039370075
21
-3.3329999999999997
0
LINE
8
BLACK
6
CONTINUOUS
10
6.8276985039370075
20
-3.3329999999999997
11
6.899
21
-3.3329999999999997
0
LINE
8
BLACK
6
CONTINUOUS
10
6.899
20
-3.3329999999999997
11
6.8997629133858265
21
-3.3330500000000001
0
LINE
8
BLACK
6
CONTINUOUS
10
6.8997629133858265
20
-3.3330500000000001
11
6.91995
21
-3.3330500000000001
0
LINE
8
BLACK
6
CONTINUOUS
10
6.91995
20
-3.3330500000000001
11
6.91995
21
-3.3749500000000001
0
LINE
8
BLACK
6
CONTINUOUS
10
6.91995
20
-3.3749500000000001
11
6.8997629133858265
21
-3.3749500000000001
0
LINE
8
BLACK
6
CONTINUOUS
10
6.8997629133858265
20
-3.3749500000000001
11
6.899
21
-3.375
0
LINE
8
BLACK
6
CONTINUOUS
10
6.899
20
-3.375
11
6.819
21
-3.375
0
LINE
8
BLACK
6
CONTINUOUS
10
6.819
20
-3.375
11
6.8162589370078734
21
-3.3748203543307085
0
LINE
8
BLACK
6
CONTINUOUS
10
6.8162589370078734
20
-3.3748203543307085
11
6.8109636614173228
21
-3.3734014566929131
0
LINE
8
BLACK
6
CONTINUOUS
10
6.8109636614173228
20
-3.3734014566929131
11
6.8062160236220475
21
-3.3706604330708663
0
LINE
8
BLACK
6
CONTINUOUS
10
6.8062160236220475
20
-3.3706604330708663
11
6.8041507480314962
21
-3.3688492519685038
0
LINE
8
BLACK
6
CONTINUOUS
10
6.8041507480314962
20
-3.3688492519685038
11
6.5598281496062993
21
-3.1245266535433069
0
LINE
8
BLACK
6
CONTINUOUS
10
6.5598281496062993
20
-3.1245266535433069
11
6.5432549606299215
21
-3.120627086614173
0
LINE
8
BLACK
6
CONTINUOUS
10
6.5432549606299215
20
-3.120627086614173
11
6.5417397637795274
21
-3.1252904724409447
0
LINE
8
BLACK
6
CONTINUOUS
10
6.5417397637795274
20
-3.1252904724409447
11
6.5368593307086611
21
-3.1356619291338581
0
LINE
8
BLACK
6
CONTINUOUS
10
6.5368593307086611
20
-3.1356619291338581
11
6.5307174803149604
21
-3.1453399212598425
0
LINE
8
BLACK
6
CONTINUOUS
10
6.5307174803149604
20
-3.1453399212598425
11
6.5234111023622043
21
-3.1541718503937006
0
LINE
8
BLACK
6
CONTINUOUS
10
6.5234111023622043
20
-3.1541718503937006
11
6.5150553937007869
21
-3.1620183858267716
0
LINE
8
BLACK
6
CONTINUOUS
10
6.5150553937007869
20
-3.1620183858267716
11
6.5057821259842514
21
-3.1687557874015746
0
LINE
8
BLACK
6
CONTINUOUS
10
6.5057821259842514
20
-3.1687557874015746
11
6.4957375590551178
21
-3.174277834645669
0
LINE
8
BLACK
6
CONTINUOUS
10
6.4957375590551178
20
-3.174277834645669
11
6.4850801181102362
21
-3.1784974409448816
0
LINE
8
BLACK
6
CONTINUOUS
10
6.4850801181102362
20
-3.1784974409448816
11
6.4739778740157483
21
-3.1813479921259842
0
LINE
8
BLACK
6
CONTINUOUS
10
6.4739778740157483
20
-3.1813479921259842
11
6.4626058661417325
21
-3.1827846062992124
0
LINE
8
BLACK
6
CONTINUOUS
10
6.4626058661417325
20
-3.1827846062992124
11
6.4511435039370078
21
-3.1827846062992124
0
LINE
8
BLACK
6
CONTINUOUS
10
6.4511435039370078
20
-3.1827846062992124
11
6.4397714960629919
21
-3.1813479921259842
0
LINE
8
BLACK
6
CONTINUOUS
10
6.4397714960629919
20
-3.1813479921259842
11
6.428669251968504
21
-3.1784974409448816
0
LINE
8
BLACK
6
CONTINUOUS
10
6.428669251968504
20
-3.1784974409448816
11
6.4180118110236215
21
-3.174277834645669
0
LINE
8
BLACK
6
CONTINUOUS
10
6.4180118110236215
20
-3.174277834645669
11
6.4079672440944879
21
-3.1687557874015746
0
LINE
8
BLACK
6
CONTINUOUS
10
6.4079672440944879
20
-3.1687557874015746
11
6.3986939763779525
21
-3.1620183858267716
0
LINE
8
BLACK
6
CONTINUOUS
10
6.3986939763779525
20
-3.1620183858267716
11
6.390338267716535
21
-3.1541718503937006
0
LINE
8
BLACK
6
CONTINUOUS
10
6.390338267716535
20
-3.1541718503937006
11
6.383031889763779
21
-3.1453399212598425
0
LINE
8
BLACK
6
CONTINUOUS
10
6.383031889763779
20
-3.1453399212598425
11
6.3768900393700783
21
-3.1356619291338581
0
LINE
8
BLACK
6
CONTINUOUS
10
6.3768900393700783
20
-3.1356619291338581
11
6.3720096062992129
21
-3.1252904724409447
0
LINE
8
BLACK
6
CONTINUOUS
10
6.3720096062992129
20
-3.1252904724409447
11
6.3684675196850389
21
-3.1143890944881889
0
LINE
8
BLACK
6
CONTINUOUS
10
6.3684675196850389
20
-3.1143890944881889
11
6.3667462204724412
21
-3.1053657480314958
0
LINE
8
BLACK
6
CONTINUOUS
10
6.3667462204724412
20
-3.1053657480314958
11
6.3578673622047246
21
-3.1053657480314958
0
LINE
8
BLACK
6
CONTINUOUS
10
6.3578673622047246
20
-3.1053657480314958
11
6.357274763779527
21
-3.1084722834645668
0
LINE
8
BLACK
6
CONTINUOUS
10
6.357274763779527
20
-3.1084722834645668
11
6.353612047244094
21
-3.1197449606299212
0
LINE
8
BLACK
6
CONTINUOUS
10
6.353612047244094
20
-3.1197449606299212
11
6.3485653543307086
21
-3.1304696850393698
0
LINE
8
BLACK
6
CONTINUOUS
10
6.3485653543307086
20
-3.1304696850393698
11
6.3422143307086616
21
-3.1404773622047242
0
LINE
8
BLACK
6
CONTINUOUS
10
6.3422143307086616
20
-3.1404773622047242
11
6.3346590551181103
21
-3.1496100787401575
0
LINE
8
BLACK
6
CONTINUOUS
10
6.3346590551181103
20
-3.1496100787401575
11
6.3260187401574806
21
-3.157723897637795
0
LINE
8
BLACK
6
CONTINUOUS
10
6.3260187401574806
20
-3.157723897637795
11
6.316429606299212
21
-3.1646907874015748
0
LINE
8
BLACK
6
CONTINUOUS
10
6.316429606299212
20
-3.1646907874015748
11
6.3060429133858262
21
-3.1704009448818895
0
LINE
8
BLACK
6
CONTINUOUS
10
6.3060429133858262
20
-3.1704009448818895
11
6.2950224803149606
21
-3.174764251968504
0
LINE
8
BLACK
6
CONTINUOUS
10
6.2950224803149606
20
-3.174764251968504
11
6.2835420472440946
21
-3.1777118897637795
0
LINE
8
BLACK
6
CONTINUOUS
10
6.2835420472440946
20
-3.1777118897637795
11
6.2717827165354327
21
-3.1791974409448818
0
LINE
8
BLACK
6
CONTINUOUS
10
6.2717827165354327
20
-3.1791974409448818
11
6.2599298818897635
21
-3.1791974409448818
0
LINE
8
BLACK
6
CONTINUOUS
10
6.2599298818897635
20
-3.1791974409448818
11
6.2481705511811025
21
-3.1777118897637795
0
LINE
8
BLACK
6
CONTINUOUS
10
6.2481705511811025
20
-3.1777118897637795
11
6.2366901181102357
21
-3.174764251968504
0
LINE
8
BLACK
6
CONTINUOUS
10
6.2366901181102357
20
-3.174764251968504
11
6.22566968503937
21
-3.1704009448818895
0
LINE
8
BLACK
6
CONTINUOUS
10
6.22566968503937
20
-3.1704009448818895
11
6.2152829921259842
21
-3.1646907874015748
0
LINE
8
BLACK
6
CONTINUOUS
10
6.2152829921259842
20
-3.1646907874015748
11
6.2056938582677166
21
-3.157723897637795
0
LINE
8
BLACK
6
CONTINUOUS
10
6.2056938582677166
20
-3.157723897637795
11
6.1970535433070868
21
-3.1496100787401575
0
LINE
8
BLACK
6
CONTINUOUS
10
6.1970535433070868
20
-3.1496100787401575
11
6.1894982677165356
21
-3.1404773622047242
0
LINE
8
BLACK
6
CONTINUOUS
10
6.1894982677165356
20
-3.1404773622047242
11
6.1831472440944877
21
-3.1304696850393698
0
LINE
8
BLACK
6
CONTINUOUS
10
6.1831472440944877
20
-3.1304696850393698
11
6.1781005511811022
21
-3.1197449606299212
0
LINE
8
BLACK
6
CONTINUOUS
10
6.1781005511811022
20
-3.1197449606299212
11
6.1744378346456692
21
-3.1084722834645668
0
LINE
8
BLACK
6
CONTINUOUS
10
6.1744378346456692
20
-3.1084722834645668
11
6.1722168503937009
21
-3.0968294094488189
0
LINE
8
BLACK
6
CONTINUOUS
10
6.1722168503937009
20
-3.0968294094488189
11
6.1716613385826768
21
-3.0880000000000001
0
LINE
8
BLACK
6
CONTINUOUS
10
6.1716613385826768
20
-3.0880000000000001
11
6.1440025984251969
21
-3.0880000000000001
0
LINE
8
BLACK
6
CONTINUOUS
10
6.1440025984251969
20
-3.0880000000000001
11
5.8839999999999995
21
-3.0880000000000001
0
LINE
8
BLACK
6
CONTINUOUS
10
5.8839999999999995
20
-3.0880000000000001
11
5.883237086614173
21
-3.0879499999999998
0
LINE
8
BLACK
6
CONTINUOUS
10
5.883237086614173
20
-3.0879499999999998
11
5.8630499999999994
21
-3.0879499999999998
0
LINE
8
BLACK
6
CONTINUOUS
10
5.8630499999999994
20
-3.0879499999999998
11
5.8630499999999994
21
-3.0460500000000001
0
LINE
8
BLACK
6
CONTINUOUS
10
5.8630499999999994
20
-3.0460500000000001
11
5.883237086614173
21
-3.0460500000000001
0
LINE
8
BLACK
6
CONTINUOUS
10
5.883237086614173
20
-3.0460500000000001
11
5.8839999999999995
21
-3.0459999999999998
0
LINE
8
BLACK
6
CONTINUOUS
10
5.8839999999999995
20
-3.0459999999999998
11
6.1640025984251965
21
-3.0459999999999998
0
LINE
8
BLACK
6
CONTINUOUS
10
6.1640025984251965
20
-3.0459999999999998
11
6.1716613385826768
21
-3.0459999999999998
0
LINE
8
BLACK
6
CONTINUOUS
10
6.1716613385826768
20
-3.0459999999999998
11
6.1722168503937009
21
-3.037170590551181
0
LINE
8
BLACK
6
CONTINUOUS
10
6.1722168503937009
20
-3.037170590551181
11
6.1744378346456692
21
-3.0255277165354331
0
LINE
8
BLACK
6
CONTINUOUS
10
6.1744378346456692
20
-3.0255277165354331
11
6.1781005511811022
21
-3.0142550393700787
0
LINE
8
BLACK
6
CONTINUOUS
10
6.1781005511811022
20
-3.0142550393700787
11
6.1831472440944877
21
-3.0035303149606301
0
LINE
8
BLACK
6
CONTINUOUS
10
6.1831472440944877
20
-3.0035303149606301
11
6.1894982677165356
21
-2.9935226377952757
0
LINE
8
BLACK
6
CONTINUOUS
10
6.1894982677165356
20
-2.9935226377952757
11
6.1970535433070868
21
-2.9843899212598424
0
LINE
8
BLACK
6
CONTINUOUS
10
6.1970535433070868
20
-2.9843899212598424
11
6.2056938582677166
21
-2.9762761023622049
0
LINE
8
BLACK
6
CONTINUOUS
10
6.2056938582677166
20
-2.9762761023622049
11
6.2152829921259842
21
-2.9693092125984251
0
LINE
8
BLACK
6
CONTINUOUS
10
6.2152829921259842
20
-2.9693092125984251
11
6.22566968503937
21
-2.9635990551181099
0
LINE
8
BLACK
6
CONTINUOUS
10
6.22566968503937
20
-2.9635990551181099
11
6.2366901181102357
21
-2.9592357480314959
0
LINE
8
BLACK
6
CONTINUOUS
10
6.2366901181102357
20
-2.9592357480314959
11
6.2481705511811025
21
-2.9562881102362204
0
LINE
8
BLACK
6
CONTINUOUS
10
6.2481705511811025
20
-2.9562881102362204
11
6.2599298818897635
21
-2.9548025590551181
0
LINE
8
BLACK
6
CONTINUOUS
10
6.2599298818897635
20
-2.9548025590551181
11
6.2717827165354327
21
-2.9548025590551181
0
LINE
8
BLACK
6
CONTINUOUS
10
6.2717827165354327
20
-2.9548025590551181
11
6.2835420472440946
21
-2.9562881102362204
0
LINE
8
BLACK
6
CONTINUOUS
10
6.2835420472440946
20
-2.9562881102362204
11
6.2950224803149606
21
-2.9592357480314959
0
LINE
8
BLACK
6
CONTINUOUS
10
6.2950224803149606
20
-2.9592357480314959
11
6.3060429133858262
21
-2.9635990551181099
0
LINE
8
BLACK
6
CONTINUOUS
10
6.3060429133858262
20
-2.9635990551181099
11
6.316429606299212
21
-2.9693092125984251
0
LINE
8
BLACK
6
CONTINUOUS
10
6.316429606299212
20
-2.9693092125984251
11
6.3260187401574806
21
-2.9762761023622049
0
LINE
8
BLACK
6
CONTINUOUS
10
6.3260187401574806
20
-2.9762761023622049
11
6.3346590551181103
21
-2.9843899212598424
0
LINE
8
BLACK
6
CONTINUOUS
10
6.3346590551181103
20
-2.9843899212598424
11
6.3422143307086616
21
-2.9935226377952757
0
LINE
8
BLACK
6
CONTINUOUS
10
6.3422143307086616
20
-2.9935226377952757
11
6.3485653543307086
21
-3.0035303149606301
0
LINE
8
BLACK
6
CONTINUOUS
10
6.3485653543307086
20
-3.0035303149606301
11
6.353612047244094
21
-3.0142550393700787
0
LINE
8
BLACK
6
CONTINUOUS
10
6.353612047244094
20
-3.0142550393700787
11
6.357274763779527
21
-3.0255277165354331
0
LINE
8
BLACK
6
CONTINUOUS
10
6.357274763779527
20
-3.0255277165354331
11
6.3578623622047239
21
-3.0286081496062991
0
LINE
8
BLACK
6
CONTINUOUS
10
6.3578623622047239
20
-3.0286081496062991
11
6.3667192519685036
21
-3.0287756692913383
0
LINE
8
BLACK
6
CONTINUOUS
10
6.3667192519685036
20
-3.0287756692913383
11
6.3684675590551176
21
-3.019610905511811
0
LINE
8
BLACK
6
CONTINUOUS
10
6.3684675590551176
20
-3.019610905511811
11
6.3720096456692916
21
-3.0087095669291339
0
LINE
8
BLACK
6
CONTINUOUS
10
6.3720096456692916
20
-3.0087095669291339
11
6.376890078740157
21
-2.9983380708661418
0
LINE
8
BLACK
6
CONTINUOUS
10
6.376890078740157
20
-2.9983380708661418
11
6.3830319291338578
21
-2.9886600787401574
0
LINE
8
BLACK
6
CONTINUOUS
10
6.3830319291338578
20
-2.9886600787401574
11
6.3903383070866138
21
-2.979828188976378
0
LINE
8
BLACK
6
CONTINUOUS
10
6.3903383070866138
20
-2.979828188976378
11
6.3986940157480312
21
-2.971981653543307
0
LINE
8
BLACK
6
CONTINUOUS
10
6.3986940157480312
20
-2.971981653543307
11
6.4079672440944879
21
-2.9652442519685041
0
LINE
8
BLACK
6
CONTINUOUS
10
6.4079672440944879
20
-2.9652442519685041
11
6.4180118110236215
21
-2.9597222047244092
0
LINE
8
BLACK
6
CONTINUOUS
10
6.4180118110236215
20
-2.9597222047244092
11
6.428669251968504
21
-2.9555025984251966
0
LINE
8
BLACK
6
CONTINUOUS
10
6.428669251968504
20
-2.9555025984251966
11
6.4397714960629919
21
-2.9526520472440945
0
LINE
8
BLACK
6
CONTINUOUS
10
6.4397714960629919
20
-2.9526520472440945
11
6.4511435039370078
21
-2.9512154330708662
0
LINE
8
BLACK
6
CONTINUOUS
10
6.4511435039370078
20
-2.9512154330708662
11
6.4626058661417325
21
-2.9512154330708662
0
LINE
8
BLACK
6
CONTINUOUS
10
6.4626058661417325
20
-2.9512154330708662
11
6.4739778740157483
21
-2.9526520472440945
0
LINE
8
BLACK
6
CONTINUOUS
10
6.4739778740157483
20
-2.9526520472440945
11
6.4850801181102362
21
-2.9555025984251966
0
LINE
8
BLACK
6
CONTINUOUS
10
6.4850801181102362
20
-2.9555025984251966
11
6.4957375590551178
21
-2.9597222047244092
0
LINE
8
BLACK
6
CONTINUOUS
10
6.4957375590551178
20
-2.9597222047244092
11
6.5057821259842514
21
-2.9652442519685041
0
LINE
8
BLACK
6
CONTINUOUS
10
6.5057821259842514
20
-2.9652442519685041
11
6.5150553543307081
21
-2.971981653543307
0
LINE
8
BLACK
6
CONTINUOUS
10
6.5150553543307081
20
-2.971981653543307
11
6.5234110629921256
21
-2.979828188976378
0
LINE
8
BLACK
6
CONTINUOUS
10
6.5234110629921256
20
-2.979828188976378
11
6.5307174409448816
21
-2.9886600787401574
0
LINE
8
BLACK
6
CONTINUOUS
10
6.5307174409448816
20
-2.9886600787401574
11
6.5368592913385823
21
-2.9983380708661418
0
LINE
8
BLACK
6
CONTINUOUS
10
6.5368592913385823
20
-2.9983380708661418
11
6.5417397244094486
21
-3.0087095669291339
0
LINE
8
BLACK
6
CONTINUOUS
10
6.5417397244094486
20
-3.0087095669291339
11
6.5432205511811024
21
-3.0132671259842518
0
LINE
8
BLACK
6
CONTINUOUS
10
6.5432205511811024
20
-3.0132671259842518
11
6.5599770078740152
21
-3.0093244488188975
0
LINE
8
BLACK
6
CONTINUOUS
10
6.5599770078740152
20
-3.0093244488188975
11
6.8041507480314962
21
-2.7651507480314961
0
LINE
8
BLACK
6
CONTINUOUS
10
6.8041507480314962
20
-2.7651507480314961
11
6.8062160236220475
21
-2.7633395669291336
0
LINE
8
BLACK
6
CONTINUOUS
10
6.8062160236220475
20
-2.7633395669291336
11
6.8109636614173228
21
-2.7605985433070868
0
LINE
8
BLACK
6
CONTINUOUS
10
6.8109636614173228
20
-2.7605985433070868
11
6.8162589370078734
21
-2.7591796456692914
0
LINE
8
BLACK
6
CONTINUOUS
10
6.8162589370078734
20
-2.7591796456692914
11
6.819
21
-2.7589999999999999
0
LINE
8
BLACK
6
CONTINUOUS
10
6.819
20
-2.7589999999999999
11
6.899
21
-2.7589999999999999
0
LINE
8
BLACK
6
CONTINUOUS
10
6.899
20
-2.7589999999999999
11
6.8997629133858265
21
-2.7590499999999998
  0
ENDSEC
  0
EOF
