  0
SECTION
  2
HEADER
  9
$ANGBASE
  50
0.0
  9
$ANGDIR
  70
1
  9
$MEASUREMENT
  70
0
  0
ENDSEC
  0
SECTION
  2
TABLES
  0
TABLE
  2
LTYPE
  70
4
  0
LTYPE
  5
40F
  2
CONTINUOUS
  70
0
  3
Solid line
  72
65
  73
0
  40
0.0
  0
LTYPE
  5
410
  2
DASHDOT
 70
0
  3
Dash Dot ____ _ ____ _
 72
65
 73
4
 40
2.0
 49
1.25
 49
-0.25
 49
0.25
 49
-0.25
  0
LTYPE
  5
411
  2
DASHED
 70
0
  3
Dashed __ __ __ __ __
 72
65
 73
2
 40
0.75
 49
0.5
 49
-0.25
  0
LTYPE
  5
43B
  2
DOTTED
 70
0
  3
Dotted .  .  .  .
 72
65
 73
2
 40
0.2
 49
0.0
 49
-0.2
  0
ENDTAB
  0
TABLE
  2
STYLE
  70
4
  0
STYLE
  2
KICAD
  70
0
  40
0
  41
1
  42
1
  50
0
  71
0
  3
isocp.shx
  0
STYLE
  2
KICADB
  70
0
  40
0
  41
1
  42
1
  50
0
  71
0
  3
isocp.shx
  0
STYLE
  2
KICADI
  70
0
  40
0
  41
1
  42
1
  50
15
  71
0
  3
isocp.shx
  0
STYLE
  2
KICADBI
  70
0
  40
0
  41
1
  42
1
  50
15
  71
0
  3
isocp.shx
  0
ENDTAB
  0
TABLE
  2
LAYER
  70
1
  0
LAYER
  2
BLACK
  70
0
  62
7
  6
CONTINUOUS
  0
ENDTAB
  0
ENDSEC
  0
SECTION
  2
ENTITIES
0
LINE
8
BLACK
6
CONTINUOUS
10
7.056122401574803
20
-3.2351702755905509
11
7.0562722440944876
21
-3.2359235826771653
0
LINE
8
BLACK
6
CONTINUOUS
10
7.0562722440944876
20
-3.2359235826771653
11
7.0562722440944876
21
-3.2673298818897636
0
LINE
8
BLACK
6
CONTINUOUS
10
7.0562722440944876
20
-3.2673298818897636
11
7.0577962992125984
21
-3.2703779921259843
0
LINE
8
BLACK
6
CONTINUOUS
10
7.0577962992125984
20
-3.2703779921259843
11
7.0592193700787398
21
-3.2718011023622044
0
LINE
8
BLACK
6
CONTINUOUS
10
7.0592193700787398
20
-3.2718011023622044
11
7.0622675196850393
21
-3.2733251574803148
0
LINE
8
BLACK
6
CONTINUOUS
10
7.0622675196850393
20
-3.2733251574803148
11
7.0688371653543305
21
-3.2733251574803148
0
LINE
8
BLACK
6
CONTINUOUS
10
7.0688371653543305
20
-3.2733251574803148
11
7.0718852362204725
21
-3.2718011023622044
0
LINE
8
BLACK
6
CONTINUOUS
10
7.0718852362204725
20
-3.2718011023622044
11
7.0733083070866138
21
-3.2703779921259843
0
LINE
8
BLACK
6
CONTINUOUS
10
7.0733083070866138
20
-3.2703779921259843
11
7.0748324015748034
21
-3.2673298425196848
0
LINE
8
BLACK
6
CONTINUOUS
10
7.0748324015748034
20
-3.2673298425196848
11
7.0748324015748034
21
-3.2359235826771653
0
LINE
8
BLACK
6
CONTINUOUS
10
7.0748324015748034
20
-3.2359235826771653
11
7.0749822440944881
21
-3.2351702755905509
0
LINE
8
BLACK
6
CONTINUOUS
10
7.0749822440944881
20
-3.2351702755905509
11
7.0760475984251965
21
-3.2341049212598425
0
LINE
8
BLACK
6
CONTINUOUS
10
7.0760475984251965
20
-3.2341049212598425
11
7.0775542125984252
21
-3.2341049212598425
0
LINE
8
BLACK
6
CONTINUOUS
10
7.0775542125984252
20
-3.2341049212598425
11
7.0786195669291336
21
-3.2351702755905509
0
LINE
8
BLACK
6
CONTINUOUS
10
7.0786195669291336
20
-3.2351702755905509
11
7.0787694094488192
21
-3.2359235826771653
0
LINE
8
BLACK
6
CONTINUOUS
10
7.0787694094488192
20
-3.2359235826771653
11
7.0787694094488192
21
-3.2677945669291337
0
LINE
8
BLACK
6
CONTINUOUS
10
7.0787694094488192
20
-3.2677945669291337
11
7.0787501574803144
21
-3.2678912598425196
0
LINE
8
BLACK
6
CONTINUOUS
10
7.0787501574803144
20
-3.2678912598425196
11
7.0787644488188972
21
-3.2679341338582675
0
LINE
8
BLACK
6
CONTINUOUS
10
7.0787644488188972
20
-3.2679341338582675
11
7.0786811023622045
21
-3.2682383464566929
0
LINE
8
BLACK
6
CONTINUOUS
10
7.0786811023622045
20
-3.2682383464566929
11
7.0786195669291336
21
-3.2685478740157481
0
LINE
8
BLACK
6
CONTINUOUS
10
7.0786195669291336
20
-3.2685478740157481
11
7.0785875984251962
21
-3.2685798031496063
0
LINE
8
BLACK
6
CONTINUOUS
10
7.0785875984251962
20
-3.2685798031496063
11
7.0785615748031496
21
-3.2686749212598425
0
LINE
8
BLACK
6
CONTINUOUS
10
7.0785615748031496
20
-3.2686749212598425
11
7.0766868110236221
21
-3.2724244488188976
0
LINE
8
BLACK
6
CONTINUOUS
10
7.0766868110236221
20
-3.2724244488188976
11
7.0764934251968503
21
-3.2726735826771653
0
LINE
8
BLACK
6
CONTINUOUS
10
7.0764934251968503
20
-3.2726735826771653
11
7.0763181102362207
21
-3.2729360236220471
0
LINE
8
BLACK
6
CONTINUOUS
10
7.0763181102362207
20
-3.2729360236220471
11
7.0744433464566931
21
-3.2748108267716534
0
LINE
8
BLACK
6
CONTINUOUS
10
7.0744433464566931
20
-3.2748108267716534
11
7.0741807874015743
21
-3.2749862598425197
0
LINE
8
BLACK
6
CONTINUOUS
10
7.0741807874015743
20
-3.2749862598425197
11
7.0739316929133853
21
-3.2751796062992127
0
LINE
8
BLACK
6
CONTINUOUS
10
7.0739316929133853
20
-3.2751796062992127
11
7.0701822047244089
21
-3.2770543307086615
0
LINE
8
BLACK
6
CONTINUOUS
10
7.0701822047244089
20
-3.2770543307086615
11
7.0700870866141727
21
-3.2770803543307085
0
LINE
8
BLACK
6
CONTINUOUS
10
7.0700870866141727
20
-3.2770803543307085
11
7.070055157480315
21
-3.2771123228346455
0
LINE
8
BLACK
6
CONTINUOUS
10
7.070055157480315
20
-3.2771123228346455
11
7.0697456299212593
21
-3.2771738582677163
0
LINE
8
BLACK
6
CONTINUOUS
10
7.0697456299212593
20
-3.2771738582677163
11
7.0694414173228344
21
-3.2772572047244095
0
LINE
8
BLACK
6
CONTINUOUS
10
7.0694414173228344
20
-3.2772572047244095
11
7.0693985433070861
21
-3.2772429133858267
0
LINE
8
BLACK
6
CONTINUOUS
10
7.0693985433070861
20
-3.2772429133858267
11
7.0693018503937006
21
-3.2772621653543306
0
LINE
8
BLACK
6
CONTINUOUS
10
7.0693018503937006
20
-3.2772621653543306
11
7.0618027952755904
21
-3.2772621653543306
0
LINE
8
BLACK
6
CONTINUOUS
10
7.0618027952755904
20
-3.2772621653543306
11
7.0617060629921262
21
-3.2772429133858267
0
LINE
8
BLACK
6
CONTINUOUS
10
7.0617060629921262
20
-3.2772429133858267
11
7.0616632283464567
21
-3.2772572047244095
0
LINE
8
BLACK
6
CONTINUOUS
10
7.0616632283464567
20
-3.2772572047244095
11
7.061358976377953
21
-3.2771738582677163
0
LINE
8
BLACK
6
CONTINUOUS
10
7.061358976377953
20
-3.2771738582677163
11
7.061049488188976
21
-3.2771123228346455
0
LINE
8
BLACK
6
CONTINUOUS
10
7.061049488188976
20
-3.2771123228346455
11
7.0610175196850395
21
-3.2770803543307085
0
LINE
8
BLACK
6
CONTINUOUS
10
7.0610175196850395
20
-3.2770803543307085
11
7.0609224409448821
21
-3.2770543307086615
0
LINE
8
BLACK
6
CONTINUOUS
10
7.0609224409448821
20
-3.2770543307086615
11
7.057172913385827
21
-3.2751795669291339
0
LINE
8
BLACK
6
CONTINUOUS
10
7.057172913385827
20
-3.2751795669291339
11
7.0569237401574805
21
-3.2749861811023622
0
LINE
8
BLACK
6
CONTINUOUS
10
7.0569237401574805
20
-3.2749861811023622
11
7.0566612992125979
21
-3.2748108267716534
0
LINE
8
BLACK
6
CONTINUOUS
10
7.0566612992125979
20
-3.2748108267716534
11
7.0547865354330703
21
-3.2729360236220471
0
LINE
8
BLACK
6
CONTINUOUS
10
7.0547865354330703
20
-3.2729360236220471
11
7.0546111417322832
21
-3.2726735433070866
0
LINE
8
BLACK
6
CONTINUOUS
10
7.0546111417322832
20
-3.2726735433070866
11
7.0544177952755902
21
-3.2724244094488188
0
LINE
8
BLACK
6
CONTINUOUS
10
7.0544177952755902
20
-3.2724244094488188
11
7.0525430708661414
21
-3.2686749212598425
0
LINE
8
BLACK
6
CONTINUOUS
10
7.0525430708661414
20
-3.2686749212598425
11
7.052517007874016
21
-3.2685798031496063
0
LINE
8
BLACK
6
CONTINUOUS
10
7.052517007874016
20
-3.2685798031496063
11
7.0524850787401574
21
-3.2685478740157481
0
LINE
8
BLACK
6
CONTINUOUS
10
7.0524850787401574
20
-3.2685478740157481
11
7.0524235039370078
21
-3.2682383464566929
0
LINE
8
BLACK
6
CONTINUOUS
10
7.0524235039370078
20
-3.2682383464566929
11
7.0523401968503938
21
-3.2679341338582675
0
LINE
8
BLACK
6
CONTINUOUS
10
7.0523401968503938
20
-3.2679341338582675
11
7.0523544488188978
21
-3.2678912598425196
0
LINE
8
BLACK
6
CONTINUOUS
10
7.0523544488188978
20
-3.2678912598425196
11
7.0523352362204719
21
-3.2677945669291337
0
LINE
8
BLACK
6
CONTINUOUS
10
7.0523352362204719
20
-3.2677945669291337
11
7.0523352362204719
21
-3.2359235826771653
0
LINE
8
BLACK
6
CONTINUOUS
10
7.0523352362204719
20
-3.2359235826771653
11
7.0524850787401574
21
-3.2351702755905509
0
LINE
8
BLACK
6
CONTINUOUS
10
7.0524850787401574
20
-3.2351702755905509
11
7.0535504330708658
21
-3.2341049212598425
0
LINE
8
BLACK
6
CONTINUOUS
10
7.0535504330708658
20
-3.2341049212598425
11
7.0550570472440945
21
-3.2341049212598425
0
LINE
8
BLACK
6
CONTINUOUS
10
7.0550570472440945
20
-3.2341049212598425
11
7.056122401574803
21
-3.2351702755905509
0
LINE
8
BLACK
6
CONTINUOUS
10
7.1167200393700787
20
-3.2340642913385826
11
7.1168016535433072
21
-3.2340588582677166
0
LINE
8
BLACK
6
CONTINUOUS
10
7.1168016535433072
20
-3.2340588582677166
11
7.1168337007874012
21
-3.2340868897637796
0
LINE
8
BLACK
6
CONTINUOUS
10
7.1168337007874012
20
-3.2340868897637796
11
7.1169242913385826
21
-3.2341049212598425
0
LINE
8
BLACK
6
CONTINUOUS
10
7.1169242913385826
20
-3.2341049212598425
11
7.1174140551181102
21
-3.2345946850393701
0
LINE
8
BLACK
6
CONTINUOUS
10
7.1174140551181102
20
-3.2345946850393701
11
7.117935511811023
21
-3.2350509448818898
0
LINE
8
BLACK
6
CONTINUOUS
10
7.117935511811023
20
-3.2350509448818898
11
7.1179401574803149
21
-3.2351207874015748
0
LINE
8
BLACK
6
CONTINUOUS
10
7.1179401574803149
20
-3.2351207874015748
11
7.117989645669291
21
-3.2351702755905509
0
LINE
8
BLACK
6
CONTINUOUS
10
7.117989645669291
20
-3.2351702755905509
11
7.117989645669291
21
-3.2358631102362203
0
LINE
8
BLACK
6
CONTINUOUS
10
7.117989645669291
20
-3.2358631102362203
11
7.1180357086614174
21
-3.2365542519685038
0
LINE
8
BLACK
6
CONTINUOUS
10
7.1180357086614174
20
-3.2365542519685038
11
7.117989645669291
21
-3.2366342125984251
0
LINE
8
BLACK
6
CONTINUOUS
10
7.117989645669291
20
-3.2366342125984251
11
7.117989645669291
21
-3.2366768897637797
0
LINE
8
BLACK
6
CONTINUOUS
10
7.117989645669291
20
-3.2366768897637797
11
7.1179317322834645
21
-3.2367347637795274
0
LINE
8
BLACK
6
CONTINUOUS
10
7.1179317322834645
20
-3.2367347637795274
11
7.117652440944882
21
-3.2372198425196848
0
LINE
8
BLACK
6
CONTINUOUS
10
7.117652440944882
20
-3.2372198425196848
11
7.1073857480314961
21
-3.2489531889763779
0
LINE
8
BLACK
6
CONTINUOUS
10
7.1073857480314961
20
-3.2489531889763779
11
7.108671929133858
21
-3.2489531889763779
0
LINE
8
BLACK
6
CONTINUOUS
10
7.108671929133858
20
-3.2489531889763779
11
7.1087686220472444
21
-3.2489724015748029
0
LINE
8
BLACK
6
CONTINUOUS
10
7.1087686220472444
20
-3.2489724015748029
11
7.1088114960629918
21
-3.2489581496062989
0
LINE
8
BLACK
6
CONTINUOUS
10
7.1088114960629918
20
-3.2489581496062989
11
7.1091157086614167
21
-3.2490414566929133
0
LINE
8
BLACK
6
CONTINUOUS
10
7.1091157086614167
20
-3.2490414566929133
11
7.1094252362204724
21
-3.2491030314960629
0
LINE
8
BLACK
6
CONTINUOUS
10
7.1094252362204724
20
-3.2491030314960629
11
7.1094571653543301
21
-3.2491349606299211
0
LINE
8
BLACK
6
CONTINUOUS
10
7.1094571653543301
20
-3.2491349606299211
11
7.1095522834645664
21
-3.249161023622047
0
LINE
8
BLACK
6
CONTINUOUS
10
7.1095522834645664
20
-3.249161023622047
11
7.1133017716535427
21
-3.2510357480314962
0
LINE
8
BLACK
6
CONTINUOUS
10
7.1133017716535427
20
-3.2510357480314962
11
7.1135511023622042
21
-3.2512292519685038
0
LINE
8
BLACK
6
CONTINUOUS
10
7.1135511023622042
20
-3.2512292519685038
11
7.1138133858267718
21
-3.2514045275590551
0
LINE
8
BLACK
6
CONTINUOUS
10
7.1138133858267718
20
-3.2514045275590551
11
7.1156881496062994
21
-3.2532792519685039
0
LINE
8
BLACK
6
CONTINUOUS
10
7.1156881496062994
20
-3.2532792519685039
11
7.1158635039370077
21
-3.2535416929133856
0
LINE
8
BLACK
6
CONTINUOUS
10
7.1158635039370077
20
-3.2535416929133856
11
7.1160568897637795
21
-3.2537908661417321
0
LINE
8
BLACK
6
CONTINUOUS
10
7.1160568897637795
20
-3.2537908661417321
11
7.117931653543307
21
-3.2575403937007872
0
LINE
8
BLACK
6
CONTINUOUS
10
7.117931653543307
20
-3.2575403937007872
11
7.1179576771653545
21
-3.2576354724409446
0
LINE
8
BLACK
6
CONTINUOUS
10
7.1179576771653545
20
-3.2576354724409446
11
7.117989645669291
21
-3.257667440944882
0
LINE
8
BLACK
6
CONTINUOUS
10
7.117989645669291
20
-3.257667440944882
11
7.1180511811023619
21
-3.2579769291338581
0
LINE
8
BLACK
6
CONTINUOUS
10
7.1180511811023619
20
-3.2579769291338581
11
7.1181345275590546
21
-3.2582811811023622
0
LINE
8
BLACK
6
CONTINUOUS
10
7.1181345275590546
20
-3.2582811811023622
11
7.1181202362204719
21
-3.2583240157480313
0
LINE
8
BLACK
6
CONTINUOUS
10
7.1181202362204719
20
-3.2583240157480313
11
7.1181394881889766
21
-3.258420748031496
0
LINE
8
BLACK
6
CONTINUOUS
10
7.1181394881889766
20
-3.258420748031496
11
7.1181394881889766
21
-3.2677945669291337
0
LINE
8
BLACK
6
CONTINUOUS
10
7.1181394881889766
20
-3.2677945669291337
11
7.1181202362204719
21
-3.2678912598425196
0
LINE
8
BLACK
6
CONTINUOUS
10
7.1181202362204719
20
-3.2678912598425196
11
7.1181345275590546
21
-3.2679341338582675
0
LINE
8
BLACK
6
CONTINUOUS
10
7.1181345275590546
20
-3.2679341338582675
11
7.1180511811023619
21
-3.2682383464566929
0
LINE
8
BLACK
6
CONTINUOUS
10
7.1180511811023619
20
-3.2682383464566929
11
7.117989645669291
21
-3.2685478740157481
0
LINE
8
BLACK
6
CONTINUOUS
10
7.117989645669291
20
-3.2685478740157481
11
7.1179576771653545
21
-3.2685798031496063
0
LINE
8
BLACK
6
CONTINUOUS
10
7.1179576771653545
20
-3.2685798031496063
11
7.117931653543307
21
-3.2686749212598425
0
LINE
8
BLACK
6
CONTINUOUS
10
7.117931653543307
20
-3.2686749212598425
11
7.1160568897637795
21
-3.2724244488188976
0
LINE
8
BLACK
6
CONTINUOUS
10
7.1160568897637795
20
-3.2724244488188976
11
7.1158635039370077
21
-3.2726735826771653
0
LINE
8
BLACK
6
CONTINUOUS
10
7.1158635039370077
20
-3.2726735826771653
11
7.1156881889763781
21
-3.2729360236220471
0
LINE
8
BLACK
6
CONTINUOUS
10
7.1156881889763781
20
-3.2729360236220471
11
7.1138134251968506
21
-3.2748108267716534
0
LINE
8
BLACK
6
CONTINUOUS
10
7.1138134251968506
20
-3.2748108267716534
11
7.1135508661417317
21
-3.2749862598425197
0
LINE
8
BLACK
6
CONTINUOUS
10
7.1135508661417317
20
-3.2749862598425197
11
7.1133017716535427
21
-3.2751796062992127
0
LINE
8
BLACK
6
CONTINUOUS
10
7.1133017716535427
20
-3.2751796062992127
11
7.1095522834645664
21
-3.2770543307086615
0
LINE
8
BLACK
6
CONTINUOUS
10
7.1095522834645664
20
-3.2770543307086615
11
7.1094571653543301
21
-3.2770803543307085
0
LINE
8
BLACK
6
CONTINUOUS
10
7.1094571653543301
20
-3.2770803543307085
11
7.1094252362204724
21
-3.2771123228346455
0
LINE
8
BLACK
6
CONTINUOUS
10
7.1094252362204724
20
-3.2771123228346455
11
7.1091157086614167
21
-3.2771738582677163
0
LINE
8
BLACK
6
CONTINUOUS
10
7.1091157086614167
20
-3.2771738582677163
11
7.1088114960629918
21
-3.2772572047244095
0
LINE
8
BLACK
6
CONTINUOUS
10
7.1088114960629918
20
-3.2772572047244095
11
7.1087686220472444
21
-3.2772429133858267
0
LINE
8
BLACK
6
CONTINUOUS
10
7.1087686220472444
20
-3.2772429133858267
11
7.108671929133858
21
-3.2772621653543306
0
LINE
8
BLACK
6
CONTINUOUS
10
7.108671929133858
20
-3.2772621653543306
11
7.0974233464566927
21
-3.2772621653543306
0
LINE
8
BLACK
6
CONTINUOUS
10
7.0974233464566927
20
-3.2772621653543306
11
7.0973266141732285
21
-3.2772429133858267
0
LINE
8
BLACK
6
CONTINUOUS
10
7.0973266141732285
20
-3.2772429133858267
11
7.097283779527559
21
-3.2772572047244095
0
LINE
8
BLACK
6
CONTINUOUS
10
7.097283779527559
20
-3.2772572047244095
11
7.0969795275590553
21
-3.2771738582677163
0
LINE
8
BLACK
6
CONTINUOUS
10
7.0969795275590553
20
-3.2771738582677163
11
7.0966700393700783
21
-3.2771123228346455
0
LINE
8
BLACK
6
CONTINUOUS
10
7.0966700393700783
20
-3.2771123228346455
11
7.0966380708661418
21
-3.2770803543307085
0
LINE
8
BLACK
6
CONTINUOUS
10
7.0966380708661418
20
-3.2770803543307085
11
7.0965429921259844
21
-3.2770543307086615
0
LINE
8
BLACK
6
CONTINUOUS
10
7.0965429921259844
20
-3.2770543307086615
11
7.0927934645669293
21
-3.2751795669291339
0
LINE
8
BLACK
6
CONTINUOUS
10
7.0927934645669293
20
-3.2751795669291339
11
7.0925442913385828
21
-3.2749861811023622
0
LINE
8
BLACK
6
CONTINUOUS
10
7.0925442913385828
20
-3.2749861811023622
11
7.0922818503937002
21
-3.2748108267716534
0
LINE
8
BLACK
6
CONTINUOUS
10
7.0922818503937002
20
-3.2748108267716534
11
7.0904070866141726
21
-3.2729360236220471
0
LINE
8
BLACK
6
CONTINUOUS
10
7.0904070866141726
20
-3.2729360236220471
11
7.0899803937007873
21
-3.2722974015748032
0
LINE
8
BLACK
6
CONTINUOUS
10
7.0899803937007873
20
-3.2722974015748032
11
7.0899803937007873
21
-3.2707907480314962
0
LINE
8
BLACK
6
CONTINUOUS
10
7.0899803937007873
20
-3.2707907480314962
11
7.0910457480314957
21
-3.269725433070866
0
LINE
8
BLACK
6
CONTINUOUS
10
7.0910457480314957
20
-3.269725433070866
11
7.0925524015748032
21
-3.269725433070866
0
LINE
8
BLACK
6
CONTINUOUS
10
7.0925524015748032
20
-3.269725433070866
11
7.0931910236220475
21
-3.2701521653543306
0
LINE
8
BLACK
6
CONTINUOUS
10
7.0931910236220475
20
-3.2701521653543306
11
7.0948399212598421
21
-3.2718011023622044
0
LINE
8
BLACK
6
CONTINUOUS
10
7.0948399212598421
20
-3.2718011023622044
11
7.0978880708661416
21
-3.2733251574803148
0
LINE
8
BLACK
6
CONTINUOUS
10
7.0978880708661416
20
-3.2733251574803148
11
7.1082072440944879
21
-3.2733251574803148
0
LINE
8
BLACK
6
CONTINUOUS
10
7.1082072440944879
20
-3.2733251574803148
11
7.1112553149606299
21
-3.2718011023622044
0
LINE
8
BLACK
6
CONTINUOUS
10
7.1112553149606299
20
-3.2718011023622044
11
7.1126783858267713
21
-3.2703779921259843
0
LINE
8
BLACK
6
CONTINUOUS
10
7.1126783858267713
20
-3.2703779921259843
11
7.1142024803149608
21
-3.2673298425196848
0
LINE
8
BLACK
6
CONTINUOUS
10
7.1142024803149608
20
-3.2673298425196848
11
7.1142024803149608
21
-3.2588854330708661
0
LINE
8
BLACK
6
CONTINUOUS
10
7.1142024803149608
20
-3.2588854330708661
11
7.1126783858267713
21
-3.255837283464567
0
LINE
8
BLACK
6
CONTINUOUS
10
7.1126783858267713
20
-3.255837283464567
11
7.1112553937007874
21
-3.254414251968504
0
LINE
8
BLACK
6
CONTINUOUS
10
7.1112553937007874
20
-3.254414251968504
11
7.1082072440944879
21
-3.2528901968503936
0
LINE
8
BLACK
6
CONTINUOUS
10
7.1082072440944879
20
-3.2528901968503936
11
7.1030476377952754
21
-3.2528901968503936
0
LINE
8
BLACK
6
CONTINUOUS
10
7.1030476377952754
20
-3.2528901968503936
11
7.1024985433070862
21
-3.2527809448818896
0
LINE
8
BLACK
6
CONTINUOUS
10
7.1024985433070862
20
-3.2527809448818896
11
7.1024169685039364
21
-3.2527864173228345
0
LINE
8
BLACK
6
CONTINUOUS
10
7.1024169685039364
20
-3.2527864173228345
11
7.1023848818897637
21
-3.2527583464566927
0
LINE
8
BLACK
6
CONTINUOUS
10
7.1023848818897637
20
-3.2527583464566927
11
7.102294330708661
21
-3.2527403543307085
0
LINE
8
BLACK
6
CONTINUOUS
10
7.102294330708661
20
-3.2527403543307085
11
7.1018045275590547
21
-3.2522505511811022
0
LINE
8
BLACK
6
CONTINUOUS
10
7.1018045275590547
20
-3.2522505511811022
11
7.1012831102362206
21
-3.2517943307086612
0
LINE
8
BLACK
6
CONTINUOUS
10
7.1012831102362206
20
-3.2517943307086612
11
7.1012784251968499
21
-3.2517244488188974
0
LINE
8
BLACK
6
CONTINUOUS
10
7.1012784251968499
20
-3.2517244488188974
11
7.1012289763779526
21
-3.2516750000000001
0
LINE
8
BLACK
6
CONTINUOUS
10
7.1012289763779526
20
-3.2516750000000001
11
7.1012289763779526
21
-3.250982125984252
0
LINE
8
BLACK
6
CONTINUOUS
10
7.1012289763779526
20
-3.250982125984252
11
7.1011829133858262
21
-3.2502910236220472
0
LINE
8
BLACK
6
CONTINUOUS
10
7.1011829133858262
20
-3.2502910236220472
11
7.1012289763779526
21
-3.2502110236220472
0
LINE
8
BLACK
6
CONTINUOUS
10
7.1012289763779526
20
-3.2502110236220472
11
7.1012289763779526
21
-3.2501683858267714
0
LINE
8
BLACK
6
CONTINUOUS
10
7.1012289763779526
20
-3.2501683858267714
11
7.1012868503937003
21
-3.2501104724409449
0
LINE
8
BLACK
6
CONTINUOUS
10
7.1012868503937003
20
-3.2501104724409449
11
7.1015661811023625
21
-3.2496254330708663
0
LINE
8
BLACK
6
CONTINUOUS
10
7.1015661811023625
20
-3.2496254330708663
11
7.1118328740157475
21
-3.2378920866141732
0
LINE
8
BLACK
6
CONTINUOUS
10
7.1118328740157475
20
-3.2378920866141732
11
7.09179905511811
21
-3.2378920866141732
0
LINE
8
BLACK
6
CONTINUOUS
10
7.09179905511811
20
-3.2378920866141732
11
7.0910457480314957
21
-3.2377422440944881
0
LINE
8
BLACK
6
CONTINUOUS
10
7.0910457480314957
20
-3.2377422440944881
11
7.0899803937007873
21
-3.2366768897637797
0
LINE
8
BLACK
6
CONTINUOUS
10
7.0899803937007873
20
-3.2366768897637797
11
7.0899803937007873
21
-3.2351702755905509
0
LINE
8
BLACK
6
CONTINUOUS
10
7.0899803937007873
20
-3.2351702755905509
11
7.0910457480314957
21
-3.2341049212598425
0
LINE
8
BLACK
6
CONTINUOUS
10
7.0910457480314957
20
-3.2341049212598425
11
7.09179905511811
21
-3.2339550787401574
0
LINE
8
BLACK
6
CONTINUOUS
10
7.09179905511811
20
-3.2339550787401574
11
7.1161709842519683
21
-3.2339550787401574
0
LINE
8
BLACK
6
CONTINUOUS
10
7.1161709842519683
20
-3.2339550787401574
11
7.1167200393700787
21
-3.2340642913385826
0
LINE
8
BLACK
6
CONTINUOUS
10
6.7488985826771648
20
-3.0623868897637796
11
6.7489965748031491
21
-3.0624274803149607
0
LINE
8
BLACK
6
CONTINUOUS
10
6.7489965748031491
20
-3.0624274803149607
11
6.7491024015748033
21
-3.0624349999999998
0
LINE
8
BLACK
6
CONTINUOUS
10
6.7491024015748033
20
-3.0624349999999998
11
6.7496430314960625
21
-3.0626418897637793
0
LINE
8
BLACK
6
CONTINUOUS
10
6.7496430314960625
20
-3.0626418897637793
11
6.7533925590551176
21
-3.0645166535433068
0
LINE
8
BLACK
6
CONTINUOUS
10
6.7533925590551176
20
-3.0645166535433068
11
6.7536405511811024
21
-3.0646727165354331
0
LINE
8
BLACK
6
CONTINUOUS
10
6.7536405511811024
20
-3.0646727165354331
11
6.7537125196850392
21
-3.0647025590551182
0
LINE
8
BLACK
6
CONTINUOUS
10
6.7537125196850392
20
-3.0647025590551182
11
6.7537934645669289
21
-3.0647690157480314
0
LINE
8
BLACK
6
CONTINUOUS
10
6.7537934645669289
20
-3.0647690157480314
11
6.7538824409448814
21
-3.0648249999999999
0
LINE
8
BLACK
6
CONTINUOUS
10
6.7538824409448814
20
-3.0648249999999999
11
6.7539335826771651
21
-3.0648839763779527
0
LINE
8
BLACK
6
CONTINUOUS
10
6.7539335826771651
20
-3.0648839763779527
11
6.754159960629921
21
-3.0650697637795274
0
LINE
8
BLACK
6
CONTINUOUS
10
6.754159960629921
20
-3.0650697637795274
11
6.7560347244094485
21
-3.066944527559055
0
LINE
8
BLACK
6
CONTINUOUS
10
6.7560347244094485
20
-3.066944527559055
11
6.7562204724409449
21
-3.0671708661417321
0
LINE
8
BLACK
6
CONTINUOUS
10
6.7562204724409449
20
-3.0671708661417321
11
6.7562794881889765
21
-3.0672220472440945
0
LINE
8
BLACK
6
CONTINUOUS
10
6.7562794881889765
20
-3.0672220472440945
11
6.7563354330708663
21
-3.0673109842519684
0
LINE
8
BLACK
6
CONTINUOUS
10
6.7563354330708663
20
-3.0673109842519684
11
6.7564019291338582
21
-3.0673919685039368
0
LINE
8
BLACK
6
CONTINUOUS
10
6.7564019291338582
20
-3.0673919685039368
11
6.7564317322834642
21
-3.0674638976377953
0
LINE
8
BLACK
6
CONTINUOUS
10
6.7564317322834642
20
-3.0674638976377953
11
6.7565878346456687
21
-3.0677119291338584
0
LINE
8
BLACK
6
CONTINUOUS
10
6.7565878346456687
20
-3.0677119291338584
11
6.7584625984251963
21
-3.0714614566929135
0
LINE
8
BLACK
6
CONTINUOUS
10
6.7584625984251963
20
-3.0714614566929135
11
6.7586694881889766
21
-3.0720020472440943
0
LINE
8
BLACK
6
CONTINUOUS
10
6.7586694881889766
20
-3.0720020472440943
11
6.7586770078740157
21
-3.0721079133858269
0
LINE
8
BLACK
6
CONTINUOUS
10
6.7586770078740157
20
-3.0721079133858269
11
6.7587175984251964
21
-3.0722059055118112
0
LINE
8
BLACK
6
CONTINUOUS
10
6.7587175984251964
20
-3.0722059055118112
11
6.7587700000000002
21
-3.0727380314960628
0
LINE
8
BLACK
6
CONTINUOUS
10
6.7587700000000002
20
-3.0727380314960628
11
6.7728759842519679
21
-3.0628638976377953
0
LINE
8
BLACK
6
CONTINUOUS
10
6.7728759842519679
20
-3.0628638976377953
11
6.7733804330708658
21
-3.0625800393700788
0
LINE
8
BLACK
6
CONTINUOUS
10
6.7733804330708658
20
-3.0625800393700788
11
6.7745052755905508
21
-3.0623308661417323
0
LINE
8
BLACK
6
CONTINUOUS
10
6.7745052755905508
20
-3.0623308661417323
11
6.7756398425196851
21
-3.0625310629921261
0
LINE
8
BLACK
6
CONTINUOUS
10
6.7756398425196851
20
-3.0625310629921261
11
6.7766114173228349
21
-3.0631502362204723
0
LINE
8
BLACK
6
CONTINUOUS
10
6.7766114173228349
20
-3.0631502362204723
11
6.7772721259842514
21
-3.0640940944881887
0
LINE
8
BLACK
6
CONTINUOUS
10
6.7772721259842514
20
-3.0640940944881887
11
6.7775213385826767
21
-3.0652189370078737
0
LINE
8
BLACK
6
CONTINUOUS
10
6.7775213385826767
20
-3.0652189370078737
11
6.7773211023622046
21
-3.0663534645669293
0
LINE
8
BLACK
6
CONTINUOUS
10
6.7773211023622046
20
-3.0663534645669293
11
6.7767019291338579
21
-3.0673250787401574
0
LINE
8
BLACK
6
CONTINUOUS
10
6.7767019291338579
20
-3.0673250787401574
11
6.7762625590551178
21
-3.0677018897637796
0
LINE
8
BLACK
6
CONTINUOUS
10
6.7762625590551178
20
-3.0677018897637796
11
6.7587743307086612
21
-3.079943622047244
0
LINE
8
BLACK
6
CONTINUOUS
10
6.7587743307086612
20
-3.079943622047244
11
6.7587743307086612
21
-3.0848273228346454
0
LINE
8
BLACK
6
CONTINUOUS
10
6.7587743307086612
20
-3.0848273228346454
11
6.7745692519685035
21
-3.0848273228346454
0
LINE
8
BLACK
6
CONTINUOUS
10
6.7745692519685035
20
-3.0848273228346454
11
6.7751453149606293
21
-3.0848840551181103
0
LINE
8
BLACK
6
CONTINUOUS
10
6.7751453149606293
20
-3.0848840551181103
11
6.7762097244094486
21
-3.0853249606299213
0
LINE
8
BLACK
6
CONTINUOUS
10
6.7762097244094486
20
-3.0853249606299213
11
6.77702437007874
21
-3.0861396062992124
0
LINE
8
BLACK
6
CONTINUOUS
10
6.77702437007874
20
-3.0861396062992124
11
6.7774652755905507
21
-3.0872040157480316
0
LINE
8
BLACK
6
CONTINUOUS
10
6.7774652755905507
20
-3.0872040157480316
11
6.7774652755905507
21
-3.0883561417322833
0
LINE
8
BLACK
6
CONTINUOUS
10
6.7774652755905507
20
-3.0883561417322833
11
6.77702437007874
21
-3.0894205511811021
0
LINE
8
BLACK
6
CONTINUOUS
10
6.77702437007874
20
-3.0894205511811021
11
6.7762097244094486
21
-3.0902351968503936
0
LINE
8
BLACK
6
CONTINUOUS
10
6.7762097244094486
20
-3.0902351968503936
11
6.7751453149606293
21
-3.0906761023622047
0
LINE
8
BLACK
6
CONTINUOUS
10
6.7751453149606293
20
-3.0906761023622047
11
6.7745692519685035
21
-3.0907328346456691
0
LINE
8
BLACK
6
CONTINUOUS
10
6.7745692519685035
20
-3.0907328346456691
11
6.735199173228346
21
-3.0907328346456691
0
LINE
8
BLACK
6
CONTINUOUS
10
6.735199173228346
20
-3.0907328346456691
11
6.7346231102362202
21
-3.0906761023622047
0
LINE
8
BLACK
6
CONTINUOUS
10
6.7346231102362202
20
-3.0906761023622047
11
6.7335587007874018
21
-3.0902351968503936
0
LINE
8
BLACK
6
CONTINUOUS
10
6.7335587007874018
20
-3.0902351968503936
11
6.7327440551181104
21
-3.0894205511811021
0
LINE
8
BLACK
6
CONTINUOUS
10
6.7327440551181104
20
-3.0894205511811021
11
6.7323031496062988
21
-3.0883561417322833
0
LINE
8
BLACK
6
CONTINUOUS
10
6.7323031496062988
20
-3.0883561417322833
11
6.7322464173228349
21
-3.0877800787401575
0
LINE
8
BLACK
6
CONTINUOUS
10
6.7322464173228349
20
-3.0877800787401575
11
6.7322464173228349
21
-3.072781968503937
0
LINE
8
BLACK
6
CONTINUOUS
10
6.7322464173228349
20
-3.072781968503937
11
6.7323031496062988
21
-3.0722059055118112
0
LINE
8
BLACK
6
CONTINUOUS
10
6.7323031496062988
20
-3.0722059055118112
11
6.7323437401574804
21
-3.0721078740157481
0
LINE
8
BLACK
6
CONTINUOUS
10
6.7323437401574804
20
-3.0721078740157481
11
6.7323512598425195
21
-3.0720020866141731
0
LINE
8
BLACK
6
CONTINUOUS
10
6.7323512598425195
20
-3.0720020866141731
11
6.7325581496062989
21
-3.0714614566929135
0
LINE
8
BLACK
6
CONTINUOUS
10
6.7325581496062989
20
-3.0714614566929135
11
6.7344329133858265
21
-3.0677119291338584
0
LINE
8
BLACK
6
CONTINUOUS
10
6.7344329133858265
20
-3.0677119291338584
11
6.7345889763779523
21
-3.0674638976377953
0
LINE
8
BLACK
6
CONTINUOUS
10
6.7345889763779523
20
-3.0674638976377953
11
6.7346188188976379
21
-3.0673919685039368
0
LINE
8
BLACK
6
CONTINUOUS
10
6.7346188188976379
20
-3.0673919685039368
11
6.7346852755905511
21
-3.0673109842519684
0
LINE
8
BLACK
6
CONTINUOUS
10
6.7346852755905511
20
-3.0673109842519684
11
6.7347412598425196
21
-3.0672220472440945
0
LINE
8
BLACK
6
CONTINUOUS
10
6.7347412598425196
20
-3.0672220472440945
11
6.7348002362204724
21
-3.0671708661417321
0
LINE
8
BLACK
6
CONTINUOUS
10
6.7348002362204724
20
-3.0671708661417321
11
6.7349860236220467
21
-3.066944527559055
0
LINE
8
BLACK
6
CONTINUOUS
10
6.7349860236220467
20
-3.066944527559055
11
6.7368607874015742
21
-3.0650697637795274
0
LINE
8
BLACK
6
CONTINUOUS
10
6.7368607874015742
20
-3.0650697637795274
11
6.7370871259842522
21
-3.0648839763779527
0
LINE
8
BLACK
6
CONTINUOUS
10
6.7370871259842522
20
-3.0648839763779527
11
6.7371383070866138
21
-3.0648249999999999
0
LINE
8
BLACK
6
CONTINUOUS
10
6.7371383070866138
20
-3.0648249999999999
11
6.7372272440944885
21
-3.0647690157480314
0
LINE
8
BLACK
6
CONTINUOUS
10
6.7372272440944885
20
-3.0647690157480314
11
6.7373082283464569
21
-3.0647025590551182
0
LINE
8
BLACK
6
CONTINUOUS
10
6.7373082283464569
20
-3.0647025590551182
11
6.7373801574803149
21
-3.0646727165354331
0
LINE
8
BLACK
6
CONTINUOUS
10
6.7373801574803149
20
-3.0646727165354331
11
6.7376281889763776
21
-3.0645166535433068
0
LINE
8
BLACK
6
CONTINUOUS
10
6.7376281889763776
20
-3.0645166535433068
11
6.7413777165354327
21
-3.0626418897637793
0
LINE
8
BLACK
6
CONTINUOUS
10
6.7413777165354327
20
-3.0626418897637793
11
6.741918307086614
21
-3.0624349999999998
0
LINE
8
BLACK
6
CONTINUOUS
10
6.741918307086614
20
-3.0624349999999998
11
6.7420241732283461
21
-3.062427440944882
0
LINE
8
BLACK
6
CONTINUOUS
10
6.7420241732283461
20
-3.062427440944882
11
6.7421221653543304
21
-3.0623868897637796
0
LINE
8
BLACK
6
CONTINUOUS
10
6.7421221653543304
20
-3.0623868897637796
11
6.7426982283464563
21
-3.0623301574803148
0
LINE
8
BLACK
6
CONTINUOUS
10
6.7426982283464563
20
-3.0623301574803148
11
6.7483225196850389
21
-3.0623301574803148
0
LINE
8
BLACK
6
CONTINUOUS
10
6.7483225196850389
20
-3.0623301574803148
11
6.7488985826771648
21
-3.0623868897637796
0
LINE
8
BLACK
6
CONTINUOUS
10
6.7406977952755902
20
-3.0695844094488187
11
6.7395006692913384
21
-3.070781535433071
0
LINE
8
BLACK
6
CONTINUOUS
10
6.7395006692913384
20
-3.070781535433071
11
6.7381519291338581
21
-3.0734790157480316
0
LINE
8
BLACK
6
CONTINUOUS
10
6.7381519291338581
20
-3.0734790157480316
11
6.7381519291338581
21
-3.0848273228346454
0
LINE
8
BLACK
6
CONTINUOUS
10
6.7381519291338581
20
-3.0848273228346454
11
6.752868818897638
21
-3.0848273228346454
0
LINE
8
BLACK
6
CONTINUOUS
10
6.752868818897638
20
-3.0848273228346454
11
6.752868818897638
21
-3.0734790157480316
0
LINE
8
BLACK
6
CONTINUOUS
10
6.752868818897638
20
-3.0734790157480316
11
6.7515200787401577
21
-3.070781535433071
0
LINE
8
BLACK
6
CONTINUOUS
10
6.7515200787401577
20
-3.070781535433071
11
6.750322952755905
21
-3.0695844094488187
0
LINE
8
BLACK
6
CONTINUOUS
10
6.750322952755905
20
-3.0695844094488187
11
6.7476254724409443
21
-3.0682356692913384
0
LINE
8
BLACK
6
CONTINUOUS
10
6.7476254724409443
20
-3.0682356692913384
11
6.7433952755905509
21
-3.0682356692913384
0
LINE
8
BLACK
6
CONTINUOUS
10
6.7433952755905509
20
-3.0682356692913384
11
6.7406977952755902
21
-3.0695844094488187
0
LINE
8
BLACK
6
CONTINUOUS
10
6.4356985826771655
20
-3.0598443700787401
11
6.4357965748031498
21
-3.0598849606299212
0
LINE
8
BLACK
6
CONTINUOUS
10
6.4357965748031498
20
-3.0598849606299212
11
6.4359024015748032
21
-3.0598924803149607
0
LINE
8
BLACK
6
CONTINUOUS
10
6.4359024015748032
20
-3.0598924803149607
11
6.4364430314960632
21
-3.0600993700787402
0
LINE
8
BLACK
6
CONTINUOUS
10
6.4364430314960632
20
-3.0600993700787402
11
6.4401925590551183
21
-3.0619741338582678
0
LINE
8
BLACK
6
CONTINUOUS
10
6.4401925590551183
20
-3.0619741338582678
11
6.4404405511811023
21
-3.0621301968503936
0
LINE
8
BLACK
6
CONTINUOUS
10
6.4404405511811023
20
-3.0621301968503936
11
6.440512519685039
21
-3.0621600393700787
0
LINE
8
BLACK
6
CONTINUOUS
10
6.440512519685039
20
-3.0621600393700787
11
6.4405934645669287
21
-3.0622264960629919
0
LINE
8
BLACK
6
CONTINUOUS
10
6.4405934645669287
20
-3.0622264960629919
11
6.4406824409448822
21
-3.0622824803149604
0
LINE
8
BLACK
6
CONTINUOUS
10
6.4406824409448822
20
-3.0622824803149604
11
6.440733582677165
21
-3.0623414566929132
0
LINE
8
BLACK
6
CONTINUOUS
10
6.440733582677165
20
-3.0623414566929132
11
6.4409599606299208
21
-3.062527244094488
0
LINE
8
BLACK
6
CONTINUOUS
10
6.4409599606299208
20
-3.062527244094488
11
6.4428347244094484
21
-3.0644020078740155
0
LINE
8
BLACK
6
CONTINUOUS
10
6.4428347244094484
20
-3.0644020078740155
11
6.4430204724409448
21
-3.064628346456693
0
LINE
8
BLACK
6
CONTINUOUS
10
6.4430204724409448
20
-3.064628346456693
11
6.4430794881889764
21
-3.064679527559055
0
LINE
8
BLACK
6
CONTINUOUS
10
6.4430794881889764
20
-3.064679527559055
11
6.4431354330708661
21
-3.0647684645669289
0
LINE
8
BLACK
6
CONTINUOUS
10
6.4431354330708661
20
-3.0647684645669289
11
6.443201929133858
21
-3.0648494488188978
0
LINE
8
BLACK
6
CONTINUOUS
10
6.443201929133858
20
-3.0648494488188978
11
6.443231732283464
21
-3.0649213779527558
0
LINE
8
BLACK
6
CONTINUOUS
10
6.443231732283464
20
-3.0649213779527558
11
6.4433878346456694
21
-3.0651694094488189
0
LINE
8
BLACK
6
CONTINUOUS
10
6.4433878346456694
20
-3.0651694094488189
11
6.445262598425197
21
-3.068918937007874
0
LINE
8
BLACK
6
CONTINUOUS
10
6.445262598425197
20
-3.068918937007874
11
6.4454694881889765
21
-3.0694595275590553
0
LINE
8
BLACK
6
CONTINUOUS
10
6.4454694881889765
20
-3.0694595275590553
11
6.4454770078740156
21
-3.0695653937007874
0
LINE
8
BLACK
6
CONTINUOUS
10
6.4454770078740156
20
-3.0695653937007874
11
6.4455175984251971
21
-3.0696633858267717
0
LINE
8
BLACK
6
CONTINUOUS
10
6.4455175984251971
20
-3.0696633858267717
11
6.44557
21
-3.0701955118110233
0
LINE
8
BLACK
6
CONTINUOUS
10
6.44557
20
-3.0701955118110233
11
6.4596759842519687
21
-3.0603213779527558
0
LINE
8
BLACK
6
CONTINUOUS
10
6.4596759842519687
20
-3.0603213779527558
11
6.4601804330708656
21
-3.0600375196850393
0
LINE
8
BLACK
6
CONTINUOUS
10
6.4601804330708656
20
-3.0600375196850393
11
6.4613052755905507
21
-3.0597883464566928
0
LINE
8
BLACK
6
CONTINUOUS
10
6.4613052755905507
20
-3.0597883464566928
11
6.462439842519685
21
-3.0599885433070866
0
LINE
8
BLACK
6
CONTINUOUS
10
6.462439842519685
20
-3.0599885433070866
11
6.4634114173228348
21
-3.0606077165354328
0
LINE
8
BLACK
6
CONTINUOUS
10
6.4634114173228348
20
-3.0606077165354328
11
6.4640721259842522
21
-3.0615515748031497
0
LINE
8
BLACK
6
CONTINUOUS
10
6.4640721259842522
20
-3.0615515748031497
11
6.4643213385826774
21
-3.0626764173228347
0
LINE
8
BLACK
6
CONTINUOUS
10
6.4643213385826774
20
-3.0626764173228347
11
6.4641211023622045
21
-3.0638109448818898
0
LINE
8
BLACK
6
CONTINUOUS
10
6.4641211023622045
20
-3.0638109448818898
11
6.4635019291338578
21
-3.0647825590551179
0
LINE
8
BLACK
6
CONTINUOUS
10
6.4635019291338578
20
-3.0647825590551179
11
6.4630625590551176
21
-3.0651593700787401
0
LINE
8
BLACK
6
CONTINUOUS
10
6.4630625590551176
20
-3.0651593700787401
11
6.445574330708661
21
-3.0774011023622045
0
LINE
8
BLACK
6
CONTINUOUS
10
6.445574330708661
20
-3.0774011023622045
11
6.445574330708661
21
-3.0822848031496064
0
LINE
8
BLACK
6
CONTINUOUS
10
6.445574330708661
20
-3.0822848031496064
11
6.4613692519685042
21
-3.0822848031496064
0
LINE
8
BLACK
6
CONTINUOUS
10
6.4613692519685042
20
-3.0822848031496064
11
6.4619453149606301
21
-3.0823415354330708
0
LINE
8
BLACK
6
CONTINUOUS
10
6.4619453149606301
20
-3.0823415354330708
11
6.4630097244094484
21
-3.0827824409448819
0
LINE
8
BLACK
6
CONTINUOUS
10
6.4630097244094484
20
-3.0827824409448819
11
6.4638243700787399
21
-3.0835970866141733
0
LINE
8
BLACK
6
CONTINUOUS
10
6.4638243700787399
20
-3.0835970866141733
11
6.4642652755905514
21
-3.0846614960629921
0
LINE
8
BLACK
6
CONTINUOUS
10
6.4642652755905514
20
-3.0846614960629921
11
6.4642652755905514
21
-3.0858136220472439
0
LINE
8
BLACK
6
CONTINUOUS
10
6.4642652755905514
20
-3.0858136220472439
11
6.4638243700787399
21
-3.0868780314960631
0
LINE
8
BLACK
6
CONTINUOUS
10
6.4638243700787399
20
-3.0868780314960631
11
6.4630097244094484
21
-3.0876926771653541
0
LINE
8
BLACK
6
CONTINUOUS
10
6.4630097244094484
20
-3.0876926771653541
11
6.4619453149606301
21
-3.0881335826771652
0
LINE
8
BLACK
6
CONTINUOUS
10
6.4619453149606301
20
-3.0881335826771652
11
6.4613692519685042
21
-3.08819031496063
0
LINE
8
BLACK
6
CONTINUOUS
10
6.4613692519685042
20
-3.08819031496063
11
6.4219991732283459
21
-3.08819031496063
0
LINE
8
BLACK
6
CONTINUOUS
10
6.4219991732283459
20
-3.08819031496063
11
6.42142311023622
21
-3.0881335826771652
0
LINE
8
BLACK
6
CONTINUOUS
10
6.42142311023622
20
-3.0881335826771652
11
6.4203587007874017
21
-3.0876926771653541
0
LINE
8
BLACK
6
CONTINUOUS
10
6.4203587007874017
20
-3.0876926771653541
11
6.4195440551181102
21
-3.0868780314960631
0
LINE
8
BLACK
6
CONTINUOUS
10
6.4195440551181102
20
-3.0868780314960631
11
6.4191031496062987
21
-3.0858136220472439
0
LINE
8
BLACK
6
CONTINUOUS
10
6.4191031496062987
20
-3.0858136220472439
11
6.4190464173228348
21
-3.085237559055118
0
LINE
8
BLACK
6
CONTINUOUS
10
6.4190464173228348
20
-3.085237559055118
11
6.4190464173228348
21
-3.0702394488188975
0
LINE
8
BLACK
6
CONTINUOUS
10
6.4190464173228348
20
-3.0702394488188975
11
6.4191031496062987
21
-3.0696633858267717
0
LINE
8
BLACK
6
CONTINUOUS
10
6.4191031496062987
20
-3.0696633858267717
11
6.4191437401574802
21
-3.0695653543307087
0
LINE
8
BLACK
6
CONTINUOUS
10
6.4191437401574802
20
-3.0695653543307087
11
6.4191512598425193
21
-3.0694595669291336
0
LINE
8
BLACK
6
CONTINUOUS
10
6.4191512598425193
20
-3.0694595669291336
11
6.4193581496062988
21
-3.068918937007874
0
LINE
8
BLACK
6
CONTINUOUS
10
6.4193581496062988
20
-3.068918937007874
11
6.4212329133858264
21
-3.0651694094488189
0
LINE
8
BLACK
6
CONTINUOUS
10
6.4212329133858264
20
-3.0651694094488189
11
6.421388976377953
21
-3.0649213779527558
0
LINE
8
BLACK
6
CONTINUOUS
10
6.421388976377953
20
-3.0649213779527558
11
6.4214188188976378
21
-3.0648494488188978
0
LINE
8
BLACK
6
CONTINUOUS
10
6.4214188188976378
20
-3.0648494488188978
11
6.4214852755905509
21
-3.0647684645669289
0
LINE
8
BLACK
6
CONTINUOUS
10
6.4214852755905509
20
-3.0647684645669289
11
6.4215412598425194
21
-3.064679527559055
0
LINE
8
BLACK
6
CONTINUOUS
10
6.4215412598425194
20
-3.064679527559055
11
6.4216002362204723
21
-3.064628346456693
0
LINE
8
BLACK
6
CONTINUOUS
10
6.4216002362204723
20
-3.064628346456693
11
6.4217860236220474
21
-3.0644020078740155
0
LINE
8
BLACK
6
CONTINUOUS
10
6.4217860236220474
20
-3.0644020078740155
11
6.423660787401575
21
-3.062527244094488
0
LINE
8
BLACK
6
CONTINUOUS
10
6.423660787401575
20
-3.062527244094488
11
6.423887125984252
21
-3.0623414566929132
0
LINE
8
BLACK
6
CONTINUOUS
10
6.423887125984252
20
-3.0623414566929132
11
6.4239383070866136
21
-3.0622824803149604
0
LINE
8
BLACK
6
CONTINUOUS
10
6.4239383070866136
20
-3.0622824803149604
11
6.4240272440944883
21
-3.0622264960629919
0
LINE
8
BLACK
6
CONTINUOUS
10
6.4240272440944883
20
-3.0622264960629919
11
6.4241082283464568
21
-3.0621600393700787
0
LINE
8
BLACK
6
CONTINUOUS
10
6.4241082283464568
20
-3.0621600393700787
11
6.4241801574803148
21
-3.0621301968503936
0
LINE
8
BLACK
6
CONTINUOUS
10
6.4241801574803148
20
-3.0621301968503936
11
6.4244281889763775
21
-3.0619741338582678
0
LINE
8
BLACK
6
CONTINUOUS
10
6.4244281889763775
20
-3.0619741338582678
11
6.4281777165354326
21
-3.0600993700787402
0
LINE
8
BLACK
6
CONTINUOUS
10
6.4281777165354326
20
-3.0600993700787402
11
6.4287183070866138
21
-3.0598924803149607
0
LINE
8
BLACK
6
CONTINUOUS
10
6.4287183070866138
20
-3.0598924803149607
11
6.428824173228346
21
-3.0598849212598425
0
LINE
8
BLACK
6
CONTINUOUS
10
6.428824173228346
20
-3.0598849212598425
11
6.4289221653543303
21
-3.0598443700787401
0
LINE
8
BLACK
6
CONTINUOUS
10
6.4289221653543303
20
-3.0598443700787401
11
6.4294982283464561
21
-3.0597876377952757
0
LINE
8
BLACK
6
CONTINUOUS
10
6.4294982283464561
20
-3.0597876377952757
11
6.4351225196850388
21
-3.0597876377952757
0
LINE
8
BLACK
6
CONTINUOUS
10
6.4351225196850388
20
-3.0597876377952757
11
6.4356985826771655
21
-3.0598443700787401
0
LINE
8
BLACK
6
CONTINUOUS
10
6.4274977952755901
20
-3.0670418897637797
11
6.4263006692913383
21
-3.0682390157480315
0
LINE
8
BLACK
6
CONTINUOUS
10
6.4263006692913383
20
-3.0682390157480315
11
6.4249519291338579
21
-3.0709364960629921
0
LINE
8
BLACK
6
CONTINUOUS
10
6.4249519291338579
20
-3.0709364960629921
11
6.4249519291338579
21
-3.0822848031496064
0
LINE
8
BLACK
6
CONTINUOUS
10
6.4249519291338579
20
-3.0822848031496064
11
6.4396688188976379
21
-3.0822848031496064
0
LINE
8
BLACK
6
CONTINUOUS
10
6.4396688188976379
20
-3.0822848031496064
11
6.4396688188976379
21
-3.0709364960629921
0
LINE
8
BLACK
6
CONTINUOUS
10
6.4396688188976379
20
-3.0709364960629921
11
6.4383200787401575
21
-3.0682390157480315
0
LINE
8
BLACK
6
CONTINUOUS
10
6.4383200787401575
20
-3.0682390157480315
11
6.4371229527559057
21
-3.0670418897637797
0
LINE
8
BLACK
6
CONTINUOUS
10
6.4371229527559057
20
-3.0670418897637797
11
6.4344254724409451
21
-3.0656931496062994
0
LINE
8
BLACK
6
CONTINUOUS
10
6.4344254724409451
20
-3.0656931496062994
11
6.4301952755905507
21
-3.0656931496062994
0
LINE
8
BLACK
6
CONTINUOUS
10
6.4301952755905507
20
-3.0656931496062994
11
6.4274977952755901
21
-3.0670418897637797
0
LINE
8
BLACK
6
CONTINUOUS
10
6.2812066929133854
20
-3.0308315748031496
11
6.2815196456692908
21
-3.0308710629921261
0
LINE
8
BLACK
6
CONTINUOUS
10
6.2815196456692908
20
-3.0308710629921261
11
6.2871439370078734
21
-3.0327458267716536
0
LINE
8
BLACK
6
CONTINUOUS
10
6.2871439370078734
20
-3.0327458267716536
11
6.2872295669291338
21
-3.0327946456692914
0
LINE
8
BLACK
6
CONTINUOUS
10
6.2872295669291338
20
-3.0327946456692914
11
6.2872747637795277
21
-3.0327946456692914
0
LINE
8
BLACK
6
CONTINUOUS
10
6.2872747637795277
20
-3.0327946456692914
11
6.2875371259842519
21
-3.032969960629921
0
LINE
8
BLACK
6
CONTINUOUS
10
6.2875371259842519
20
-3.032969960629921
11
6.287811181102362
21
-3.0331261811023622
0
LINE
8
BLACK
6
CONTINUOUS
10
6.287811181102362
20
-3.0331261811023622
11
6.2878313779527559
21
-3.0331665748031496
0
LINE
8
BLACK
6
CONTINUOUS
10
6.2878313779527559
20
-3.0331665748031496
11
6.287913385826772
21
-3.0332213779527559
0
LINE
8
BLACK
6
CONTINUOUS
10
6.287913385826772
20
-3.0332213779527559
11
6.2916629133858271
21
-3.036970905511811
0
LINE
8
BLACK
6
CONTINUOUS
10
6.2916629133858271
20
-3.036970905511811
11
6.2918381102362204
21
-3.0372330708661415
0
LINE
8
BLACK
6
CONTINUOUS
10
6.2918381102362204
20
-3.0372330708661415
11
6.2920316535433072
21
-3.0374824803149605
0
LINE
8
BLACK
6
CONTINUOUS
10
6.2920316535433072
20
-3.0374824803149605
11
6.2939064173228347
21
-3.0412320078740156
0
LINE
8
BLACK
6
CONTINUOUS
10
6.2939064173228347
20
-3.0412320078740156
11
6.2939633464566924
21
-3.0414399212598426
0
LINE
8
BLACK
6
CONTINUOUS
10
6.2939633464566924
20
-3.0414399212598426
11
6.2940554724409443
21
-3.0416349212598424
0
LINE
8
BLACK
6
CONTINUOUS
10
6.2940554724409443
20
-3.0416349212598424
11
6.2959302362204719
21
-3.0491339763779526
0
LINE
8
BLACK
6
CONTINUOUS
10
6.2959302362204719
20
-3.0491339763779526
11
6.2959419291338579
21
-3.0493748031496062
0
LINE
8
BLACK
6
CONTINUOUS
10
6.2959419291338579
20
-3.0493748031496062
11
6.2959890157480309
21
-3.0496114173228346
0
LINE
8
BLACK
6
CONTINUOUS
10
6.2959890157480309
20
-3.0496114173228346
11
6.2959890157480309
21
-3.0552357086614172
0
LINE
8
BLACK
6
CONTINUOUS
10
6.2959890157480309
20
-3.0552357086614172
11
6.2959419291338579
21
-3.0554722834645669
0
LINE
8
BLACK
6
CONTINUOUS
10
6.2959419291338579
20
-3.0554722834645669
11
6.2959302362204719
21
-3.0557131496062993
0
LINE
8
BLACK
6
CONTINUOUS
10
6.2959302362204719
20
-3.0557131496062993
11
6.2940554724409443
21
-3.0632122047244095
0
LINE
8
BLACK
6
CONTINUOUS
10
6.2940554724409443
20
-3.0632122047244095
11
6.2939633464566924
21
-3.0634071653543304
0
LINE
8
BLACK
6
CONTINUOUS
10
6.2939633464566924
20
-3.0634071653543304
11
6.2939064173228347
21
-3.0636151181102362
0
LINE
8
BLACK
6
CONTINUOUS
10
6.2939064173228347
20
-3.0636151181102362
11
6.2920316535433072
21
-3.0673646456692913
0
LINE
8
BLACK
6
CONTINUOUS
10
6.2920316535433072
20
-3.0673646456692913
11
6.2918382677165354
21
-3.0676137795275591
0
LINE
8
BLACK
6
CONTINUOUS
10
6.2918382677165354
20
-3.0676137795275591
11
6.2916629527559049
21
-3.0678762204724408
0
LINE
8
BLACK
6
CONTINUOUS
10
6.2916629527559049
20
-3.0678762204724408
11
6.2879134251968498
21
-3.0716257874015747
0
LINE
8
BLACK
6
CONTINUOUS
10
6.2879134251968498
20
-3.0716257874015747
11
6.2878313385826772
21
-3.071680590551181
0
LINE
8
BLACK
6
CONTINUOUS
10
6.2878313385826772
20
-3.071680590551181
11
6.287811181102362
21
-3.0717209842519684
0
LINE
8
BLACK
6
CONTINUOUS
10
6.287811181102362
20
-3.0717209842519684
11
6.2875374015748031
21
-3.0718770078740159
0
LINE
8
BLACK
6
CONTINUOUS
10
6.2875374015748031
20
-3.0718770078740159
11
6.2872748031496064
21
-3.0720525196850392
0
LINE
8
BLACK
6
CONTINUOUS
10
6.2872748031496064
20
-3.0720525196850392
11
6.2872295669291338
21
-3.0720525196850392
0
LINE
8
BLACK
6
CONTINUOUS
10
6.2872295669291338
20
-3.0720525196850392
11
6.2871439370078734
21
-3.072101338582677
0
LINE
8
BLACK
6
CONTINUOUS
10
6.2871439370078734
20
-3.072101338582677
11
6.2815196456692908
21
-3.0739761023622045
0
LINE
8
BLACK
6
CONTINUOUS
10
6.2815196456692908
20
-3.0739761023622045
11
6.2812066929133854
21
-3.0740155511811023
0
LINE
8
BLACK
6
CONTINUOUS
10
6.2812066929133854
20
-3.0740155511811023
11
6.2808971653543306
21
-3.0740771259842519
0
LINE
8
BLACK
6
CONTINUOUS
10
6.2808971653543306
20
-3.0740771259842519
11
6.2715233464566928
21
-3.0740771259842519
0
LINE
8
BLACK
6
CONTINUOUS
10
6.2715233464566928
20
-3.0740771259842519
11
6.2707700393700785
21
-3.0739272834645668
0
LINE
8
BLACK
6
CONTINUOUS
10
6.2707700393700785
20
-3.0739272834645668
11
6.2697046850393701
21
-3.0728619291338584
0
LINE
8
BLACK
6
CONTINUOUS
10
6.2697046850393701
20
-3.0728619291338584
11
6.2695548425196845
21
-3.072108622047244
0
LINE
8
BLACK
6
CONTINUOUS
10
6.2695548425196845
20
-3.072108622047244
11
6.2695548425196845
21
-3.0327385433070866
0
LINE
8
BLACK
6
CONTINUOUS
10
6.2695548425196845
20
-3.0327385433070866
11
6.2697046850393701
21
-3.0319852362204722
0
LINE
8
BLACK
6
CONTINUOUS
10
6.2697046850393701
20
-3.0319852362204722
11
6.2707700393700785
21
-3.0309198818897638
0
LINE
8
BLACK
6
CONTINUOUS
10
6.2707700393700785
20
-3.0309198818897638
11
6.2715233464566928
21
-3.0307700393700787
0
LINE
8
BLACK
6
CONTINUOUS
10
6.2715233464566928
20
-3.0307700393700787
11
6.2808971653543306
21
-3.0307700393700787
0
LINE
8
BLACK
6
CONTINUOUS
10
6.2808971653543306
20
-3.0307700393700787
11
6.2812066929133854
21
-3.0308315748031496
0
LINE
8
BLACK
6
CONTINUOUS
10
6.2734918503937003
20
-3.0701401181102361
11
6.2805777559055116
21
-3.0701401181102361
0
LINE
8
BLACK
6
CONTINUOUS
10
6.2805777559055116
20
-3.0701401181102361
11
6.2854580708661416
21
-3.0685133070866142
0
LINE
8
BLACK
6
CONTINUOUS
10
6.2854580708661416
20
-3.0685133070866142
11
6.2886531102362202
21
-3.0653182677165351
0
LINE
8
BLACK
6
CONTINUOUS
10
6.2886531102362202
20
-3.0653182677165351
11
6.2902884251968505
21
-3.0620476377952754
0
LINE
8
BLACK
6
CONTINUOUS
10
6.2902884251968505
20
-3.0620476377952754
11
6.2920520078740152
21
-3.0549933858267715
0
LINE
8
BLACK
6
CONTINUOUS
10
6.2920520078740152
20
-3.0549933858267715
11
6.2920520078740152
21
-3.0498537401574803
0
LINE
8
BLACK
6
CONTINUOUS
10
6.2920520078740152
20
-3.0498537401574803
11
6.2902884251968505
21
-3.0427994488188976
0
LINE
8
BLACK
6
CONTINUOUS
10
6.2902884251968505
20
-3.0427994488188976
11
6.2886531102362202
21
-3.0395288188976379
0
LINE
8
BLACK
6
CONTINUOUS
10
6.2886531102362202
20
-3.0395288188976379
11
6.2854581102362204
21
-3.0363338188976376
0
LINE
8
BLACK
6
CONTINUOUS
10
6.2854581102362204
20
-3.0363338188976376
11
6.2805777559055116
21
-3.0347070472440945
0
LINE
8
BLACK
6
CONTINUOUS
10
6.2805777559055116
20
-3.0347070472440945
11
6.2734918503937003
21
-3.0347070472440945
0
LINE
8
BLACK
6
CONTINUOUS
10
6.2734918503937003
20
-3.0347070472440945
11
6.2734918503937003
21
-3.0701401181102361
0
LINE
8
BLACK
6
CONTINUOUS
10
6.3208179527559052
20
-3.0309198818897638
11
6.3210205511811024
21
-3.0309198818897638
0
LINE
8
BLACK
6
CONTINUOUS
10
6.3210205511811024
20
-3.0309198818897638
11
6.3214258267716534
21
-3.0313251574803148
0
LINE
8
BLACK
6
CONTINUOUS
10
6.3214258267716534
20
-3.0313251574803148
11
6.3219028346456687
21
-3.031643188976378
0
LINE
8
BLACK
6
CONTINUOUS
10
6.3219028346456687
20
-3.031643188976378
11
6.3219425590551177
21
-3.0318418897637796
0
LINE
8
BLACK
6
CONTINUOUS
10
6.3219425590551177
20
-3.0318418897637796
11
6.3220859055118108
21
-3.0319852362204722
0
LINE
8
BLACK
6
CONTINUOUS
10
6.3220859055118108
20
-3.0319852362204722
11
6.3222357480314963
21
-3.0327385433070866
0
LINE
8
BLACK
6
CONTINUOUS
10
6.3222357480314963
20
-3.0327385433070866
11
6.3222357480314963
21
-3.0701401181102361
0
LINE
8
BLACK
6
CONTINUOUS
10
6.3222357480314963
20
-3.0701401181102361
11
6.3315158267716534
21
-3.0701401181102361
0
LINE
8
BLACK
6
CONTINUOUS
10
6.3315158267716534
20
-3.0701401181102361
11
6.3322691338582677
21
-3.0702899606299212
0
LINE
8
BLACK
6
CONTINUOUS
10
6.3322691338582677
20
-3.0702899606299212
11
6.3333344881889762
21
-3.0713553149606296
0
LINE
8
BLACK
6
CONTINUOUS
10
6.3333344881889762
20
-3.0713553149606296
11
6.3333344881889762
21
-3.0728619291338584
0
LINE
8
BLACK
6
CONTINUOUS
10
6.3333344881889762
20
-3.0728619291338584
11
6.3322691338582677
21
-3.0739272834645668
0
LINE
8
BLACK
6
CONTINUOUS
10
6.3322691338582677
20
-3.0739272834645668
11
6.3315158267716534
21
-3.0740771259842519
0
LINE
8
BLACK
6
CONTINUOUS
10
6.3315158267716534
20
-3.0740771259842519
11
6.3090186614173227
21
-3.0740771259842519
0
LINE
8
BLACK
6
CONTINUOUS
10
6.3090186614173227
20
-3.0740771259842519
11
6.3082653543307083
21
-3.0739272834645668
0
LINE
8
BLACK
6
CONTINUOUS
10
6.3082653543307083
20
-3.0739272834645668
11
6.3071999999999999
21
-3.0728619291338584
0
LINE
8
BLACK
6
CONTINUOUS
10
6.3071999999999999
20
-3.0728619291338584
11
6.3071999999999999
21
-3.0713553149606296
0
LINE
8
BLACK
6
CONTINUOUS
10
6.3071999999999999
20
-3.0713553149606296
11
6.3082653543307083
21
-3.0702899606299212
0
LINE
8
BLACK
6
CONTINUOUS
10
6.3082653543307083
20
-3.0702899606299212
11
6.3090186614173227
21
-3.0701401181102361
0
LINE
8
BLACK
6
CONTINUOUS
10
6.3090186614173227
20
-3.0701401181102361
11
6.3182987401574806
21
-3.0701401181102361
0
LINE
8
BLACK
6
CONTINUOUS
10
6.3182987401574806
20
-3.0701401181102361
11
6.3182987401574806
21
-3.0392400787401574
0
LINE
8
BLACK
6
CONTINUOUS
10
6.3182987401574806
20
-3.0392400787401574
11
6.31815562992126
21
-3.0394547637795273
0
LINE
8
BLACK
6
CONTINUOUS
10
6.31815562992126
20
-3.0394547637795273
11
6.3180178346456692
21
-3.0395927952755906
0
LINE
8
BLACK
6
CONTINUOUS
10
6.3180178346456692
20
-3.0395927952755906
11
6.3179096456692916
21
-3.0397547637795275
0
LINE
8
BLACK
6
CONTINUOUS
10
6.3179096456692916
20
-3.0397547637795275
11
6.3141601181102365
21
-3.0435042913385826
0
LINE
8
BLACK
6
CONTINUOUS
10
6.3141601181102365
20
-3.0435042913385826
11
6.3138978346456689
21
-3.0436795275590551
0
LINE
8
BLACK
6
CONTINUOUS
10
6.3138978346456689
20
-3.0436795275590551
11
6.3136485039370074
21
-3.0438730708661415
0
LINE
8
BLACK
6
CONTINUOUS
10
6.3136485039370074
20
-3.0438730708661415
11
6.309899015748031
21
-3.0457477952755907
0
LINE
8
BLACK
6
CONTINUOUS
10
6.309899015748031
20
-3.0457477952755907
11
6.3091582283464565
21
-3.0459506692913387
0
LINE
8
BLACK
6
CONTINUOUS
10
6.3091582283464565
20
-3.0459506692913387
11
6.3077288976377952
21
-3.0454742519685039
0
LINE
8
BLACK
6
CONTINUOUS
10
6.3077288976377952
20
-3.0454742519685039
11
6.3070551181102363
21
-3.0441266929133857
0
LINE
8
BLACK
6
CONTINUOUS
10
6.3070551181102363
20
-3.0441266929133857
11
6.3075315354330703
21
-3.0426973622047244
0
LINE
8
BLACK
6
CONTINUOUS
10
6.3075315354330703
20
-3.0426973622047244
11
6.3081383070866144
21
-3.0422264566929131
0
LINE
8
BLACK
6
CONTINUOUS
10
6.3081383070866144
20
-3.0422264566929131
11
6.3116021653543308
21
-3.0404945275590549
0
LINE
8
BLACK
6
CONTINUOUS
10
6.3116021653543308
20
-3.0404945275590549
11
6.3149878346456694
21
-3.0371088188976376
0
LINE
8
BLACK
6
CONTINUOUS
10
6.3149878346456694
20
-3.0371088188976376
11
6.3186293700787397
21
-3.0316466141732281
0
LINE
8
BLACK
6
CONTINUOUS
10
6.3186293700787397
20
-3.0316466141732281
11
6.319171889763779
21
-3.0311029527559055
0
LINE
8
BLACK
6
CONTINUOUS
10
6.319171889763779
20
-3.0311029527559055
11
6.3193705905511806
21
-3.0310631889763777
0
LINE
8
BLACK
6
CONTINUOUS
10
6.3193705905511806
20
-3.0310631889763777
11
6.3195139370078737
21
-3.0309198818897638
0
LINE
8
BLACK
6
CONTINUOUS
10
6.3195139370078737
20
-3.0309198818897638
11
6.3200871653543302
21
-3.0309198818897638
0
LINE
8
BLACK
6
CONTINUOUS
10
6.3200871653543302
20
-3.0309198818897638
11
6.3206492913385821
21
-3.0308074409448817
0
LINE
8
BLACK
6
CONTINUOUS
10
6.3206492913385821
20
-3.0308074409448817
11
6.3208179527559052
21
-3.0309198818897638
0
LINE
8
BLACK
6
CONTINUOUS
10
6.2183092125984247
20
-3.0311438188976378
11
6.2190988582677162
21
-3.0324269685039371
0
LINE
8
BLACK
6
CONTINUOUS
10
6.2190988582677162
20
-3.0324269685039371
11
6.2190701181102357
21
-3.0331944881889763
0
LINE
8
BLACK
6
CONTINUOUS
10
6.2190701181102357
20
-3.0331944881889763
11
6.2096962598425192
21
-3.0725645669291337
0
LINE
8
BLACK
6
CONTINUOUS
10
6.2096962598425192
20
-3.0725645669291337
11
6.2093760236220472
21
-3.0732626771653542
0
LINE
8
BLACK
6
CONTINUOUS
10
6.2093760236220472
20
-3.0732626771653542
11
6.2091252362204727
21
-3.073416968503937
0
LINE
8
BLACK
6
CONTINUOUS
10
6.2091252362204727
20
-3.073416968503937
11
6.2089777559055115
21
-3.0736717716535433
0
LINE
8
BLACK
6
CONTINUOUS
10
6.2089777559055115
20
-3.0736717716535433
11
6.2085074015748027
21
-3.0737971653543306
0
LINE
8
BLACK
6
CONTINUOUS
10
6.2085074015748027
20
-3.0737971653543306
11
6.2080928740157475
21
-3.0740523228346457
0
LINE
8
BLACK
6
CONTINUOUS
10
6.2080928740157475
20
-3.0740523228346457
11
6.2078064960629922
21
-3.0739841338582679
0
LINE
8
BLACK
6
CONTINUOUS
10
6.2078064960629922
20
-3.0739841338582679
11
6.207522047244094
21
-3.0740599999999998
0
LINE
8
BLACK
6
CONTINUOUS
10
6.207522047244094
20
-3.0740599999999998
11
6.2071007086614172
21
-3.0738160629921261
0
LINE
8
BLACK
6
CONTINUOUS
10
6.2071007086614172
20
-3.0738160629921261
11
6.2066272440944878
21
-3.0737033464566927
0
LINE
8
BLACK
6
CONTINUOUS
10
6.2066272440944878
20
-3.0737033464566927
11
6.206472952755905
21
-3.0734526377952753
0
LINE
8
BLACK
6
CONTINUOUS
10
6.206472952755905
20
-3.0734526377952753
11
6.2062181496062987
21
-3.0733051181102362
0
LINE
8
BLACK
6
CONTINUOUS
10
6.2062181496062987
20
-3.0733051181102362
11
6.2058792519685042
21
-3.0726158267716537
0
LINE
8
BLACK
6
CONTINUOUS
10
6.2058792519685042
20
-3.0726158267716537
11
6.2002822440944882
21
-3.0516270078740155
0
LINE
8
BLACK
6
CONTINUOUS
10
6.2002822440944882
20
-3.0516270078740155
11
6.1946852362204723
21
-3.0726158267716537
0
LINE
8
BLACK
6
CONTINUOUS
10
6.1946852362204723
20
-3.0726158267716537
11
6.1943463385826769
21
-3.0733050787401575
0
LINE
8
BLACK
6
CONTINUOUS
10
6.1943463385826769
20
-3.0733050787401575
11
6.1940915354330706
21
-3.0734525590551178
0
LINE
8
BLACK
6
CONTINUOUS
10
6.1940915354330706
20
-3.0734525590551178
11
6.1939372440944878
21
-3.0737033464566927
0
LINE
8
BLACK
6
CONTINUOUS
10
6.1939372440944878
20
-3.0737033464566927
11
6.1934636220472443
21
-3.0738161023622048
0
LINE
8
BLACK
6
CONTINUOUS
10
6.1934636220472443
20
-3.0738161023622048
11
6.1930424409448817
21
-3.074059960629921
0
LINE
8
BLACK
6
CONTINUOUS
10
6.1930424409448817
20
-3.074059960629921
11
6.1927580314960631
21
-3.0739840944881891
0
LINE
8
BLACK
6
CONTINUOUS
10
6.1927580314960631
20
-3.0739840944881891
11
6.1924716141732281
21
-3.0740523228346457
0
LINE
8
BLACK
6
CONTINUOUS
10
6.1924716141732281
20
-3.0740523228346457
11
6.1920570078740154
21
-3.0737971653543306
0
LINE
8
BLACK
6
CONTINUOUS
10
6.1920570078740154
20
-3.0737971653543306
11
6.1915867322834641
21
-3.0736717716535433
0
LINE
8
BLACK
6
CONTINUOUS
10
6.1915867322834641
20
-3.0736717716535433
11
6.191439212598425
21
-3.073416968503937
0
LINE
8
BLACK
6
CONTINUOUS
10
6.191439212598425
20
-3.073416968503937
11
6.1911884645669293
21
-3.0732626771653542
0
LINE
8
BLACK
6
CONTINUOUS
10
6.1911884645669293
20
-3.0732626771653542
11
6.1908682283464564
21
-3.0725645669291337
0
LINE
8
BLACK
6
CONTINUOUS
10
6.1908682283464564
20
-3.0725645669291337
11
6.1814944094488187
21
-3.0331944881889763
0
LINE
8
BLACK
6
CONTINUOUS
10
6.1814944094488187
20
-3.0331944881889763
11
6.1814656692913381
21
-3.0324269685039371
0
LINE
8
BLACK
6
CONTINUOUS
10
6.1814656692913381
20
-3.0324269685039371
11
6.1822553149606296
21
-3.0311438188976378
0
LINE
8
BLACK
6
CONTINUOUS
10
6.1822553149606296
20
-3.0311438188976378
11
6.1837209448818893
21
-3.0307948425196849
0
LINE
8
BLACK
6
CONTINUOUS
10
6.1837209448818893
20
-3.0307948425196849
11
6.185004094488189
21
-3.0315844881889764
0
LINE
8
BLACK
6
CONTINUOUS
10
6.185004094488189
20
-3.0315844881889764
11
6.1853243307086609
21
-3.0322825984251969
0
LINE
8
BLACK
6
CONTINUOUS
10
6.1853243307086609
20
-3.0322825984251969
11
6.1928912204724407
21
-3.0640635826771652
0
LINE
8
BLACK
6
CONTINUOUS
10
6.1928912204724407
20
-3.0640635826771652
11
6.198380196850394
21
-3.0434799212598422
0
LINE
8
BLACK
6
CONTINUOUS
10
6.198380196850394
20
-3.0434799212598422
11
6.1987190944881885
21
-3.0427906299212597
0
LINE
8
BLACK
6
CONTINUOUS
10
6.1987190944881885
20
-3.0427906299212597
11
6.1989513385826767
21
-3.0426561417322833
0
LINE
8
BLACK
6
CONTINUOUS
10
6.1989513385826767
20
-3.0426561417322833
11
6.1990857874015743
21
-3.0424239763779526
0
LINE
8
BLACK
6
CONTINUOUS
10
6.1990857874015743
20
-3.0424239763779526
11
6.1995800787401576
21
-3.0422921259842517
0
LINE
8
BLACK
6
CONTINUOUS
10
6.1995800787401576
20
-3.0422921259842517
11
6.2000229921259837
21
-3.0420357480314961
0
LINE
8
BLACK
6
CONTINUOUS
10
6.2000229921259837
20
-3.0420357480314961
11
6.200282283464567
21
-3.0421048818897636
0
LINE
8
BLACK
6
CONTINUOUS
10
6.200282283464567
20
-3.0421048818897636
11
6.2005414960629919
21
-3.0420357874015749
0
LINE
8
BLACK
6
CONTINUOUS
10
6.2005414960629919
20
-3.0420357874015749
11
6.2009842125984251
21
-3.0422920866141729
0
LINE
8
BLACK
6
CONTINUOUS
10
6.2009842125984251
20
-3.0422920866141729
11
6.2014787007874013
21
-3.0424239763779526
0
LINE
8
BLACK
6
CONTINUOUS
10
6.2014787007874013
20
-3.0424239763779526
11
6.2016131496062989
21
-3.042656181102362
0
LINE
8
BLACK
6
CONTINUOUS
10
6.2016131496062989
20
-3.042656181102362
11
6.2018453937007871
21
-3.0427906692913385
0
LINE
8
BLACK
6
CONTINUOUS
10
6.2018453937007871
20
-3.0427906692913385
11
6.2021842913385825
21
-3.0434799212598422
0
LINE
8
BLACK
6
CONTINUOUS
10
6.2021842913385825
20
-3.0434799212598422
11
6.2076732283464562
21
-3.0640635826771652
0
LINE
8
BLACK
6
CONTINUOUS
10
6.2076732283464562
20
-3.0640635826771652
11
6.2152401968503934
21
-3.0322825984251969
0
LINE
8
BLACK
6
CONTINUOUS
10
6.2152401968503934
20
-3.0322825984251969
11
6.2155604330708663
21
-3.0315844881889764
0
LINE
8
BLACK
6
CONTINUOUS
10
6.2155604330708663
20
-3.0315844881889764
11
6.2168435826771651
21
-3.0307948425196849
0
LINE
8
BLACK
6
CONTINUOUS
10
6.2168435826771651
20
-3.0307948425196849
11
6.2183092125984247
21
-3.0311438188976378
0
LINE
8
BLACK
6
CONTINUOUS
10
6.2472480708661413
20
-3.0307892519685038
11
6.2472909448818896
21
-3.0307749999999998
0
LINE
8
BLACK
6
CONTINUOUS
10
6.2472909448818896
20
-3.0307749999999998
11
6.2475951574803146
21
-3.0308583070866142
0
LINE
8
BLACK
6
CONTINUOUS
10
6.2475951574803146
20
-3.0308583070866142
11
6.2479046850393702
21
-3.0309198818897638
0
LINE
8
BLACK
6
CONTINUOUS
10
6.2479046850393702
20
-3.0309198818897638
11
6.247936614173228
21
-3.030951811023622
0
LINE
8
BLACK
6
CONTINUOUS
10
6.247936614173228
20
-3.030951811023622
11
6.2480317322834642
21
-3.0309778740157478
0
LINE
8
BLACK
6
CONTINUOUS
10
6.2480317322834642
20
-3.0309778740157478
11
6.2517812204724406
21
-3.0328525984251966
0
LINE
8
BLACK
6
CONTINUOUS
10
6.2517812204724406
20
-3.0328525984251966
11
6.2520305511811021
21
-3.0330461023622046
0
LINE
8
BLACK
6
CONTINUOUS
10
6.2520305511811021
20
-3.0330461023622046
11
6.2522928346456688
21
-3.0332213779527559
0
LINE
8
BLACK
6
CONTINUOUS
10
6.2522928346456688
20
-3.0332213779527559
11
6.2541675984251963
21
-3.0350961023622047
0
LINE
8
BLACK
6
CONTINUOUS
10
6.2541675984251963
20
-3.0350961023622047
11
6.2543429527559056
21
-3.0353585433070864
0
LINE
8
BLACK
6
CONTINUOUS
10
6.2543429527559056
20
-3.0353585433070864
11
6.2545363385826773
21
-3.0356077165354329
0
LINE
8
BLACK
6
CONTINUOUS
10
6.2545363385826773
20
-3.0356077165354329
11
6.2564111023622049
21
-3.039357244094488
0
LINE
8
BLACK
6
CONTINUOUS
10
6.2564111023622049
20
-3.039357244094488
11
6.2564371259842515
21
-3.0394523228346455
0
LINE
8
BLACK
6
CONTINUOUS
10
6.2564371259842515
20
-3.0394523228346455
11
6.2564690944881889
21
-3.0394842913385824
0
LINE
8
BLACK
6
CONTINUOUS
10
6.2564690944881889
20
-3.0394842913385824
11
6.2565306299212597
21
-3.0397937795275589
0
LINE
8
BLACK
6
CONTINUOUS
10
6.2565306299212597
20
-3.0397937795275589
11
6.2566139763779525
21
-3.0400980314960631
0
LINE
8
BLACK
6
CONTINUOUS
10
6.2566139763779525
20
-3.0400980314960631
11
6.2565996850393697
21
-3.0401408661417322
0
LINE
8
BLACK
6
CONTINUOUS
10
6.2565996850393697
20
-3.0401408661417322
11
6.2566189370078735
21
-3.0402375984251968
0
LINE
8
BLACK
6
CONTINUOUS
10
6.2566189370078735
20
-3.0402375984251968
11
6.2566189370078735
21
-3.0458618897637795
0
LINE
8
BLACK
6
CONTINUOUS
10
6.2566189370078735
20
-3.0458618897637795
11
6.2565996850393697
21
-3.0459585826771653
0
LINE
8
BLACK
6
CONTINUOUS
10
6.2565996850393697
20
-3.0459585826771653
11
6.2566139763779525
21
-3.0460014566929132
0
LINE
8
BLACK
6
CONTINUOUS
10
6.2566139763779525
20
-3.0460014566929132
11
6.2565306299212597
21
-3.0463056692913386
0
LINE
8
BLACK
6
CONTINUOUS
10
6.2565306299212597
20
-3.0463056692913386
11
6.2564690944881889
21
-3.0466151968503938
0
LINE
8
BLACK
6
CONTINUOUS
10
6.2564690944881889
20
-3.0466151968503938
11
6.2564371259842515
21
-3.046647125984252
0
LINE
8
BLACK
6
CONTINUOUS
10
6.2564371259842515
20
-3.046647125984252
11
6.2564111023622049
21
-3.0467422440944882
0
LINE
8
BLACK
6
CONTINUOUS
10
6.2564111023622049
20
-3.0467422440944882
11
6.2545363385826773
21
-3.0504917716535433
0
LINE
8
BLACK
6
CONTINUOUS
10
6.2545363385826773
20
-3.0504917716535433
11
6.2543429527559056
21
-3.0507409055118111
0
LINE
8
BLACK
6
CONTINUOUS
10
6.2543429527559056
20
-3.0507409055118111
11
6.2541675984251963
21
-3.0510033858267716
0
LINE
8
BLACK
6
CONTINUOUS
10
6.2541675984251963
20
-3.0510033858267716
11
6.2522928346456688
21
-3.0528781102362204
0
LINE
8
BLACK
6
CONTINUOUS
10
6.2522928346456688
20
-3.0528781102362204
11
6.2520305511811021
21
-3.0530533464566929
0
LINE
8
BLACK
6
CONTINUOUS
10
6.2520305511811021
20
-3.0530533464566929
11
6.2517812204724406
21
-3.0532468897637797
0
LINE
8
BLACK
6
CONTINUOUS
10
6.2517812204724406
20
-3.0532468897637797
11
6.2480317322834642
21
-3.0551216141732285
0
LINE
8
BLACK
6
CONTINUOUS
10
6.2480317322834642
20
-3.0551216141732285
11
6.247936614173228
21
-3.0551476377952755
0
LINE
8
BLACK
6
CONTINUOUS
10
6.247936614173228
20
-3.0551476377952755
11
6.2479046850393702
21
-3.0551796062992125
0
LINE
8
BLACK
6
CONTINUOUS
10
6.2479046850393702
20
-3.0551796062992125
11
6.2475951574803146
21
-3.0552411417322833
0
LINE
8
BLACK
6
CONTINUOUS
10
6.2475951574803146
20
-3.0552411417322833
11
6.2472909448818896
21
-3.0553244881889765
0
LINE
8
BLACK
6
CONTINUOUS
10
6.2472909448818896
20
-3.0553244881889765
11
6.2472480708661413
21
-3.0553101968503937
0
LINE
8
BLACK
6
CONTINUOUS
10
6.2472480708661413
20
-3.0553101968503937
11
6.2471513779527559
21
-3.0553294488188976
0
LINE
8
BLACK
6
CONTINUOUS
10
6.2471513779527559
20
-3.0553294488188976
11
6.2341217716535429
21
-3.0553294488188976
0
LINE
8
BLACK
6
CONTINUOUS
10
6.2341217716535429
20
-3.0553294488188976
11
6.2341217716535429
21
-3.072108622047244
0
LINE
8
BLACK
6
CONTINUOUS
10
6.2341217716535429
20
-3.072108622047244
11
6.2339719291338582
21
-3.0728619291338584
0
LINE
8
BLACK
6
CONTINUOUS
10
6.2339719291338582
20
-3.0728619291338584
11
6.2329065748031498
21
-3.0739272834645668
0
LINE
8
BLACK
6
CONTINUOUS
10
6.2329065748031498
20
-3.0739272834645668
11
6.2313999606299211
21
-3.0739272834645668
0
LINE
8
BLACK
6
CONTINUOUS
10
6.2313999606299211
20
-3.0739272834645668
11
6.2303346062992127
21
-3.0728619291338584
0
LINE
8
BLACK
6
CONTINUOUS
10
6.2303346062992127
20
-3.0728619291338584
11
6.2301847637795271
21
-3.072108622047244
0
LINE
8
BLACK
6
CONTINUOUS
10
6.2301847637795271
20
-3.072108622047244
11
6.2301847637795271
21
-3.0327385433070866
0
LINE
8
BLACK
6
CONTINUOUS
10
6.2301847637795271
20
-3.0327385433070866
11
6.2303346062992127
21
-3.0319852362204722
0
LINE
8
BLACK
6
CONTINUOUS
10
6.2303346062992127
20
-3.0319852362204722
11
6.2313999606299211
21
-3.0309198818897638
0
LINE
8
BLACK
6
CONTINUOUS
10
6.2313999606299211
20
-3.0309198818897638
11
6.2321532677165354
21
-3.0307700393700787
0
LINE
8
BLACK
6
CONTINUOUS
10
6.2321532677165354
20
-3.0307700393700787
11
6.2471513779527559
21
-3.0307700393700787
0
LINE
8
BLACK
6
CONTINUOUS
10
6.2471513779527559
20
-3.0307700393700787
11
6.2472480708661413
21
-3.0307892519685038
0
LINE
8
BLACK
6
CONTINUOUS
10
6.2341217716535429
20
-3.0513924409448818
11
6.2466866929133857
21
-3.0513924409448818
0
LINE
8
BLACK
6
CONTINUOUS
10
6.2466866929133857
20
-3.0513924409448818
11
6.2497348425196853
21
-3.0498683464566927
0
LINE
8
BLACK
6
CONTINUOUS
10
6.2497348425196853
20
-3.0498683464566927
11
6.2511578346456691
21
-3.0484453149606296
0
LINE
8
BLACK
6
CONTINUOUS
10
6.2511578346456691
20
-3.0484453149606296
11
6.2526819291338578
21
-3.0453971653543306
0
LINE
8
BLACK
6
CONTINUOUS
10
6.2526819291338578
20
-3.0453971653543306
11
6.2526819291338578
21
-3.0407022834645669
0
LINE
8
BLACK
6
CONTINUOUS
10
6.2526819291338578
20
-3.0407022834645669
11
6.2511578346456691
21
-3.0376541338582674
0
LINE
8
BLACK
6
CONTINUOUS
10
6.2511578346456691
20
-3.0376541338582674
11
6.2497348425196853
21
-3.0362311023622048
0
LINE
8
BLACK
6
CONTINUOUS
10
6.2497348425196853
20
-3.0362311023622048
11
6.2466866929133857
21
-3.0347070472440945
0
LINE
8
BLACK
6
CONTINUOUS
10
6.2466866929133857
20
-3.0347070472440945
11
6.2341217716535429
21
-3.0347070472440945
0
LINE
8
BLACK
6
CONTINUOUS
10
6.2341217716535429
20
-3.0347070472440945
11
6.2341217716535429
21
-3.0513924409448818
0
LINE
8
BLACK
6
CONTINUOUS
10
6.6978217716535431
20
-3.0517684251968502
11
6.6980015748031496
21
-3.052672401574803
0
LINE
8
BLACK
6
CONTINUOUS
10
6.6980015748031496
20
-3.052672401574803
11
6.6980015748031496
21
-3.064770118110236
0
LINE
8
BLACK
6
CONTINUOUS
10
6.6980015748031496
20
-3.064770118110236
11
6.6978217716535431
21
-3.0656740944881888
0
LINE
8
BLACK
6
CONTINUOUS
10
6.6978217716535431
20
-3.0656740944881888
11
6.6965433464566928
21
-3.0669525196850391
0
LINE
8
BLACK
6
CONTINUOUS
10
6.6965433464566928
20
-3.0669525196850391
11
6.6947353937007872
21
-3.0669525196850391
0
LINE
8
BLACK
6
CONTINUOUS
10
6.6947353937007872
20
-3.0669525196850391
11
6.6934569685039369
21
-3.0656740944881888
0
LINE
8
BLACK
6
CONTINUOUS
10
6.6934569685039369
20
-3.0656740944881888
11
6.6932771653543304
21
-3.064770118110236
0
LINE
8
BLACK
6
CONTINUOUS
10
6.6932771653543304
20
-3.064770118110236
11
6.6932771653543304
21
-3.052672401574803
0
LINE
8
BLACK
6
CONTINUOUS
10
6.6932771653543304
20
-3.052672401574803
11
6.6934569685039369
21
-3.0517684251968502
0
LINE
8
BLACK
6
CONTINUOUS
10
6.6934569685039369
20
-3.0517684251968502
11
6.6947353937007872
21
-3.0504899999999999
0
LINE
8
BLACK
6
CONTINUOUS
10
6.6947353937007872
20
-3.0504899999999999
11
6.6965433464566928
21
-3.0504899999999999
0
LINE
8
BLACK
6
CONTINUOUS
10
6.6965433464566928
20
-3.0504899999999999
11
6.6978217716535431
21
-3.0517684251968502
0
LINE
8
BLACK
6
CONTINUOUS
10
6.7277430314960629
20
-3.0517684251968502
11
6.7279228346456694
21
-3.052672401574803
0
LINE
8
BLACK
6
CONTINUOUS
10
6.7279228346456694
20
-3.052672401574803
11
6.7279228346456694
21
-3.064770118110236
0
LINE
8
BLACK
6
CONTINUOUS
10
6.7279228346456694
20
-3.064770118110236
11
6.7277430314960629
21
-3.0656740944881888
0
LINE
8
BLACK
6
CONTINUOUS
10
6.7277430314960629
20
-3.0656740944881888
11
6.7264646062992126
21
-3.0669525196850391
0
LINE
8
BLACK
6
CONTINUOUS
10
6.7264646062992126
20
-3.0669525196850391
11
6.724656653543307
21
-3.0669525196850391
0
LINE
8
BLACK
6
CONTINUOUS
10
6.724656653543307
20
-3.0669525196850391
11
6.7233782283464567
21
-3.0656740944881888
0
LINE
8
BLACK
6
CONTINUOUS
10
6.7233782283464567
20
-3.0656740944881888
11
6.7231984251968502
21
-3.064770118110236
0
LINE
8
BLACK
6
CONTINUOUS
10
6.7231984251968502
20
-3.064770118110236
11
6.7231984251968502
21
-3.052672401574803
0
LINE
8
BLACK
6
CONTINUOUS
10
6.7231984251968502
20
-3.052672401574803
11
6.7233782283464567
21
-3.0517684251968502
0
LINE
8
BLACK
6
CONTINUOUS
10
6.7233782283464567
20
-3.0517684251968502
11
6.724656653543307
21
-3.0504899999999999
0
LINE
8
BLACK
6
CONTINUOUS
10
6.724656653543307
20
-3.0504899999999999
11
6.7264646062992126
21
-3.0504899999999999
0
LINE
8
BLACK
6
CONTINUOUS
10
6.7264646062992126
20
-3.0504899999999999
11
6.7277430314960629
21
-3.0517684251968502
0
LINE
8
BLACK
6
CONTINUOUS
10
6.3846217716535429
20
-3.0492259055118112
11
6.3848015748031495
21
-3.0501298818897635
0
LINE
8
BLACK
6
CONTINUOUS
10
6.3848015748031495
20
-3.0501298818897635
11
6.3848015748031495
21
-3.062227598425197
0
LINE
8
BLACK
6
CONTINUOUS
10
6.3848015748031495
20
-3.062227598425197
11
6.3846217716535429
21
-3.0631315748031493
0
LINE
8
BLACK
6
CONTINUOUS
10
6.3846217716535429
20
-3.0631315748031493
11
6.3833433464566927
21
-3.0644100000000001
0
LINE
8
BLACK
6
CONTINUOUS
10
6.3833433464566927
20
-3.0644100000000001
11
6.381535393700787
21
-3.0644100000000001
0
LINE
8
BLACK
6
CONTINUOUS
10
6.381535393700787
20
-3.0644100000000001
11
6.3802569685039368
21
-3.0631315748031493
0
LINE
8
BLACK
6
CONTINUOUS
10
6.3802569685039368
20
-3.0631315748031493
11
6.3800771653543302
21
-3.062227598425197
0
LINE
8
BLACK
6
CONTINUOUS
10
6.3800771653543302
20
-3.062227598425197
11
6.3800771653543302
21
-3.0501298818897635
0
LINE
8
BLACK
6
CONTINUOUS
10
6.3800771653543302
20
-3.0501298818897635
11
6.3802569685039368
21
-3.0492259055118112
0
LINE
8
BLACK
6
CONTINUOUS
10
6.3802569685039368
20
-3.0492259055118112
11
6.381535393700787
21
-3.0479474803149604
0
LINE
8
BLACK
6
CONTINUOUS
10
6.381535393700787
20
-3.0479474803149604
11
6.3833433464566927
21
-3.0479474803149604
0
LINE
8
BLACK
6
CONTINUOUS
10
6.3833433464566927
20
-3.0479474803149604
11
6.3846217716535429
21
-3.0492259055118112
0
LINE
8
BLACK
6
CONTINUOUS
10
6.4145430314960628
20
-3.0492259055118112
11
6.4147228346456693
21
-3.0501298818897635
0
LINE
8
BLACK
6
CONTINUOUS
10
6.4147228346456693
20
-3.0501298818897635
11
6.4147228346456693
21
-3.062227598425197
0
LINE
8
BLACK
6
CONTINUOUS
10
6.4147228346456693
20
-3.062227598425197
11
6.4145430314960628
21
-3.0631315748031493
0
LINE
8
BLACK
6
CONTINUOUS
10
6.4145430314960628
20
-3.0631315748031493
11
6.4132646062992125
21
-3.0644100000000001
0
LINE
8
BLACK
6
CONTINUOUS
10
6.4132646062992125
20
-3.0644100000000001
11
6.4114566535433068
21
-3.0644100000000001
0
LINE
8
BLACK
6
CONTINUOUS
10
6.4114566535433068
20
-3.0644100000000001
11
6.4101782283464566
21
-3.0631315748031493
0
LINE
8
BLACK
6
CONTINUOUS
10
6.4101782283464566
20
-3.0631315748031493
11
6.40999842519685
21
-3.062227598425197
0
LINE
8
BLACK
6
CONTINUOUS
10
6.40999842519685
20
-3.062227598425197
11
6.40999842519685
21
-3.0501298818897635
0
LINE
8
BLACK
6
CONTINUOUS
10
6.40999842519685
20
-3.0501298818897635
11
6.4101782283464566
21
-3.0492259055118112
0
LINE
8
BLACK
6
CONTINUOUS
10
6.4101782283464566
20
-3.0492259055118112
11
6.4114566535433068
21
-3.0479474803149604
0
LINE
8
BLACK
6
CONTINUOUS
10
6.4114566535433068
20
-3.0479474803149604
11
6.4132646062992125
21
-3.0479474803149604
0
LINE
8
BLACK
6
CONTINUOUS
10
6.4132646062992125
20
-3.0479474803149604
11
6.4145430314960628
21
-3.0492259055118112
0
LINE
8
BLACK
6
CONTINUOUS
10
6.7467392913385824
20
-3.0248635433070867
11
6.746817047244094
21
-3.0248580314960631
0
LINE
8
BLACK
6
CONTINUOUS
10
6.746817047244094
20
-3.0248580314960631
11
6.7469192913385827
21
-3.0248812598425197
0
LINE
8
BLACK
6
CONTINUOUS
10
6.7469192913385827
20
-3.0248812598425197
11
6.7470238188976372
21
-3.0248915748031497
0
LINE
8
BLACK
6
CONTINUOUS
10
6.7470238188976372
20
-3.0248915748031497
11
6.7470959055118112
21
-3.0249214173228345
0
LINE
8
BLACK
6
CONTINUOUS
10
6.7470959055118112
20
-3.0249214173228345
11
6.7473814960629923
21
-3.0249863779527559
0
LINE
8
BLACK
6
CONTINUOUS
10
6.7473814960629923
20
-3.0249863779527559
11
6.753005787401575
21
-3.0268611417322835
0
LINE
8
BLACK
6
CONTINUOUS
10
6.753005787401575
20
-3.0268611417322835
11
6.7535343307086615
21
-3.0270971259842518
0
LINE
8
BLACK
6
CONTINUOUS
10
6.7535343307086615
20
-3.0270971259842518
11
6.7536144488188974
21
-3.0271666141732281
0
LINE
8
BLACK
6
CONTINUOUS
10
6.7536144488188974
20
-3.0271666141732281
11
6.7537125196850392
21
-3.0272072440944879
0
LINE
8
BLACK
6
CONTINUOUS
10
6.7537125196850392
20
-3.0272072440944879
11
6.754159960629921
21
-3.0275744488188976
0
LINE
8
BLACK
6
CONTINUOUS
10
6.754159960629921
20
-3.0275744488188976
11
6.7716164960629923
21
-3.0450309448818897
0
LINE
8
BLACK
6
CONTINUOUS
10
6.7716164960629923
20
-3.0450309448818897
11
6.7716164960629923
21
-3.027787598425197
0
LINE
8
BLACK
6
CONTINUOUS
10
6.7716164960629923
20
-3.027787598425197
11
6.7716732283464562
21
-3.0272115354330706
0
LINE
8
BLACK
6
CONTINUOUS
10
6.7716732283464562
20
-3.0272115354330706
11
6.7721141338582678
21
-3.0261471259842518
0
LINE
8
BLACK
6
CONTINUOUS
10
6.7721141338582678
20
-3.0261471259842518
11
6.7729287795275592
21
-3.0253324803149604
0
LINE
8
BLACK
6
CONTINUOUS
10
6.7729287795275592
20
-3.0253324803149604
11
6.7739931889763776
21
-3.0248915748031497
0
LINE
8
BLACK
6
CONTINUOUS
10
6.7739931889763776
20
-3.0248915748031497
11
6.7751453149606293
21
-3.0248915748031497
0
LINE
8
BLACK
6
CONTINUOUS
10
6.7751453149606293
20
-3.0248915748031497
11
6.7762097244094486
21
-3.0253324803149604
0
LINE
8
BLACK
6
CONTINUOUS
10
6.7762097244094486
20
-3.0253324803149604
11
6.77702437007874
21
-3.0261471259842518
0
LINE
8
BLACK
6
CONTINUOUS
10
6.77702437007874
20
-3.0261471259842518
11
6.7774652755905507
21
-3.0272115354330706
0
LINE
8
BLACK
6
CONTINUOUS
10
6.7774652755905507
20
-3.0272115354330706
11
6.7775220078740155
21
-3.027787598425197
0
LINE
8
BLACK
6
CONTINUOUS
10
6.7775220078740155
20
-3.027787598425197
11
6.7775220078740155
21
-3.0521595275590552
0
LINE
8
BLACK
6
CONTINUOUS
10
6.7775220078740155
20
-3.0521595275590552
11
6.7774652755905507
21
-3.052735590551181
0
LINE
8
BLACK
6
CONTINUOUS
10
6.7774652755905507
20
-3.052735590551181
11
6.7773361417322837
21
-3.0530473228346455
0
LINE
8
BLACK
6
CONTINUOUS
10
6.7773361417322837
20
-3.0530473228346455
11
6.7770244094488188
21
-3.0537999999999998
0
LINE
8
BLACK
6
CONTINUOUS
10
6.7770244094488188
20
-3.0537999999999998
11
6.7762097244094486
21
-3.0546146456692913
0
LINE
8
BLACK
6
CONTINUOUS
10
6.7762097244094486
20
-3.0546146456692913
11
6.7751453149606293
21
-3.0550555511811024
0
LINE
8
BLACK
6
CONTINUOUS
10
6.7751453149606293
20
-3.0550555511811024
11
6.7739932283464563
21
-3.0550555511811024
0
LINE
8
BLACK
6
CONTINUOUS
10
6.7739932283464563
20
-3.0550555511811024
11
6.7739931889763776
21
-3.0550555511811024
0
LINE
8
BLACK
6
CONTINUOUS
10
6.7739931889763776
20
-3.0550555511811024
11
6.7736814173228348
21
-3.0549264173228345
0
LINE
8
BLACK
6
CONTINUOUS
10
6.7736814173228348
20
-3.0549264173228345
11
6.7729287795275592
21
-3.0546146850393701
0
LINE
8
BLACK
6
CONTINUOUS
10
6.7729287795275592
20
-3.0546146850393701
11
6.7724813385826774
21
-3.0542474409448817
0
LINE
8
BLACK
6
CONTINUOUS
10
6.7724813385826774
20
-3.0542474409448817
11
6.7504770078740153
21
-3.0322431496062991
0
LINE
8
BLACK
6
CONTINUOUS
10
6.7504770078740153
20
-3.0322431496062991
11
6.7459686220472443
21
-3.0307403543307085
0
LINE
8
BLACK
6
CONTINUOUS
10
6.7459686220472443
20
-3.0307403543307085
11
6.7433952755905509
21
-3.0307403543307085
0
LINE
8
BLACK
6
CONTINUOUS
10
6.7433952755905509
20
-3.0307403543307085
11
6.7406977952755902
21
-3.0320890944881889
0
LINE
8
BLACK
6
CONTINUOUS
10
6.7406977952755902
20
-3.0320890944881889
11
6.7395006692913384
21
-3.0332862204724407
0
LINE
8
BLACK
6
CONTINUOUS
10
6.7395006692913384
20
-3.0332862204724407
11
6.7381519291338581
21
-3.0359837007874013
0
LINE
8
BLACK
6
CONTINUOUS
10
6.7381519291338581
20
-3.0359837007874013
11
6.7381519291338581
21
-3.0439634251968504
0
LINE
8
BLACK
6
CONTINUOUS
10
6.7381519291338581
20
-3.0439634251968504
11
6.7395006692913384
21
-3.046660905511811
0
LINE
8
BLACK
6
CONTINUOUS
10
6.7395006692913384
20
-3.046660905511811
11
6.7410366141732281
21
-3.0481968503937007
0
LINE
8
BLACK
6
CONTINUOUS
10
6.7410366141732281
20
-3.0481968503937007
11
6.7414038188976377
21
-3.0486442913385825
0
LINE
8
BLACK
6
CONTINUOUS
10
6.7414038188976377
20
-3.0486442913385825
11
6.7418447244094484
21
-3.0497087007874013
0
LINE
8
BLACK
6
CONTINUOUS
10
6.7418447244094484
20
-3.0497087007874013
11
6.7418447244094484
21
-3.0508607874015747
0
LINE
8
BLACK
6
CONTINUOUS
10
6.7418447244094484
20
-3.0508607874015747
11
6.7414038188976377
21
-3.0519251968503935
0
LINE
8
BLACK
6
CONTINUOUS
10
6.7414038188976377
20
-3.0519251968503935
11
6.7405891338582675
21
-3.0527398818897638
0
LINE
8
BLACK
6
CONTINUOUS
10
6.7405891338582675
20
-3.0527398818897638
11
6.7395247244094483
21
-3.0531807874015748
0
LINE
8
BLACK
6
CONTINUOUS
10
6.7395247244094483
20
-3.0531807874015748
11
6.7383726377952753
21
-3.0531807874015748
0
LINE
8
BLACK
6
CONTINUOUS
10
6.7383726377952753
20
-3.0531807874015748
11
6.7373082283464569
21
-3.0527398818897638
0
LINE
8
BLACK
6
CONTINUOUS
10
6.7373082283464569
20
-3.0527398818897638
11
6.7368607874015742
21
-3.0523726771653541
0
LINE
8
BLACK
6
CONTINUOUS
10
6.7368607874015742
20
-3.0523726771653541
11
6.7349860236220467
21
-3.0504979133858265
0
LINE
8
BLACK
6
CONTINUOUS
10
6.7349860236220467
20
-3.0504979133858265
11
6.7348002362204724
21
-3.0502715354330707
0
LINE
8
BLACK
6
CONTINUOUS
10
6.7348002362204724
20
-3.0502715354330707
11
6.7347412598425196
21
-3.0502203937007875
0
LINE
8
BLACK
6
CONTINUOUS
10
6.7347412598425196
20
-3.0502203937007875
11
6.7346852755905511
21
-3.0501314173228344
0
LINE
8
BLACK
6
CONTINUOUS
10
6.7346852755905511
20
-3.0501314173228344
11
6.7346188188976379
21
-3.0500504724409447
0
LINE
8
BLACK
6
CONTINUOUS
10
6.7346188188976379
20
-3.0500504724409447
11
6.7345889763779523
21
-3.049978503937008
0
LINE
8
BLACK
6
CONTINUOUS
10
6.7345889763779523
20
-3.049978503937008
11
6.7344329133858265
21
-3.0497305118110236
0
LINE
8
BLACK
6
CONTINUOUS
10
6.7344329133858265
20
-3.0497305118110236
11
6.7325581496062989
21
-3.0459809842519685
0
LINE
8
BLACK
6
CONTINUOUS
10
6.7325581496062989
20
-3.0459809842519685
11
6.7323512598425195
21
-3.0454403543307085
0
LINE
8
BLACK
6
CONTINUOUS
10
6.7323512598425195
20
-3.0454403543307085
11
6.7323437401574804
21
-3.0453345275590551
0
LINE
8
BLACK
6
CONTINUOUS
10
6.7323437401574804
20
-3.0453345275590551
11
6.7323031496062988
21
-3.0452365354330708
0
LINE
8
BLACK
6
CONTINUOUS
10
6.7323031496062988
20
-3.0452365354330708
11
6.7322464173228349
21
-3.044660472440945
0
LINE
8
BLACK
6
CONTINUOUS
10
6.7322464173228349
20
-3.044660472440945
11
6.7322464173228349
21
-3.0352866535433072
0
LINE
8
BLACK
6
CONTINUOUS
10
6.7322464173228349
20
-3.0352866535433072
11
6.7323031496062988
21
-3.0347105905511809
0
LINE
8
BLACK
6
CONTINUOUS
10
6.7323031496062988
20
-3.0347105905511809
11
6.7323437401574804
21
-3.0346125590551178
0
LINE
8
BLACK
6
CONTINUOUS
10
6.7323437401574804
20
-3.0346125590551178
11
6.7323512598425195
21
-3.0345067716535432
0
LINE
8
BLACK
6
CONTINUOUS
10
6.7323512598425195
20
-3.0345067716535432
11
6.7325581496062989
21
-3.0339661417322832
0
LINE
8
BLACK
6
CONTINUOUS
10
6.7325581496062989
20
-3.0339661417322832
11
6.7344329133858265
21
-3.0302166141732281
0
LINE
8
BLACK
6
CONTINUOUS
10
6.7344329133858265
20
-3.0302166141732281
11
6.7345889763779523
21
-3.0299685826771654
0
LINE
8
BLACK
6
CONTINUOUS
10
6.7345889763779523
20
-3.0299685826771654
11
6.7346188188976379
21
-3.029896653543307
0
LINE
8
BLACK
6
CONTINUOUS
10
6.7346188188976379
20
-3.029896653543307
11
6.7346852755905511
21
-3.0298156692913385
0
LINE
8
BLACK
6
CONTINUOUS
10
6.7346852755905511
20
-3.0298156692913385
11
6.7347412598425196
21
-3.0297267322834647
0
LINE
8
BLACK
6
CONTINUOUS
10
6.7347412598425196
20
-3.0297267322834647
11
6.7348002362204724
21
-3.0296755511811022
0
LINE
8
BLACK
6
CONTINUOUS
10
6.7348002362204724
20
-3.0296755511811022
11
6.7349860236220467
21
-3.0294492125984251
0
LINE
8
BLACK
6
CONTINUOUS
10
6.7349860236220467
20
-3.0294492125984251
11
6.7368607874015742
21
-3.0275744488188976
0
LINE
8
BLACK
6
CONTINUOUS
10
6.7368607874015742
20
-3.0275744488188976
11
6.7370871259842522
21
-3.0273886614173229
0
LINE
8
BLACK
6
CONTINUOUS
10
6.7370871259842522
20
-3.0273886614173229
11
6.7371383070866138
21
-3.0273296850393701
0
LINE
8
BLACK
6
CONTINUOUS
10
6.7371383070866138
20
-3.0273296850393701
11
6.7372272440944885
21
-3.0272737007874015
0
LINE
8
BLACK
6
CONTINUOUS
10
6.7372272440944885
20
-3.0272737007874015
11
6.7373082283464569
21
-3.0272072440944879
0
LINE
8
BLACK
6
CONTINUOUS
10
6.7373082283464569
20
-3.0272072440944879
11
6.7373801574803149
21
-3.0271774015748032
0
LINE
8
BLACK
6
CONTINUOUS
10
6.7373801574803149
20
-3.0271774015748032
11
6.7376281889763776
21
-3.027021338582677
0
LINE
8
BLACK
6
CONTINUOUS
10
6.7376281889763776
20
-3.027021338582677
11
6.7413777165354327
21
-3.0251465748031494
0
LINE
8
BLACK
6
CONTINUOUS
10
6.7413777165354327
20
-3.0251465748031494
11
6.741918307086614
21
-3.0249396850393699
0
LINE
8
BLACK
6
CONTINUOUS
10
6.741918307086614
20
-3.0249396850393699
11
6.7420241732283461
21
-3.0249321259842521
0
LINE
8
BLACK
6
CONTINUOUS
10
6.7420241732283461
20
-3.0249321259842521
11
6.7421221653543304
21
-3.0248915748031497
0
LINE
8
BLACK
6
CONTINUOUS
10
6.7421221653543304
20
-3.0248915748031497
11
6.7426982283464563
21
-3.0248348425196849
0
LINE
8
BLACK
6
CONTINUOUS
10
6.7426982283464563
20
-3.0248348425196849
11
6.7464477559055114
21
-3.0248348425196849
0
LINE
8
BLACK
6
CONTINUOUS
10
6.7464477559055114
20
-3.0248348425196849
11
6.7467392913385824
21
-3.0248635433070867
0
LINE
8
BLACK
6
CONTINUOUS
10
5.7232224015748034
20
-3.0123001968503935
11
5.7233722440944881
21
-3.0130535039370079
0
LINE
8
BLACK
6
CONTINUOUS
10
5.7233722440944881
20
-3.0130535039370079
11
5.7233722440944881
21
-3.0444598031496062
0
LINE
8
BLACK
6
CONTINUOUS
10
5.7233722440944881
20
-3.0444598031496062
11
5.724896299212598
21
-3.0475079133858265
0
LINE
8
BLACK
6
CONTINUOUS
10
5.724896299212598
20
-3.0475079133858265
11
5.7263193700787403
21
-3.048931023622047
0
LINE
8
BLACK
6
CONTINUOUS
10
5.7263193700787403
20
-3.048931023622047
11
5.7293675196850389
21
-3.0504550787401574
0
LINE
8
BLACK
6
CONTINUOUS
10
5.7293675196850389
20
-3.0504550787401574
11
5.735937165354331
21
-3.0504550787401574
0
LINE
8
BLACK
6
CONTINUOUS
10
5.735937165354331
20
-3.0504550787401574
11
5.7389852362204721
21
-3.048931023622047
0
LINE
8
BLACK
6
CONTINUOUS
10
5.7389852362204721
20
-3.048931023622047
11
5.7404083070866143
21
-3.0475079133858265
0
LINE
8
BLACK
6
CONTINUOUS
10
5.7404083070866143
20
-3.0475079133858265
11
5.741932401574803
21
-3.0444597637795274
0
LINE
8
BLACK
6
CONTINUOUS
10
5.741932401574803
20
-3.0444597637795274
11
5.741932401574803
21
-3.0130535039370079
0
LINE
8
BLACK
6
CONTINUOUS
10
5.741932401574803
20
-3.0130535039370079
11
5.7420822440944876
21
-3.0123001968503935
0
LINE
8
BLACK
6
CONTINUOUS
10
5.7420822440944876
20
-3.0123001968503935
11
5.743147598425197
21
-3.0112348425196851
0
LINE
8
BLACK
6
CONTINUOUS
10
5.743147598425197
20
-3.0112348425196851
11
5.7446542125984248
21
-3.0112348425196851
0
LINE
8
BLACK
6
CONTINUOUS
10
5.7446542125984248
20
-3.0112348425196851
11
5.7457195669291341
21
-3.0123001968503935
0
LINE
8
BLACK
6
CONTINUOUS
10
5.7457195669291341
20
-3.0123001968503935
11
5.7458694094488187
21
-3.0130535039370079
0
LINE
8
BLACK
6
CONTINUOUS
10
5.7458694094488187
20
-3.0130535039370079
11
5.7458694094488187
21
-3.0449244881889763
0
LINE
8
BLACK
6
CONTINUOUS
10
5.7458694094488187
20
-3.0449244881889763
11
5.7458501574803149
21
-3.0450211811023622
0
LINE
8
BLACK
6
CONTINUOUS
10
5.7458501574803149
20
-3.0450211811023622
11
5.7458644488188977
21
-3.0450640551181101
0
LINE
8
BLACK
6
CONTINUOUS
10
5.7458644488188977
20
-3.0450640551181101
11
5.745781102362205
21
-3.0453682677165355
0
LINE
8
BLACK
6
CONTINUOUS
10
5.745781102362205
20
-3.0453682677165355
11
5.7457195669291341
21
-3.0456777952755907
0
LINE
8
BLACK
6
CONTINUOUS
10
5.7457195669291341
20
-3.0456777952755907
11
5.7456875984251967
21
-3.0457097244094489
0
LINE
8
BLACK
6
CONTINUOUS
10
5.7456875984251967
20
-3.0457097244094489
11
5.7456615748031492
21
-3.0458048425196851
0
LINE
8
BLACK
6
CONTINUOUS
10
5.7456615748031492
20
-3.0458048425196851
11
5.7437868110236217
21
-3.0495543700787402
0
LINE
8
BLACK
6
CONTINUOUS
10
5.7437868110236217
20
-3.0495543700787402
11
5.7435934251968499
21
-3.0498035039370079
0
LINE
8
BLACK
6
CONTINUOUS
10
5.7435934251968499
20
-3.0498035039370079
11
5.7434181102362203
21
-3.0500659448818896
0
LINE
8
BLACK
6
CONTINUOUS
10
5.7434181102362203
20
-3.0500659448818896
11
5.7415433464566927
21
-3.051940748031496
0
LINE
8
BLACK
6
CONTINUOUS
10
5.7415433464566927
20
-3.051940748031496
11
5.7412807874015748
21
-3.0521161811023623
0
LINE
8
BLACK
6
CONTINUOUS
10
5.7412807874015748
20
-3.0521161811023623
11
5.7410316929133858
21
-3.0523095275590553
0
LINE
8
BLACK
6
CONTINUOUS
10
5.7410316929133858
20
-3.0523095275590553
11
5.7372822047244094
21
-3.0541842519685041
0
LINE
8
BLACK
6
CONTINUOUS
10
5.7372822047244094
20
-3.0541842519685041
11
5.7371870866141732
21
-3.0542102755905511
0
LINE
8
BLACK
6
CONTINUOUS
10
5.7371870866141732
20
-3.0542102755905511
11
5.7371551574803146
21
-3.0542422440944881
0
LINE
8
BLACK
6
CONTINUOUS
10
5.7371551574803146
20
-3.0542422440944881
11
5.7368456299212598
21
-3.0543037795275589
0
LINE
8
BLACK
6
CONTINUOUS
10
5.7368456299212598
20
-3.0543037795275589
11
5.7365414173228348
21
-3.0543871259842521
0
LINE
8
BLACK
6
CONTINUOUS
10
5.7365414173228348
20
-3.0543871259842521
11
5.7364985433070865
21
-3.0543728346456693
0
LINE
8
BLACK
6
CONTINUOUS
10
5.7364985433070865
20
-3.0543728346456693
11
5.7364018503937011
21
-3.0543920866141732
0
LINE
8
BLACK
6
CONTINUOUS
10
5.7364018503937011
20
-3.0543920866141732
11
5.72890279527559
21
-3.0543920866141732
0
LINE
8
BLACK
6
CONTINUOUS
10
5.72890279527559
20
-3.0543920866141732
11
5.7288060629921258
21
-3.0543728346456693
0
LINE
8
BLACK
6
CONTINUOUS
10
5.7288060629921258
20
-3.0543728346456693
11
5.7287632283464562
21
-3.0543871259842521
0
LINE
8
BLACK
6
CONTINUOUS
10
5.7287632283464562
20
-3.0543871259842521
11
5.7284589763779525
21
-3.0543037795275589
0
LINE
8
BLACK
6
CONTINUOUS
10
5.7284589763779525
20
-3.0543037795275589
11
5.7281494881889765
21
-3.0542422440944881
0
LINE
8
BLACK
6
CONTINUOUS
10
5.7281494881889765
20
-3.0542422440944881
11
5.7281175196850391
21
-3.0542102755905511
0
LINE
8
BLACK
6
CONTINUOUS
10
5.7281175196850391
20
-3.0542102755905511
11
5.7280224409448817
21
-3.0541842519685041
0
LINE
8
BLACK
6
CONTINUOUS
10
5.7280224409448817
20
-3.0541842519685041
11
5.7242729133858266
21
-3.0523094881889765
0
LINE
8
BLACK
6
CONTINUOUS
10
5.7242729133858266
20
-3.0523094881889765
11
5.7240237401574801
21
-3.0521161023622048
0
LINE
8
BLACK
6
CONTINUOUS
10
5.7240237401574801
20
-3.0521161023622048
11
5.7237612992125984
21
-3.051940748031496
0
LINE
8
BLACK
6
CONTINUOUS
10
5.7237612992125984
20
-3.051940748031496
11
5.7218865354330708
21
-3.0500659448818896
0
LINE
8
BLACK
6
CONTINUOUS
10
5.7218865354330708
20
-3.0500659448818896
11
5.7217111417322837
21
-3.0498034645669292
0
LINE
8
BLACK
6
CONTINUOUS
10
5.7217111417322837
20
-3.0498034645669292
11
5.7215177952755907
21
-3.0495543307086614
0
LINE
8
BLACK
6
CONTINUOUS
10
5.7215177952755907
20
-3.0495543307086614
11
5.7196430708661419
21
-3.0458048425196851
0
LINE
8
BLACK
6
CONTINUOUS
10
5.7196430708661419
20
-3.0458048425196851
11
5.7196170078740156
21
-3.0457097244094489
0
LINE
8
BLACK
6
CONTINUOUS
10
5.7196170078740156
20
-3.0457097244094489
11
5.719585078740157
21
-3.0456777952755907
0
LINE
8
BLACK
6
CONTINUOUS
10
5.719585078740157
20
-3.0456777952755907
11
5.7195235039370074
21
-3.0453682677165355
0
LINE
8
BLACK
6
CONTINUOUS
10
5.7195235039370074
20
-3.0453682677165355
11
5.7194401968503934
21
-3.0450640551181101
0
LINE
8
BLACK
6
CONTINUOUS
10
5.7194401968503934
20
-3.0450640551181101
11
5.7194544488188974
21
-3.0450211811023622
0
LINE
8
BLACK
6
CONTINUOUS
10
5.7194544488188974
20
-3.0450211811023622
11
5.7194352362204723
21
-3.0449244881889763
0
LINE
8
BLACK
6
CONTINUOUS
10
5.7194352362204723
20
-3.0449244881889763
11
5.7194352362204723
21
-3.0130535039370079
0
LINE
8
BLACK
6
CONTINUOUS
10
5.7194352362204723
20
-3.0130535039370079
11
5.719585078740157
21
-3.0123001968503935
0
LINE
8
BLACK
6
CONTINUOUS
10
5.719585078740157
20
-3.0123001968503935
11
5.7206504330708663
21
-3.0112348425196851
0
LINE
8
BLACK
6
CONTINUOUS
10
5.7206504330708663
20
-3.0112348425196851
11
5.7221570472440941
21
-3.0112348425196851
0
LINE
8
BLACK
6
CONTINUOUS
10
5.7221570472440941
20
-3.0112348425196851
11
5.7232224015748034
21
-3.0123001968503935
0
LINE
8
BLACK
6
CONTINUOUS
10
5.7725731102362206
20
-3.0112348425196851
11
5.7727757086614169
21
-3.0112348425196851
0
LINE
8
BLACK
6
CONTINUOUS
10
5.7727757086614169
20
-3.0112348425196851
11
5.7731809842519688
21
-3.0116401181102361
0
LINE
8
BLACK
6
CONTINUOUS
10
5.7731809842519688
20
-3.0116401181102361
11
5.7736579921259841
21
-3.0119581496062993
0
LINE
8
BLACK
6
CONTINUOUS
10
5.7736579921259841
20
-3.0119581496062993
11
5.7736977165354331
21
-3.0121568503937008
0
LINE
8
BLACK
6
CONTINUOUS
10
5.7736977165354331
20
-3.0121568503937008
11
5.7738410629921262
21
-3.0123001968503935
0
LINE
8
BLACK
6
CONTINUOUS
10
5.7738410629921262
20
-3.0123001968503935
11
5.7739909055118108
21
-3.0130535039370079
0
LINE
8
BLACK
6
CONTINUOUS
10
5.7739909055118108
20
-3.0130535039370079
11
5.7739909055118108
21
-3.0504550787401574
0
LINE
8
BLACK
6
CONTINUOUS
10
5.7739909055118108
20
-3.0504550787401574
11
5.7832709842519687
21
-3.0504550787401574
0
LINE
8
BLACK
6
CONTINUOUS
10
5.7832709842519687
20
-3.0504550787401574
11
5.7840242913385822
21
-3.0506049212598425
0
LINE
8
BLACK
6
CONTINUOUS
10
5.7840242913385822
20
-3.0506049212598425
11
5.7850896456692915
21
-3.0516702755905509
0
LINE
8
BLACK
6
CONTINUOUS
10
5.7850896456692915
20
-3.0516702755905509
11
5.7850896456692915
21
-3.0531768897637797
0
LINE
8
BLACK
6
CONTINUOUS
10
5.7850896456692915
20
-3.0531768897637797
11
5.7840242913385822
21
-3.0542422440944881
0
LINE
8
BLACK
6
CONTINUOUS
10
5.7840242913385822
20
-3.0542422440944881
11
5.7832709842519687
21
-3.0543920866141732
0
LINE
8
BLACK
6
CONTINUOUS
10
5.7832709842519687
20
-3.0543920866141732
11
5.7607738188976381
21
-3.0543920866141732
0
LINE
8
BLACK
6
CONTINUOUS
10
5.7607738188976381
20
-3.0543920866141732
11
5.7600205118110237
21
-3.0542422440944881
0
LINE
8
BLACK
6
CONTINUOUS
10
5.7600205118110237
20
-3.0542422440944881
11
5.7589551574803144
21
-3.0531768897637797
0
LINE
8
BLACK
6
CONTINUOUS
10
5.7589551574803144
20
-3.0531768897637797
11
5.7589551574803144
21
-3.0516702755905509
0
LINE
8
BLACK
6
CONTINUOUS
10
5.7589551574803144
20
-3.0516702755905509
11
5.7600205118110237
21
-3.0506049212598425
0
LINE
8
BLACK
6
CONTINUOUS
10
5.7600205118110237
20
-3.0506049212598425
11
5.7607738188976381
21
-3.0504550787401574
0
LINE
8
BLACK
6
CONTINUOUS
10
5.7607738188976381
20
-3.0504550787401574
11
5.7700538976377951
21
-3.0504550787401574
0
LINE
8
BLACK
6
CONTINUOUS
10
5.7700538976377951
20
-3.0504550787401574
11
5.7700538976377951
21
-3.0195550393700787
0
LINE
8
BLACK
6
CONTINUOUS
10
5.7700538976377951
20
-3.0195550393700787
11
5.7699107874015745
21
-3.0197697244094486
0
LINE
8
BLACK
6
CONTINUOUS
10
5.7699107874015745
20
-3.0197697244094486
11
5.7697729921259837
21
-3.0199077559055119
0
LINE
8
BLACK
6
CONTINUOUS
10
5.7697729921259837
20
-3.0199077559055119
11
5.7696648031496061
21
-3.0200697244094488
0
LINE
8
BLACK
6
CONTINUOUS
10
5.7696648031496061
20
-3.0200697244094488
11
5.7659152755905509
21
-3.0238192519685039
0
LINE
8
BLACK
6
CONTINUOUS
10
5.7659152755905509
20
-3.0238192519685039
11
5.7656529921259843
21
-3.0239944881889764
0
LINE
8
BLACK
6
CONTINUOUS
10
5.7656529921259843
20
-3.0239944881889764
11
5.7654036614173227
21
-3.0241880314960627
0
LINE
8
BLACK
6
CONTINUOUS
10
5.7654036614173227
20
-3.0241880314960627
11
5.7616541732283464
21
-3.0260627559055115
0
LINE
8
BLACK
6
CONTINUOUS
10
5.7616541732283464
20
-3.0260627559055115
11
5.7609133858267718
21
-3.0262656299212596
0
LINE
8
BLACK
6
CONTINUOUS
10
5.7609133858267718
20
-3.0262656299212596
11
5.7594840551181097
21
-3.0257892125984251
0
LINE
8
BLACK
6
CONTINUOUS
10
5.7594840551181097
20
-3.0257892125984251
11
5.7588102755905508
21
-3.024441653543307
0
LINE
8
BLACK
6
CONTINUOUS
10
5.7588102755905508
20
-3.024441653543307
11
5.7592866929133857
21
-3.0230123228346457
0
LINE
8
BLACK
6
CONTINUOUS
10
5.7592866929133857
20
-3.0230123228346457
11
5.7598934645669289
21
-3.0225414173228344
0
LINE
8
BLACK
6
CONTINUOUS
10
5.7598934645669289
20
-3.0225414173228344
11
5.7633573228346453
21
-3.0208094881889762
0
LINE
8
BLACK
6
CONTINUOUS
10
5.7633573228346453
20
-3.0208094881889762
11
5.7667429921259838
21
-3.0174237795275589
0
LINE
8
BLACK
6
CONTINUOUS
10
5.7667429921259838
20
-3.0174237795275589
11
5.7703845275590551
21
-3.0119615748031494
0
LINE
8
BLACK
6
CONTINUOUS
10
5.7703845275590551
20
-3.0119615748031494
11
5.7709270472440943
21
-3.0114179133858268
0
LINE
8
BLACK
6
CONTINUOUS
10
5.7709270472440943
20
-3.0114179133858268
11
5.7711257480314959
21
-3.011378149606299
0
LINE
8
BLACK
6
CONTINUOUS
10
5.7711257480314959
20
-3.011378149606299
11
5.771269094488189
21
-3.0112348425196851
0
LINE
8
BLACK
6
CONTINUOUS
10
5.771269094488189
20
-3.0112348425196851
11
5.7718423228346456
21
-3.0112348425196851
0
LINE
8
BLACK
6
CONTINUOUS
10
5.7718423228346456
20
-3.0112348425196851
11
5.7724044488188975
21
-3.011122401574803
0
LINE
8
BLACK
6
CONTINUOUS
10
5.7724044488188975
20
-3.011122401574803
11
5.7725731102362206
21
-3.0112348425196851
0
LINE
8
BLACK
6
CONTINUOUS
10
6.4630097244094484
20
-3.0227899606299213
11
6.4638243700787399
21
-3.0236046062992123
0
LINE
8
BLACK
6
CONTINUOUS
10
6.4638243700787399
20
-3.0236046062992123
11
6.4642652755905514
21
-3.0246690157480316
0
LINE
8
BLACK
6
CONTINUOUS
10
6.4642652755905514
20
-3.0246690157480316
11
6.4643220078740153
21
-3.0252450787401575
0
LINE
8
BLACK
6
CONTINUOUS
10
6.4643220078740153
20
-3.0252450787401575
11
6.4643220078740153
21
-3.0477422440944881
0
LINE
8
BLACK
6
CONTINUOUS
10
6.4643220078740153
20
-3.0477422440944881
11
6.4642652755905514
21
-3.048318307086614
0
LINE
8
BLACK
6
CONTINUOUS
10
6.4642652755905514
20
-3.048318307086614
11
6.4638243700787399
21
-3.0493827165354328
0
LINE
8
BLACK
6
CONTINUOUS
10
6.4638243700787399
20
-3.0493827165354328
11
6.4630097244094484
21
-3.0501973622047243
0
LINE
8
BLACK
6
CONTINUOUS
10
6.4630097244094484
20
-3.0501973622047243
11
6.4619453149606301
21
-3.0506382677165353
0
LINE
8
BLACK
6
CONTINUOUS
10
6.4619453149606301
20
-3.0506382677165353
11
6.4607931889763774
21
-3.0506382677165353
0
LINE
8
BLACK
6
CONTINUOUS
10
6.4607931889763774
20
-3.0506382677165353
11
6.4597287795275591
21
-3.0501973622047243
0
LINE
8
BLACK
6
CONTINUOUS
10
6.4597287795275591
20
-3.0501973622047243
11
6.4589141338582676
21
-3.0493827165354328
0
LINE
8
BLACK
6
CONTINUOUS
10
6.4589141338582676
20
-3.0493827165354328
11
6.458473228346457
21
-3.048318307086614
0
LINE
8
BLACK
6
CONTINUOUS
10
6.458473228346457
20
-3.048318307086614
11
6.4584164960629922
21
-3.0477422440944881
0
LINE
8
BLACK
6
CONTINUOUS
10
6.4584164960629922
20
-3.0477422440944881
11
6.4584164960629922
21
-3.0394464173228344
0
LINE
8
BLACK
6
CONTINUOUS
10
6.4584164960629922
20
-3.0394464173228344
11
6.4310025196850393
21
-3.0394464173228344
0
LINE
8
BLACK
6
CONTINUOUS
10
6.4310025196850393
20
-3.0394464173228344
11
6.4334609055118106
21
-3.0419048031496061
0
LINE
8
BLACK
6
CONTINUOUS
10
6.4334609055118106
20
-3.0419048031496061
11
6.4336467322834645
21
-3.0421311811023619
0
LINE
8
BLACK
6
CONTINUOUS
10
6.4336467322834645
20
-3.0421311811023619
11
6.4337056692913386
21
-3.0421823228346456
0
LINE
8
BLACK
6
CONTINUOUS
10
6.4337056692913386
20
-3.0421823228346456
11
6.4337615354330708
21
-3.0422710629921261
0
LINE
8
BLACK
6
CONTINUOUS
10
6.4337615354330708
20
-3.0422710629921261
11
6.433828149606299
21
-3.0423522440944879
0
LINE
8
BLACK
6
CONTINUOUS
10
6.433828149606299
20
-3.0423522440944879
11
6.4338579921259837
21
-3.0424243700787401
0
LINE
8
BLACK
6
CONTINUOUS
10
6.4338579921259837
20
-3.0424243700787401
11
6.4340140157480317
21
-3.0426722047244095
0
LINE
8
BLACK
6
CONTINUOUS
10
6.4340140157480317
20
-3.0426722047244095
11
6.4358887795275592
21
-3.0464217322834646
0
LINE
8
BLACK
6
CONTINUOUS
10
6.4358887795275592
20
-3.0464217322834646
11
6.4360956692913387
21
-3.0469623228346454
0
LINE
8
BLACK
6
CONTINUOUS
10
6.4360956692913387
20
-3.0469623228346454
11
6.4361773228346459
21
-3.0481115354330708
0
LINE
8
BLACK
6
CONTINUOUS
10
6.4361773228346459
20
-3.0481115354330708
11
6.4358129921259843
21
-3.0492045275590551
0
LINE
8
BLACK
6
CONTINUOUS
10
6.4358129921259843
20
-3.0492045275590551
11
6.4350581496062986
21
-3.0500748818897638
0
LINE
8
BLACK
6
CONTINUOUS
10
6.4350581496062986
20
-3.0500748818897638
11
6.4340276377952756
21
-3.0505901574803147
0
LINE
8
BLACK
6
CONTINUOUS
10
6.4340276377952756
20
-3.0505901574803147
11
6.4328784251968498
21
-3.0506718110236219
0
LINE
8
BLACK
6
CONTINUOUS
10
6.4328784251968498
20
-3.0506718110236219
11
6.4317854724409447
21
-3.0503074803149604
0
LINE
8
BLACK
6
CONTINUOUS
10
6.4317854724409447
20
-3.0503074803149604
11
6.4309150787401572
21
-3.0495526377952755
0
LINE
8
BLACK
6
CONTINUOUS
10
6.4309150787401572
20
-3.0495526377952755
11
6.4306067322834641
21
-3.0490627559055117
0
LINE
8
BLACK
6
CONTINUOUS
10
6.4306067322834641
20
-3.0490627559055117
11
6.4289462598425198
21
-3.0457418110236221
0
LINE
8
BLACK
6
CONTINUOUS
10
6.4289462598425198
20
-3.0457418110236221
11
6.425742283464567
21
-3.0425378346456693
0
LINE
8
BLACK
6
CONTINUOUS
10
6.425742283464567
20
-3.0425378346456693
11
6.4203612598425197
21
-3.0389505118110236
0
LINE
8
BLACK
6
CONTINUOUS
10
6.4203612598425197
20
-3.0389505118110236
11
6.4203595669291333
21
-3.0389491338582677
0
LINE
8
BLACK
6
CONTINUOUS
10
6.4203595669291333
20
-3.0389491338582677
11
6.4203587007874017
21
-3.0389487795275589
0
LINE
8
BLACK
6
CONTINUOUS
10
6.4203587007874017
20
-3.0389487795275589
11
6.4203566535433065
21
-3.0389467322834647
0
LINE
8
BLACK
6
CONTINUOUS
10
6.4203566535433065
20
-3.0389467322834647
11
6.4199134251968504
21
-3.0385837401574802
0
LINE
8
BLACK
6
CONTINUOUS
10
6.4199134251968504
20
-3.0385837401574802
11
6.4197507480314959
21
-3.0383408267716536
0
LINE
8
BLACK
6
CONTINUOUS
10
6.4197507480314959
20
-3.0383408267716536
11
6.4195440551181102
21
-3.0381341338582675
0
LINE
8
BLACK
6
CONTINUOUS
10
6.4195440551181102
20
-3.0381341338582675
11
6.4194333070866136
21
-3.0378668110236218
0
LINE
8
BLACK
6
CONTINUOUS
10
6.4194333070866136
20
-3.0378668110236218
11
6.4192723622047243
21
-3.0376264566929132
0
LINE
8
BLACK
6
CONTINUOUS
10
6.4192723622047243
20
-3.0376264566929132
11
6.4192149999999994
21
-3.0373398031496062
0
LINE
8
BLACK
6
CONTINUOUS
10
6.4192149999999994
20
-3.0373398031496062
11
6.4191031496062987
21
-3.0370697244094487
0
LINE
8
BLACK
6
CONTINUOUS
10
6.4191031496062987
20
-3.0370697244094487
11
6.4191031496062987
21
-3.0367803937007873
0
LINE
8
BLACK
6
CONTINUOUS
10
6.4191031496062987
20
-3.0367803937007873
11
6.4190464173228348
21
-3.0364967716535434
0
LINE
8
BLACK
6
CONTINUOUS
10
6.4190464173228348
20
-3.0364967716535434
11
6.4191031496062987
21
-3.0362099606299213
0
LINE
8
BLACK
6
CONTINUOUS
10
6.4191031496062987
20
-3.0362099606299213
11
6.4191031496062987
21
-3.0359175984251969
0
LINE
8
BLACK
6
CONTINUOUS
10
6.4191031496062987
20
-3.0359175984251969
11
6.4192138582677165
21
-3.03565031496063
0
LINE
8
BLACK
6
CONTINUOUS
10
6.4192138582677165
20
-3.03565031496063
11
6.41927
21
-3.035366535433071
0
LINE
8
BLACK
6
CONTINUOUS
10
6.41927
20
-3.035366535433071
11
6.4194321653543307
21
-3.0351232677165352
0
LINE
8
BLACK
6
CONTINUOUS
10
6.4194321653543307
20
-3.0351232677165352
11
6.4195440551181102
21
-3.0348531889763777
0
LINE
8
BLACK
6
CONTINUOUS
10
6.4195440551181102
20
-3.0348531889763777
11
6.4197485826771654
21
-3.0346486220472442
0
LINE
8
BLACK
6
CONTINUOUS
10
6.4197485826771654
20
-3.0346486220472442
11
6.4199090944881885
21
-3.0344079133858268
0
LINE
8
BLACK
6
CONTINUOUS
10
6.4199090944881885
20
-3.0344079133858268
11
6.4201519685039372
21
-3.0342452362204724
0
LINE
8
BLACK
6
CONTINUOUS
10
6.4201519685039372
20
-3.0342452362204724
11
6.4203587007874017
21
-3.0340385433070867
0
LINE
8
BLACK
6
CONTINUOUS
10
6.4203587007874017
20
-3.0340385433070867
11
6.4206259842519682
21
-3.0339277952755905
0
LINE
8
BLACK
6
CONTINUOUS
10
6.4206259842519682
20
-3.0339277952755905
11
6.4208663779527555
21
-3.0337668503937008
0
LINE
8
BLACK
6
CONTINUOUS
10
6.4208663779527555
20
-3.0337668503937008
11
6.4211529921259842
21
-3.0337094881889763
0
LINE
8
BLACK
6
CONTINUOUS
10
6.4211529921259842
20
-3.0337094881889763
11
6.42142311023622
21
-3.0335976377952756
0
LINE
8
BLACK
6
CONTINUOUS
10
6.42142311023622
20
-3.0335976377952756
11
6.4219930314960632
21
-3.0335414960629921
0
LINE
8
BLACK
6
CONTINUOUS
10
6.4219930314960632
20
-3.0335414960629921
11
6.4219960629921262
21
-3.0335409055118108
0
LINE
8
BLACK
6
CONTINUOUS
10
6.4219960629921262
20
-3.0335409055118108
11
6.4219970866141729
21
-3.0335411023622045
0
LINE
8
BLACK
6
CONTINUOUS
10
6.4219970866141729
20
-3.0335411023622045
11
6.4219991732283459
21
-3.0335409055118108
0
LINE
8
BLACK
6
CONTINUOUS
10
6.4219991732283459
20
-3.0335409055118108
11
6.4584164960629922
21
-3.0335409055118108
0
LINE
8
BLACK
6
CONTINUOUS
10
6.4584164960629922
20
-3.0335409055118108
11
6.4584164960629922
21
-3.0252450787401575
0
LINE
8
BLACK
6
CONTINUOUS
10
6.4584164960629922
20
-3.0252450787401575
11
6.458473228346457
21
-3.0246690157480316
0
LINE
8
BLACK
6
CONTINUOUS
10
6.458473228346457
20
-3.0246690157480316
11
6.4589141338582676
21
-3.0236046062992123
0
LINE
8
BLACK
6
CONTINUOUS
10
6.4589141338582676
20
-3.0236046062992123
11
6.4597287795275591
21
-3.0227899606299213
0
LINE
8
BLACK
6
CONTINUOUS
10
6.4597287795275591
20
-3.0227899606299213
11
6.4607931889763774
21
-3.0223490551181103
0
LINE
8
BLACK
6
CONTINUOUS
10
6.4607931889763774
20
-3.0223490551181103
11
6.4619453149606301
21
-3.0223490551181103
0
LINE
8
BLACK
6
CONTINUOUS
10
6.4619453149606301
20
-3.0223490551181103
11
6.4630097244094484
21
-3.0227899606299213
0
LINE
8
BLACK
6
CONTINUOUS
10
7.056122401574803
20
-2.8681702755905509
11
7.0562722440944876
21
-2.8689235826771653
0
LINE
8
BLACK
6
CONTINUOUS
10
7.0562722440944876
20
-2.8689235826771653
11
7.0562722440944876
21
-2.9003298818897636
0
LINE
8
BLACK
6
CONTINUOUS
10
7.0562722440944876
20
-2.9003298818897636
11
7.0577962992125984
21
-2.9033779921259844
0
LINE
8
BLACK
6
CONTINUOUS
10
7.0577962992125984
20
-2.9033779921259844
11
7.0592193700787398
21
-2.9048011023622045
0
LINE
8
BLACK
6
CONTINUOUS
10
7.0592193700787398
20
-2.9048011023622045
11
7.0622675196850393
21
-2.9063251574803148
0
LINE
8
BLACK
6
CONTINUOUS
10
7.0622675196850393
20
-2.9063251574803148
11
7.0688371653543305
21
-2.9063251574803148
0
LINE
8
BLACK
6
CONTINUOUS
10
7.0688371653543305
20
-2.9063251574803148
11
7.0718852362204725
21
-2.9048011023622045
0
LINE
8
BLACK
6
CONTINUOUS
10
7.0718852362204725
20
-2.9048011023622045
11
7.0733083070866138
21
-2.9033779921259844
0
LINE
8
BLACK
6
CONTINUOUS
10
7.0733083070866138
20
-2.9033779921259844
11
7.0748324015748034
21
-2.9003298425196848
0
LINE
8
BLACK
6
CONTINUOUS
10
7.0748324015748034
20
-2.9003298425196848
11
7.0748324015748034
21
-2.8689235826771653
0
LINE
8
BLACK
6
CONTINUOUS
10
7.0748324015748034
20
-2.8689235826771653
11
7.0749822440944881
21
-2.8681702755905509
0
LINE
8
BLACK
6
CONTINUOUS
10
7.0749822440944881
20
-2.8681702755905509
11
7.0760475984251965
21
-2.8671049212598425
0
LINE
8
BLACK
6
CONTINUOUS
10
7.0760475984251965
20
-2.8671049212598425
11
7.0775542125984252
21
-2.8671049212598425
0
LINE
8
BLACK
6
CONTINUOUS
10
7.0775542125984252
20
-2.8671049212598425
11
7.0786195669291336
21
-2.8681702755905509
0
LINE
8
BLACK
6
CONTINUOUS
10
7.0786195669291336
20
-2.8681702755905509
11
7.0787694094488192
21
-2.8689235826771653
0
LINE
8
BLACK
6
CONTINUOUS
10
7.0787694094488192
20
-2.8689235826771653
11
7.0787694094488192
21
-2.9007945669291337
0
LINE
8
BLACK
6
CONTINUOUS
10
7.0787694094488192
20
-2.9007945669291337
11
7.0787501574803144
21
-2.9008912598425196
0
LINE
8
BLACK
6
CONTINUOUS
10
7.0787501574803144
20
-2.9008912598425196
11
7.0787644488188972
21
-2.9009341338582675
0
LINE
8
BLACK
6
CONTINUOUS
10
7.0787644488188972
20
-2.9009341338582675
11
7.0786811023622045
21
-2.9012383464566929
0
LINE
8
BLACK
6
CONTINUOUS
10
7.0786811023622045
20
-2.9012383464566929
11
7.0786195669291336
21
-2.9015478740157481
0
LINE
8
BLACK
6
CONTINUOUS
10
7.0786195669291336
20
-2.9015478740157481
11
7.0785875984251962
21
-2.9015798031496063
0
LINE
8
BLACK
6
CONTINUOUS
10
7.0785875984251962
20
-2.9015798031496063
11
7.0785615748031496
21
-2.9016749212598425
0
LINE
8
BLACK
6
CONTINUOUS
10
7.0785615748031496
20
-2.9016749212598425
11
7.0766868110236221
21
-2.9054244488188976
0
LINE
8
BLACK
6
CONTINUOUS
10
7.0766868110236221
20
-2.9054244488188976
11
7.0764934251968503
21
-2.9056735826771654
0
LINE
8
BLACK
6
CONTINUOUS
10
7.0764934251968503
20
-2.9056735826771654
11
7.0763181102362207
21
-2.9059360236220471
0
LINE
8
BLACK
6
CONTINUOUS
10
7.0763181102362207
20
-2.9059360236220471
11
7.0744433464566931
21
-2.9078108267716534
0
LINE
8
BLACK
6
CONTINUOUS
10
7.0744433464566931
20
-2.9078108267716534
11
7.0741807874015743
21
-2.9079862598425197
0
LINE
8
BLACK
6
CONTINUOUS
10
7.0741807874015743
20
-2.9079862598425197
11
7.0739316929133853
21
-2.9081796062992127
0
LINE
8
BLACK
6
CONTINUOUS
10
7.0739316929133853
20
-2.9081796062992127
11
7.0701822047244089
21
-2.9100543307086615
0
LINE
8
BLACK
6
CONTINUOUS
10
7.0701822047244089
20
-2.9100543307086615
11
7.0700870866141727
21
-2.9100803543307086
0
LINE
8
BLACK
6
CONTINUOUS
10
7.0700870866141727
20
-2.9100803543307086
11
7.070055157480315
21
-2.9101123228346455
0
LINE
8
BLACK
6
CONTINUOUS
10
7.070055157480315
20
-2.9101123228346455
11
7.0697456299212593
21
-2.9101738582677164
0
LINE
8
BLACK
6
CONTINUOUS
10
7.0697456299212593
20
-2.9101738582677164
11
7.0694414173228344
21
-2.9102572047244095
0
LINE
8
BLACK
6
CONTINUOUS
10
7.0694414173228344
20
-2.9102572047244095
11
7.0693985433070861
21
-2.9102429133858267
0
LINE
8
BLACK
6
CONTINUOUS
10
7.0693985433070861
20
-2.9102429133858267
11
7.0693018503937006
21
-2.9102621653543306
0
LINE
8
BLACK
6
CONTINUOUS
10
7.0693018503937006
20
-2.9102621653543306
11
7.0618027952755904
21
-2.9102621653543306
0
LINE
8
BLACK
6
CONTINUOUS
10
7.0618027952755904
20
-2.9102621653543306
11
7.0617060629921262
21
-2.9102429133858267
0
LINE
8
BLACK
6
CONTINUOUS
10
7.0617060629921262
20
-2.9102429133858267
11
7.0616632283464567
21
-2.9102572047244095
0
LINE
8
BLACK
6
CONTINUOUS
10
7.0616632283464567
20
-2.9102572047244095
11
7.061358976377953
21
-2.9101738582677164
0
LINE
8
BLACK
6
CONTINUOUS
10
7.061358976377953
20
-2.9101738582677164
11
7.061049488188976
21
-2.9101123228346455
0
LINE
8
BLACK
6
CONTINUOUS
10
7.061049488188976
20
-2.9101123228346455
11
7.0610175196850395
21
-2.9100803543307086
0
LINE
8
BLACK
6
CONTINUOUS
10
7.0610175196850395
20
-2.9100803543307086
11
7.0609224409448821
21
-2.9100543307086615
0
LINE
8
BLACK
6
CONTINUOUS
10
7.0609224409448821
20
-2.9100543307086615
11
7.057172913385827
21
-2.9081795669291339
0
LINE
8
BLACK
6
CONTINUOUS
10
7.057172913385827
20
-2.9081795669291339
11
7.0569237401574805
21
-2.9079861811023622
0
LINE
8
BLACK
6
CONTINUOUS
10
7.0569237401574805
20
-2.9079861811023622
11
7.0566612992125979
21
-2.9078108267716534
0
LINE
8
BLACK
6
CONTINUOUS
10
7.0566612992125979
20
-2.9078108267716534
11
7.0547865354330703
21
-2.9059360236220471
0
LINE
8
BLACK
6
CONTINUOUS
10
7.0547865354330703
20
-2.9059360236220471
11
7.0546111417322832
21
-2.9056735433070866
0
LINE
8
BLACK
6
CONTINUOUS
10
7.0546111417322832
20
-2.9056735433070866
11
7.0544177952755902
21
-2.9054244094488189
0
LINE
8
BLACK
6
CONTINUOUS
10
7.0544177952755902
20
-2.9054244094488189
11
7.0525430708661414
21
-2.9016749212598425
0
LINE
8
BLACK
6
CONTINUOUS
10
7.0525430708661414
20
-2.9016749212598425
11
7.052517007874016
21
-2.9015798031496063
0
LINE
8
BLACK
6
CONTINUOUS
10
7.052517007874016
20
-2.9015798031496063
11
7.0524850787401574
21
-2.9015478740157481
0
LINE
8
BLACK
6
CONTINUOUS
10
7.0524850787401574
20
-2.9015478740157481
11
7.0524235039370078
21
-2.9012383464566929
0
LINE
8
BLACK
6
CONTINUOUS
10
7.0524235039370078
20
-2.9012383464566929
11
7.0523401968503938
21
-2.9009341338582675
0
LINE
8
BLACK
6
CONTINUOUS
10
7.0523401968503938
20
-2.9009341338582675
11
7.0523544488188978
21
-2.9008912598425196
0
LINE
8
BLACK
6
CONTINUOUS
10
7.0523544488188978
20
-2.9008912598425196
11
7.0523352362204719
21
-2.9007945669291337
0
LINE
8
BLACK
6
CONTINUOUS
10
7.0523352362204719
20
-2.9007945669291337
11
7.0523352362204719
21
-2.8689235826771653
0
LINE
8
BLACK
6
CONTINUOUS
10
7.0523352362204719
20
-2.8689235826771653
11
7.0524850787401574
21
-2.8681702755905509
0
LINE
8
BLACK
6
CONTINUOUS
10
7.0524850787401574
20
-2.8681702755905509
11
7.0535504330708658
21
-2.8671049212598425
0
LINE
8
BLACK
6
CONTINUOUS
10
7.0535504330708658
20
-2.8671049212598425
11
7.0550570472440945
21
-2.8671049212598425
0
LINE
8
BLACK
6
CONTINUOUS
10
7.0550570472440945
20
-2.8671049212598425
11
7.056122401574803
21
-2.8681702755905509
0
LINE
8
BLACK
6
CONTINUOUS
10
7.1087686220472444
20
-2.8669742913385825
11
7.1088114960629918
21
-2.8669600393700785
0
LINE
8
BLACK
6
CONTINUOUS
10
7.1088114960629918
20
-2.8669600393700785
11
7.1091157086614167
21
-2.8670433464566929
0
LINE
8
BLACK
6
CONTINUOUS
10
7.1091157086614167
20
-2.8670433464566929
11
7.1094252362204724
21
-2.8671049212598425
0
LINE
8
BLACK
6
CONTINUOUS
10
7.1094252362204724
20
-2.8671049212598425
11
7.1094571653543301
21
-2.8671368503937007
0
LINE
8
BLACK
6
CONTINUOUS
10
7.1094571653543301
20
-2.8671368503937007
11
7.1095522834645664
21
-2.8671629133858265
0
LINE
8
BLACK
6
CONTINUOUS
10
7.1095522834645664
20
-2.8671629133858265
11
7.1133017716535427
21
-2.8690376377952753
0
LINE
8
BLACK
6
CONTINUOUS
10
7.1133017716535427
20
-2.8690376377952753
11
7.1135511023622042
21
-2.8692311417322833
0
LINE
8
BLACK
6
CONTINUOUS
10
7.1135511023622042
20
-2.8692311417322833
11
7.1138133858267718
21
-2.8694064173228346
0
LINE
8
BLACK
6
CONTINUOUS
10
7.1138133858267718
20
-2.8694064173228346
11
7.1156881496062994
21
-2.8712811417322834
0
LINE
8
BLACK
6
CONTINUOUS
10
7.1156881496062994
20
-2.8712811417322834
11
7.1158635039370077
21
-2.8715435826771651
0
LINE
8
BLACK
6
CONTINUOUS
10
7.1158635039370077
20
-2.8715435826771651
11
7.1160568897637795
21
-2.8717927559055116
0
LINE
8
BLACK
6
CONTINUOUS
10
7.1160568897637795
20
-2.8717927559055116
11
7.117931653543307
21
-2.8755422834645668
0
LINE
8
BLACK
6
CONTINUOUS
10
7.117931653543307
20
-2.8755422834645668
11
7.1179576771653545
21
-2.8756373622047242
0
LINE
8
BLACK
6
CONTINUOUS
10
7.1179576771653545
20
-2.8756373622047242
11
7.117989645669291
21
-2.8756693307086612
0
LINE
8
BLACK
6
CONTINUOUS
10
7.117989645669291
20
-2.8756693307086612
11
7.1180511811023619
21
-2.8759788188976376
0
LINE
8
BLACK
6
CONTINUOUS
10
7.1180511811023619
20
-2.8759788188976376
11
7.1181345275590546
21
-2.8762830708661418
0
LINE
8
BLACK
6
CONTINUOUS
10
7.1181345275590546
20
-2.8762830708661418
11
7.1181202362204719
21
-2.8763259055118109
0
LINE
8
BLACK
6
CONTINUOUS
10
7.1181202362204719
20
-2.8763259055118109
11
7.1181394881889766
21
-2.8764226377952755
0
LINE
8
BLACK
6
CONTINUOUS
10
7.1181394881889766
20
-2.8764226377952755
11
7.1181394881889766
21
-2.8801721653543306
0
LINE
8
BLACK
6
CONTINUOUS
10
7.1181394881889766
20
-2.8801721653543306
11
7.118077913385827
21
-2.8804816535433071
0
LINE
8
BLACK
6
CONTINUOUS
10
7.118077913385827
20
-2.8804816535433071
11
7.1180384645669292
21
-2.88079468503937
0
LINE
8
BLACK
6
CONTINUOUS
10
7.1180384645669292
20
-2.88079468503937
11
7.1161637007874017
21
-2.8864189370078739
0
LINE
8
BLACK
6
CONTINUOUS
10
7.1161637007874017
20
-2.8864189370078739
11
7.1161148818897635
21
-2.8865045669291338
0
LINE
8
BLACK
6
CONTINUOUS
10
7.1161148818897635
20
-2.8865045669291338
11
7.1161148818897635
21
-2.8865497637795277
0
LINE
8
BLACK
6
CONTINUOUS
10
7.1161148818897635
20
-2.8865497637795277
11
7.1159396456692914
21
-2.8868119685039368
0
LINE
8
BLACK
6
CONTINUOUS
10
7.1159396456692914
20
-2.8868119685039368
11
7.1157833464566931
21
-2.8870862204724408
0
LINE
8
BLACK
6
CONTINUOUS
10
7.1157833464566931
20
-2.8870862204724408
11
7.1157428740157478
21
-2.8871064173228347
0
LINE
8
BLACK
6
CONTINUOUS
10
7.1157428740157478
20
-2.8871064173228347
11
7.1156881496062994
21
-2.8871883858267715
0
LINE
8
BLACK
6
CONTINUOUS
10
7.1156881496062994
20
-2.8871883858267715
11
7.0965514173228348
21
-2.9063251574803148
0
LINE
8
BLACK
6
CONTINUOUS
10
7.0965514173228348
20
-2.9063251574803148
11
7.1161709842519683
21
-2.9063251574803148
0
LINE
8
BLACK
6
CONTINUOUS
10
7.1161709842519683
20
-2.9063251574803148
11
7.1169242913385826
21
-2.9064749999999999
0
LINE
8
BLACK
6
CONTINUOUS
10
7.1169242913385826
20
-2.9064749999999999
11
7.117989645669291
21
-2.9075403543307088
0
LINE
8
BLACK
6
CONTINUOUS
10
7.117989645669291
20
-2.9075403543307088
11
7.117989645669291
21
-2.9090469685039371
0
LINE
8
BLACK
6
CONTINUOUS
10
7.117989645669291
20
-2.9090469685039371
11
7.1169242913385826
21
-2.9101123228346455
0
LINE
8
BLACK
6
CONTINUOUS
10
7.1169242913385826
20
-2.9101123228346455
11
7.1161709842519683
21
-2.9102621653543306
0
LINE
8
BLACK
6
CONTINUOUS
10
7.1161709842519683
20
-2.9102621653543306
11
7.09179905511811
21
-2.9102621653543306
0
LINE
8
BLACK
6
CONTINUOUS
10
7.09179905511811
20
-2.9102621653543306
11
7.0910457480314957
21
-2.9101123228346455
0
LINE
8
BLACK
6
CONTINUOUS
10
7.0910457480314957
20
-2.9101123228346455
11
7.0899803937007873
21
-2.9090469685039371
0
LINE
8
BLACK
6
CONTINUOUS
10
7.0899803937007873
20
-2.9090469685039371
11
7.0899803937007873
21
-2.9075403543307088
0
LINE
8
BLACK
6
CONTINUOUS
10
7.0899803937007873
20
-2.9075403543307088
11
7.0904071259842514
21
-2.9069017322834645
0
LINE
8
BLACK
6
CONTINUOUS
10
7.0904071259842514
20
-2.9069017322834645
11
7.1125756692913384
21
-2.8847331102362204
0
LINE
8
BLACK
6
CONTINUOUS
10
7.1125756692913384
20
-2.8847331102362204
11
7.1142024803149608
21
-2.8798527559055116
0
LINE
8
BLACK
6
CONTINUOUS
10
7.1142024803149608
20
-2.8798527559055116
11
7.1142024803149608
21
-2.8768873228346457
0
LINE
8
BLACK
6
CONTINUOUS
10
7.1142024803149608
20
-2.8768873228346457
11
7.1126783858267713
21
-2.8738391732283466
0
LINE
8
BLACK
6
CONTINUOUS
10
7.1126783858267713
20
-2.8738391732283466
11
7.1112553937007874
21
-2.8724161417322835
0
LINE
8
BLACK
6
CONTINUOUS
10
7.1112553937007874
20
-2.8724161417322835
11
7.1082072440944879
21
-2.8708920866141732
0
LINE
8
BLACK
6
CONTINUOUS
10
7.1082072440944879
20
-2.8708920866141732
11
7.0997628346456692
21
-2.8708920866141732
0
LINE
8
BLACK
6
CONTINUOUS
10
7.0997628346456692
20
-2.8708920866141732
11
7.0967146456692909
21
-2.8724161417322835
0
LINE
8
BLACK
6
CONTINUOUS
10
7.0967146456692909
20
-2.8724161417322835
11
7.0950657480314963
21
-2.8740650393700786
0
LINE
8
BLACK
6
CONTINUOUS
10
7.0950657480314963
20
-2.8740650393700786
11
7.094427125984252
21
-2.8744917716535432
0
LINE
8
BLACK
6
CONTINUOUS
10
7.094427125984252
20
-2.8744917716535432
11
7.0929205118110232
21
-2.8744917716535432
0
LINE
8
BLACK
6
CONTINUOUS
10
7.0929205118110232
20
-2.8744917716535432
11
7.0918551574803148
21
-2.8734264173228348
0
LINE
8
BLACK
6
CONTINUOUS
10
7.0918551574803148
20
-2.8734264173228348
11
7.0918551574803148
21
-2.871919803149606
0
LINE
8
BLACK
6
CONTINUOUS
10
7.0918551574803148
20
-2.871919803149606
11
7.0922818897637789
21
-2.8712811811023622
0
LINE
8
BLACK
6
CONTINUOUS
10
7.0922818897637789
20
-2.8712811811023622
11
7.0941566141732286
21
-2.8694064173228346
0
LINE
8
BLACK
6
CONTINUOUS
10
7.0941566141732286
20
-2.8694064173228346
11
7.0944190551181103
21
-2.8692310236220471
0
LINE
8
BLACK
6
CONTINUOUS
10
7.0944190551181103
20
-2.8692310236220471
11
7.0946682283464568
21
-2.8690376771653541
0
LINE
8
BLACK
6
CONTINUOUS
10
7.0946682283464568
20
-2.8690376771653541
11
7.0984177559055119
21
-2.8671629133858265
0
LINE
8
BLACK
6
CONTINUOUS
10
7.0984177559055119
20
-2.8671629133858265
11
7.0985128346456694
21
-2.8671368503937007
0
LINE
8
BLACK
6
CONTINUOUS
10
7.0985128346456694
20
-2.8671368503937007
11
7.0985448031496059
21
-2.8671049212598425
0
LINE
8
BLACK
6
CONTINUOUS
10
7.0985448031496059
20
-2.8671049212598425
11
7.0988542913385828
21
-2.8670433464566929
0
LINE
8
BLACK
6
CONTINUOUS
10
7.0988542913385828
20
-2.8670433464566929
11
7.0991585433070865
21
-2.8669600393700785
0
LINE
8
BLACK
6
CONTINUOUS
10
7.0991585433070865
20
-2.8669600393700785
11
7.0992013779527561
21
-2.8669742913385825
0
LINE
8
BLACK
6
CONTINUOUS
10
7.0992013779527561
20
-2.8669742913385825
11
7.0992981102362203
21
-2.8669550787401574
0
LINE
8
BLACK
6
CONTINUOUS
10
7.0992981102362203
20
-2.8669550787401574
11
7.108671929133858
21
-2.8669550787401574
0
LINE
8
BLACK
6
CONTINUOUS
10
7.108671929133858
20
-2.8669550787401574
11
7.1087686220472444
21
-2.8669742913385825
  0
ENDSEC
  0
EOF
