// Number 3D OBJECTS:
// ^^^^^^^^^^^^^^^^^^
5

// Obj3D_ID, MediaCode (0=Iso3D,1=LossyIso3D,2=PEC,3=Aniso3D,4=LossyAniso3D,5=SurfaceImp)
// ^^^^^^^^^^^^^^^^^^^^^^^^^^^^^^^^^^^^^^^^^^^^^^^^^^^^^^^^^^^^^^^^^^^^^^^^^^^^^^^^^^^^^^
0 0
>> Material name:
Vacuum

1 1
>> Material name:
Rogers RO4350B (lossy)

2 0
>> Material name:
air_0

3 5
>> Material name:
pcb(PCB1)/Copper

4 5
>> Material name:
pcb(PCB1)/Copper

// Number 2D OBJECTS:
// ^^^^^^^^^^^^^^^^^^
129

// Obj2D_ID, BCCode (0=Reg,1=PEC,2=PMC,3=RHO,4=OHM,5=PORT,6=OPEN,7=EXPANDEDOPEN,8=PERIODIC,9=TANGENTIAL,10=NORMAL):
// ^^^^^^^^^^^^^^^^^^^^^^^^^^^^^^^^^^^^^^^^^^^^^^^^^^^^^^^^^^^^^^^^^^^^^^^^^^^^^^^^^^^^^^^^^^^^^^^^^^^^^^^^^^^^^^^^
0 0

1 5
1

2 5
2

3 5
3

4 0

5 0

6 0

7 0

8 0

9 0

10 0

11 0

12 0

13 0

14 0

15 0

16 0

17 0

18 0

19 3
pcb(PCB1)/Copper

20 3
pcb(PCB1)/Copper

21 3
pcb(PCB1)/Copper

22 3
pcb(PCB1)/Copper

23 3
pcb(PCB1)/Copper

24 0

25 3
pcb(PCB1)/Copper

26 3
pcb(PCB1)/Copper

27 3
pcb(PCB1)/Copper

28 0

29 3
pcb(PCB1)/Copper

30 0

31 3
pcb(PCB1)/Copper

32 3
pcb(PCB1)/Copper

33 3
pcb(PCB1)/Copper

34 3
pcb(PCB1)/Copper

35 3
pcb(PCB1)/Copper

36 3
pcb(PCB1)/Copper

37 3
pcb(PCB1)/Copper

38 3
pcb(PCB1)/Copper

39 3
pcb(PCB1)/Copper

40 3
pcb(PCB1)/Copper

41 3
pcb(PCB1)/Copper

42 3
pcb(PCB1)/Copper

43 3
pcb(PCB1)/Copper

44 3
pcb(PCB1)/Copper

45 3
pcb(PCB1)/Copper

46 3
pcb(PCB1)/Copper

47 3
pcb(PCB1)/Copper

48 3
pcb(PCB1)/Copper

49 3
pcb(PCB1)/Copper

50 3
pcb(PCB1)/Copper

51 3
pcb(PCB1)/Copper

52 3
pcb(PCB1)/Copper

53 3
pcb(PCB1)/Copper

54 3
pcb(PCB1)/Copper

55 3
pcb(PCB1)/Copper

56 3
pcb(PCB1)/Copper

57 3
pcb(PCB1)/Copper

58 3
pcb(PCB1)/Copper

59 3
pcb(PCB1)/Copper

60 3
pcb(PCB1)/Copper

61 3
pcb(PCB1)/Copper

62 3
pcb(PCB1)/Copper

63 3
pcb(PCB1)/Copper

64 3
pcb(PCB1)/Copper

65 3
pcb(PCB1)/Copper

66 3
pcb(PCB1)/Copper

67 3
pcb(PCB1)/Copper

68 3
pcb(PCB1)/Copper

69 3
pcb(PCB1)/Copper

70 3
pcb(PCB1)/Copper

71 3
pcb(PCB1)/Copper

72 3
pcb(PCB1)/Copper

73 3
pcb(PCB1)/Copper

74 3
pcb(PCB1)/Copper

75 3
pcb(PCB1)/Copper

76 3
pcb(PCB1)/Copper

77 3
pcb(PCB1)/Copper

78 3
pcb(PCB1)/Copper

79 3
pcb(PCB1)/Copper

80 3
pcb(PCB1)/Copper

81 3
pcb(PCB1)/Copper

82 3
pcb(PCB1)/Copper

83 3
pcb(PCB1)/Copper

84 3
pcb(PCB1)/Copper

85 3
pcb(PCB1)/Copper

86 3
pcb(PCB1)/Copper

87 3
pcb(PCB1)/Copper

88 3
pcb(PCB1)/Copper

89 3
pcb(PCB1)/Copper

90 3
pcb(PCB1)/Copper

91 3
pcb(PCB1)/Copper

92 3
pcb(PCB1)/Copper

93 3
pcb(PCB1)/Copper

94 3
pcb(PCB1)/Copper

95 3
pcb(PCB1)/Copper

96 3
pcb(PCB1)/Copper

97 3
pcb(PCB1)/Copper

98 3
pcb(PCB1)/Copper

99 3
pcb(PCB1)/Copper

100 3
pcb(PCB1)/Copper

101 3
pcb(PCB1)/Copper

102 3
pcb(PCB1)/Copper

103 3
pcb(PCB1)/Copper

104 3
pcb(PCB1)/Copper

105 3
pcb(PCB1)/Copper

106 3
pcb(PCB1)/Copper

107 3
pcb(PCB1)/Copper

108 3
pcb(PCB1)/Copper

109 3
pcb(PCB1)/Copper

110 3
pcb(PCB1)/Copper

111 0

112 0

113 0

114 0

115 3
pcb(PCB1)/Copper

116 0

117 3
pcb(PCB1)/Copper

118 0

119 0

120 1

121 1

122 1

123 1

124 1

125 7

126 7

127 7

128 1

// Number 1D OBJECTS:
// ^^^^^^^^^^^^^^^^^^
3

// Obj1D_ID, BCCode (0=Reg,1=PEC,2=PMC,3=PORT,4=Lumped):
// ^^^^^^^^^^^^^^^^^^^^^^^^^^^^^^^^^^^^^^^^^^^^^^^^^^^^^
0 0
1 4
R:R1
2 4
R:R2

