// Number of object-id's
6

// List object-id's with types (0=solid, 1=background, 2=sheet, 3=wire, 4=portwire, 5=portelement, 6=coil, 7=lumpedelement, 8=lumpedwire, 9=current path, 10=voltage path):
pcb(PCB1)/Substrates:03_EDGE_CUTS
0
air_0:brick
1
pcb(PCB1)/Nets/NONE:02_B_CU
0
pcb(PCB1)/Nets/NONE:04_F_CU
0
R:R1
7
R:R2
7

// Number of 0D groups with object-id
0

// 0D Groupd-id, object-id

// Number of 1D groups with object-id
2

// 1D Groupd-id, object-id
1 5
2 6

// Number of 2D groups with object-id
125

// 2D Groupd-id, object-id from, object-id to
4 2 -1 -1 -1 -1 -1
5 2 -1 -1 -1 -1 -1
6 2 1 -1 -1 -1 -1
7 1 -1 -1 -1 -1 -1
8 2 -1 -1 -1 -1 -1
9 2 -1 -1 -1 -1 -1
10 2 -1 -1 -1 -1 -1
11 2 -1 -1 -1 -1 -1
12 2 -1 -1 -1 -1 -1
13 2 1 -1 -1 -1 -1
14 1 -1 -1 -1 -1 -1
15 2 -1 -1 -1 -1 -1
16 2 1 -1 -1 -1 -1
17 1 -1 -1 -1 -1 -1
18 2 -1 -1 -1 -1 -1
19 3 2 -1 -1 -1 -1
20 3 2 -1 -1 -1 -1
21 3 2 -1 -1 -1 -1
22 3 2 -1 -1 -1 -1
23 4 -1 -1 -1 -1 -1
24 2 -1 -1 -1 -1 -1
25 4 2 -1 -1 -1 -1
26 4 2 -1 -1 -1 -1
27 4 -1 -1 -1 -1 -1
28 2 -1 -1 -1 -1 -1
29 4 -1 -1 -1 -1 -1
30 2 -1 -1 -1 -1 -1
31 4 2 -1 -1 -1 -1
32 4 2 -1 -1 -1 -1
33 4 2 -1 -1 -1 -1
34 4 2 -1 -1 -1 -1
35 4 2 -1 -1 -1 -1
36 4 2 -1 -1 -1 -1
37 4 2 -1 -1 -1 -1
38 4 2 -1 -1 -1 -1
39 4 2 -1 -1 -1 -1
40 4 2 -1 -1 -1 -1
41 4 2 -1 -1 -1 -1
42 4 2 -1 -1 -1 -1
43 4 2 -1 -1 -1 -1
44 4 2 -1 -1 -1 -1
45 4 2 -1 -1 -1 -1
46 4 2 -1 -1 -1 -1
47 4 2 -1 -1 -1 -1
48 4 2 -1 -1 -1 -1
49 4 2 -1 -1 -1 -1
50 4 2 -1 -1 -1 -1
51 4 2 -1 -1 -1 -1
52 4 2 -1 -1 -1 -1
53 4 2 -1 -1 -1 -1
54 4 2 -1 -1 -1 -1
55 4 2 -1 -1 -1 -1
56 4 2 -1 -1 -1 -1
57 4 2 -1 -1 -1 -1
58 4 2 -1 -1 -1 -1
59 4 2 -1 -1 -1 -1
60 4 2 -1 -1 -1 -1
61 4 2 -1 -1 -1 -1
62 4 2 -1 -1 -1 -1
63 4 2 -1 -1 -1 -1
64 4 2 -1 -1 -1 -1
65 4 2 -1 -1 -1 -1
66 4 2 -1 -1 -1 -1
67 4 2 -1 -1 -1 -1
68 4 2 -1 -1 -1 -1
69 4 2 -1 -1 -1 -1
70 4 2 -1 -1 -1 -1
71 4 2 -1 -1 -1 -1
72 4 2 -1 -1 -1 -1
73 4 2 -1 -1 -1 -1
74 4 2 -1 -1 -1 -1
75 4 2 -1 -1 -1 -1
76 4 2 -1 -1 -1 -1
77 4 2 -1 -1 -1 -1
78 4 2 -1 -1 -1 -1
79 4 2 -1 -1 -1 -1
80 4 2 -1 -1 -1 -1
81 4 2 -1 -1 -1 -1
82 4 2 -1 -1 -1 -1
83 4 2 -1 -1 -1 -1
84 4 2 -1 -1 -1 -1
85 4 2 -1 -1 -1 -1
86 4 2 -1 -1 -1 -1
87 4 2 -1 -1 -1 -1
88 4 2 -1 -1 -1 -1
89 4 2 -1 -1 -1 -1
90 4 2 -1 -1 -1 -1
91 4 2 -1 -1 -1 -1
92 4 2 -1 -1 -1 -1
93 4 2 -1 -1 -1 -1
94 4 2 -1 -1 -1 -1
95 4 2 -1 -1 -1 -1
96 4 2 -1 -1 -1 -1
97 4 2 -1 -1 -1 -1
98 4 2 -1 -1 -1 -1
99 4 2 -1 -1 -1 -1
100 4 2 -1 -1 -1 -1
101 4 2 -1 -1 -1 -1
102 4 2 -1 -1 -1 -1
103 4 2 -1 -1 -1 -1
104 4 2 -1 -1 -1 -1
105 4 2 -1 -1 -1 -1
106 4 2 -1 -1 -1 -1
107 4 2 -1 -1 -1 -1
108 4 2 -1 -1 -1 -1
109 4 2 -1 -1 -1 -1
110 4 2 -1 -1 -1 -1
111 2 1 -1 -1 -1 -1
112 2 1 -1 -1 -1 -1
113 2 1 -1 -1 -1 -1
114 2 1 -1 -1 -1 -1
115 4 1 -1 -1 -1 -1
116 2 1 -1 -1 -1 -1
117 3 1 -1 -1 -1 -1
118 2 1 -1 -1 -1 -1
119 2 1 -1 -1 -1 -1
120 3 -1 -1 -1 -1 -1
121 1 -1 -1 -1 -1 -1
122 1 -1 -1 -1 -1 -1
123 2 -1 -1 -1 -1 -1
124 2 -1 -1 -1 -1 -1
125 2 -1 -1 -1 -1 -1
126 2 -1 -1 -1 -1 -1
127 2 -1 -1 -1 -1 -1
128 2 -1 -1 -1 -1 -1

// Number of 3D groups with object-id
4

// 3D Groupd-id, object-id
1 1
2 2
3 3
4 4

