refinementinfo

progressstart 0
progressstop 100
progresstext "Mesh refinement"

reftype edgesplit

refine edges
2 7759
2397 5349
6 3729
7 215
8 215
8 1474
9 5350
15 1479
1478 7763
17 1477
23 2828
25 1481
26 2829
2406 3737
233 2407
35 5359
34 5360
242 3740
247 5363
256 3743
258 7770
36 7771
12 7772
43 5377
315 7777
315 316
316 317
319 7778
43 3757
322 5380
48 5380
322 3758
325 326
47 5382
330 3764
2423 3764
56 3765
62 2848
63 5425
2430 5425
344 5426
346 2854
66 67
349 5436
351 352
84 363
83 363
365 7800
87 5457
87 5458
374 375
376 5459
377 5460
94 95
95 96
96 97
100 101
2863 7803
21 3802
112 3810
404 3818
403 3818
5516 7817
404 5516
409 7818
124 5522
2439 3825
2880 3828
2880 3829
422 5529
2882 5530
3830 7823
2444 5541
127 5541
2886 3836
2886 3837
2887 5544
430 3842
131 3842
2893 3843
2893 3844
431 3844
433 5560
432 5560
132 3846
133 3846
437 3848
436 3848
5565 7837
440 3851
143 3851
441 3852
440 3852
442 7839
441 7839
443 5566
444 3853
443 3853
445 5567
446 5568
2894 5569
2894 5570
2449 5571
2895 5571
2450 3857
448 7843
449 7844
448 7844
450 7845
450 3858
452 5574
451 5574
453 3859
452 3859
454 3860
453 3860
125 3861
454 3861
455 5575
456 3863
458 3864
457 3864
459 7849
150 5578
460 3866
155 3866
461 3867
461 5579
463 3868
2451 3868
156 3869
2896 7851
463 7852
156 3873
2898 3873
2898 3874
466 3874
161 7862
2908 7863
162 5615
2455 5615
475 5616
165 7865
481 5625
483 5626
482 5626
484 5627
483 5627
484 5628
495 7870
502 7871
182 183
507 5649
508 5650
507 5650
192 3890
195 196
514 7877
515 3893
515 5659
518 3897
2921 7879
520 3899
1554 2459
71 7888
80 7889
7 1473
18 1477
16 1479
25 1480
24 1482
2410 3905
87 7896
1487 5679
306 5683
255 5686
96 7888
5678 7889
40 7895
1 5688
1 3910
1 5296
9314 2
570 2
2 2815
5691 5
6925 5
5 5336
2471 6
6 638
6 608
6 6717
6 2796
7 2473
7 5692
7 1247
7 1303
7 5693
7 1146
7 2796
9314 8
8 1326
8 1080
8 1065
8 2815
9 7916
9 1364
6015 12
12 5696
12 1556
12 5697
12 7921
12 5699
12 7923
12 1378
14 3921
14 9434
15 2496
15 2500
15 2499
16 2501
16 5702
16 1663
16 5703
16 5704
16 1688
17 5707
17 5706
17 6879
17 1416
17 1669
17 1714
18 2511
18 1714
19 5711
19 2515
19 5320
6929 22
23 1426
23 6913
24 9322
24 9271
24 7949
24 1426
24 1465
25 2526
25 5715
25 7955
25 1460
25 6912
25 5714
25 6880
26 3596
30 9346
34 7975
35 1388
36 1451
39 3945
39 3946
39 1671
39 5732
39 7981
39 5730
39 7982
39 10818
43 5739
5797 43
43 5527
43 5740
43 5741
44 7843
45 1114
45 1104
3951 46
46 3952
47 5577
48 5745
50 5747
50 5748
51 5752
51 5301
3967 54
54 3972
54 3969
54 3970
54 4125
54 4124
3973 56
7406 56
56 5756
56 5755
56 3690
60 5541
8024 61
61 5771
61 8025
61 3691
61 3714
62 8027
62 5772
3990 63
2976 63
63 3991
5776 64
64 4967
64 3679
64 3992
64 4968
64 3993
3994 65
65 8035
65 3997
66 8251
66 8040
66 5324
67 3998
67 8045
67 8251
67 8040
67 8044
74 5779
75 416
75 1122
75 1125
75 1217
80 5783
80 8066
80 8067
80 8069
80 8070
80 5790
80 5791
80 5789
80 8827
5739 83
83 5737
83 5798
83 5302
83 6564
83 4011
8153 84
84 8079
84 3683
85 5801
86 5805
5807 87
87 5809
5648 87
87 8086
87 8087
87 8088
87 8095
87 8094
87 8089
87 8090
87 8092
87 8096
87 10323
87 10675
88 5814
92 5817
93 5819
93 5820
8099 95
95 1715
96 8099
96 8103
96 1398
96 4196
96 8106
96 8102
96 8104
8100 97
3890 97
97 5315
97 7748
97 8107
5823 100
100 4206
100 5337
5823 101
101 8112
101 195
101 8115
101 8116
101 5827
101 4206
101 8118
103 3010
103 4026
103 3013
103 3014
103 4027
7638 104
104 4028
104 7414
104 4030
104 4219
104 4032
104 4029
104 4031
5831 105
5832 105
105 5833
105 5834
105 5835
106 5837
111 8131
111 3703
3011 112
112 4051
112 3842
112 7154
112 2782
112 5879
112 5846
113 5848
5847 113
3846 113
113 4055
113 5849
113 5323
3846 114
114 4057
116 8137
116 4057
5851 117
8140 117
119 5853
120 5855
123 3075
124 8154
5960 125
125 5858
125 8160
5859 126
9741 126
5860 126
126 5861
126 5073
126 10585
126 5862
126 5305
5864 127
127 4070
127 5866
127 5867
5868 128
5869 128
128 5870
5873 130
5874 130
130 6842
130 2565
131 4075
5876 131
131 3054
131 4078
132 7672
7420 132
5880 132
132 5881
3058 132
132 5882
10194 133
133 4087
133 1365
133 4083
135 8176
135 8177
135 4086
136 8185
5887 136
5888 136
136 5890
139 142
139 5898
139 4095
142 5901
142 5902
142 3712
3819 143
143 5522
7675 143
143 5905
4097 143
4099 143
143 5345
144 5908
3079 144
144 147
8196 144
144 4104
146 1016
150 8202
3088 150
150 5913
150 5914
151 4112
151 5916
151 4116
151 5918
151 5301
154 8215
154 9168
154 9766
154 5921
154 4123
154 4125
154 4124
5922 155
5923 155
155 5924
156 5925
4132 156
7080 156
156 2574
157 4134
157 5927
157 5928
157 5342
159 3041
160 4141
160 4142
160 3714
160 3691
161 4144
161 5938
162 4146
5939 162
162 5940
162 4149
5941 163
163 4151
163 4152
163 3715
164 5267
5943 164
7692 164
3093 165
5946 165
165 5947
7693 165
165 5948
169 4164
170 8260
5949 170
170 5950
170 4176
170 5317
172 4177
172 3131
179 4184
180 4065
180 5961
5962 180
4098 181
181 4097
4099 181
181 4187
181 8292
181 5964
182 5900
5971 182
182 5968
182 5969
183 5967
9789 183
183 3136
183 5971
3134 184
660 185
186 660
186 3135
186 999
186 998
186 1096
188 661
188 4802
4192 189
191 5975
191 4201
192 4202
192 5977
192 5978
192 5979
192 7748
3890 193
195 4210
195 1000
195 4206
195 5337
3063 196
4207 196
196 8314
196 4210
196 4209
196 4206
5980 197
5981 197
198 4213
7438 199
199 5984
199 5986
200 5988
5989 200
200 4220
200 5990
201 5993
201 5994
201 9803
202 4231
214 1020
2473 215
215 1488
1489 215
5997 215
5998 215
215 1419
215 1303
215 5999
215 7908
215 7913
215 7907
215 1326
215 1234
215 1454
215 1463
221 8353
221 8348
221 1438
221 1393
222 8351
222 6006
222 8361
222 8354
222 8355
222 8353
222 1373
223 8366
223 8364
223 1432
223 8363
223 8362
223 8365
223 8361
223 1373
224 6015
224 6017
224 8372
224 8370
224 8369
224 8366
227 1666
6024 234
234 6023
234 8381
234 8382
234 6027
234 8383
234 6028
234 6026
6034 235
235 8382
236 6034
236 8389
236 8390
236 8391
237 8390
237 6042
237 8397
237 6041
237 8394
237 8392
238 6044
6043 238
238 6045
238 1174
238 8396
238 8397
239 6044
6049 239
239 8407
239 6051
239 8402
6056 240
240 6059
240 8406
240 8407
240 6060
240 6061
891 245
258 899
4259 260
260 8411
260 8412
260 8414
260 6064
260 6066
260 8416
260 8417
260 10828
260 10818
260 10048
903 309
315 6099
315 6100
315 5743
8445 315
315 4270
315 8446
315 6437
315 4617
315 6444
316 4275
8456 317
317 4620
317 4279
317 8458
317 4275
318 6446
318 9243
318 4280
318 9244
320 6105
320 3860
321 6106
321 4637
321 6208
321 4288
322 6108
322 6107
322 6111
322 6459
322 4642
322 6110
323 3863
323 6113
323 6114
323 8479
323 7603
324 6117
6120 325
325 6119
325 3864
325 8484
325 6467
325 4658
326 6120
326 8488
326 7849
326 8489
326 6122
326 8484
326 3346
326 8490
327 6124
327 6125
6128 328
328 6129
329 6132
329 6134
329 7512
330 6136
4326 331
331 4678
331 4327
333 3874
4330 341
343 4371
344 3214
6174 344
344 4376
348 4289
6177 348
348 6179
348 6547
6180 349
349 4295
5627 349
349 6543
350 6185
6190 351
6191 351
351 6535
351 6536
351 6192
352 6533
352 6535
416 353
353 1125
363 8538
5737 363
363 3683
363 6217
363 6592
363 5798
363 5302
364 4398
364 4399
364 8622
364 4404
364 6221
365 4401
365 4403
365 4400
365 4404
365 4398
366 4407
366 6225
366 8626
366 4401
367 4410
367 4411
367 6227
367 4406
368 6228
368 4414
368 4419
368 4413
369 4420
370 4423
370 4421
6236 373
373 6238
374 6238
8559 375
375 6240
7872 375
375 8562
375 6242
376 5650
376 6629
376 6245
376 6628
377 6626
6251 378
378 4430
378 8572
378 6621
378 6255
4434 382
382 4435
382 4437
383 6273
4467 395
395 4468
395 4469
395 4546
395 4470
395 4471
397 6319
397 6317
398 5560
398 6322
398 6323
398 6324
399 6325
399 8595
400 6328
6352 400
400 8599
401 6331
401 6333
401 6396
401 6400
402 6335
402 3848
7654 403
403 7658
403 6337
403 6338
403 6339
6342 404
8614 404
404 6343
404 6345
404 8616
6218 405
405 3851
406 4503
406 4593
7839 407
407 4505
407 8626
408 8545
408 8629
408 4507
8632 409
409 3853
409 4509
410 8636
5567 410
410 4515
410 4513
410 4514
411 3075
411 8640
411 4516
422 5379
423 3277
423 3278
423 8584
424 6357
4531 424
4532 424
424 6359
6361 425
425 4536
425 6363
425 6362
426 6365
6366 426
6368 427
7096 427
427 4540
428 8669
428 4544
428 4543
6372 429
429 3294
429 6373
429 3296
3810 430
4546 430
430 6375
430 4547
430 6376
3812 431
6378 431
431 6380
8679 432
432 4553
6384 433
433 6385
433 4557
433 4553
434 6388
434 4563
434 6320
435 6393
435 4567
435 6394
435 6395
3816 436
6396 436
436 6398
436 4567
6402 437
437 6403
438 6405
6406 438
438 6408
3820 440
4591 440
4592 440
440 7493
5517 441
4593 441
441 6415
442 6416
4597 442
442 6420
442 6418
442 6419
3821 443
4598 443
4600 443
443 7496
443 6423
4601 444
444 4603
4604 444
8722 445
445 4605
4607 445
445 9857
445 4608
7819 446
4609 446
446 6430
446 4610
446 6432
446 6431
6433 447
447 8728
447 6434
6436 448
448 6437
448 4615
4617 449
449 6442
449 8737
449 6443
449 6444
4621 450
450 4620
450 4622
450 4619
451 6446
451 4626
451 4627
6449 452
452 4630
452 4629
3755 453
4632 453
453 4634
4636 454
454 4637
6558 454
6557 454
454 4638
454 4640
454 4639
5380 455
4642 455
455 4643
455 6453
455 6457
455 6454
455 6456
456 6461
456 6462
456 6463
456 6464
3760 457
457 6117
4658 458
458 6467
458 4660
6468 458
458 6846
6470 459
459 4663
459 6472
3763 460
7512 460
4664 460
461 3762
461 5384
461 6479
461 6130
462 6481
462 6482
8769 462
3402 463
463 6487
463 6488
463 4674
464 4676
464 3405
464 4677
465 4680
465 6491
465 4683
465 6494
466 4686
4687 467
8933 467
469 7550
8794 470
6508 470
470 6510
471 4701
472 6513
472 6514
472 4703
472 8804
473 6515
473 6517
473 6518
473 6519
474 4706
474 5263
474 5264
474 6520
6521 475
6522 475
478 4722
479 4724
479 4725
479 3678
4724 480
480 4726
480 6533
480 4725
480 4727
481 4728
6535 481
481 6536
481 6537
482 4734
482 4737
482 4736
483 5436
10479 483
6544 483
483 6543
484 5435
5434 484
484 6548
6547 484
484 10755
484 6549
488 6558
488 4638
488 6557
6559 488
488 6562
488 6561
488 6564
489 4634
489 4746
490 4629
10446 490
490 6572
490 6201
490 6202
4626 491
492 4619
8737 493
493 6590
8733 494
494 4615
494 4103
494 4753
494 4755
494 4754
495 4759
496 4761
496 6595
496 6597
497 4607
497 4610
497 6598
498 4604
4767 498
498 4768
499 4771
500 6604
500 4774
500 6605
500 4771
500 6606
501 6609
501 6610
502 10209
10210 502
502 4592
6612 502
502 6613
502 6616
8864 503
8865 503
503 8866
503 8868
503 3475
503 8092
503 8872
503 8870
6621 506
506 6622
506 6623
507 5460
507 6625
507 3320
6626 507
507 8567
508 3316
10510 508
508 6629
6628 508
508 4795
508 4796
508 4797
8880 509
509 8562
510 6633
6634 510
6633 511
511 4802
511 6239
4803 512
512 6638
512 4804
6639 513
4806 513
513 4807
514 6643
514 6644
515 3791
7122 515
515 6646
516 4815
516 6649
516 6826
8910 517
10520 517
517 6651
518 3795
518 6652
6653 518
518 4823
518 10303
4826 519
519 4827
519 9012
519 9943
520 4828
520 4829
6660 521
521 6662
521 6664
522 6665
562 1081
563 1081
3633 570
571 2576
590 577
4601 610
4602 610
617 4903
621 648
623 3294
626 1249
630 655
638 2796
638 1152
638 7905
646 1192
648 649
649 1196
654 1190
667 2739
6702 667
670 721
676 701
676 2744
742 692
761 694
694 714
3536 694
700 5092
704 740
4909 705
705 4874
705 2741
2739 705
711 5588
711 4687
712 740
4862 713
713 6446
714 761
4887 717
725 719
719 6751
719 6999
719 7474
721 4893
3533 726
9968 726
8966 729
731 7378
732 6775
4880 732
732 4141
733 10346
733 7517
742 734
9065 736
6756 737
737 9035
738 9779
739 6790
740 4920
9015 741
749 6843
752 6775
6777 752
752 4683
4926 756
6817 758
4896 758
758 6821
758 9935
4946 761
761 3329
10793 762
4948 764
765 6811
765 3347
765 6437
767 6802
9066 768
768 784
771 4950
772 3558
773 2574
774 4543
9149 776
776 787
778 4931
9054 778
791 779
786 779
779 8683
780 10236
782 9061
785 794
6827 786
787 4605
789 800
789 5910
790 797
9149 790
790 4567
799 795
797 9146
797 3313
800 798
799 798
9165 799
800 799
799 1008
3569 800
9161 800
804 9161
9174 804
807 833
848 811
3498 811
811 2716
813 2740
814 4806
814 9693
814 3552
3158 817
818 1036
818 1159
822 1103
7872 823
846 839
2760 840
840 1166
841 1185
842 6776
845 1243
2758 848
899 851
891 854
894 854
891 855
873 903
891 933
6865 903
5373 908
931 929
957 951
967 1023
988 9176
990 5647
1001 2903
1001 3884
1001 3883
1001 3539
1022 5692
1028 1183
1036 1255
1036 2758
1037 1038
1037 1185
1038 1243
1038 1050
1038 1166
1038 1271
1042 1406
1049 1051
1049 4845
1050 1277
1050 1294
1050 2672
1050 7949
1050 7947
1050 7950
1051 1295
1051 1657
1052 1277
1053 1277
1064 1280
1064 1069
1065 1326
1065 2815
1067 5694
1079 1160
1079 1306
1083 4379
1091 8094
1107 1114
1140 1145
1145 6264
1145 1245
1146 2696
1146 1152
1160 1264
1160 1172
1160 3447
1160 5430
1161 5427
1166 1186
1168 1245
1169 2759
1171 1246
1172 1264
1172 1306
1172 2856
1176 1263
1179 1246
1182 1246
1183 1196
1185 1271
1185 2588
1186 1270
1186 4970
1190 1245
1191 1252
1208 1277
1208 1293
1219 1678
1221 1678
1231 5693
1232 5692
1233 2472
1234 2796
1234 2473
1234 2472
1241 1478
1241 5704
1243 7945
1247 7908
1250 5704
1250 1678
1256 1265
1257 1264
1268 1326
1268 1303
1292 1326
1294 6880
1295 4845
1309 9284
1326 1352
1355 5716
1358 7352
1358 6526
1361 7888
1376 1478
1388 1477
1391 1474
1391 1475
1391 2636
1393 2398
1402 1481
1402 7959
1406 5704
1406 1479
1406 7763
1411 2408
1420 2408
1426 1482
1429 1478
1441 1480
1441 1481
1456 1480
1473 2471
2473 1473
1473 7910
1473 7909
5679 1474
1474 5998
1474 2806
1474 2799
1476 2478
1476 1691
6914 1477
1477 6879
1477 9303
1478 2501
2503 1478
1478 1494
2492 1478
1478 1493
1478 5704
1478 2523
1478 1678
1479 2501
1479 2492
1479 1688
1500 1480
1480 1499
6915 1480
1480 9313
1481 1666
1482 9322
1482 7948
1647 9443
1650 2494
1657 2774
1663 7929
1663 1678
1663 2499
1666 2725
1667 9430
1668 7771
1669 2503
1678 2501
1678 9278
1678 5704
1678 7763
1678 7929
1682 7948
1684 2503
1696 3447
1696 3117
1705 7533
1714 5708
1714 2757
7056 2399
2399 6926
2408 2617
2408 4851
7440 2408
2408 9483
2423 7540
2423 6943
2423 6944
6962 2430
3990 2430
2430 6963
2430 4969
2430 6966
2430 6967
2430 6968
2431 5024
2437 5039
5040 2437
2437 5041
2437 5042
7542 2440
2440 6938
7003 2441
7002 2441
7004 2441
2441 7005
2441 5054
7007 2442
2442 7008
2442 6724
2443 7009
2443 7010
2443 5057
2444 7014
2444 6738
5064 2445
9391 2445
2445 7016
2446 5068
2446 7017
7018 2447
2447 7021
2447 7022
2448 7025
7024 2448
2449 7027
2449 7028
2449 6921
2449 3654
3825 2450
5079 2450
5078 2450
9416 2451
2451 7030
2451 5083
2451 7562
2451 5084
2453 7033
2453 7034
2453 5090
2453 7035
2453 7037
2453 7036
7038 2454
7039 2454
2454 9420
2454 7040
2454 6732
5094 2455
7044 2455
2455 7042
7043 2455
2455 7045
7048 2456
9429 2457
5100 2457
5290 2457
2457 3600
2457 6700
2457 6975
2458 7050
2458 7051
2458 5103
5104 2458
2458 7052
2458 5032
2483 7056
2522 2491
2492 7763
2499 2729
2518 2504
2514 2515
2515 3901
2516 3900
2516 2924
2531 2539
8166 2556
2560 6842
2574 3869
2899 2576
2576 5585
2579 5586
2584 5586
2584 4142
7098 2605
6750 2605
6926 2605
2617 4849
2617 4851
2670 3277
7116 2672
2674 5543
2674 3835
2680 2889
3838 2680
2680 7554
2698 7842
3403 2699
3403 2706
2716 5103
2740 3525
2741 6702
3539 2746
2760 2754
2793 5254
3836 2830
2836 5186
3873 2838
5544 2845
2848 8029
2848 7148
2848 7204
2848 5772
7214 2851
2851 4967
2851 4968
2852 4970
2853 2971
2860 7228
2860 5175
2863 4988
2863 6923
2863 7239
2863 7238
5530 2868
2877 5221
5220 2877
2877 3844
2877 5222
5571 2879
2880 5106
7545 2880
2880 7143
2880 7144
2880 9615
7289 2881
7288 2881
2881 7291
5156 2882
3637 2882
2882 9493
10632 2883
2883 6723
7295 2884
7296 2884
2884 9440
2885 9628
2885 7297
3784 2886
2886 7298
2886 9570
2887 7300
2887 7302
2887 7301
2887 7303
2887 10532
2887 7304
2888 7305
7093 2888
2888 7306
2889 5160
9510 2889
2890 4908
7069 2891
2891 6841
2891 9123
2891 9124
5246 2892
2892 5247
2892 5248
2892 3296
3811 2893
2893 7073
2893 7074
2893 7124
5519 2894
7318 2895
2895 7319
2895 3654
7132 2896
2896 5167
2897 9073
2897 6807
2898 5251
2899 4915
2900 7323
2900 6709
5253 2901
2901 7329
2901 7331
2901 7104
2902 5137
5254 2902
2902 7335
2902 6731
5255 2903
7476 2903
2903 5256
2903 4979
5138 2904
2904 4912
5257 2905
2905 4882
2906 5133
5135 2906
2906 7087
2906 7341
2907 7078
2907 5259
7344 2908
2908 7346
2908 7345
2908 7086
5262 2909
2909 5263
2909 5264
2909 7347
2910 7349
2910 7350
2910 6792
2914 4723
7362 2915
2915 7363
2915 5277
3305 2916
2916 7364
5279 2916
2916 5278
2916 9153
2916 6852
7365 2917
2917 7367
7070 2918
2918 7071
7369 2918
2918 4940
2919 7370
2919 5284
2919 6798
2919 9058
2920 5140
2920 7373
4222 2921
2921 5990
2921 7376
7094 2922
2922 7065
2922 7377
2922 4911
2922 9709
2923 9527
2924 5112
7391 2924
7571 2924
2925 7384
5291 2925
2925 7386
2946 7103
3011 3810
3047 9838
3048 5243
3050 4903
3050 7831
3054 5562
3058 3845
3075 7819
5628 3083
3084 9222
7862 3112
5263 3118
5647 3134
3144 5648
3145 5648
3169 3898
3169 5668
3169 4889
3169 5667
3214 5426
3220 5468
3252 3277
3277 8651
5539 3277
3277 3833
5556 3294
3294 3555
3296 5556
3296 4922
7877 3305
3311 5651
3316 5650
5649 3320
3329 6413
3331 6413
3346 5382
3347 4617
3348 7843
3349 7843
3351 7845
3352 6442
3361 8746
7849 3389
7852 3402
3402 7782
3403 7851
3403 7781
3405 3870
3411 3874
3411 6666
3411 9893
3411 3413
3411 6829
3413 8781
5255 3422
5271 3442
3446 9265
3448 9795
3453 5633
3473 5648
3474 8866
3475 5647
8892 3476
4806 3477
3477 5279
3484 7878
3486 5662
5290 3499
3530 6705
3531 7826
3534 7055
3540 6776
3550 3575
3551 7561
3552 4899
3563 3552
3556 5573
3556 3856
3556 5572
3557 5262
3558 5272
3558 7359
3558 7561
3560 3563
3561 5269
3561 5271
3561 7356
3561 6527
3561 7354
9112 3563
3563 4553
3564 3869
3565 5939
3582 7827
3583 5065
3600 7883
3600 3900
3605 5475
3637 5531
5558 3653
3654 5571
3668 3836
3679 5422
3683 7869
3690 3869
3690 3765
3691 5415
3699 9434
3699 3921
3708 3819
3714 5601
3717 5541
3720 5615
3738 6026
3738 7593
3738 6028
3739 6061
7440 3740
3745 7136
3745 8414
3745 10048
3745 9725
3754 10049
8456 3754
3754 9244
3754 4280
3754 4279
3754 6200
3755 10051
3755 10052
3755 4633
6105 3756
3756 4287
3756 4288
3757 5797
6106 3757
3757 7588
3757 4637
3757 9726
6108 3758
3758 7598
3758 10061
3758 7680
3758 7601
3758 6111
3758 6114
3758 6465
7602 3759
3759 7603
3760 7605
3760 4658
3762 7608
3762 7609
3762 7610
3762 7512
3762 6134
3762 7513
3763 6132
7611 3763
3764 6136
3764 7129
7406 3765
3765 7567
3765 7540
3765 5755
3765 7407
3765 7612
3766 7411
3766 7155
3766 4127
3766 9884
3787 3994
3787 5324
3787 7693
3787 7691
7636 3788
3788 7695
3788 5820
3788 7696
3788 7637
3788 6621
3788 6884
3791 4435
3791 7415
3791 4437
3792 7228
7638 3792
3792 5175
3792 4030
3792 5176
3792 7414
3793 7456
3794 4027
3794 4817
3810 4467
3810 4471
3810 4546
3810 7154
3810 9544
5220 3811
10121 3811
3811 9546
3812 5221
3812 5222
3813 4055
3813 6382
3814 5847
3814 10125
10126 3814
3814 5849
3814 10127
3814 9541
5855 3815
3815 5340
3816 6334
3816 10130
3816 4571
3817 7653
3817 7655
3817 6339
3817 10134
3818 8700
3818 6343
3818 7658
3818 10206
3819 10144
3820 6218
3820 4503
3820 4500
3821 8632
3821 4507
3821 4509
10150 3822
3822 4515
3822 4514
3826 7543
3826 6753
3827 7542
3827 7557
3827 5052
3910 3828
5106 3828
3828 5296
3828 7144
3828 9545
3829 7003
3829 7545
3829 7662
3829 7145
3829 9615
3830 7663
3830 7590
7390 3830
3922 3830
3831 7665
10710 3832
3832 7667
3832 7112
5157 3833
7668 3834
7477 3835
3835 7116
7396 3836
6929 3836
3836 9570
3836 5330
3836 7146
3836 7394
3837 5068
3837 9995
3837 7582
6368 3838
3838 4540
3838 9508
7096 3839
3839 4540
3839 7670
3839 10182
3839 7021
3840 9083
3841 7558
4075 3842
4546 3842
4547 3842
3842 7090
3842 4078
3842 6835
3842 8173
3842 7154
3842 9540
3843 9462
3843 7073
3844 6380
3845 7420
6382 3845
3845 8679
3845 10026
7672 3846
3846 10194
3846 7422
3846 7424
3846 4083
5898 3847
3847 6393
6694 3847
3847 4095
4571 3848
3848 7485
3848 7486
3849 4582
10206 3850
3850 6681
4587 3850
3850 7489
3850 7490
3850 7491
4591 3851
4099 3851
3852 7492
3852 7493
3852 7495
3853 4598
3853 6684
3853 7676
3853 7496
3854 4605
4609 3854
4607 3854
3854 4610
3854 4608
3854 4517
3855 6925
3855 7319
7388 3855
3855 5336
3855 5314
3856 4096
5078 3857
7126 3857
10218 3857
3857 7498
3858 7499
3859 4633
4630 3859
3859 4634
3859 6450
3859 10224
3860 4632
4636 3860
3860 6565
3860 4639
3861 5856
3861 6557
3861 5858
3861 7678
7679 3862
3862 4643
3862 7505
3862 7507
10448 3863
4655 3863
3863 7506
3863 4648
3863 6464
3863 7508
4658 3864
3864 4660
3864 6846
3865 9168
3865 9766
3865 9167
3865 4124
3865 10071
3865 4119
3866 7681
3867 7512
3867 4665
3868 7131
3868 7682
3868 5083
3868 4674
7080 3869
3869 7562
3869 6844
4127 3870
7088 3870
3870 4128
4134 3871
3871 5928
3872 7683
3872 6832
7079 3873
3873 9770
3874 5130
4686 3874
3874 9889
3874 10252
3879 8972
7478 3880
3880 5090
3880 7688
3880 6708
3881 7574
10592 3881
3882 6930
3882 7061
3882 7103
3882 7397
7038 3883
7586 3883
3883 7039
7476 3883
3883 7689
3883 4979
3884 5255
3884 7550
3885 6512
3885 7521
3885 4701
3885 4702
3885 7523
9886 3886
3887 5943
7691 3887
3887 7692
3887 7693
3887 7564
10275 3888
3888 10276
7433 3888
3888 7694
3888 7435
3888 7412
3889 7426
3889 7695
6621 3889
3889 7696
3889 6623
3889 7697
3889 6875
7425 3890
3890 7434
3890 10285
3890 7700
3890 5979
3890 7699
3890 7748
3892 7533
3892 7701
3892 4804
3893 7122
7071 3893
7070 3894
3894 7438
7369 3894
3894 7439
3894 4940
3894 9802
3895 4815
3895 6826
7702 3896
3896 7534
3897 4818
4823 3897
3897 8914
3899 4828
3899 7706
5112 3900
3900 7572
5711 3901
3901 7391
3901 7571
3901 5320
7110 3902
3902 7134
5103 3902
3902 7135
3902 7137
9806 3903
10371 3903
3903 7142
7823 3922
3959 7779
5425 3990
3991 5425
4009 8066
4012 5449
5457 4013
4027 5469
5511 4051
4070 5604
4072 7831
4078 9112
7833 4086
4093 7833
4094 7837
4096 5572
4098 7869
5646 4099
4100 5572
4103 7843
5639 4103
7846 4108
4119 7850
4123 5580
4125 5580
4125 5383
5581 4127
4128 5581
5585 4135
5586 4137
5601 4141
4141 6776
4141 10539
4142 5605
4142 5601
4142 6776
7863 4143
4144 7863
4149 5607
4151 5612
4151 4918
4151 9044
4155 5618
4158 7865
4161 7865
4164 7866
7867 4166
4187 5646
4196 7873
4196 7888
4221 7879
4222 5666
4230 7885
4231 5668
4271 7777
4275 7845
5435 4289
4321 5430
4324 7782
7781 4326
4327 7781
4342 4687
4343 4687
4370 5421
4371 5424
4376 5426
4398 7800
4401 5450
4404 7800
4406 5451
4407 5451
4410 5452
4411 5452
4413 5452
4414 5452
4419 5453
4420 5454
4421 5454
4421 7819
4423 5454
4434 5468
4468 5509
4470 5509
4488 5514
4498 5516
4505 8715
4505 5518
4510 7818
4513 7818
4513 5453
4524 9013
5543 4531
4536 5542
4540 8666
4540 6747
4543 5552
4544 5555
4553 5560
6386 4556
4556 5561
4556 5512
4557 5561
4563 5561
4567 5563
4567 8696
4567 9149
4573 7487
4573 4582
4579 6680
7836 4579
4580 7834
4580 6407
4582 7834
4585 7838
7835 4587
4589 7838
4596 5645
4596 7839
6683 4598
4598 4939
7840 4602
4607 5642
5641 4610
5568 4611
5638 4615
4616 7844
4617 7844
4617 8731
4619 7845
4619 5637
7845 4621
4621 8742
4627 5574
4630 5634
4641 7848
4642 5575
4642 5380
4643 7848
4644 7847
4650 7847
4676 7851
4677 7851
4679 5582
5582 4680
4683 5582
4683 6786
4687 8999
4701 5602
4702 5602
4703 5609
4706 5614
4719 7359
4719 9265
4723 6787
4726 7868
4727 7868
7868 4728
4736 5626
4737 5625
4751 7844
4753 5639
4754 5639
4755 5638
4759 7870
5643 4767
4767 4943
4772 7496
4786 5649
4795 5651
4796 5651
4800 7872
7876 4803
4804 5653
5655 4806
4806 4899
4807 5656
4817 5470
4818 7878
4821 7878
4826 5667
4827 7880
4829 5670
4833 7884
4852 7882
4872 4866
4871 4870
6742 4872
4872 7015
4872 6738
4873 6657
6719 4876
4877 6721
4882 7861
4886 7305
4888 4893
4888 6368
9007 4889
7553 4893
4899 4905
4903 5126
4904 6372
4905 6759
4906 4944
4911 5669
4912 5601
4915 5585
4915 5586
4931 4919
4922 6373
4926 9082
4936 6811
4950 7876
4951 6531
4956 7311
7876 4959
4967 5422
4968 5422
4970 5424
4988 7803
5468 5024
5032 5674
5509 5039
5040 5508
5041 5508
5042 5509
5054 7056
5537 5057
5062 7825
5063 7826
7827 5064
7826 5066
5073 5549
5073 7830
5573 5079
5090 5593
5094 5615
5100 5672
5673 5103
5104 5674
7862 5133
5134 5586
5605 5135
5598 5137
5137 6731
5601 5138
5139 7863
5140 5664
5530 5156
7824 5157
5548 5160
5167 7851
5170 7824
5185 7782
5186 7781
5229 5533
5231 5534
5241 7828
5246 7832
5556 5247
5248 7832
5253 5596
5599 5254
5254 6728
5257 7861
5259 5607
5612 5262
5263 5611
9205 5263
5264 5611
5277 5655
5278 7877
5656 5279
5662 5284
5672 5290
9711 5290
5290 7882
5675 5291
5302 7870
5305 5533
5313 5654
5316 7866
5319 5640
5325 5597
5326 7858
5334 5660
5350 5695
9482 5359
5380 6107
10310 5380
5380 9761
5380 5745
5380 6110
5380 10657
5380 10373
5381 6116
5381 6117
5381 7510
5382 6122
9728 5383
5383 6125
5383 6484
6128 5384
5385 7411
5385 7155
5415 8024
5415 5771
5415 9736
7214 5421
5776 5422
5423 6174
6171 5424
5426 6962
5434 5954
5434 5779
5434 6550
5434 6179
5435 6547
5435 10664
6185 5436
5436 10482
5436 10667
5436 9251
6191 5437
5437 6192
5437 9250
5450 6225
5451 8628
5451 10386
5453 6228
5454 6231
5454 8640
5457 10764
5457 5805
5457 8870
5458 5807
5458 10677
5458 8096
5458 5814
5459 6240
5459 10679
5459 6629
5459 10511
5460 6628
5460 6245
5461 10391
5461 10684
5470 6273
5475 5994
5475 6923
5475 5837
5475 7239
5475 9738
9818 5508
5510 10121
5511 6390
5511 5846
5512 6319
5512 6324
5512 6320
5512 9255
5513 10405
5513 6322
5513 6323
5514 8599
5514 6331
5514 6395
5514 6400
6335 5515
5515 7653
5515 7655
5515 6401
8614 5516
6340 5516
5516 8703
5516 6410
5516 5853
5516 9248
5518 10674
5518 10386
5524 6753
5525 7543
7542 5526
5526 7557
5526 6938
7002 5528
5528 7004
7288 5528
5528 7005
5528 7291
5528 10004
5528 6941
5529 7289
5529 7170
5531 6724
7007 5532
5532 6723
5532 10006
5533 5859
5533 9742
5861 5533
5533 9743
5533 7153
5534 7295
7663 5534
5535 7296
7665 5535
5536 7009
5536 7664
7010 5536
7009 5537
5537 7112
5538 10710
5538 7297
5538 7114
5538 7667
5539 8584
5541 5864
5541 5866
5541 6738
5542 6361
7668 5542
5542 6363
6357 5543
7477 5543
7116 5543
5543 6359
5544 7301
5545 6362
5545 7302
5545 7303
5546 7305
5546 6365
5546 7093
5546 10542
5547 5869
5547 9032
6366 5548
9741 5549
5549 5860
5549 7018
5552 6841
5553 5873
5553 7069
5553 6842
5553 9124
5553 9123
5553 7068
6372 5554
7481 5554
5554 6373
5554 9083
5555 7481
5555 10423
6378 5557
7024 5557
6375 5558
5559 5874
5559 9462
5560 6322
5561 6386
5561 6388
5561 6320
5562 5879
5563 6395
5563 6400
5564 6401
5564 6403
5565 5897
5565 10340
5566 6424
5566 6420
5566 9846
5567 6427
8725 5568
5568 6432
5569 6433
5569 10724
5569 9488
5569 10533
5569 10723
5570 6921
5571 7027
7318 5571
5573 6998
9761 5575
5575 6457
6470 5577
5577 6472
5578 5916
5578 5913
5578 10734
5579 6474
6480 5579
5579 6123
5580 6482
8769 5580
5580 9780
5580 5921
5580 6484
5581 5922
5581 7088
6491 5582
5582 6807
5582 9072
7683 5583
5583 6832
5585 6809
5585 6808
5585 6777
5586 6920
5588 6745
5592 7323
5592 6709
5592 8972
5593 7035
5593 7688
5594 10592
5594 7033
5594 9962
5595 7574
5595 7332
5596 7329
5596 7103
5596 7104
6930 5597
5597 7061
9772 5598
5599 6731
5599 6732
5599 7335
5600 6510
5602 6512
5603 6508
5603 7523
5865 5604
10607 5604
5934 5605
5607 7078
5607 5940
6517 5608
6513 5609
9886 5609
6515 5610
5610 6518
5610 7345
5611 7347
5941 5612
6522 5613
5613 6792
5613 9050
5614 7350
5939 5615
5615 7042
10472 5616
7043 5616
5616 9910
5625 10477
8819 5627
5953 5628
5628 6548
10485 5628
5628 6549
5628 5954
5960 5632
5632 6557
5632 5962
5632 6562
5632 6561
5632 6564
5632 7749
6558 5633
5633 6565
5633 6559
5633 7532
5634 6571
5634 6201
5634 6205
5635 6202
8736 5637
5637 6590
8732 5638
8196 5639
5902 5640
5640 5900
5640 6595
5640 6597
8725 5641
6598 5641
8720 5644
5645 6610
10209 5646
5646 6612
5646 5964
5646 6613
5647 8864
8865 5647
9915 5647
5647 8868
5648 5967
5648 8866
9789 5648
5648 8870
5649 10506
5649 10683
6628 5650
7362 5655
6639 5656
5656 7364
5657 5980
7365 5657
5658 7366
7367 5658
5658 6643
6646 5659
5659 7048
5659 7047
8322 5660
5661 7702
5661 6649
5661 7534
5662 10520
5662 6650
5662 9058
5663 6798
5665 6653
5665 9938
5665 7372
5665 7373
5666 5994
5666 7376
5666 9803
5667 7095
5667 9012
5667 9943
5667 9011
5668 6749
5669 7065
5993 5669
5669 7377
5670 9708
6660 5671
5671 6659
5671 9947
5672 6700
5672 10530
7050 5673
7110 5673
5673 7135
5674 7051
7384 5674
5674 7052
5674 10599
5674 7386
5675 6662
5675 6664
5675 9526
5677 7142
5678 10320
5678 10319
5678 5788
5678 10777
5678 7436
5678 10321
5704 7929
5745 7846
7779 5747
5750 7779
5752 7779
5784 7889
5788 7707
5788 8067
5788 7708
5788 9792
5791 8067
5812 7896
7803 5831
5833 7803
5835 7803
5853 7817
5866 6729
5869 7829
5870 7829
5884 7833
5892 7833
7862 5935
5946 7865
5952 7867
5976 7873
5989 7879
5990 7879
6203 7778
6258 7876
6258 9693
6299 7305
6343 7835
6692 6368
6373 9837
6405 7834
6408 7834
6419 7839
6434 7842
7843 6436
6442 7845
6442 8938
6442 9077
6443 7844
6454 7848
6463 7847
6465 7847
6468 7849
6471 7849
6488 7852
6524 6793
6528 6837
6532 9202
6533 7868
7868 6535
6549 9161
6616 7871
6644 7877
6645 7877
6681 7835
9385 6693
6708 7857
6719 7007
6732 7859
6738 7825
6749 9008
6752 6761
9035 6756
6768 9026
6787 9046
6787 6788
6813 7483
6852 7877
6865 7909
6882 8094
6892 8892
6896 9504
6913 7946
7765 6915
6921 7841
7018 7830
7028 7841
7040 7859
7087 7862
7110 7884
7842 7126
7851 7132
7884 7134
7142 9477
7165 7896
7238 7803
7346 7863
9201 7361
7363 7876
7381 7882
7435 7867
7827 7477
7857 7478
7489 7836
7490 7835
7505 7848
7507 7847
7550 7860
7590 7823
7847 7679
7694 7867
7699 7873
7733 7873
7755 7833
9324 7765
7765 7950
7991 7777
7816 8137
7816 8140
8139 7816
7816 9298
7816 8142
7816 9310
7819 8640
7823 9434
9628 7824
7824 9496
9391 7826
7829 9032
8176 7833
7833 8182
10206 7836
7836 10138
7837 10340
7838 10437
8728 7842
7844 8737
7845 8736
7845 9079
7849 8490
9420 7859
7865 8248
7865 8251
7866 10275
7866 10276
7867 8260
7871 10210
7872 8562
7872 8556
7873 8306
7877 9153
7882 9527
7882 10530
7883 9429
10371 7886
7889 8067
7889 8070
7889 8066
7896 8091
7896 8094
7896 8095
7896 8090
8066 8067
8066 8070
8066 10776
8067 8070
8090 8094
8090 8095
8093 8095
8094 8095
8095 10785
8095 9548
8095 8870
8095 9797
8781 9893
8865 9795
8999 9001
9045 9779
9046 9984
9477 10307
9487 9516
9855 9857
ratios
0.2
0.8
0.21
0.5
0.58
0.8
0.5
0.26
0.68
0.76
0.2
0.78
0.2
0.51
0.8
0.5
0.5
0.49
0.5
0.51
0.5
0.5
0.5
0.18
0.5700000000000001
0.45
0.3
0.54
0.5
0.54
0.22
0.39
0.49
0.23
0.5
0.5
0.5
0.45
0.5
0.5
0.5
0.62
0.59
0.36
0.64
0.38
0.43
0.67
0.2
0.2
0.67
0.6
0.53
0.85
0.66
0.47
0.42
0.51
0.3
0.36
0.62
0.71
0.76
0.5600000000000001
0.39
0.19
0.43
0.43
0.43
0.44
0.64
0.46
0.62
0.63
0.45
0.45
0.74
0.59
0.43
0.54
0.51
0.51
0.58
0.63
0.5
0.49
0.55
0.5600000000000001
0.58
0.49
0.45
0.45
0.45
0.5700000000000001
0.51
0.43
0.46
0.49
0.67
0.43
0.33
0.36
0.61
0.54
0.51
0.37
0.45
0.42
0.41
0.46
0.5
0.51
0.34
0.46
0.5600000000000001
0.41
0.55
0.53
0.6900000000000001
0.45
0.53
0.52
0.54
0.51
0.5600000000000001
0.65
0.43
0.45
0.5
0.5
0.5
0.5600000000000001
0.58
0.62
0.53
0.59
0.62
0.41
0.6900000000000001
0.5
0.5
0.5
0.52
0.52
0.44
0.5700000000000001
0.5
0.5700000000000001
0.24
0.58
0.58
0.71
0.34
0.43
0.45
0.51
0.32
0.37
0.37
0.32
0.44
0.46
0.43
0.8
0.65
0.77
0.8
0.33
0.71
0.51
0.8
0.49
0.8
0.8
0.5
0.5
0.77
0.61
0.5
0.16
0.19
0.18
0.64
0.8
0.2
0.79
0.8
0.23
0.65
0.2
0.2
0.2
0.33
0.65
0.2
0.2
0.21
0.2
0.2
0.67
0.2
0.2
0.2
0.2
0.64
0.2
0.2
0.78
0.19
0.19
0.22
0.2
0.21
0.21
0.1
0.2
0.22
0.2
0.2
0.2
0.5600000000000001
0.2
0.2
0.2
0.24
0.2
0.24
0.2
0.2
0.2
0.2
0.58
0.2
0.2
0.21
0.2
0.22
0.78
0.2
0.2
0.67
0.2
0.2
0.2
0.2
0.5700000000000001
0.2
0.2
0.2
0.26
0.2
0.42
0.2
0.2
0.21
0.19
0.2
0.2
0.23
0.18
0.18
0.21
0.21
0.23
0.15
0.22
0.8
0.18
0.18
0.22
0.33
0.2
0.2
0.8
0.2
0.29
0.2
0.2
0.22
0.18
0.21
0.85
0.2
0.15
0.18
0.23
0.19
0.84
0.8300000000000001
0.2
0.21
0.21
0.73
0.78
0.15
0.2
0.18
0.17
0.21
0.21
0.78
0.86
0.23
0.79
0.16
0.2
0.17
0.17
0.17
0.8300000000000001
0.2
0.17
0.23
0.21
0.15
0.15
0.22
0.2
0.19
0.18
0.18
0.19
0.16
0.17
0.15
0.2
0.34
0.7000000000000001
0.2
0.49
0.2
0.2
0.2
0.2
0.77
0.21
0.23
0.21
0.21
0.16
0.8100000000000001
0.21
0.19
0.22
0.18
0.8
0.2
0.8
0.2
0.2
0.2
0.8
0.5700000000000001
0.2
0.66
0.66
0.2
0.2
0.2
0.22
0.21
0.22
0.22
0.8300000000000001
0.23
0.17
0.18
0.17
0.2
0.2
0.19
0.18
0.79
0.43
0.22
0.19
0.17
0.8200000000000001
0.23
0.21
0.8200000000000001
0.23
0.66
0.21
0.18
0.2
0.23
0.22
0.12
0.12
0.12
0.1
0.23
0.79
0.12
0.16
0.21
0.18
0.19
0.13
0.19
0.8200000000000001
0.84
0.2
0.17
0.21
0.23
0.23
0.19
0.8
0.21
0.5700000000000001
0.22
0.17
0.23
0.23
0.21
0.78
0.29
0.16
0.18
0.17
0.36
0.21
0.16
0.15
0.79
0.8100000000000001
0.22
0.22
0.2
0.22
0.8
0.18
0.22
0.8
0.79
0.8
0.18
0.18
0.23
0.19
0.17
0.79
0.18
0.23
0.19
0.8200000000000001
0.78
0.2
0.77
0.77
0.21
0.18
0.2
0.77
0.18
0.18
0.37
0.75
0.8200000000000001
0.18
0.8
0.18
0.78
0.18
0.2
0.22
0.22
0.23
0.18
0.23
0.79
0.8200000000000001
0.23
0.19
0.23
0.18
0.22
0.22
0.2
0.73
0.15
0.7000000000000001
0.21
0.78
0.78
0.22
0.23
0.79
0.79
0.77
0.21
0.2
0.18
0.8100000000000001
0.21
0.22
0.21
0.2
0.2
0.16
0.18
0.22
0.17
0.2
0.19
0.17
0.17
0.17
0.8
0.78
0.2
0.21
0.8300000000000001
0.8
0.19
0.19
0.18
0.22
0.23
0.16
0.17
0.19
0.17
0.18
0.2
0.2
0.16
0.8100000000000001
0.17
0.19
0.8200000000000001
0.2
0.18
0.21
0.18
0.78
0.79
0.85
0.8200000000000001
0.19
0.79
0.22
0.21
0.22
0.77
0.21
0.21
0.21
0.2
0.21
0.23
0.22
0.19
0.78
0.77
0.2
0.77
0.19
0.21
0.22
0.21
0.8100000000000001
0.18
0.23
0.2
0.8100000000000001
0.2
0.17
0.77
0.86
0.14
0.17
0.13
0.11
0.21
0.2
0.21
0.78
0.19
0.2
0.21
0.19
0.23
0.21
0.2
0.2
0.21
0.19
0.22
0.2
0.8
0.8300000000000001
0.2
0.21
0.21
0.22
0.8
0.8100000000000001
0.18
0.8
0.19
0.22
0.16
0.79
0.2
0.2
0.23
0.2
0.23
0.19
0.5
0.35
0.2
0.8
0.8
0.8
0.2
0.21
0.2
0.2
0.26
0.52
0.2
0.46
0.2
0.2
0.15
0.18
0.16
0.21
0.22
0.21
0.17
0.18
0.23
0.15
0.09
0.18
0.16
0.08
0.16
0.21
0.19
0.17
0.09
0.22
0.23
0.22
0.18
0.19
0.18
0.8
0.8100000000000001
0.18
0.19
0.21
0.1
0.2
0.18
0.16
0.8100000000000001
0.21
0.19
0.23
0.18
0.13
0.18
0.13
0.21
0.12
0.22
0.18
0.2
0.87
0.22
0.06
0.2
0.21
0.2
0.78
0.19
0.18
0.21
0.8100000000000001
0.12
0.18
0.19
0.21
0.21
0.8
0.2
0.77
0.22
0.17
0.21
0.2
0.21
0.22
0.18
0.2
0.15
0.18
0.8
0.21
0.2
0.19
0.35
0.18
0.22
0.21
0.35
0.49
0.2
0.8
0.2
0.22
0.21
0.19
0.22
0.13
0.17
0.19
0.23
0.8
0.21
0.21
0.21
0.22
0.22
0.2
0.23
0.22
0.17
0.2
0.77
0.15
0.2
0.2
0.18
0.23
0.8300000000000001
0.19
0.66
0.18
0.19
0.2
0.18
0.59
0.65
0.2
0.19
0.32
0.23
0.18
0.19
0.19
0.8300000000000001
0.19
0.2
0.22
0.22
0.17
0.79
0.18
0.18
0.8
0.8
0.19
0.18
0.78
0.18
0.19
0.87
0.16
0.19
0.78
0.19
0.39
0.22
0.18
0.8100000000000001
0.79
0.21
0.23
0.17
0.21
0.21
0.79
0.17
0.22
0.79
0.19
0.17
0.23
0.23
0.21
0.17
0.14
0.2
0.21
0.19
0.2
0.16
0.13
0.22
0.2
0.18
0.22
0.18
0.2
0.22
0.22
0.2
0.2
0.2
0.18
0.2
0.17
0.17
0.18
0.16
0.79
0.18
0.17
0.78
0.23
0.4
0.22
0.15
0.59
0.2
0.17
0.22
0.22
0.87
0.13
0.22
0.23
0.17
0.77
0.2
0.23
0.23
0.8
0.2
0.17
0.22
0.2
0.21
0.21
0.21
0.68
0.22
0.2
0.21
0.21
0.19
0.15
0.78
0.22
0.16
0.18
0.22
0.21
0.21
0.72
0.79
0.23
0.14
0.19
0.17
0.84
0.8100000000000001
0.2
0.18
0.23
0.78
0.77
0.17
0.23
0.2
0.19
0.21
0.22
0.22
0.21
0.77
0.79
0.18
0.19
0.2
0.21
0.17
0.14
0.21
0.22
0.14
0.21
0.2
0.16
0.22
0.17
0.84
0.73
0.18
0.8300000000000001
0.22
0.2
0.22
0.19
0.8
0.8100000000000001
0.78
0.19
0.2
0.17
0.19
0.8
0.16
0.2
0.18
0.62
0.8100000000000001
0.22
0.19
0.21
0.66
0.78
0.2
0.8100000000000001
0.21
0.79
0.23
0.23
0.2
0.22
0.21
0.23
0.21
0.21
0.21
0.21
0.73
0.78
0.15
0.2
0.8200000000000001
0.23
0.18
0.77
0.23
0.79
0.78
0.78
0.23
0.76
0.8100000000000001
0.2
0.2
0.8200000000000001
0.22
0.21
0.2
0.8
0.8
0.8200000000000001
0.33
0.17
0.77
0.19
0.78
0.79
0.2
0.79
0.16
0.2
0.67
0.78
0.22
0.21
0.22
0.2
0.8300000000000001
0.22
0.17
0.78
0.19
0.22
0.8
0.19
0.22
0.22
0.22
0.8100000000000001
0.18
0.18
0.2
0.19
0.2
0.22
0.79
0.2
0.2
0.8
0.78
0.23
0.79
0.18
0.78
0.8100000000000001
0.19
0.16
0.17
0.49
0.8200000000000001
0.18
0.16
0.21
0.22
0.23
0.21
0.22
0.22
0.2
0.8
0.22
0.8
0.21
0.21
0.79
0.22
0.79
0.21
0.19
0.67
0.78
0.84
0.27
0.32
0.21
0.22
0.2
0.2
0.77
0.78
0.18
0.21
0.21
0.2
0.2
0.21
0.22
0.22
0.18
0.19
0.19
0.67
0.77
0.23
0.79
0.79
0.19
0.22
0.18
0.17
0.16
0.2
0.22
0.21
0.22
0.2
0.21
0.18
0.18
0.21
0.78
0.78
0.2
0.21
0.21
0.21
0.8
0.22
0.19
0.21
0.15
0.2
0.8100000000000001
0.21
0.19
0.18
0.21
0.18
0.32
0.64
0.77
0.2
0.36
0.8
0.23
0.8300000000000001
0.65
0.22
0.2
0.23
0.23
0.78
0.19
0.23
0.2
0.19
0.21
0.23
0.8200000000000001
0.2
0.21
0.22
0.78
0.2
0.8100000000000001
0.21
0.85
0.22
0.2
0.2
0.21
0.21
0.21
0.16
0.22
0.22
0.21
0.22
0.19
0.19
0.8
0.23
0.23
0.21
0.17
0.22
0.22
0.2
0.22
0.23
0.19
0.8300000000000001
0.2
0.8
0.2
0.21
0.79
0.8
0.23
0.23
0.2
0.8
0.8
0.8
0.77
0.15
0.23
0.42
0.22
0.22
0.78
0.22
0.2
0.47
0.2
0.77
0.2
0.21
0.2
0.8
0.2
0.23
0.84
0.77
0.21
0.22
0.85
0.15
0.18
0.78
0.8200000000000001
0.19
0.19
0.2
0.2
0.8100000000000001
0.17
0.18
0.22
0.21
0.77
0.79
0.17
0.24
0.19
0.8
0.18
0.63
0.78
0.21
0.2
0.21
0.2
0.17
0.79
0.23
0.17
0.21
0.2
0.2
0.2
0.8
0.5
0.2
0.2
0.8
0.21
0.8
0.2
0.5
0.8
0.2
0.8
0.2
0.8
0.59
0.2
0.2
0.2
0.8
0.8
0.8
0.2
0.4
0.62
0.8
0.79
0.8
0.2
0.77
0.58
0.8
0.62
0.46
0.8
0.8
0.8
0.49
0.74
0.8
0.25
0.79
0.8
0.8
0.76
0.8
0.8
0.8
0.2
0.7000000000000001
0.8
0.8
0.8
0.2
0.2
0.8
0.7000000000000001
0.79
0.37
0.8
0.8
0.8
0.25
0.34
0.8
0.8
0.74
0.75
0.33
0.8
0.75
0.59
0.8
0.63
0.26
0.4
0.75
0.2
0.67
0.71
0.8
0.8
0.8
0.8
0.2
0.8
0.6
0.8
0.66
0.6
0.8
0.8
0.8
0.5600000000000001
0.8
0.8
0.58
0.8
0.7000000000000001
0.3
0.8
0.31
0.2
0.52
0.45
0.37
0.71
0.58
0.65
0.51
0.44
0.79
0.2
0.8
0.8
0.2
0.8
0.8
0.8
0.8
0.8
0.2
0.2
0.2
0.2
0.13
0.8
0.5700000000000001
0.2
0.2
0.8
0.2
0.2
0.2
0.31
0.2
0.26
0.8
0.2
0.8
0.2
0.5
0.5
0.5
0.22
0.87
0.84
0.84
0.84
0.2
0.8
0.8
0.2
0.8
0.8
0.8
0.2
0.7000000000000001
0.36
0.2
0.8
0.79
0.79
0.2
0.2
0.8
0.59
0.8
0.75
0.2
0.68
0.2
0.2
0.2
0.73
0.76
0.8
0.8
0.73
0.2
0.8
0.8
0.8
0.2
0.8
0.2
0.8
0.2
0.2
0.32
0.8
0.8
0.8
0.8
0.2
0.8
0.2
0.2
0.2
0.8
0.2
0.2
0.2
0.8
0.2
0.8
0.2
0.8
0.2
0.2
0.2
0.2
0.8
0.8
0.8
0.8
0.66
0.7000000000000001
0.68
0.66
0.8
0.8
0.8
0.8
0.8
0.8
0.8
0.8
0.8
0.8
0.8
0.8
0.8
0.8
0.2
0.8
0.8
0.8
0.8
0.8
0.8
0.8
0.8
0.2
0.79
0.8
0.8
0.8
0.8
0.8
0.8
0.8
0.8
0.8
0.8
0.8
0.8
0.3
0.73
0.2
0.2
0.8
0.2
0.2
0.2
0.23
0.2
0.8
0.2
0.2
0.67
0.38
0.2
0.8
0.2
0.33
0.42
0.33
0.35
0.2
0.2
0.8
0.2
0.8
0.2
0.2
0.25
0.29
0.8
0.2
0.2
0.8
0.8
0.8
0.2
0.8
0.79
0.8
0.8
0.62
0.51
0.8
0.79
0.8
0.72
0.8
0.8
0.8
0.2
0.2
0.2
0.8
0.42
0.75
0.35
0.78
0.22
0.19
0.2
0.78
0.78
0.23
0.13
0.18
0.18
0.23
0.2
0.19
0.8200000000000001
0.22
0.2
0.8
0.2
0.79
0.78
0.77
0.21
0.13
0.79
0.2
0.16
0.22
0.16
0.2
0.18
0.2
0.77
0.77
0.22
0.21
0.21
0.8200000000000001
0.2
0.17
0.23
0.8
0.18
0.21
0.19
0.22
0.67
0.8100000000000001
0.78
0.77
0.2
0.2
0.23
0.18
0.22
0.2
0.21
0.18
0.2
0.22
0.8
0.79
0.22
0.17
0.17
0.78
0.8100000000000001
0.3
0.79
0.18
0.8200000000000001
0.79
0.78
0.76
0.22
0.21
0.18
0.19
0.22
0.23
0.8200000000000001
0.2
0.18
0.8
0.8
0.8
0.2
0.8
0.8
0.8
0.8200000000000001
0.8200000000000001
0.2
0.2
0.8
0.8100000000000001
0.18
0.8200000000000001
0.8300000000000001
0.85
0.8
0.8
0.71
0.6
0.8
0.8
0.8
0.2
0.8300000000000001
0.8300000000000001
0.8100000000000001
0.2
0.2
0.85
0.2
0.2
0.8
0.44
0.8
0.2
0.26
0.8
0.2
0.22
0.3
0.2
0.79
0.16
0.15
0.21
0.8300000000000001
0.16
0.17
0.19
0.2
0.23
0.21
0.2
0.17
0.2
0.2
0.24
0.19
0.8200000000000001
0.6900000000000001
0.2
0.25
0.17
0.8300000000000001
0.21
0.21
0.22
0.79
0.8200000000000001
0.21
0.78
0.84
0.23
0.8
0.2
0.8
0.8
0.23
0.22
0.21
0.8
0.17
0.2
0.15
0.2
0.2
0.19
0.15
0.17
0.21
0.79
0.18
0.21
0.77
0.2
0.8
0.2
0.18
0.2
0.79
0.15
0.19
0.18
0.7000000000000001
0.23
0.15
0.22
0.79
0.79
0.21
0.2
0.78
0.2
0.18
0.2
0.17
0.2
0.18
0.2
0.77
0.2
0.19
0.17
0.2
0.79
0.22
0.22
0.8100000000000001
0.8
0.2
0.2
0.8
0.22
0.79
0.18
0.2
0.79
0.2
0.21
0.21
0.21
0.8100000000000001
0.23
0.22
0.17
0.8
0.18
0.25
0.18
0.19
0.16
0.19
0.2
0.8
0.21
0.23
0.84
0.21
0.8
0.19
0.21
0.2
0.8
0.2
0.8300000000000001
0.2
0.79
0.17
0.21
0.23
0.21
0.22
0.22
0.19
0.79
0.21
0.2
0.8300000000000001
0.22
0.22
0.19
0.22
0.22
0.22
0.79
0.79
0.18
0.78
0.21
0.8
0.8
0.8
0.8
0.2
0.8300000000000001
0.79
0.79
0.8100000000000001
0.12
0.8
0.14
0.2
0.23
0.8
0.84
0.8
0.8
0.23
0.8
0.8200000000000001
0.86
0.8
0.79
0.18
0.8200000000000001
0.16
0.2
0.8100000000000001
0.2
0.16
0.8100000000000001
0.8100000000000001
0.21
0.8
0.8
0.78
0.8
0.84
0.8
0.84
0.8
0.8
0.16
0.22
0.8
0.79
0.8100000000000001
0.8
0.8200000000000001
0.2
0.72
0.24
0.2
0.8
0.2
0.2
0.2
0.8
0.8100000000000001
0.86
0.8
0.8200000000000001
0.2
0.2
0.8
0.86
0.8200000000000001
0.2
0.53
0.84
0.8
0.8
0.38
0.8
0.2
0.8
0.8200000000000001
0.8200000000000001
0.8
0.8
0.78
0.8
0.75
0.2
0.78
0.71
0.8
0.8
0.8
0.32
0.8
0.87
0.8
0.84
0.8
0.78
0.78
0.85
0.84
0.19
0.8
0.8200000000000001
0.8
0.8200000000000001
0.79
0.79
0.8200000000000001
0.8
0.78
0.8100000000000001
0.8300000000000001
0.84
0.8100000000000001
0.16
0.19
0.18
0.21
0.35
0.21
0.21
0.18
0.18
0.2
0.8
0.18
0.16
0.21
0.17
0.18
0.23
0.21
0.77
0.23
0.21
0.2
0.79
0.21
0.22
0.23
0.79
0.19
0.22
0.21
0.19
0.22
0.19
0.2
0.77
0.18
0.2
0.19
0.18
0.22
0.19
0.22
0.2
0.17
0.22
0.84
0.17
0.17
0.8300000000000001
0.18
0.22
0.21
0.18
0.19
0.2
0.2
0.19
0.21
0.17
0.15
0.2
0.2
0.77
0.21
0.23
0.21
0.17
0.21
0.17
0.2
0.23
0.23
0.23
0.79
0.21
0.21
0.13
0.16
0.23
0.23
0.16
0.2
0.21
0.22
0.22
0.23
0.8200000000000001
0.8100000000000001
0.22
0.19
0.2
0.17
0.22
0.18
0.2
0.79
0.16
0.18
0.22
0.79
0.17
0.22
0.21
0.15
0.19
0.21
0.17
0.22
0.68
0.21
0.23
0.22
0.19
0.21
0.17
0.15
0.22
0.21
0.18
0.77
0.23
0.14
0.21
0.2
0.2
0.22
0.19
0.8100000000000001
0.8300000000000001
0.18
0.21
0.23
0.21
0.17
0.22
0.2
0.22
0.17
0.18
0.84
0.8
0.21
0.79
0.17
0.2
0.8300000000000001
0.79
0.77
0.23
0.8
0.78
0.26
0.21
0.16
0.19
0.21
0.17
0.18
0.8
0.19
0.22
0.78
0.22
0.19
0.23
0.2
0.21
0.18
0.8
0.8100000000000001
0.8100000000000001
0.2
0.18
0.18
0.65
0.17
0.21
0.22
0.23
0.2
0.2
0.77
0.2
0.23
0.8100000000000001
0.22
0.22
0.23
0.22
0.78
0.21
0.79
0.18
0.85
0.22
0.19
0.17
0.78
0.18
0.8
0.19
0.2
0.2
0.79
0.8
0.2
0.23
0.23
0.21
0.2
0.19
0.22
0.19
0.78
0.8
0.22
0.2
0.19
0.2
0.21
0.8300000000000001
0.23
0.18
0.2
0.78
0.79
0.78
0.18
0.23
0.18
0.8100000000000001
0.22
0.23
0.23
0.23
0.79
0.22
0.2
0.23
0.21
0.23
0.2
0.8
0.19
0.21
0.22
0.8300000000000001
0.78
0.23
0.16
0.19
0.18
0.8
0.2
0.22
0.17
0.2
0.13
0.17
0.18
0.23
0.23
0.21
0.17
0.2
0.19
0.2
0.21
0.8100000000000001
0.23
0.15
0.79
0.79
0.18
0.8100000000000001
0.22
0.18
0.21
0.8
0.22
0.2
0.8100000000000001
0.14
0.2
0.2
0.8
0.21
0.22
0.19
0.22
0.8
0.21
0.2
0.22
0.22
0.8
0.8300000000000001
0.21
0.86
0.18
0.2
0.19
0.23
0.23
0.18
0.22
0.18
0.21
0.79
0.22
0.79
0.21
0.21
0.2
0.8100000000000001
0.22
0.78
0.21
0.18
0.17
0.2
0.21
0.79
0.21
0.21
0.19
0.19
0.8100000000000001
0.22
0.2
0.21
0.21
0.22
0.2
0.19
0.2
0.18
0.19
0.8
0.8300000000000001
0.2
0.79
0.19
0.17
0.19
0.18
0.21
0.8
0.21
0.2
0.8
0.27
0.21
0.19
0.78
0.21
0.79
0.21
0.21
0.22
0.79
0.21
0.77
0.22
0.21
0.8
0.8200000000000001
0.22
0.2
0.9
0.22
0.77
0.8
0.8300000000000001
0.17
0.77
0.2
0.84
0.79
0.2
0.18
0.88
0.85
0.8
0.77
0.22
0.8
0.78
0.2
0.16
0.77
0.8100000000000001
0.8100000000000001
0.79
0.21
0.8200000000000001
0.13
0.22
0.17
0.2
0.2
0.84
0.74
0.2
0.16
0.77
0.8100000000000001
0.8
0.2
0.2
0.8
0.88
0.8300000000000001
0.79
0.17
0.8100000000000001
0.86
0.8
0.79
0.79
0.8300000000000001
0.8100000000000001
0.8300000000000001
0.85
0.18
0.8
0.88
0.21
0.8200000000000001
0.8
0.8
0.87
0.8100000000000001
0.8200000000000001
0.8300000000000001
0.8
0.77
0.8
0.8100000000000001
0.79
0.79
0.8300000000000001
0.8200000000000001
0.79
0.8300000000000001
0.8300000000000001
0.87
0.8200000000000001
0.77
0.8
0.8
0.85
0.85
0.8
0.8
0.88
0.8300000000000001
0.8
0.24
0.16
0.78
0.8
0.2
0.8100000000000001
0.8300000000000001
0.79
0.2
0.8300000000000001
0.84
0.77
0.79
0.79
0.79
0.25
0.8
0.8
0.2
0.12
0.88
0.8
0.8300000000000001
0.87
0.22
0.84
0.78
0.8
0.8
0.2
0.22
0.78
0.2
0.18
0.2
0.8100000000000001
0.8300000000000001
0.8
0.78
0.79
0.19
0.8
0.78
0.77
0.85
0.8
0.8100000000000001
0.8
0.86
0.85
0.8
0.79
0.8
0.22
0.8200000000000001
0.2
0.2
0.78
0.8200000000000001
0.84
0.79
0.66
0.2
0.2
0.8
0.85
0.21
0.8300000000000001
0.79
0.8300000000000001
0.8
0.8
0.79
0.79
0.19
0.2
0.8
0.84
0.79
0.78
0.8200000000000001
0.15
0.8200000000000001
0.17
0.2
0.8100000000000001
0.84
0.8100000000000001
0.86
0.79
0.79
0.8300000000000001
0.84
0.85
0.24
0.2
0.75
0.8
0.8
0.8
0.2
0.8
0.8200000000000001
0.79
0.2
0.78
0.33
0.2
0.6
0.8
0.8
0.2
0.26
0.8100000000000001
0.78
0.8
0.8
0.26
0.8
0.8
0.37
0.85
0.8
0.8
0.15
0.84
0.8300000000000001
0.8100000000000001
0.8
0.2
0.8200000000000001
0.19
0.8200000000000001
0.78
0.8
0.2
0.2
0.8200000000000001
0.8300000000000001
0.23
0.2
0.8100000000000001
0.8100000000000001
0.19
0.79
0.78
0.78
0.23
0.8200000000000001
0.2
0.8200000000000001
0.21
0.2
0.65
0.2
0.8
0.78
0.22
0.17
0.21
0.8
0.87
0.85
0.78
0.8300000000000001
0.8100000000000001
0.8100000000000001
0.79
0.15
0.8100000000000001
0.77
0.21
0.22
0.79
0.79
0.2
0.8200000000000001
0.8
0.8200000000000001
0.77
0.8100000000000001
0.2
0.22
0.16
0.28
0.84
0.22
0.8
0.8300000000000001
0.78
0.77
0.78
0.79
0.79
0.8200000000000001
0.19
0.78
0.21
0.78
0.19
0.19
0.2
0.23
0.19
0.23
0.22
0.2
0.19
0.77
0.19
0.21
0.8200000000000001
0.2
0.2
0.22
0.15
0.18
0.8300000000000001
0.79
0.22
0.8
0.22
0.22
0.19
0.16
0.16
0.19
0.23
0.8100000000000001
0.21
0.21
0.14
0.8
0.17
0.18
0.22
0.23
0.19
0.2
0.23
0.16
0.23
0.18
0.8
0.21
0.23
0.22
0.22
0.21
0.23
0.19
0.21
0.22
0.17
0.22
0.2
0.23
0.22
0.17
0.23
0.2
0.22
0.78
0.19
0.18
0.23
0.21
0.21
0.23
0.23
0.21
0.22
0.2
0.22
0.16
0.22
0.2
0.8
0.19
0.21
0.23
0.8100000000000001
0.84
0.8
0.16
0.21
0.19
0.23
0.23
0.2
0.21
0.8
0.22
0.2
0.78
0.23
0.8200000000000001
0.21
0.21
0.23
0.19
0.21
0.18
0.2
0.79
0.2
0.18
0.2
0.2
0.8200000000000001
0.23
0.17
0.2
0.8300000000000001
0.2
0.79
0.22
0.22
0.84
0.78
0.2
0.21
0.21
0.18
0.17
0.22
0.21
0.23
0.2
0.17
0.79
0.2
0.8300000000000001
0.77
0.77
0.18
0.2
0.22
0.2
0.19
0.21
0.19
0.21
0.13
0.21
0.2
0.8
0.79
0.21
0.18
0.2
0.23
0.19
0.21
0.2
0.18
0.21
0.8
0.8
0.2
0.21
0.22
0.22
0.78
0.8
0.78
0.2
0.22
0.21
0.38
0.2
0.22
0.22
0.2
0.18
0.22
0.23
0.23
0.18
0.2
0.23
0.22
0.17
0.8
0.22
0.17
0.2
0.18
0.14
0.22
0.19
0.18
0.79
0.23
0.8
0.21
0.78
0.19
0.2
0.21
0.22
0.23
0.77
0.22
0.21
0.77
0.23
0.2
0.19
0.21
0.21
0.78
0.2
0.15
0.8200000000000001
0.21
0.19
0.16
0.2
0.22
0.26
0.18
0.2
0.17
0.18
0.22
0.2
0.22
0.2
0.22
0.2
0.2
0.22
0.17
0.79
0.2
0.8300000000000001
0.22
0.17
0.22
0.19
0.22
0.22
0.21
0.79
0.77
0.78
0.22
0.16
0.79
0.8200000000000001
0.8
0.77
0.22
0.22
0.18
0.8200000000000001
0.78
0.19
0.2
0.16
0.79
0.19
0.78
0.79
0.22
0.22
0.8
0.79
0.21
0.8
0.22
0.18
0.8100000000000001
0.21
0.21
0.2
0.22
0.22
0.22
0.8100000000000001
0.2
0.21
0.17
0.22
0.21
0.23
0.22
0.8200000000000001
0.21
0.84
0.8100000000000001
0.8
0.22
0.22
0.22
0.8200000000000001
0.8
0.8200000000000001
0.23
0.8200000000000001
0.21
0.21
0.2
0.21
0.2
0.85
0.23
0.18
0.23
0.77
0.8
0.22
0.22
0.77
0.8
0.77
0.21
0.2
0.8
0.23
0.79
0.19
0.8300000000000001
0.18
0.18
0.78
0.2
0.22
0.21
0.22
0.18
0.22
0.21
0.21
0.23
0.2
0.19
0.2
0.2
0.23
0.16
0.2
0.21
0.17
0.15
0.21
0.78
0.22
0.23
0.79
0.17
0.23
0.21
0.22
0.8100000000000001
0.79
0.22
0.22
0.8200000000000001
0.2
0.19
0.21
0.23
0.17
0.23
0.22
0.2
0.2
0.63
0.26
0.2
0.2
0.79
0.8300000000000001
0.2
0.8200000000000001
0.8200000000000001
0.8
0.25
0.39
0.2
0.2
0.8
0.8
0.18
0.8
0.79
0.78
0.2
0.78
0.8
0.88
0.8200000000000001
0.17
0.8200000000000001
0.8200000000000001
0.8100000000000001
0.79
0.79
0.8300000000000001
0.8
0.8
0.8
0.84
0.8
0.8
0.8200000000000001
0.78
0.8
0.8300000000000001
0.22
0.8
0.2
0.2
0.78
0.78
0.78
0.8200000000000001
0.78
0.86
0.79
0.2
0.2
0.2
0.8100000000000001
0.19
0.2
0.8
0.79
0.8200000000000001
0.8200000000000001
0.2
0.8100000000000001
0.8
0.8300000000000001
0.8
0.2
0.73
0.2
0.2
0.75
0.8
0.8
0.8100000000000001
0.8
0.8
0.8
0.8
0.22
0.2
0.8100000000000001
0.8100000000000001
0.79
0.8300000000000001
0.8
0.79
0.21
0.22
0.21
0.21
0.8
0.8
0.77
0.8
0.79
0.8200000000000001
0.8200000000000001
0.23
0.2
0.8100000000000001
0.8
0.79
0.78
0.77
0.8200000000000001
0.19
0.79
0.78
0.79
0.8100000000000001
0.8
0.26
0.79
0.16
0.19
0.84
0.18
0.16
0.2
0.21
0.22
0.78
0.19
0.77
0.2
0.78
0.23
0.77
0.22
0.2
0.22
0.78
0.22
0.22
0.16
0.19
0.78
0.22
0.2
0.19
0.22
0.22
0.17
0.41
0.23
0.21
0.21
0.22
0.22
0.21
0.8200000000000001
0.42
0.23
0.2
0.2
0.2
0.48
0.22
0.8
0.65
0.6
0.3
0.4
0.76
0.8
0.8
0.2
0.2
0.2
0.2
0.37
0.8
0.8
0.8
0.8
0.8
0.2
0.2

forceimprovementnum 1
maxthreads 4
